<svg id="Capa_1" enable-background="new 0 0 512 512" height="512" viewBox="0 0 512 512" width="512" xmlns="http://www.w3.org/2000/svg"><g><g><g><g><g><g><g><circle cx="256" cy="256" fill="#ffce00" r="256"/></g></g></g></g></g></g><path d="m511.989 258.35-64.159-64.16-13.071 13.071-43.924-43.924-6.065 11.76-106.693-106.693-138.323 78.9 100.006 100.006-73.576 215.133 45.784 45.784c14.306 2.48 29.018 3.773 44.032 3.773 140.601 0 254.728-113.348 255.989-253.65z" fill="#ffa300"/><g><path d="m346.323 373.216h-99.571v-30h79.883l41.694-96.134 27.523 11.936z" fill="#dce1eb"/></g><g><g><g><path d="m373.344 163.337h17.491v168.45h-17.491z" fill="#f24500"/></g></g><g><g><path d="m381.422 163.337h9.414v168.45h-9.414z" fill="#d13400"/><path d="m390.835 163.337v168.45" fill="#f24500"/></g></g><g><g><path d="m297.865 238.817h168.45v17.491h-168.45z" fill="#f24500"/></g></g><g><g><path d="m381.422 238.817h84.893v17.491h-84.893z" fill="#d13400"/></g></g><g><g><path d="m297.865 238.817h168.45v17.491h-168.45z" fill="#f24500" transform="matrix(.707 -.707 .707 .707 -63.14 342.695)"/></g></g><g><g><path d="m435.462 181.822-54.04 54.04v24.737l66.408-66.409z" fill="#d13400"/></g></g><g><g><path d="m373.344 163.337h17.491v168.45h-17.491z" fill="#f24500" transform="matrix(.707 -.707 .707 .707 -63.142 342.687)"/></g></g><g><g><path d="m447.83 300.935-66.408-66.409v24.736l54.04 54.04z" fill="#d13400"/></g></g><g><g><circle cx="382.09" cy="247.562" fill="#fe6a16" r="63.794"/></g></g><g><g><path d="m382.09 183.768c-.224 0-.445.015-.668.017v127.555c.224.002.444.017.668.017 35.233 0 63.794-28.562 63.794-63.794 0-35.233-28.561-63.795-63.794-63.795z" fill="#f24500"/></g></g><g><g><circle cx="362.31" cy="218.013" fill="#f24500" r="9.486"/></g></g><g><g><circle cx="417.134" cy="256.99" fill="#d13400" r="11.987"/></g></g><g><g><circle cx="409.037" cy="213.25" fill="#d13400" r="8.097"/></g></g><g><g><circle cx="360.554" cy="276.78" fill="#f24500" r="14.818"/></g></g></g><g><g><path d="m208.916 479.779c-33.881 0-61.346-27.466-61.346-61.346v-27.681l12.48-96.909-12.48-88.751v-97.184h122.692v97.184l-10.005 92.83 10.005 92.83v27.681c0 33.88-27.465 61.346-61.346 61.346z" fill="#fe6a16"/></g><g><path d="m270.262 107.908h-61.732v371.861c.129.001.256.01.386.01 33.88 0 61.346-27.465 61.346-61.346v-27.681l-10.005-92.83 10.005-92.83z" fill="#f24500"/></g><g><path d="m139.755 68.404h138.323v78.9h-138.323z" fill="#707789"/></g><g><path d="m208.53 68.404h69.547v78.9h-69.547z" fill="#555a66"/></g><g><path d="m139.755 68.404h28.645v78.9h-28.645z" fill="#555a66"/></g><g><path d="m249.432 68.404h28.645v78.9h-28.645z" fill="#333940"/></g><g><path d="m194.593 68.404h28.645v78.9h-28.645z" fill="#555a66"/></g><g><path d="m208.53 68.404h14.709v78.9h-14.709z" fill="#333940"/></g><g><path d="m147.57 205.092h122.692v185.66h-122.692z" fill="#fff"/></g><g><path d="m208.53 205.092h61.732v185.66h-61.732z" fill="#e9edf5"/></g><g><path d="m159.758 232.142h45.933v30.841h-45.933z" fill="#707789"/></g><g><path d="m159.758 287.471h86.995v30.841h-86.995z" fill="#707789"/></g><g><path d="m208.53 287.471h38.222v30.84h-38.222z" fill="#555a66"/></g></g></g></svg>