<svg id="Capa_1" enable-background="new 0 0 512 512" height="512" viewBox="0 0 512 512" width="512" xmlns="http://www.w3.org/2000/svg"><g><g><g><g><g><g><g><g><g><g><circle cx="256" cy="256" fill="#ffbeaa" r="256"/></g></g></g></g></g></g></g></g></g><path d="m277.365 511.121c131.388-10.856 234.635-120.931 234.635-255.121 0-2.238-.029-4.469-.086-6.693l-181.104-181.103-149.62 98.33 111.87 111.87-79.404 169.008z" fill="#faa68e"/><g><path d="m256 464.224c-34.1 0-61.743-27.643-61.743-61.743v-281.016h123.486v281.016c0 34.099-27.643 61.743-61.743 61.743z" fill="#ff7045"/></g><g><path d="m256.124 121.465v342.755c34.042-.067 61.62-27.682 61.62-61.74v-281.015z" fill="#de4726"/></g><g><path d="m186.281 68.204h139.439v98.331h-139.439z" fill="#e9edf5"/></g><g><path d="m256.124 68.204h69.596v98.331h-69.596z" fill="#cdd2e1"/></g><g><path d="m240.701 68.204h30.598v98.331h-30.598z" fill="#fff"/></g><g><path d="m256.124 68.204h15.176v98.331h-15.176z" fill="#e9edf5"/></g><g><g><path d="m300.212 68.204h30.598v98.331h-30.598z" fill="#e9edf5"/></g><g><path d="m181.19 68.204h30.598v98.331h-30.598z" fill="#fff"/></g></g><g><path d="m206.081 220.942h99.837v121.629h-99.837z" fill="#fff"/></g><g><path d="m256.124 220.942h49.795v121.629h-49.795z" fill="#e9edf5"/></g><g><path d="m262 250h34.679v22.154h-34.679z" fill="#636978"/></g><g><path d="m217.414 286.066h79.266v22.154h-79.266z" fill="#7e8596"/></g><g><path d="m256.124 286.066h40.556v22.154h-40.556z" fill="#636978"/></g></g></svg>