<svg id="Layer_1" enable-background="new 0 0 512 512" height="512" viewBox="0 0 512 512" width="512" xmlns="http://www.w3.org/2000/svg"><g><g id="XMLID_3_"><g><g id="XMLID_820_"><g id="XMLID_821_"><g id="XMLID_822_"><g id="XMLID_823_"><g id="XMLID_824_"><g id="XMLID_825_"><g id="XMLID_826_"><g id="XMLID_830_"><g id="XMLID_832_"><g id="XMLID_833_"><g id="XMLID_835_"><g id="XMLID_846_"><g id="XMLID_847_"><g id="XMLID_848_"><circle cx="256" cy="256" fill="#be7bef" r="256"/></g></g></g></g></g></g></g></g></g></g></g></g></g></g></g></g><path d="m512 256c0-37.02-7.87-72.197-22.009-103.97l-56.765-56.765-157.726 35.484-35.274-35.483-161.455 37 25.979 24.484 3.938 61.062-61.863 50.453 61.675 61.235 13.041 90.45 87.793 87.794c15.133 2.787 30.727 4.256 46.666 4.256 141.385 0 256-114.615 256-256z" fill="#8639c9"/><g><g><path d="m159.499 434c-32.23 0-58.358-26.128-58.358-58.358v-251.611h116.717v251.611c-.001 32.23-26.129 58.358-58.359 58.358z" fill="#fff"/><path d="m217.859 124.03v251.61c0 32.23-26.13 58.36-58.36 58.36v-309.97z" fill="#cffffb"/><path d="m159.499 400c-15.085 0-27.314-12.229-27.314-27.314v-207.686h54.627v207.686c0 15.085-12.228 27.314-27.313 27.314z" fill="#ff637b"/><path d="m186.809 165v207.69c0 15.08-12.23 27.31-27.31 27.31v-235z" fill="#e03b5a"/><path d="m78.771 95.266h161.455v37h-161.455z" fill="#cffffb"/><path d="m159.499 95.27h80.73v37h-80.73z" fill="#77fef6"/><path d="m352.499 434c-32.23 0-58.358-26.128-58.358-58.358v-251.611h116.717v251.611c-.001 32.23-26.129 58.358-58.359 58.358z" fill="#fff"/><path d="m410.859 124.03v251.61c0 32.23-26.13 58.36-58.36 58.36v-309.97z" fill="#cffffb"/><path d="m352.499 400c-15.085 0-27.314-12.229-27.314-27.314v-207.686h54.627v207.686c0 15.085-12.228 27.314-27.313 27.314z" fill="#ff637b"/><path d="m379.809 165v207.69c0 15.08-12.23 27.31-27.31 27.31v-235z" fill="#e03b5a"/><path d="m271.771 95.266h161.455v37h-161.455z" fill="#cffffb"/><path d="m352.499 95.27h80.73v37h-80.73z" fill="#77fef6"/></g><path d="m46.824 210.265h418.352v58h-418.352z" fill="#3d5d72"/></g><path d="m256 210.27h209.18v58h-209.18z" fill="#324a5e"/></g></svg>