<svg xmlns="http://www.w3.org/2000/svg" xmlns:xlink="http://www.w3.org/1999/xlink" viewBox="0 0 911 1117"><defs><style>.cls-1{fill:none;}.cls-2{fill:#86cab4;}.cls-3{clip-path:url(#clip-path);}.cls-4{fill:#ffe8ce;}.cls-5{fill:#ecb9b1;}.cls-6{fill:#fdc18e;}.cls-7{fill:#f2a07d;}.cls-8{fill:#fd9f4e;}.cls-9{fill:#fdc260;}.cls-10{fill:#fcd86a;}.cls-11{fill:#f68d7c;}.cls-12{fill:#fe9e88;}.cls-13{fill:#ef5261;}.cls-14{fill:#ff7665;}.cls-15{fill:#e77d71;}.cls-16{fill:#de5a64;}.cls-17{fill:#fabf8c;}.cls-18{fill:#3e0b30;}.cls-19{fill:#c95056;}.cls-20{fill:#fed1cc;}.cls-21{fill:#d1505f;}.cls-22{fill:#c65255;}.cls-23{fill:#f07972;}.cls-24{fill:#c34c4b;}.cls-25{fill:#d05956;}.cls-26{fill:#f7be90;}.cls-27{fill:#f8d3ce;}.cls-28{fill:#ce4d59;}.cls-29{fill:#d74258;}.cls-30{fill:#f79594;}.cls-31{fill:#f27d7d;}.cls-32{fill:#ed6160;}.cls-33{fill:#f9b1b2;}</style><clipPath id="clip-path"><circle class="cls-1" cx="436.52" cy="558.5" r="403"/></clipPath></defs><title>Anciana</title><g id="Población_vulnerable" data-name="Población vulnerable"><circle class="cls-2" cx="436.52" cy="558.5" r="403"/><g class="cls-3"><path class="cls-4" d="M261.52,591.5s-39,79-36,120,36.74,78.76,48.87,83.88c0,0,2.13,2.12,10.13-1.88s59-29,94-57l120-3s54,40,100,60c0,0,44-27,53-66s-47-136-47-136Z"/><path class="cls-5" d="M261.52,592.5s-34,83-27,121.23c6.94,37.94,34.47,73.88,45.85,78.69,0,0,2,2,9.5-1.77s55.34-27.2,88.17-53.47l112.56-2.81s50.65,37.52,93.8,56.28c0,0,49.69-32.57,58.14-69.15s-35-120-35-120Z"/><path class="cls-6" d="M378,649l2,69s.44,12.34-8,20c-21.5,19.5-147,83-147,83s-82,43-101,56c0,0-14,8-15,15s0,58,2,78l657.5.5s5-49,1-80c0,0,0-6-10-11,0,0-95-52-145-79s-104-60-104-60-9-5-10-12,0-85,0-85Z"/><path class="cls-7" d="M379.45,651.47,385.39,722s.43,12.27-7.75,19.88c-20.81,19.38-146.32,80.49-146.32,80.49s-79.4,42.74-97.79,55.66c0,0-13.56,7.95-14.53,14.91s0,57.65,1.94,77.52l636.61.5s4.84-48.7,1-79.51c0,0,0-6-9.68-10.93,0,0-92-51.69-140.39-78.52s-103.7-57.63-103.7-57.63-8.71-5-9.68-11.93,3-86.48,3-86.48Z"/><path class="cls-8" d="M575.52,861.5c-92,38-261,14-261,14s57.91,85.49,63,94.74H500.39Z"/><path class="cls-9" d="M545.33,904.5S483,944,440,947c-27.91,2-52-4-89-19l-36-52s88.62,9.47,133.81,6.73S555,874,576,862C576,862,548.64,903,545.33,904.5Z"/><path class="cls-10" d="M447.52,894.5c-35-1-100-9-133-19,0,0,169,24,261-14C575.52,861.5,484.52,895.5,447.52,894.5Z"/><polygon class="cls-11" points="377.1 970.3 338 970.45 238.78 818.48 266.05 804.59 377.1 970.3"/><polygon class="cls-11" points="500.93 969.5 540.09 969.56 639.8 816.85 612.53 802.97 500.93 969.5"/><path class="cls-12" d="M542.29,945.69h0a13.09,13.09,0,0,0,10.52-5.94l82.68-126.44-22-10.95-82.4,123A13,13,0,0,0,542.29,945.69Z"/><path class="cls-12" d="M334.58,943.72h0a12.9,12.9,0,0,1-10.44-5.81l-81.5-124.67,22-11,81.24,121.27A13,13,0,0,1,334.58,943.72Z"/><path class="cls-13" d="M345,970.24,244.26,816.75s-121.4,62.91-123.57,72.33c0,0-5.21-3.58-.15,81.42Z"/><path class="cls-13" d="M534,970.24,634.66,816.75s121.26,62.91,123.43,72.33c0,0,5.2-3.58.15,81.42Z"/><path class="cls-14" d="M122.84,887.41a4.4,4.4,0,0,0-.51,5.94c6.86,8.75,30.75,32.65,95.19,47.15,80,18,117,13,117,13l-91-140L142.74,872.7a117.77,117.77,0,0,0-19.9,14.71Z"/><path class="cls-14" d="M757.34,887.69a4.46,4.46,0,0,1,.52,6c-6.92,8.84-31,33-95.93,47.65C581.3,959.55,544,954.49,544,954.49L635.73,813l101.56,59.83a118.42,118.42,0,0,1,20.05,14.86Z"/><path class="cls-15" d="M504.74,744.41s-8.71-5-9.68-11.93,3-86.48,3-86.48l-118.61,5.47L385.39,722s.43,12.27-7.75,19.88L362.52,752.5s33,35,61,43,63-2,95-44C518.52,751.5,509,747.31,504.74,744.41Z"/><path class="cls-16" d="M500.52,679.5v-18h-122v22s27,22,59,28a40.33,40.33,0,0,0,29-7C476,697.72,500.52,679.5,500.52,679.5Z"/><path class="cls-7" d="M325.71,641.5c24.49,13.18,68.41,30.44,91.78,35.73.67.15,1.33.31,2,.48a74.73,74.73,0,0,0,35.23-.21c22.05-5.8,74-27,74-27,32-14,37-37,37-37s12,6,33-7,29-26,30-40-10-48-24-61-20-2-20-2c-2,10-5,6-5,5v-16c-1-35-26-55-26-55-49-41-78-114-81-127s-12.5-17.5-12.5-17.5c-30-8-35,36-35,36-.5-8.5-12.5-22.5-12.5-22.5-4,17,4,25,4,25-31-2-51-27-51-27,5,12,5,21,5,21-19-12-43-4-53,14s-23,71-26,120c0,0-2,33-2,47,0,0-9-15-20-4s-32,49-26,72,38,42,62,39C305.71,613.5,312.71,634.5,325.71,641.5Z"/><path class="cls-15" d="M264.52,536.5a40.25,40.25,0,0,0-5.93,7.47c-4.24,6.94-9.45,19.46-2.07,31.53,11,18,36,25,36,25s-9-9-7-17,4-30-21-47Z"/><path class="cls-15" d="M609.06,535.84a41.67,41.67,0,0,1,6,7.78c4.23,7.19,9.36,20.14,1.57,32.4-11.61,18.29-37.4,25-37.4,25s9.4-9.09,7.49-17.33-3.58-30.88,22.39-47.89Z"/><path class="cls-17" d="M291.1,466.77s-6.58,77.73,6.42,120.73c0,0,7.66,30.74,15.83,41.87s12.2,12.34,22.18,17.23,51.83,24,80.91,30.43c0,0,13.08,3.47,23.47,2.62,5.59-.45,22.95-3.5,49.28-13.83s43.09-15.67,50.21-21,18.12-11.32,26.12-31.32,17.7-56.63,17.35-104.82c0,0-2.35,3.82-3.35-.18,0,0-5.77,91.21-24.81,113.7-.85,1-1.69,2-2.51,3a81,81,0,0,1-31.68,23.26c-22,9-74,28-89,26-13.66-1.82-62.95-14.41-97.33-36.27a59,59,0,0,1-18.78-18.94A97.72,97.72,0,0,1,303.83,591c-.8-3.37-1.59-6.73-2.56-10.06C298.74,572.26,293.08,544.5,291.1,466.77Z"/><path class="cls-18" d="M482.52,493.5s25-15,55,3c0,0,4,4,23-13,0,0-14,4-34-7,0,0-20-14-34,0C492.52,476.5,486.52,482.5,482.52,493.5Z"/><path class="cls-19" d="M486.52,475.5s14-15,37-5C523.52,470.5,502.52,452.5,486.52,475.5Z"/><path class="cls-18" d="M388.52,493.5s-25-15-55,3c0,0-4,4-23-13,0,0,14,4,34-7,0,0,20-14,34,0C378.52,476.5,384.52,482.5,388.52,493.5Z"/><path class="cls-19" d="M384.52,475.5s-14-15-37-5C347.52,470.5,368.52,452.5,384.52,475.5Z"/><path class="cls-20" d="M336,399s21.37-18.52,40.51-14.37a8.61,8.61,0,0,1,2.87,1.19A29.59,29.59,0,0,1,393,409S352.52,405.5,336,399Z"/><path class="cls-21" d="M254.52,529.5s19,14,28,33c0,0,5,9,2,19,0,0-2.79,6.84,1,12,5.5,7.5,17,14,17,14s-20-12-16-26S284.52,541.5,254.52,529.5Z"/><path class="cls-22" d="M619.9,529.13s-19.91,13.81-29.71,33c0,0-5.4,9.09-2.61,19.45,0,0,2.66,7.1-1.38,12.28-5.87,7.54-17.86,13.87-17.86,13.87s20.88-11.73,17.19-26.21S588.76,540.56,619.9,529.13Z"/><path class="cls-15" d="M343,341s-29.79,36.24-46.9,77.12c0,0-3.1-.12-4.1-7.12s-7-88,49-100c0,0,17-1,18-9s4-9,14-2,32,24,33,16-4-23,6-19,11,11,17,1,27-27,43-7,34,79,68,120,46.86-9,38.93,105c0,0-16.43-34.51-44.43-55.51s-89-64-94-127c0,0-1-1-4,0s-20,12-17,22c0,0-22-3-37-16a32.13,32.13,0,0,0,7,18S351.52,330.5,343,341Z"/><path class="cls-23" d="M444.43,528.34a24.49,24.49,0,0,1-12.31,2.43,21.23,21.23,0,0,1-5.87-1.27c-8-3-21-12-21-2,0,8.58,5.15,21.57,19.23,28.25a25.82,25.82,0,0,0,19.92,1.11c5.85-2.13,12.88-6.71,18.85-16.36,0,0,9-16-2-16A40.09,40.09,0,0,0,444.43,528.34Z"/><path class="cls-24" d="M415.52,531.5s6,5,13,6c0,0-3-4-5-5S415.52,531.5,415.52,531.5Z"/><path class="cls-24" d="M456.52,530.5s-6,5-13,6c0,0,3-4,5-5S456.52,530.5,456.52,530.5Z"/><path class="cls-25" d="M413,504s-10,21-8,27c1.7,5.11,12,10,12,10s-16.07-2.57-14.5-13.5C404,517,413,504,413,504Z"/><path class="cls-25" d="M457.41,540.93S471,540,470,526c-.62-8.56-7-14-7-14a36.87,36.87,0,0,1,4.18,11.67,16.31,16.31,0,0,1-1.38,10A14.7,14.7,0,0,1,457.41,540.93Z"/><path class="cls-26" d="M450.52,499.5c0,13.53-5,23-19,23-7,0-8.85-8.5-8-22,1-16,6.2-28,12-28S450.52,486,450.52,499.5Z"/><path class="cls-5" d="M370.52,325.5s-35-18-53,14c0,0-18.85,48.22-22.93,89.11s-5.07,77.89-5.07,77.89-12-18-23.51,0-19.57,29.71-23,51.85c0,0-81.46-34.85-78.46-82.85,0,0,0-19,29-38s33-23,42-46,11-53,47-93c0,0,17-24,25-24,0,0,4-2,27,4,0,0,9,1,22-6s44-24,79-29,67-7,90,3,31,21,46,39c0,0,35,49,81,87s56,41,62,60,.64,79.57-88.18,116.78c0,0-18.82-66.78-41.82-45.78a34.3,34.3,0,0,0-2.21,5.93s-2.77,3.39-2.78-4.27,3.37-38.77-23.32-65.22c0,0-37.22-27.67-60-75.55,0,0-16.28-25.56-23-51.22,0,0-9.72-36.31-37.72-12a54.33,54.33,0,0,0-10,28.32s-1-9-13-23c0,0-4,15,4,25,0,0-28,1-51-27C365.52,304.5,369.52,318.5,370.52,325.5Z"/><path class="cls-27" d="M168.52,472.5s59,14,84-28,30-123,84-142c0,0-13-25-18-25s-15-8-42,36a413.19,413.19,0,0,0-40,88s-10,22-32,33S168.52,472.5,168.52,472.5Z"/><path class="cls-27" d="M368.52,269.5s3,14,12,20c3.85,2.57,9.18,2.94,14,2.52a45.21,45.21,0,0,0,16.82-5c10.31-5.31,35.12-18.42,55.17-31.53,0,0,25,61,63,101s95,88,153,50c0,0-77-64-108-110C549.11,258.81,517,238.57,456.7,244.05A238.82,238.82,0,0,0,388.2,261C381.46,263.73,374.39,266.73,368.52,269.5Z"/><path class="cls-4" d="M687.61,508.78a40.07,40.07,0,0,0,4.84-4.82c24.86-29.55,25.71-59.22,21.84-71.52-6-19.1-16-22.12-62-60.31s-81-87.44-81-87.44c-15-18.1-23-29.15-46-39.2s-55-8-90-3-66,22.11-79,29.15-22,6-22,6c-23-6-27-4-27-4-8,0-25,24.12-25,24.12-36,40.21-38,70.36-47,93.48s-13,27.14-42,46.23-29,38.2-29,38.2a47.56,47.56,0,0,0,5,24.23,50.37,50.37,0,0,0,11.36,14.75l3,2.72a49,49,0,0,1-12.35-35.18s0-18.84,28.2-37.68,32.09-22.81,40.84-45.62,10.7-52.57,45.71-92.24c0,0,16.53-23.8,24.31-23.8,0,0,3.89-2,26.25,4,0,0,8.76,1,21.4-5.95S401,257.06,435,252.1s65.15-6.95,87.51,3,30.15,20.83,44.74,38.68c0,0,34,48.6,78.76,86.28s54.46,40.66,60.29,59.51c3.88,12.53,2.88,43.29-23.62,73.34Z"/><path class="cls-20" d="M535,399s-21.38-18.52-40.52-14.37a8.61,8.61,0,0,0-2.87,1.19A29.56,29.56,0,0,0,478,409S518.52,405.5,535,399Z"/><path class="cls-28" d="M389.68,616s37,31.17,92.6.11c0,0-22.55-1.77-45.41-1.95S390.87,615.44,389.68,616Z"/><path class="cls-29" d="M389.83,616.15s29.34-13,34.39-11.56a23.76,23.76,0,0,1,2.93,1.07,20.06,20.06,0,0,0,17.4-.87,11.5,11.5,0,0,1,4.23-1.64c2.89,0,18.33,4.33,33.5,13,0,0-12,.27-16.61.58-15.81,1.07-46,1.93-60.52-.15a81.29,81.29,0,0,0-11.13-.75A16.83,16.83,0,0,0,389.83,616.15Z"/></g><path class="cls-30" d="M149.62,366.42a1.44,1.44,0,0,0-1.36,0,2.76,2.76,0,0,1-1.1.17,3.16,3.16,0,0,1-2.15-.81,29.24,29.24,0,0,1-2.42-3.19,23.28,23.28,0,0,0,2-6.53,29.54,29.54,0,0,1,3.78-1.57,2.07,2.07,0,0,1,1.43.19,1.67,1.67,0,0,1,.77.76,1.2,1.2,0,0,0,1,.71c.74,0,1.48-1.16,1.45-2.5s-.79-2.36-1.53-2.35a1.06,1.06,0,0,0-.83.55,2.13,2.13,0,0,1-.6.56,2.3,2.3,0,0,1-1.64.38,25.83,25.83,0,0,1-3.55-1.25,23.61,23.61,0,0,0-1.68-7.83,22.41,22.41,0,0,1,2-2.5,3,3,0,0,1,1.83-.74,2.42,2.42,0,0,1,1.43.39,1.6,1.6,0,0,0,1.62.19c.88-.51,1-2.36.06-3.93s-2.53-2.28-3.41-1.76a1.44,1.44,0,0,0-.62,1.2,2.54,2.54,0,0,1-.34,1.07,3.19,3.19,0,0,1-1.68,1.56,23.14,23.14,0,0,1-3,.6,23.1,23.1,0,0,0-5.65-6.08,21,21,0,0,1,.56-2.78,2.24,2.24,0,0,1,.95-1.11,1.81,1.81,0,0,1,1.05-.23,1.18,1.18,0,0,0,1.13-.42c.39-.63-.17-1.87-1.3-2.58s-2.42-.62-2.81,0a1.07,1.07,0,0,0,0,1,1.83,1.83,0,0,1,.14.8,2.27,2.27,0,0,1-.57,1.59,19.53,19.53,0,0,1-2.23,1.76,23.27,23.27,0,0,0-8.23-2.58,15.23,15.23,0,0,1-.59-1.8,3,3,0,0,1,.32-2,2.4,2.4,0,0,1,1.07-1,1.6,1.6,0,0,0,1-1.29c0-1-1.52-2.06-3.34-2.08s-3.26,1-3.27,2a1.47,1.47,0,0,0,.72,1.15,2.81,2.81,0,0,1,.73.84,3.17,3.17,0,0,1,.47,2.25,14.8,14.8,0,0,1-.57,1.73,23.81,23.81,0,0,0-9.32,2.21,13.79,13.79,0,0,1-1.53-1.35,2.16,2.16,0,0,1-.51-1.36,1.86,1.86,0,0,1,.31-1,1.15,1.15,0,0,0,.18-1.18c-.36-.65-1.71-.77-2.88-.12s-1.72,1.8-1.36,2.46a1.07,1.07,0,0,0,.87.47,2,2,0,0,1,.77.28,2.29,2.29,0,0,1,1.11,1.26,14.43,14.43,0,0,1,.36,2.06,23.38,23.38,0,0,0-6.73,6.54,18.07,18.07,0,0,1-2.25-.5,3,3,0,0,1-1.5-1.28,2.43,2.43,0,0,1-.32-1.45,1.6,1.6,0,0,0-.59-1.52c-.86-.54-2.55.23-3.51,1.78s-.83,3.3,0,3.83a1.45,1.45,0,0,0,1.36,0,2.56,2.56,0,0,1,1.1-.19,3.13,3.13,0,0,1,2.16.76,19.1,19.1,0,0,1,1.61,1.94,23.28,23.28,0,0,0-2.11,8,21.3,21.3,0,0,1-2.84,1.11,2.12,2.12,0,0,1-1.43-.2,1.72,1.72,0,0,1-.76-.77,1.17,1.17,0,0,0-1-.71c-.74,0-1.48,1.14-1.47,2.48s.78,2.37,1.52,2.36a1.07,1.07,0,0,0,.84-.54,1.86,1.86,0,0,1,.6-.55,2.3,2.3,0,0,1,1.64-.38,23.17,23.17,0,0,1,2.88,1,23.47,23.47,0,0,0,2.17,8.13,15.63,15.63,0,0,1-1.38,1.64,3,3,0,0,1-1.83.76,2.45,2.45,0,0,1-1.43-.38,1.59,1.59,0,0,0-1.63-.17c-.87.52-1,2.37,0,3.93s2.55,2.25,3.42,1.73a1.48,1.48,0,0,0,.61-1.22,2.53,2.53,0,0,1,.33-1.06,3.16,3.16,0,0,1,1.67-1.58,16.33,16.33,0,0,1,2.06-.47,23.43,23.43,0,0,0,5.88,6,25.92,25.92,0,0,1-.36,3.7,2.18,2.18,0,0,1-.83,1.18,1.76,1.76,0,0,1-1,.33,1.18,1.18,0,0,0-1.08.52c-.33.67.34,1.85,1.53,2.45s2.46.4,2.8-.26a1.05,1.05,0,0,0-.1-1,2,2,0,0,1-.21-.79,2.36,2.36,0,0,1,.42-1.64,25.61,25.61,0,0,1,2.55-2.36,23.36,23.36,0,0,0,7.83,2.09,20.57,20.57,0,0,1,.73,2.89,3,3,0,0,1-.5,1.92,2.35,2.35,0,0,1-1.15.91,1.61,1.61,0,0,0-1.12,1.2c-.1,1,1.32,2.19,3.14,2.37s3.33-.69,3.43-1.69a1.43,1.43,0,0,0-.6-1.22,2.56,2.56,0,0,1-.66-.9,3.17,3.17,0,0,1-.25-2.29,24,24,0,0,1,1.54-3.25,23.67,23.67,0,0,0,6.62-1.72,26.72,26.72,0,0,1,3.18,2.2,2.16,2.16,0,0,1,.62,1.31,1.81,1.81,0,0,1-.22,1.06,1.17,1.17,0,0,0-.07,1.19c.42.62,1.77.62,2.88-.13s1.56-2,1.14-2.57a1.07,1.07,0,0,0-.91-.4,1.85,1.85,0,0,1-.79-.2,2.33,2.33,0,0,1-1.22-1.17,24.63,24.63,0,0,1-.8-3.32,23.19,23.19,0,0,0,5.62-5.23,27.74,27.74,0,0,1,3.73.82,3,3,0,0,1,1.47,1.32,2.34,2.34,0,0,1,.29,1.45A1.61,1.61,0,0,0,146,372c.85.55,2.55-.18,3.54-1.71S150.47,367,149.62,366.42Z"/><path class="cls-31" d="M109.67,344.43c5.4-8.95,14.86-13.5,24.44-10.72-.3-.2-.6-.4-.92-.59a22.58,22.58,0,0,0-23.34,38.65,22.1,22.1,0,0,0,5.39,2.36C105.29,367.46,103.41,354.79,109.67,344.43Z"/><path class="cls-32" d="M126.56,341.74c-.08,3-3.18,5.28-6.94,5.18s-6.74-2.58-6.66-5.54,3.2-5.87,7-5.77S126.64,338.78,126.56,341.74Z"/><path class="cls-32" d="M138.26,350.35c-.91,1-2.67.87-3.93-.29s-1.55-2.89-.64-3.89a3.12,3.12,0,0,1,4.57,4.18Z"/><path class="cls-32" d="M125.41,369.16a1.83,1.83,0,0,1-2.63-2.4,1.8,1.8,0,0,1,2.63,2.4Z"/><path class="cls-33" d="M126.74,352.5a1.83,1.83,0,0,1,1.26,3.33,1.8,1.8,0,0,1-1.26-3.33Z"/><path class="cls-32" d="M110,364.11a1.83,1.83,0,0,1-2.6-2.43,1.79,1.79,0,0,1,2.6,2.43Z"/><path class="cls-33" d="M133.76,339.77a1.83,1.83,0,0,1-3.51.59,1.8,1.8,0,0,1,3.51-.59Z"/><path class="cls-32" d="M110,345.37a1.83,1.83,0,0,1-3.51.59,1.8,1.8,0,0,1,3.51-.59Z"/><circle class="cls-32" cx="117.15" cy="356.55" r="3.52"/><circle class="cls-32" cx="105.57" cy="354.95" r="2.49"/><circle class="cls-33" cx="115.26" cy="367.76" r="2.49"/><circle class="cls-33" cx="129.69" cy="362.12" r="2.49"/><path class="cls-30" d="M121.21,861.17a1.93,1.93,0,0,0-1.83,0,3.76,3.76,0,0,1-1.49.23,4.27,4.27,0,0,1-2.89-1.1,39.08,39.08,0,0,1-3.26-4.3,31.36,31.36,0,0,0,2.71-8.79,40.35,40.35,0,0,1,5.1-2.12,2.89,2.89,0,0,1,1.93.26,2.38,2.38,0,0,1,1,1,1.6,1.6,0,0,0,1.3,1c1,0,2-1.56,2-3.36s-1.07-3.19-2.07-3.17a1.42,1.42,0,0,0-1.12.74,2.64,2.64,0,0,1-.81.75,3.16,3.16,0,0,1-2.21.52,36.65,36.65,0,0,1-4.78-1.7,31.72,31.72,0,0,0-2.26-10.54,31.18,31.18,0,0,1,2.76-3.37,4,4,0,0,1,2.48-1,3.19,3.19,0,0,1,1.91.52,2.16,2.16,0,0,0,2.19.26c1.18-.69,1.32-3.18.08-5.3s-3.41-3.07-4.59-2.37a2,2,0,0,0-.84,1.62,3.52,3.52,0,0,1-.45,1.44,4.3,4.3,0,0,1-2.28,2.1,29.15,29.15,0,0,1-4,.8,31.39,31.39,0,0,0-7.61-8.18,27.74,27.74,0,0,1,.76-3.75,2.93,2.93,0,0,1,1.27-1.48,2.33,2.33,0,0,1,1.42-.32,1.56,1.56,0,0,0,1.51-.57c.53-.85-.22-2.51-1.75-3.47s-3.25-.84-3.78,0a1.43,1.43,0,0,0,0,1.35,2.64,2.64,0,0,1,.18,1.08,3.13,3.13,0,0,1-.76,2.14,28.63,28.63,0,0,1-3,2.37A31.48,31.48,0,0,0,87,811a19.92,19.92,0,0,1-.79-2.42,4.08,4.08,0,0,1,.42-2.63A3.29,3.29,0,0,1,88,804.54a2.13,2.13,0,0,0,1.35-1.74c0-1.37-2-2.77-4.5-2.8s-4.38,1.34-4.4,2.7a2,2,0,0,0,1,1.56,3.59,3.59,0,0,1,1,1.13,4.27,4.27,0,0,1,.62,3,20,20,0,0,1-.77,2.33,31.82,31.82,0,0,0-12.54,3,19.77,19.77,0,0,1-2.07-1.82,3,3,0,0,1-.68-1.84,2.34,2.34,0,0,1,.42-1.39,1.56,1.56,0,0,0,.23-1.6c-.48-.88-2.3-1-3.88-.16s-2.31,2.43-1.83,3.31a1.44,1.44,0,0,0,1.18.65,2.45,2.45,0,0,1,1,.36,3.17,3.17,0,0,1,1.5,1.71,21.14,21.14,0,0,1,.49,2.77,31.4,31.4,0,0,0-9.07,8.81,23,23,0,0,1-3-.68,4,4,0,0,1-2-1.72,3.29,3.29,0,0,1-.43-1.94,2.17,2.17,0,0,0-.79-2.06c-1.16-.72-3.43.31-4.72,2.4s-1.13,4.44,0,5.16a1.94,1.94,0,0,0,1.83,0,3.7,3.7,0,0,1,1.48-.26,4.27,4.27,0,0,1,2.92,1,24.55,24.55,0,0,1,2.16,2.6,31.45,31.45,0,0,0-2.83,10.76,28.68,28.68,0,0,1-3.83,1.49,3,3,0,0,1-1.93-.27,2.33,2.33,0,0,1-1-1,1.59,1.59,0,0,0-1.3-1c-1,0-2,1.54-2,3.35s1,3.19,2.05,3.18a1.45,1.45,0,0,0,1.12-.73,2.53,2.53,0,0,1,.82-.74,3.16,3.16,0,0,1,2.21-.51,30.72,30.72,0,0,1,3.87,1.36,31.89,31.89,0,0,0,2.92,10.95,21.23,21.23,0,0,1-1.86,2.21,4,4,0,0,1-2.46,1,3.26,3.26,0,0,1-1.92-.5,2.15,2.15,0,0,0-2.19-.24c-1.17.7-1.29,3.19,0,5.3s3.44,3,4.6,2.33a1.92,1.92,0,0,0,.82-1.64,3.63,3.63,0,0,1,.45-1.43,4.24,4.24,0,0,1,2.25-2.13,20.66,20.66,0,0,1,2.78-.64,31.45,31.45,0,0,0,7.91,8,35.46,35.46,0,0,1-.47,5,3,3,0,0,1-1.13,1.59,2.44,2.44,0,0,1-1.39.44,1.59,1.59,0,0,0-1.46.71c-.45.89.45,2.48,2.06,3.29s3.32.54,3.77-.35a1.45,1.45,0,0,0-.13-1.34,2.58,2.58,0,0,1-.29-1.06,3.19,3.19,0,0,1,.57-2.2,34.74,34.74,0,0,1,3.43-3.18,31.55,31.55,0,0,0,10.56,2.81,28.67,28.67,0,0,1,1,3.9,4,4,0,0,1-.66,2.58,3.22,3.22,0,0,1-1.56,1.23,2.17,2.17,0,0,0-1.51,1.61c-.14,1.36,1.78,2.95,4.23,3.2s4.49-.93,4.63-2.28a1.93,1.93,0,0,0-.82-1.64,3.57,3.57,0,0,1-.88-1.22,4.25,4.25,0,0,1-.34-3.08,34.73,34.73,0,0,1,2.07-4.37,32.13,32.13,0,0,0,8.93-2.32,39.86,39.86,0,0,1,4.28,3,3,3,0,0,1,.84,1.77,2.41,2.41,0,0,1-.3,1.43,1.55,1.55,0,0,0-.09,1.61c.55.83,2.38.83,3.88-.18s2.09-2.63,1.53-3.46a1.45,1.45,0,0,0-1.23-.54,2.45,2.45,0,0,1-1.06-.27,3.15,3.15,0,0,1-1.64-1.57,33.9,33.9,0,0,1-1.09-4.48,31.78,31.78,0,0,0,7.58-7,35.37,35.37,0,0,1,5,1.11,4,4,0,0,1,2,1.76,3.31,3.31,0,0,1,.39,1.95,2.18,2.18,0,0,0,.74,2.08c1.15.74,3.44-.24,4.78-2.3S122.35,861.91,121.21,861.17Z"/><path class="cls-31" d="M67.39,831.55c7.27-12.06,20-18.19,32.93-14.44-.41-.27-.82-.54-1.24-.79a30.42,30.42,0,1,0-24.19,55.24C61.49,862.58,59,845.5,67.39,831.55Z"/><path class="cls-32" d="M90.15,827.93c-.11,4-4.3,7.11-9.36,7s-9.08-3.47-9-7.46,4.31-7.9,9.38-7.77S90.25,823.94,90.15,827.93Z"/><path class="cls-32" d="M105.91,839.52c-1.23,1.35-3.6,1.17-5.3-.38s-2.09-3.91-.86-5.25a4.21,4.21,0,0,1,6.16,5.63Z"/><path class="cls-32" d="M88.59,864.87a2.47,2.47,0,0,1-3.54-3.24,2.42,2.42,0,0,1,3.54,3.24Z"/><path class="cls-33" d="M90.39,842.42a2.46,2.46,0,0,1,1.69,4.48,2.41,2.41,0,0,1-1.69-4.48Z"/><path class="cls-32" d="M67.88,858.06a2.47,2.47,0,0,1-3.51-3.27,2.42,2.42,0,0,1,3.51,3.27Z"/><path class="cls-33" d="M99.84,825.27a2.47,2.47,0,0,1-4.73.8,2.42,2.42,0,0,1,4.73-.8Z"/><path class="cls-32" d="M67.86,832.82a2.47,2.47,0,0,1-4.73.8,2.42,2.42,0,0,1,4.73-.8Z"/><circle class="cls-32" cx="77.47" cy="847.88" r="4.75"/><circle class="cls-32" cx="61.86" cy="845.71" r="3.36"/><circle class="cls-33" cx="74.92" cy="862.98" r="3.36"/><circle class="cls-33" cx="94.36" cy="855.38" r="3.36"/><path class="cls-30" d="M875.77,595a.76.76,0,0,0-.69,0,1.18,1.18,0,0,1-.56.09,1.57,1.57,0,0,1-1.08-.41,13.84,13.84,0,0,1-1.22-1.61,12.08,12.08,0,0,0,1-3.3,15.77,15.77,0,0,1,1.91-.8,1,1,0,0,1,.73.1.84.84,0,0,1,.39.38.61.61,0,0,0,.49.36c.38,0,.75-.59.73-1.26s-.4-1.2-.77-1.19a.53.53,0,0,0-.42.28,1.19,1.19,0,0,1-.31.28,1.16,1.16,0,0,1-.83.19,14.39,14.39,0,0,1-1.79-.63,12,12,0,0,0-.85-4,12.09,12.09,0,0,1,1-1.27,1.53,1.53,0,0,1,.93-.37,1.18,1.18,0,0,1,.72.2.78.78,0,0,0,.82.09c.44-.26.49-1.19,0-2s-1.27-1.15-1.72-.89a.75.75,0,0,0-.31.62,1.27,1.27,0,0,1-.17.53,1.6,1.6,0,0,1-.86.79,9.33,9.33,0,0,1-1.5.3,11.84,11.84,0,0,0-2.85-3.07,11.27,11.27,0,0,1,.28-1.41,1.05,1.05,0,0,1,.48-.55.9.9,0,0,1,.53-.12.57.57,0,0,0,.57-.22c.2-.31-.08-.94-.66-1.3s-1.22-.31-1.42,0a.55.55,0,0,0,0,.5,1.14,1.14,0,0,1,.07.41,1.2,1.2,0,0,1-.29.8,11.2,11.2,0,0,1-1.13.89,11.8,11.8,0,0,0-4.16-1.31,6.69,6.69,0,0,1-.3-.9,1.54,1.54,0,0,1,.16-1,1.18,1.18,0,0,1,.54-.52.8.8,0,0,0,.51-.65c0-.51-.77-1-1.69-1s-1.65.5-1.65,1a.71.71,0,0,0,.36.59,1.49,1.49,0,0,1,.37.42,1.62,1.62,0,0,1,.23,1.14,6,6,0,0,1-.28.88,11.79,11.79,0,0,0-4.71,1.11,6.83,6.83,0,0,1-.78-.68,1.14,1.14,0,0,1-.26-.69.91.91,0,0,1,.16-.52.6.6,0,0,0,.09-.6c-.18-.33-.86-.39-1.46-.06s-.87.91-.69,1.24a.55.55,0,0,0,.45.24,1.14,1.14,0,0,1,.39.14,1.24,1.24,0,0,1,.56.64,7.26,7.26,0,0,1,.18,1,11.76,11.76,0,0,0-3.4,3.31,8,8,0,0,1-1.14-.26,1.48,1.48,0,0,1-.76-.64,1.17,1.17,0,0,1-.16-.73.83.83,0,0,0-.3-.78c-.44-.27-1.29.12-1.77.91s-.43,1.67,0,1.94a.76.76,0,0,0,.69,0,1.28,1.28,0,0,1,.55-.1,1.6,1.6,0,0,1,1.1.39,9.15,9.15,0,0,1,.81,1,11.65,11.65,0,0,0-1.07,4,11.06,11.06,0,0,1-1.43.57,1.11,1.11,0,0,1-.73-.11.87.87,0,0,1-.38-.38.61.61,0,0,0-.49-.37c-.38,0-.75.58-.74,1.26s.39,1.2.76,1.19a.55.55,0,0,0,.43-.27.81.81,0,0,1,.3-.28,1.23,1.23,0,0,1,.83-.19,11.86,11.86,0,0,1,1.46.51,11.76,11.76,0,0,0,1.09,4.11,8.11,8.11,0,0,1-.69.83,1.5,1.5,0,0,1-.93.38,1.16,1.16,0,0,1-.72-.18.78.78,0,0,0-.82-.09c-.44.26-.49,1.2,0,2s1.29,1.13,1.73.87a.74.74,0,0,0,.31-.61,1.26,1.26,0,0,1,.16-.54,1.59,1.59,0,0,1,.85-.8,7.13,7.13,0,0,1,1-.24,11.83,11.83,0,0,0,3,3,12.48,12.48,0,0,1-.18,1.86,1,1,0,0,1-.42.6.87.87,0,0,1-.52.17.6.6,0,0,0-.55.26c-.17.34.17.94.77,1.24s1.25.2,1.42-.13a.54.54,0,0,0,0-.5,1,1,0,0,1-.11-.4,1.22,1.22,0,0,1,.22-.83,12.89,12.89,0,0,1,1.28-1.19,11.75,11.75,0,0,0,4,1,11.73,11.73,0,0,1,.36,1.47,1.45,1.45,0,0,1-.25,1,1.22,1.22,0,0,1-.58.47.81.81,0,0,0-.57.6c0,.51.67,1.11,1.59,1.2s1.68-.35,1.74-.86a.75.75,0,0,0-.31-.61,1.29,1.29,0,0,1-.33-.46,1.57,1.57,0,0,1-.13-1.15,12.63,12.63,0,0,1,.78-1.65,11.5,11.5,0,0,0,3.35-.87,15.53,15.53,0,0,1,1.61,1.11,1.12,1.12,0,0,1,.31.67.83.83,0,0,1-.11.53.59.59,0,0,0,0,.61c.2.31.89.31,1.45-.07s.79-1,.58-1.3a.54.54,0,0,0-.46-.2.91.91,0,0,1-.4-.1,1.21,1.21,0,0,1-.62-.59,13.82,13.82,0,0,1-.41-1.68,11.91,11.91,0,0,0,2.85-2.65,14.79,14.79,0,0,1,1.88.42,1.53,1.53,0,0,1,.75.66,1.24,1.24,0,0,1,.15.73.8.8,0,0,0,.28.78c.43.28,1.28-.09,1.79-.86S876.2,595.24,875.77,595Z"/><path class="cls-31" d="M855.56,583.84c2.74-4.52,7.52-6.83,12.37-5.42l-.47-.29a11.41,11.41,0,1,0-9.08,20.74C853.35,595.49,852.4,589.08,855.56,583.84Z"/><path class="cls-32" d="M864.11,582.48c0,1.5-1.61,2.67-3.51,2.62s-3.41-1.3-3.37-2.8a3.47,3.47,0,0,1,6.88.18Z"/><path class="cls-32" d="M870,586.84a1.42,1.42,0,0,1-2-.15,1.43,1.43,0,0,1-.33-2,1.58,1.58,0,0,1,2.31,2.12Z"/><path class="cls-32" d="M863.52,596.35a.92.92,0,0,1-1.33-1.21.89.89,0,0,1,1.2,0A.87.87,0,0,1,863.52,596.35Z"/><path class="cls-33" d="M864.2,587.92a.93.93,0,0,1,.63,1.69.91.91,0,0,1-.63-1.69Z"/><path class="cls-32" d="M855.75,593.79a.92.92,0,0,1-1.32-1.22.89.89,0,0,1,1.2,0A.88.88,0,0,1,855.75,593.79Z"/><path class="cls-33" d="M867.75,581.49a.93.93,0,0,1-1.78.3.91.91,0,0,1,1.78-.3Z"/><path class="cls-32" d="M855.74,584.32a.92.92,0,0,1-1.77.3.9.9,0,0,1,1.77-.3Z"/><circle class="cls-32" cx="859.35" cy="589.97" r="1.78"/><circle class="cls-32" cx="853.49" cy="589.16" r="1.26"/><circle class="cls-33" cx="858.39" cy="595.64" r="1.26"/><circle class="cls-33" cx="865.69" cy="592.79" r="1.26"/><path class="cls-30" d="M128.61,263.17a1.75,1.75,0,0,0-2.31-.87,1.88,1.88,0,0,0-.67.54l.05-.12c-3.53-1.87-4.67-3.3-5-4.2a13.38,13.38,0,0,0,.58-1.43c.24-.22.94-.49,2.92.19l0-.07a1.11,1.11,0,0,0,.08.56,1.14,1.14,0,1,0,.61-1.49,1.11,1.11,0,0,0-.53.47,6.38,6.38,0,0,1-2.65-1.26,14.36,14.36,0,0,0,.29-4c.12-.51.88-1.85,5.74-2.19v0a2.31,2.31,0,0,0,1.09,1.07,2.34,2.34,0,1,0-1.12-3.12,2.48,2.48,0,0,0-.22.95c-1,.15-4.68.62-6.29-.52a14.17,14.17,0,0,0-4.54-6.35c-.2-.54-.2-1.76,1.44-4.34l-.11-.07a1.94,1.94,0,0,0,.9.08,1.82,1.82,0,1,0-.59-3.6,1.81,1.81,0,0,0-1.5,2.09,1.77,1.77,0,0,0,.53,1,11.24,11.24,0,0,1-2.66,3.5,14.19,14.19,0,0,0-7.58-1.77,7.07,7.07,0,0,1-.13-2.09h-.09a1.14,1.14,0,0,0,.55-.25,1.24,1.24,0,1,0-1.07.23,9.6,9.6,0,0,1-.16,2.19,13.93,13.93,0,0,0-4,1c-.48-.33-1.31-1.31-2.21-4.22a1.74,1.74,0,1,0-2,.14,1.93,1.93,0,0,0,1.14.28c.27.67,1.32,3.49.84,5a14.23,14.23,0,0,0-4.24,4.29c-.4.09-1.49.11-3.66-1.51a1.46,1.46,0,0,0,0-.55,1.36,1.36,0,1,0-1,1.62,1.3,1.3,0,0,0,.71-.41c.59.32,2.83,1.63,2.93,2.83a14.27,14.27,0,0,0,.09,11.56c-.29.58-1.39,2.21-5,3l0,.11a1.64,1.64,0,1,0,.19.67c.46-.16,4.7-1.59,6.36-1.16a14,14,0,0,0,4.09,3.71,14.24,14.24,0,0,0,2.92,1.35c.49.42,1.22,1.51.54,4a1.3,1.3,0,0,0-.49.26,1.36,1.36,0,1,0,1.91.17,1.32,1.32,0,0,0-.68-.44c.07-.64.41-3.06,1.65-3.37a14.49,14.49,0,0,0,4.83-.31c.73.49,1.57,1.74,2.23,4.69h.12a1.55,1.55,0,0,0-.65.47,1.62,1.62,0,1,0,2.28-.21,1.63,1.63,0,0,0-.95-.37,13.13,13.13,0,0,1-.77-5.31,14.46,14.46,0,0,0,2.38-1.29,18.36,18.36,0,0,1,1.38,1.72l.1-.05a1.52,1.52,0,0,0-.41.68,1.61,1.61,0,1,0,1-1.05,18.3,18.3,0,0,1-1.39-1.77,14.05,14.05,0,0,0,2.84-2.87c2.15-.39,5.67,2.25,6.09,2.58a1.74,1.74,0,1,0,3.28-.35Z"/><path class="cls-31" d="M100.64,247.6c3.28-5.44,9-8.2,14.85-6.51l-.56-.36A13.71,13.71,0,1,0,104,265.65C98,261.59,96.84,253.89,100.64,247.6Z"/><path class="cls-32" d="M112.47,246.77c0,1.79-1.93,3.2-4.22,3.14s-4.09-1.57-4-3.36a4.17,4.17,0,0,1,8.26.22Z"/><path class="cls-32" d="M119.58,252a1.94,1.94,0,0,1-2.78-2.54,1.9,1.9,0,0,1,2.78,2.54Z"/><path class="cls-32" d="M111.77,263.42a1,1,0,0,1-1.37-.1,1,1,0,0,1-.23-1.36,1.06,1.06,0,0,1,1.44,0A1,1,0,0,1,111.77,263.42Z"/><path class="cls-33" d="M112.58,253.3a1.11,1.11,0,0,1,.76,2,1,1,0,0,1-1.26-.67A1.06,1.06,0,0,1,112.58,253.3Z"/><path class="cls-32" d="M102.43,260.35a1.11,1.11,0,0,1-1.58-1.47,1.09,1.09,0,0,1,1.58,1.47Z"/><path class="cls-33" d="M116.84,245.57a1.11,1.11,0,0,1-2.13.36,1.09,1.09,0,0,1,2.13-.36Z"/><path class="cls-32" d="M102.42,249a1.11,1.11,0,0,1-2.13.36,1.09,1.09,0,0,1,2.13-.36Z"/><circle class="cls-32" cx="106.75" cy="255.76" r="2.14"/><circle class="cls-32" cx="99.71" cy="254.79" r="1.51"/><circle class="cls-33" cx="105.6" cy="262.58" r="1.51"/><circle class="cls-33" cx="114.37" cy="259.14" r="1.51"/><path class="cls-30" d="M79.77,726a1.92,1.92,0,0,0-2.54-1,2,2,0,0,0-.74.6l.05-.13c-3.89-2.07-5.14-3.65-5.49-4.63a14.13,14.13,0,0,0,.64-1.58c.26-.24,1-.54,3.21.22l0-.09a1.25,1.25,0,1,0,2.4-.34,1.25,1.25,0,0,0-1.64-.68,1.28,1.28,0,0,0-.59.51,7.09,7.09,0,0,1-2.92-1.38,15.78,15.78,0,0,0,.33-4.43c.13-.56,1-2,6.32-2.41v0a2.53,2.53,0,0,0,1.2,1.17,2.58,2.58,0,1,0-1.23-3.43,2.43,2.43,0,0,0-.24,1c-1.08.16-5.17.69-6.93-.57a15.72,15.72,0,0,0-5-7c-.22-.59-.22-1.93,1.58-4.77L68.1,697a2.06,2.06,0,0,0,1,.08,2,2,0,1,0-2.31-1.66,2,2,0,0,0,.59,1.12,12.52,12.52,0,0,1-2.92,3.85,15.73,15.73,0,0,0-8.36-2,8.06,8.06,0,0,1-.14-2.3h-.1a1.21,1.21,0,0,0,.6-.27,1.34,1.34,0,1,0-1.88-.2,1.37,1.37,0,0,0,.7.45,10,10,0,0,1-.17,2.41,15.9,15.9,0,0,0-4.38,1.14c-.52-.36-1.44-1.44-2.42-4.64a2.44,2.44,0,0,0,.38-.48,1.9,1.9,0,1,0-2.61.63,2.17,2.17,0,0,0,1.26.31c.29.73,1.45,3.84.92,5.5a15.47,15.47,0,0,0-4.67,4.72c-.44.11-1.64.12-4-1.66a1.35,1.35,0,0,0,0-.6,1.48,1.48,0,1,0-.35,1.33c.64.35,3.11,1.79,3.23,3.11a15.71,15.71,0,0,0,.09,12.73c-.32.65-1.53,2.44-5.54,3.32l0,.12a1.83,1.83,0,0,0-.6-.64,1.77,1.77,0,1,0,.54,2.45,1.81,1.81,0,0,0,.28-1.07c.5-.18,5.17-1.75,7-1.28a15.76,15.76,0,0,0,7.72,5.57c.54.47,1.34,1.67.6,4.42a1.36,1.36,0,0,0-.54.29,1.49,1.49,0,1,0,2.1.19,1.43,1.43,0,0,0-.75-.49c.08-.7.45-3.37,1.82-3.71a15.58,15.58,0,0,0,5.32-.35c.8.54,1.73,1.92,2.46,5.17h.13a1.82,1.82,0,0,0-.72.52,1.78,1.78,0,1,0,1.46-.64A14.6,14.6,0,0,1,63,728.6a16.54,16.54,0,0,0,2.62-1.41,18.2,18.2,0,0,1,1.53,1.89l.11-.06a1.7,1.7,0,0,0-.46.75,1.78,1.78,0,1,0,1.1-1.16,19.36,19.36,0,0,1-1.54-2,15.38,15.38,0,0,0,3.13-3.16c2.37-.43,6.25,2.49,6.71,2.84a1.85,1.85,0,0,0,.12,1.2A1.92,1.92,0,0,0,79.77,726Z"/><path class="cls-31" d="M49,708.81c3.61-6,9.94-9,16.36-7.17-.2-.14-.41-.27-.62-.4a15.11,15.11,0,1,0-12,27.45C46,724.22,44.78,715.74,49,708.81Z"/><path class="cls-32" d="M62,707.89c0,2-2.13,3.53-4.65,3.47s-4.51-1.73-4.46-3.71,2.15-3.93,4.66-3.86S62.05,705.91,62,707.89Z"/><path class="cls-32" d="M69.83,713.65a2.13,2.13,0,0,1-3.06-2.8,2.09,2.09,0,0,1,3.06,2.8Z"/><path class="cls-32" d="M61.23,726.24a1.23,1.23,0,0,1-1.76-1.61,1.2,1.2,0,0,1,1.76,1.61Z"/><path class="cls-33" d="M62.12,715.09a1.08,1.08,0,0,1,1.3.78,1.1,1.1,0,0,1-.46,1.45,1.17,1.17,0,0,1-1.4-.75A1.16,1.16,0,0,1,62.12,715.09Z"/><path class="cls-32" d="M50.94,722.86a1.23,1.23,0,0,1-1.75-1.63,1.21,1.21,0,0,1,1.75,1.63Z"/><path class="cls-33" d="M66.81,706.57a1.09,1.09,0,0,1-1,1.13,1.1,1.1,0,0,1-1.34-.73,1.18,1.18,0,0,1,1-1.23A1.16,1.16,0,0,1,66.81,706.57Z"/><path class="cls-32" d="M50.93,710.32a1.09,1.09,0,0,1-1,1.12,1.08,1.08,0,0,1-1.33-.72,1.2,1.2,0,0,1,2.35-.4Z"/><circle class="cls-32" cx="55.7" cy="717.8" r="2.36"/><circle class="cls-32" cx="47.95" cy="716.73" r="1.67"/><circle class="cls-33" cx="54.43" cy="725.3" r="1.67"/><circle class="cls-33" cx="64.09" cy="721.52" r="1.67"/><path class="cls-30" d="M857.17,531.4a2.17,2.17,0,0,0-2.87-1.08,2.2,2.2,0,0,0-.83.67l0-.14c-4.39-2.34-5.8-4.12-6.2-5.23a18,18,0,0,0,.73-1.78c.29-.27,1.16-.62,3.62.24l0-.1a1.55,1.55,0,0,0,.1.7,1.42,1.42,0,1,0,.77-1.85,1.37,1.37,0,0,0-.67.58,7.93,7.93,0,0,1-3.3-1.56,18,18,0,0,0,.37-5c.14-.63,1.1-2.3,7.14-2.72v0a2.91,2.91,0,1,0,0-2.55,3.07,3.07,0,0,0-.27,1.17c-1.21.18-5.83.77-7.83-.64a17.56,17.56,0,0,0-5.64-7.9c-.25-.67-.25-2.19,1.78-5.4l-.13-.09a2.34,2.34,0,0,0,1.12.1,2.29,2.29,0,1,0-2-.62,14,14,0,0,1-3.3,4.35,17.7,17.7,0,0,0-9.44-2.2,9.19,9.19,0,0,1-.16-2.59h-.11a1.56,1.56,0,0,0,.69-.32,1.51,1.51,0,0,0-1.9-2.36,1.5,1.5,0,0,0-.23,2.13,1.47,1.47,0,0,0,.79.52,11.27,11.27,0,0,1-.19,2.72,17.91,17.91,0,0,0-4.94,1.29c-.59-.41-1.63-1.63-2.74-5.24a2.84,2.84,0,0,0,.43-.55,2.15,2.15,0,1,0-3,.72,2.45,2.45,0,0,0,1.43.34c.33.83,1.63,4.35,1,6.21a17.75,17.75,0,0,0-5.27,5.33c-.5.13-1.86.14-4.56-1.87a1.42,1.42,0,0,0,0-.68,1.69,1.69,0,1,0-1.28,2,1.64,1.64,0,0,0,.88-.52c.73.4,3.53,2,3.65,3.52a17.77,17.77,0,0,0,.11,14.38c-.36.73-1.73,2.76-6.26,3.74l0,.15a2.06,2.06,0,0,0-.68-.73,2,2,0,1,0,.61,2.77,2,2,0,0,0,.31-1.21c.56-.2,5.84-2,7.91-1.45a17.5,17.5,0,0,0,5.08,4.62,18.1,18.1,0,0,0,3.64,1.68c.61.53,1.51,1.88.67,5a1.65,1.65,0,0,0-.61.33,1.69,1.69,0,1,0,2.38.21,1.73,1.73,0,0,0-.85-.54c.09-.8.51-3.81,2-4.2a17.83,17.83,0,0,0,6-.39c.9.61,2,2.17,2.78,5.84h.14a2,2,0,0,0-.8.58,2,2,0,1,0,2.83-.26,2,2,0,0,0-1.18-.46c-.17-.47-1.38-4-1-6.61a18,18,0,0,0,3-1.59,24.13,24.13,0,0,1,1.72,2.13l.12-.07a2,2,0,0,0-.51.85,2,2,0,1,0,1.24-1.3,22.17,22.17,0,0,1-1.74-2.21,17.62,17.62,0,0,0,3.54-3.57c2.67-.48,7.05,2.81,7.57,3.21a2.16,2.16,0,1,0,4.08-.43Z"/><path class="cls-31" d="M822.38,512c4.09-6.76,11.23-10.2,18.48-8.1-.23-.15-.46-.3-.7-.44a17.06,17.06,0,0,0-17.64,29.21,16.79,16.79,0,0,0,4.07,1.78C819.08,529.44,817.65,519.86,822.38,512Z"/><path class="cls-32" d="M837.1,511c-.06,2.24-2.41,4-5.25,3.92s-5.09-1.95-5-4.19,2.42-4.43,5.26-4.36S837.16,508.76,837.1,511Z"/><path class="cls-32" d="M845.94,517.5a2.41,2.41,0,0,1-3.46-3.16,2.36,2.36,0,0,1,3.46,3.16Z"/><path class="cls-32" d="M836.23,531.72a1.39,1.39,0,0,1-2-1.82,1.36,1.36,0,0,1,2,1.82Z"/><path class="cls-33" d="M837.23,519.12a1.38,1.38,0,0,1,.95,2.52,1.36,1.36,0,0,1-.95-2.52Z"/><path class="cls-32" d="M824.61,527.9a1.39,1.39,0,0,1-2-1.84,1.3,1.3,0,0,1,1.78.06A1.32,1.32,0,0,1,824.61,527.9Z"/><path class="cls-33" d="M842.54,509.51a1.39,1.39,0,0,1-2.66.44,1.36,1.36,0,0,1,2.66-.44Z"/><path class="cls-32" d="M824.6,513.74a1.39,1.39,0,0,1-2.66.45,1.36,1.36,0,0,1,2.66-.45Z"/><circle class="cls-32" cx="829.99" cy="522.19" r="2.66"/><circle class="cls-32" cx="821.23" cy="520.97" r="1.88"/><circle class="cls-33" cx="828.55" cy="530.66" r="1.88"/><circle class="cls-33" cx="839.46" cy="526.39" r="1.88"/><path class="cls-30" d="M867.11,708.83a4.32,4.32,0,0,0-5.72-2.14,4.18,4.18,0,0,0-1.67,1.34l.11-.3c-8.78-4.66-11.6-8.22-12.39-10.45a36.21,36.21,0,0,0,1.45-3.55c.58-.53,2.32-1.22,7.24.48l.08-.18a2.77,2.77,0,0,0,.2,1.38,2.82,2.82,0,1,0,1.52-3.69,2.75,2.75,0,0,0-1.33,1.16c-.63-.16-4.88-1.24-6.59-3.12a35.16,35.16,0,0,0,.74-10c.29-1.26,2.19-4.6,14.26-5.43v-.09a5.82,5.82,0,1,0-.62-2.75c-2.42.37-11.64,1.54-15.63-1.28a35.35,35.35,0,0,0-11.28-15.79c-.5-1.33-.5-4.35,3.57-10.77l-.27-.19a4.53,4.53,0,1,0-3-3.54,4.5,4.5,0,0,0,1.31,2.51c-.43.86-3.31,6.37-6.59,8.69a35.34,35.34,0,0,0-18.85-4.39,18.47,18.47,0,0,1-.32-5.19l-.22,0a3,3,0,0,0,1.82-4.88,3,3,0,1,0-4.71,3.8,3.06,3.06,0,0,0,1.59,1,23.1,23.1,0,0,1-.38,5.44,35.21,35.21,0,0,0-9.88,2.57c-1.17-.82-3.25-3.25-5.47-10.47a5.24,5.24,0,0,0,.86-1.09,4.29,4.29,0,1,0-5.9,1.43,4.9,4.9,0,0,0,2.85.69c.66,1.66,3.26,8.67,2.07,12.4a35.43,35.43,0,0,0-10.53,10.65c-1,.24-3.7.27-9.09-3.74a3.29,3.29,0,0,0,0-1.36,3.37,3.37,0,1,0-2.56,4,3.26,3.26,0,0,0,1.76-1c1.46.8,7,4,7.29,7a35.53,35.53,0,0,0,.2,28.72c-.71,1.46-3.44,5.51-12.5,7.48l.06.28a4.07,4.07,0,1,0,.48,1.66c1.14-.39,11.68-3.94,15.8-2.88a35.7,35.7,0,0,0,17.42,12.57c1.22,1.06,3,3.76,1.35,10a3.25,3.25,0,0,0-1.23.65,3.37,3.37,0,1,0,4.75.43,3.33,3.33,0,0,0-1.69-1.09c.17-1.59,1-7.6,4.09-8.39a35.59,35.59,0,0,0,12-.77c1.8,1.22,3.9,4.34,5.55,11.66l.29,0a4,4,0,1,0,4,.65,3.94,3.94,0,0,0-2.35-.92c-.34-.94-2.75-8-1.93-13.19a36,36,0,0,0,5.92-3.19,43.44,43.44,0,0,1,3.43,4.26l.26-.14a4.07,4.07,0,1,0,1.44-.9,44,44,0,0,1-3.47-4.41,35.1,35.1,0,0,0,7.06-7.13c5.34-1,14.09,5.61,15.13,6.41a4.26,4.26,0,0,0,.28,2.71,4.32,4.32,0,1,0,7.87-3.58Z"/><path class="cls-31" d="M797.63,670.16c8.15-13.51,22.43-20.39,36.9-16.18-.46-.31-.92-.61-1.39-.89A34.08,34.08,0,1,0,806,715C791,704.92,788.19,685.79,797.63,670.16Z"/><path class="cls-32" d="M827,668.08c-.12,4.47-4.81,8-10.48,7.82s-10.17-3.9-10.06-8.36,4.84-8.86,10.51-8.71S827.14,663.61,827,668.08Z"/><path class="cls-32" d="M844.68,681.08c-1.37,1.5-4,1.3-5.94-.44s-2.33-4.37-1-5.87,4.3-1.61,6.21.13S846.05,679.58,844.68,681.08Z"/><path class="cls-32" d="M825.28,709.47a2.77,2.77,0,0,1-4-3.63,2.71,2.71,0,0,1,4,3.63Z"/><path class="cls-33" d="M827.29,684.32a2.45,2.45,0,0,1,2.93,1.76,2.47,2.47,0,0,1-1,3.27,2.71,2.71,0,0,1-1.9-5Z"/><path class="cls-32" d="M802.07,701.84a2.76,2.76,0,0,1-3.93-3.66,2.71,2.71,0,0,1,3.93,3.66Z"/><path class="cls-33" d="M837.88,665.11a2.76,2.76,0,0,1-5.3.89,2.71,2.71,0,0,1,5.3-.89Z"/><path class="cls-32" d="M802.05,673.56a2.76,2.76,0,0,1-5.3.9,2.71,2.71,0,0,1,5.3-.9Z"/><circle class="cls-32" cx="812.82" cy="690.43" r="5.32"/><circle class="cls-32" cx="795.33" cy="688.01" r="3.76"/><circle class="cls-33" cx="809.95" cy="707.36" r="3.76"/><circle class="cls-33" cx="831.74" cy="698.84" r="3.76"/><path class="cls-30" d="M197,871.26a2,2,0,0,0-2.6-1,1.84,1.84,0,0,0-.76.61l0-.13c-4-2.13-5.28-3.75-5.64-4.76a16.17,16.17,0,0,0,.66-1.62c.26-.24,1.05-.56,3.29.22l0-.08a1.29,1.29,0,1,0,2.47-.36,1.3,1.3,0,0,0-1.69-.7,1.32,1.32,0,0,0-.61.53,7.13,7.13,0,0,1-3-1.42,15.86,15.86,0,0,0,.33-4.55c.13-.57,1-2.09,6.5-2.47v0a2.61,2.61,0,0,0,1.23,1.2,2.65,2.65,0,1,0-1.27-3.52,2.69,2.69,0,0,0-.25,1.06c-1.1.17-5.3.71-7.11-.58a16.15,16.15,0,0,0-5.14-7.19c-.22-.6-.22-2,1.63-4.9l-.12-.09a2,2,0,0,0,1,.09,2.06,2.06,0,1,0-2.37-1.7,2.1,2.1,0,0,0,.6,1.14,12.26,12.26,0,0,1-3,4,16.08,16.08,0,0,0-8.58-2,8.41,8.41,0,0,1-.15-2.36h-.1a1.34,1.34,0,0,0,.62-.28,1.38,1.38,0,1,0-1.93-.21,1.34,1.34,0,0,0,.72.46,10.54,10.54,0,0,1-.17,2.48,16.32,16.32,0,0,0-4.5,1.17c-.53-.37-1.48-1.48-2.49-4.76a2.28,2.28,0,0,0,.39-.5,1.95,1.95,0,1,0-2.68.65,2.25,2.25,0,0,0,1.29.32c.3.75,1.49,3.94.94,5.64a16.18,16.18,0,0,0-4.79,4.85c-.45.11-1.69.12-4.14-1.7a1.44,1.44,0,0,0,0-.62,1.53,1.53,0,1,0-1.16,1.83,1.52,1.52,0,0,0,.8-.47c.66.37,3.2,1.85,3.32,3.2a16.18,16.18,0,0,0,.09,13.08c-.32.66-1.57,2.51-5.69,3.4l0,.13a1.78,1.78,0,0,0-.62-.66,1.81,1.81,0,1,0,.84,1.42c.51-.18,5.31-1.8,7.19-1.32a15.82,15.82,0,0,0,4.62,4.2,16.45,16.45,0,0,0,3.31,1.53c.55.48,1.37,1.71.61,4.53a1.6,1.6,0,0,0-.56.3,1.55,1.55,0,1,0,1.4-.3c.08-.72.46-3.46,1.86-3.82a16.2,16.2,0,0,0,5.47-.35c.82.55,1.77,2,2.52,5.31l.14,0a1.91,1.91,0,0,0-.74.53,1.83,1.83,0,1,0,2.81,2.34,1.83,1.83,0,0,0-1.31-3,14.69,14.69,0,0,1-.87-6,15.51,15.51,0,0,0,2.69-1.45,19.23,19.23,0,0,1,1.56,1.94l.12-.06a2,2,0,0,0-.47.77,1.83,1.83,0,1,0,2.28-1.22,1.81,1.81,0,0,0-1.15,0,18.61,18.61,0,0,1-1.58-2,15.71,15.71,0,0,0,3.21-3.25c2.43-.43,6.42,2.56,6.89,2.92a1.92,1.92,0,0,0,.13,1.24,2,2,0,0,0,3.58-1.63Z"/><path class="cls-31" d="M165.38,853.65c3.71-6.15,10.21-9.28,16.8-7.37l-.63-.4a15.52,15.52,0,1,0-12.35,28.18C162.37,869.48,161.08,860.77,165.38,853.65Z"/><path class="cls-32" d="M178.76,852.7c0,2-2.19,3.63-4.77,3.56s-4.63-1.77-4.58-3.81,2.2-4,4.78-4S178.81,850.67,178.76,852.7Z"/><path class="cls-32" d="M186.8,858.62a2.19,2.19,0,0,1-3.14-2.87,2.15,2.15,0,0,1,3.14,2.87Z"/><path class="cls-32" d="M178,871.55a1.13,1.13,0,0,1-1.56-.12,1.11,1.11,0,0,1-.25-1.53,1.19,1.19,0,0,1,1.62,0A1.21,1.21,0,0,1,178,871.55Z"/><path class="cls-33" d="M178.88,860.09a1.14,1.14,0,0,1,1.34.81,1.12,1.12,0,0,1-.47,1.48,1.24,1.24,0,0,1-.87-2.29Z"/><path class="cls-32" d="M167.4,868.07a1.26,1.26,0,0,1-1.79-1.66,1.23,1.23,0,0,1,1.79,1.66Z"/><path class="cls-33" d="M183.7,851.35a1.26,1.26,0,0,1-2.41.41,1.23,1.23,0,0,1,2.41-.41Z"/><path class="cls-32" d="M167.39,855.2a1.26,1.26,0,0,1-2.41.41,1.23,1.23,0,0,1,2.41-.41Z"/><circle class="cls-32" cx="172.29" cy="862.88" r="2.42"/><circle class="cls-32" cx="164.33" cy="861.78" r="1.71"/><circle class="cls-33" cx="170.99" cy="870.59" r="1.71"/><circle class="cls-33" cx="180.91" cy="866.71" r="1.71"/><path class="cls-30" d="M248.54,227.05a3.65,3.65,0,0,0-6.25-.68l.09-.25c-7.41-3.94-9.79-7-10.46-8.83a32,32,0,0,0,1.22-3c.5-.45,2-1,6.12.41l.07-.16a2.39,2.39,0,1,0,1.46-1.95,2.34,2.34,0,0,0-1.14,1c-.53-.13-4.12-1-5.56-2.64a29.68,29.68,0,0,0,.63-8.44c.24-1.06,1.85-3.89,12.05-4.59v-.08a4.84,4.84,0,0,0,2.29,2.24,4.91,4.91,0,1,0-2.36-6.54,5,5,0,0,0-.46,2c-2.05.31-9.84,1.3-13.21-1.08a29.82,29.82,0,0,0-9.52-13.34c-.42-1.13-.42-3.68,3-9.1l-.22-.16a3.85,3.85,0,1,0-1.4-.87c-.37.73-2.8,5.38-5.57,7.34a29.86,29.86,0,0,0-15.92-3.71,15.78,15.78,0,0,1-.28-4.38l-.18,0a2.47,2.47,0,0,0,1.15-.53,2.56,2.56,0,1,0-3.59-.38,2.5,2.5,0,0,0,1.34.86,20,20,0,0,1-.32,4.6,30.24,30.24,0,0,0-8.35,2.17c-1-.69-2.74-2.74-4.62-8.84a4.42,4.42,0,0,0,.73-.92,3.63,3.63,0,1,0-5,1.21,4.11,4.11,0,0,0,2.4.58c.56,1.4,2.76,7.32,1.75,10.48a29.79,29.79,0,0,0-8.89,9c-.84.21-3.13.23-7.68-3.16a2.79,2.79,0,0,0,0-1.15,2.83,2.83,0,1,0-.67,2.54c1.23.67,5.94,3.42,6.15,5.93a30,30,0,0,0,.17,24.26c-.6,1.24-2.91,4.66-10.56,6.32l.06.24a3.35,3.35,0,0,0-1.15-1.22,3.4,3.4,0,1,0,1.55,2.62c1-.33,9.86-3.33,13.34-2.43A30.19,30.19,0,0,0,195.48,233c1,.89,2.55,3.18,1.14,8.41a2.85,2.85,0,1,0,1.55,0c.14-1.34.86-6.42,3.46-7.08a30.28,30.28,0,0,0,10.14-.65c1.52,1,3.29,3.66,4.69,9.85l.24,0a3.44,3.44,0,0,0-1.36,1,3.39,3.39,0,1,0,4.77-.44,3.35,3.35,0,0,0-2-.78c-.29-.79-2.32-6.76-1.63-11.14a30.17,30.17,0,0,0,5-2.7,37.47,37.47,0,0,1,2.9,3.6l.22-.11a3.27,3.27,0,0,0-.87,1.43,3.39,3.39,0,1,0,2.09-2.2,34.69,34.69,0,0,1-2.93-3.72,29.64,29.64,0,0,0,6-6c4.51-.8,11.9,4.74,12.78,5.42a3.58,3.58,0,0,0,.24,2.29,3.65,3.65,0,0,0,6.65-3Z"/><path class="cls-31" d="M189.84,194.37C196.73,183,208.79,177.15,221,180.7c-.38-.25-.77-.51-1.17-.75a28.79,28.79,0,1,0-22.9,52.3C184.26,223.74,181.86,207.58,189.84,194.37Z"/><path class="cls-32" d="M214.67,192.62c-.1,3.77-4.07,6.73-8.86,6.6s-8.59-3.29-8.49-7.06,4.08-7.48,8.88-7.36S214.77,188.84,214.67,192.62Z"/><path class="cls-32" d="M229.59,203.6c-1.16,1.27-3.41,1.1-5-.37s-2-3.69-.81-5a4,4,0,0,1,5.83,5.33Z"/><path class="cls-32" d="M213.2,227.59a2.34,2.34,0,0,1-3.36-3.07,2.3,2.3,0,0,1,3.36,3.07Z"/><path class="cls-33" d="M214.89,206.34a2.33,2.33,0,0,1,1.61,4.24,2.29,2.29,0,0,1-1.61-4.24Z"/><path class="cls-32" d="M193.59,221.14a2.34,2.34,0,0,1-3.32-3.1,2.29,2.29,0,0,1,3.32,3.1Z"/><path class="cls-33" d="M223.84,190.11a2.33,2.33,0,0,1-4.47.75,2.29,2.29,0,0,1,4.47-.75Z"/><path class="cls-32" d="M193.57,197.25a2.34,2.34,0,0,1-4.48.75,2.29,2.29,0,0,1,4.48-.75Z"/><circle class="cls-32" cx="202.67" cy="211.5" r="4.49"/><circle class="cls-32" cx="187.89" cy="209.46" r="3.18"/><circle class="cls-33" cx="200.25" cy="225.81" r="3.18"/><circle class="cls-33" cx="218.65" cy="218.6" r="3.18"/></g></svg>