<svg xmlns="http://www.w3.org/2000/svg" xmlns:xlink="http://www.w3.org/1999/xlink" viewBox="0 0 911 1117"><defs><style>.cls-1,.cls-13{fill:none;}.cls-2{isolation:isolate;}.cls-3{fill:#86cab4;}.cls-4{clip-path:url(#clip-path);}.cls-5{fill:#ffb288;}.cls-6{fill:#999;}.cls-7{fill:#e6e6e6;}.cls-8{fill:#f06258;}.cls-9{fill:#f0b097;}.cls-10{fill:#ef775e;}.cls-11{fill:#fff;}.cls-12{fill:#101415;}.cls-13{stroke:#333;stroke-linecap:round;stroke-miterlimit:10;}.cls-14,.cls-16,.cls-17{fill:#c1272d;}.cls-15{fill:#911d22;}.cls-16{opacity:0.1;mix-blend-mode:multiply;}.cls-17{opacity:0.3;}.cls-18{fill:#f79594;}.cls-19{fill:#f27d7d;}.cls-20{fill:#ed6160;}.cls-21{fill:#f9b1b2;}</style><clipPath id="clip-path"><circle class="cls-1" cx="436.94" cy="561.69" r="403"/></clipPath></defs><title>Asmatico</title><g class="cls-2"><g id="Población_vulnerable" data-name="Población vulnerable"><circle class="cls-3" cx="437.44" cy="561.19" r="403"/><g class="cls-4"><path class="cls-5" d="M78.8,733.72S-33.94,840.2-33.94,896.57,44.35,1118.93,64.71,1144c0,0,3.13,20.36-3.13,32.89s-1.57,23.49,6.26,21.92c6.11-1.22,11.74-13.39,15-21.29a.67.67,0,0,1,1.28.37c-1.07,5.93-3.07,15.18-6,21.44-3.07,6.56,2.41,14.07,9.49,12.53q.51-.1,1-.27a8.54,8.54,0,0,0,5.5-5.33c1.8-4.93,5-14.14,6.89-21.82a1,1,0,0,1,1.89.13,139.27,139.27,0,0,1,.2,25.46c-.73,7.07,6.73,12.26,12.89,8.71l.37-.22a8.64,8.64,0,0,0,3.83-5.51,87.48,87.48,0,0,0,1.7-23.75.36.36,0,0,1,.72-.1,174.48,174.48,0,0,1,3,26.61,9.77,9.77,0,0,0,4.75,8.29c2.47,1.39,5.91,1.93,10.32-.59a9.94,9.94,0,0,0,4.73-6.6c1.4-6.53,3.45-20.43-.34-34.69a14.17,14.17,0,0,1-.29-6.78c.92-4,4-8.69,13.76-4.78,15.66,6.27,21.72,2.19,22.71-.78,1.57-4.7,1.57-6.26-12.53-21.92s-12.52-28.19-23.49-34.45S56.1,927.11,59.23,916.15s62.64-68.9,65.77-83C125,833.15,142.22,759.56,78.8,733.72Z"/><path class="cls-6" d="M746.55,450.69h22.21a8.57,8.57,0,0,1,8.57,8.57V567a0,0,0,0,1,0,0H738a0,0,0,0,1,0,0V459.26A8.57,8.57,0,0,1,746.55,450.69Z" transform="translate(385.43 -324.46) rotate(32.04)"/><path class="cls-7" d="M710.36,599.35l-57.47-36,6.9-11,32.91,9L702,555.8l36.26,22.69-10.55,16.86A12.61,12.61,0,0,1,710.36,599.35Z"/><path class="cls-8" d="M729.85,464h36.92a6.35,6.35,0,0,1,6.35,6.35v110a0,0,0,0,1,0,0H723.5a0,0,0,0,1,0,0v-110A6.35,6.35,0,0,1,729.85,464Z" transform="matrix(0.85, 0.53, -0.53, 0.85, 391.07, -317.47)"/><path class="cls-5" d="M760.35,468.5a8.07,8.07,0,0,0-1.83,1,7.65,7.65,0,0,0-3,5.5l-.2,2.43a7.71,7.71,0,0,0,7,8.31l21.83,1.81h0s-4.9,22.84-14.7,22.14a7.82,7.82,0,0,0-1.74-.62l-27.56-5.95A7.71,7.71,0,0,0,731,509l-.51,2.39a7.7,7.7,0,0,0,5.9,9.15l27.33,5.89-.08.3s7.28,1.5,2.1,4.83h0a7.58,7.58,0,0,0-1.66-.58l-27.56-6a7.7,7.7,0,0,0-9.15,5.91l-.52,2.38a7.71,7.71,0,0,0,5.91,9.15l25,5.39h0a5.83,5.83,0,0,1-1.72,6l0,0h0l0,0h0a7.52,7.52,0,0,0-3.17-1.54l-21.39-4.62c-4-.87-8.48,1.62-9.45,5.63a7.69,7.69,0,0,0,5.85,9.35l16,3.45a44.42,44.42,0,0,0-4.33,12c-23.57,110.31-93,264.72-93,264.72l-59.81-49.55L513.5,858.63c75.51,89.5,126,107.1,154.48,106.78a41.23,41.23,0,0,0,35.71-21.54c74-135.94,86.93-370,86.93-370,22.7-36.25,12.1-49.95,10.84-60.83s10.72-39.71,6.37-42.44c-3.14-2-27.31-2.34-40.47-2.39l-3.58-.3a7.52,7.52,0,0,0-2.13.14,7.12,7.12,0,0,0-1.21.39Z"/><path class="cls-9" d="M319.23,427s-12.93-38-46.67-12.44c0,0-15.94,28.06,2.93,66.92s40.73,11.62,40.73,11.62S313,516.88,326.72,549c0,0-10.51,56.61-29.13,60.11,0,0-16.8,54.54,84.1,68.35,0,0,66.11,6.2,61.55-48.85,0,0-17-11.56-5.37-52.3,0,0,43.17-6.18,57.23-64.72,0,0,22.12,15.12,39.68-24.81S521,454.66,520.22,460.59c0,0,35.69-128.14-55-128.46S354.1,304.82,319.23,427Z"/><path class="cls-10" d="M478.18,370.18s-18.85,23.48-74.43,24.44A80.23,80.23,0,0,0,366,405c-14.06,7.88-34.67,23.35-46.62,43.23,0,0-7.81-31.3,36.87-70.54,47.85-42,35.61,4.88,122.53-55.78,0,0,64.47,14.87,43.91,120.9C522.66,442.79,520.79,412.3,478.18,370.18Z"/><path class="cls-10" d="M333.17,560c7.52,7,39.75,16.22,98.4,21.74a1,1,0,0,1,.48,1.72c-8.06,5.66-41.35,24-104.87-4a2.71,2.71,0,0,1-1.52-2.82,117.79,117.79,0,0,1,2.89-15.24A2.8,2.8,0,0,1,333.17,560Z"/><path class="cls-11" d="M310.73,467s7.48,14.48,2.61,38.26c0,0-1.06,38.3,35.69,67.52s101.12,10.44,123.35-13.26,35.06-71.82,35.06-71.82a73.68,73.68,0,0,1-35.05-17.27c-16.68-14.76-70.93-28.42-116.3-15.92,0,0-25.32,2.77-42.84-5.87Z"/><path class="cls-12" d="M583.7,305.33c1.24-19-4.13-34.56-15.94-46.24C535,226.72,502.63,239.14,488,247.84A21.93,21.93,0,0,1,476.17,251c-9.76-.24-20-3.21-27.38-5.88A63.85,63.85,0,0,1,433,236.7c-62.68-45.55-106.83-16.49-116.55,11.58-10,28.86-35.37,37.48-35.37,37.48-44,12.12-37.8,55.29-33.49,68s21.68,67.87,21.68,67.87c4.6-6.89,12.56-8.76,12.56-8.76,38-9.61,37.48,35.36,37.48,35.36,5.33-38.95,32.45-58.65,42-64.47a12.35,12.35,0,0,1,6.74-1.76c64.35,1.46,110.76-38.91,110.76-38.91s6.33-5.67,14.43,5C508.67,368.31,517,395,520,418.23c2.4,18.79-12.32,67.85-12.32,67.85,1.06-.8,2.3-1.87,3.64-3.1a107.38,107.38,0,0,0,30.36-49.82c3.92-13.87,6.76-28.4,8.45-38.16a57.57,57.57,0,0,1,7.94-20.73C569,356.81,582.08,330.18,583.7,305.33Zm-325.82,61.9s-17.42-33-2-60.7c4.93-8.88,12.61-16.46,32-20.86C287.81,285.67,239.5,325.15,257.88,367.23Zm62-121.52s25.94-56.91,99-16.67C418.89,229,356,202.29,319.86,245.71Zm188.63-.21c14.83-3.66,34.24-7.78,54.61,12.35,10.52,10.4,19.18,27.6,18,44.8-1.32,20.26-14,43.77-23.1,59.81,6.18-24.65,9.6-49.57,9.6-49.57C564.72,265.2,532,246.79,508.49,245.5Z"/><path class="cls-13" d="M420,265.46c-34-16.74-69.6-21.62-85.53,6.43s-17.56,39.93-37,49.36-16.75,34-16.75,34"/><path class="cls-14" d="M141.54,613.83h77.08a13.5,13.5,0,0,1,13.5,13.5V827.62a4,4,0,0,1-4,4H97a4,4,0,0,1-4-4V662.37A48.53,48.53,0,0,1,141.54,613.83Z" transform="translate(593.97 120.53) rotate(48.29)"/><path class="cls-15" d="M141.83,617.78H229.1a13.5,13.5,0,0,1,13.5,13.5V804.21a4,4,0,0,1-4,4H107.46a4,4,0,0,1-4-4V656.12a38.34,38.34,0,0,1,38.34-38.34Z" transform="translate(590.21 109.44) rotate(48.29)"/><path class="cls-14" d="M440.62,646.52h97.65a28,28,0,0,1,28,28V860.3a4,4,0,0,1-4,4H431.1a4,4,0,0,1-4-4V660a13.5,13.5,0,0,1,13.5-13.5Z" transform="translate(-366.16 485.52) rotate(-39.31)"/><path class="cls-15" d="M598.44,776.64,497,859.72a4,4,0,0,1-5.59-.56L381.81,725.35a13.49,13.49,0,0,1,1.9-19l86.74-65c5.77-4.72,30.77,8.58,35.49,14.35L599,771A4,4,0,0,1,598.44,776.64Z"/><path class="cls-15" d="M484,956.05c-16.43,78.06-53.07,249.37-65.32,283.65,0,0-395.94-35.13-415.1,105.37,0,0-24-97.39,49.5-237.89s130.91-287.37,86.21-447L159,633.83a93.05,93.05,0,0,1,72-37.47c18.2-.45,41.19,2.17,69.47,10.85,0,0,109,74.16,134.36,5.28,0,0,90.23,27.51,85.23,89.51-3.36,41.64-14.8,124.41-21.95,174.29Q492.29,916.4,484,956.05Z"/><path class="cls-16" d="M198.22,661.46A85.54,85.54,0,0,0,195,699.18c4.28,33.28,14.54,140.75-17.42,226-38.32,102.18-105.38,213.94-19.16,220.32s159-13.94,256.7,71.26c0,0,147.9-515.76,44.9-571.76-21.36-11.62-30.19,37.5-119.6-4C307.38,625.66,220.21,595,198.22,661.46Z"/><path class="cls-17" d="M487.56,944.08l-54,223.39s-10.17-31.55-7-76.25c2.44-34.27-23.25-27.26-35.38-22.12a15.44,15.44,0,0,1-13.29-.45c-20.57-11,25.1-39.2,35.73-45.7,2.36-1.44,4.86-2.8,6.65-4.89,73-84.86,71.51-234.34,65.17-310.14-.43-5.2,7.14-6.36,8.26-1.27C504.29,754.22,513.1,836.79,487.56,944.08Z"/></g><path class="cls-18" d="M149.55,357.1a1.47,1.47,0,0,0-1.36,0,2.76,2.76,0,0,1-1.1.17,3.17,3.17,0,0,1-2.15-.82,27.39,27.39,0,0,1-2.42-3.19,23.44,23.44,0,0,0,2-6.52,29.6,29.6,0,0,1,3.78-1.58,2.19,2.19,0,0,1,1.43.19,1.77,1.77,0,0,1,.77.76,1.16,1.16,0,0,0,1,.71c.74,0,1.48-1.15,1.45-2.49s-.79-2.36-1.53-2.35a1.09,1.09,0,0,0-.84.55,1.76,1.76,0,0,1-.6.55,2.32,2.32,0,0,1-1.64.39,27.8,27.8,0,0,1-3.54-1.26,23.66,23.66,0,0,0-1.68-7.83,23.19,23.19,0,0,1,2-2.5,2.92,2.92,0,0,1,1.83-.73,2.41,2.41,0,0,1,1.43.38,1.59,1.59,0,0,0,1.62.2c.88-.52,1-2.36.06-3.94s-2.53-2.27-3.41-1.76a1.46,1.46,0,0,0-.62,1.21,2.54,2.54,0,0,1-.34,1.06,3.12,3.12,0,0,1-1.68,1.56,21.53,21.53,0,0,1-3,.6,23.06,23.06,0,0,0-5.65-6.07,21.56,21.56,0,0,1,.56-2.79,2.21,2.21,0,0,1,.95-1.1,1.73,1.73,0,0,1,1.05-.23,1.19,1.19,0,0,0,1.13-.43c.39-.63-.17-1.86-1.3-2.57s-2.42-.62-2.81,0a1,1,0,0,0,0,1,1.87,1.87,0,0,1,.14.81,2.31,2.31,0,0,1-.57,1.59,19.53,19.53,0,0,1-2.23,1.76,23.29,23.29,0,0,0-8.23-2.59,14.59,14.59,0,0,1-.59-1.79,2.93,2.93,0,0,1,.32-2,2.38,2.38,0,0,1,1.06-1,1.61,1.61,0,0,0,1-1.3c0-1-1.52-2-3.34-2.07s-3.26,1-3.27,2a1.47,1.47,0,0,0,.72,1.16,2.69,2.69,0,0,1,.73.84,3.16,3.16,0,0,1,.47,2.25,13.93,13.93,0,0,1-.58,1.73,23.46,23.46,0,0,0-9.31,2.21,16.4,16.4,0,0,1-1.54-1.35,2.2,2.2,0,0,1-.5-1.36,1.76,1.76,0,0,1,.31-1,1.17,1.17,0,0,0,.18-1.19c-.36-.65-1.71-.76-2.88-.12s-1.72,1.81-1.36,2.46a1.05,1.05,0,0,0,.87.48,2,2,0,0,1,.77.27,2.35,2.35,0,0,1,1.11,1.27,15.69,15.69,0,0,1,.36,2.06,23.47,23.47,0,0,0-6.73,6.53,16.42,16.42,0,0,1-2.25-.5,3,3,0,0,1-1.5-1.28,2.38,2.38,0,0,1-.32-1.44,1.64,1.64,0,0,0-.59-1.53c-.86-.53-2.55.24-3.51,1.79s-.83,3.3,0,3.83a1.45,1.45,0,0,0,1.36,0,2.72,2.72,0,0,1,1.1-.2,3.15,3.15,0,0,1,2.16.77,18.79,18.79,0,0,1,1.61,1.93,23.39,23.39,0,0,0-2.11,8,21.3,21.3,0,0,1-2.84,1.11,2.19,2.19,0,0,1-1.43-.2,1.79,1.79,0,0,1-.77-.77,1.17,1.17,0,0,0-1-.72c-.74,0-1.48,1.15-1.47,2.48s.78,2.37,1.52,2.37a1.1,1.1,0,0,0,.84-.54,1.9,1.9,0,0,1,.6-.56,2.34,2.34,0,0,1,1.64-.37,21.63,21.63,0,0,1,2.88,1,23.62,23.62,0,0,0,2.16,8.12,17.23,17.23,0,0,1-1.37,1.65,3,3,0,0,1-1.83.75,2.35,2.35,0,0,1-1.43-.37,1.62,1.62,0,0,0-1.63-.18c-.87.53-.95,2.38,0,3.94s2.55,2.25,3.42,1.73a1.49,1.49,0,0,0,.61-1.22,2.53,2.53,0,0,1,.33-1.06,3.16,3.16,0,0,1,1.67-1.58,16.08,16.08,0,0,1,2.06-.48,23.31,23.31,0,0,0,5.88,6,25.77,25.77,0,0,1-.36,3.69,2.2,2.2,0,0,1-.84,1.19,1.77,1.77,0,0,1-1,.32,1.18,1.18,0,0,0-1.08.53c-.33.66.34,1.84,1.53,2.45s2.46.4,2.8-.27a1.08,1.08,0,0,0-.1-1,1.93,1.93,0,0,1-.21-.79,2.29,2.29,0,0,1,.42-1.63,24.47,24.47,0,0,1,2.55-2.36,23.34,23.34,0,0,0,7.83,2.08,23.46,23.46,0,0,1,.73,2.9,3,3,0,0,1-.5,1.91,2.37,2.37,0,0,1-1.15.92,1.61,1.61,0,0,0-1.12,1.2c-.11,1,1.32,2.18,3.13,2.37s3.34-.69,3.44-1.7a1.46,1.46,0,0,0-.61-1.21,2.81,2.81,0,0,1-.65-.91,3.19,3.19,0,0,1-.26-2.28,25.58,25.58,0,0,1,1.55-3.25,23.67,23.67,0,0,0,6.62-1.72,27.93,27.93,0,0,1,3.18,2.19,2.19,2.19,0,0,1,.62,1.31,1.79,1.79,0,0,1-.22,1.06,1.19,1.19,0,0,0-.07,1.2c.42.62,1.77.61,2.88-.13s1.56-2,1.14-2.57a1.05,1.05,0,0,0-.91-.4,2,2,0,0,1-.79-.2,2.33,2.33,0,0,1-1.22-1.17,24.63,24.63,0,0,1-.8-3.32,23.78,23.78,0,0,0,5.62-5.23,28.1,28.1,0,0,1,3.73.82,3,3,0,0,1,1.47,1.31,2.44,2.44,0,0,1,.29,1.45,1.61,1.61,0,0,0,.56,1.54c.84.56,2.54-.17,3.54-1.7S150.4,357.66,149.55,357.1Z"/><path class="cls-19" d="M109.6,335.12c5.4-8.95,14.86-13.51,24.44-10.72-.3-.2-.6-.4-.92-.59a22.58,22.58,0,0,0-23.34,38.65,22.89,22.89,0,0,0,5.39,2.36C105.22,358.15,103.34,345.48,109.6,335.12Z"/><path class="cls-20" d="M126.49,332.43c-.08,3-3.19,5.28-6.94,5.18s-6.74-2.58-6.66-5.54,3.2-5.87,7-5.77S126.57,329.47,126.49,332.43Z"/><path class="cls-20" d="M138.19,341c-.91,1-2.67.86-3.93-.29s-1.55-2.9-.64-3.89a3.12,3.12,0,0,1,4.57,4.18Z"/><path class="cls-20" d="M125.34,359.85a1.83,1.83,0,0,1-2.63-2.4,1.72,1.72,0,0,1,2.36.05A1.74,1.74,0,0,1,125.34,359.85Z"/><path class="cls-21" d="M126.67,343.18a1.84,1.84,0,0,1,1.26,3.34,1.8,1.8,0,0,1-1.26-3.34Z"/><path class="cls-20" d="M110,354.79a1.82,1.82,0,0,1-2.6-2.42,1.79,1.79,0,0,1,2.6,2.42Z"/><path class="cls-21" d="M133.69,330.46a1.83,1.83,0,0,1-3.51.59,1.8,1.8,0,0,1,3.51-.59Z"/><path class="cls-20" d="M110,336.06a1.83,1.83,0,0,1-3.51.59,1.8,1.8,0,0,1,3.51-.59Z"/><circle class="cls-20" cx="117.08" cy="347.24" r="3.52"/><circle class="cls-20" cx="105.49" cy="345.63" r="2.49"/><circle class="cls-21" cx="115.19" cy="358.45" r="2.49"/><circle class="cls-21" cx="129.62" cy="352.8" r="2.49"/><path class="cls-18" d="M121.14,851.86a2,2,0,0,0-1.83,0,3.43,3.43,0,0,1-1.49.23,4.23,4.23,0,0,1-2.89-1.1,37.9,37.9,0,0,1-3.26-4.29,31.36,31.36,0,0,0,2.71-8.79,41.94,41.94,0,0,1,5.1-2.13,3,3,0,0,1,1.93.26,2.4,2.4,0,0,1,1,1,1.59,1.59,0,0,0,1.3,1c1,0,2-1.55,2-3.35s-1.07-3.19-2.07-3.17a1.43,1.43,0,0,0-1.12.73,2.63,2.63,0,0,1-.81.75,3.11,3.11,0,0,1-2.21.52,36.5,36.5,0,0,1-4.78-1.69,31.83,31.83,0,0,0-2.26-10.55,30.91,30.91,0,0,1,2.76-3.36,4.07,4.07,0,0,1,2.47-1,3.28,3.28,0,0,1,1.92.52,2.14,2.14,0,0,0,2.19.26c1.18-.69,1.32-3.18.07-5.29s-3.4-3.07-4.58-2.38a2,2,0,0,0-.84,1.63A3.43,3.43,0,0,1,116,813a4.3,4.3,0,0,1-2.28,2.1,28.93,28.93,0,0,1-4,.81,31.39,31.39,0,0,0-7.61-8.18,29.26,29.26,0,0,1,.75-3.75,3,3,0,0,1,1.28-1.49,2.4,2.4,0,0,1,1.42-.31,1.58,1.58,0,0,0,1.51-.57c.53-.85-.22-2.52-1.75-3.47s-3.25-.84-3.78,0a1.44,1.44,0,0,0,0,1.34,2.54,2.54,0,0,1,.19,1.09,3.11,3.11,0,0,1-.76,2.13,27.29,27.29,0,0,1-3,2.38,31.46,31.46,0,0,0-11.1-3.48,21.48,21.48,0,0,1-.78-2.42,4.08,4.08,0,0,1,.42-2.63A3.23,3.23,0,0,1,88,795.23a2.14,2.14,0,0,0,1.35-1.75c0-1.36-2-2.77-4.5-2.79s-4.38,1.33-4.4,2.7a2,2,0,0,0,1,1.55,3.83,3.83,0,0,1,1,1.13,4.35,4.35,0,0,1,.62,3,20,20,0,0,1-.77,2.33,31.87,31.87,0,0,0-12.55,3,18.44,18.44,0,0,1-2.06-1.83,2.91,2.91,0,0,1-.68-1.83,2.32,2.32,0,0,1,.42-1.39,1.56,1.56,0,0,0,.23-1.6c-.48-.88-2.3-1-3.88-.16s-2.31,2.43-1.83,3.31a1.43,1.43,0,0,0,1.17.64,2.6,2.6,0,0,1,1,.37,3.17,3.17,0,0,1,1.5,1.71,20.83,20.83,0,0,1,.49,2.77,31.36,31.36,0,0,0-9.07,8.8,22.86,22.86,0,0,1-3-.67,4,4,0,0,1-2-1.73,3.25,3.25,0,0,1-.43-1.94,2.19,2.19,0,0,0-.79-2.06c-1.16-.72-3.43.32-4.72,2.41s-1.13,4.44,0,5.16a1.94,1.94,0,0,0,1.83,0,3.53,3.53,0,0,1,1.48-.26,4.26,4.26,0,0,1,2.92,1,24.84,24.84,0,0,1,2.16,2.61,31.64,31.64,0,0,0-2.84,10.75,28.32,28.32,0,0,1-3.82,1.5,3,3,0,0,1-1.93-.27,2.38,2.38,0,0,1-1-1,1.6,1.6,0,0,0-1.3-1c-1,0-2,1.54-2,3.34s1,3.2,2,3.19a1.45,1.45,0,0,0,1.13-.73,2.76,2.76,0,0,1,.81-.75,3.2,3.2,0,0,1,2.22-.5,29.2,29.2,0,0,1,3.87,1.36,31.77,31.77,0,0,0,2.92,10.94,21.53,21.53,0,0,1-1.86,2.22,4.08,4.08,0,0,1-2.46,1,3.26,3.26,0,0,1-1.92-.5,2.14,2.14,0,0,0-2.2-.24c-1.16.7-1.28,3.19,0,5.3s3.43,3,4.6,2.32a1.9,1.9,0,0,0,.82-1.63,3.67,3.67,0,0,1,.45-1.44,4.26,4.26,0,0,1,2.25-2.12,20.66,20.66,0,0,1,2.78-.64,31.45,31.45,0,0,0,7.91,8,35.31,35.31,0,0,1-.47,5,3,3,0,0,1-1.13,1.6,2.36,2.36,0,0,1-1.39.43,1.61,1.61,0,0,0-1.46.71c-.45.9.45,2.49,2.06,3.3s3.32.54,3.77-.35a1.45,1.45,0,0,0-.13-1.34,2.62,2.62,0,0,1-.29-1.06,3.16,3.16,0,0,1,.57-2.2,34.72,34.72,0,0,1,3.43-3.19,31.19,31.19,0,0,0,10.56,2.81,30.66,30.66,0,0,1,1,3.9,4,4,0,0,1-.66,2.58,3.24,3.24,0,0,1-1.56,1.24,2.16,2.16,0,0,0-1.51,1.61c-.14,1.36,1.78,3,4.23,3.2s4.49-.93,4.63-2.29a2,2,0,0,0-.82-1.64,3.53,3.53,0,0,1-.88-1.21,4.32,4.32,0,0,1-.35-3.08,36.54,36.54,0,0,1,2.08-4.38,31.45,31.45,0,0,0,8.93-2.32,38.48,38.48,0,0,1,4.28,3,3,3,0,0,1,.84,1.77,2.37,2.37,0,0,1-.3,1.42,1.59,1.59,0,0,0-.1,1.62c.56.83,2.39.82,3.89-.18s2.09-2.63,1.53-3.46a1.43,1.43,0,0,0-1.23-.54,2.77,2.77,0,0,1-1.06-.27,3.13,3.13,0,0,1-1.64-1.58,33.33,33.33,0,0,1-1.09-4.47,31.39,31.39,0,0,0,7.57-7.05,36.66,36.66,0,0,1,5,1.11,4.05,4.05,0,0,1,2,1.77,3.28,3.28,0,0,1,.39,2,2.15,2.15,0,0,0,.74,2.08c1.15.74,3.44-.24,4.78-2.3S122.28,852.6,121.14,851.86Z"/><path class="cls-19" d="M67.31,822.23c7.28-12.05,20-18.19,32.94-14.43-.41-.28-.82-.54-1.24-.8a30.42,30.42,0,1,0-24.19,55.25C61.42,853.26,58.89,836.19,67.31,822.23Z"/><path class="cls-20" d="M90.08,818.61c-.11,4-4.3,7.11-9.36,7s-9.08-3.48-9-7.46,4.31-7.91,9.37-7.77S90.18,814.62,90.08,818.61Z"/><path class="cls-20" d="M105.84,830.21c-1.23,1.34-3.6,1.17-5.3-.39s-2.09-3.9-.86-5.24a4.21,4.21,0,0,1,6.16,5.63Z"/><path class="cls-20" d="M88.52,855.55A2.46,2.46,0,0,1,85,852.32a2.42,2.42,0,0,1,3.54,3.23Z"/><path class="cls-21" d="M90.31,833.1a2.47,2.47,0,0,1,1.7,4.49,2.42,2.42,0,0,1-1.7-4.49Z"/><path class="cls-20" d="M67.81,848.74a2.47,2.47,0,0,1-3.51-3.27,2.42,2.42,0,0,1,3.51,3.27Z"/><path class="cls-21" d="M99.77,816a2.47,2.47,0,0,1-4.73.8,2.42,2.42,0,0,1,4.73-.8Z"/><path class="cls-20" d="M67.79,823.5a2.47,2.47,0,0,1-4.73.8,2.42,2.42,0,0,1,4.73-.8Z"/><circle class="cls-20" cx="77.4" cy="838.56" r="4.75"/><circle class="cls-20" cx="61.79" cy="836.4" r="3.36"/><circle class="cls-21" cx="74.84" cy="853.67" r="3.36"/><circle class="cls-21" cx="94.29" cy="846.06" r="3.36"/><path class="cls-18" d="M875.7,585.65a.76.76,0,0,0-.69,0,1.53,1.53,0,0,1-.56.09,1.61,1.61,0,0,1-1.08-.41,15.23,15.23,0,0,1-1.23-1.62,11.57,11.57,0,0,0,1-3.3,15.7,15.7,0,0,1,1.91-.79,1.11,1.11,0,0,1,.73.09.87.87,0,0,1,.39.39.61.61,0,0,0,.49.36c.37,0,.75-.59.73-1.26s-.4-1.2-.77-1.19a.52.52,0,0,0-.42.27.92.92,0,0,1-.31.28,1.16,1.16,0,0,1-.83.2,13.06,13.06,0,0,1-1.79-.64,12,12,0,0,0-.85-4,12.93,12.93,0,0,1,1-1.26,1.46,1.46,0,0,1,.92-.37,1.25,1.25,0,0,1,.73.19.81.81,0,0,0,.82.1c.44-.26.49-1.19,0-2s-1.28-1.15-1.72-.89a.72.72,0,0,0-.31.61,1.31,1.31,0,0,1-.17.54,1.68,1.68,0,0,1-.86.79,12.23,12.23,0,0,1-1.5.3,11.69,11.69,0,0,0-2.85-3.07,10.9,10.9,0,0,1,.28-1.41,1.12,1.12,0,0,1,.48-.56.89.89,0,0,1,.53-.11.61.61,0,0,0,.57-.22c.2-.32-.08-.94-.66-1.3s-1.22-.32-1.42,0a.54.54,0,0,0,0,.51,1.09,1.09,0,0,1,.07.4,1.23,1.23,0,0,1-.29.81,11.2,11.2,0,0,1-1.13.89,11.8,11.8,0,0,0-4.16-1.31,7.24,7.24,0,0,1-.3-.91,1.52,1.52,0,0,1,.16-1,1.18,1.18,0,0,1,.54-.52.81.81,0,0,0,.51-.65c0-.52-.77-1-1.69-1s-1.65.5-1.65,1a.7.7,0,0,0,.36.58,1.53,1.53,0,0,1,.37.43,1.62,1.62,0,0,1,.23,1.14,5.14,5.14,0,0,1-.29.87,12.05,12.05,0,0,0-4.71,1.12,7.54,7.54,0,0,1-.77-.68,1.08,1.08,0,0,1-.26-.69.92.92,0,0,1,.16-.53.59.59,0,0,0,.09-.6c-.18-.32-.87-.38-1.46-.06s-.87.92-.69,1.25a.55.55,0,0,0,.45.24,1,1,0,0,1,.39.14,1.2,1.2,0,0,1,.56.64,8.64,8.64,0,0,1,.18,1,11.85,11.85,0,0,0-3.4,3.3,8.16,8.16,0,0,1-1.14-.25,1.45,1.45,0,0,1-.76-.65,1.22,1.22,0,0,1-.17-.73.8.8,0,0,0-.29-.77c-.44-.27-1.29.12-1.78.9s-.42,1.67,0,1.94a.71.71,0,0,0,.69,0,1.28,1.28,0,0,1,.55-.09,1.59,1.59,0,0,1,1.1.38,10.54,10.54,0,0,1,.81,1,11.71,11.71,0,0,0-1.07,4,9.59,9.59,0,0,1-1.43.56,1.11,1.11,0,0,1-.73-.1.85.85,0,0,1-.38-.39.61.61,0,0,0-.49-.36c-.38,0-.75.58-.75,1.25s.4,1.2.77,1.2a.55.55,0,0,0,.43-.27.81.81,0,0,1,.3-.28,1.13,1.13,0,0,1,.83-.19,10.38,10.38,0,0,1,1.46.51,11.82,11.82,0,0,0,1.09,4.11,7.82,7.82,0,0,1-.7.83,1.51,1.51,0,0,1-.92.38,1.24,1.24,0,0,1-.72-.19.82.82,0,0,0-.83-.09c-.43.27-.48,1.2,0,2s1.29,1.14,1.73.88a.75.75,0,0,0,.31-.62,1.3,1.3,0,0,1,.16-.54,1.58,1.58,0,0,1,.85-.79,6.94,6.94,0,0,1,1-.25,11.67,11.67,0,0,0,3,3,12.49,12.49,0,0,1-.18,1.87,1.08,1.08,0,0,1-.42.6.89.89,0,0,1-.52.16.61.61,0,0,0-.55.27c-.17.33.17.93.77,1.24s1.25.2,1.42-.14a.54.54,0,0,0-.05-.5.92.92,0,0,1-.11-.4,1.15,1.15,0,0,1,.22-.82,11.85,11.85,0,0,1,1.28-1.2,11.77,11.77,0,0,0,4,1.06,12.08,12.08,0,0,1,.36,1.46,1.46,1.46,0,0,1-.25,1,1.14,1.14,0,0,1-.58.46.82.82,0,0,0-.57.61c-.05.51.67,1.11,1.59,1.2s1.68-.35,1.74-.86a.74.74,0,0,0-.31-.61,1.5,1.5,0,0,1-.33-.46,1.59,1.59,0,0,1-.13-1.16,12.61,12.61,0,0,1,.78-1.64,11.82,11.82,0,0,0,3.35-.87,14.12,14.12,0,0,1,1.61,1.11,1.12,1.12,0,0,1,.31.66.86.86,0,0,1-.11.54.61.61,0,0,0,0,.61c.21.31.9.3,1.46-.07s.79-1,.58-1.3a.54.54,0,0,0-.46-.2,1.08,1.08,0,0,1-.4-.11,1.14,1.14,0,0,1-.62-.59,13,13,0,0,1-.41-1.68,11.87,11.87,0,0,0,2.85-2.64,13.23,13.23,0,0,1,1.88.42,1.48,1.48,0,0,1,.75.66,1.24,1.24,0,0,1,.15.73.82.82,0,0,0,.27.78c.43.28,1.29-.09,1.8-.86S876.13,585.93,875.7,585.65Z"/><path class="cls-19" d="M855.49,574.53c2.73-4.52,7.52-6.83,12.37-5.42l-.47-.3a11.42,11.42,0,1,0-11.8,19.55,11.08,11.08,0,0,0,2.72,1.19C853.28,586.18,852.33,579.77,855.49,574.53Z"/><path class="cls-20" d="M864,573.17c0,1.5-1.62,2.67-3.52,2.62s-3.4-1.31-3.36-2.8a3.47,3.47,0,0,1,6.88.18Z"/><path class="cls-20" d="M870,577.52a1.61,1.61,0,0,1-2.31-2.11,1.58,1.58,0,0,1,2.31,2.11Z"/><path class="cls-20" d="M863.45,587a.81.81,0,0,1-1.14-.09.82.82,0,0,1-.19-1.13.91.91,0,0,1,1.33,1.22Z"/><path class="cls-21" d="M864.13,578.61a.83.83,0,0,1,1,.59.82.82,0,0,1-.35,1.09.87.87,0,0,1-1-.56A.88.88,0,0,1,864.13,578.61Z"/><path class="cls-20" d="M855.68,584.48a.93.93,0,0,1-1.32-1.23.91.91,0,0,1,1.32,1.23Z"/><path class="cls-21" d="M867.68,572.17a.93.93,0,0,1-1.78.3.91.91,0,0,1,1.78-.3Z"/><path class="cls-20" d="M855.67,575c.07.38-.28.76-.77.85a.84.84,0,0,1-1-.55.91.91,0,0,1,1.78-.3Z"/><circle class="cls-20" cx="859.28" cy="580.66" r="1.78"/><circle class="cls-20" cx="853.42" cy="579.85" r="1.26"/><circle class="cls-21" cx="858.32" cy="586.33" r="1.26"/><circle class="cls-21" cx="865.62" cy="583.47" r="1.26"/><path class="cls-18" d="M128.54,253.85a1.75,1.75,0,0,0-2.31-.86,1.78,1.78,0,0,0-.67.54l0-.12c-3.54-1.88-4.67-3.31-5-4.2.22-.47.41-1,.58-1.43.24-.22.94-.5,2.92.19l0-.08a1.08,1.08,0,0,0,.08.56,1.14,1.14,0,1,0,.61-1.48,1.16,1.16,0,0,0-.54.46,6.44,6.44,0,0,1-2.65-1.25,14.07,14.07,0,0,0,.3-4c.12-.5.88-1.85,5.74-2.18v0a2.4,2.4,0,0,0,1.09,1.07,2.34,2.34,0,1,0-1.12-3.12,2.48,2.48,0,0,0-.22.94c-1,.15-4.68.63-6.29-.51a14.26,14.26,0,0,0-4.54-6.36c-.2-.53-.2-1.75,1.44-4.33l-.11-.08a1.82,1.82,0,1,0-1.19-1.42,1.77,1.77,0,0,0,.53,1,11.35,11.35,0,0,1-2.66,3.5,14.1,14.1,0,0,0-7.58-1.77,7.1,7.1,0,0,1-.13-2.09h-.09a1.24,1.24,0,0,0,.55-.25,1.22,1.22,0,0,0-1.53-1.9,1.23,1.23,0,0,0-.19,1.72,1.19,1.19,0,0,0,.65.41,9.63,9.63,0,0,1-.16,2.19,14.25,14.25,0,0,0-4,1c-.48-.32-1.31-1.3-2.21-4.21a2.33,2.33,0,0,0,.35-.44,1.73,1.73,0,1,0-2.37.58,2,2,0,0,0,1.14.28c.27.66,1.32,3.49.83,5a14.16,14.16,0,0,0-4.23,4.28c-.4.1-1.49.11-3.66-1.5a1.46,1.46,0,0,0,0-.55A1.36,1.36,0,1,0,91,235a1.34,1.34,0,0,0,.71-.41c.59.32,2.83,1.63,2.93,2.82A14.27,14.27,0,0,0,94.71,249c-.29.59-1.39,2.22-5,3l0,.12a1.62,1.62,0,1,0-.06,1.64,1.57,1.57,0,0,0,.25-1c.46-.15,4.7-1.58,6.36-1.16a13.94,13.94,0,0,0,4.09,3.72,14.19,14.19,0,0,0,2.92,1.34c.49.43,1.21,1.52.54,4a1.45,1.45,0,0,0-.49.26,1.36,1.36,0,1,0,1.91.18,1.32,1.32,0,0,0-.68-.44c.07-.64.41-3.06,1.65-3.38A14,14,0,0,0,111,257c.72.49,1.57,1.75,2.23,4.7l.12,0a1.75,1.75,0,0,0-.65.47,1.62,1.62,0,1,0,2.28-.21,1.58,1.58,0,0,0-1-.36,13,13,0,0,1-.77-5.32,14.41,14.41,0,0,0,2.38-1.28,18.36,18.36,0,0,1,1.38,1.72l.1-.06a1.62,1.62,0,1,0,1.6-.39,1.55,1.55,0,0,0-1,0,19,19,0,0,1-1.39-1.78,14.05,14.05,0,0,0,2.84-2.87c2.14-.38,5.67,2.26,6.08,2.58a1.79,1.79,0,0,0,.12,1.09,1.74,1.74,0,1,0,3.17-1.44Z"/><path class="cls-19" d="M100.57,238.29c3.28-5.44,9-8.21,14.85-6.52l-.56-.35A13.71,13.71,0,1,0,104,256.33C97.91,252.28,96.77,244.58,100.57,238.29Z"/><path class="cls-20" d="M112.4,237.45c-.05,1.8-1.94,3.21-4.22,3.15s-4.09-1.57-4-3.37a4.17,4.17,0,0,1,8.26.22Z"/><path class="cls-20" d="M119.51,242.68a1.94,1.94,0,0,1-2.78-2.54,1.9,1.9,0,0,1,2.78,2.54Z"/><path class="cls-20" d="M111.7,254.11a1.12,1.12,0,0,1-1.6-1.46,1.09,1.09,0,0,1,1.6,1.46Z"/><path class="cls-21" d="M112.51,244a1.11,1.11,0,0,1,.76,2,1.09,1.09,0,0,1-.76-2Z"/><path class="cls-20" d="M102.36,251a1.11,1.11,0,0,1-1.58-1.48,1.09,1.09,0,0,1,1.58,1.48Z"/><path class="cls-21" d="M116.77,236.26a1.11,1.11,0,0,1-2.13.36,1.09,1.09,0,0,1,2.13-.36Z"/><path class="cls-20" d="M102.35,239.66a1.11,1.11,0,0,1-2.13.36,1.09,1.09,0,0,1,2.13-.36Z"/><circle class="cls-20" cx="106.68" cy="246.45" r="2.14"/><circle class="cls-20" cx="99.64" cy="245.47" r="1.51"/><circle class="cls-21" cx="105.53" cy="253.26" r="1.51"/><circle class="cls-21" cx="114.3" cy="249.83" r="1.51"/><path class="cls-18" d="M79.7,716.64a1.92,1.92,0,0,0-2.54-.95,2.06,2.06,0,0,0-.74.59l0-.12c-3.89-2.07-5.14-3.65-5.49-4.64a15.19,15.19,0,0,0,.64-1.57c.26-.24,1-.54,3.21.21l0-.08a1.09,1.09,0,0,0,.09.61,1.25,1.25,0,1,0,2.31-1,1.24,1.24,0,0,0-2.23-.16,7.09,7.09,0,0,1-2.92-1.38,15.78,15.78,0,0,0,.33-4.43c.12-.56,1-2,6.32-2.41v0a2.62,2.62,0,0,0,1.2,1.17,2.58,2.58,0,1,0-1.23-3.43,2.43,2.43,0,0,0-.24,1c-1.08.16-5.17.68-6.93-.57a15.72,15.72,0,0,0-5-7c-.23-.59-.23-1.93,1.58-4.77l-.12-.09a2,2,0,0,0,1,.09,2,2,0,1,0-2.31-1.66,2.07,2.07,0,0,0,.59,1.12,12.52,12.52,0,0,1-2.92,3.85A15.66,15.66,0,0,0,56,689.11a7.74,7.74,0,0,1-.14-2.3h-.1a1.41,1.41,0,0,0,.6-.27,1.34,1.34,0,1,0-1.68-2.09,1.33,1.33,0,0,0-.2,1.88,1.26,1.26,0,0,0,.7.46,10,10,0,0,1-.17,2.41,15.9,15.9,0,0,0-4.38,1.14c-.52-.36-1.44-1.44-2.42-4.64a2.77,2.77,0,0,0,.38-.48,1.9,1.9,0,1,0-2.61.63,2.25,2.25,0,0,0,1.26.31c.29.73,1.45,3.84.91,5.49a15.78,15.78,0,0,0-4.66,4.72c-.44.11-1.64.12-4-1.65a1.4,1.4,0,0,0,0-.61,1.5,1.5,0,1,0-.35,1.33c.64.36,3.11,1.8,3.23,3.12a15.71,15.71,0,0,0,.09,12.73c-.32.64-1.53,2.44-5.55,3.31l0,.13a1.75,1.75,0,0,0-.6-.64,1.77,1.77,0,1,0,.54,2.45,1.83,1.83,0,0,0,.28-1.08c.5-.17,5.17-1.74,7-1.27a15.82,15.82,0,0,0,4.5,4.09,16.64,16.64,0,0,0,3.22,1.48c.54.47,1.34,1.67.6,4.41a1.71,1.71,0,0,0-.55.29,1.5,1.5,0,1,0,2.11.19,1.52,1.52,0,0,0-.75-.48c.08-.7.45-3.37,1.81-3.72a15.87,15.87,0,0,0,5.33-.34c.8.54,1.73,1.92,2.46,5.17H63a1.78,1.78,0,1,0,1.79.28,1.82,1.82,0,0,0-1.05-.4,14.42,14.42,0,0,1-.85-5.85,15.82,15.82,0,0,0,2.62-1.42A20.93,20.93,0,0,1,67,719.76l.11-.06a1.73,1.73,0,0,0-.46.76,1.78,1.78,0,1,0,2.22-1.19,1.72,1.72,0,0,0-1.12,0,20.72,20.72,0,0,1-1.54-1.95,15.38,15.38,0,0,0,3.13-3.16c2.37-.43,6.24,2.48,6.71,2.84a1.85,1.85,0,0,0,.12,1.2,1.92,1.92,0,1,0,3.49-1.59Z"/><path class="cls-19" d="M48.9,699.5c3.61-6,9.94-9,16.36-7.18l-.62-.39a15.11,15.11,0,1,0-12,27.44C46,714.91,44.71,706.43,48.9,699.5Z"/><path class="cls-20" d="M61.93,698.58c0,2-2.14,3.53-4.65,3.46s-4.51-1.72-4.46-3.71,2.15-3.92,4.66-3.85S62,696.6,61.93,698.58Z"/><path class="cls-20" d="M69.76,704.34a2.13,2.13,0,0,1-3.06-2.8,2.09,2.09,0,0,1,3.06,2.8Z"/><path class="cls-20" d="M61.16,716.93a1.1,1.1,0,0,1-1.52-.12,1.08,1.08,0,0,1-.24-1.49,1.16,1.16,0,0,1,1.58,0A1.19,1.19,0,0,1,61.16,716.93Z"/><path class="cls-21" d="M62.05,705.77a1.23,1.23,0,0,1,.84,2.23,1.2,1.2,0,0,1-.84-2.23Z"/><path class="cls-20" d="M50.87,713.54a1.23,1.23,0,0,1-1.75-1.62,1.2,1.2,0,0,1,1.75,1.62Z"/><path class="cls-21" d="M66.74,697.26a1.23,1.23,0,0,1-2.35.4,1.18,1.18,0,0,1,1-1.23A1.16,1.16,0,0,1,66.74,697.26Z"/><path class="cls-20" d="M50.86,701a1.23,1.23,0,0,1-2.35.39,1.15,1.15,0,0,1,1-1.22A1.17,1.17,0,0,1,50.86,701Z"/><circle class="cls-20" cx="55.63" cy="708.49" r="2.36"/><circle class="cls-20" cx="47.88" cy="707.41" r="1.67"/><circle class="cls-21" cx="54.36" cy="715.99" r="1.67"/><circle class="cls-21" cx="64.02" cy="712.21" r="1.67"/><path class="cls-18" d="M857.1,522.09a2.17,2.17,0,0,0-2.87-1.08,2.2,2.2,0,0,0-.83.67l.05-.15c-4.39-2.33-5.8-4.11-6.2-5.23a17.07,17.07,0,0,0,.73-1.78c.29-.26,1.16-.61,3.62.25l0-.1a1.49,1.49,0,0,0,.1.69,1.41,1.41,0,0,0,1.85.77,1.42,1.42,0,0,0-1.08-2.62,1.46,1.46,0,0,0-.68.59,8,8,0,0,1-3.29-1.56,18,18,0,0,0,.37-5c.14-.63,1.09-2.3,7.14-2.72v-.05a2.84,2.84,0,0,0,1.36,1.33,2.94,2.94,0,1,0-1.67-2.7c-1.21.18-5.83.77-7.83-.64a17.72,17.72,0,0,0-5.64-7.91c-.25-.67-.25-2.18,1.78-5.39l-.13-.1a2.12,2.12,0,0,0,1.12.1,2.26,2.26,0,1,0-2.61-1.87,2.24,2.24,0,0,0,.66,1.26,14,14,0,0,1-3.3,4.35,17.63,17.63,0,0,0-9.44-2.2,9.24,9.24,0,0,1-.16-2.6h-.11a1.48,1.48,0,0,0,.69-.31,1.54,1.54,0,1,0-1.34.28,11.9,11.9,0,0,1-.19,2.73,17.72,17.72,0,0,0-5,1.29c-.58-.41-1.62-1.63-2.73-5.25a2.76,2.76,0,0,0,.43-.54,2.15,2.15,0,1,0-3,.72,2.62,2.62,0,0,0,1.43.34c.33.83,1.63,4.34,1,6.21a17.72,17.72,0,0,0-5.26,5.33c-.5.12-1.86.14-4.56-1.87a1.56,1.56,0,0,0,0-.68,1.69,1.69,0,1,0-.4,1.5c.73.4,3.52,2,3.65,3.52A17.79,17.79,0,0,0,815,516c-.35.74-1.72,2.76-6.25,3.75l0,.14a2,2,0,1,0-.07,2.05,2.07,2.07,0,0,0,.31-1.22c.56-.19,5.84-2,7.9-1.44a18,18,0,0,0,5.09,4.62,17.53,17.53,0,0,0,3.64,1.67c.61.53,1.51,1.89.67,5a1.63,1.63,0,0,0-.61.32,1.69,1.69,0,1,0,2.38.22,1.75,1.75,0,0,0-.85-.55c.08-.79.51-3.8,2-4.19a17.83,17.83,0,0,0,6-.39c.9.61,2,2.17,2.78,5.84l.14,0a2,2,0,0,0-.54,3.41,2,2,0,1,0,1.39-3.54c-.17-.48-1.38-4-1-6.61a18,18,0,0,0,3-1.6,24.44,24.44,0,0,1,1.72,2.14l.12-.07a2,2,0,0,0-.51.85,2,2,0,1,0,1.24-1.31,19.12,19.12,0,0,1-1.74-2.2,17.88,17.88,0,0,0,3.54-3.57c2.67-.48,7,2.81,7.57,3.21a2.16,2.16,0,1,0,4.08-.43Z"/><path class="cls-19" d="M822.31,502.72c4.09-6.76,11.23-10.21,18.48-8.1l-.7-.45a17.06,17.06,0,0,0-17.64,29.21,17.23,17.23,0,0,0,4.07,1.79C819,520.13,817.58,510.55,822.31,502.72Z"/><path class="cls-20" d="M837,501.68c-.06,2.24-2.41,4-5.25,3.91s-5.09-1.95-5-4.18,2.42-4.44,5.26-4.36S837.09,499.44,837,501.68Z"/><path class="cls-20" d="M845.87,508.19a2.41,2.41,0,0,1-3.46-3.16,2.36,2.36,0,0,1,3.46,3.16Z"/><path class="cls-20" d="M836.15,522.4a1.38,1.38,0,0,1-2-1.81,1.32,1.32,0,0,1,1.79,0A1.31,1.31,0,0,1,836.15,522.4Z"/><path class="cls-21" d="M837.16,509.81a1.38,1.38,0,0,1,1,2.52,1.36,1.36,0,0,1-1-2.52Z"/><path class="cls-20" d="M824.53,518.58a1.38,1.38,0,0,1-2-1.83,1.35,1.35,0,0,1,2,1.83Z"/><path class="cls-21" d="M842.47,500.19a1.23,1.23,0,0,1-1.16,1.27,1.22,1.22,0,0,1-1.5-.82,1.36,1.36,0,0,1,2.66-.45Z"/><path class="cls-20" d="M824.52,504.42a1.38,1.38,0,0,1-2.65.45,1.36,1.36,0,0,1,2.65-.45Z"/><circle class="cls-20" cx="829.92" cy="512.87" r="2.66"/><circle class="cls-20" cx="821.16" cy="511.66" r="1.88"/><circle class="cls-21" cx="828.48" cy="521.35" r="1.88"/><circle class="cls-21" cx="839.39" cy="517.08" r="1.88"/><path class="cls-18" d="M867,699.52a4.32,4.32,0,0,0-7.39-.81l.11-.29c-8.78-4.66-11.6-8.22-12.39-10.45a37.24,37.24,0,0,0,1.45-3.55c.58-.54,2.32-1.23,7.24.48l.08-.19a2.92,2.92,0,0,0,.19,1.39,2.83,2.83,0,1,0,1.53-3.7,2.93,2.93,0,0,0-1.34,1.16c-.62-.15-4.87-1.23-6.58-3.11a35.16,35.16,0,0,0,.74-10c.28-1.26,2.19-4.6,14.26-5.44v-.08a5.84,5.84,0,1,0-.62-2.76c-2.42.37-11.64,1.55-15.63-1.28a35.38,35.38,0,0,0-11.28-15.78c-.5-1.33-.5-4.36,3.57-10.77l-.27-.19a4.55,4.55,0,1,0-1.65-1c-.43.86-3.31,6.37-6.59,8.69a35.26,35.26,0,0,0-18.85-4.4,18.36,18.36,0,0,1-.32-5.18l-.22,0a3.07,3.07,0,0,0,1.36-.63,3,3,0,1,0-4.25-.46,3,3,0,0,0,1.59,1,23.64,23.64,0,0,1-.38,5.44,35.9,35.9,0,0,0-9.88,2.57c-1.18-.81-3.25-3.25-5.47-10.46a5.52,5.52,0,0,0,.86-1.09A4.29,4.29,0,1,0,791,630a5,5,0,0,0,2.85.69c.66,1.65,3.26,8.67,2.07,12.4a35.28,35.28,0,0,0-10.53,10.64c-1,.25-3.71.28-9.09-3.73a3.47,3.47,0,0,0,0-1.36,3.39,3.39,0,1,0-.8,3c1.46.8,7,4.06,7.29,7a35.42,35.42,0,0,0,.2,28.71c-.71,1.47-3.44,5.52-12.5,7.49l.06.28a4.07,4.07,0,1,0,.48,1.66c1.14-.39,11.67-3.94,15.8-2.89A35.2,35.2,0,0,0,797,703.18a35.74,35.74,0,0,0,7.27,3.34c1.22,1.06,3,3.77,1.35,10a3.25,3.25,0,0,0-1.23.65,3.37,3.37,0,1,0,4.75.43,3.27,3.27,0,0,0-1.69-1.09c.17-1.59,1-7.6,4.09-8.39a35.59,35.59,0,0,0,12-.77c1.8,1.22,3.9,4.33,5.55,11.66l.29,0a4.05,4.05,0,0,0-1.61,1.16,4,4,0,1,0,3.29-1.43c-.33-.95-2.74-8-1.92-13.2a35.24,35.24,0,0,0,5.92-3.19,44.93,44.93,0,0,1,3.43,4.27l.25-.14a4,4,0,1,0,1.45-.91,42.11,42.11,0,0,1-3.47-4.4,35.35,35.35,0,0,0,7.06-7.13c5.34-1,14.08,5.6,15.12,6.4a4.32,4.32,0,1,0,8.16-.86Z"/><path class="cls-19" d="M797.56,660.84c8.15-13.5,22.43-20.38,36.9-16.18-.46-.3-.92-.6-1.39-.88A34.08,34.08,0,1,0,806,705.68C791,695.61,788.12,676.48,797.56,660.84Z"/><path class="cls-20" d="M827,658.77c-.12,4.47-4.81,8-10.48,7.81s-10.17-3.89-10.06-8.36,4.84-8.85,10.51-8.7S827.07,654.3,827,658.77Z"/><path class="cls-20" d="M844.61,671.76c-1.37,1.51-4,1.31-5.94-.43s-2.34-4.37-1-5.88,4.3-1.6,6.21.14S846,670.26,844.61,671.76Z"/><path class="cls-20" d="M825.21,700.16a2.77,2.77,0,0,1-4-3.63,2.71,2.71,0,0,1,4,3.63Z"/><path class="cls-21" d="M827.22,675a2.77,2.77,0,0,1,1.9,5,2.71,2.71,0,0,1-1.9-5Z"/><path class="cls-20" d="M802,692.53a2.77,2.77,0,0,1-3.93-3.67,2.71,2.71,0,0,1,3.93,3.67Z"/><path class="cls-21" d="M837.81,655.8a2.76,2.76,0,0,1-5.3.89,2.71,2.71,0,0,1,5.3-.89Z"/><path class="cls-20" d="M802,664.25a2.76,2.76,0,0,1-5.3.89,2.71,2.71,0,0,1,5.3-.89Z"/><circle class="cls-20" cx="812.75" cy="681.12" r="5.32"/><circle class="cls-20" cx="795.25" cy="678.7" r="3.76"/><circle class="cls-21" cx="809.88" cy="698.05" r="3.76"/><circle class="cls-21" cx="831.67" cy="689.52" r="3.76"/><path class="cls-18" d="M196.94,861.94a2,2,0,0,0-2.6-1,1.84,1.84,0,0,0-.76.61l0-.14c-4-2.12-5.29-3.74-5.65-4.75a13.78,13.78,0,0,0,.66-1.62c.27-.24,1.06-.56,3.3.22l0-.09a1.15,1.15,0,0,0,.09.63,1.29,1.29,0,0,0,2.38-1,1.3,1.3,0,0,0-1.69-.7,1.32,1.32,0,0,0-.61.53,7.13,7.13,0,0,1-3-1.42,15.89,15.89,0,0,0,.33-4.55c.13-.57,1-2.1,6.5-2.48v0a2.58,2.58,0,0,0,1.23,1.21,2.65,2.65,0,1,0-1.52-2.46c-1.1.17-5.3.7-7.11-.58a16.15,16.15,0,0,0-5.14-7.19c-.23-.61-.23-2,1.63-4.9l-.13-.09a2.06,2.06,0,1,0-1.35-1.61,2.14,2.14,0,0,0,.6,1.14,12.64,12.64,0,0,1-3,4,16.08,16.08,0,0,0-8.58-2,8.45,8.45,0,0,1-.15-2.36h-.1a1.39,1.39,0,1,0-.59,0,10.56,10.56,0,0,1-.17,2.48,16.23,16.23,0,0,0-4.5,1.17c-.53-.37-1.48-1.48-2.49-4.77a2.21,2.21,0,0,0,.39-.49,2,2,0,1,0-2.68.65,2.18,2.18,0,0,0,1.29.31c.3.76,1.49,4,.94,5.65a16.18,16.18,0,0,0-4.79,4.85c-.45.11-1.69.12-4.14-1.71a1.4,1.4,0,0,0,0-.61,1.54,1.54,0,0,0-3,.66,1.55,1.55,0,0,0,1.84,1.17,1.52,1.52,0,0,0,.8-.47c.66.36,3.2,1.84,3.32,3.2a16.12,16.12,0,0,0,.09,13.07c-.32.67-1.57,2.51-5.69,3.41l0,.13a1.86,1.86,0,0,0-.62-.66,1.82,1.82,0,1,0,.55,2.52,1.86,1.86,0,0,0,.29-1.11c.51-.17,5.31-1.79,7.19-1.31a16,16,0,0,0,4.62,4.2,16.4,16.4,0,0,0,3.31,1.52c.55.49,1.37,1.72.61,4.54a1.58,1.58,0,0,0-.56.29,1.54,1.54,0,1,0,2.17.2,1.61,1.61,0,0,0-.77-.5c.07-.72.46-3.46,1.86-3.81a16.21,16.21,0,0,0,5.47-.36c.82.56,1.77,2,2.52,5.31h.13a2,2,0,0,0-.73.53,1.83,1.83,0,1,0,2.57-.24,1.8,1.8,0,0,0-1.07-.41,14.72,14.72,0,0,1-.87-6,16.22,16.22,0,0,0,2.69-1.45,18.16,18.16,0,0,1,1.56,1.94l.12-.06a1.78,1.78,0,0,0-.47.77,1.83,1.83,0,1,0,1.13-1.19,18.07,18.07,0,0,1-1.58-2,16,16,0,0,0,3.21-3.25c2.43-.44,6.42,2.55,6.89,2.92a1.88,1.88,0,0,0,.13,1.23,2,2,0,1,0,3.58-1.63Z"/><path class="cls-19" d="M165.31,844.33c3.71-6.15,10.21-9.28,16.8-7.36-.21-.14-.42-.28-.64-.41a15.52,15.52,0,0,0-16,26.57,15.89,15.89,0,0,0,3.7,1.62C162.3,860.16,161,851.45,165.31,844.33Z"/><path class="cls-20" d="M178.69,843.39c-.06,2-2.19,3.63-4.77,3.56s-4.64-1.77-4.58-3.81,2.2-4,4.78-4S178.74,841.36,178.69,843.39Z"/><path class="cls-20" d="M186.73,849.31a2.19,2.19,0,0,1-3.14-2.88,2.15,2.15,0,0,1,3.14,2.88Z"/><path class="cls-20" d="M177.89,862.23a1.1,1.1,0,0,1-1.55-.11,1.12,1.12,0,0,1-.25-1.54,1.23,1.23,0,0,1,1.8,1.65Z"/><path class="cls-21" d="M178.81,850.78a1.1,1.1,0,0,1,1.33.81,1.12,1.12,0,0,1-.46,1.48,1.24,1.24,0,0,1-.87-2.29Z"/><path class="cls-20" d="M167.33,858.76a1.26,1.26,0,0,1-1.79-1.67,1.24,1.24,0,0,1,1.79,1.67Z"/><path class="cls-21" d="M183.63,842a1.26,1.26,0,0,1-2.41.4,1.2,1.2,0,0,1,1-1.26A1.19,1.19,0,0,1,183.63,842Z"/><path class="cls-20" d="M167.32,845.88a1.26,1.26,0,0,1-2.41.41,1.23,1.23,0,0,1,2.41-.41Z"/><circle class="cls-20" cx="172.22" cy="853.57" r="2.42"/><circle class="cls-20" cx="164.26" cy="852.46" r="1.71"/><circle class="cls-21" cx="170.92" cy="861.27" r="1.71"/><circle class="cls-21" cx="180.84" cy="857.39" r="1.71"/><path class="cls-18" d="M248.47,217.74a3.66,3.66,0,0,0-6.25-.69l.09-.24c-7.41-3.94-9.8-6.95-10.46-8.83a32,32,0,0,0,1.22-3c.5-.45,2-1,6.12.4l.07-.15a2.29,2.29,0,0,0,.16,1.17,2.39,2.39,0,1,0,1.3-3.13,2.44,2.44,0,0,0-1.14,1c-.53-.12-4.12-1-5.56-2.63a29.71,29.71,0,0,0,.63-8.44c.24-1.07,1.85-3.89,12-4.6v-.07a4.8,4.8,0,0,0,2.28,2.23,4.91,4.91,0,1,0-2.35-6.53,4.81,4.81,0,0,0-.46,2c-2,.32-9.84,1.31-13.21-1.08a29.79,29.79,0,0,0-9.52-13.33c-.43-1.13-.43-3.68,3-9.1l-.23-.16a3.88,3.88,0,0,0,1.89.16,3.82,3.82,0,1,0-3.28-1c-.37.73-2.8,5.38-5.57,7.34a29.79,29.79,0,0,0-15.93-3.72,15.79,15.79,0,0,1-.27-4.37l-.18,0a2.62,2.62,0,0,0,1.15-.53,2.56,2.56,0,1,0-3.59-.39,2.46,2.46,0,0,0,1.34.87,20,20,0,0,1-.32,4.6,30.24,30.24,0,0,0-8.35,2.17c-1-.69-2.74-2.75-4.62-8.85a4.34,4.34,0,0,0,.73-.91,3.63,3.63,0,1,0-5,1.2,4.18,4.18,0,0,0,2.4.59c.56,1.4,2.76,7.32,1.75,10.47a29.83,29.83,0,0,0-8.89,9c-.84.21-3.14.23-7.68-3.16a2.79,2.79,0,0,0,0-1.15,2.85,2.85,0,1,0-2.17,3.4,2.81,2.81,0,0,0,1.49-.87c1.24.68,5.95,3.43,6.16,5.94a30,30,0,0,0,.17,24.26c-.6,1.23-2.91,4.66-10.56,6.32l.05.24a3.34,3.34,0,0,0-1.14-1.23,3.4,3.4,0,1,0,1.55,2.63c1-.33,9.86-3.33,13.34-2.44a29.93,29.93,0,0,0,8.58,7.8,30.26,30.26,0,0,0,6.14,2.82c1,.9,2.55,3.18,1.14,8.42a2.84,2.84,0,1,0,3,.91,2.88,2.88,0,0,0-1.43-.92c.14-1.34.86-6.42,3.46-7.09a29.77,29.77,0,0,0,10.14-.65c1.52,1,3.29,3.66,4.69,9.85l.24,0a3.41,3.41,0,1,0,1.43-.23c-.29-.8-2.32-6.76-1.63-11.15a29.39,29.39,0,0,0,5-2.69,37.47,37.47,0,0,1,2.9,3.6l.22-.11a3.27,3.27,0,0,0-.87,1.43,3.39,3.39,0,1,0,4.22-2.27,3.43,3.43,0,0,0-2.13.07,35.84,35.84,0,0,1-2.93-3.72,29.64,29.64,0,0,0,6-6c4.51-.81,11.9,4.74,12.78,5.41a3.65,3.65,0,0,0,5.07,4.11A3.65,3.65,0,0,0,248.47,217.74Z"/><path class="cls-19" d="M189.77,185.06c6.89-11.41,18.95-17.22,31.17-13.67q-.57-.39-1.17-.75a28.79,28.79,0,1,0-22.9,52.3C184.19,214.43,181.79,198.27,189.77,185.06Z"/><path class="cls-20" d="M214.6,183.31c-.1,3.77-4.07,6.73-8.86,6.6s-8.59-3.29-8.49-7.06,4.08-7.49,8.87-7.36S214.7,179.53,214.6,183.31Z"/><path class="cls-20" d="M229.52,194.29c-1.16,1.26-3.41,1.1-5-.37s-2-3.7-.81-5a4,4,0,0,1,5.83,5.33Z"/><path class="cls-20" d="M213.12,218.27a2.33,2.33,0,0,1-3.35-3.06,2.29,2.29,0,0,1,3.35,3.06Z"/><path class="cls-21" d="M214.82,197a2.34,2.34,0,0,1,1.61,4.25,2.29,2.29,0,0,1-1.61-4.25Z"/><path class="cls-20" d="M193.52,211.83a2.34,2.34,0,0,1-3.32-3.1,2.29,2.29,0,0,1,3.32,3.1Z"/><path class="cls-21" d="M223.77,180.79a2.33,2.33,0,0,1-4.47.76,2.29,2.29,0,0,1,4.47-.76Z"/><path class="cls-20" d="M193.5,187.94a2.34,2.34,0,0,1-4.48.75,2.29,2.29,0,0,1,4.48-.75Z"/><circle class="cls-20" cx="202.6" cy="202.19" r="4.49"/><circle class="cls-20" cx="187.82" cy="200.14" r="3.18"/><circle class="cls-21" cx="200.18" cy="216.49" r="3.18"/><circle class="cls-21" cx="218.58" cy="209.29" r="3.18"/></g></g></svg>