<svg xmlns="http://www.w3.org/2000/svg" viewBox="0 0 826.94 802.05"><defs><style>.cls-1{fill:#f4b2a4;}.cls-2{fill:#e09d95;}.cls-3{fill:#ffd3bc;}.cls-4{fill:#f79594;}.cls-5{fill:#f27d7d;}.cls-6{fill:#ed6160;}.cls-7{fill:#f9b1b2;}</style></defs><title>cerebro</title><g id="organos_ai" data-name="organos ai"><path class="cls-1" d="M492.55,107.05c-16.15,4.66-32.06,10.25-47.11,17.72-10.73,5.34-30.87,9.4-62-6.85-49.84-26-104-10.84-145.18,19.5S138.57,195.92,93.07,269.6s-54.18,69.33-52,132.17-2.17,95.34-15.17,130S-.11,651,73.56,681.29,239.33,699.71,278.33,678s58.5-39,62.84-54.17c0,0,39,28.17,80.17-8.66,0,0,26,30.33,73.67,10.83,0,0,2.17-4.33,8.67,13s13,43.34,43.34,43.34,43.33-2.17,60.67,6.5,34.67,19.5,75.84,6.5,91-43.34,104-78,15.16-45.5,10.83-123.51,19.5-104,10.83-140.84-34.66-39-62.83-67.17-45.51-65-45.51-65-6.5-26-36.83-43.33-91-93.18-160.35-73.68Z"/><path class="cls-2" d="M306.46,199.19A25,25,0,0,0,297,179.94c-6.77-5.14-17.61-7.85-33.86,1.9-32.5,19.5,6.5,39-8.67,45.5s-36.83-34.67,4.34-60.67c0,0,17.33-13,52,2.17,0,0,15.17,8.67,21.67,0s2.17-23.84,6.5-21.67,6.5,10.83,10.84,13-26,47.67-26,56.34-2.16,21.67,39,36.83,52-34.66,36.83-67.17-28.17,28.17-36.83,13,13-8.66,6.5-45.5,15.16,17.33,32.5,6.5-6.5-23.83,10.83-23.83,13,0,15.17,26,30.34-26,39,6.5-10.83,71.5-21.66,58.5,17.33-49.83-19.51-41.17c0,0-17.33,112.68,23.84,114.84s56.34-49.83,54.17-84.5,8.67-15.17,8.67-28.17-8.67-41.17,0-49.84-13,75.84,28.17,60.67c0,0,10.83-2.16,10.83-26s30.34-17.33,19.5,6.5-32.5,39-52,39c0,0,2.17,67.17-15.17,88.84S430,322.68,430,335.68s-8.67,62.84-2.17,73.68S449.51,457,495,441.86s52-30.34,54.17-47.67,4.34-19.5,19.51-30.34,23.83-19.5,19.5-32.5-36.84-47.67-21.67-65,34.67,32.5,56.34,39,34.67,4.33,34.67-19.5,4.33-19.5,10.83-13,6.5,26,8.67,30.33-15.17,26-23.84,26-45.5-26-43.33-13,4.33,34.67-32.51,56.34c0,0-26,15.17-8.66,56.34s41.17,39,34.67,47.67S581.69,493.86,560,448.36s6.5,26-117,30.34c0,0-10.83-4.34-10.83,49.83s2.16,75.84,13,80.18,32.5,10.83,41.17-4.34,13-26,54.17-36.83,62.84-19.51,78-39,71.51,0,80.18-19.5,4.33-30.33-13-34.67S664,459.19,670.53,457s52,28.17,58.5,2.16-10.83-73.67-4.33-78,19.5-2.17,21.67,15.17-6.5,41.17,21.66,30.33c0,0,8.67-2.17,0-26s13-15.17,13,4.33,6.5,23.84-6.5,32.51S750.7,435.36,731.2,483,724.7,537.2,742,530.7s13-21.67,21.67-26,21.67-4.34,15.17,8.66-23.84,13-26,39-6.5,80.17-54.17,95.34c0,0-8.67-6.5,0-19.5s41.17-58.51,10.83-78-208,34.67-166.85,69.34S638,621.71,642.36,639s-49.84,28.17-99.68-4.33-58.5,2.16-93.17-10.84-15.17-19.5-45.5-8.66-28.17,17.33-54.17,4.33-4.34,17.33-32.51,19.5-4.33-19.5-34.67-4.33-45.5,4.33-36.83-4.34,49.83-6.5,34.67-34.67-60.67-23.83-95.34-17.33-65,13-52,39,52-19.5,58.51-13-45.51,26-39,32.5,34.67,10.84,28.17,19.51S144,649.88,118,632.54s10.84-26,8.67-62.84S98.48,433.19,68.15,461.36s-4.34,97.51,26,91c0,0-26,23.83-36.84-2.17s-26-86.67,8.67-104c0,0,10.83-6.5,30.34,0,0,0,10.83-6.5-10.84-56.33s0-84.51,28.17-99.68,34.67-39,36.84-45.5,8.66-8.67,10.83,0-8.67,39-30.34,56.33-34.66,26-32.5,58.51,21.67,39,26,78,30.34,30.33,52,36.83S198.16,502.53,222,496s23.84-15.17,32.5,0S222,532.87,196,519.87s-49.84-43.34-60.67-30.34,2.17,60.67,45.5,65S274,545.87,308.67,574s43.33,56.33,84.5,32.5S417,478.7,388.84,480.86s-80.17,8.67-95.34-17.33-30.34-43.34-49.84-30.34-43.34,21.67-39,8.67,2.16-10.83,23.83-19.5S274,361.69,209,324.85s-39,84.51-69.34,60.67,4.34-8.67,15.17-49.84,34.67-19.5,60.67-41.17,19.5-41.17,39-28.16S287,272.85,287,288s0,30.34-15.17,17.34,0-23.84-26-21.67-17.34,41.17,8.66,71.51,32.51,23.83,39,45.5,10.83,78,80.17,58.5,39-138.67,19.5-173.34-54.17-17.34-71.5-39C309.12,231.15,306.79,209.79,306.46,199.19Z"/><path class="cls-2" d="M185.83,391.86c10.75-2.45,15.27,12.76,5.11,17-6.67,2.8-14.45,10.05-14.45,28.63,0,32.5-13,10.83-13,10.83s4.33-52,21.67-56.34Z"/><path class="cls-2" d="M472.83,561.29c-10.89-1.71-9.46-17.52,1.56-17.72,7.24-.13,17.15-4,24-21.24,12-30.19,16.09-5.24,16.09-5.24s-23.3,46.69-41,44.3Z"/><path class="cls-2" d="M321.12,332.19a6.79,6.79,0,0,1,7.19,1.17c6.56,5.5,25.27,19.86,32.36,11,8.67-10.83,28.17-6.5,21.67,10.84s-28.17,34.67-28.17,58.5-19.5,23.84-19.5,10.83,8.66-43.33-2.17-60.67C323.17,348.93,313.84,335.61,321.12,332.19Z"/><path class="cls-2" d="M194.27,208.67c-1.42,4.39-1.81,14.52,8.22,36,0,0-8.67,26-17.33,6.5s-10.84-62.84,0-69.34,15.16-13,15.16,0c0,12.61,8.16,25.22,14.58,27.94a8.66,8.66,0,0,1,5,10.67c-3.15,8.94-17-6.42-22-12.48A2.09,2.09,0,0,0,194.27,208.67Z"/><path class="cls-2" d="M521.93,333.34a5.6,5.6,0,0,0-5.44-9.51c-4.88,1.57-10.64,5.28-10.64,14,0,15.17-8.67,34.67-23.84,36.84s-19.5,10.83-15.17,23.83,8.67,28.17,23.84,21.67-15.17-39,4.33-39,23.84,0,19.51-17.34-2.17-23.83,4.33-28.17A28.4,28.4,0,0,0,521.93,333.34Z"/><path class="cls-2" d="M633.69,164.5c-2.1-4.36-10.83-2.16-10.83,8.67s26,32.5,8.66,43.34-21.66,17.33-15.16,32.5,15.16,26,21.66,17.34-19.5-28.17,0-41.17S661.86,223,633.69,164.5Z"/><path class="cls-2" d="M691.37,259c3.3-2,7.64-.16,9,3.46,4.36,11.77,17.53,42.06,41.68,55.86,30.34,17.33-8.66,15.17-17.33,19.5s-10.84,4.33-17.34,23.84-32.5,19.5-30.33,41.17-4.34,34.67-15.17,21.66c0,0,0-13-8.67-21.66s4.34-23.84,15.17-26,26-8.66,28.17-26S713.86,342.18,716,327s-21.67-32.51-26-49.84C687.21,265.91,688.06,261.05,691.37,259Z"/><path class="cls-3" d="M329.44,298.91a13.35,13.35,0,0,0,11.72,8.94c12.42,1.06,38.94,5.42,45.51,23.5,8.67,23.84-6.5,45.5-2.17,60.67s13-8.67,15.17-30.33c2.08-20.74,10.1-43.45-40.46-68.15a38.89,38.89,0,0,0-20.17-4C332.88,290,327.29,292.2,329.44,298.91Z"/><path class="cls-3" d="M212.71,240.94a7.49,7.49,0,0,0-3.78,7.36c.65,7,.87,22.07-8.46,27.49-12.32,7.16-25.8.93-33.75,4.84S172.8,287,185,286c11.67-.91,25,1.27,33.65-29.13a21.78,21.78,0,0,0,.22-11.55C218,242,216.21,239.09,212.71,240.94Z"/><path class="cls-3" d="M175.14,378.19a7.5,7.5,0,0,0,8.14-1.51c5.12-4.78,16.92-14.19,26.92-10.12,13.2,5.36,16.52,19.84,24.47,23.74s1.28-8.68-6.93-17.74c-7.86-8.67-14.3-20.56-43.63-8.79a21.8,21.8,0,0,0-9.28,6.88C172.73,373.41,171.54,376.56,175.14,378.19Z"/><path class="cls-3" d="M291.33,327s8.67,56.33,28.17,65c30.74,13.66-15.17-19.5-13-56.34S287,301,291.33,327Z"/><path class="cls-3" d="M78.87,486.24s7,34.07,22.89,39.31c25,8.26-12.32-11.79-10.56-34.07S75.35,470.51,78.87,486.24Z"/><path class="cls-3" d="M217.79,625.61s31.66-14.44,33.25-31.05c2.51-26.19-8.76,14.64-30.87,17.87S203.24,632.53,217.79,625.61Z"/><path class="cls-3" d="M666.26,361.49a8.44,8.44,0,0,0-7.74-10.86c-7.37-.38-17.77-1.39-20.5-4.11-4.33-4.34-17.33-4.34-21.66,13s-10.84,28.17,0,23.83-6.5-13,10.83-17.33,36.84,2.17,39-4.33A1.59,1.59,0,0,0,666.26,361.49Z"/><path class="cls-3" d="M757.2,348.69s4.33,6.5-8.67,6.5-23.83,6.5-17.33,15.16,39,10.84,43.34-4.33-2.17-34.67-15.17-28.17C759.37,337.85,752.87,342.18,757.2,348.69Z"/><path class="cls-3" d="M257.81,142a8.89,8.89,0,0,0,10.12,3.8c11.35-3.17,40-10.25,53.74-5.1,17.33,6.5,36.83-13,36.83-17.34s0-15.16-19.5-8.66-26,4.33-41.17,8.66C284.56,127.13,251.38,130.92,257.81,142Z"/><path class="cls-3" d="M514.52,129.83s-26-4.33-23.84,28.17-4.33,36.84-8.67,30.34,0-17.34-6.5-30.34,13-41.17,28.17-41.17,23.84-4.33,26,6.5S514.52,129.83,514.52,129.83Z"/><path class="cls-3" d="M579.52,238.18S549.18,236,547,259.85s6.5,39-6.5,34.66-17.34-69.33,19.5-73.67,28.17-21.67,39-13S605.52,238.18,579.52,238.18Z"/><path class="cls-3" d="M269.66,489.53c.6,3,17.34,34.67-17.33,45.5s-8.67,13,15.17,13,41.17,4.34,62.83,19.51,39,30.33,56.34,15.16-6.5-78-17.33-65,19.5,52-26,36.83c-27-9-50.18-44.4-59.34-71.21a10.42,10.42,0,0,0-8.5-7.28C271.33,475.59,267.32,477.79,269.66,489.53Z"/><path class="cls-3" d="M631.52,433.19s6.5,39,28.17,39,15.17,26-2.16,26-10.84-4.34-26,8.66-36.83,15.17-56.33,26S540.52,550.2,534,543.7,521,509,553.52,509s49.84,6.5,65-10.83,8.67-23.84,0-39-10.83-28.16-4.33-30.33S629.36,424.52,631.52,433.19Z"/><path class="cls-3" d="M619.45,591.6a92,92,0,0,1-14.73,7.18c-6.93,2.72-14.73,7-12.2,12.09,4.33,8.67,28.17,10.84,36.84-2.16s15.17-23.84,21.67-13,4.33,32.51,2.16,41.17-6.5,21.67,2.17,19.51,13,6.5,15.17-17.34-2.17-69.34-28.17-58.5C630.35,585.54,623.43,589.16,619.45,591.6Z"/><path class="cls-4" d="M409.41,76.5a1.36,1.36,0,0,0-1.26,0,2.59,2.59,0,0,1-1,.16,2.93,2.93,0,0,1-2-.76,26.71,26.71,0,0,1-2.24-3,21.74,21.74,0,0,0,1.87-6.07,29,29,0,0,1,3.51-1.47,2.05,2.05,0,0,1,1.34.18,1.7,1.7,0,0,1,.72.71,1.1,1.1,0,0,0,.9.66c.69,0,1.37-1.07,1.35-2.32s-.74-2.2-1.43-2.18a1,1,0,0,0-.78.51,1.78,1.78,0,0,1-.55.51,2.17,2.17,0,0,1-1.53.36,25.51,25.51,0,0,1-3.3-1.17,21.81,21.81,0,0,0-1.56-7.27A20.83,20.83,0,0,1,405.33,53a2.75,2.75,0,0,1,1.7-.68,2.18,2.18,0,0,1,1.33.36,1.47,1.47,0,0,0,1.51.17c.81-.47.91-2.19.05-3.65s-2.35-2.12-3.16-1.64a1.35,1.35,0,0,0-.58,1.12,2.46,2.46,0,0,1-.32,1,2.89,2.89,0,0,1-1.57,1.45,18.89,18.89,0,0,1-2.75.56,21.63,21.63,0,0,0-5.25-5.65,18.31,18.31,0,0,1,.52-2.59,2,2,0,0,1,.88-1,1.58,1.58,0,0,1,1-.21,1.09,1.09,0,0,0,1-.4c.37-.59-.15-1.74-1.21-2.39s-2.24-.58-2.61,0a1,1,0,0,0,0,.93,1.88,1.88,0,0,1,.13.75,2.16,2.16,0,0,1-.53,1.47,19.43,19.43,0,0,1-2.08,1.64,21.71,21.71,0,0,0-7.65-2.4,13.77,13.77,0,0,1-.55-1.67,2.78,2.78,0,0,1,.3-1.81,2.27,2.27,0,0,1,1-.95,1.48,1.48,0,0,0,.93-1.2c0-.95-1.41-1.92-3.1-1.93s-3,.92-3,1.86a1.35,1.35,0,0,0,.67,1.07,2.68,2.68,0,0,1,.68.78,3,3,0,0,1,.43,2.1,14,14,0,0,1-.53,1.6,22,22,0,0,0-8.66,2.06,13.78,13.78,0,0,1-1.43-1.26,2.06,2.06,0,0,1-.46-1.26,1.61,1.61,0,0,1,.29-1,1.09,1.09,0,0,0,.16-1.1c-.33-.6-1.59-.71-2.68-.11s-1.6,1.68-1.26,2.29a1,1,0,0,0,.81.44A1.83,1.83,0,0,1,370,42a2.14,2.14,0,0,1,1,1.18,13,13,0,0,1,.34,1.91,21.93,21.93,0,0,0-6.26,6.08,16.35,16.35,0,0,1-2.08-.47,2.76,2.76,0,0,1-1.41-1.19,2.21,2.21,0,0,1-.29-1.34,1.49,1.49,0,0,0-.55-1.42c-.8-.49-2.37.22-3.26,1.66s-.77,3.07,0,3.57a1.34,1.34,0,0,0,1.26,0,2.53,2.53,0,0,1,1-.18,2.9,2.9,0,0,1,2,.72,16.69,16.69,0,0,1,1.5,1.79,21.56,21.56,0,0,0-2,7.42,18.84,18.84,0,0,1-2.64,1,2,2,0,0,1-1.33-.19,1.57,1.57,0,0,1-.71-.71,1.09,1.09,0,0,0-.9-.67c-.69,0-1.38,1.06-1.37,2.31s.72,2.2,1.41,2.19a1,1,0,0,0,.78-.5,1.94,1.94,0,0,1,.56-.51,2.18,2.18,0,0,1,1.53-.35,19.45,19.45,0,0,1,2.67.94,22.09,22.09,0,0,0,2,7.55,15.58,15.58,0,0,1-1.28,1.53,2.78,2.78,0,0,1-1.7.7,2.3,2.3,0,0,1-1.33-.34,1.49,1.49,0,0,0-1.51-.17c-.81.49-.89,2.2,0,3.66s2.38,2.09,3.18,1.6a1.32,1.32,0,0,0,.57-1.13,2.39,2.39,0,0,1,.31-1,3,3,0,0,1,1.55-1.46,14.87,14.87,0,0,1,1.92-.44,21.6,21.6,0,0,0,5.46,5.54,25.77,25.77,0,0,1-.33,3.44,2.06,2.06,0,0,1-.78,1.1,1.61,1.61,0,0,1-1,.3,1.09,1.09,0,0,0-1,.49c-.31.61.31,1.71,1.42,2.27s2.29.38,2.6-.24a1,1,0,0,0-.09-.92,1.9,1.9,0,0,1-.2-.74,2.16,2.16,0,0,1,.39-1.51,24.12,24.12,0,0,1,2.37-2.2,21.63,21.63,0,0,0,7.28,1.94A20.66,20.66,0,0,1,382,88a2.8,2.8,0,0,1-.46,1.78,2.22,2.22,0,0,1-1.08.85,1.51,1.51,0,0,0-1,1.11c-.09.94,1.23,2,2.92,2.21s3.1-.64,3.19-1.58a1.36,1.36,0,0,0-.56-1.13,2.33,2.33,0,0,1-.61-.84,3,3,0,0,1-.24-2.12,25.64,25.64,0,0,1,1.44-3,22,22,0,0,0,6.16-1.6,25.31,25.31,0,0,1,2.95,2,2.07,2.07,0,0,1,.58,1.22,1.61,1.61,0,0,1-.21,1,1.08,1.08,0,0,0-.06,1.12c.38.57,1.64.57,2.68-.13s1.44-1.81,1.06-2.38a1,1,0,0,0-.85-.38,1.73,1.73,0,0,1-.74-.19A2.18,2.18,0,0,1,396,84.83a23.41,23.41,0,0,1-.75-3.09,21.67,21.67,0,0,0,5.23-4.86,23.27,23.27,0,0,1,3.46.77,2.73,2.73,0,0,1,1.38,1.22,2.29,2.29,0,0,1,.27,1.34,1.48,1.48,0,0,0,.51,1.43c.79.52,2.37-.16,3.29-1.58S410.2,77,409.41,76.5Z"/><path class="cls-5" d="M372.27,56.06c5-8.32,13.82-12.56,22.73-10-.28-.19-.57-.37-.86-.54a21,21,0,0,0-21.7,35.93,21.49,21.49,0,0,0,5,2.19C368.2,77.47,366.45,65.69,372.27,56.06Z"/><path class="cls-6" d="M388,53.56c-.08,2.75-3,4.9-6.46,4.81s-6.26-2.4-6.19-5.15,3-5.45,6.47-5.36S388.05,50.8,388,53.56Z"/><path class="cls-6" d="M398.85,61.56c-.84.92-2.48.8-3.65-.27a2.63,2.63,0,0,1-.6-3.62,2.91,2.91,0,0,1,4.25,3.89Z"/><path class="cls-6" d="M386.9,79.05a1.7,1.7,0,0,1-2.44-2.24,1.67,1.67,0,0,1,2.44,2.24Z"/><path class="cls-7" d="M388.14,63.55A1.53,1.53,0,0,1,390,64.64a1.51,1.51,0,0,1-.64,2,1.67,1.67,0,0,1-1.17-3.1Z"/><path class="cls-6" d="M372.61,74.35a1.7,1.7,0,0,1-2.42-2.26,1.67,1.67,0,0,1,2.42,2.26Z"/><path class="cls-7" d="M394.67,51.73a1.71,1.71,0,0,1-3.27.55,1.67,1.67,0,0,1,3.27-.55Z"/><path class="cls-6" d="M372.6,56.93a1.71,1.71,0,0,1-3.27.55,1.67,1.67,0,0,1,3.27-.55Z"/><circle class="cls-6" cx="379.23" cy="67.32" r="3.27"/><circle class="cls-6" cx="368.46" cy="65.83" r="2.32"/><circle class="cls-7" cx="377.47" cy="77.75" r="2.32"/><circle class="cls-7" cx="390.88" cy="72.5" r="2.32"/><path class="cls-4" d="M288.56,709.11a1.2,1.2,0,0,0-1.11,0,2.27,2.27,0,0,1-.9.14,2.61,2.61,0,0,1-1.75-.67,23,23,0,0,1-2-2.6,19,19,0,0,0,1.65-5.33,23.6,23.6,0,0,1,3.08-1.29,1.85,1.85,0,0,1,1.18.15,1.47,1.47,0,0,1,.63.63,1,1,0,0,0,.79.58c.6,0,1.2-1,1.18-2s-.65-1.93-1.25-1.92a.85.85,0,0,0-.68.45,1.76,1.76,0,0,1-.49.45,1.94,1.94,0,0,1-1.34.32,22.27,22.27,0,0,1-2.9-1,19.14,19.14,0,0,0-1.37-6.39,19.25,19.25,0,0,1,1.67-2,2.51,2.51,0,0,1,1.5-.6,2.05,2.05,0,0,1,1.17.32,1.3,1.3,0,0,0,1.32.16c.72-.42.8-1.93.05-3.22s-2.07-1.86-2.78-1.44a1.17,1.17,0,0,0-.51,1,2.07,2.07,0,0,1-.28.87,2.56,2.56,0,0,1-1.37,1.27,16.53,16.53,0,0,1-2.43.49,19,19,0,0,0-4.61-5,17.88,17.88,0,0,1,.46-2.27,1.77,1.77,0,0,1,.77-.9,1.44,1.44,0,0,1,.86-.19,1,1,0,0,0,.92-.35c.32-.51-.14-1.52-1.06-2.1s-2-.51-2.3,0a.91.91,0,0,0,0,.82,1.46,1.46,0,0,1,.11.66,1.85,1.85,0,0,1-.46,1.29,16.3,16.3,0,0,1-1.83,1.44,18.8,18.8,0,0,0-6.72-2.11,12.13,12.13,0,0,1-.48-1.47,2.4,2.4,0,0,1,.26-1.59,1.94,1.94,0,0,1,.87-.83,1.31,1.31,0,0,0,.82-1.06c0-.83-1.24-1.68-2.73-1.69s-2.66.81-2.66,1.63a1.16,1.16,0,0,0,.58,1,2.18,2.18,0,0,1,.6.68,2.61,2.61,0,0,1,.38,1.84,12.1,12.1,0,0,1-.47,1.41,19.31,19.31,0,0,0-7.61,1.81,12.17,12.17,0,0,1-1.25-1.11,1.76,1.76,0,0,1-.41-1.11,1.41,1.41,0,0,1,.25-.84,1,1,0,0,0,.15-1c-.3-.53-1.4-.63-2.36-.1s-1.4,1.48-1.11,2a.87.87,0,0,0,.71.39,1.53,1.53,0,0,1,.63.22,1.86,1.86,0,0,1,.91,1,13.2,13.2,0,0,1,.3,1.68,19,19,0,0,0-5.5,5.33,14.57,14.57,0,0,1-1.84-.4,2.48,2.48,0,0,1-1.23-1,2,2,0,0,1-.26-1.18,1.31,1.31,0,0,0-.48-1.25c-.7-.43-2.08.2-2.86,1.46s-.68,2.7,0,3.13a1.18,1.18,0,0,0,1.11,0,2.28,2.28,0,0,1,.9-.16,2.64,2.64,0,0,1,1.77.63,15.8,15.8,0,0,1,1.31,1.58,18.83,18.83,0,0,0-1.72,6.52,19.32,19.32,0,0,1-2.32.91,1.82,1.82,0,0,1-1.17-.17,1.45,1.45,0,0,1-.63-.62,1,1,0,0,0-.78-.59c-.61,0-1.22.93-1.21,2s.64,1.93,1.24,1.93a.9.9,0,0,0,.69-.45,1.63,1.63,0,0,1,.49-.45,1.88,1.88,0,0,1,1.34-.3,17.72,17.72,0,0,1,2.35.82,19.41,19.41,0,0,0,1.77,6.64,12.27,12.27,0,0,1-1.13,1.34,2.47,2.47,0,0,1-1.49.62,1.92,1.92,0,0,1-1.16-.31,1.31,1.31,0,0,0-1.33-.14c-.71.43-.78,1.94,0,3.21s2.09,1.84,2.8,1.41a1.19,1.19,0,0,0,.5-1,2.09,2.09,0,0,1,.26-.87,2.63,2.63,0,0,1,1.37-1.29,14.64,14.64,0,0,1,1.69-.39,19.13,19.13,0,0,0,4.79,4.88,23.4,23.4,0,0,1-.28,3,1.79,1.79,0,0,1-.69,1,1.4,1.4,0,0,1-.84.27.93.93,0,0,0-.88.43c-.28.54.27,1.5,1.24,2s2,.32,2.29-.22a.88.88,0,0,0-.08-.81,1.46,1.46,0,0,1-.17-.64,1.92,1.92,0,0,1,.34-1.34,20.43,20.43,0,0,1,2.08-1.93,19.08,19.08,0,0,0,6.4,1.71,18.64,18.64,0,0,1,.59,2.36,2.53,2.53,0,0,1-.4,1.57,2,2,0,0,1-1,.75,1.29,1.29,0,0,0-.91,1c-.09.83,1.08,1.79,2.56,1.94s2.72-.56,2.81-1.39a1.18,1.18,0,0,0-.5-1,2.18,2.18,0,0,1-.53-.74,2.55,2.55,0,0,1-.21-1.86,20.47,20.47,0,0,1,1.26-2.66,19.18,19.18,0,0,0,5.41-1.4,23.09,23.09,0,0,1,2.6,1.79,1.82,1.82,0,0,1,.5,1.07,1.41,1.41,0,0,1-.18.87,1,1,0,0,0,0,1c.33.5,1.44.5,2.35-.11s1.27-1.6.93-2.1a.87.87,0,0,0-.74-.33,1.6,1.6,0,0,1-.65-.16,1.88,1.88,0,0,1-1-1,18,18,0,0,1-.66-2.71,19.32,19.32,0,0,0,4.59-4.27,22.44,22.44,0,0,1,3,.67,2.47,2.47,0,0,1,1.21,1.07,2,2,0,0,1,.24,1.19,1.28,1.28,0,0,0,.45,1.25c.69.46,2.08-.14,2.89-1.39S289.25,709.56,288.56,709.11Z"/><path class="cls-5" d="M255.93,691.15c4.41-7.31,12.14-11,20-8.75-.25-.17-.5-.33-.76-.48a18.44,18.44,0,1,0-14.66,33.49C252.36,710,250.82,699.61,255.93,691.15Z"/><path class="cls-6" d="M269.73,689c-.06,2.41-2.6,4.31-5.67,4.23s-5.51-2.11-5.44-4.53,2.61-4.79,5.68-4.71S269.79,686.54,269.73,689Z"/><path class="cls-6" d="M279.29,696a2.61,2.61,0,0,1-3.74-3.42,2.56,2.56,0,0,1,3.74,3.42Z"/><path class="cls-6" d="M268.79,711.35a1.49,1.49,0,0,1-2.15-2,1.47,1.47,0,0,1,2.15,2Z"/><path class="cls-7" d="M269.87,697.74a1.5,1.5,0,0,1,1,2.72,1.47,1.47,0,0,1-1-2.72Z"/><path class="cls-6" d="M256.23,707.22a1.49,1.49,0,0,1-2.13-2,1.47,1.47,0,0,1,2.13,2Z"/><path class="cls-7" d="M275.61,687.35a1.34,1.34,0,0,1-1.25,1.37,1.32,1.32,0,0,1-1.62-.89,1.47,1.47,0,0,1,2.87-.48Z"/><path class="cls-6" d="M256.22,691.92a1.5,1.5,0,0,1-2.87.49,1.41,1.41,0,0,1,1.22-1.5A1.44,1.44,0,0,1,256.22,691.92Z"/><circle class="cls-6" cx="262.04" cy="701.05" r="2.88"/><circle class="cls-6" cx="252.58" cy="699.74" r="2.03"/><circle class="cls-7" cx="260.49" cy="710.21" r="2.03"/><circle class="cls-7" cx="272.28" cy="705.6" r="2.03"/><path class="cls-4" d="M534.41,707.3a.56.56,0,0,0-.52,0,1,1,0,0,1-.42.07,1.23,1.23,0,0,1-.82-.31,12,12,0,0,1-.92-1.21,8.75,8.75,0,0,0,.77-2.49,12.87,12.87,0,0,1,1.44-.6.81.81,0,0,1,.54.08.63.63,0,0,1,.3.28.42.42,0,0,0,.37.27c.28,0,.56-.43.55-.94s-.3-.9-.59-.9a.38.38,0,0,0-.31.21.66.66,0,0,1-.23.21.85.85,0,0,1-.63.15,11,11,0,0,1-1.34-.48,9.24,9.24,0,0,0-.64-3,8.28,8.28,0,0,1,.78-.95,1.15,1.15,0,0,1,.69-.28,1,1,0,0,1,.55.15.6.6,0,0,0,.61.07c.34-.19.38-.9,0-1.5s-1-.86-1.3-.67a.58.58,0,0,0-.24.46,1.14,1.14,0,0,1-.12.41,1.27,1.27,0,0,1-.65.59,8.79,8.79,0,0,1-1.13.23,9,9,0,0,0-2.14-2.31,6.37,6.37,0,0,1,.21-1.06.84.84,0,0,1,.36-.42.7.7,0,0,1,.4-.09.46.46,0,0,0,.43-.16c.15-.24-.07-.71-.5-1s-.92-.24-1.07,0a.42.42,0,0,0,0,.38.81.81,0,0,1,0,.31.83.83,0,0,1-.22.6,6.47,6.47,0,0,1-.85.67,9,9,0,0,0-3.13-1,5.12,5.12,0,0,1-.22-.68,1.13,1.13,0,0,1,.12-.74.84.84,0,0,1,.4-.39.64.64,0,0,0,.39-.49c0-.39-.58-.79-1.27-.79s-1.24.37-1.25.76a.55.55,0,0,0,.28.44.94.94,0,0,1,.27.32,1.18,1.18,0,0,1,.18.85,6.29,6.29,0,0,1-.22.66,9.05,9.05,0,0,0-3.54.84,4.8,4.8,0,0,1-.58-.51.85.85,0,0,1-.2-.52.75.75,0,0,1,.12-.39.45.45,0,0,0,.07-.46c-.14-.24-.65-.29-1.1,0s-.65.69-.51.93a.39.39,0,0,0,.33.19.77.77,0,0,1,.29.1.84.84,0,0,1,.42.48,6.3,6.3,0,0,1,.14.78,9,9,0,0,0-2.56,2.49,5.87,5.87,0,0,1-.85-.19,1.14,1.14,0,0,1-.58-.49.92.92,0,0,1-.12-.54.65.65,0,0,0-.22-.59c-.33-.2-1,.09-1.34.68s-.31,1.26,0,1.46a.56.56,0,0,0,.52,0,1,1,0,0,1,.42-.08,1.25,1.25,0,0,1,.82.29,6.16,6.16,0,0,1,.61.74,9,9,0,0,0-.8,3,8.93,8.93,0,0,1-1.08.42.81.81,0,0,1-.54-.08.7.7,0,0,1-.3-.29.43.43,0,0,0-.36-.27c-.28,0-.57.43-.56.94s.29.9.58.9a.39.39,0,0,0,.31-.2.76.76,0,0,1,.23-.21.88.88,0,0,1,.63-.15,8.79,8.79,0,0,1,1.09.39,9,9,0,0,0,.83,3.09,5.62,5.62,0,0,1-.53.62,1.1,1.1,0,0,1-.69.29.91.91,0,0,1-.55-.14.6.6,0,0,0-.61-.07c-.33.2-.37.9,0,1.5s1,.86,1.3.66a.57.57,0,0,0,.23-.47,1,1,0,0,1,.13-.4,1.16,1.16,0,0,1,.63-.6,6.93,6.93,0,0,1,.79-.18,9.07,9.07,0,0,0,2.23,2.27,9.41,9.41,0,0,1-.13,1.4.81.81,0,0,1-.32.45.68.68,0,0,1-.39.13.42.42,0,0,0-.41.2c-.13.25.12.7.58.93s.94.15,1.06-.1a.4.4,0,0,0,0-.38.61.61,0,0,1-.08-.3A.82.82,0,0,1,519,711a9.69,9.69,0,0,1,1-.9,8.67,8.67,0,0,0,3,.79,9.07,9.07,0,0,1,.27,1.11,1.07,1.07,0,0,1-.19.72.85.85,0,0,1-.44.35.63.63,0,0,0-.42.46c0,.38.5.83,1.19.9s1.27-.26,1.31-.64a.55.55,0,0,0-.23-.47.94.94,0,0,1-.25-.34,1.2,1.2,0,0,1-.1-.87,9.94,9.94,0,0,1,.59-1.24,8.75,8.75,0,0,0,2.52-.65,12.68,12.68,0,0,1,1.21.83.85.85,0,0,1,.23.5.66.66,0,0,1-.08.41.44.44,0,0,0,0,.45c.16.24.68.24,1.1,0s.59-.74.43-1a.38.38,0,0,0-.34-.15.73.73,0,0,1-.3-.07.93.93,0,0,1-.47-.45,9,9,0,0,1-.3-1.26,8.92,8.92,0,0,0,2.13-2,10.15,10.15,0,0,1,1.42.31,1.18,1.18,0,0,1,.57.5,1,1,0,0,1,.11.55.59.59,0,0,0,.21.59c.32.21,1-.07,1.34-.65S534.73,707.51,534.41,707.3Z"/><path class="cls-5" d="M519.21,698.93c2-3.4,5.65-5.13,9.3-4.07l-.35-.23a8.59,8.59,0,1,0-8.88,14.71,8.88,8.88,0,0,0,2.05.9C517.54,707.7,516.83,702.88,519.21,698.93Z"/><path class="cls-6" d="M525.63,697.91a2.66,2.66,0,0,1-5.17-.14,2.61,2.61,0,0,1,5.17.14Z"/><path class="cls-6" d="M530.09,701.19a1.21,1.21,0,0,1-1.74-1.59,1.14,1.14,0,0,1,1.56,0A1.17,1.17,0,0,1,530.09,701.19Z"/><path class="cls-6" d="M525.2,708.34a.69.69,0,0,1-1-.91.66.66,0,0,1,.9,0A.67.67,0,0,1,525.2,708.34Z"/><path class="cls-7" d="M525.7,702a.62.62,0,0,1,.74.45.61.61,0,0,1-.26.82.65.65,0,0,1-.79-.42A.68.68,0,0,1,525.7,702Z"/><path class="cls-6" d="M519.35,706.42a.7.7,0,0,1-1-.92.69.69,0,0,1,1,.92Z"/><path class="cls-7" d="M528.37,697.16a.62.62,0,0,1-.58.64.61.61,0,0,1-.75-.41.68.68,0,0,1,1.33-.23Z"/><path class="cls-6" d="M519.34,699.29a.7.7,0,0,1-1.34.23.68.68,0,0,1,.57-.7A.67.67,0,0,1,519.34,699.29Z"/><circle class="cls-6" cx="522.05" cy="703.55" r="1.34"/><circle class="cls-6" cx="517.65" cy="702.94" r="0.95"/><circle class="cls-7" cx="521.33" cy="707.81" r="0.95"/><circle class="cls-7" cx="526.82" cy="705.66" r="0.95"/><path class="cls-4" d="M646.43,748.53a1.22,1.22,0,0,0-1.15,0,2.32,2.32,0,0,1-.94.15,2.67,2.67,0,0,1-1.82-.7,24.48,24.48,0,0,1-2-2.7,19.66,19.66,0,0,0,1.71-5.53,25.47,25.47,0,0,1,3.2-1.34,1.89,1.89,0,0,1,1.22.16,1.46,1.46,0,0,1,.65.65,1,1,0,0,0,.83.6c.63,0,1.25-1,1.23-2.11s-.68-2-1.31-2a.9.9,0,0,0-.7.47,1.77,1.77,0,0,1-.51.47,2,2,0,0,1-1.39.33,24.58,24.58,0,0,1-3-1.07,20.13,20.13,0,0,0-1.42-6.64,20.46,20.46,0,0,1,1.74-2.12,2.51,2.51,0,0,1,1.55-.62,2,2,0,0,1,1.21.33,1.36,1.36,0,0,0,1.38.16c.74-.44.83-2,0-3.34s-2.14-1.92-2.88-1.49a1.25,1.25,0,0,0-.53,1,2.12,2.12,0,0,1-.29.9,2.67,2.67,0,0,1-1.43,1.32,18.42,18.42,0,0,1-2.51.51,19.65,19.65,0,0,0-4.79-5.15,16.82,16.82,0,0,1,.47-2.36,1.93,1.93,0,0,1,.8-.94,1.49,1.49,0,0,1,.9-.19,1,1,0,0,0,1-.37c.34-.53-.14-1.58-1.1-2.18s-2.05-.53-2.38,0a.92.92,0,0,0,0,.84,1.48,1.48,0,0,1,.12.69,2,2,0,0,1-.48,1.34,17.62,17.62,0,0,1-1.89,1.49,20.1,20.1,0,0,0-7-2.19,12.76,12.76,0,0,1-.49-1.52,2.51,2.51,0,0,1,.27-1.65,2,2,0,0,1,.9-.87,1.34,1.34,0,0,0,.85-1.09c0-.86-1.28-1.75-2.83-1.76s-2.76.84-2.77,1.7a1.22,1.22,0,0,0,.61,1,2.26,2.26,0,0,1,.62.72,2.64,2.64,0,0,1,.39,1.91,12.07,12.07,0,0,1-.48,1.46,20,20,0,0,0-7.9,1.88,12.14,12.14,0,0,1-1.3-1.15,1.87,1.87,0,0,1-.43-1.15,1.52,1.52,0,0,1,.27-.88,1,1,0,0,0,.15-1c-.31-.55-1.45-.65-2.45-.1s-1.46,1.53-1.15,2.08a.89.89,0,0,0,.74.41,1.54,1.54,0,0,1,.65.23,2,2,0,0,1,.94,1.08,12.22,12.22,0,0,1,.31,1.74,19.92,19.92,0,0,0-5.71,5.54,15,15,0,0,1-1.9-.42,2.54,2.54,0,0,1-1.28-1.09,2,2,0,0,1-.27-1.22,1.37,1.37,0,0,0-.5-1.3c-.73-.45-2.16.2-3,1.52s-.71,2.79,0,3.25a1.26,1.26,0,0,0,1.15,0,2.26,2.26,0,0,1,.93-.17,2.72,2.72,0,0,1,1.84.65,15.67,15.67,0,0,1,1.36,1.64,19.76,19.76,0,0,0-1.78,6.77,18.14,18.14,0,0,1-2.41.94,1.84,1.84,0,0,1-1.22-.17,1.51,1.51,0,0,1-.65-.65,1,1,0,0,0-.81-.61c-.63,0-1.26,1-1.25,2.11s.66,2,1.29,2a.89.89,0,0,0,.71-.46,1.77,1.77,0,0,1,.51-.47,2,2,0,0,1,1.39-.31,19.63,19.63,0,0,1,2.44.85,20.13,20.13,0,0,0,1.84,6.89,15.16,15.16,0,0,1-1.17,1.4,2.62,2.62,0,0,1-1.55.64,2.08,2.08,0,0,1-1.21-.32,1.36,1.36,0,0,0-1.38-.15c-.74.44-.81,2,0,3.34s2.16,1.9,2.9,1.46a1.24,1.24,0,0,0,.51-1,2.2,2.2,0,0,1,.28-.9,2.75,2.75,0,0,1,1.42-1.34,11.65,11.65,0,0,1,1.75-.4,19.77,19.77,0,0,0,5,5.06,23.11,23.11,0,0,1-.3,3.13,1.84,1.84,0,0,1-.71,1,1.51,1.51,0,0,1-.88.28,1,1,0,0,0-.91.44c-.28.57.28,1.57,1.29,2.08s2.09.34,2.38-.22a.89.89,0,0,0-.09-.84,1.76,1.76,0,0,1-.18-.67,2,2,0,0,1,.36-1.39,22,22,0,0,1,2.16-2,20,20,0,0,0,6.64,1.77,17.48,17.48,0,0,1,.62,2.45,2.62,2.62,0,0,1-.42,1.63,2.07,2.07,0,0,1-1,.77,1.37,1.37,0,0,0-1,1c-.09.85,1.12,1.85,2.66,2s2.82-.58,2.91-1.44a1.2,1.2,0,0,0-.51-1,2.39,2.39,0,0,1-.56-.77,2.68,2.68,0,0,1-.21-1.93,21.39,21.39,0,0,1,1.31-2.76,19.84,19.84,0,0,0,5.61-1.46,24,24,0,0,1,2.7,1.86,1.91,1.91,0,0,1,.53,1.11,1.56,1.56,0,0,1-.19.9,1,1,0,0,0-.06,1c.35.52,1.5.52,2.44-.11s1.32-1.66,1-2.18a.87.87,0,0,0-.77-.34,1.63,1.63,0,0,1-.68-.17,2,2,0,0,1-1-1,20.94,20.94,0,0,1-.68-2.82,20,20,0,0,0,4.77-4.43,22.5,22.5,0,0,1,3.16.69,2.56,2.56,0,0,1,1.25,1.12,2,2,0,0,1,.24,1.23,1.37,1.37,0,0,0,.47,1.3c.72.47,2.16-.15,3-1.45S647.15,749,646.43,748.53Z"/><path class="cls-5" d="M612.55,729.88c4.58-7.58,12.6-11.45,20.73-9.09-.25-.17-.51-.33-.78-.49a19.14,19.14,0,1,0-19.79,32.77,19.53,19.53,0,0,0,4.56,2C608.84,749.41,607.25,738.67,612.55,729.88Z"/><path class="cls-6" d="M626.88,727.6c-.07,2.51-2.7,4.48-5.89,4.39s-5.71-2.18-5.65-4.69,2.72-5,5.9-4.89S627,725.09,626.88,727.6Z"/><path class="cls-6" d="M636.8,734.9a2.7,2.7,0,0,1-3.88-3.54,2.65,2.65,0,0,1,3.88,3.54Z"/><path class="cls-6" d="M625.9,750.85a1.55,1.55,0,0,1-2.23-2,1.52,1.52,0,0,1,2.23,2Z"/><path class="cls-7" d="M627,736.72a1.56,1.56,0,0,1,1.07,2.83,1.53,1.53,0,0,1-1.07-2.83Z"/><path class="cls-6" d="M612.86,746.57a1.37,1.37,0,0,1-1.91-.16,1.39,1.39,0,0,1-.3-1.9,1.52,1.52,0,0,1,2.21,2.06Z"/><path class="cls-7" d="M633,725.93a1.55,1.55,0,0,1-3,.5,1.52,1.52,0,0,1,3-.5Z"/><path class="cls-6" d="M612.85,730.68a1.56,1.56,0,0,1-3,.5,1.52,1.52,0,0,1,3-.5Z"/><circle class="cls-6" cx="618.9" cy="740.16" r="2.99"/><circle class="cls-6" cx="609.07" cy="738.8" r="2.11"/><circle class="cls-7" cx="617.29" cy="749.67" r="2.11"/><circle class="cls-7" cx="629.53" cy="744.88" r="2.11"/><path class="cls-4" d="M824.43,311a.68.68,0,0,0-.64,0,1.14,1.14,0,0,1-.52.08,1.52,1.52,0,0,1-1-.38,13.77,13.77,0,0,1-1.13-1.5,11.1,11.1,0,0,0,.94-3.07,14.52,14.52,0,0,1,1.78-.74,1,1,0,0,1,.68.09.89.89,0,0,1,.36.36.55.55,0,0,0,.45.33c.35,0,.7-.54.69-1.17s-.38-1.11-.73-1.11a.52.52,0,0,0-.39.26.87.87,0,0,1-.28.26,1.07,1.07,0,0,1-.77.18,12.08,12.08,0,0,1-1.67-.59,11.07,11.07,0,0,0-.79-3.68,10.89,10.89,0,0,1,1-1.17,1.37,1.37,0,0,1,.86-.35,1.15,1.15,0,0,1,.67.18.72.72,0,0,0,.76.09c.41-.24.46-1.11,0-1.85s-1.19-1.06-1.6-.82a.64.64,0,0,0-.29.56,1.4,1.4,0,0,1-.16.5,1.54,1.54,0,0,1-.8.74,9.87,9.87,0,0,1-1.39.28,10.92,10.92,0,0,0-2.66-2.86,10.2,10.2,0,0,1,.27-1.31,1,1,0,0,1,.44-.51.79.79,0,0,1,.5-.11.54.54,0,0,0,.52-.2c.19-.3-.07-.88-.61-1.21s-1.13-.29-1.32,0a.49.49,0,0,0,0,.47,1,1,0,0,1,.06.38,1,1,0,0,1-.27.74,9.39,9.39,0,0,1-1,.83,10.7,10.7,0,0,0-3.87-1.21,6.56,6.56,0,0,1-.27-.85,1.32,1.32,0,0,1,.15-.91,1.06,1.06,0,0,1,.5-.48.75.75,0,0,0,.47-.61c0-.48-.71-1-1.57-1s-1.53.47-1.53.95a.66.66,0,0,0,.33.54,1.19,1.19,0,0,1,.35.39,1.46,1.46,0,0,1,.21,1.06,6,6,0,0,1-.26.81,11.21,11.21,0,0,0-4.38,1,5.7,5.7,0,0,1-.72-.63,1,1,0,0,1-.24-.64.79.79,0,0,1,.15-.49.59.59,0,0,0,.08-.56c-.17-.3-.81-.36-1.36-.05s-.81.85-.64,1.15a.52.52,0,0,0,.41.23.87.87,0,0,1,.37.13,1.09,1.09,0,0,1,.52.59,8.12,8.12,0,0,1,.17,1,11,11,0,0,0-3.17,3.07,7.52,7.52,0,0,1-1-.23,1.44,1.44,0,0,1-.71-.61,1.06,1.06,0,0,1-.15-.67.73.73,0,0,0-.28-.72c-.4-.25-1.19.11-1.65.84s-.39,1.55,0,1.8a.66.66,0,0,0,.64,0,1.25,1.25,0,0,1,.51-.09,1.47,1.47,0,0,1,1,.36,10.14,10.14,0,0,1,.75.91,11.22,11.22,0,0,0-1,3.75,9.09,9.09,0,0,1-1.33.53,1,1,0,0,1-.67-.1.78.78,0,0,1-.36-.36.57.57,0,0,0-.46-.34c-.35,0-.69.54-.69,1.17s.37,1.11.72,1.11a.51.51,0,0,0,.39-.25A.87.87,0,0,1,798,305a1.09,1.09,0,0,1,.78-.18,9.84,9.84,0,0,1,1.35.48,11.11,11.11,0,0,0,1,3.82,7.92,7.92,0,0,1-.65.77,1.37,1.37,0,0,1-.86.35,1.06,1.06,0,0,1-.67-.17.74.74,0,0,0-.77-.08c-.41.24-.45,1.11,0,1.85s1.2,1.05,1.6.81a.68.68,0,0,0,.29-.57,1.21,1.21,0,0,1,.15-.5,1.53,1.53,0,0,1,.79-.75,8.64,8.64,0,0,1,1-.22,11.15,11.15,0,0,0,2.76,2.81,12.16,12.16,0,0,1-.16,1.73,1.13,1.13,0,0,1-.4.56.83.83,0,0,1-.48.15.56.56,0,0,0-.51.25c-.16.31.16.87.72,1.15s1.15.19,1.31-.12a.5.5,0,0,0,0-.47.79.79,0,0,1-.1-.37,1,1,0,0,1,.2-.77,12.19,12.19,0,0,1,1.19-1.11,11.11,11.11,0,0,0,3.69,1,11.58,11.58,0,0,1,.34,1.36,1.4,1.4,0,0,1-.24.9,1.1,1.1,0,0,1-.54.43.79.79,0,0,0-.53.57c0,.47.63,1,1.48,1.11s1.57-.32,1.61-.8a.65.65,0,0,0-.28-.57,1.31,1.31,0,0,1-.31-.42,1.49,1.49,0,0,1-.12-1.08,11.64,11.64,0,0,1,.73-1.52,11.15,11.15,0,0,0,3.11-.81,13.07,13.07,0,0,1,1.5,1,1.05,1.05,0,0,1,.29.61.86.86,0,0,1-.11.5.56.56,0,0,0,0,.57c.2.29.83.28,1.36-.07s.73-.91.53-1.2a.48.48,0,0,0-.43-.19.82.82,0,0,1-.37-.1,1,1,0,0,1-.57-.55,11.92,11.92,0,0,1-.38-1.56,10.79,10.79,0,0,0,2.64-2.46,13.75,13.75,0,0,1,1.76.39,1.41,1.41,0,0,1,.69.62,1.21,1.21,0,0,1,.14.68.72.72,0,0,0,.26.72c.4.26,1.19-.08,1.66-.8S824.83,311.21,824.43,311Z"/><path class="cls-5" d="M805.65,300.61c2.54-4.2,7-6.35,11.49-5l-.43-.27a10.61,10.61,0,0,0-11,18.17,11.14,11.14,0,0,0,2.54,1.11C803.59,311.44,802.71,305.48,805.65,300.61Z"/><path class="cls-6" d="M813.59,299.35c0,1.39-1.5,2.48-3.26,2.43s-3.17-1.21-3.14-2.6a3.23,3.23,0,0,1,6.4.17Z"/><path class="cls-6" d="M819.09,303.4a1.5,1.5,0,0,1-2.15-2,1.47,1.47,0,0,1,2.15,2Z"/><path class="cls-6" d="M813.05,312.24a.86.86,0,0,1-1.24-1.13.82.82,0,0,1,1.11,0A.83.83,0,0,1,813.05,312.24Z"/><path class="cls-7" d="M813.67,304.4a.79.79,0,0,1,.92.55.77.77,0,0,1-.32,1,.85.85,0,0,1-.6-1.57Z"/><path class="cls-6" d="M805.82,309.86a.75.75,0,0,1-1.06-.09.77.77,0,0,1-.17-1,.85.85,0,0,1,1.23,1.14Z"/><path class="cls-7" d="M817,298.42a.86.86,0,0,1-1.65.28.82.82,0,0,1,.71-.86A.81.81,0,0,1,817,298.42Z"/><path class="cls-6" d="M805.81,301.06a.86.86,0,0,1-1.65.27.84.84,0,0,1,1.65-.27Z"/><circle class="cls-6" cx="809.17" cy="306.31" r="1.66"/><circle class="cls-6" cx="803.72" cy="305.56" r="1.17"/><circle class="cls-7" cx="808.28" cy="311.58" r="1.17"/><circle class="cls-7" cx="815.06" cy="308.93" r="1.17"/><path class="cls-4" d="M76.88,234.52a1.61,1.61,0,0,0-2.14-.81,1.65,1.65,0,0,0-.63.5l0-.11c-3.28-1.74-4.34-3.07-4.63-3.91.2-.43.38-.88.54-1.32.22-.2.87-.46,2.71.18l0-.07a1,1,0,0,0,.07.51,1.06,1.06,0,0,0,1.38.58,1.06,1.06,0,1,0-.81-2,1.17,1.17,0,0,0-.5.43,5.86,5.86,0,0,1-2.46-1.16,13.5,13.5,0,0,0,.28-3.74c.1-.47.82-1.72,5.33-2v0a2.13,2.13,0,0,0,1,1,2.17,2.17,0,1,0-1-2.89,2.1,2.1,0,0,0-.21.87c-.91.14-4.36.58-5.85-.48a13.16,13.16,0,0,0-4.22-5.9c-.18-.5-.18-1.63,1.34-4l-.1-.07a1.65,1.65,0,0,0,.83.07,1.7,1.7,0,1,0-1.45-.46,10.38,10.38,0,0,1-2.47,3.25,13.18,13.18,0,0,0-7-1.64,7.3,7.3,0,0,1-.12-1.94h-.08a1.17,1.17,0,0,0,.51-.23,1.15,1.15,0,0,0,.17-1.6,1.13,1.13,0,1,0-1.17,1.81,8.44,8.44,0,0,1-.14,2,13.56,13.56,0,0,0-3.7,1c-.44-.31-1.21-1.22-2-3.92a2,2,0,0,0,.32-.41,1.6,1.6,0,1,0-2.21.54,1.92,1.92,0,0,0,1.07.26c.24.62,1.22,3.24.77,4.64a13.24,13.24,0,0,0-3.94,4c-.37.09-1.38.1-3.4-1.4a1.26,1.26,0,1,0-1,1,1.2,1.2,0,0,0,.66-.39c.55.3,2.64,1.52,2.73,2.63A13.28,13.28,0,0,0,45.43,230c-.27.54-1.29,2.06-4.68,2.8l0,.1a1.43,1.43,0,0,0-.5-.54,1.5,1.5,0,1,0,.45,2.07,1.5,1.5,0,0,0,.23-.91c.43-.14,4.37-1.47,5.91-1.08a13.45,13.45,0,0,0,3.8,3.46,14.15,14.15,0,0,0,2.72,1.25c.46.39,1.13,1.4.51,3.72a1.22,1.22,0,0,0-.46.25,1.25,1.25,0,1,0,1.14-.25c.06-.59.38-2.84,1.53-3.14a13.35,13.35,0,0,0,4.5-.29c.67.46,1.45,1.62,2.07,4.36h.11a1.44,1.44,0,0,0-.6.44,1.49,1.49,0,1,0,1.23-.54,11.94,11.94,0,0,1-.72-4.93,13.5,13.5,0,0,0,2.21-1.2,16.76,16.76,0,0,1,1.29,1.6l.09-.05a1.55,1.55,0,0,0-.38.63,1.5,1.5,0,1,0,1.87-1,1.47,1.47,0,0,0-1,0,16.1,16.1,0,0,1-1.29-1.65,13.37,13.37,0,0,0,2.64-2.67c2-.36,5.27,2.1,5.66,2.4a1.54,1.54,0,0,0,.1,1,1.62,1.62,0,0,0,2.95-1.33Z"/><path class="cls-5" d="M50.88,220c3-5,8.39-7.62,13.81-6l-.52-.33A12.75,12.75,0,0,0,51,235.49,12.61,12.61,0,0,0,54,236.82C48.41,233.05,47.35,225.89,50.88,220Z"/><path class="cls-6" d="M61.88,219.27c-.05,1.67-1.8,3-3.92,2.92s-3.81-1.45-3.77-3.13a3.88,3.88,0,0,1,7.69.21Z"/><path class="cls-6" d="M68.49,224.13a1.8,1.8,0,0,1-2.59-2.36,1.77,1.77,0,0,1,2.59,2.36Z"/><path class="cls-6" d="M61.23,234.75a1,1,0,0,1-1.49-1.35,1,1,0,0,1,1.49,1.35Z"/><path class="cls-7" d="M62,225.34a1,1,0,0,1,.71,1.88,1,1,0,0,1-.71-1.88Z"/><path class="cls-6" d="M52.54,231.9a1,1,0,0,1-1.47-1.37,1,1,0,0,1,1.47,1.37Z"/><path class="cls-7" d="M65.94,218.16a1,1,0,0,1-2,.33,1,1,0,0,1,.84-1A1,1,0,0,1,65.94,218.16Z"/><path class="cls-6" d="M52.53,221.32c.08.43-.31.85-.86,1a.92.92,0,0,1-1.12-.62,1,1,0,0,1,2-.33Z"/><circle class="cls-6" cx="56.56" cy="227.63" r="1.99"/><circle class="cls-6" cx="50.02" cy="226.73" r="1.41"/><circle class="cls-7" cx="55.49" cy="233.96" r="1.41"/><circle class="cls-7" cx="63.64" cy="230.78" r="1.41"/><path class="cls-4" d="M112.14,437.06a2.68,2.68,0,0,0-3.55-1.33,2.6,2.6,0,0,0-1,.83l.07-.18c-5.44-2.89-7.19-5.1-7.68-6.48a23.27,23.27,0,0,0,.9-2.21c.36-.33,1.43-.76,4.49.3l0-.11a1.75,1.75,0,1,0,3.36-.49,1.76,1.76,0,0,0-2.29-.95,1.73,1.73,0,0,0-.83.72c-.39-.09-3-.76-4.09-1.93A22,22,0,0,0,102,419c.18-.78,1.36-2.86,8.85-3.37v-.06a3.52,3.52,0,0,0,1.68,1.64,3.61,3.61,0,1,0-2.07-3.35c-1.5.23-7.22,1-9.69-.79a22,22,0,0,0-7-9.79c-.31-.83-.31-2.7,2.21-6.68l-.16-.12a2.81,2.81,0,1,0,.48-5.43,2.82,2.82,0,0,0-1.51,4.79c-.27.54-2,3.95-4.09,5.39A21.93,21.93,0,0,0,79,398.53a11.68,11.68,0,0,1-.2-3.21l-.13,0a1.83,1.83,0,0,0,.84-.38,1.88,1.88,0,1,0-1.65.35,14.4,14.4,0,0,1-.24,3.38,22,22,0,0,0-6.12,1.59c-.73-.51-2-2-3.4-6.49a3.23,3.23,0,0,0,.54-.68A2.66,2.66,0,1,0,65,394a3,3,0,0,0,1.76.43c.41,1,2,5.38,1.29,7.69a21.87,21.87,0,0,0-6.53,6.6c-.62.16-2.3.17-5.64-2.31a2.21,2.21,0,0,0,0-.85,2.1,2.1,0,1,0-1.59,2.5,2.12,2.12,0,0,0,1.09-.64c.9.5,4.36,2.52,4.52,4.36A22,22,0,0,0,60,429.55c-.44.91-2.14,3.42-7.76,4.64l0,.18a2.49,2.49,0,1,0-.09,2.54,2.52,2.52,0,0,0,.39-1.51c.7-.24,7.24-2.45,9.8-1.79a21.68,21.68,0,0,0,6.3,5.72,22,22,0,0,0,4.5,2.08c.76.65,1.87,2.33.84,6.18a2,2,0,0,0-.76.4,2.09,2.09,0,1,0,2.95.27,2.15,2.15,0,0,0-1-.68c.1-1,.63-4.71,2.53-5.2a22,22,0,0,0,7.46-.48c1.11.76,2.41,2.69,3.44,7.23l.17,0a2.41,2.41,0,0,0-1,.73,2.51,2.51,0,1,0,2-.89c-.21-.59-1.7-5-1.19-8.19a22.05,22.05,0,0,0,3.67-2,27.71,27.71,0,0,1,2.13,2.65l.16-.09a2.44,2.44,0,0,0-.64,1.06,2.5,2.5,0,1,0,1.53-1.62,27.25,27.25,0,0,1-2.15-2.73,22.17,22.17,0,0,0,4.38-4.43c3.31-.59,8.74,3.48,9.38,4a2.68,2.68,0,1,0,5.06-.54Z"/><path class="cls-5" d="M69,413.07c5.06-8.38,13.92-12.64,22.89-10-.28-.19-.57-.37-.86-.55a21.14,21.14,0,1,0-16.82,38.4C64.94,434.64,63.18,422.77,69,413.07Z"/><path class="cls-6" d="M87.27,411.78c-.07,2.77-3,4.94-6.5,4.85s-6.31-2.41-6.24-5.19,3-5.49,6.52-5.4S87.34,409,87.27,411.78Z"/><path class="cls-6" d="M98.23,419.84c-.86.94-2.5.81-3.69-.27s-1.45-2.71-.6-3.64a2.93,2.93,0,0,1,4.29,3.91Z"/><path class="cls-6" d="M86.19,437.46a1.53,1.53,0,0,1-2.12-.16,1.52,1.52,0,0,1-.34-2.09,1.68,1.68,0,0,1,2.46,2.25Z"/><path class="cls-7" d="M87.44,421.85A1.72,1.72,0,0,1,88.62,425a1.68,1.68,0,0,1-1.18-3.12Z"/><path class="cls-6" d="M71.79,432.72a1.71,1.71,0,0,1-2.44-2.27,1.68,1.68,0,0,1,2.44,2.27Z"/><path class="cls-7" d="M94,409.94a1.72,1.72,0,0,1-3.29.55,1.68,1.68,0,0,1,3.29-.55Z"/><path class="cls-6" d="M71.78,415.18a1.72,1.72,0,0,1-3.29.56,1.68,1.68,0,0,1,3.29-.56Z"/><circle class="cls-6" cx="78.46" cy="425.65" r="3.3"/><circle class="cls-6" cx="67.61" cy="424.15" r="2.33"/><circle class="cls-7" cx="76.68" cy="436.15" r="2.33"/><circle class="cls-7" cx="90.2" cy="430.86" r="2.33"/><path class="cls-4" d="M724.14,227.86a2,2,0,0,0-3.44-.38l0-.13c-4.08-2.17-5.4-3.83-5.76-4.87a16.76,16.76,0,0,0,.67-1.65c.27-.25,1.08-.57,3.37.23l0-.09a1.19,1.19,0,0,0,.09.64,1.32,1.32,0,0,0,1.72.71,1.3,1.3,0,0,0,.71-1.71,1.32,1.32,0,0,0-1.72-.72,1.37,1.37,0,0,0-.62.54,7.33,7.33,0,0,1-3.07-1.45,16.6,16.6,0,0,0,.35-4.65c.13-.59,1-2.14,6.64-2.53v0a2.7,2.7,0,0,0,4.86-.07,2.71,2.71,0,1,0-4.9-2.3,2.63,2.63,0,0,0-.25,1.09c-1.13.17-5.42.72-7.28-.6a16.5,16.5,0,0,0-5.25-7.35c-.23-.62-.23-2,1.66-5l-.12-.09a2.11,2.11,0,1,0,.36-4.07,2.11,2.11,0,0,0-1.74,2.42,2,2,0,0,0,.61,1.17,12.76,12.76,0,0,1-3.07,4.05,16.39,16.39,0,0,0-8.77-2.05,8.39,8.39,0,0,1-.15-2.41H699a1.45,1.45,0,0,0,.63-.29,1.43,1.43,0,1,0-1.24.26,10.67,10.67,0,0,1-.18,2.54,16.52,16.52,0,0,0-4.59,1.19c-.55-.38-1.52-1.51-2.55-4.87a2.31,2.31,0,0,0,.4-.5,2,2,0,1,0-2.74.66,2.26,2.26,0,0,0,1.32.32c.31.77,1.52,4,1,5.77a16.42,16.42,0,0,0-4.89,5c-.47.11-1.73.13-4.24-1.74a1.49,1.49,0,0,0,0-.63,1.57,1.57,0,1,0-1.19,1.87,1.55,1.55,0,0,0,.82-.48c.68.37,3.28,1.89,3.4,3.27a16.47,16.47,0,0,0,.09,13.37c-.33.68-1.61,2.56-5.82,3.48l0,.13a2,2,0,0,0-.63-.68,1.87,1.87,0,1,0,.57,2.58,1.84,1.84,0,0,0,.28-1.13c.53-.18,5.44-1.83,7.35-1.34a16.69,16.69,0,0,0,8.11,5.85c.57.49,1.41,1.75.63,4.64a1.37,1.37,0,0,0-.57.3,1.57,1.57,0,1,0,2.21.2,1.51,1.51,0,0,0-.79-.51c.08-.74.48-3.54,1.91-3.9a16.65,16.65,0,0,0,5.59-.36c.83.57,1.81,2,2.58,5.42h.13a1.87,1.87,0,1,0,1.88.3,1.81,1.81,0,0,0-1.09-.42,15,15,0,0,1-.9-6.15,16.68,16.68,0,0,0,2.76-1.48,19.16,19.16,0,0,1,1.59,2l.12-.07a1.92,1.92,0,1,0,.68-.42A20.78,20.78,0,0,1,710,228.6a16.44,16.44,0,0,0,3.29-3.32c2.48-.45,6.55,2.61,7,3a2,2,0,0,0,.13,1.26,2,2,0,1,0,3.66-1.66Z"/><path class="cls-5" d="M691.8,209.86c3.8-6.29,10.44-9.49,17.18-7.53l-.65-.42a15.86,15.86,0,1,0-16.4,27.16,16.24,16.24,0,0,0,3.79,1.66C688.73,226,687.41,217.14,691.8,209.86Z"/><path class="cls-6" d="M705.48,208.89c-.05,2.08-2.24,3.71-4.88,3.64s-4.73-1.81-4.68-3.89,2.26-4.12,4.89-4S705.54,206.81,705.48,208.89Z"/><path class="cls-6" d="M713.7,214.94a2.24,2.24,0,0,1-3.21-2.94,2.2,2.2,0,0,1,3.21,2.94Z"/><path class="cls-6" d="M704.67,228.16a1.29,1.29,0,0,1-1.85-1.69,1.26,1.26,0,0,1,1.85,1.69Z"/><path class="cls-7" d="M705.61,216.45a1.29,1.29,0,0,1,.88,2.34,1.26,1.26,0,0,1-.88-2.34Z"/><path class="cls-6" d="M693.87,224.6a1.28,1.28,0,0,1-1.83-1.7,1.26,1.26,0,0,1,1.83,1.7Z"/><path class="cls-7" d="M710.54,207.51a1.29,1.29,0,0,1-2.47.41,1.26,1.26,0,0,1,2.47-.41Z"/><path class="cls-6" d="M693.86,211.44a1.29,1.29,0,0,1-2.47.42,1.26,1.26,0,0,1,2.47-.42Z"/><circle class="cls-6" cx="698.87" cy="219.3" r="2.47"/><circle class="cls-6" cx="690.73" cy="218.17" r="1.75"/><circle class="cls-7" cx="697.54" cy="227.17" r="1.75"/><circle class="cls-7" cx="707.68" cy="223.21" r="1.75"/><path class="cls-4" d="M814.64,490.19a2.13,2.13,0,0,0-2.82-1.06,2.09,2.09,0,0,0-.83.66l.06-.15c-4.32-2.29-5.72-4.05-6.11-5.15a16.51,16.51,0,0,0,.72-1.75c.29-.26,1.14-.6,3.57.24l0-.09a1.47,1.47,0,0,0,.1.68,1.39,1.39,0,1,0,.76-1.82,1.33,1.33,0,0,0-.66.57,7.78,7.78,0,0,1-3.25-1.53,17.44,17.44,0,0,0,.37-4.93c.14-.62,1.07-2.27,7-2.68v0a2.87,2.87,0,1,0,0-2.51,2.77,2.77,0,0,0-.27,1.15c-1.2.18-5.74.76-7.71-.63a17.41,17.41,0,0,0-5.55-7.78c-.25-.65-.25-2.14,1.75-5.31l-.13-.09a2.27,2.27,0,0,0,1.1.1,2.23,2.23,0,1,0-2.56-1.85,2.2,2.2,0,0,0,.65,1.24,13.76,13.76,0,0,1-3.25,4.29,17.36,17.36,0,0,0-9.29-2.17,9.3,9.3,0,0,1-.16-2.55l-.1,0a1.48,1.48,0,1,0-.64,0,12.09,12.09,0,0,1-.19,2.68,17.07,17.07,0,0,0-4.87,1.27c-.58-.41-1.6-1.61-2.7-5.16a2.76,2.76,0,0,0,.43-.54,2.11,2.11,0,1,0-2.91.71,2.44,2.44,0,0,0,1.41.33c.32.82,1.6,4.28,1,6.12a17.5,17.5,0,0,0-5.18,5.24c-.49.12-1.83.14-4.48-1.84a1.68,1.68,0,0,0,0-.67,1.66,1.66,0,1,0-1.27,2,1.62,1.62,0,0,0,.87-.5c.72.39,3.47,2,3.6,3.46a17.43,17.43,0,0,0,.1,14.15c-.36.72-1.7,2.72-6.17,3.69l0,.14a2,2,0,1,0-.06,2,2,2,0,0,0,.3-1.2c.56-.19,5.75-1.94,7.78-1.42a17.61,17.61,0,0,0,8.59,6.2c.6.52,1.49,1.85.66,4.91a1.52,1.52,0,0,0-.6.32,1.66,1.66,0,1,0,2.34.21,1.67,1.67,0,0,0-.83-.54c.08-.78.5-3.74,2-4.13a17.54,17.54,0,0,0,5.92-.38c.89.6,1.92,2.13,2.74,5.74h.14a1.93,1.93,0,0,0-.79.58,2,2,0,1,0,1.62-.71c-.17-.47-1.35-3.95-.95-6.51a16.79,16.79,0,0,0,2.92-1.57,23.18,23.18,0,0,1,1.69,2.1l.12-.06a2.06,2.06,0,0,0-.5.83,2,2,0,1,0,2.46-1.32,1.94,1.94,0,0,0-1.24,0,20.69,20.69,0,0,1-1.71-2.17,17.6,17.6,0,0,0,3.48-3.52c2.63-.47,6.94,2.77,7.45,3.16a2.08,2.08,0,0,0,.14,1.34,2.13,2.13,0,0,0,3.88-1.76Z"/><path class="cls-5" d="M780.4,471.13c4-6.66,11.05-10.05,18.18-8-.22-.15-.45-.29-.68-.43a16.79,16.79,0,0,0-17.37,28.75,17.08,17.08,0,0,0,4,1.75C777.14,488.26,775.74,478.83,780.4,471.13Z"/><path class="cls-6" d="M794.88,470.1c-.06,2.2-2.37,3.93-5.16,3.86s-5-1.92-5-4.13,2.38-4.36,5.18-4.29S794.94,467.9,794.88,470.1Z"/><path class="cls-6" d="M803.58,476.51a2.37,2.37,0,0,1-3.4-3.11,2.32,2.32,0,0,1,3.4,3.11Z"/><path class="cls-6" d="M794,490.5a1.36,1.36,0,0,1-1.95-1.79A1.33,1.33,0,0,1,794,490.5Z"/><path class="cls-7" d="M795,478.1a1.22,1.22,0,0,1,1.45.87,1.21,1.21,0,0,1-.51,1.61,1.28,1.28,0,0,1-1.55-.83A1.3,1.3,0,0,1,795,478.1Z"/><path class="cls-6" d="M782.59,486.74a1.22,1.22,0,0,1-1.69-.14,1.21,1.21,0,0,1-.25-1.67,1.34,1.34,0,0,1,1.94,1.81Z"/><path class="cls-7" d="M800.23,468.64a1.36,1.36,0,0,1-2.61.44,1.34,1.34,0,0,1,2.61-.44Z"/><path class="cls-6" d="M782.58,472.8a1.22,1.22,0,0,1-1.14,1.25,1.21,1.21,0,0,1-1.48-.81,1.34,1.34,0,0,1,2.62-.44Z"/><circle class="cls-6" cx="787.88" cy="481.12" r="2.62"/><circle class="cls-6" cx="779.26" cy="479.93" r="1.85"/><circle class="cls-7" cx="786.47" cy="489.46" r="1.85"/><circle class="cls-7" cx="797.21" cy="485.26" r="1.85"/><path class="cls-4" d="M148.22,731.89a3.56,3.56,0,0,0-6.1-.67l.09-.24c-7.23-3.85-9.56-6.78-10.21-8.62a29.47,29.47,0,0,0,1.19-2.93c.49-.44,1.92-1,6,.4l.07-.16a2.42,2.42,0,0,0,.16,1.15,2.33,2.33,0,1,0,1.26-3.05,2.3,2.3,0,0,0-1.1,1c-.52-.13-4-1-5.43-2.57a29.1,29.1,0,0,0,.61-8.25c.23-1,1.81-3.79,11.76-4.48v-.07a4.79,4.79,0,1,0-.06-4.2,4.74,4.74,0,0,0-.45,1.93c-2,.3-9.6,1.27-12.89-1.06a29.19,29.19,0,0,0-9.3-13c-.41-1.1-.41-3.59,2.94-8.88l-.22-.16a3.67,3.67,0,0,0,1.84.17,3.75,3.75,0,1,0-3.2-1c-.36.71-2.73,5.25-5.44,7.16a29,29,0,0,0-15.54-3.62,15.57,15.57,0,0,1-.27-4.28l-.18,0a2.5,2.5,0,1,0-2-4.4,2.49,2.49,0,0,0-.38,3.51,2.44,2.44,0,0,0,1.31.85,19,19,0,0,1-.32,4.48,29.46,29.46,0,0,0-8.14,2.13c-1-.68-2.68-2.68-4.51-8.64a4.47,4.47,0,0,0,.71-.89,3.54,3.54,0,1,0-4.87,1.17,4,4,0,0,0,2.35.57c.54,1.37,2.69,7.15,1.71,10.23a29.2,29.2,0,0,0-8.68,8.78c-.82.2-3.06.23-7.5-3.08a2.65,2.65,0,0,0,0-1.12,2.78,2.78,0,1,0-2.11,3.31,2.83,2.83,0,0,0,1.46-.84c1.2.66,5.79,3.34,6,5.79a29.26,29.26,0,0,0,.16,23.68c-.58,1.21-2.84,4.55-10.31,6.17l.06.24a3.31,3.31,0,1,0-.12,3.37,3.26,3.26,0,0,0,.51-2c.94-.32,9.63-3.25,13-2.38a29,29,0,0,0,8.37,7.61,29.37,29.37,0,0,0,6,2.76c1,.87,2.49,3.1,1.11,8.22a2.81,2.81,0,0,0-1,.53,2.78,2.78,0,1,0,3.92.36,2.71,2.71,0,0,0-1.39-.9c.14-1.31.84-6.27,3.37-6.92a29.2,29.2,0,0,0,9.91-.64c1.48,1,3.21,3.58,4.57,9.62l.24,0a3.3,3.3,0,0,0-.9,5.61,3.31,3.31,0,1,0,2.29-5.84c-.28-.78-2.26-6.6-1.59-10.88a29.1,29.1,0,0,0,4.88-2.63,35.58,35.58,0,0,1,2.83,3.52l.21-.11A3.21,3.21,0,0,0,124,739a3.33,3.33,0,1,0,2-2.15,35.28,35.28,0,0,1-2.87-3.63,29.33,29.33,0,0,0,5.83-5.89c4.39-.79,11.61,4.63,12.47,5.29a3.56,3.56,0,0,0,4.95,4A3.57,3.57,0,0,0,148.22,731.89Z"/><path class="cls-5" d="M90.92,700c6.73-11.14,18.5-16.81,30.43-13.34-.37-.26-.75-.5-1.14-.74A28.11,28.11,0,1,0,97.86,737C85.48,728.66,83.14,712.88,90.92,700Z"/><path class="cls-6" d="M115.16,698.28c-.1,3.68-4,6.57-8.64,6.44s-8.39-3.21-8.29-6.89,4-7.31,8.66-7.18S115.26,694.59,115.16,698.28Z"/><path class="cls-6" d="M129.72,709c-1.13,1.23-3.32,1.07-4.89-.36s-1.93-3.61-.8-4.85a3.89,3.89,0,0,1,5.69,5.21Z"/><path class="cls-6" d="M113.72,732.41a2.28,2.28,0,0,1-3.27-3,2.24,2.24,0,0,1,3.27,3Z"/><path class="cls-7" d="M115.38,711.67a2.28,2.28,0,0,1,1.57,4.14,2.23,2.23,0,0,1-1.57-4.14Z"/><path class="cls-6" d="M94.58,726.12a2.28,2.28,0,0,1-3.24-3,2.23,2.23,0,0,1,3.24,3Z"/><path class="cls-7" d="M124.12,695.83a2.28,2.28,0,0,1-4.37.73,2.23,2.23,0,0,1,4.37-.73Z"/><path class="cls-6" d="M94.57,702.8a2.28,2.28,0,0,1-4.37.73,2.23,2.23,0,0,1,4.37-.73Z"/><circle class="cls-6" cx="103.45" cy="716.71" r="4.38"/><circle class="cls-6" cx="89.02" cy="714.71" r="3.1"/><circle class="cls-7" cx="101.09" cy="730.67" r="3.1"/><circle class="cls-7" cx="119.05" cy="723.64" r="3.1"/><path class="cls-4" d="M215.36,215.94a3.39,3.39,0,0,0-5.8-.64l.08-.22c-6.89-3.67-9.11-6.46-9.73-8.21a25.54,25.54,0,0,0,1.14-2.79c.46-.42,1.82-1,5.69.38l.06-.15a2.19,2.19,0,0,0,.16,1.09,2.22,2.22,0,1,0,1.2-2.9,2.14,2.14,0,0,0-1,.91c-.5-.12-3.84-1-5.18-2.45a27.36,27.36,0,0,0,.58-7.85c.23-1,1.72-3.61,11.21-4.27v-.07a4.51,4.51,0,0,0,2.12,2.08,4.57,4.57,0,1,0-2.18-6.08,4.5,4.5,0,0,0-.43,1.84c-1.9.29-9.15,1.21-12.28-1a27.66,27.66,0,0,0-8.86-12.39c-.39-1.05-.39-3.42,2.81-8.46l-.21-.15a3.56,3.56,0,1,0-2.33-2.78,3.46,3.46,0,0,0,1,2c-.34.68-2.6,5-5.18,6.83a27.71,27.71,0,0,0-14.8-3.46,14.23,14.23,0,0,1-.25-4.07l-.17,0a2.42,2.42,0,1,0-1,0,18.69,18.69,0,0,1-.31,4.27,28.13,28.13,0,0,0-7.75,2c-.93-.64-2.56-2.55-4.3-8.22a4.08,4.08,0,0,0,.68-.85,3.37,3.37,0,1,0-4.64,1.12,3.88,3.88,0,0,0,2.24.54c.52,1.3,2.56,6.81,1.62,9.74a27.92,27.92,0,0,0-8.26,8.36c-.78.2-2.91.22-7.14-2.93a2.58,2.58,0,0,0,0-1.07,2.65,2.65,0,1,0-2,3.16,2.58,2.58,0,0,0,1.39-.81c1.14.63,5.52,3.19,5.72,5.52a27.83,27.83,0,0,0,.16,22.55c-.56,1.15-2.71,4.33-9.82,5.88l.05.22a3.14,3.14,0,0,0-5.41-.18,3.15,3.15,0,1,0,5.79,1.48c.89-.3,9.16-3.09,12.4-2.26A28.13,28.13,0,0,0,166,221.44c1,.83,2.37,3,1.06,7.82a2.7,2.7,0,0,0-1,.51,2.65,2.65,0,1,0,3.73.34,2.59,2.59,0,0,0-1.33-.85c.14-1.25.8-6,3.21-6.59a28,28,0,0,0,9.44-.61c1.41,1,3.06,3.41,4.35,9.16l.23,0a3.12,3.12,0,0,0-1.26.91,3.15,3.15,0,1,0,2.58-1.13c-.26-.74-2.15-6.28-1.5-10.36a28.08,28.08,0,0,0,4.64-2.5,36,36,0,0,1,2.7,3.35l.2-.11a3.11,3.11,0,1,0,1.13-.72,34.45,34.45,0,0,1-2.72-3.45,27.75,27.75,0,0,0,5.54-5.6c4.19-.76,11.06,4.4,11.88,5a3.36,3.36,0,0,0,.22,2.13,3.39,3.39,0,1,0,6.18-2.81Z"/><path class="cls-5" d="M160.8,185.56c6.4-10.6,17.61-16,29-12.7-.35-.24-.71-.48-1.09-.7A26.76,26.76,0,0,0,161,218a27.3,27.3,0,0,0,6.39,2.8C155.61,212.87,153.38,197.84,160.8,185.56Z"/><path class="cls-6" d="M183.88,183.93c-.09,3.51-3.78,6.26-8.23,6.14s-8-3.06-7.9-6.56,3.8-7,8.25-6.84S184,180.43,183.88,183.93Z"/><path class="cls-6" d="M197.75,194.14c-1.08,1.18-3.17,1-4.66-.34s-1.84-3.43-.76-4.61a3.7,3.7,0,0,1,5.42,4.95Z"/><path class="cls-6" d="M182.51,216.44a2.17,2.17,0,0,1-3.12-2.85,2.13,2.13,0,0,1,3.12,2.85Z"/><path class="cls-7" d="M184.09,196.69a2.17,2.17,0,0,1,1.49,3.94,2.12,2.12,0,0,1-1.49-3.94Z"/><path class="cls-6" d="M164.28,210.45a2.18,2.18,0,0,1-3.09-2.88,2.13,2.13,0,0,1,3.09,2.88Z"/><path class="cls-7" d="M192.41,181.6a2.17,2.17,0,0,1-4.16.7,2.13,2.13,0,0,1,4.16-.7Z"/><path class="cls-6" d="M164.27,188.24a2.18,2.18,0,0,1-4.17.7,2.13,2.13,0,0,1,4.17-.7Z"/><circle class="cls-6" cx="172.72" cy="201.49" r="4.18"/><circle class="cls-6" cx="158.99" cy="199.59" r="2.95"/><circle class="cls-7" cx="170.48" cy="214.78" r="2.95"/><circle class="cls-7" cx="187.58" cy="208.09" r="2.95"/></g></svg>