<svg id="coronaos" xmlns="http://www.w3.org/2000/svg" viewBox="0 0 911 910"><defs><style>.cls-1{fill:#59de9d;}.cls-2{fill:#41c987;}.cls-3{opacity:0.3;}</style></defs><title>Coronavirus_hombre-05</title><path class="cls-1" d="M726.72,456A19.06,19.06,0,0,0,697,469.74l-.25-1.35c-43.73,2.39-62.5-4.6-70.56-11.2a155.67,155.67,0,0,0-2.62-16.7c1-3.36,6-9.91,28.42-14.68l-.13-.89a12.5,12.5,0,1,0-1.16-5.23c-2.71.86-21.22,6.45-31.94,3.25a155.5,155.5,0,0,0-20-39.4c-1.79-5.41-2.23-22.36,41.43-53l-.2-.32a25.61,25.61,0,1,0-8.62-9c-8.3,6.91-40.41,32.37-61.9,30.79a155.66,155.66,0,0,0-78.53-33.87c-4.91-3.89-11.8-15.3-11.08-48.77l-1.44-.11a20.08,20.08,0,1,0-8.57-.12c.32,4.25,2,31.58-5.07,47.82a155.52,155.52,0,0,0-81.15,26.36c-3.66-3.69-8-9.55-13-18.83l-.87.41a13.41,13.41,0,1,0-5,2.76c1.24,1.84,7.62,11.6,10.94,21.4a157.47,157.47,0,0,0-31.41,32.21c-6.29-.41-19.67-4.86-44.49-27a23.34,23.34,0,0,0,.77-6.05,18.92,18.92,0,1,0-19,18.83,21.75,21.75,0,0,0,12.32-3.9c6.25,4.76,32.07,25.28,36.06,42.09a155.54,155.54,0,0,0-15.45,64.15c-3.18,3.19-13.37,9.49-42.82,6.62a14.87,14.87,0,1,0-3.69,15.94,14.79,14.79,0,0,0,4.32-7.9c7.33-.3,35.77-.73,43.52,9.9A156.26,156.26,0,0,0,382,601.8c.65,7.13-.44,28.67-30.12,56.72l.88.93a17.78,17.78,0,1,0,5.59,5.16c3.39-4.05,35.06-41.46,53-46.87a156.91,156.91,0,0,0,94.39,7.73c7,1.22,19.95,7.33,27.78,34.52a14.89,14.89,0,1,0,6.9-4.21c-3-6.38-13.48-31-3.68-41a156.7,156.7,0,0,0,43.57-30.28c9.56.52,24.57,7.48,47.49,31.35l1-.76a17.8,17.8,0,1,0,5.75-4.87c-3.41-2.8-28.59-24-37.32-45.41a155.89,155.89,0,0,0,15.06-25.51A195.4,195.4,0,0,1,635,547.6l.66-1.1a17.79,17.79,0,1,0,3.39-6.73,186.17,186.17,0,0,1-23.13-8.69,155.3,155.3,0,0,0,10.39-43c17.94-15.76,65.91-10.92,71.66-10.28A19,19,0,1,0,726.72,456Z"/><path class="cls-2" d="M369.22,581.51s13.34-15.73-3.41-37.43-19.19-41-16.46-56.87S384,476,381.71,432.15s19.53-32.69,30.69-35.69,11.82-2.07,23.34-26.3c7.22-15.18,21-16.06,30.27-14.6a33.66,33.66,0,0,1,13.69,5.69c37.82,25.81,69.44-6.63,74.38-13.93,0,0-116-76.67-205.87,41.42C348.21,388.74,275.86,481.16,369.22,581.51Z"/><ellipse class="cls-2" cx="568.32" cy="440.51" rx="25.3" ry="31.29" transform="translate(-109.7 679.93) rotate(-57.23)"/><path class="cls-2" d="M586.66,496.5C592.84,503.91,593,514,587,519s-15.86,3-22-4.36-5.62-13.39.37-18.39S580.48,489.09,586.66,496.5Z"/><ellipse class="cls-2" cx="475.84" cy="551.11" rx="14.13" ry="17.47" transform="translate(-250.96 507.46) rotate(-45.76)"/><ellipse class="cls-2" cx="469.74" cy="515.97" rx="6.46" ry="7.99" transform="translate(-227.63 492.48) rotate(-45.76)"/><g class="cls-3"><path class="cls-1" d="M719.57,256a7.9,7.9,0,0,0-12.34,5.72l-.11-.56c-18.14,1-25.93-1.91-29.27-4.65a63.29,63.29,0,0,0-1.09-6.93c.42-1.39,2.48-4.11,11.79-6.09l0-.37a5.19,5.19,0,1,0-.48-2.16c-1.12.35-8.81,2.67-13.25,1.34a64.63,64.63,0,0,0-8.29-16.34c-.75-2.25-.93-9.28,17.18-22l-.08-.14a10.62,10.62,0,1,0-4.93-7.9,10.72,10.72,0,0,0,1.35,4.18c-3.44,2.87-16.76,13.43-25.68,12.78a64.46,64.46,0,0,0-32.57-14.05c-2-1.62-4.9-6.35-4.6-20.24l-.6,0a8.33,8.33,0,1,0-3.55-.05c.13,1.76.83,13.1-2.11,19.84a64.51,64.51,0,0,0-33.67,10.93,34.4,34.4,0,0,1-5.4-7.81l-.36.17a5.53,5.53,0,1,0-5.55,1,5.44,5.44,0,0,0,3.47.1,43.14,43.14,0,0,1,4.54,8.88,65,65,0,0,0-13,13.37c-2.61-.17-8.17-2-18.46-11.22a9.87,9.87,0,0,0,.32-2.51,7.85,7.85,0,1,0-7.89,7.81,9,9,0,0,0,5.12-1.62c2.59,2,13.3,10.49,14.95,17.47a64.46,64.46,0,0,0-6.4,26.61c-1.33,1.32-5.55,3.93-17.77,2.74a6.17,6.17,0,1,0-1.53,6.61,6.05,6.05,0,0,0,1.79-3.27c3-.12,14.84-.3,18.06,4.11a64.81,64.81,0,0,0,27.46,44.76c.27,3-.19,11.89-12.5,23.53l.37.38a7.33,7.33,0,1,0,3.64,6.53,7.26,7.26,0,0,0-1.33-4.39c1.41-1.67,14.55-17.2,22-19.44a65.27,65.27,0,0,0,39.16,3.21c2.91.5,8.28,3,11.53,14.32a6.16,6.16,0,1,0,2.86-1.75c-1.24-2.65-5.6-12.86-1.53-17a64.92,64.92,0,0,0,18.08-12.56c4,.22,10.19,3.1,19.7,13l.42-.32a7.41,7.41,0,1,0,2.39-2c-1.42-1.16-11.86-9.93-15.48-18.84a64.34,64.34,0,0,0,6.24-10.58,81,81,0,0,1,9.4,3.43l.27-.45a7.38,7.38,0,1,0,1.41-2.8,77,77,0,0,1-9.59-3.6,64.76,64.76,0,0,0,4.31-17.85c7.44-6.54,27.34-4.53,29.73-4.26a7.9,7.9,0,1,0,12-9.06Z"/><path class="cls-2" d="M571.25,308s5.54-6.53-1.41-15.53-8-17-6.83-23.6,14.39-4.66,13.42-22.84,8.1-13.56,12.73-14.8,4.91-.86,9.69-10.91c3-6.3,8.71-6.67,12.56-6.06a14,14,0,0,1,5.68,2.36c15.69,10.71,28.8-2.75,30.85-5.78,0,0-48.13-31.81-85.41,17.18C562.53,228.06,532.52,266.41,571.25,308Z"/><ellipse class="cls-2" cx="653.85" cy="249.54" rx="10.5" ry="12.98" transform="translate(90.1 664.25) rotate(-57.23)"/><path class="cls-2" d="M661.46,272.77c2.56,3.07,2.63,7.25.14,9.32s-6.58,1.26-9.14-1.81-2.34-5.55.15-7.63S658.9,269.7,661.46,272.77Z"/><ellipse class="cls-2" cx="615.48" cy="295.43" rx="5.86" ry="7.25" transform="translate(-25.59 530.21) rotate(-45.76)"/><ellipse class="cls-2" cx="612.96" cy="280.85" rx="2.68" ry="3.31" transform="translate(-15.91 524) rotate(-45.76)"/></g><g class="cls-3"><path class="cls-1" d="M746.57,697a7.9,7.9,0,0,0-12.34,5.72l-.11-.56c-18.14,1-25.93-1.91-29.27-4.65a63.29,63.29,0,0,0-1.09-6.93c.42-1.39,2.48-4.11,11.79-6.09l0-.37a5.19,5.19,0,1,0-.48-2.16c-1.12.35-8.81,2.67-13.25,1.34a64.63,64.63,0,0,0-8.29-16.34c-.75-2.25-.93-9.28,17.18-22l-.08-.14a10.62,10.62,0,1,0-4.93-7.9,10.72,10.72,0,0,0,1.35,4.18c-3.44,2.87-16.76,13.43-25.68,12.78a64.46,64.46,0,0,0-32.57-14.05c-2-1.62-4.9-6.35-4.6-20.24l-.6,0a8.33,8.33,0,1,0-3.55,0c.13,1.76.83,13.1-2.11,19.84a64.51,64.51,0,0,0-33.67,10.93,34.4,34.4,0,0,1-5.4-7.81l-.36.17a5.53,5.53,0,1,0-5.55,1,5.44,5.44,0,0,0,3.47.1,43.14,43.14,0,0,1,4.54,8.88,65,65,0,0,0-13,13.37c-2.61-.17-8.17-2-18.46-11.22a9.87,9.87,0,0,0,.32-2.51,7.85,7.85,0,1,0-7.89,7.81,9,9,0,0,0,5.12-1.62c2.59,2,13.3,10.49,14.95,17.47a64.46,64.46,0,0,0-6.4,26.61c-1.33,1.32-5.55,3.93-17.77,2.74a6.17,6.17,0,1,0-1.53,6.61,6.05,6.05,0,0,0,1.79-3.27c3-.12,14.84-.3,18.06,4.11a64.81,64.81,0,0,0,27.46,44.76c.27,3-.19,11.89-12.5,23.53l.37.38a7.33,7.33,0,1,0,3.64,6.53,7.26,7.26,0,0,0-1.33-4.39c1.41-1.67,14.55-17.2,22-19.44a65.27,65.27,0,0,0,39.16,3.21c2.91.5,8.28,3,11.53,14.32a6.16,6.16,0,1,0,2.86-1.75c-1.24-2.65-5.6-12.86-1.53-17a64.92,64.92,0,0,0,18.08-12.56c4,.22,10.19,3.1,19.7,13l.42-.32a7.41,7.41,0,1,0,2.39-2c-1.42-1.16-11.86-9.93-15.48-18.84a64.34,64.34,0,0,0,6.24-10.58,81,81,0,0,1,9.4,3.43l.27-.45a7.38,7.38,0,1,0,1.41-2.8,77,77,0,0,1-9.59-3.6,64.76,64.76,0,0,0,4.31-17.85c7.44-6.54,27.34-4.53,29.73-4.26a7.9,7.9,0,1,0,12-9.06Z"/><path class="cls-2" d="M598.25,749s5.54-6.53-1.41-15.53-8-17-6.83-23.6,14.39-4.66,13.42-22.84,8.1-13.56,12.73-14.8,4.91-.86,9.69-10.91c3-6.3,8.71-6.67,12.56-6.06a14,14,0,0,1,5.68,2.36c15.69,10.71,28.8-2.75,30.85-5.78,0,0-48.13-31.81-85.41,17.18C589.53,669.06,559.52,707.41,598.25,749Z"/><ellipse class="cls-2" cx="680.85" cy="690.54" rx="10.5" ry="12.98" transform="translate(-268.32 889.25) rotate(-57.23)"/><path class="cls-2" d="M688.46,713.77c2.56,3.07,2.63,7.25.14,9.32s-6.58,1.26-9.14-1.81-2.34-5.55.15-7.63S685.9,710.7,688.46,713.77Z"/><ellipse class="cls-2" cx="642.48" cy="736.43" rx="5.86" ry="7.25" transform="translate(-333.35 682.86) rotate(-45.76)"/><ellipse class="cls-2" cx="639.96" cy="721.85" rx="2.68" ry="3.31" transform="translate(-323.66 676.64) rotate(-45.76)"/></g><g class="cls-3"><path class="cls-1" d="M317.57,496a7.9,7.9,0,0,0-12.34,5.72l-.11-.56c-18.14,1-25.93-1.91-29.27-4.65a63.29,63.29,0,0,0-1.09-6.93c.42-1.39,2.48-4.11,11.79-6.09l-.05-.37a5.19,5.19,0,1,0-.48-2.16c-1.12.35-8.81,2.67-13.25,1.34a64.63,64.63,0,0,0-8.29-16.34c-.75-2.25-.93-9.28,17.18-22l-.08-.14a10.62,10.62,0,1,0-4.93-7.9,10.72,10.72,0,0,0,1.35,4.18c-3.44,2.87-16.76,13.43-25.68,12.78a64.46,64.46,0,0,0-32.57-14.05c-2-1.62-4.9-6.35-4.6-20.24l-.6,0a8.33,8.33,0,1,0-3.55-.05c.13,1.76.83,13.1-2.11,19.84a64.51,64.51,0,0,0-33.67,10.93,34.4,34.4,0,0,1-5.4-7.81l-.36.17a5.53,5.53,0,1,0-5.55,1,5.44,5.44,0,0,0,3.47.1,43.14,43.14,0,0,1,4.54,8.88,65,65,0,0,0-13,13.37c-2.61-.17-8.17-2-18.46-11.22a9.87,9.87,0,0,0,.32-2.51,7.85,7.85,0,1,0-7.89,7.81,9,9,0,0,0,5.12-1.62c2.59,2,13.3,10.49,15,17.47a64.46,64.46,0,0,0-6.4,26.61c-1.33,1.32-5.55,3.93-17.77,2.74a6.17,6.17,0,1,0-1.53,6.61,6.05,6.05,0,0,0,1.79-3.27c3-.12,14.84-.3,18.06,4.11a64.81,64.81,0,0,0,27.46,44.76c.27,3-.19,11.89-12.5,23.53l.37.38a7.33,7.33,0,1,0,3.64,6.53,7.26,7.26,0,0,0-1.33-4.39c1.41-1.67,14.55-17.2,22-19.44a65.27,65.27,0,0,0,39.16,3.21c2.91.5,8.28,3,11.53,14.32a6.16,6.16,0,1,0,2.86-1.75c-1.24-2.65-5.6-12.86-1.53-17a64.92,64.92,0,0,0,18.08-12.56c4,.22,10.19,3.1,19.7,13l.42-.32a7.41,7.41,0,1,0,2.39-2c-1.42-1.16-11.86-9.93-15.48-18.84a64.34,64.34,0,0,0,6.24-10.58,81,81,0,0,1,9.4,3.43l.27-.45a7.38,7.38,0,1,0,1.41-2.8,77,77,0,0,1-9.59-3.6,64.76,64.76,0,0,0,4.31-17.85c7.44-6.54,27.34-4.53,29.73-4.26A7.9,7.9,0,1,0,317.57,496Z"/><path class="cls-2" d="M169.25,548s5.54-6.53-1.41-15.53-8-17-6.83-23.6,14.39-4.66,13.42-22.84,8.1-13.56,12.73-14.8,4.91-.86,9.69-10.91c3-6.3,8.71-6.67,12.56-6.06a14,14,0,0,1,5.68,2.36c15.69,10.71,28.8-2.75,30.85-5.78,0,0-48.13-31.81-85.41,17.18C160.53,468.06,130.52,506.41,169.25,548Z"/><ellipse class="cls-2" cx="251.85" cy="489.54" rx="10.5" ry="12.98" transform="translate(-296.1 436.33) rotate(-57.23)"/><path class="cls-2" d="M259.46,512.77c2.56,3.07,2.63,7.25.14,9.32s-6.58,1.26-9.14-1.81-2.34-5.55.15-7.63S256.9,509.7,259.46,512.77Z"/><ellipse class="cls-2" cx="213.48" cy="535.43" rx="5.86" ry="7.25" transform="translate(-319.03 314.78) rotate(-45.76)"/><ellipse class="cls-2" cx="210.96" cy="520.85" rx="2.68" ry="3.31" transform="translate(-309.35 308.56) rotate(-45.76)"/></g></svg>