<svg xmlns="http://www.w3.org/2000/svg" xmlns:xlink="http://www.w3.org/1999/xlink" viewBox="0 0 911 910"><defs><style>.cls-1,.cls-10,.cls-4,.cls-7,.cls-9{fill:none;}.cls-2{fill:#298c6a;}.cls-11,.cls-3{fill:#e0eaec;}.cls-4{stroke:#9eccb6;stroke-width:0.75px;}.cls-4,.cls-9{stroke-linecap:round;}.cls-10,.cls-4,.cls-7,.cls-9{stroke-miterlimit:10;}.cls-5{fill:#a5d0bd;}.cls-6{fill:#9eccb6;}.cls-7{stroke:#b6dac8;}.cls-8{fill:#cfd7d9;}.cls-9{stroke:#319897;}.cls-10{stroke:#e0eaec;}.cls-11{opacity:0.2;}.cls-12{fill:#a8caba;}.cls-13{clip-path:url(#clip-path);}.cls-14{fill:#a67c52;}.cls-15{fill:#c69c6d;}.cls-16{fill:#754c24;}.cls-17{fill:#8c6239;}.cls-18{fill:#a43546;}.cls-19{fill:#f29f7d;}.cls-20{fill:#e77d70;}.cls-21{fill:url(#Degradado_sin_nombre_8);}.cls-22{fill:#f4a07e;}.cls-23{fill:#de5a65;}.cls-24{fill:url(#Degradado_sin_nombre_8-2);}.cls-25{fill:#3e0c2f;}.cls-26{fill:#c64f51;}.cls-27{fill:#cf4c5e;}.cls-28{fill:#f2c291;}.cls-29{fill:#f4c091;}.cls-30{fill:#8dabf3;}.cls-31{fill:#b4c9ff;}.cls-32{fill:#668be4;}.cls-33{fill:#d4495c;}.cls-34{fill:#cf4d59;}.cls-35{fill:#f79594;}.cls-36{fill:#f27d7d;}.cls-37{fill:#ed6160;}.cls-38{fill:#f9b1b2;}</style><clipPath id="clip-path"><circle class="cls-1" cx="454.5" cy="456.5" r="225"/></clipPath><linearGradient id="Degradado_sin_nombre_8" x1="386.61" y1="460.53" x2="386.61" y2="405.44" gradientUnits="userSpaceOnUse"><stop offset="0" stop-color="#e87c6f"/><stop offset="1" stop-color="#ea7c6f"/></linearGradient><linearGradient id="Degradado_sin_nombre_8-2" x1="453.53" y1="453.81" x2="453.53" y2="346.38" xlink:href="#Degradado_sin_nombre_8"/></defs><title>Como_se_contrae</title><g id="_Que_es_" data-name="¿Que es?"><ellipse class="cls-2" cx="227.13" cy="444.16" rx="9.9" ry="13.49" transform="matrix(0.98, -0.18, 0.18, 0.98, -77.7, 49.26)"/><path class="cls-3" d="M267.93,326.11A109,109,0,0,0,261.44,357c-2,26.89-10.67,88.94-49.49,108.35-50.06,25-116.81,62.57-37.55,179.38,63,92.9,295,104,452.32,16.51C706.05,617.08,754.22,531,744.26,440.82c-7.52-68.07-46.48-135.2-173.75-127.13a192.32,192.32,0,0,1-75.85-10.55,233.28,233.28,0,0,1-44.92-21.4C398.41,250.15,306,226,267.93,326.11Z"/><path class="cls-4" d="M660.41,404.8S585.32,555,552,659.28"/><path class="cls-5" d="M658.33,409c0-4.4,13.19-48.37,26.38-39.58S658.33,409,658.33,409"/><path class="cls-5" d="M645.7,433.42c2.56-2.53,35.49-20.48,37.69-8s-37.69,8-37.69,8"/><path class="cls-5" d="M633.18,462.62c2.56-2.53,35.49-20.48,37.69-8s-37.69,8-37.69,8"/><path class="cls-5" d="M617.19,498.74c3.13-4.12,46.34-36.21,52-18.93s-52,18.93-52,18.93"/><path class="cls-5" d="M600.5,532.11c3.13-4.11,46.35-36.2,52-18.92s-52,18.92-52,18.92"/><path class="cls-5" d="M646.39,427.84c.11-3.17-7.95-35.19-17.33-29.17s17.33,29.17,17.33,29.17"/><path class="cls-5" d="M635,453.37c.11-3.17-7.94-35.19-17.32-29.16S635,453.37,635,453.37"/><path class="cls-5" d="M621.16,485.29c.79-4.48-4.26-51.61-18.79-44.92s18.79,44.92,18.79,44.92"/><path class="cls-5" d="M609.54,516c.79-4.49-4.26-51.61-18.8-44.93S609.54,516,609.54,516"/><path class="cls-4" d="M249.78,400.58S355,564,439.17,658.73"/><path class="cls-5" d="M252.7,405.11c-4.38-2.59-40.38-41.67-23.84-49.61s23.84,49.61,23.84,49.61"/><path class="cls-5" d="M269.59,432.11c-1-4,.55-47.42,14.26-42.25s-14.26,42.25-14.26,42.25"/><path class="cls-5" d="M291.28,461.8c-1-4,.55-47.42,14.27-42.25s-14.27,42.25-14.27,42.25"/><path class="cls-5" d="M317.81,499c-2.25-5.55-8.71-67.51,11.82-62.92S317.81,499,317.81,499"/><path class="cls-5" d="M341.2,535.35c-2.25-5.55-8.71-67.51,11.81-62.92s-11.81,62.92-11.81,62.92"/><path class="cls-5" d="M264.44,428.13c-3.09-2-39.73-12.85-39.27,0s39.27,0,39.27,0"/><path class="cls-5" d="M283.13,454.56c-3.09-2-39.73-12.85-39.27.05s39.27-.05,39.27-.05"/><path class="cls-5" d="M306.76,487.15c-4-3.44-53.9-26.21-55.82-7.79s55.82,7.79,55.82,7.79"/><path class="cls-5" d="M330.5,516.85c-4-3.43-53.9-26.21-55.82-7.79s55.82,7.79,55.82,7.79"/><path class="cls-4" d="M156.41,488.4S310.26,607.14,421.28,668.28"/><path class="cls-5" d="M160.68,491.7c-5-1-52-25.75-39.07-38.78s39.07,38.78,39.07,38.78"/><path class="cls-5" d="M185.63,511.49c-2.31-3.47-15.35-44.87-.7-44.59s.7,44.59.7,44.59"/><path class="cls-5" d="M216,532.21c-2.31-3.47-15.35-44.87-.7-44.59s.7,44.59.7,44.59"/><path class="cls-5" d="M253.47,558.42c-4-4.48-30.8-60.71-9.92-63.24s9.92,63.24,9.92,63.24"/><path class="cls-5" d="M287.66,584.8c-4-4.47-30.8-60.7-9.92-63.24s9.92,63.24,9.92,63.24"/><path class="cls-5" d="M179.44,509.46c-3.57-.83-41.73,1.19-37,13.18s37-13.18,37-13.18"/><path class="cls-5" d="M205.9,528.11c-3.57-.83-41.73,1.19-37,13.19s37-13.19,37-13.19"/><path class="cls-5" d="M239.08,550.91c-4.92-1.9-59.56-6.66-55.21,11.34s55.21-11.34,55.21-11.34"/><path class="cls-5" d="M271.39,571c-4.92-1.9-59.56-6.66-55.21,11.34S271.39,571,271.39,571"/><path class="cls-6" d="M733.12,625.91l-16.39,22.94V625.91h-2.09c-32-2.67-57.66,1.07-77.71,7.38-49.11,15.48-49,85.05.15,100.33l2.47.75C723,759.4,869,625.91,869,625.91Z"/><path class="cls-7" d="M645.81,698.91S779.31,644.68,862.74,628"/><line class="cls-7" x1="752.64" y1="625.91" x2="727.16" y2="667.63"/><line class="cls-7" x1="821.02" y1="661.37" x2="783.21" y2="649.36"/><path class="cls-6" d="M368.12,459.1l-4.34,31.44,17.75-18.77,1.7,1.62c28.28,22.59,46.35,45.48,57.86,66.15,28.21,50.66-25.67,107.5-77.72,82l-2.61-1.3C273.15,576.14,257,354,257,354Z"/><path class="cls-7" d="M383.07,586.35s-67.26-147.62-122.6-225.81"/><line class="cls-7" x1="352.15" y1="444" x2="340.72" y2="497.83"/><line class="cls-7" x1="268.78" y1="420.11" x2="309" y2="439.54"/><path class="cls-8" d="M105.57,650.94c-9.31-.55-50.06-4.17-41.72-33.38s58.41-4.17,75.09,0,16.69-8.34,20.86-16.68,16.69-12.52,29.2,0,29.21,33.37,37.55,25,20.86-20.86,33.37,0,12.52,25,16.69,25,12.52,8.34,12.52,12.51,16.68,62.58-79.27,70.92c0,0-43.8-10.43-27.11-27.11s-4.18-20.86-20.86-16.69-50.06,4.17-41.72-12.52S141,653,105.57,650.94Z"/><path class="cls-9" d="M65.94,615.48s141.84,41.72,204.41,75.09"/><path class="cls-9" d="M166.06,603s29.88,32.36,35.8,57.9"/><path class="cls-9" d="M128.51,686.4c8.35-4.17,55.36-15.45,65.23-28.58"/><path class="cls-9" d="M241.15,623.82s17.86,34.63,15.19,56.95"/><path class="cls-8" d="M720.05,495.48c4.55-9.64,25.77-51.33,53.19-30s-20.47,63.74-32,79.67S743,566.38,750,574.36s6.16,23-12.45,31S689.73,622.1,695,634.5s13.24,31-14.23,35.41-31.89,2.61-33.67,7-14.19,9.72-18.61,7.94-73.5-9-41.45-114.33c0,0,29.75-42,40.33-17.2s23.91,4.47,26.6-15,16.92-54.89,31.07-38.92S702.72,532.21,720.05,495.48Z"/><path class="cls-9" d="M774.57,468.55S669.83,601.25,607.74,653.41"/><path class="cls-9" d="M745.16,580.11s-47.08,17.91-76.69,13.3"/><path class="cls-9" d="M672.65,504.7c.87,10.64-7.22,65.32,2.51,81.39"/><path class="cls-9" d="M691,650.88s-44.36,4.18-66.89-8.16"/><path class="cls-10" d="M249.78,416s-42-121.76,41.43-163.47S437.33,261.75,454,284.26"/><path class="cls-11" d="M335.32,533.53a73.79,73.79,0,0,0-4.38,20.83c-1.32,18.16-7.21,60.07-33.43,73.18-33.81,16.91-78.89,42.26-25.35,121.16,42.57,62.74,199.21,70.24,305.49,11.15C631.24,730.06,663.77,671.94,657,611c-5.07-46-31.39-91.32-117.35-85.86A130.07,130.07,0,0,1,488.46,518a157.45,157.45,0,0,1-30.34-14.46C423.45,482.23,361,465.94,335.32,533.53Z"/><ellipse class="cls-12" cx="793.91" cy="548.73" rx="12.52" ry="6.26" transform="translate(-139.12 795.41) rotate(-49.46)"/><ellipse class="cls-12" cx="802.25" cy="490.33" rx="12.52" ry="6.26" transform="translate(-91.81 781.31) rotate(-49.46)"/><ellipse class="cls-12" cx="193.18" cy="386.03" rx="6.26" ry="12.52" transform="translate(-183.27 174.78) rotate(-34.12)"/><ellipse class="cls-12" cx="180.66" cy="419.41" rx="4.32" ry="8.63" transform="translate(-204.14 173.51) rotate(-34.12)"/><ellipse class="cls-2" cx="774.62" cy="580.97" rx="8.52" ry="6.26" transform="translate(-170.37 792.04) rotate(-49.46)"/><ellipse class="cls-2" cx="114.49" cy="569.31" rx="7.36" ry="5.41" transform="translate(-40.35 9.63) rotate(-4.09)"/></g><g id="Sintomas"><g class="cls-13"><path class="cls-14" d="M392.8,331.55s-24.71,26.69-33.94,45.15S348,396.8,348,402.07s6.59,17.79,17.13,29a45.33,45.33,0,0,0,9.58,7.82l4.92,4.7s-9.22,0-13.18,7.91,5.93,14.5,11.86,19.11c0,0-13.18,7.25-11.2,27.68s31.64,23.73,42.84,19.12a18.51,18.51,0,0,0-1.48,6.69c0,6.69,5.4,11.42,12,12.42,2.65.4,5.69,1.32,9.89.66a86.75,86.75,0,0,0,2-19.11V502.25s-33-23.73-38.23-64.59c0,0-9.88-58,8.57-89.63Z"/><path class="cls-14" d="M381.61,350.62s-20.77,34.64-23.41,41.23-4.61,9.23-.66,18.46c0,0,7.25,13.84,9.23,15.82,0,0,11.86-40.21,13.84-58.66S381.61,350.62,381.61,350.62Z"/><path class="cls-15" d="M391.81,332.54s-20.1,22.26-23.23,27.94c0,0-8.4,10.94-18.95,34,0,0-3.29,5.27-1.31,10.55,0,0,2,9.88,13.95,23.52,0,0,9.47,10.6,13.25,10.68,0,0-8.08-12.15-13.52-21.69s-9.4-14.89-4.46-24.08c0,0,14.68-28.79,25-44.37S391.81,332.54,391.81,332.54Z"/><path class="cls-16" d="M392.17,332.91l-13.54,22.7s2.64,23.72-13.18,67.22c0,0,6.59,10.55,9.23,15.82,0,0,4.61,4,5.27,5.27a7.12,7.12,0,0,0-4.61,2S397.75,465,407,480.17s17,30,18.39,57.5l5-.49s3.3-10.94,2-34.14c0,0-31.36-23-36.11-49.45a256.48,256.48,0,0,1-7.2-51.26c-.85-27.28,7.72-49,10.35-54.3Z"/><path class="cls-17" d="M370.07,449.19s21.74,16.48,32.29,33,12.85,30,13.86,52c0,.1,3.28,3.4,9.87,3.4,0,0,3-27.92-22.35-63.37a76,76,0,0,0-6.42-7.8c-6.36-6.77-20.6-21.61-22.64-21.1C374.68,445.24,370.72,446.56,370.07,449.19Z"/><path class="cls-15" d="M377,444.25s-7.91,3.95-7.91,11.2S381.6,470,381.6,470,363.9,481.41,371.53,502A22.43,22.43,0,0,0,386,515.77c6.35,1.91,15.73,2.74,28.51-1,0,0-9.59,21.24,11.68,22.81,0,0-23.54,1.58-17-19.51,0,0-22.55,10.45-39.29-10.27,0,0-9.2-13.09,1.2-30.74,0,0,3.82-5.13,7.11-6.45,0,0-8.84-5.81-11-10.15a8.72,8.72,0,0,1,.16-10.66S371.71,444.25,377,444.25Z"/><path class="cls-18" d="M375.67,421.84s2.63-3.29,5.93-.66,8.57,9.23,6.59,13.84c-1.3,3-2.64,4.62-2,7.91s7.25,7.91,7.25,7.91-7.25-7.25-5.93-11.2,4-5.93,2-9.89A30.89,30.89,0,0,0,382,420a4,4,0,0,0-6.32,1.76A.56.56,0,0,0,375.67,421.84Z"/><path class="cls-19" d="M431.36,499.28s2,32.3-2.64,46.14-8.57,14.5-62,40.2c0,0,67.23,48.77,87,45.48,0,0,14.5,3.29,44.81-15.82l48.77-28.34s-59-22.08-62.94-38.56-4-48.11-4-48.11Z"/><path class="cls-20" d="M433.67,517.41s-2,31-6.6,34.93l-1.31,2a24.5,24.5,0,0,0,2.29,2.6,33.1,33.1,0,0,0,41.68,4c4.86-3.21,10.11-7.74,12-13.23,0,0-2.64-18.45-2.64-30.31l-.66-9.89-44.24-1.09Z"/><path class="cls-21" d="M388.19,406.68s-9.89-5.27-11.86,5.94-3.3,23.72-2,27.68,2.64,9.88,7.91,13.84,8,8.56,15.22,5.27l1.91-5.27-7.9-44.82Z"/><path class="cls-22" d="M399.39,347.37s-14.5,31.63-10.54,59.31c0,0,2,46.8,13.84,63.93S431,508.84,454.1,513.45c0,0,9.22,2.64,29-11.86s32.95-43.5,32.95-43.5,5.93-14.5-1.32-37.57C514.73,420.52,549.66,288.05,399.39,347.37Z"/><path class="cls-20" d="M374.39,426.1c0,5-1.39,9.46.53,16a36.79,36.79,0,0,0,4.05,8.76s8.66,9.2,12.56,9.54,5.24-.67,5.24-.67a5.26,5.26,0,0,0,1.54-2.58l-2.29-7s-9.15,6-15.08-3.25-4.61-19.78-4.61-23.73S379,406.68,383.58,406c0,0-5.44-1.78-7.33,7.35Z"/><path class="cls-23" d="M380.28,418.55s-6.59-4.62-4.61,20.43c0,0,.57,10.07,9.18,16.24s11.35,1.23,11.35,1.23-10-8.25-9.33-15.5,5.27-4.61,1.32-11.86S380.28,418.55,380.28,418.55Z"/><path class="cls-24" d="M390,421.51s11-35.59,12.35-46.79c0,0,34.27,29,53.38,34.93l-3.29-9.23s32.29,24.39,52.07,26.36c0,0,12,0,12.58,27,0,0,4.55-10.55-2-33,0,0-34.93-14.5-54.7-27s-60.64-47.45-60.64-47.45-12,29.66-11.27,46.46A230.72,230.72,0,0,0,390,421.51Z"/><path class="cls-25" d="M412.58,392.84s19.11-12.52,27.68-15.16c0,0,2,6.6-7.91,10.55A73.23,73.23,0,0,1,412.58,392.84Z"/><path class="cls-25" d="M497.6,391.52s-13.85-7.9-24.23-13.84c0,0-2,7.25,7.91,11.21S497.6,391.52,497.6,391.52Z"/><path class="cls-15" d="M479.59,503.61s.21,21,1.53,29.61c0,0,11.86,4.62,23.72-9.22,0,0,23.73,19.11,41.53-11.21a30.12,30.12,0,0,0-2.64-24.38l-.66-1.32s5.27,2,7.25-2.64c0,0,1.32-4.61-5.93-5.93,0,0,12.52-5.27,11.2-15.82s-18.8-13.29-18.8-13.29S520,467.32,510.12,471.27a2,2,0,0,0-1.32.66C508.14,472.59,495.85,495.09,479.59,503.61Z"/><path class="cls-14" d="M493.64,528.61c-.59.3,4.61-34.93,21.75-52.07s31.33-24,31.33-24,12.17,10.12.3,20.67a41.13,41.13,0,0,1-5.93,3.95s6.59,2,4.62,7.25c0,0-1.32,2.64-5.28,2,0,0,12.53,23.07-9.22,38.23,0,0-11.87,7.25-27-4.62C504.19,520,498.91,526,493.64,528.61Z"/><path class="cls-16" d="M484.81,532s-2.23.27-3.78.57c0,0-1.56-16.84-1.56-28.7,0,0,14.89-9,21.95-22,0,0-11.73,27.59-13.05,36.16S488.49,530.83,484.81,532Z"/><path class="cls-17" d="M483.43,532.24s6.59-.66,9.88-4c0,0,5.66-25.9,10.41-34.37,0,0,7.83-16.86,22.77-27.49,0,0,14.27-11.95,20.21-13.93,0,0-8.91-3.84-10.39-2.58s-13,16.69-26.7,21.5C509.61,471.41,487.38,492,483.43,532.24Z"/><path class="cls-16" d="M392.46,334.94c17.17,40.3,45.16,55.27,45.16,55.27-5.27-7.25-9.23-17.14-9.23-17.14s-.66,0,23.73,17.14,63,31.6,63,31.6L518,436c3.25,22.06-10.89,38.25-10.89,38.25s30.05-11.54,43.23-49.1,13.18-50.09,7.91-67.23-48.77-58-63.93-68.54-31-2.64-31-2.64c-23.57,4.23-65.44,30.09-73.74,35.87a3,3,0,0,0-1.18,3.33,26.59,26.59,0,0,0,1.11,3l2.27,4.55C392,333.94,392.25,334.44,392.46,334.94Z"/><path class="cls-17" d="M390.5,326.61s27.14,40.89,88.7,61.31c0,0,29.27,9.21,43.77,9.21a325,325,0,0,1,6.59,35.59s0,9.22,27-27c0,0,12.32-35.43-3.73-57.91s-48.33-51.49-58.55-58.41-25.67-5.8-37.06-1.09S391.81,320,390.5,324.63Z"/><path class="cls-14" d="M402.64,314.83s42.56,49.34,104.51,67.8c0,0-9.23-7.91-13.84-17.14,0,0,32.47,20.58,67.64,4,0,0,.9-14.21-13.6-30.39s-43.49-42.62-51.07-48.33-18.79-8.35-32-4.4S442.56,292.34,402.64,314.83Z"/><path class="cls-15" d="M390.07,322.26s34.35-25.33,75.56-37.17c0,0,15.16-4.62,26.88,3.12,0,0,10.69,4.78,41.06,36.68,0,0-23.45-19.7-30.7-17.73,0,0,37.56,36.25,23.72,46.8s-66.56-28.34-77.11-43.5c0,0-4.61-7.25-5.93-10.55,0,0-28.68,8.73-50.26,23.16a2.67,2.67,0,0,0-1,3.27c3.83,9.06,20.32,45.72,41.34,59.25l1.65,1.18,2.3,3.44s-25.35-14.37-41.35-47.06L388.75,327A3.71,3.71,0,0,1,390.07,322.26Z"/><path class="cls-14" d="M443.13,383.86s45.75,24.52,72.68,31.74c0,0,1.23,0,2.55,9.87s2,28.34-4.62,41.52c0,0,23.73-13.23,35.43-38.75,0,0-11.7,34.13-39.71,43.69,0,0,11.86-15.82,8.57-36.25l-2.64-13.84S465.77,403.88,443.13,383.86Z"/><path class="cls-25" d="M393.46,416.57c.66,0,6.59,3.29,11.21,1.32s16.47-5.93,17.79-5.27,9.23,6.59,14.5,12.52c0,0-13.18-5.93-23.73-.66,0,0-5.93,2-10.54-.66A53,53,0,0,1,393.46,416.57Z"/><path class="cls-25" d="M518,416.57c-.66,0-6.59,3.29-11.21,1.32S490.35,412,489,412.62s-9.23,6.59-14.5,12.52c0,0,13.18-5.93,23.72-.66,0,0,5.94,2,10.55-.66A53,53,0,0,0,518,416.57Z"/><path class="cls-26" d="M406.64,414.59s7.25-3.29,10.55-3.95,5.93-2,7.91-.66,4.61,2.64,5.27,3.29l4.61,4.62a28.27,28.27,0,0,0-6.57-7.41c-.36-.27-.7-.56-1-.85a6.46,6.46,0,0,0-4.92-1.63C415.21,408.66,406.64,414.59,406.64,414.59Z"/><path class="cls-26" d="M504.92,413s-7.45-2.81-10.78-3.25-6.05-1.59-7.93-.14-4.43,2.93-5,3.63l-4.3,4.9a28.21,28.21,0,0,1,6.08-7.82c.33-.29.66-.6,1-.92a6.48,6.48,0,0,1,4.8-1.94C496,407.64,504.92,413,504.92,413Z"/><path class="cls-20" d="M466.62,450.84c0,7.83-7.25,9.89-17.14,7.25-4.74-1.27-5.27-7.25-4.61-13.18.62-5.57,4.31-17.14,9.23-17.14S466.62,443,466.62,450.84Z"/><path class="cls-27" d="M447.18,421.51s5.06,16.48,2.17,32.3C449.35,453.81,462.38,440,447.18,421.51Z"/><path class="cls-20" d="M426.42,448.53c0,8.56-4.7,15.49-12.53,15.49s-13.65-7.21-15.81-15.49c-2-7.58-4.62-19.44,14.17-15.48C419.9,434.66,426.42,440,426.42,448.53Z"/><path class="cls-20" d="M489,449.52c2.25,9.1,12.89,16.37,20.43,14.5s8-11,7.93-20.28c-.09-8.53-.11-21.35-17.16-12.67C493.28,434.61,486.78,440.42,489,449.52Z"/><path class="cls-28" d="M401.86,465.4s28.18,44.43,53.88,43.77c23.57-.61,48.79-32.78,54.35-42.7.74-1.31,1.51-2.59,2.37-3.82a38.33,38.33,0,0,0,5.9-14.77s0,27-42.39,58.5c0,0-12.32,8.72-21.87,6.79-8.5-1.72-21.94-5.33-37.5-25.43C416.6,487.74,406,475,401.86,465.4Z"/><path class="cls-23" d="M433.1,504.15,433,520.7s15.16,21.75,29.65,11.21,16.48-17.14,16.48-17.14V502.91s-18.45,15.16-38.22,4.61l-8.13-4.61Z"/><path class="cls-29" d="M431.69,501.59l2.55,3.05s.08,43.08-6.51,49.67S375.67,586,375.67,586s39.4,33.77,63.86,42.59c0,0-56.61-28.75-73.09-43.25,0,0,51.83-23.12,56.95-30.44.38-.55.74-1.11,1.11-1.67C426.87,549.67,434.44,536.22,431.69,501.59Z"/><path class="cls-29" d="M480.39,502.91l-2.56,3s-.08,43.08,6.51,49.67,52.07,31.64,52.07,31.64S497,621,472.55,629.86c0,0,58.33-31.06,74.4-42.59,0,0-51.16-22.67-56.28-30-.38-.55-4-3.54-4.41-4.1C483.89,549.67,480.13,537.51,480.39,502.91Z"/><path class="cls-30" d="M364.79,585s-34.93,13.84-46.13,28.34S279,733,279,733H644.67s-43.93-113.11-55.79-124.31S550,585,550,585s-66.24,47.78-95.89,46.47c0,0-8.29,1.63-31.83-10.72S364.79,585,364.79,585Z"/><path class="cls-31" d="M343,597.48S282,668,363,733H549s82-49,17.47-135.52l-17.14-9.22s-62.28,43.82-91.94,45.14-93.59-44.81-93.59-44.81Z"/><path class="cls-32" d="M275.83,733S307,618,320.93,610.69c11.89-6.24,24.42-18.15,44.19-26.06,0,0,63.28,44.32,78.43,45.23A59.51,59.51,0,0,0,480.77,625s52.41-24.54,69.55-40.36c0,0,36.13,17.92,41.79,27.74S645,733,645,733s-46.57-114.1-64.36-125.3a281.56,281.56,0,0,0-31-17.14S482.44,638,454.1,636.7s-92.27-46.14-92.27-46.14-35.59,15.82-42.18,27S278.47,733,278.47,733Z"/><path class="cls-33" d="M438.63,483.66s17.17-6.51,38.61.4C477.24,484.06,458.23,466.33,438.63,483.66Z"/><path class="cls-34" d="M439.54,482.88s15.82-6.31,36.51.81C476.05,483.69,461.32,492.76,439.54,482.88Z"/></g><path class="cls-35" d="M338.6,281.42a1.42,1.42,0,0,0-1.35,0,2.78,2.78,0,0,1-1.11.17,3.16,3.16,0,0,1-2.15-.81,30.68,30.68,0,0,1-2.41-3.19,23.25,23.25,0,0,0,2-6.53,30.15,30.15,0,0,1,3.78-1.57,2.1,2.1,0,0,1,1.44.19,1.67,1.67,0,0,1,.77.76,1.19,1.19,0,0,0,1,.71c.74,0,1.47-1.16,1.45-2.5s-.79-2.36-1.54-2.35a1.06,1.06,0,0,0-.83.55,2,2,0,0,1-.6.56,2.3,2.3,0,0,1-1.64.38,26.79,26.79,0,0,1-3.55-1.25,23.61,23.61,0,0,0-1.68-7.83,22.41,22.41,0,0,1,2-2.5,3,3,0,0,1,1.84-.74,2.41,2.41,0,0,1,1.42.39,1.62,1.62,0,0,0,1.63.19c.87-.51,1-2.36,0-3.93s-2.53-2.28-3.4-1.76a1.42,1.42,0,0,0-.62,1.2,2.69,2.69,0,0,1-.34,1.07,3.21,3.21,0,0,1-1.69,1.56,22.58,22.58,0,0,1-3,.6,23.43,23.43,0,0,0-5.65-6.08,19.51,19.51,0,0,1,.56-2.78,2.22,2.22,0,0,1,.94-1.11,1.86,1.86,0,0,1,1.06-.23,1.16,1.16,0,0,0,1.12-.42c.39-.63-.16-1.87-1.3-2.58s-2.41-.62-2.81,0a1.07,1.07,0,0,0,0,1,2,2,0,0,1,.14.8,2.36,2.36,0,0,1-.57,1.59,20.47,20.47,0,0,1-2.23,1.76,23.32,23.32,0,0,0-8.24-2.58,13.28,13.28,0,0,1-.58-1.8,3,3,0,0,1,.31-1.95,2.45,2.45,0,0,1,1.07-1,1.58,1.58,0,0,0,1-1.29c0-1-1.51-2.06-3.34-2.08s-3.25,1-3.26,2a1.43,1.43,0,0,0,.71,1.15,2.7,2.7,0,0,1,.74.84,3.17,3.17,0,0,1,.46,2.25,13.11,13.11,0,0,1-.57,1.73,23.76,23.76,0,0,0-9.31,2.21,13.15,13.15,0,0,1-1.54-1.35,2.2,2.2,0,0,1-.5-1.36,1.79,1.79,0,0,1,.31-1,1.15,1.15,0,0,0,.17-1.18c-.35-.65-1.71-.77-2.88-.12s-1.72,1.8-1.36,2.46a1.08,1.08,0,0,0,.87.47,2,2,0,0,1,.78.28,2.33,2.33,0,0,1,1.11,1.26,16,16,0,0,1,.36,2.06,23.25,23.25,0,0,0-6.73,6.54,17.66,17.66,0,0,1-2.25-.5,3.07,3.07,0,0,1-1.51-1.28,2.43,2.43,0,0,1-.32-1.45,1.58,1.58,0,0,0-.59-1.52c-.86-.54-2.54.23-3.5,1.78s-.84,3.3,0,3.83a1.43,1.43,0,0,0,1.35,0,2.61,2.61,0,0,1,1.1-.19,3.17,3.17,0,0,1,2.17.76,18,18,0,0,1,1.6,1.94,23.49,23.49,0,0,0-2.1,8,21.84,21.84,0,0,1-2.84,1.11,2.16,2.16,0,0,1-1.44-.2,1.77,1.77,0,0,1-.76-.77,1.17,1.17,0,0,0-1-.71c-.75,0-1.49,1.14-1.47,2.48s.77,2.37,1.51,2.36a1.07,1.07,0,0,0,.84-.54,2,2,0,0,1,.6-.55,2.34,2.34,0,0,1,1.65-.38,22.54,22.54,0,0,1,2.87,1,23.69,23.69,0,0,0,2.17,8.13,15.63,15.63,0,0,1-1.38,1.64,3,3,0,0,1-1.83.76,2.4,2.4,0,0,1-1.42-.38,1.59,1.59,0,0,0-1.63-.17c-.87.52-1,2.37,0,3.93s2.56,2.25,3.42,1.73a1.43,1.43,0,0,0,.61-1.22,2.85,2.85,0,0,1,.33-1.06,3.16,3.16,0,0,1,1.67-1.58,16.55,16.55,0,0,1,2.07-.47,23.23,23.23,0,0,0,5.87,6,27.57,27.57,0,0,1-.35,3.7,2.14,2.14,0,0,1-.84,1.18,1.71,1.71,0,0,1-1,.33,1.17,1.17,0,0,0-1.08.52c-.34.67.33,1.85,1.53,2.45s2.46.4,2.79-.26a1,1,0,0,0-.09-1,2,2,0,0,1-.21-.79,2.31,2.31,0,0,1,.42-1.64,25.39,25.39,0,0,1,2.54-2.36,23.48,23.48,0,0,0,7.84,2.09,21.78,21.78,0,0,1,.72,2.89,3,3,0,0,1-.49,1.92,2.38,2.38,0,0,1-1.16.91,1.62,1.62,0,0,0-1.12,1.2c-.1,1,1.33,2.19,3.14,2.37s3.33-.69,3.44-1.69a1.46,1.46,0,0,0-.61-1.22,2.67,2.67,0,0,1-.65-.9,3.17,3.17,0,0,1-.26-2.29,26.74,26.74,0,0,1,1.54-3.25,23.83,23.83,0,0,0,6.63-1.72,28.46,28.46,0,0,1,3.18,2.2,2.22,2.22,0,0,1,.62,1.31,1.81,1.81,0,0,1-.22,1.06,1.15,1.15,0,0,0-.07,1.19c.41.62,1.77.62,2.88-.13s1.55-2,1.14-2.57a1.09,1.09,0,0,0-.91-.4,1.86,1.86,0,0,1-.8-.2,2.32,2.32,0,0,1-1.21-1.17,26.11,26.11,0,0,1-.81-3.32,23,23,0,0,0,5.62-5.23,27.39,27.39,0,0,1,3.73.82,3,3,0,0,1,1.48,1.32,2.41,2.41,0,0,1,.29,1.45A1.59,1.59,0,0,0,335,287c.85.55,2.55-.18,3.55-1.71S339.45,282,338.6,281.42Z"/><path class="cls-36" d="M298.65,259.43c5.41-9,14.87-13.5,24.45-10.72l-.92-.59a22.58,22.58,0,1,0-23.34,38.65,21.87,21.87,0,0,0,5.38,2.36C294.28,282.46,292.4,269.79,298.65,259.43Z"/><path class="cls-37" d="M315.55,256.74c-.08,3-3.19,5.28-6.95,5.18s-6.74-2.58-6.66-5.54,3.21-5.87,7-5.77S315.63,253.78,315.55,256.74Z"/><path class="cls-37" d="M327.25,265.35c-.91,1-2.67.87-3.93-.29s-1.55-2.89-.64-3.89a3.12,3.12,0,0,1,4.57,4.18Z"/><path class="cls-37" d="M314.39,284.16a1.83,1.83,0,0,1-2.63-2.4,1.75,1.75,0,0,1,2.37.05A1.73,1.73,0,0,1,314.39,284.16Z"/><path class="cls-38" d="M315.73,267.5a1.83,1.83,0,0,1,1.25,3.33,1.74,1.74,0,0,1-2.08-1.12A1.73,1.73,0,0,1,315.73,267.5Z"/><path class="cls-37" d="M299,279.11a1.84,1.84,0,0,1-2.61-2.43,1.8,1.8,0,0,1,2.61,2.43Z"/><path class="cls-38" d="M322.74,254.77a1.83,1.83,0,0,1-3.51.59,1.8,1.8,0,0,1,3.51-.59Z"/><path class="cls-37" d="M299,260.37a1.83,1.83,0,0,1-3.51.59,1.8,1.8,0,0,1,3.51-.59Z"/><circle class="cls-37" cx="306.14" cy="271.55" r="3.52"/><circle class="cls-37" cx="294.55" cy="269.95" r="2.49"/><circle class="cls-38" cx="304.24" cy="282.76" r="2.49"/><circle class="cls-38" cx="318.67" cy="277.12" r="2.49"/><path class="cls-35" d="M228.19,661.17a1.93,1.93,0,0,0-1.83,0,3.74,3.74,0,0,1-1.48.23,4.27,4.27,0,0,1-2.9-1.1,37.94,37.94,0,0,1-3.25-4.3,31.36,31.36,0,0,0,2.71-8.79,40.83,40.83,0,0,1,5.09-2.12,2.92,2.92,0,0,1,1.94.26,2.36,2.36,0,0,1,1,1,1.6,1.6,0,0,0,1.31,1c1,0,2-1.56,2-3.36s-1.07-3.19-2.08-3.17a1.45,1.45,0,0,0-1.12.74,2.61,2.61,0,0,1-.8.75,3.16,3.16,0,0,1-2.21.52,36.65,36.65,0,0,1-4.78-1.7,31.73,31.73,0,0,0-2.27-10.54,32.3,32.3,0,0,1,2.77-3.37,4,4,0,0,1,2.47-1,3.21,3.21,0,0,1,1.92.52,2.16,2.16,0,0,0,2.19.26c1.17-.69,1.32-3.18.07-5.3s-3.41-3.07-4.58-2.37a1.91,1.91,0,0,0-.84,1.62,3.69,3.69,0,0,1-.46,1.44,4.24,4.24,0,0,1-2.27,2.1,29.35,29.35,0,0,1-4,.8,31.35,31.35,0,0,0-7.6-8.18,26.45,26.45,0,0,1,.75-3.75,2.93,2.93,0,0,1,1.27-1.48,2.35,2.35,0,0,1,1.42-.32,1.57,1.57,0,0,0,1.52-.57c.53-.85-.22-2.51-1.75-3.47s-3.26-.84-3.79,0a1.46,1.46,0,0,0,0,1.35,2.65,2.65,0,0,1,.19,1.08,3.15,3.15,0,0,1-.77,2.14,27.61,27.61,0,0,1-3,2.37A31.35,31.35,0,0,0,193.93,611a19.92,19.92,0,0,1-.79-2.42,4,4,0,0,1,.43-2.63,3.19,3.19,0,0,1,1.44-1.37,2.17,2.17,0,0,0,1.35-1.74c0-1.37-2-2.77-4.5-2.8s-4.39,1.34-4.4,2.7a1.93,1.93,0,0,0,1,1.56,3.47,3.47,0,0,1,1,1.13,4.27,4.27,0,0,1,.63,3,20,20,0,0,1-.77,2.33,31.87,31.87,0,0,0-12.55,3,19.77,19.77,0,0,1-2.07-1.82,3,3,0,0,1-.68-1.84,2.49,2.49,0,0,1,.42-1.39,1.59,1.59,0,0,0,.24-1.6c-.48-.88-2.31-1-3.88-.16s-2.32,2.43-1.84,3.31a1.45,1.45,0,0,0,1.18.65,2.44,2.44,0,0,1,1,.36,3.11,3.11,0,0,1,1.49,1.71,19.58,19.58,0,0,1,.49,2.77,31.53,31.53,0,0,0-9.07,8.81,22.78,22.78,0,0,1-3-.68,4,4,0,0,1-2-1.72,3.22,3.22,0,0,1-.44-1.94,2.13,2.13,0,0,0-.79-2.06c-1.16-.72-3.42.31-4.72,2.4s-1.12,4.44,0,5.16a1.94,1.94,0,0,0,1.83,0,3.7,3.7,0,0,1,1.48-.26,4.25,4.25,0,0,1,2.91,1,24.44,24.44,0,0,1,2.17,2.6,31.24,31.24,0,0,0-2.84,10.76,28.61,28.61,0,0,1-3.82,1.49,3,3,0,0,1-1.94-.27,2.38,2.38,0,0,1-1-1,1.59,1.59,0,0,0-1.29-1c-1,0-2,1.54-2,3.35s1.05,3.19,2.05,3.18a1.46,1.46,0,0,0,1.13-.73,2.4,2.4,0,0,1,.81-.74,3.16,3.16,0,0,1,2.21-.51,30.79,30.79,0,0,1,3.88,1.36,31.66,31.66,0,0,0,2.92,10.95,22.56,22.56,0,0,1-1.86,2.21,4,4,0,0,1-2.46,1,3.31,3.31,0,0,1-1.93-.5,2.15,2.15,0,0,0-2.19-.24c-1.17.7-1.29,3.19,0,5.3s3.44,3,4.61,2.33a2,2,0,0,0,.82-1.64,3.61,3.61,0,0,1,.44-1.43,4.27,4.27,0,0,1,2.26-2.13,20.3,20.3,0,0,1,2.78-.64,31.45,31.45,0,0,0,7.91,8,36.92,36.92,0,0,1-.48,5,2.91,2.91,0,0,1-1.13,1.59,2.42,2.42,0,0,1-1.39.44,1.58,1.58,0,0,0-1.45.71c-.45.89.45,2.48,2.06,3.29s3.31.54,3.76-.35a1.4,1.4,0,0,0-.13-1.34,2.73,2.73,0,0,1-.28-1.06,3.14,3.14,0,0,1,.57-2.2,33.64,33.64,0,0,1,3.43-3.18,31.43,31.43,0,0,0,10.55,2.81,29,29,0,0,1,1,3.9,4,4,0,0,1-.67,2.58,3.24,3.24,0,0,1-1.55,1.23,2.15,2.15,0,0,0-1.51,1.61c-.14,1.36,1.78,2.95,4.22,3.2s4.49-.93,4.63-2.28a2,2,0,0,0-.81-1.64,3.59,3.59,0,0,1-.89-1.22,4.3,4.3,0,0,1-.34-3.08,33.63,33.63,0,0,1,2.08-4.37,32,32,0,0,0,8.92-2.32,39.05,39.05,0,0,1,4.29,3,3,3,0,0,1,.83,1.77,2.34,2.34,0,0,1-.3,1.43,1.59,1.59,0,0,0-.09,1.61c.56.83,2.39.83,3.88-.18s2.1-2.63,1.54-3.46a1.45,1.45,0,0,0-1.23-.54,2.53,2.53,0,0,1-1.07-.27,3.18,3.18,0,0,1-1.64-1.57,34,34,0,0,1-1.08-4.48,31.73,31.73,0,0,0,7.57-7,35.05,35.05,0,0,1,5,1.11,4,4,0,0,1,2,1.76,3.16,3.16,0,0,1,.39,1.95,2.16,2.16,0,0,0,.75,2.08c1.14.74,3.43-.24,4.77-2.3S229.34,661.91,228.19,661.17Z"/><path class="cls-36" d="M174.37,631.55c7.28-12.06,20-18.19,32.93-14.44-.4-.27-.81-.54-1.24-.79a30.41,30.41,0,1,0-24.19,55.24C168.48,662.58,165.94,645.5,174.37,631.55Z"/><path class="cls-37" d="M197.13,627.93c-.1,4-4.29,7.11-9.35,7s-9.08-3.47-9-7.46,4.32-7.9,9.38-7.77S197.24,623.94,197.13,627.93Z"/><path class="cls-37" d="M212.89,639.52c-1.22,1.35-3.59,1.17-5.29-.38s-2.09-3.91-.87-5.25a4.21,4.21,0,0,1,6.16,5.63Z"/><path class="cls-37" d="M195.58,664.87a2.47,2.47,0,0,1-3.55-3.24,2.43,2.43,0,0,1,3.55,3.24Z"/><path class="cls-38" d="M197.37,642.42a2.46,2.46,0,0,1,1.7,4.48,2.42,2.42,0,0,1-1.7-4.48Z"/><path class="cls-37" d="M174.86,658.06a2.47,2.47,0,0,1-3.51-3.27,2.42,2.42,0,0,1,3.51,3.27Z"/><path class="cls-38" d="M206.83,625.27a2.47,2.47,0,0,1-4.74.8,2.43,2.43,0,0,1,4.74-.8Z"/><path class="cls-37" d="M174.85,632.82a2.47,2.47,0,0,1-4.74.8,2.43,2.43,0,0,1,4.74-.8Z"/><circle class="cls-37" cx="184.46" cy="647.88" r="4.75"/><circle class="cls-37" cx="168.84" cy="645.71" r="3.36"/><circle class="cls-38" cx="181.9" cy="662.98" r="3.36"/><circle class="cls-38" cx="201.34" cy="655.38" r="3.36"/><path class="cls-35" d="M682.19,249.17a1.93,1.93,0,0,0-1.83,0,3.74,3.74,0,0,1-1.48.23,4.27,4.27,0,0,1-2.9-1.1,37.94,37.94,0,0,1-3.25-4.3,31.36,31.36,0,0,0,2.71-8.79,40.83,40.83,0,0,1,5.09-2.12,2.92,2.92,0,0,1,1.94.26,2.36,2.36,0,0,1,1,1,1.6,1.6,0,0,0,1.31,1c1,0,2-1.56,2-3.36s-1.07-3.19-2.08-3.17a1.45,1.45,0,0,0-1.12.74,2.61,2.61,0,0,1-.8.75,3.16,3.16,0,0,1-2.21.52,36.65,36.65,0,0,1-4.78-1.7,31.73,31.73,0,0,0-2.27-10.54,32.3,32.3,0,0,1,2.77-3.37,4,4,0,0,1,2.47-1,3.21,3.21,0,0,1,1.92.52,2.16,2.16,0,0,0,2.19.26c1.17-.69,1.32-3.18.07-5.3s-3.41-3.07-4.58-2.37a1.91,1.91,0,0,0-.84,1.62,3.69,3.69,0,0,1-.46,1.44,4.24,4.24,0,0,1-2.27,2.1,29.35,29.35,0,0,1-4,.8,31.35,31.35,0,0,0-7.6-8.18,26.45,26.45,0,0,1,.75-3.75,2.93,2.93,0,0,1,1.27-1.48,2.35,2.35,0,0,1,1.42-.32,1.57,1.57,0,0,0,1.52-.57c.53-.85-.22-2.51-1.75-3.47s-3.26-.84-3.79,0a1.46,1.46,0,0,0,0,1.35,2.65,2.65,0,0,1,.19,1.08,3.15,3.15,0,0,1-.77,2.14,27.61,27.61,0,0,1-3,2.37A31.35,31.35,0,0,0,647.93,199a19.92,19.92,0,0,1-.79-2.42,4,4,0,0,1,.43-2.63,3.19,3.19,0,0,1,1.44-1.37,2.17,2.17,0,0,0,1.35-1.74c0-1.37-2-2.77-4.5-2.8s-4.39,1.34-4.4,2.7a1.93,1.93,0,0,0,1,1.56,3.47,3.47,0,0,1,1,1.13,4.27,4.27,0,0,1,.63,3,20,20,0,0,1-.77,2.33,31.87,31.87,0,0,0-12.55,3,19.77,19.77,0,0,1-2.07-1.82,3,3,0,0,1-.68-1.84,2.49,2.49,0,0,1,.42-1.39,1.59,1.59,0,0,0,.24-1.6c-.48-.88-2.31-1-3.88-.16s-2.32,2.43-1.84,3.31a1.45,1.45,0,0,0,1.18.65,2.44,2.44,0,0,1,1,.36,3.11,3.11,0,0,1,1.49,1.71,19.58,19.58,0,0,1,.49,2.77,31.53,31.53,0,0,0-9.07,8.81,22.78,22.78,0,0,1-3-.68,4,4,0,0,1-2-1.72,3.22,3.22,0,0,1-.44-1.94,2.13,2.13,0,0,0-.79-2.06c-1.16-.72-3.42.31-4.72,2.4s-1.12,4.44,0,5.16a1.94,1.94,0,0,0,1.83,0,3.7,3.7,0,0,1,1.48-.26,4.25,4.25,0,0,1,2.91,1,24.44,24.44,0,0,1,2.17,2.6,31.24,31.24,0,0,0-2.84,10.76,28.61,28.61,0,0,1-3.82,1.49,3,3,0,0,1-1.94-.27,2.38,2.38,0,0,1-1-1,1.59,1.59,0,0,0-1.29-1c-1,0-2,1.54-2,3.35s1.05,3.19,2.05,3.18a1.46,1.46,0,0,0,1.13-.73,2.4,2.4,0,0,1,.81-.74,3.16,3.16,0,0,1,2.21-.51,30.79,30.79,0,0,1,3.88,1.36,31.66,31.66,0,0,0,2.92,10.95,22.56,22.56,0,0,1-1.86,2.21,4,4,0,0,1-2.46,1,3.31,3.31,0,0,1-1.93-.5,2.15,2.15,0,0,0-2.19-.24c-1.17.7-1.29,3.19,0,5.3s3.44,3,4.61,2.33a2,2,0,0,0,.82-1.64,3.61,3.61,0,0,1,.44-1.43,4.27,4.27,0,0,1,2.26-2.13,20.3,20.3,0,0,1,2.78-.64,31.45,31.45,0,0,0,7.91,8,36.92,36.92,0,0,1-.48,5,2.91,2.91,0,0,1-1.13,1.59,2.42,2.42,0,0,1-1.39.44,1.58,1.58,0,0,0-1.45.71c-.45.89.45,2.48,2.06,3.29s3.31.54,3.76-.35a1.4,1.4,0,0,0-.13-1.34,2.73,2.73,0,0,1-.28-1.06,3.14,3.14,0,0,1,.57-2.2,33.64,33.64,0,0,1,3.43-3.18,31.43,31.43,0,0,0,10.55,2.81,29,29,0,0,1,1,3.9,4,4,0,0,1-.67,2.58,3.24,3.24,0,0,1-1.55,1.23,2.15,2.15,0,0,0-1.51,1.61c-.14,1.36,1.78,2.95,4.22,3.2s4.49-.93,4.63-2.28a2,2,0,0,0-.81-1.64,3.59,3.59,0,0,1-.89-1.22,4.3,4.3,0,0,1-.34-3.08,33.63,33.63,0,0,1,2.08-4.37,32,32,0,0,0,8.92-2.32,39.05,39.05,0,0,1,4.29,2.95,3,3,0,0,1,.83,1.77,2.34,2.34,0,0,1-.3,1.43,1.59,1.59,0,0,0-.09,1.61c.56.83,2.39.83,3.88-.18s2.1-2.63,1.54-3.46a1.45,1.45,0,0,0-1.23-.54,2.53,2.53,0,0,1-1.07-.27,3.18,3.18,0,0,1-1.64-1.57,34,34,0,0,1-1.08-4.48,31.73,31.73,0,0,0,7.57-7,35.05,35.05,0,0,1,5,1.11,4,4,0,0,1,2,1.76,3.16,3.16,0,0,1,.39,2,2.16,2.16,0,0,0,.75,2.08c1.14.74,3.43-.24,4.77-2.3S683.34,249.91,682.19,249.17Z"/><path class="cls-36" d="M628.37,219.55c7.28-12.06,20-18.19,32.93-14.44-.4-.27-.81-.54-1.24-.79a30.41,30.41,0,1,0-24.19,55.24C622.48,250.58,619.94,233.5,628.37,219.55Z"/><path class="cls-37" d="M651.13,215.93c-.1,4-4.29,7.11-9.35,7s-9.08-3.47-9-7.46,4.32-7.9,9.38-7.77S651.24,211.94,651.13,215.93Z"/><path class="cls-37" d="M666.89,227.52c-1.22,1.35-3.59,1.17-5.29-.38s-2.09-3.91-.87-5.25a4.21,4.21,0,0,1,6.16,5.63Z"/><path class="cls-37" d="M649.58,252.87a2.47,2.47,0,0,1-3.55-3.24,2.43,2.43,0,0,1,3.55,3.24Z"/><path class="cls-38" d="M651.37,230.42a2.46,2.46,0,0,1,1.7,4.48,2.42,2.42,0,0,1-1.7-4.48Z"/><path class="cls-37" d="M628.86,246.06a2.47,2.47,0,0,1-3.51-3.27,2.42,2.42,0,0,1,3.51,3.27Z"/><path class="cls-38" d="M660.83,213.27a2.47,2.47,0,0,1-4.74.8,2.43,2.43,0,0,1,4.74-.8Z"/><path class="cls-37" d="M628.85,220.82a2.47,2.47,0,0,1-4.74.8,2.43,2.43,0,0,1,4.74-.8Z"/><circle class="cls-37" cx="638.46" cy="235.88" r="4.75"/><circle class="cls-37" cx="622.84" cy="233.71" r="3.36"/><circle class="cls-38" cx="635.9" cy="250.98" r="3.36"/><circle class="cls-38" cx="655.34" cy="243.38" r="3.36"/><path class="cls-35" d="M202.14,332.33a3,3,0,0,0-5.08-.56l.07-.2c-6-3.2-8-5.65-8.51-7.18a23.09,23.09,0,0,0,1-2.44c.41-.37,1.6-.84,5,.33l0-.13a2,2,0,0,0,.14,1,2,2,0,1,0,.13-1.74c-.43-.1-3.35-.85-4.52-2.14a24.15,24.15,0,0,0,.5-6.87c.2-.87,1.51-3.17,9.81-3.74v-.06a4,4,0,1,0,0-3.5,3.87,3.87,0,0,0-.38,1.61c-1.66.25-8,1.06-10.74-.88a24.25,24.25,0,0,0-7.76-10.85c-.34-.92-.34-3,2.46-7.4l-.19-.14a3.06,3.06,0,0,0,1.54.14A3.12,3.12,0,1,0,182,285a3.2,3.2,0,0,0,.91,1.73c-.3.59-2.28,4.38-4.53,6a24.25,24.25,0,0,0-13-3,12.83,12.83,0,0,1-.22-3.56l-.15,0a2.13,2.13,0,1,0-.89,0,16.27,16.27,0,0,1-.27,3.74,24.65,24.65,0,0,0-6.79,1.77c-.8-.56-2.23-2.23-3.75-7.2a3.91,3.91,0,0,0,.59-.74,3,3,0,1,0-4.06,1,3.4,3.4,0,0,0,2,.47c.45,1.14,2.24,6,1.42,8.53a24.25,24.25,0,0,0-7.23,7.31c-.68.17-2.55.19-6.25-2.56a2.14,2.14,0,0,0,0-.94,2.31,2.31,0,1,0-1.76,2.77,2.39,2.39,0,0,0,1.22-.71c1,.55,4.83,2.79,5,4.83a24.35,24.35,0,0,0,.14,19.74c-.49,1-2.38,3.79-8.6,5.14l0,.19a2.66,2.66,0,0,0-.93-1,2.75,2.75,0,1,0,.84,3.8,2.72,2.72,0,0,0,.42-1.67c.78-.26,8-2.7,10.86-2a24.32,24.32,0,0,0,7,6.34,23.69,23.69,0,0,0,5,2.3c.83.73,2.07,2.59.92,6.85a2.32,2.32,0,1,0,2.42.74,2.25,2.25,0,0,0-1.16-.75c.12-1.09.7-5.22,2.81-5.76a24.63,24.63,0,0,0,8.26-.53c1.23.84,2.68,3,3.81,8l.2,0a2.8,2.8,0,0,0-1.11.8,2.76,2.76,0,1,0,2.27-1c-.23-.64-1.89-5.5-1.32-9.06a24.19,24.19,0,0,0,4.06-2.2,31.36,31.36,0,0,1,2.36,2.93l.18-.09a2.75,2.75,0,1,0,4.57,2.76,2.74,2.74,0,0,0-3.58-3.38,29.74,29.74,0,0,1-2.38-3,24.23,24.23,0,0,0,4.85-4.9c3.67-.66,9.68,3.85,10.39,4.4a3,3,0,1,0,5.61-.59Z"/><path class="cls-36" d="M154.38,305.74c5.61-9.28,15.42-14,25.36-11.12-.31-.21-.63-.41-1-.61a23.42,23.42,0,1,0-18.63,42.55C149.84,329.64,147.89,316.49,154.38,305.74Z"/><path class="cls-37" d="M174.58,304.32c-.08,3.07-3.3,5.47-7.2,5.37s-7-2.68-6.91-5.75,3.32-6.09,7.22-6S174.67,301.25,174.58,304.32Z"/><path class="cls-37" d="M186.72,313.25c-.94,1-2.77.9-4.08-.3s-1.61-3-.66-4a3.24,3.24,0,0,1,4.74,4.34Z"/><path class="cls-37" d="M173.39,332.77a1.9,1.9,0,0,1-2.73-2.5,1.87,1.87,0,0,1,2.73,2.5Z"/><path class="cls-38" d="M174.77,315.48a1.9,1.9,0,0,1,1.3,3.45,1.86,1.86,0,0,1-1.3-3.45Z"/><path class="cls-37" d="M157.43,327.52a1.9,1.9,0,0,1-2.7-2.52,1.86,1.86,0,0,1,2.7,2.52Z"/><path class="cls-38" d="M182.05,302.27a1.9,1.9,0,0,1-3.64.62,1.86,1.86,0,0,1,3.64-.62Z"/><path class="cls-37" d="M157.42,308.08a1.9,1.9,0,0,1-3.64.62,1.86,1.86,0,0,1,3.64-.62Z"/><circle class="cls-37" cx="164.82" cy="319.68" r="3.65"/><circle class="cls-37" cx="152.8" cy="318.02" r="2.58"/><circle class="cls-38" cx="162.85" cy="331.32" r="2.58"/><circle class="cls-38" cx="177.83" cy="325.46" r="2.58"/><path class="cls-35" d="M227.76,487a1.93,1.93,0,0,0-2.54-1,2,2,0,0,0-.74.6l.05-.13c-3.89-2.07-5.14-3.65-5.49-4.63.24-.52.45-1,.64-1.58.26-.24,1-.54,3.21.22l0-.09a1.36,1.36,0,0,0,.09.62,1.26,1.26,0,1,0,.68-1.64,1.24,1.24,0,0,0-.59.51,7,7,0,0,1-2.92-1.38,15.78,15.78,0,0,0,.32-4.43c.13-.56,1-2,6.33-2.41v0a2.53,2.53,0,0,0,1.2,1.17,2.57,2.57,0,1,0-1.24-3.43,2.76,2.76,0,0,0-.24,1c-1.07.16-5.16.69-6.93-.57a15.64,15.64,0,0,0-5-7c-.22-.59-.22-1.93,1.58-4.77l-.11-.08a2,2,0,0,0,1,.08,2,2,0,1,0-1.73-.54,12.2,12.2,0,0,1-2.92,3.85,15.73,15.73,0,0,0-8.36-1.95,8.45,8.45,0,0,1-.14-2.3h-.1a1.2,1.2,0,0,0,.61-.27,1.34,1.34,0,1,0-1.89-.2,1.36,1.36,0,0,0,.71.45,10.53,10.53,0,0,1-.17,2.41,15.81,15.81,0,0,0-4.38,1.14c-.52-.36-1.44-1.44-2.42-4.64a2.44,2.44,0,0,0,.38-.48,1.9,1.9,0,1,0-2.62.63,2.2,2.2,0,0,0,1.26.31c.3.73,1.45,3.84.92,5.5a15.55,15.55,0,0,0-4.66,4.72c-.44.11-1.65.12-4-1.66a1.51,1.51,0,0,0,0-.6,1.49,1.49,0,1,0-2.92.64,1.49,1.49,0,0,0,2.56.69c.65.35,3.12,1.79,3.23,3.11a15.75,15.75,0,0,0,.09,12.73c-.31.65-1.53,2.44-5.54,3.32l0,.12a1.83,1.83,0,0,0-.6-.64,1.78,1.78,0,1,0,.54,2.45,1.74,1.74,0,0,0,.27-1.07c.5-.18,5.17-1.75,7-1.28a15.7,15.7,0,0,0,4.51,4.09,15.07,15.07,0,0,0,3.22,1.48c.54.47,1.33,1.67.59,4.42a1.36,1.36,0,0,0-.54.29,1.49,1.49,0,1,0,2.11.19,1.51,1.51,0,0,0-.75-.49c.07-.7.45-3.37,1.81-3.71a15.58,15.58,0,0,0,5.32-.35c.8.54,1.73,1.92,2.46,5.17h.13a1.79,1.79,0,0,0-.71.52,1.78,1.78,0,1,0,2.5-.23,1.72,1.72,0,0,0-1-.41,14.24,14.24,0,0,1-.85-5.85,16.54,16.54,0,0,0,2.62-1.41,19.68,19.68,0,0,1,1.52,1.89l.11-.06a1.77,1.77,0,1,0,1.76-.44,1.75,1.75,0,0,0-1.11,0,17.94,17.94,0,0,1-1.54-1.95,15.89,15.89,0,0,0,3.13-3.16c2.36-.43,6.24,2.49,6.7,2.84a1.93,1.93,0,0,0,.13,1.2,1.92,1.92,0,0,0,3.49-1.58Z"/><path class="cls-36" d="M197,469.81c3.62-6,10-9,16.36-7.17l-.61-.4a15.11,15.11,0,1,0-15.62,25.87,14.89,14.89,0,0,0,3.6,1.58C194,485.22,192.77,476.74,197,469.81Z"/><path class="cls-37" d="M210,468.89c0,2-2.13,3.53-4.64,3.47s-4.51-1.73-4.46-3.71,2.14-3.93,4.66-3.86S210,466.91,210,468.89Z"/><path class="cls-37" d="M217.81,474.65a2.13,2.13,0,0,1-3.06-2.8,2.09,2.09,0,0,1,3.06,2.8Z"/><path class="cls-37" d="M209.21,487.24a1.23,1.23,0,0,1-1.76-1.61,1.2,1.2,0,0,1,1.76,1.61Z"/><path class="cls-38" d="M210.1,476.09a1.07,1.07,0,0,1,1.3.78,1.09,1.09,0,0,1-.46,1.45,1.2,1.2,0,0,1-.84-2.23Z"/><path class="cls-37" d="M198.92,483.86a1.23,1.23,0,0,1-1.74-1.63,1.2,1.2,0,0,1,1.74,1.63Z"/><path class="cls-38" d="M214.8,467.57a1.22,1.22,0,0,1-2.35.4,1.2,1.2,0,0,1,2.35-.4Z"/><path class="cls-37" d="M198.91,471.32a1.23,1.23,0,0,1-2.35.4,1.18,1.18,0,0,1,1-1.23A1.16,1.16,0,0,1,198.91,471.32Z"/><circle class="cls-37" cx="203.69" cy="478.8" r="2.36"/><circle class="cls-37" cx="195.93" cy="477.73" r="1.67"/><circle class="cls-38" cx="202.42" cy="486.3" r="1.67"/><circle class="cls-38" cx="212.08" cy="482.52" r="1.67"/><path class="cls-35" d="M687.15,424.4a2.16,2.16,0,0,0-2.86-1.08,2.23,2.23,0,0,0-.84.67l.06-.14c-4.39-2.34-5.81-4.12-6.2-5.23.27-.59.51-1.18.72-1.78.3-.27,1.16-.62,3.63.24l0-.1a1.32,1.32,0,0,0,.1.7,1.41,1.41,0,1,0,.09-1.27,8,8,0,0,1-3.3-1.56,17.28,17.28,0,0,0,.37-5c.15-.63,1.1-2.3,7.15-2.72v0a2.88,2.88,0,0,0,1.35,1.32,2.9,2.9,0,1,0-1.67-2.7c-1.21.18-5.83.77-7.82-.64a17.66,17.66,0,0,0-5.65-7.9c-.25-.67-.25-2.19,1.79-5.4l-.14-.09a2.34,2.34,0,0,0,1.12.1,2.27,2.27,0,1,0-2.6-1.88,2.24,2.24,0,0,0,.66,1.26,14,14,0,0,1-3.3,4.35,17.73,17.73,0,0,0-9.44-2.2,9.19,9.19,0,0,1-.16-2.59h-.11a1.52,1.52,0,1,0-1.45-.55,1.46,1.46,0,0,0,.8.52,11.84,11.84,0,0,1-.19,2.72,18.07,18.07,0,0,0-4.95,1.29c-.59-.41-1.63-1.63-2.74-5.24a2.5,2.5,0,0,0,.43-.55,2.15,2.15,0,1,0-2.95.72,2.4,2.4,0,0,0,1.43.34c.32.83,1.63,4.35,1,6.21a17.75,17.75,0,0,0-5.27,5.33c-.5.13-1.86.14-4.55-1.87a1.73,1.73,0,0,0,0-.68,1.69,1.69,0,1,0-1.28,2,1.72,1.72,0,0,0,.88-.52c.73.4,3.52,2,3.65,3.52a17.73,17.73,0,0,0,.1,14.38c-.36.73-1.73,2.76-6.26,3.74l0,.15a1.9,1.9,0,0,0-.68-.73,2,2,0,1,0,.61,2.77,2,2,0,0,0,.31-1.21c.57-.2,5.85-2,7.91-1.45a17.63,17.63,0,0,0,5.08,4.62,18.62,18.62,0,0,0,3.64,1.68c.61.53,1.51,1.88.68,5a1.77,1.77,0,0,0-.62.33,1.69,1.69,0,1,0,1.54-.33c.08-.8.5-3.81,2-4.2a17.89,17.89,0,0,0,6-.39c.9.61,2,2.17,2.77,5.84h.15a2.06,2.06,0,0,0-.81.58,2,2,0,1,0,2.83-.26,2,2,0,0,0-1.18-.46c-.16-.47-1.37-4-1-6.61a18,18,0,0,0,3-1.59,21,21,0,0,1,1.72,2.13l.13-.07a2,2,0,0,0-.51.85,2,2,0,1,0,2.5-1.34,2,2,0,0,0-1.27,0,21.16,21.16,0,0,1-1.73-2.21,17.58,17.58,0,0,0,3.53-3.57c2.67-.48,7,2.81,7.57,3.21a2.21,2.21,0,0,0,.14,1.36,2.16,2.16,0,0,0,3.94-1.79Z"/><path class="cls-36" d="M652.37,405c4.08-6.76,11.23-10.2,18.47-8.1l-.69-.44a17.06,17.06,0,1,0-17.64,29.21,16.62,16.62,0,0,0,4.07,1.78C649.06,422.44,647.64,412.86,652.37,405Z"/><path class="cls-37" d="M667.08,404c-.06,2.24-2.41,4-5.25,3.92s-5.09-2-5-4.19,2.42-4.43,5.26-4.36S667.14,401.76,667.08,404Z"/><path class="cls-37" d="M675.93,410.5a2.41,2.41,0,0,1-3.46-3.16,2.36,2.36,0,0,1,3.46,3.16Z"/><path class="cls-37" d="M666.21,424.72a1.39,1.39,0,0,1-2-1.82,1.36,1.36,0,0,1,2,1.82Z"/><path class="cls-38" d="M667.22,412.12a1.23,1.23,0,0,1,1.46.89,1.22,1.22,0,0,1-.51,1.63,1.36,1.36,0,0,1-.95-2.52Z"/><path class="cls-37" d="M654.59,420.9a1.39,1.39,0,0,1-2-1.84,1.36,1.36,0,0,1,2,1.84Z"/><path class="cls-38" d="M672.52,402.51a1.38,1.38,0,0,1-2.65.44,1.35,1.35,0,0,1,2.65-.44Z"/><path class="cls-37" d="M654.58,406.74a1.38,1.38,0,0,1-2.65.45,1.36,1.36,0,0,1,2.65-.45Z"/><circle class="cls-37" cx="659.97" cy="415.19" r="2.66"/><circle class="cls-37" cx="651.21" cy="413.97" r="1.88"/><circle class="cls-38" cx="658.54" cy="423.66" r="1.88"/><circle class="cls-38" cx="669.45" cy="419.39" r="1.88"/><path class="cls-35" d="M762.09,572.83a4.32,4.32,0,0,0-5.72-2.14A4.25,4.25,0,0,0,754.7,572l.11-.3c-8.77-4.66-11.6-8.22-12.39-10.45a33.89,33.89,0,0,0,1.45-3.55c.59-.53,2.32-1.22,7.24.48l.08-.18a2.77,2.77,0,0,0,.2,1.38,2.82,2.82,0,1,0,1.53-3.69,2.77,2.77,0,0,0-1.34,1.16c-.63-.16-4.88-1.24-6.58-3.12a35.52,35.52,0,0,0,.73-10c.29-1.26,2.19-4.6,14.27-5.43v-.09a5.81,5.81,0,1,0-.07-5.09,5.61,5.61,0,0,0-.55,2.34c-2.43.37-11.65,1.54-15.64-1.28a35.25,35.25,0,0,0-11.27-15.79c-.5-1.33-.5-4.35,3.56-10.77l-.26-.19a4.53,4.53,0,1,0-3-3.54,4.45,4.45,0,0,0,1.32,2.51c-.44.86-3.31,6.37-6.6,8.69a35.32,35.32,0,0,0-18.85-4.39,19.27,19.27,0,0,1-.32-5.19l-.22,0a3,3,0,1,0-2.89-1.08,3.09,3.09,0,0,0,1.6,1,23.3,23.3,0,0,1-.39,5.44,35.29,35.29,0,0,0-9.88,2.57c-1.17-.82-3.25-3.25-5.46-10.47a5.22,5.22,0,0,0,.85-1.09,4.29,4.29,0,1,0-5.89,1.43,4.86,4.86,0,0,0,2.85.69c.65,1.66,3.26,8.67,2.06,12.4a35.4,35.4,0,0,0-10.52,10.65c-1,.24-3.71.27-9.09-3.74a3.47,3.47,0,0,0,0-1.36,3.37,3.37,0,1,0-2.57,4,3.29,3.29,0,0,0,1.77-1c1.46.8,7,4,7.29,7a35.45,35.45,0,0,0,.2,28.72c-.71,1.46-3.45,5.51-12.5,7.48l.06.28a4,4,0,1,0-.14,4.09,4,4,0,0,0,.62-2.43c1.13-.39,11.67-3.94,15.79-2.88a35.77,35.77,0,0,0,17.43,12.57c1.22,1.06,3,3.76,1.34,10a3.29,3.29,0,0,0-1.22.65,3.37,3.37,0,1,0,3.06-.66c.17-1.59,1-7.6,4.09-8.39a35.61,35.61,0,0,0,12-.77c1.79,1.22,3.89,4.34,5.54,11.66l.29,0a4,4,0,1,0,4.56,6.29,4,4,0,0,0-.52-5.64,3.94,3.94,0,0,0-2.35-.92c-.33-.94-2.74-8-1.92-13.19a35.48,35.48,0,0,0,5.91-3.19,44.89,44.89,0,0,1,3.44,4.26l.25-.14a4.08,4.08,0,0,0-1,1.7,4,4,0,1,0,5-2.68,3.94,3.94,0,0,0-2.52.08,42.44,42.44,0,0,1-3.47-4.41,35.36,35.36,0,0,0,7.06-7.13c5.33-1,14.08,5.61,15.12,6.41a4.32,4.32,0,1,0,8.15-.87Z"/><path class="cls-36" d="M692.61,534.16c8.16-13.51,22.44-20.39,36.9-16.18-.45-.31-.91-.61-1.39-.89A34.08,34.08,0,1,0,701,579C686,568.92,683.17,549.79,692.61,534.16Z"/><path class="cls-37" d="M722,532.08c-.12,4.47-4.82,8-10.49,7.82s-10.17-3.9-10-8.36,4.83-8.86,10.51-8.71S722.12,527.61,722,532.08Z"/><path class="cls-37" d="M739.67,545.08c-1.38,1.5-4,1.3-5.94-.44s-2.34-4.37-1-5.87,4.31-1.61,6.21.13S741,543.58,739.67,545.08Z"/><path class="cls-37" d="M720.26,573.47a2.77,2.77,0,0,1-4-3.63,2.71,2.71,0,0,1,4,3.63Z"/><path class="cls-38" d="M722.27,548.32a2.76,2.76,0,0,1,1.9,5,2.71,2.71,0,0,1-1.9-5Z"/><path class="cls-37" d="M697.05,565.84a2.76,2.76,0,0,1-3.93-3.66,2.71,2.71,0,0,1,3.93,3.66Z"/><path class="cls-38" d="M732.87,529.11a2.76,2.76,0,0,1-5.3.89,2.71,2.71,0,0,1,5.3-.89Z"/><path class="cls-37" d="M697,537.56a2.76,2.76,0,0,1-5.3.9,2.71,2.71,0,0,1,5.3-.9Z"/><circle class="cls-37" cx="707.8" cy="554.43" r="5.32"/><circle class="cls-37" cx="690.31" cy="552.01" r="3.76"/><circle class="cls-38" cx="704.94" cy="571.36" r="3.76"/><circle class="cls-38" cx="726.72" cy="562.84" r="3.76"/><path class="cls-35" d="M472.09,827.83a4.32,4.32,0,0,0-5.72-2.14A4.25,4.25,0,0,0,464.7,827l.11-.3c-8.77-4.66-11.6-8.22-12.39-10.45a33.89,33.89,0,0,0,1.45-3.55c.59-.53,2.32-1.22,7.24.48l.08-.18a2.77,2.77,0,0,0,.2,1.38,2.82,2.82,0,1,0,1.53-3.69,2.77,2.77,0,0,0-1.34,1.16c-.63-.16-4.88-1.24-6.58-3.12a35.52,35.52,0,0,0,.73-10c.29-1.26,2.19-4.6,14.27-5.43v-.09a5.81,5.81,0,1,0-.07-5.09,5.61,5.61,0,0,0-.55,2.34c-2.43.37-11.65,1.54-15.64-1.28a35.25,35.25,0,0,0-11.27-15.79c-.5-1.33-.5-4.35,3.56-10.77l-.26-.19a4.53,4.53,0,1,0-3-3.54,4.45,4.45,0,0,0,1.32,2.51c-.44.86-3.31,6.37-6.6,8.69a35.32,35.32,0,0,0-18.85-4.39,19.27,19.27,0,0,1-.32-5.19l-.22,0a3,3,0,1,0-2.89-1.08,3.09,3.09,0,0,0,1.6,1,23.3,23.3,0,0,1-.39,5.44,35.29,35.29,0,0,0-9.88,2.57c-1.17-.82-3.25-3.25-5.46-10.47a5.22,5.22,0,0,0,.85-1.09,4.29,4.29,0,1,0-5.89,1.43,4.86,4.86,0,0,0,2.85.69c.65,1.66,3.26,8.67,2.06,12.4a35.4,35.4,0,0,0-10.52,10.65c-1,.24-3.71.27-9.09-3.74a3.47,3.47,0,0,0,0-1.36,3.37,3.37,0,1,0-2.57,4,3.29,3.29,0,0,0,1.77-1c1.46.8,7,4,7.29,7a35.45,35.45,0,0,0,.2,28.72c-.71,1.46-3.45,5.51-12.5,7.48l.06.28a4,4,0,1,0-.14,4.09,4,4,0,0,0,.62-2.43c1.13-.39,11.67-3.94,15.79-2.88a35.77,35.77,0,0,0,17.43,12.57c1.22,1.06,3,3.76,1.34,10a3.29,3.29,0,0,0-1.22.65,3.37,3.37,0,1,0,3.06-.66c.17-1.59,1-7.6,4.09-8.39a35.61,35.61,0,0,0,12-.77c1.79,1.22,3.89,4.34,5.54,11.66l.29,0a4,4,0,1,0,4.56,6.29,4,4,0,0,0-.52-5.64,3.94,3.94,0,0,0-2.35-.92c-.33-.94-2.74-8-1.92-13.19a35.48,35.48,0,0,0,5.91-3.19,44.89,44.89,0,0,1,3.44,4.26l.25-.14a4.08,4.08,0,0,0-1,1.7,4,4,0,1,0,5-2.68,3.94,3.94,0,0,0-2.52.08,42.44,42.44,0,0,1-3.47-4.41,35.36,35.36,0,0,0,7.06-7.13c5.33-1,14.08,5.61,15.12,6.41a4.32,4.32,0,1,0,8.15-.87Z"/><path class="cls-36" d="M402.61,789.16c8.16-13.51,22.44-20.39,36.9-16.18-.45-.31-.91-.61-1.39-.89A34.08,34.08,0,1,0,411,834C396,823.92,393.17,804.79,402.61,789.16Z"/><path class="cls-37" d="M432,787.08c-.12,4.47-4.82,8-10.49,7.82s-10.17-3.9-10-8.36,4.83-8.86,10.51-8.71S432.12,782.61,432,787.08Z"/><path class="cls-37" d="M449.67,800.08c-1.38,1.5-4,1.3-5.94-.44s-2.34-4.37-1-5.87,4.31-1.61,6.21.13S451,798.58,449.67,800.08Z"/><path class="cls-37" d="M430.26,828.47a2.77,2.77,0,0,1-4-3.63,2.71,2.71,0,0,1,4,3.63Z"/><path class="cls-38" d="M432.27,803.32a2.76,2.76,0,0,1,1.9,5,2.71,2.71,0,0,1-1.9-5Z"/><path class="cls-37" d="M407.05,820.84a2.76,2.76,0,0,1-3.93-3.66,2.71,2.71,0,0,1,3.93,3.66Z"/><path class="cls-38" d="M442.87,784.11a2.76,2.76,0,0,1-5.3.89,2.71,2.71,0,0,1,5.3-.89Z"/><path class="cls-37" d="M407,792.56a2.76,2.76,0,0,1-5.3.9,2.71,2.71,0,0,1,5.3-.9Z"/><circle class="cls-37" cx="417.8" cy="809.43" r="5.32"/><circle class="cls-37" cx="400.31" cy="807.01" r="3.76"/><circle class="cls-38" cx="414.94" cy="826.36" r="3.76"/><circle class="cls-38" cx="436.72" cy="817.84" r="3.76"/><path class="cls-35" d="M635,748.85a3,3,0,0,0-5-.55l.08-.2c-6-3.18-7.92-5.61-8.46-7.13a23.67,23.67,0,0,0,1-2.42c.4-.37,1.58-.84,4.94.33l0-.13a1.93,1.93,0,1,0,1.18-1.58,2,2,0,0,0-.91.79c-.43-.1-3.33-.84-4.49-2.12a24.21,24.21,0,0,0,.5-6.83c.2-.86,1.5-3.14,9.74-3.71v-.06a3.92,3.92,0,0,0,1.85,1.81,4,4,0,1,0-1.9-5.28,3.79,3.79,0,0,0-.38,1.59c-1.65.26-7.95,1.06-10.67-.87a24,24,0,0,0-7.7-10.77c-.34-.91-.34-3,2.44-7.36l-.18-.13a3,3,0,0,0,1.52.14,3.09,3.09,0,1,0-3.55-2.55,3,3,0,0,0,.9,1.71c-.3.59-2.26,4.35-4.5,5.94a24,24,0,0,0-12.87-3,13.09,13.09,0,0,1-.21-3.53l-.15,0a2,2,0,0,0,.93-.43,2.06,2.06,0,1,0-2.91-.31,2.08,2.08,0,0,0,1.09.7,15.92,15.92,0,0,1-.26,3.72,24.18,24.18,0,0,0-6.74,1.75c-.8-.56-2.22-2.22-3.74-7.14a3.32,3.32,0,0,0,.59-.75,2.93,2.93,0,1,0-4,1,3.39,3.39,0,0,0,1.95.47c.45,1.13,2.23,5.92,1.41,8.46a24.07,24.07,0,0,0-7.18,7.27c-.68.17-2.53.19-6.21-2.55a2.25,2.25,0,0,0,0-.93,2.32,2.32,0,1,0-.55,2.05c1,.54,4.8,2.76,5,4.79a24.18,24.18,0,0,0,.14,19.6c-.49,1-2.36,3.77-8.54,5.11l0,.19a2.83,2.83,0,0,0-.93-1,2.74,2.74,0,1,0,.83,3.78,2.69,2.69,0,0,0,.42-1.66c.78-.26,8-2.69,10.78-2a24.23,24.23,0,0,0,6.93,6.29,23.61,23.61,0,0,0,5,2.28c.83.73,2.05,2.57.91,6.8a2.41,2.41,0,0,0-.83.45,2.3,2.3,0,1,0,2.09-.45c.11-1.09.69-5.19,2.79-5.73a24.27,24.27,0,0,0,8.2-.52c1.22.83,2.65,3,3.78,8h.2a2.59,2.59,0,0,0-1.1.79,2.74,2.74,0,1,0,3.85-.35,2.66,2.66,0,0,0-1.6-.63c-.23-.65-1.87-5.46-1.31-9a24.49,24.49,0,0,0,4-2.17,29.65,29.65,0,0,1,2.35,2.91l.17-.1a2.81,2.81,0,0,0-.7,1.16,2.74,2.74,0,1,0,3.41-1.83,2.8,2.8,0,0,0-1.72.05,28.45,28.45,0,0,1-2.37-3,23.93,23.93,0,0,0,4.82-4.87c3.64-.65,9.61,3.83,10.32,4.37a3,3,0,1,0,5.57-.59Z"/><path class="cls-36" d="M587.57,722.45c5.57-9.21,15.32-13.91,25.19-11-.31-.21-.63-.41-1-.6a23.26,23.26,0,0,0-24,39.82,23.84,23.84,0,0,0,5.55,2.43C583.07,746.18,581.13,733.13,587.57,722.45Z"/><path class="cls-37" d="M607.63,721c-.08,3.05-3.28,5.44-7.15,5.33s-6.94-2.65-6.86-5.7,3.3-6,7.17-5.95S607.72,718,607.63,721Z"/><path class="cls-37" d="M619.69,729.91c-.94,1-2.75.89-4.05-.3s-1.6-3-.66-4a3.22,3.22,0,0,1,4.71,4.31Z"/><path class="cls-37" d="M606.44,749.29a1.89,1.89,0,0,1-2.7-2.48,1.85,1.85,0,0,1,2.7,2.48Z"/><path class="cls-38" d="M607.82,732.12a1.88,1.88,0,0,1,1.29,3.43,1.85,1.85,0,0,1-1.29-3.43Z"/><path class="cls-37" d="M590.6,744.08a1.66,1.66,0,0,1-2.32-.19,1.68,1.68,0,0,1-.36-2.31,1.8,1.8,0,0,1,2.44.08A1.78,1.78,0,0,1,590.6,744.08Z"/><path class="cls-38" d="M615.05,719a1.89,1.89,0,0,1-3.62.61,1.85,1.85,0,0,1,3.62-.61Z"/><path class="cls-37" d="M590.59,724.78a1.89,1.89,0,0,1-3.62.61,1.85,1.85,0,0,1,3.62-.61Z"/><circle class="cls-37" cx="597.94" cy="736.3" r="3.63"/><circle class="cls-37" cx="586" cy="734.64" r="2.57"/><circle class="cls-38" cx="595.99" cy="747.85" r="2.57"/><circle class="cls-38" cx="610.85" cy="742.03" r="2.57"/><path class="cls-35" d="M322,707.26a2,2,0,0,0-2.61-1,1.91,1.91,0,0,0-.76.61l.05-.13c-4-2.13-5.28-3.75-5.64-4.76a16.17,16.17,0,0,0,.66-1.62c.27-.24,1.06-.56,3.3.22l0-.08a1.4,1.4,0,0,0,.09.63,1.3,1.3,0,0,0,1.69.69,1.29,1.29,0,0,0-1-2.38,1.27,1.27,0,0,0-.61.53,7.15,7.15,0,0,1-3-1.42,16.24,16.24,0,0,0,.34-4.55c.13-.57,1-2.09,6.49-2.47v0a2.65,2.65,0,1,0,0-2.32,2.69,2.69,0,0,0-.25,1.06c-1.1.17-5.3.71-7.12-.58a16,16,0,0,0-5.13-7.19c-.23-.6-.23-2,1.62-4.9l-.12-.09a2.06,2.06,0,1,0-1.35-1.61,2,2,0,0,0,.6,1.14,12.57,12.57,0,0,1-3,4,16.09,16.09,0,0,0-8.59-2,8.5,8.5,0,0,1-.14-2.36h-.1a1.38,1.38,0,1,0-1.32-.49,1.33,1.33,0,0,0,.73.46,10.73,10.73,0,0,1-.18,2.48,16.25,16.25,0,0,0-4.49,1.17c-.54-.37-1.48-1.48-2.49-4.76a3.11,3.11,0,0,0,.39-.5,2,2,0,1,0-2.69.65,2.29,2.29,0,0,0,1.3.32c.3.75,1.48,3.94.94,5.64a16.07,16.07,0,0,0-4.79,4.85c-.45.11-1.69.12-4.14-1.7a1.44,1.44,0,0,0,0-.62,1.53,1.53,0,1,0-.36,1.36c.66.37,3.2,1.85,3.31,3.2a16.14,16.14,0,0,0,.1,13.08c-.33.66-1.57,2.51-5.7,3.4l0,.13a1.83,1.83,0,1,0-.06,1.86,1.77,1.77,0,0,0,.28-1.1c.52-.18,5.31-1.8,7.19-1.32a16.37,16.37,0,0,0,7.94,5.73c.55.48,1.37,1.71.61,4.53a1.6,1.6,0,0,0-.56.3,1.54,1.54,0,1,0,1.39-.3c.08-.72.47-3.46,1.87-3.82a16.13,16.13,0,0,0,5.46-.35c.82.55,1.78,2,2.53,5.31l.13,0a1.83,1.83,0,0,0-.49,3.11,1.83,1.83,0,1,0,1.26-3.23,14.82,14.82,0,0,1-.88-6,16,16,0,0,0,2.7-1.45,22.5,22.5,0,0,1,1.56,1.94l.12-.06a1.75,1.75,0,0,0-.47.77,1.83,1.83,0,1,0,2.27-1.22,1.81,1.81,0,0,0-1.15,0,21.76,21.76,0,0,1-1.58-2,15.75,15.75,0,0,0,3.22-3.25c2.43-.43,6.41,2.56,6.88,2.92a2.06,2.06,0,0,0,.13,1.24,2,2,0,0,0,3.59-1.63Z"/><path class="cls-36" d="M290.36,689.65c3.72-6.15,10.22-9.28,16.8-7.37-.2-.14-.41-.27-.63-.4a15.51,15.51,0,1,0-12.34,28.18C287.36,705.48,286.06,696.77,290.36,689.65Z"/><path class="cls-37" d="M303.74,688.7c-.05,2-2.19,3.63-4.77,3.56s-4.63-1.77-4.58-3.81,2.21-4,4.79-4S303.8,686.67,303.74,688.7Z"/><path class="cls-37" d="M311.79,694.62a2.19,2.19,0,0,1-3.15-2.87,2.15,2.15,0,0,1,3.15,2.87Z"/><path class="cls-37" d="M303,707.55a1.26,1.26,0,0,1-1.81-1.65,1.23,1.23,0,0,1,1.81,1.65Z"/><path class="cls-38" d="M303.87,696.09a1.13,1.13,0,0,1,1.33.81,1.11,1.11,0,0,1-.47,1.48,1.19,1.19,0,0,1-1.43-.76A1.2,1.2,0,0,1,303.87,696.09Z"/><path class="cls-37" d="M292.38,704.07a1.26,1.26,0,0,1-1.79-1.66,1.2,1.2,0,0,1,1.63.05A1.18,1.18,0,0,1,292.38,704.07Z"/><path class="cls-38" d="M308.69,687.35a1.11,1.11,0,0,1-1.05,1.15,1.1,1.1,0,0,1-1.36-.74,1.23,1.23,0,0,1,2.41-.41Z"/><path class="cls-37" d="M292.37,691.2a1.26,1.26,0,0,1-2.41.41,1.19,1.19,0,0,1,1-1.26A1.17,1.17,0,0,1,292.37,691.2Z"/><circle class="cls-37" cx="297.28" cy="698.88" r="2.42"/><circle class="cls-37" cx="289.31" cy="697.78" r="1.71"/><circle class="cls-38" cx="295.97" cy="706.59" r="1.71"/><circle class="cls-38" cx="305.89" cy="702.71" r="1.71"/><path class="cls-35" d="M470.52,177.05a3.64,3.64,0,0,0-6.24-.68l.09-.25c-7.41-3.94-9.8-7-10.47-8.83a29.56,29.56,0,0,0,1.23-3c.49-.45,2-1,6.11.41l.07-.16a2.39,2.39,0,1,0,1.46-1.95,2.31,2.31,0,0,0-1.13,1c-.53-.13-4.12-1-5.56-2.64a30,30,0,0,0,.62-8.44c.24-1.06,1.85-3.89,12.05-4.59v-.08a4.91,4.91,0,1,0-.06-4.3,4.81,4.81,0,0,0-.46,2c-2.05.31-9.84,1.3-13.21-1.08a29.84,29.84,0,0,0-9.53-13.34c-.42-1.13-.42-3.68,3-9.1l-.22-.16a3.83,3.83,0,1,0-2.51-3,3.81,3.81,0,0,0,1.12,2.12c-.37.73-2.8,5.38-5.57,7.34a29.87,29.87,0,0,0-15.93-3.71,15.87,15.87,0,0,1-.27-4.38l-.19,0a2.61,2.61,0,1,0-1.09-.05,19.57,19.57,0,0,1-.33,4.6,30.08,30.08,0,0,0-8.34,2.17c-1-.69-2.75-2.74-4.62-8.84a4.39,4.39,0,0,0,.72-.92,3.63,3.63,0,1,0-5,1.21,4.17,4.17,0,0,0,2.41.58c.55,1.4,2.75,7.32,1.74,10.48a29.91,29.91,0,0,0-8.89,9c-.83.21-3.13.23-7.68-3.16a3,3,0,0,0,0-1.15,2.85,2.85,0,1,0-2.17,3.4,2.8,2.8,0,0,0,1.49-.86c1.23.67,5.94,3.42,6.16,5.93a30,30,0,0,0,.17,24.26c-.6,1.24-2.91,4.66-10.56,6.32l.05.24a3.32,3.32,0,0,0-1.14-1.22,3.39,3.39,0,1,0,1,4.68,3.43,3.43,0,0,0,.53-2.06c.95-.33,9.86-3.33,13.34-2.43A30.19,30.19,0,0,0,417.47,183c1,.89,2.55,3.18,1.14,8.41a2.9,2.9,0,0,0-1,.55,2.85,2.85,0,1,0,4,.36,2.8,2.8,0,0,0-1.43-.92c.15-1.34.86-6.42,3.46-7.08a30.32,30.32,0,0,0,10.15-.65c1.52,1,3.29,3.66,4.68,9.85l.25,0a3.44,3.44,0,0,0-1.36,1,3.38,3.38,0,1,0,2.78-1.22c-.28-.79-2.31-6.76-1.62-11.14a30.57,30.57,0,0,0,5-2.7,39.08,39.08,0,0,1,2.9,3.6l.21-.11a3.39,3.39,0,1,0,3.36-.83,3.4,3.4,0,0,0-2.14.06,37.65,37.65,0,0,1-2.93-3.72,29.68,29.68,0,0,0,6-6c4.5-.8,11.89,4.74,12.77,5.42a3.65,3.65,0,1,0,6.89-.73Z"/><path class="cls-36" d="M411.82,144.37c6.89-11.41,19-17.22,31.18-13.67-.39-.25-.78-.51-1.18-.75a28.79,28.79,0,1,0-22.9,52.3C406.24,173.74,403.84,157.58,411.82,144.37Z"/><path class="cls-37" d="M436.65,142.62c-.1,3.77-4.06,6.73-8.85,6.6s-8.6-3.29-8.5-7.06,4.09-7.48,8.88-7.36S436.75,138.84,436.65,142.62Z"/><path class="cls-37" d="M451.57,153.6c-1.16,1.27-3.4,1.1-5-.37s-2-3.69-.82-5a4,4,0,0,1,5.83,5.33Z"/><path class="cls-37" d="M435.18,177.59a2.34,2.34,0,0,1-3.35-3.07,2.29,2.29,0,0,1,3.35,3.07Z"/><path class="cls-38" d="M436.88,156.34a2.33,2.33,0,0,1,1.6,4.24,2.29,2.29,0,0,1-1.6-4.24Z"/><path class="cls-37" d="M415.57,171.14a2.34,2.34,0,0,1-3.32-3.1,2.29,2.29,0,0,1,3.32,3.1Z"/><path class="cls-38" d="M445.83,140.11a2.34,2.34,0,0,1-4.48.75,2.29,2.29,0,0,1,4.48-.75Z"/><path class="cls-37" d="M415.56,147.25a2.34,2.34,0,0,1-4.48.75,2.29,2.29,0,0,1,4.48-.75Z"/><circle class="cls-37" cx="424.65" cy="161.5" r="4.49"/><circle class="cls-37" cx="409.88" cy="159.46" r="3.18"/><circle class="cls-38" cx="422.24" cy="175.81" r="3.18"/><circle class="cls-38" cx="440.64" cy="168.6" r="3.18"/></g></svg>