<svg xmlns="http://www.w3.org/2000/svg" viewBox="0 0 826.94 802.05"><defs><style>.cls-1{fill:#d6e9e3;}.cls-2{fill:#578ba0;}.cls-3{fill:#a4bbb1;}.cls-4{fill:#bad2c5;}.cls-5{fill:#c61e1b;}.cls-6{fill:#e1342e;}.cls-7{fill:#f23e3d;}.cls-8{fill:#ff5f5f;}.cls-9{fill:#b1cbca;}.cls-10{fill:#d7eae4;}.cls-11{fill:#9eb8af;}.cls-12{fill:#cae1db;}.cls-13{fill:#a0bbb2;}.cls-14{fill:#c3e1d9;}.cls-15{fill:#5a93a4;}.cls-16{fill:#eeacb0;}.cls-17{fill:#e193a3;}.cls-18{fill:#ffb4ae;}.cls-19{fill:#ffcab8;}.cls-20{fill:#feb5af;}.cls-21{fill:#e492a0;}.cls-22{fill:#ae1b23;}.cls-23{fill:#bc2631;}.cls-24{fill:#d53245;}.cls-25{fill:#f79594;}.cls-26{fill:#f27d7d;}.cls-27{fill:#ed6160;}.cls-28{fill:#f9b1b2;}</style></defs><title>corazón</title><g id="organos_ai" data-name="organos ai"><path class="cls-1" d="M251.26,191.41c-8.46-8.41-20.38-7.6-30-.61-7.73,5.6-16.73,15.72-25.42,33.89-22.19,46.4-35.3,116-39.33,150.28s-6.06,68.58,4,78.67c0,0,13.23-124.11,92.34-106.43,0,0-7.44-43.85,16.59-85.2C289,228.32,278.65,218.63,251.26,191.41Z"/><path class="cls-2" d="M243.14,195.05a12.07,12.07,0,0,0-7.47-2.94,7.42,7.42,0,0,0-6.6,3.33c-2.22,3.33-.16,7.88,2.13,11.3a34.44,34.44,0,0,0,5.73,6.45l13.66,12.14a23.7,23.7,0,0,0,9.39,5.26c2.73.74,5.65.91,7.42-.86,4-4,3.12-9-2-14.12C259.33,209.56,248.61,199.59,243.14,195.05Z"/><path class="cls-3" d="M273.45,235.79a11.51,11.51,0,0,1-1.05.89c-2.49,1.91-9.18,5.88-17.1,1.12-10.09-6.05-16.14,32.28-30.26,34.29s-40.34,72.62-32.28,88.76c0,0,23.76-23.4,56.26-18.76,0,0,4.26-66,20.4-84.12C269.42,258,279.5,237.8,273.45,235.79Z"/><path class="cls-4" d="M229.07,191.41s-8.07,6.05-2,14.12,26.22,28.24,34.29,28.24,10.08-2,10.08,2-2,16.13-10.08,14.12-10.09-4-14.12,4,0,18.15-6,26.22-24.21,30.26-34.3,42.36-8.51,28.77-8.51,28.77a85.69,85.69,0,0,0-20.59,22.93s-3.17-21.44,6.92-59.77S198.82,278.15,217,264c15.56-12.11,22.23-13.84,20-23a20.19,20.19,0,0,0-4.32-8.21c-3.25-3.85-8.88-10.43-11.66-13.2C215.86,214.51,208.9,203.51,229.07,191.41Z"/><path class="cls-5" d="M267.36,484.94c-33.66,32.64-41.31,83.41-21.56,125.94,10.54,22.7,27.84,47,55.89,60.61,62.53,30.25,68.58,22.18,104.89,48.41S459,778.39,491.3,786.46s78.67,4,108.92-20.17,50.43-68.58,54.47-104.89,6-98.84,10.08-129.1-2-119-14.12-129.09c0,0-76.22,2.72-131.39-27.61-24.51-13.48-54-14.3-78.73-1.26-44.52,23.47-112.37,61.9-165.06,103.5A105.88,105.88,0,0,0,267.36,484.94Z"/><path class="cls-6" d="M275.47,508.1a75,75,0,0,1,26.22,36.31c8.07,24.2,6.05,38.32,28.24,72.61s66.56,50.43,104.89,72.62,115,70.6,129.1,70.6,14.12,2,30.25-2,27.91-14.94,27.91-14.94,26.15-38.22,30.39-68.12,7.57-53.57,6.91-75,1.83-46,6.64-75.06-5.28-115.82-15.37-121.87c0,0-36.3-12.1-77-30.22a227.63,227.63,0,0,1-59.86-38.89C502.59,324,484.29,314.86,460,327.57c-42.36,22.18-173.62,138.1-188.17,153.26S275.47,508.1,275.47,508.1Z"/><path class="cls-7" d="M491.3,368.92s-102.87,20.17-94.81,62.53c0,0-4,18.15,26.23,42.36s36.31,32.27,44.37,78.67,4,48.41,30.26,66.56,26.22,12.1,38.33,34.29,24.2,64.55,68.58,38.33c0,0,20.17-6,22.19-60.52s12.1-74.63,0-133.13-14.12-48.41-30.26-76.65S537.69,364.88,491.3,368.92Z"/><path class="cls-8" d="M523.65,461.54a37.19,37.19,0,0,0,11.77,10c6.81,3.78,20.43,14.37,20.43,38.58,0,32.27-8.07,74.63,10.08,76.65s36.31,0,32.28-74.64-48.41-94.8-70.6-82.7C511.59,438.17,516.6,452.16,523.65,461.54Z"/><path class="cls-9" d="M314.05,278.75c-.71-19,18.66-32.39,36.07-24.8A143.29,143.29,0,0,1,372.29,266c30.26,20.17,54.46,10.09,90.77-4S565.93,209.56,568,197.46s2-38.32,4-40.34,14.12-6.05,18.16-6.05,0,4,0,16.13-4,28.24,6.05,24.21,38.64-28.34,44.38-30.26c6-2,12.1-2,20.17,8.07s18.15,26.22,10.08,36.31-165.4,86.74-175.49,141.2-8.06,66.56-34.29,66.56-64.55,4-84.72,20.17-60.51,52.45-70.6,30.26,23.42-29.41,14.74-104.47C316.5,325,314.76,298,314.05,278.75Z"/><path class="cls-10" d="M390.44,276.13s-2,24.2,20.17,24.2,76.66-12.1,149.27-76.65c0,0,20.17-16.13,18.16-38.32s.14-31.27.14-31.27-7.26,1.38-7.74,12.29,2.36,28.11-5.11,35.65c-6.05,6.11-68,49.06-114,67.77a114.18,114.18,0,0,1-49.11,8.69C397.15,278.21,392.56,277.54,390.44,276.13Z"/><path class="cls-11" d="M655.7,213.34a3.92,3.92,0,0,0-.3-1.52c-1.1-2.64-5.3-11-13.82-9.32-10.09,2-115,60.52-139.19,96.83s-38.32,110.94-76.65,115c0,0,29.26-1,34.3-1s21.31,4.11,26.29-19.13,8.55-54.69,14.83-62.16,15.69-23.47,31.15-34.63,55-44.53,121.27-80.51a4,4,0,0,0,2.12-3.53Z"/><path class="cls-12" d="M602.24,191.41s24.21-16.14,28.24-12.1,5.07,19.71,12.62,23,7.55,13.33-.52,15.35c0,0,36.31-8.07,28.24-26.22s-14.12-28.24-24.2-26.22S602.24,191.41,602.24,191.41Z"/><path class="cls-13" d="M381.63,271.42S356.15,264,362.2,296.3s9.78,55.43,5.9,59-44.22-57-30.1-73.1,20.16-24.54,22.18-23.36S378.88,270.75,381.63,271.42Z"/><path class="cls-14" d="M408.6,324.54c1.86.78,16.13,10.09,24.2,10.09s18.16-2,18.16,8.06S453,377,440.87,381s-44.38,36.31-54.46,30.26-6.05-18.16-4-42.36S384.39,314.45,408.6,324.54Z"/><path class="cls-15" d="M643.16,173.83c1.18,8.1,4.74,21.76,15.54,30.22a5.54,5.54,0,0,0,6.47.49c2.78-1.88,4.65-7.08-2.41-21.2-3.91-7.81-7.4-12.27-10.33-14.71A5.71,5.71,0,0,0,643.16,173.83Z"/><path class="cls-16" d="M461.79,21.41c-3.35-2-9.69-4.55-14.17.91a4.9,4.9,0,0,0-.66,5c2.62,6.1,8.87,22.42,4,28.92s-29,12.91-46.8,39a67.72,67.72,0,0,0-11.33,37.57c-.14,16-2.38,39.76-14.49,38.42-18.15-2-22.19-18.16-22.19-44.38s2-30.26-10.08-32.27-18.16-2-18.16,24.2,6,52.45-16.13,80.69S279.5,225.7,265.38,258s-22.19,82.71-22.19,82.71S241.58,373,280.3,372.55c21.36-.25,39.21,16.4,39.54,37.77v1c0,32.27,14.12,24.2,14.12,24.2s50.43-32.27,36.31-76.65c0,0-12.1-20.17-24.2-36.31s-8.07-48.41,30.25-68.58,78.67,0,86.74,8.07,20.17,28.24,36.31,26.22,56.48-14.12,56.48-40.34-28.24-56.48-74.64-74.63a161.63,161.63,0,0,0-38.32-8.07s-10.09-26.23,6.05-46.4,40.34-40.34,60.51-40.34,36.31,14.12,42.36,16.14,12.11-2,20.17-14.12-12.1-26.23-64.54-36.31c0,0-6.05-2-6.05-8.07s4-22.19-6.06-24.21-4,38.33-18.15,36.31c-13.08-1.86-12.31-12.38-12.93-22.74A5.06,5.06,0,0,0,461.79,21.41Z"/><path class="cls-17" d="M329,157.08s6,19.2-.09,37.35-25.21,33.29-31.26,43.37-18.16,44.38-8.07,68.59S329.93,336.64,338,354.8c6.48,14.58,14.26,47.36.36,62.85a8.34,8.34,0,0,1-14.53-4.79c-1-11.83-5.26-29.54-20.12-41.93-24.21-20.17-34.29,0-50.43-18.15s7.8-83.94,7.8-83.94,13.43-32.46,33.07-49.9S328.08,183.27,329,157.08Z"/><path class="cls-18" d="M328.73,117.57a3.17,3.17,0,0,1,6.21-1,22.84,22.84,0,0,1,1,6.29c0,8.07,2,56.48,26.22,58.49S457,161.15,503.4,197.46s40.35,50.43,26.23,62.53-30.26,10.09-40.35,0-56.91-42.25-96.82-32.27c-40.34,10.08-68.58,30.25-62.53,60.51a88.27,88.27,0,0,0,18.4,39.4,53.37,53.37,0,0,1,11.61,23.09c2.88,13.57,2.94,33.2-11.86,51.87a2,2,0,0,1-3.61-1.29c.5-13.5-.88-46.38-24.63-60.62-30.25-18.16-40.34-28.24-36.3-76.65,4-47.79,38.66-33.35,44.37-92.79C330.72,142,329.08,126,328.73,117.57Z"/><path class="cls-19" d="M319.84,258c4-16.13,5.88-24.75,24.21-30.25,20.17-6.05,22.19-20.17,12.1-22.19s-36.31,6.05-48.41,28.24-12.1,34.29-4,40.34S316.42,271.67,319.84,258Z"/><path class="cls-20" d="M459.91,72.79c-9.57,4.94-29.8,17.71-37.61,40.47a55.48,55.48,0,0,0-2.44,10.81A129.32,129.32,0,0,0,418.68,141c0,12.1-12.1,14.12-16.13,6.05s-4-36.31,16.13-58.49c14.08-15.49,32.14-19.24,40.55-18.87A1.65,1.65,0,0,1,459.91,72.79Z"/><path class="cls-21" d="M551.44,93.27a2.22,2.22,0,0,0,2.2-3.71c-8.37-8.27-28.41-23.66-58.31-19.18-37,5.55-57,31.44-63.2,57.47a41.83,41.83,0,0,0-.51,18c.77,3.77,2.19,7.75,4.78,10.53a2.3,2.3,0,0,0,4-1.81c-.68-6.39-.57-18.4,6.32-32.63C457,100.64,489.55,78.74,506.56,78.6s26.69,5.72,36,10.86A45.21,45.21,0,0,0,551.44,93.27Z"/><path class="cls-22" d="M305.14,341.37a28.66,28.66,0,0,0-11,0c-7.73,1.39-26.76,4-40.9-.69-18.16-6.05-62.53,2-76.65,34.29s-36.31,94.8,0,151.28,60.51,70.6,60.51,60.52,2-36.31,14.12-46.4,50.43-30.25,56.48-72.61,16.14-24.21,18.16-38.33-2-28.24-4-46.39C320.05,366.7,324.77,345.46,305.14,341.37Z"/><path class="cls-23" d="M164.17,409.52c-.34.9-.7,1.78-1.06,2.67-1.91,4.62-8.67,24.55,5.45,47.5,16.14,26.22,24.2,50.43,48.41,42.36s24.21-32.28,48.41-40.35,30.26-20.17,36.31-34.29,4-48.41,10.09-62.53-4-26.22-18.16-24.2-18.49,4.35-45.55-1.86-61.64,15.76-67.55,29C175.44,379.16,166.57,403,164.17,409.52Z"/><path class="cls-24" d="M267.7,392.6a8.42,8.42,0,0,1-3.39,3.09C259,398.49,235,411.59,219,429.43c-18.16,20.17-32.28-10.09-26.23-30.26s34.82-39.32,62.54-24.2C270.09,383,269.64,389.31,267.7,392.6Z"/><path class="cls-22" d="M548.79,283.19c-13.37,9.09-38.33,28.24-48.41,54.46,0,0-5.05,9.08-5.05,25.22s24.21,24.2,46.4,32.27c19.65,7.14,66.67,25,99.37,15.82a15.17,15.17,0,0,0,11-16.3c-2.89-26-15.3-89.59-68-111.15C573.21,279,558.56,276.54,548.79,283.19Z"/><path class="cls-23" d="M575.31,287.9a14.08,14.08,0,0,0-16.48,9.77c-2.54,8.59-6.47,20-11.05,26.87-8.07,12.1-2,40.34,18.15,40.34s42.36-10.08,56.48-10.08,16.14,4,18.16,0C642.42,351.1,622.22,298.22,575.31,287.9Z"/><path class="cls-25" d="M539.71,93.5a1.36,1.36,0,0,0-1.26,0,2.59,2.59,0,0,1-1,.16,2.93,2.93,0,0,1-2-.76,26.71,26.71,0,0,1-2.24-3,21.74,21.74,0,0,0,1.87-6.07,29,29,0,0,1,3.51-1.47,2.06,2.06,0,0,1,1.34.18,1.62,1.62,0,0,1,.71.71,1.13,1.13,0,0,0,.9.66c.7,0,1.38-1.07,1.36-2.32s-.74-2.2-1.43-2.18a1,1,0,0,0-.78.51,1.78,1.78,0,0,1-.55.51,2.17,2.17,0,0,1-1.53.36,25.51,25.51,0,0,1-3.3-1.17,21.81,21.81,0,0,0-1.56-7.27A20.83,20.83,0,0,1,535.63,70a2.75,2.75,0,0,1,1.7-.68,2.18,2.18,0,0,1,1.33.36,1.47,1.47,0,0,0,1.51.17c.81-.47.91-2.19.05-3.65s-2.35-2.12-3.17-1.64a1.37,1.37,0,0,0-.57,1.12,2.46,2.46,0,0,1-.32,1,2.89,2.89,0,0,1-1.57,1.45,19.18,19.18,0,0,1-2.75.56,21.63,21.63,0,0,0-5.25-5.65,18.31,18.31,0,0,1,.52-2.59,2.06,2.06,0,0,1,.87-1,1.62,1.62,0,0,1,1-.21,1.09,1.09,0,0,0,1-.4c.37-.59-.15-1.74-1.21-2.39s-2.24-.58-2.61,0a1,1,0,0,0,0,.93,1.88,1.88,0,0,1,.13.75,2.16,2.16,0,0,1-.53,1.47,19.43,19.43,0,0,1-2.08,1.64,21.71,21.71,0,0,0-7.65-2.4,13.77,13.77,0,0,1-.55-1.67,2.78,2.78,0,0,1,.3-1.81,2.22,2.22,0,0,1,1-.95,1.48,1.48,0,0,0,.93-1.2c0-.95-1.41-1.92-3.1-1.93s-3,.92-3,1.86a1.35,1.35,0,0,0,.67,1.07A2.68,2.68,0,0,1,513,55a3,3,0,0,1,.43,2.1,14,14,0,0,1-.53,1.6,22,22,0,0,0-8.66,2.06,13.78,13.78,0,0,1-1.43-1.26,2.06,2.06,0,0,1-.46-1.26,1.61,1.61,0,0,1,.29-1,1.09,1.09,0,0,0,.16-1.1c-.34-.6-1.59-.71-2.68-.11s-1.6,1.68-1.26,2.29a1,1,0,0,0,.81.44,1.83,1.83,0,0,1,.71.25,2.14,2.14,0,0,1,1,1.18,13,13,0,0,1,.34,1.91,21.93,21.93,0,0,0-6.26,6.08,16.35,16.35,0,0,1-2.08-.47A2.76,2.76,0,0,1,492,66.55a2.21,2.21,0,0,1-.29-1.34,1.52,1.52,0,0,0-.55-1.42c-.8-.49-2.37.22-3.26,1.66s-.77,3.07,0,3.57a1.34,1.34,0,0,0,1.26,0,2.53,2.53,0,0,1,1-.18,2.9,2.9,0,0,1,2,.72,16.69,16.69,0,0,1,1.5,1.79,21.56,21.56,0,0,0-2,7.42,19.33,19.33,0,0,1-2.64,1,2,2,0,0,1-1.33-.19,1.57,1.57,0,0,1-.71-.71,1.09,1.09,0,0,0-.9-.67c-.69,0-1.38,1.06-1.37,2.31s.72,2.2,1.41,2.19a1,1,0,0,0,.78-.5,1.94,1.94,0,0,1,.56-.51,2.18,2.18,0,0,1,1.53-.35,19.93,19.93,0,0,1,2.67.94,22.09,22.09,0,0,0,2,7.55,15.58,15.58,0,0,1-1.28,1.53,2.78,2.78,0,0,1-1.7.7,2.3,2.3,0,0,1-1.33-.34,1.49,1.49,0,0,0-1.51-.17c-.81.49-.89,2.2,0,3.66s2.38,2.09,3.18,1.6a1.32,1.32,0,0,0,.57-1.13,2.53,2.53,0,0,1,.3-1,3,3,0,0,1,1.56-1.46,14.48,14.48,0,0,1,1.92-.44,21.44,21.44,0,0,0,5.46,5.54,25.77,25.77,0,0,1-.33,3.44,2.06,2.06,0,0,1-.78,1.1,1.61,1.61,0,0,1-1,.3,1.09,1.09,0,0,0-1,.49c-.31.61.31,1.71,1.42,2.27s2.29.38,2.6-.24a1,1,0,0,0-.09-.92,1.9,1.9,0,0,1-.2-.74,2.16,2.16,0,0,1,.39-1.51,24.12,24.12,0,0,1,2.37-2.2,21.63,21.63,0,0,0,7.28,1.94,20.66,20.66,0,0,1,.68,2.69,2.8,2.8,0,0,1-.46,1.78,2.22,2.22,0,0,1-1.08.85,1.51,1.51,0,0,0-1,1.11c-.09.94,1.23,2,2.92,2.21s3.1-.64,3.19-1.58a1.36,1.36,0,0,0-.56-1.13,2.33,2.33,0,0,1-.61-.84,3,3,0,0,1-.24-2.12,24.12,24.12,0,0,1,1.44-3,22,22,0,0,0,6.16-1.6,25.31,25.31,0,0,1,2.95,2,2.07,2.07,0,0,1,.58,1.22,1.61,1.61,0,0,1-.21,1,1.08,1.08,0,0,0-.06,1.12c.38.57,1.64.57,2.68-.13s1.44-1.81,1.06-2.38a1,1,0,0,0-.85-.38,1.73,1.73,0,0,1-.74-.19,2.14,2.14,0,0,1-1.13-1.08,23.41,23.41,0,0,1-.75-3.09,21.67,21.67,0,0,0,5.23-4.86,23.27,23.27,0,0,1,3.46.77,2.73,2.73,0,0,1,1.38,1.22,2.29,2.29,0,0,1,.27,1.34,1.48,1.48,0,0,0,.51,1.43c.79.52,2.37-.16,3.29-1.58S540.5,94,539.71,93.5Z"/><path class="cls-26" d="M502.57,73.06c5-8.32,13.82-12.56,22.72-10-.28-.19-.56-.37-.85-.54a21,21,0,0,0-21.7,35.93,21.49,21.49,0,0,0,5,2.19C498.5,94.47,496.75,82.69,502.57,73.06Z"/><path class="cls-27" d="M518.28,70.56c-.08,2.75-3,4.9-6.46,4.81s-6.26-2.4-6.19-5.15,3-5.45,6.47-5.36S518.35,67.8,518.28,70.56Z"/><path class="cls-27" d="M529.15,78.56c-.84.92-2.48.8-3.65-.27a2.63,2.63,0,0,1-.6-3.62,2.91,2.91,0,0,1,4.25,3.89Z"/><path class="cls-27" d="M517.2,96.05a1.7,1.7,0,0,1-2.44-2.24,1.67,1.67,0,0,1,2.44,2.24Z"/><path class="cls-28" d="M518.44,80.55a1.7,1.7,0,0,1,1.17,3.1,1.61,1.61,0,0,1-1.94-1A1.63,1.63,0,0,1,518.44,80.55Z"/><path class="cls-27" d="M502.91,91.35a1.7,1.7,0,0,1-2.42-2.26,1.67,1.67,0,0,1,2.42,2.26Z"/><path class="cls-28" d="M525,68.73a1.71,1.71,0,0,1-3.27.55,1.67,1.67,0,0,1,3.27-.55Z"/><path class="cls-27" d="M502.9,73.93a1.71,1.71,0,0,1-3.27.55,1.67,1.67,0,0,1,3.27-.55Z"/><circle class="cls-27" cx="509.53" cy="84.32" r="3.27"/><circle class="cls-27" cx="498.76" cy="82.83" r="2.32"/><circle class="cls-28" cx="507.77" cy="94.75" r="2.32"/><circle class="cls-28" cx="521.18" cy="89.5" r="2.32"/><path class="cls-25" d="M186,492.58a1.41,1.41,0,0,0-1.33,0,2.45,2.45,0,0,1-1.07.16,3.09,3.09,0,0,1-2.1-.79,27.73,27.73,0,0,1-2.36-3.12,22.77,22.77,0,0,0,2-6.37,28.78,28.78,0,0,1,3.69-1.54,2.14,2.14,0,0,1,1.41.19,1.68,1.68,0,0,1,.75.74,1.15,1.15,0,0,0,.95.69c.72,0,1.44-1.13,1.41-2.43s-.77-2.31-1.5-2.3a1.05,1.05,0,0,0-.81.54,2,2,0,0,1-.58.54,2.33,2.33,0,0,1-1.61.38,28.1,28.1,0,0,1-3.46-1.23,23.33,23.33,0,0,0-1.64-7.65,23.08,23.08,0,0,1,2-2.44,2.94,2.94,0,0,1,1.79-.72,2.29,2.29,0,0,1,1.39.38,1.58,1.58,0,0,0,1.59.19c.86-.51,1-2.31,0-3.85s-2.47-2.22-3.32-1.72a1.43,1.43,0,0,0-.61,1.18,2.4,2.4,0,0,1-.33,1,3.11,3.11,0,0,1-1.65,1.53,22,22,0,0,1-2.89.58,22.81,22.81,0,0,0-5.52-5.93,18.91,18.91,0,0,1,.55-2.72,2.15,2.15,0,0,1,.92-1.08,1.75,1.75,0,0,1,1-.22,1.16,1.16,0,0,0,1.1-.42c.38-.61-.16-1.82-1.27-2.51s-2.36-.61-2.74,0a1,1,0,0,0,0,1,1.89,1.89,0,0,1,.14.78,2.26,2.26,0,0,1-.56,1.55,18.45,18.45,0,0,1-2.18,1.72,22.81,22.81,0,0,0-8-2.52,14.26,14.26,0,0,1-.57-1.75,2.88,2.88,0,0,1,.31-1.91,2.32,2.32,0,0,1,1-1,1.58,1.58,0,0,0,1-1.27c0-1-1.48-2-3.26-2s-3.18,1-3.19,2a1.39,1.39,0,0,0,.69,1.13,2.47,2.47,0,0,1,.72.82,3.08,3.08,0,0,1,.45,2.2,14.47,14.47,0,0,1-.55,1.69,23.09,23.09,0,0,0-9.1,2.16,15.48,15.48,0,0,1-1.5-1.32,2.17,2.17,0,0,1-.49-1.33,1.74,1.74,0,0,1,.3-1,1.13,1.13,0,0,0,.17-1.16c-.35-.64-1.67-.75-2.81-.12s-1.68,1.77-1.33,2.4a1,1,0,0,0,.85.47,2.08,2.08,0,0,1,.76.26,2.28,2.28,0,0,1,1.08,1.24,15.57,15.57,0,0,1,.35,2A22.81,22.81,0,0,0,139.5,466a19.67,19.67,0,0,1-2.2-.49,3,3,0,0,1-1.47-1.25,2.39,2.39,0,0,1-.31-1.41,1.56,1.56,0,0,0-.57-1.49c-.85-.52-2.49.22-3.43,1.74s-.81,3.22,0,3.74a1.4,1.4,0,0,0,1.32,0,2.49,2.49,0,0,1,1.08-.19,3.12,3.12,0,0,1,2.11.75,16.92,16.92,0,0,1,1.57,1.89,22.91,22.91,0,0,0-2.06,7.8,21,21,0,0,1-2.77,1.08,2.1,2.1,0,0,1-1.4-.2,1.73,1.73,0,0,1-.75-.74,1.15,1.15,0,0,0-.94-.71c-.72,0-1.45,1.12-1.43,2.43s.75,2.31,1.48,2.31a1.07,1.07,0,0,0,.82-.53,1.79,1.79,0,0,1,.59-.54,2.3,2.3,0,0,1,1.6-.37,21.13,21.13,0,0,1,2.81,1,22.77,22.77,0,0,0,2.12,7.93,16.21,16.21,0,0,1-1.35,1.61,2.93,2.93,0,0,1-1.79.74,2.37,2.37,0,0,1-1.39-.37,1.57,1.57,0,0,0-1.59-.17c-.85.51-.93,2.32,0,3.84s2.49,2.2,3.34,1.69a1.41,1.41,0,0,0,.59-1.18,2.62,2.62,0,0,1,.32-1.05,3.14,3.14,0,0,1,1.64-1.54,17.37,17.37,0,0,1,2-.46,22.7,22.7,0,0,0,5.74,5.83,26.31,26.31,0,0,1-.35,3.61,2.11,2.11,0,0,1-.82,1.15,1.68,1.68,0,0,1-1,.32,1.16,1.16,0,0,0-1.06.51c-.32.65.33,1.8,1.49,2.39s2.41.39,2.74-.25a1,1,0,0,0-.1-1,1.87,1.87,0,0,1-.2-.77,2.25,2.25,0,0,1,.41-1.6,25.36,25.36,0,0,1,2.48-2.31,22.64,22.64,0,0,0,7.66,2,21.93,21.93,0,0,1,.7,2.83,2.87,2.87,0,0,1-.48,1.87,2.34,2.34,0,0,1-1.13.9,1.57,1.57,0,0,0-1.09,1.16c-.1,1,1.29,2.14,3.06,2.32s3.26-.67,3.36-1.66a1.41,1.41,0,0,0-.59-1.18,2.53,2.53,0,0,1-.64-.88,3.09,3.09,0,0,1-.25-2.24,23.67,23.67,0,0,1,1.51-3.17,23.13,23.13,0,0,0,6.47-1.68,28.36,28.36,0,0,1,3.1,2.14,2.15,2.15,0,0,1,.61,1.28,1.73,1.73,0,0,1-.22,1,1.16,1.16,0,0,0-.07,1.17c.41.6,1.73.6,2.82-.13s1.52-1.91,1.11-2.51a1,1,0,0,0-.89-.39,2,2,0,0,1-.77-.2,2.26,2.26,0,0,1-1.19-1.14,23.52,23.52,0,0,1-.79-3.25,22.86,22.86,0,0,0,5.49-5.1,26.41,26.41,0,0,1,3.64.8,3,3,0,0,1,1.45,1.28,2.41,2.41,0,0,1,.28,1.42,1.56,1.56,0,0,0,.54,1.5c.83.54,2.49-.17,3.46-1.66S186.84,493.12,186,492.58Z"/><path class="cls-26" d="M147,471.11c5.27-8.74,14.51-13.19,23.87-10.47-.29-.2-.59-.39-.9-.58a22.05,22.05,0,1,0-17.53,40.06C142.71,493.6,140.88,481.23,147,471.11Z"/><path class="cls-27" d="M163.49,468.48c-.08,2.89-3.11,5.16-6.78,5.06s-6.59-2.52-6.51-5.41,3.13-5.73,6.8-5.64S163.57,465.59,163.49,468.48Z"/><path class="cls-27" d="M174.92,476.89c-.89,1-2.61.85-3.84-.28s-1.52-2.83-.63-3.8a3.05,3.05,0,0,1,4.47,4.08Z"/><path class="cls-27" d="M162.36,495.26a1.79,1.79,0,0,1-2.57-2.34,1.75,1.75,0,0,1,2.57,2.34Z"/><path class="cls-28" d="M163.66,479a1.79,1.79,0,0,1,1.23,3.25,1.75,1.75,0,0,1-1.23-3.25Z"/><path class="cls-27" d="M147.34,490.33A1.79,1.79,0,0,1,144.8,488a1.75,1.75,0,0,1,2.54,2.37Z"/><path class="cls-28" d="M170.52,466.56a1.79,1.79,0,0,1-3.43.58,1.75,1.75,0,0,1,3.43-.58Z"/><path class="cls-27" d="M147.33,472a1.79,1.79,0,0,1-3.43.58,1.75,1.75,0,0,1,3.43-.58Z"/><circle class="cls-27" cx="154.3" cy="482.95" r="3.44"/><circle class="cls-27" cx="142.98" cy="481.38" r="2.43"/><circle class="cls-28" cx="152.45" cy="493.9" r="2.43"/><circle class="cls-28" cx="166.54" cy="488.38" r="2.43"/><path class="cls-25" d="M605.73,485a.68.68,0,0,0-.64,0,1.14,1.14,0,0,1-.52.08,1.52,1.52,0,0,1-1-.38,13.77,13.77,0,0,1-1.13-1.5,11.1,11.1,0,0,0,.94-3.07,14.52,14.52,0,0,1,1.78-.74,1,1,0,0,1,.68.09.89.89,0,0,1,.36.36.55.55,0,0,0,.45.33c.35,0,.7-.54.69-1.17s-.38-1.11-.73-1.11a.52.52,0,0,0-.39.26.87.87,0,0,1-.28.26,1.07,1.07,0,0,1-.77.18,12.08,12.08,0,0,1-1.67-.59,11.07,11.07,0,0,0-.79-3.68,9.82,9.82,0,0,1,1-1.17,1.37,1.37,0,0,1,.86-.35,1.17,1.17,0,0,1,.67.18.72.72,0,0,0,.76.09c.41-.24.46-1.11,0-1.85s-1.19-1.06-1.6-.82a.64.64,0,0,0-.29.56,1.4,1.4,0,0,1-.16.5,1.54,1.54,0,0,1-.8.74,9.87,9.87,0,0,1-1.39.28,10.92,10.92,0,0,0-2.66-2.86,8.73,8.73,0,0,1,.27-1.31,1,1,0,0,1,.44-.51.79.79,0,0,1,.5-.11.54.54,0,0,0,.52-.2c.19-.3-.07-.88-.61-1.21s-1.13-.29-1.32,0a.49.49,0,0,0,0,.47,1,1,0,0,1,.06.38,1,1,0,0,1-.27.74,9.39,9.39,0,0,1-1.05.83,10.7,10.7,0,0,0-3.87-1.21,6.56,6.56,0,0,1-.27-.85,1.32,1.32,0,0,1,.15-.91,1.06,1.06,0,0,1,.5-.48.75.75,0,0,0,.47-.61c0-.48-.71-1-1.57-1s-1.53.47-1.54.95a.7.7,0,0,0,.34.54,1.31,1.31,0,0,1,.35.39,1.46,1.46,0,0,1,.21,1.06,6,6,0,0,1-.26.81,11.21,11.21,0,0,0-4.38,1,6.79,6.79,0,0,1-.73-.63,1,1,0,0,1-.23-.64.79.79,0,0,1,.15-.49.59.59,0,0,0,.08-.56c-.17-.3-.81-.36-1.36-.05s-.81.85-.64,1.15a.52.52,0,0,0,.41.23.87.87,0,0,1,.37.13,1.09,1.09,0,0,1,.52.59,8.12,8.12,0,0,1,.17,1,11,11,0,0,0-3.17,3.07,7.52,7.52,0,0,1-1.05-.23,1.44,1.44,0,0,1-.71-.61,1.06,1.06,0,0,1-.15-.67.73.73,0,0,0-.28-.72c-.4-.25-1.19.11-1.65.84s-.39,1.55,0,1.8a.64.64,0,0,0,.63,0,1.33,1.33,0,0,1,.52-.09,1.47,1.47,0,0,1,1,.36,10.14,10.14,0,0,1,.75.91,11.22,11.22,0,0,0-1,3.75,9.09,9.09,0,0,1-1.33.53,1,1,0,0,1-.68-.1.81.81,0,0,1-.35-.36.57.57,0,0,0-.46-.34c-.35,0-.69.54-.69,1.17s.37,1.11.72,1.11a.51.51,0,0,0,.39-.25.87.87,0,0,1,.28-.26,1.07,1.07,0,0,1,.77-.18,9.47,9.47,0,0,1,1.36.48,10.89,10.89,0,0,0,1,3.82,7.92,7.92,0,0,1-.65.77,1.37,1.37,0,0,1-.86.35,1.06,1.06,0,0,1-.67-.17.74.74,0,0,0-.77-.08c-.41.24-.45,1.11,0,1.85s1.2,1.05,1.61.81a.68.68,0,0,0,.29-.57,1.21,1.21,0,0,1,.15-.5,1.53,1.53,0,0,1,.79-.75,8.64,8.64,0,0,1,1-.22,11.15,11.15,0,0,0,2.76,2.81,12.16,12.16,0,0,1-.16,1.73,1.13,1.13,0,0,1-.4.56.83.83,0,0,1-.48.15.56.56,0,0,0-.51.25c-.16.31.16.87.72,1.15s1.15.19,1.31-.12a.5.5,0,0,0,0-.47.79.79,0,0,1-.1-.37,1,1,0,0,1,.2-.77,12.19,12.19,0,0,1,1.19-1.11,11.12,11.12,0,0,0,3.68,1,10.14,10.14,0,0,1,.35,1.36,1.4,1.4,0,0,1-.24.9,1.1,1.1,0,0,1-.54.43.79.79,0,0,0-.53.57c0,.47.63,1,1.48,1.11s1.56-.32,1.61-.8a.67.67,0,0,0-.28-.57A1.31,1.31,0,0,1,593,492a1.49,1.49,0,0,1-.12-1.08,11.64,11.64,0,0,1,.73-1.52,11.15,11.15,0,0,0,3.11-.81,13.07,13.07,0,0,1,1.5,1,1.05,1.05,0,0,1,.29.61.86.86,0,0,1-.11.5.56.56,0,0,0,0,.57c.2.29.83.28,1.36-.07s.73-.91.53-1.2a.48.48,0,0,0-.43-.19.82.82,0,0,1-.37-.1,1,1,0,0,1-.57-.55,11.92,11.92,0,0,1-.38-1.56,10.79,10.79,0,0,0,2.64-2.46,13.17,13.17,0,0,1,1.75.39,1.39,1.39,0,0,1,.7.62,1.21,1.21,0,0,1,.14.68.72.72,0,0,0,.26.72c.39.26,1.19-.08,1.66-.8S606.13,485.21,605.73,485Z"/><path class="cls-26" d="M587,474.61c2.54-4.2,7-6.35,11.49-5l-.43-.27a10.61,10.61,0,1,0-11,18.17,11.14,11.14,0,0,0,2.54,1.11C584.89,485.44,584,479.48,587,474.61Z"/><path class="cls-27" d="M594.89,473.35c0,1.39-1.5,2.48-3.26,2.43s-3.17-1.21-3.14-2.6a3.23,3.23,0,0,1,6.4.17Z"/><path class="cls-27" d="M600.39,477.4a1.5,1.5,0,0,1-2.15-2,1.47,1.47,0,0,1,2.15,2Z"/><path class="cls-27" d="M594.35,486.24a.86.86,0,0,1-1.24-1.13.82.82,0,0,1,1.11,0A.83.83,0,0,1,594.35,486.24Z"/><path class="cls-28" d="M595,478.4a.79.79,0,0,1,.92.55.77.77,0,0,1-.32,1,.85.85,0,0,1-.6-1.57Z"/><path class="cls-27" d="M587.12,483.86a.75.75,0,0,1-1.06-.09.77.77,0,0,1-.17-1,.85.85,0,0,1,1.23,1.14Z"/><path class="cls-28" d="M598.27,472.42a.86.86,0,0,1-1.65.28.82.82,0,0,1,.71-.86A.81.81,0,0,1,598.27,472.42Z"/><path class="cls-27" d="M587.11,475.06a.86.86,0,0,1-1.65.27.84.84,0,0,1,1.65-.27Z"/><circle class="cls-27" cx="590.47" cy="480.31" r="1.66"/><circle class="cls-27" cx="585.02" cy="479.56" r="1.17"/><circle class="cls-28" cx="589.57" cy="485.58" r="1.17"/><circle class="cls-28" cx="596.36" cy="482.93" r="1.17"/><path class="cls-25" d="M390.18,410.52a1.62,1.62,0,0,0-2.15-.81,1.69,1.69,0,0,0-.62.5l0-.11c-3.28-1.74-4.34-3.07-4.63-3.91.2-.43.38-.88.54-1.32.22-.2.87-.46,2.71.18l0-.07a1,1,0,0,0,.07.51,1.06,1.06,0,0,0,1.38.58,1.06,1.06,0,1,0-.81-2,1.17,1.17,0,0,0-.5.43,5.86,5.86,0,0,1-2.46-1.16,13.5,13.5,0,0,0,.28-3.74c.1-.47.81-1.72,5.33-2v0a2.13,2.13,0,0,0,1,1,2.17,2.17,0,1,0-1.05-2.89,2.25,2.25,0,0,0-.2.87c-.91.14-4.36.58-5.85-.48a13.16,13.16,0,0,0-4.22-5.9c-.19-.5-.19-1.63,1.34-4l-.1-.07a1.65,1.65,0,0,0,.83.07,1.7,1.7,0,1,0-1.45-.46,10.38,10.38,0,0,1-2.47,3.25,13.2,13.2,0,0,0-7.05-1.64,7.3,7.3,0,0,1-.12-1.94H370a1.17,1.17,0,0,0,.51-.23,1.15,1.15,0,0,0,.17-1.6,1.13,1.13,0,1,0-1.76,1.43,1.1,1.1,0,0,0,.59.38,8.44,8.44,0,0,1-.14,2,13.56,13.56,0,0,0-3.7,1c-.44-.31-1.21-1.22-2-3.92a2,2,0,0,0,.32-.41,1.6,1.6,0,1,0-2.21.54,1.89,1.89,0,0,0,1.07.26c.24.62,1.22,3.24.77,4.64a13.24,13.24,0,0,0-3.94,4c-.37.09-1.39.1-3.4-1.4a1.26,1.26,0,1,0-1,1,1.23,1.23,0,0,0,.66-.39c.55.3,2.64,1.52,2.73,2.63a13.28,13.28,0,0,0,.08,10.75c-.27.54-1.29,2.06-4.68,2.8l0,.1a1.43,1.43,0,0,0-.5-.54,1.5,1.5,0,1,0,.45,2.07,1.5,1.5,0,0,0,.23-.91c.43-.14,4.37-1.47,5.91-1.08a13.31,13.31,0,0,0,3.8,3.46,14.15,14.15,0,0,0,2.72,1.25c.46.39,1.13,1.4.5,3.72a1.18,1.18,0,0,0-.45.25,1.26,1.26,0,1,0,1.77.16,1.24,1.24,0,0,0-.63-.41c.06-.59.38-2.84,1.53-3.14a13.35,13.35,0,0,0,4.5-.29c.67.46,1.45,1.62,2.07,4.36h.11a1.44,1.44,0,0,0-.6.44,1.49,1.49,0,1,0,1.23-.54,11.94,11.94,0,0,1-.72-4.93,13.5,13.5,0,0,0,2.21-1.2,16.76,16.76,0,0,1,1.29,1.6l.09,0a1.44,1.44,0,0,0-.38.63,1.5,1.5,0,1,0,1.87-1,1.47,1.47,0,0,0-.95,0,16.1,16.1,0,0,1-1.29-1.65,13.37,13.37,0,0,0,2.64-2.67c2-.36,5.27,2.1,5.66,2.4a1.54,1.54,0,0,0,.1,1,1.62,1.62,0,0,0,2.95-1.33Z"/><path class="cls-26" d="M364.18,396c3.05-5.05,8.39-7.62,13.81-6.05l-.52-.33a12.75,12.75,0,0,0-13.19,21.83,12.61,12.61,0,0,0,3.05,1.33C361.71,409.05,360.65,401.89,364.18,396Z"/><path class="cls-27" d="M375.18,395.27c-.05,1.67-1.8,3-3.93,2.92s-3.8-1.45-3.76-3.13a3.88,3.88,0,0,1,7.69.21Z"/><path class="cls-27" d="M381.78,400.13a1.8,1.8,0,0,1-2.58-2.36,1.76,1.76,0,0,1,2.58,2.36Z"/><path class="cls-27" d="M374.52,410.75A1,1,0,0,1,373,409.4a1,1,0,0,1,1.48,1.35Z"/><path class="cls-28" d="M375.28,401.34a1,1,0,0,1,.71,1.88,1,1,0,0,1-.71-1.88Z"/><path class="cls-27" d="M365.84,407.9a1,1,0,0,1-1.47-1.37,1,1,0,0,1,1.47,1.37Z"/><path class="cls-28" d="M379.24,394.16a1,1,0,0,1-2,.33,1,1,0,0,1,2-.33Z"/><path class="cls-27" d="M365.83,397.32c.08.43-.31.85-.86.95a.92.92,0,0,1-1.12-.62,1,1,0,0,1,2-.33Z"/><circle class="cls-27" cx="369.86" cy="403.63" r="1.99"/><circle class="cls-27" cx="363.32" cy="402.73" r="1.41"/><circle class="cls-28" cx="368.79" cy="409.96" r="1.41"/><circle class="cls-28" cx="376.94" cy="406.78" r="1.41"/><path class="cls-25" d="M191.78,310.72a1.78,1.78,0,0,0-3.05-.33l.05-.12c-3.62-1.93-4.78-3.39-5.11-4.31a14,14,0,0,0,.6-1.46c.24-.22,1-.51,3,.19l0-.07a1.15,1.15,0,0,0,.08.57,1.16,1.16,0,0,0,2.15-.89,1.16,1.16,0,0,0-1.52-.63,1.11,1.11,0,0,0-.55.47,6.56,6.56,0,0,1-2.72-1.28,14.7,14.7,0,0,0,.31-4.12c.11-.52.9-1.9,5.88-2.24v0a2.35,2.35,0,0,0,1.11,1.09,2.39,2.39,0,1,0-1.37-2.22c-1,.15-4.8.64-6.44-.53a14.58,14.58,0,0,0-4.65-6.5c-.21-.55-.21-1.8,1.47-4.44l-.11-.08a1.9,1.9,0,0,0,.92.08,1.87,1.87,0,1,0-2.14-1.54,1.78,1.78,0,0,0,.54,1,11.51,11.51,0,0,1-2.72,3.59,14.6,14.6,0,0,0-7.77-1.82,7.75,7.75,0,0,1-.13-2.13h-.09a1.24,1.24,0,1,0-.53,0,9.5,9.5,0,0,1-.16,2.24,14.38,14.38,0,0,0-4.07,1.06c-.49-.34-1.34-1.34-2.26-4.32a1.81,1.81,0,0,0,.36-.44,1.77,1.77,0,1,0-2.43.58,2,2,0,0,0,1.17.29c.27.68,1.35,3.57.85,5.11a14.51,14.51,0,0,0-4.33,4.39c-.41.1-1.53.11-3.75-1.54a1.51,1.51,0,0,0,0-.56,1.39,1.39,0,1,0-1.06,1.65,1.28,1.28,0,0,0,.73-.42c.6.33,2.9,1.67,3,2.9a14.59,14.59,0,0,0,.08,11.83c-.29.6-1.42,2.27-5.15,3.08l0,.12a1.6,1.6,0,0,0-.56-.6,1.65,1.65,0,1,0,.51,2.29,1.75,1.75,0,0,0,.25-1c.47-.16,4.81-1.62,6.51-1.18a14.69,14.69,0,0,0,4.18,3.8,15,15,0,0,0,3,1.38c.5.43,1.24,1.55.55,4.1a1.29,1.29,0,0,0-.5.27,1.39,1.39,0,1,0,2,.18,1.37,1.37,0,0,0-.7-.45c.07-.66.42-3.14,1.69-3.46a14.44,14.44,0,0,0,4.95-.32c.74.51,1.6,1.79,2.28,4.81h.12a1.54,1.54,0,0,0-.66.48,1.65,1.65,0,1,0,2.32-.22,1.61,1.61,0,0,0-1-.38,13.2,13.2,0,0,1-.8-5.43,14.38,14.38,0,0,0,2.44-1.32,21,21,0,0,1,1.42,1.76l.1-.06a1.65,1.65,0,1,0,2.74,1.66,1.64,1.64,0,0,0-1.1-2.06,1.6,1.6,0,0,0-1,0,15.84,15.84,0,0,1-1.43-1.82,14.75,14.75,0,0,0,2.91-2.94c2.19-.39,5.8,2.32,6.23,2.64a1.78,1.78,0,0,0,2.47,2A1.78,1.78,0,0,0,191.78,310.72Z"/><path class="cls-26" d="M163.15,294.78c3.36-5.57,9.24-8.4,15.2-6.67l-.57-.36a14,14,0,1,0-11.17,25.51C160.42,309.11,159.25,301.22,163.15,294.78Z"/><path class="cls-27" d="M175.26,293.92c0,1.85-2,3.29-4.32,3.23s-4.19-1.61-4.14-3.45,2-3.65,4.32-3.59S175.31,292.08,175.26,293.92Z"/><path class="cls-27" d="M182.54,299.28a2,2,0,0,1-2.85-2.6,1.95,1.95,0,0,1,2.85,2.6Z"/><path class="cls-27" d="M174.54,311a1.14,1.14,0,0,1-1.64-1.49,1.12,1.12,0,0,1,1.64,1.49Z"/><path class="cls-28" d="M175.37,300.62a1,1,0,0,1,1.21.72,1,1,0,0,1-.43,1.35,1.12,1.12,0,0,1-.78-2.07Z"/><path class="cls-27" d="M165,307.84a1.14,1.14,0,0,1-1.63-1.51,1.09,1.09,0,0,1,1.48,0A1.11,1.11,0,0,1,165,307.84Z"/><path class="cls-28" d="M179.73,292.7a1.14,1.14,0,0,1-2.18.37,1.12,1.12,0,0,1,2.18-.37Z"/><path class="cls-27" d="M165,296.18a1.14,1.14,0,0,1-2.19.37,1.12,1.12,0,0,1,2.19-.37Z"/><circle class="cls-27" cx="169.4" cy="303.14" r="2.19"/><circle class="cls-27" cx="162.2" cy="302.14" r="1.55"/><circle class="cls-28" cx="168.22" cy="310.11" r="1.55"/><circle class="cls-28" cx="177.2" cy="306.6" r="1.55"/><path class="cls-25" d="M653.44,242.86a2,2,0,0,0-3.44-.38l0-.13c-4.08-2.17-5.4-3.83-5.77-4.87a14.69,14.69,0,0,0,.68-1.65c.27-.25,1.08-.57,3.37.23l0-.09a1.19,1.19,0,0,0,.09.64,1.32,1.32,0,0,0,1.72.71,1.3,1.3,0,0,0,.71-1.71,1.32,1.32,0,0,0-1.72-.72,1.37,1.37,0,0,0-.62.54,7.33,7.33,0,0,1-3.07-1.45,16.6,16.6,0,0,0,.35-4.65c.13-.59,1-2.14,6.64-2.53v0a2.7,2.7,0,0,0,4.86-.07,2.71,2.71,0,1,0-4.9-2.3,2.63,2.63,0,0,0-.25,1.09c-1.13.17-5.42.72-7.28-.6a16.5,16.5,0,0,0-5.25-7.35c-.23-.62-.23-2,1.66-5l-.12-.09a2.11,2.11,0,1,0,.36-4.07,2.11,2.11,0,0,0-1.74,2.42,2,2,0,0,0,.61,1.17,12.76,12.76,0,0,1-3.07,4.05,16.41,16.41,0,0,0-8.77-2.05,8.39,8.39,0,0,1-.15-2.41h-.1a1.45,1.45,0,0,0,.63-.29,1.43,1.43,0,1,0-1.24.26,10.67,10.67,0,0,1-.18,2.54,16.52,16.52,0,0,0-4.59,1.19c-.55-.38-1.52-1.51-2.55-4.87a2.65,2.65,0,0,0,.4-.5,2,2,0,1,0-2.74.66,2.24,2.24,0,0,0,1.32.32c.31.77,1.52,4,1,5.77a16.42,16.42,0,0,0-4.89,5c-.47.11-1.73.13-4.24-1.74a1.49,1.49,0,0,0,0-.63,1.57,1.57,0,1,0-1.19,1.87,1.55,1.55,0,0,0,.82-.48c.68.37,3.28,1.89,3.4,3.27a16.47,16.47,0,0,0,.09,13.37c-.33.68-1.61,2.56-5.82,3.48l0,.13a2,2,0,0,0-.63-.68,1.87,1.87,0,1,0,.56,2.58,1.78,1.78,0,0,0,.29-1.13c.53-.18,5.43-1.83,7.35-1.34a16.69,16.69,0,0,0,8.11,5.85c.57.49,1.41,1.75.63,4.64a1.37,1.37,0,0,0-.57.3,1.57,1.57,0,1,0,2.21.2,1.51,1.51,0,0,0-.79-.51c.08-.74.48-3.54,1.91-3.9a16.65,16.65,0,0,0,5.59-.36c.83.57,1.81,2,2.58,5.42h.13a2,2,0,0,0-.75.54,1.87,1.87,0,1,0,2.63-.24,1.81,1.81,0,0,0-1.09-.42,15,15,0,0,1-.9-6.15,16.68,16.68,0,0,0,2.76-1.48,20.59,20.59,0,0,1,1.59,2l.12-.07a1.88,1.88,0,0,0,.77,3.12,1.87,1.87,0,1,0-.09-3.54,20.78,20.78,0,0,1-1.62-2.05,16.44,16.44,0,0,0,3.29-3.32c2.48-.45,6.55,2.61,7,3a2,2,0,0,0,.13,1.26,2,2,0,1,0,3.66-1.66Z"/><path class="cls-26" d="M621.1,224.86c3.8-6.29,10.44-9.49,17.18-7.53l-.65-.42a15.86,15.86,0,1,0-16.4,27.16,16.06,16.06,0,0,0,3.79,1.66C618,241,616.71,232.14,621.1,224.86Z"/><path class="cls-27" d="M634.78,223.89c0,2.08-2.24,3.71-4.88,3.64s-4.73-1.81-4.68-3.89,2.25-4.12,4.89-4S634.84,221.81,634.78,223.89Z"/><path class="cls-27" d="M643,229.94a2.24,2.24,0,0,1-3.21-2.94,2.2,2.2,0,0,1,3.21,2.94Z"/><path class="cls-27" d="M634,243.16a1.29,1.29,0,0,1-1.85-1.69,1.26,1.26,0,0,1,1.85,1.69Z"/><path class="cls-28" d="M634.91,231.45a1.13,1.13,0,0,1,1.36.82,1.14,1.14,0,0,1-.48,1.52,1.26,1.26,0,0,1-.88-2.34Z"/><path class="cls-27" d="M623.17,239.6a1.28,1.28,0,0,1-1.83-1.7,1.26,1.26,0,0,1,1.83,1.7Z"/><path class="cls-28" d="M639.84,222.51a1.29,1.29,0,0,1-2.47.41,1.26,1.26,0,0,1,2.47-.41Z"/><path class="cls-27" d="M623.16,226.44a1.29,1.29,0,0,1-2.47.42,1.26,1.26,0,0,1,2.47-.42Z"/><circle class="cls-27" cx="628.17" cy="234.3" r="2.47"/><circle class="cls-27" cx="620.03" cy="233.17" r="1.75"/><circle class="cls-28" cx="626.84" cy="242.17" r="1.75"/><circle class="cls-28" cx="636.98" cy="238.21" r="1.75"/><path class="cls-25" d="M710.68,613.8a4,4,0,0,0-5.32-2,3.89,3.89,0,0,0-1.55,1.24l.1-.27c-8.15-4.34-10.78-7.65-11.52-9.72a31.31,31.31,0,0,0,1.35-3.3c.55-.49,2.16-1.13,6.73.45l.07-.17a2.73,2.73,0,0,0,.19,1.28,2.63,2.63,0,1,0,1.42-3.43,2.58,2.58,0,0,0-1.24,1.08c-.59-.14-4.54-1.15-6.12-2.9a33.12,33.12,0,0,0,.68-9.29c.27-1.17,2-4.28,13.26-5.06v-.08a5.33,5.33,0,0,0,2.52,2.46,5.41,5.41,0,1,0-3.1-5c-2.25.35-10.82,1.44-14.53-1.18a32.77,32.77,0,0,0-10.48-14.68c-.46-1.24-.46-4.05,3.31-10l-.24-.18a4.19,4.19,0,1,0-1.54-.95c-.4.8-3.08,5.92-6.13,8.08A32.71,32.71,0,0,0,661,556.07a17.19,17.19,0,0,1-.3-4.82l-.2,0a2.77,2.77,0,0,0,1.27-.58,2.81,2.81,0,1,0-4-.43,2.85,2.85,0,0,0,1.48,1,21.12,21.12,0,0,1-.36,5.05,33.26,33.26,0,0,0-9.18,2.4c-1.09-.76-3-3-5.08-9.74a4.51,4.51,0,0,0,.8-1,4,4,0,1,0-5.48,1.33,4.54,4.54,0,0,0,2.65.64c.6,1.54,3,8.06,1.92,11.53a32.68,32.68,0,0,0-9.79,9.9c-.92.23-3.44.25-8.45-3.48a3,3,0,0,0,0-1.26,3.15,3.15,0,1,0-.74,2.78c1.35.75,6.54,3.77,6.78,6.54a33,33,0,0,0,.18,26.69c-.66,1.36-3.2,5.12-11.62,7l.06.27a3.69,3.69,0,0,0-1.26-1.35,3.73,3.73,0,1,0,1.71,2.89c1.05-.36,10.85-3.66,14.68-2.68a33,33,0,0,0,16.19,11.68c1.14,1,2.81,3.5,1.26,9.26a3.08,3.08,0,0,0-1.14.61,3.11,3.11,0,1,0,2.84-.62c.16-1.47,1-7.06,3.8-7.79a33,33,0,0,0,11.17-.72c1.67,1.14,3.62,4,5.15,10.84l.27,0a3.67,3.67,0,0,0-1.49,1.09,3.74,3.74,0,1,0,3.06-1.34c-.31-.88-2.55-7.44-1.79-12.27a31.71,31.71,0,0,0,5.5-3,40.32,40.32,0,0,1,3.19,4l.24-.12a3.63,3.63,0,0,0-1,1.58,3.74,3.74,0,1,0,2.3-2.43,40.18,40.18,0,0,1-3.23-4.09,32.73,32.73,0,0,0,6.56-6.63c5-.89,13.09,5.21,14.06,6a4,4,0,1,0,7.58-.8Z"/><path class="cls-26" d="M646.09,577.85c7.58-12.56,20.86-19,34.3-15-.42-.29-.85-.56-1.29-.83a31.68,31.68,0,1,0-25.19,57.55C640,610.17,637.31,592.38,646.09,577.85Z"/><path class="cls-27" d="M673.41,575.92c-.11,4.15-4.47,7.4-9.74,7.27s-9.46-3.62-9.35-7.78,4.5-8.23,9.77-8.09S673.52,571.77,673.41,575.92Z"/><path class="cls-27" d="M689.83,588c-1.28,1.4-3.75,1.21-5.52-.41s-2.17-4.06-.9-5.46a4.26,4.26,0,0,1,5.78.13C691,583.88,691.11,586.6,689.83,588Z"/><path class="cls-27" d="M671.79,614.39A2.57,2.57,0,0,1,668.1,611a2.52,2.52,0,0,1,3.69,3.37Z"/><path class="cls-28" d="M673.66,591a2.57,2.57,0,0,1,1.77,4.68,2.52,2.52,0,0,1-1.77-4.68Z"/><path class="cls-27" d="M650.22,607.3a2.57,2.57,0,0,1-3.66-3.41,2.52,2.52,0,0,1,3.66,3.41Z"/><path class="cls-28" d="M683.51,573.16a2.57,2.57,0,0,1-4.93.83,2.52,2.52,0,0,1,4.93-.83Z"/><path class="cls-27" d="M650.2,581a2.57,2.57,0,0,1-4.93.83,2.52,2.52,0,0,1,4.93-.83Z"/><circle class="cls-27" cx="660.21" cy="596.7" r="4.94"/><circle class="cls-27" cx="643.95" cy="594.45" r="3.5"/><circle class="cls-28" cx="657.55" cy="612.43" r="3.5"/><circle class="cls-28" cx="677.8" cy="604.51" r="3.5"/><path class="cls-25" d="M347.76,642.79a1.82,1.82,0,0,0-2.42-.91,1.72,1.72,0,0,0-.7.57l0-.13c-3.71-2-4.91-3.48-5.24-4.42a13.86,13.86,0,0,0,.61-1.5c.25-.23,1-.52,3.07.2l0-.08a1.2,1.2,0,0,0,.08.59,1.2,1.2,0,0,0,2.22-.92,1.21,1.21,0,0,0-2.14-.15,6.84,6.84,0,0,1-2.78-1.32,14.74,14.74,0,0,0,.31-4.23c.12-.54.93-2,6-2.31v0a2.52,2.52,0,0,0,1.14,1.12,2.46,2.46,0,1,0-1.17-3.28,2.52,2.52,0,0,0-.24,1c-1,.16-4.92.66-6.61-.54a15,15,0,0,0-4.78-6.68c-.21-.56-.21-1.84,1.51-4.56l-.11-.08a1.92,1.92,0,0,0,2.53-2.12,1.92,1.92,0,1,0-3.78.62,2,2,0,0,0,.55,1.07,11.69,11.69,0,0,1-2.79,3.67,15,15,0,0,0-8-1.86,8.17,8.17,0,0,1-.13-2.19h-.09a1.28,1.28,0,1,0-1.23-.46,1.32,1.32,0,0,0,.68.44,9.61,9.61,0,0,1-.17,2.3,15.26,15.26,0,0,0-4.18,1.09c-.49-.35-1.37-1.38-2.31-4.43a2.45,2.45,0,0,0,.36-.46,1.82,1.82,0,1,0-2.49.6,2,2,0,0,0,1.2.29c.28.7,1.38,3.67.88,5.25a15.11,15.11,0,0,0-4.46,4.51c-.42.1-1.57.11-3.85-1.58a1.43,1.43,0,1,0-1.09,1.12,1.38,1.38,0,0,0,.75-.43c.61.34,3,1.71,3.08,3a15,15,0,0,0,.09,12.16c-.3.61-1.46,2.33-5.29,3.16l0,.12a1.66,1.66,0,0,0-.57-.61,1.68,1.68,0,1,0,.78,1.31c.48-.16,4.94-1.66,6.68-1.22a14.84,14.84,0,0,0,4.3,3.91,14.45,14.45,0,0,0,3.08,1.41c.51.45,1.27,1.6.57,4.22a1.2,1.2,0,0,0-.52.28,1.43,1.43,0,0,0-.19,2,1.43,1.43,0,1,0,1.48-2.29c.07-.68.43-3.22,1.73-3.55a15.27,15.27,0,0,0,5.09-.33c.76.52,1.65,1.83,2.34,4.93h.13a1.59,1.59,0,0,0-.68.5,1.7,1.7,0,1,0,1.39-.61,13.73,13.73,0,0,1-.81-5.59,14.38,14.38,0,0,0,2.5-1.35,19,19,0,0,1,1.45,1.81l.11-.06a1.6,1.6,0,0,0-.43.72,1.7,1.7,0,1,0,2.11-1.14,1.63,1.63,0,0,0-1.07,0,20.07,20.07,0,0,1-1.47-1.87,14.52,14.52,0,0,0,3-3c2.26-.4,6,2.38,6.4,2.71a1.83,1.83,0,1,0,3.45-.36Z"/><path class="cls-26" d="M318.36,626.42c3.45-5.72,9.49-8.63,15.61-6.85l-.58-.37a14.42,14.42,0,1,0-14.91,24.69,14.76,14.76,0,0,0,3.44,1.51C315.56,641.13,314.36,633,318.36,626.42Z"/><path class="cls-27" d="M330.8,625.54c-.05,1.89-2,3.37-4.44,3.31s-4.3-1.65-4.25-3.54a4.23,4.23,0,0,1,4.44-3.68C329,621.69,330.85,623.65,330.8,625.54Z"/><path class="cls-27" d="M338.27,631a2,2,0,0,1-2.92-2.67,2,2,0,0,1,2.92,2.67Z"/><path class="cls-27" d="M330.06,643.06a1.17,1.17,0,0,1-1.68-1.54,1.15,1.15,0,0,1,1.68,1.54Z"/><path class="cls-28" d="M330.91,632.41a1,1,0,0,1,1.24.75,1,1,0,0,1-.44,1.38,1.1,1.1,0,0,1-1.33-.71A1.12,1.12,0,0,1,330.91,632.41Z"/><path class="cls-27" d="M320.24,639.83a1,1,0,0,1-1.45-.12,1,1,0,0,1-.22-1.43,1.15,1.15,0,0,1,1.67,1.55Z"/><path class="cls-28" d="M335.39,624.28a1.17,1.17,0,0,1-2.24.38,1.12,1.12,0,0,1,1-1.17A1.1,1.1,0,0,1,335.39,624.28Z"/><path class="cls-27" d="M320.23,627.86a1.18,1.18,0,0,1-2.25.38,1.15,1.15,0,0,1,2.25-.38Z"/><circle class="cls-27" cx="324.79" cy="635" r="2.25"/><circle class="cls-27" cx="317.38" cy="633.98" r="1.59"/><circle class="cls-28" cx="323.57" cy="642.17" r="1.59"/><circle class="cls-28" cx="332.79" cy="638.56" r="1.59"/><path class="cls-25" d="M343.75,174.41a1.58,1.58,0,0,0-2.1-.78,1.48,1.48,0,0,0-.61.49l0-.11c-3.22-1.71-4.25-3-4.54-3.83.2-.43.37-.86.53-1.3.21-.2.85-.45,2.65.17l0-.06a1,1,0,0,0,.07.5,1,1,0,0,0,1.36.56,1,1,0,0,0,.56-1.35,1,1,0,0,0-1.36-.56,1.07,1.07,0,0,0-.49.42,5.66,5.66,0,0,1-2.41-1.14,12.93,12.93,0,0,0,.27-3.66c.1-.46.8-1.69,5.23-2v0a2.12,2.12,0,1,0-.23-1c-.89.14-4.27.57-5.73-.47a12.89,12.89,0,0,0-4.13-5.78c-.19-.49-.19-1.6,1.3-3.95l-.09-.07a1.58,1.58,0,0,0,.81.07,1.66,1.66,0,1,0-1.9-1.37,1.64,1.64,0,0,0,.48.92,10.05,10.05,0,0,1-2.42,3.19,12.85,12.85,0,0,0-6.91-1.61,6.74,6.74,0,0,1-.11-1.91H324a1.26,1.26,0,0,0,.5-.23,1.1,1.1,0,1,0-1,.21,8.7,8.7,0,0,1-.14,2,13.23,13.23,0,0,0-3.62.94c-.43-.3-1.19-1.19-2-3.83a2.24,2.24,0,0,0,.32-.4,1.58,1.58,0,1,0-2.16.52,1.74,1.74,0,0,0,1,.25c.24.61,1.2,3.18.76,4.55a12.94,12.94,0,0,0-3.86,3.9c-.36.09-1.36.1-3.33-1.37a1.21,1.21,0,0,0,0-.5,1.24,1.24,0,1,0-.29,1.1c.53.3,2.57,1.49,2.67,2.58a13,13,0,0,0,.07,10.53c-.26.53-1.26,2-4.58,2.74l0,.1a1.46,1.46,0,0,0-.49-.53,1.47,1.47,0,1,0,.44,2,1.44,1.44,0,0,0,.23-.89c.41-.14,4.28-1.44,5.79-1.06a13,13,0,0,0,3.72,3.39,13.34,13.34,0,0,0,2.67,1.22c.44.39,1.1,1.38.49,3.65a1.4,1.4,0,0,0-.45.24,1.24,1.24,0,1,0,1.74.16,1.26,1.26,0,0,0-.62-.4c.06-.58.37-2.79,1.5-3.07a13.26,13.26,0,0,0,4.4-.29c.66.45,1.43,1.59,2,4.28h.1a1.46,1.46,0,0,0-.4,2.49,1.47,1.47,0,1,0,1.88-2.26,1.4,1.4,0,0,0-.86-.33,12,12,0,0,1-.7-4.84,13.38,13.38,0,0,0,2.17-1.17,17.28,17.28,0,0,1,1.25,1.56l.1-.05a1.55,1.55,0,0,0-.38.63,1.47,1.47,0,1,0,1.83-1,1.52,1.52,0,0,0-.92,0,15.62,15.62,0,0,1-1.27-1.61,12.82,12.82,0,0,0,2.58-2.62c2-.35,5.17,2.06,5.55,2.35a1.55,1.55,0,0,0,.1,1,1.59,1.59,0,1,0,2.89-1.31Z"/><path class="cls-26" d="M318.28,160.23c3-4.95,8.22-7.47,13.52-5.93-.16-.11-.33-.22-.51-.32a12.49,12.49,0,1,0-12.91,21.39,12.66,12.66,0,0,0,3,1.3C315.85,173,314.81,166,318.28,160.23Z"/><path class="cls-27" d="M329.05,159.47c0,1.64-1.76,2.92-3.84,2.87s-3.73-1.43-3.69-3.07a3.8,3.8,0,0,1,7.53.2Z"/><path class="cls-27" d="M335.53,164.24a1.77,1.77,0,0,1-2.54-2.31,1.73,1.73,0,0,1,2.54,2.31Z"/><path class="cls-27" d="M328.41,174.65a1,1,0,0,1-1.45-1.33,1,1,0,0,1,1.45,1.33Z"/><path class="cls-28" d="M329.15,165.43a.88.88,0,0,1,1.07.64.9.9,0,0,1-.37,1.2,1,1,0,0,1-.7-1.84Z"/><path class="cls-27" d="M319.9,171.85a1,1,0,0,1-1.44-1.34,1,1,0,0,1,1.44,1.34Z"/><path class="cls-28" d="M333,158.38a1,1,0,0,1-1.94.33,1,1,0,0,1,1.94-.33Z"/><path class="cls-27" d="M319.9,161.48a1,1,0,0,1-1.95.33,1,1,0,0,1,.83-1A1,1,0,0,1,319.9,161.48Z"/><circle class="cls-27" cx="323.84" cy="167.67" r="1.95"/><circle class="cls-27" cx="317.43" cy="166.78" r="1.38"/><circle class="cls-28" cx="322.79" cy="173.87" r="1.38"/><circle class="cls-28" cx="330.78" cy="170.75" r="1.38"/></g></svg>