<svg xmlns="http://www.w3.org/2000/svg" xmlns:xlink="http://www.w3.org/1999/xlink" viewBox="0 0 894.16 1096.35"><defs><style>.cls-1{isolation:isolate;}.cls-2{fill:url(#Degradado_sin_nombre_5);}.cls-3{fill:#f1d0cb;}.cls-4{fill:#cf7f40;}.cls-5{fill:#c69996;}.cls-10,.cls-11,.cls-12,.cls-13,.cls-16,.cls-17,.cls-18,.cls-19,.cls-21,.cls-5,.cls-6,.cls-7,.cls-9{mix-blend-mode:multiply;}.cls-6{fill:#e0afa0;}.cls-7{fill:#e7797c;}.cls-8{fill:#e5bbaf;}.cls-9{fill:#ed8d91;}.cls-10{fill:#cb464b;}.cls-11{fill:#e6beb6;}.cls-12{fill:#d9bcc0;}.cls-13{fill:#eabba1;}.cls-14{fill:#da9b8a;}.cls-15{fill:#a9a4a0;}.cls-16{fill:#b44371;}.cls-17{fill:#e3b5a8;}.cls-18{fill:#e6b8ab;}.cls-19{fill:#eeaeae;}.cls-20{fill:#98704c;}.cls-22{fill:#f9b1b2;}.cls-23{fill:#59de9d;}.cls-24{fill:#41c987;}.cls-25{opacity:0.4;}</style><radialGradient id="Degradado_sin_nombre_5" cx="447.08" cy="548.18" r="510.52" gradientUnits="userSpaceOnUse"><stop offset="0.01" stop-color="#005b97"/><stop offset="0.13" stop-color="#0075be"/><stop offset="0.43" stop-color="#1e9cd7"/><stop offset="0.54" stop-color="#47acde"/><stop offset="0.69" stop-color="#80c2e7"/><stop offset="0.83" stop-color="#a9d2ee"/><stop offset="0.94" stop-color="#c3dcf2"/><stop offset="1" stop-color="#cce0f4"/></radialGradient></defs><title>cuerpo</title><g class="cls-1"><g id="Tarjetas"><rect class="cls-2" x="-9.24" y="-11.32" width="912.63" height="1119"/><path class="cls-3" d="M355.17,28.75s1-24,50.09-22,73.13,2,110.2,18,45.08,22,39.07,44.08c0,0,5.51,25.54,9.52,34.56s4,21,0,25.05-2,9,3,18,18,26,18,30-1,8-5,9-17,2-18,6,2,16,0,18a39.36,39.36,0,0,1-5,4s3,9-5,13c0,0-2,2-1,11s-4,19-16,21-43.07,3-43.07,3-12,30.06,14,40.07,130.23,36.07,152.27,62.12,21,58.1,23,99.17c0,0-2,16,0,23s11,25.05,13,51.1,2,89.15,4,104.18,25,86.16,24,124.22-5,143.26-4,153.28,0,21-1,36.06-2,43.08-1,50.09-1,21-6,33.06-9,22-21,26-37.07,27.05-48.09,17,24.05-31.06,29.06-52.1-9-19-9-19-3,4-5,20-14,18-18,11,0-25,0-38.07,3-36.07,14-47.09,15-23,8-40.07-39.07-93.16-42.08-112.2-14-63.11-11-86.15-8-57.1-9-68.12-8-60.11-10-53.1-3,121.22-1,156.28,13,126.23,14,139.25,5,89.16,3,110.2-4,106.19-4,106.19H431.81s-11-93.17-18-94.17-17,94.17-17,94.17H230.45s-2-76.14-3-96.18,0-105.18,4-147.26,11-96.17,11-116.21,3-98.17,3-115.2-2-41.08-4-39.07-13,77.14-17,94.17,0,44.07-4,67.12-17,79.14-50.09,157.28c0,0-8,25,0,36.06s18,14,20,44.08,9,48.09-6,51.09c0,0-13,5-14-34.06,0,0-13-2-11,16s39.07,44.08,29.05,53.09-34.06-9-41.07-11-19-10-25-24-7-17-9-22,1-28,0-42.07-2-50.09-2-63.12-7-106.19-5-142.25,15-88.16,19-110.2,7-20,7-63.11,4-83.15,14-110.2,0-42.07,4-70.12,6-63.11,67.12-83.15,120.21-35.06,123.22-43.08,16-49.09,1-84.15-37.07-62.11-34.06-98.17S315.6,55.29,355.17,28.75Z"/><path class="cls-4" d="M495.92,709.46s11-6,18-23,24-32.06,41.07-17-5,51.09-24,61.11c-13.09,6.89-47,14.6-50.09,1C477.89,718.48,495.92,709.46,495.92,709.46Z"/><rect class="cls-5" x="397.75" y="262.67" width="39.07" height="39.07" rx="13.61"/><path class="cls-6" d="M549.52,164.49H502.21a1.26,1.26,0,0,0-1.13.71,1.46,1.46,0,0,0-1.61-.28l-88.38,38.44a4.08,4.08,0,0,0-2.18,5.19,4.17,4.17,0,0,0-.14,1v53.11c0,1.66,2.28,3.1,3.4,5a4.07,4.07,0,0,0,3.53,2,8.09,8.09,0,0,0,8.09-8.09v-45h99.68a7.51,7.51,0,1,0,0-15H450.4l9.21-4h72.91c8.54,5,2.47,20,2.47,20,7,1,10-6,8-17-1.48-8.15-7.16-9.72-10-10v0h-.35a9.23,9.23,0,0,0-1.32,0H475.74l25.33-11h48.45a7.52,7.52,0,0,0,0-15Z"/><rect class="cls-7" x="408.77" y="279.7" width="15.03" height="120.21" rx="3.99"/><rect class="cls-8" x="408.77" y="399.91" width="15.03" height="153.27" rx="3.99"/><path class="cls-9" d="M415.78,382.88l-18,13s1-55.1-35.06-42.07S273.53,420,265.51,509.11s9,90.16,15,90.16,66.12-5,81.14-24,33.06-49.08,34.06-99.17,0-59.11,0-59.11l20-15,21,16s-4,51.09,11,70.13,27.05,25,30.05,36.06,5,43.08,23,58.11,59.11,21,61.11,17,21-65.12-4-140.25S471.88,336.8,448.84,356.83c0,0-12,10-12,43.08Z"/><path class="cls-10" d="M389.73,434s-9.14,10-12.28,14.78a1.09,1.09,0,0,0,.6,1.64c3.67,1.15,13.69,4.72,13.69,9.63v5l-17-1s-7,5-2,15h13s-7,2-13,3c0,0-3,9,4,15l10-3s-16,29.05,13,43.08c0,0,1,18,30.06,28.05s29.05,12,42.07,12,15.37-6.34,16.2-13.19.83-25.88-4.18-36.9l17-3s5-9-2-17c0,0-3-1-15,5l10-7a14.93,14.93,0,0,0-8-14,24.28,24.28,0,0,0-14,8s-1-17-16-24l18-5a17.13,17.13,0,0,0-1-12s-10,1-15,3c0,0,1-18-15-20l1-14s0-2-3-3-8,0-8,0a3.72,3.72,0,0,0-2,3v9s-1-9-4-10-10,2-10,4,3,8,2,8-3-7-5-7-13,5-10,9,7,4,5,6-2,3-4,1S391.74,432,389.73,434Z"/><path class="cls-11" d="M492.92,592.25a130.53,130.53,0,0,0-40.3.42l-30.19-45.45a4,4,0,0,0-5.53-1.12L411,550a4,4,0,0,0-1.11,5.53l27.28,41.09c-1.5.52-2.88,1-4.11,1.54-12.13,4.94-18.2,18.92-12.9,30.9q.29.63.6,1.26c5,10,8,25,8,25,3,30-17,34.06-17,34.06-32,4-31,22-31,22,0,31,33.06,30,33.06,30,57.1,4,93.16-34.06,106.19-48.09s22-37.06,24-54.09S537,598.26,492.92,592.25Z"/><path class="cls-12" d="M329.63,605.16c-.9.14-1.79.28-2.68.45-4.05.75-14.65,2.46-23.37,1.67-11-1-31.06,4-39.07,23s-8,42.08-2,66.12,8,29,16,40.07,9,17,22,14a100.88,100.88,0,0,1,17-10c9-4,41.07-33.06,50.08-49.09s14-9,27.05-13,32.06-21,38.07-30.06c3.8-5.69,10.8-14.19,15.43-19.67,2.12-2.51,4.35-4.9,6.64-7.25,3.48-3.57,9.49-11.64,2-19.16-10-10-19-6-40.07-10s-49.09,3-67.12,8C336.75,603.85,331.55,604.87,329.63,605.16Z"/><path class="cls-13" d="M393.86,696.15c-5.77-.8-23.52-2.47-34.89,5a16.43,16.43,0,0,0-7.43,16.17c.88,5.39,4.35,12.79,16.15,15.15,25.05,5,78.14-13,87.16-25s-1-14-10-14c-8.46,0-30.17,3.54-46.05,3.14A45.14,45.14,0,0,1,393.86,696.15Z"/><path class="cls-14" d="M376.71,958.91s-6-19,23-21,61.11-2,58.11,17S432.81,980,422.79,980,381.72,978.94,376.71,958.91Z"/><path class="cls-15" d="M325.62,679.41s-5-25-30.05-13c0,0-11.7,6.57-7,15.36a11.69,11.69,0,0,0,10.12,6,29.4,29.4,0,0,0,11.53-2.29,25,25,0,0,0,3.35-1.68c1.88-1.08,6-2.6,9,2.67,4,7,7,20,11,23s15.17,5,15.17,5l2.95-3.05s-15.11.07-19.12-10.95a78.89,78.89,0,0,1-3.73-12.82,7.18,7.18,0,0,1,.41-3.94c2.1-5.28,8.56-21.22,12-26.79a9.22,9.22,0,0,0,1-2.24c.32-1.09.43-2.3-.67-2.3C339.64,652.36,334.64,656.37,325.62,679.41Z"/><path class="cls-16" d="M503,792.61c11-6,9-19,9-19-3-24.05-26-21-26-21s4-14-6-18-23-2-25,12,11,17,11,17-3.78,1-4,12H378.7c-.21-11.07-4-12-4-12s13-3,11-17-15-16-25.05-12-6,18-6,18-23-3-26.05,21c0,0-2,13,9,19,0,0-9,5-6,17s15,13,18,13,13-2,17-11-1-15.54-1-15.54a30.59,30.59,0,0,0,3.79-2.73,21,21,0,0,1,8.26,1.24c3.84,1.53,11.53,47.16,14.53,63.28,3.5,18.86,13.52,90,13.52,90h5c-2-39.07-24-143.26-26-151.27-1.52-6.08-8.22-7-11.38-7a24,24,0,0,0,3.85-6h86.25a23.71,23.71,0,0,0,3.84,6c-3.12.07-9.91.93-11.44,7-2,8-24,112.2-26,151.27h5s10-71.13,13.53-90c3-16.12,10.69-61.75,14.52-63.28a21.11,21.11,0,0,1,8.33-1.24,31.07,31.07,0,0,0,3.8,2.73s-5.05,6.52-1,15.54,14,11,17,11,15-1,18-13S503,792.61,503,792.61Z"/><path class="cls-17" d="M404.76,734.51s-13-5-19,3c0,0-5,12-14,9s-8-9-15-10-33.06-3-40.08,7-16,10-20,10-17-4-27.05,12-5,22-2,29.06,7,16,0,19-10,12-8,25,6,57.11,26.05,54.1c0,0,8,0,10-4,0,0,18,11,15,29.06,0,0,3,8,10,1,0,0,2-23-21-39.07,0,0,8-49.09,0-57.1s-15-9-11-19a48.73,48.73,0,0,1,11-8c6-3,8-8,10-14s5-14,10-14,7,1,7,1-17,10-22,31,9,30.06,9,30.06,17,10,29-7c0,0,6-13,7-12s9,20,19,19,14-5,23-22c0,0,1-2,2,1s7,21,21,23,20-16,20-16,4-14,7-12,6,21,21,20,27.05-22,27.05-22-3,11,5,18c0,0-24-7-27.05,15,0,0-1,8-1,11,0,0-10-31.06-26-26.05s-13,43.08-20,39.07-4-33.06-25.05-34.06-20,35.06-25,22-12-27.05-27.05-21-8,33.06-22,29.05-26-2-25,8,13,9,15,11,19,6,27.05-2,11-22,13-19,5,22,20,23,23-24,23-24,5,29,28.05,28,23-27,23-27,6,23,22,22,21-25,20-34.06c0,0,27.05,9,37.07,3s10-16,1-26c0,0-8-8-15-11,0,0,9-11,0-23s-24-10-33.06,0-11,19-14,15-15-24-31.06-15-13,27-17,22-12-30.06-35.06-17a30.64,30.64,0,0,0-10,14s-13-22-29.05-12c0,0-11,5-16,21,0,0-4-21,16-27,0,0,23,1,36.06-5s36.77-20.82,50.94-38C428.65,741.63,421.79,744.53,404.76,734.51Z"/><path class="cls-18" d="M328.62,768.57s9-5,29.06-6,40.07-25,46.08-26,25,10,36.06,7,22-7,35.07-3,14,21,26,14,12-15,28.05-9,24,17,23,26-6,12,0,18,20,17,17,36.06-10,14-16,18-7,7-7,13-1,13-18,17-21,2-29.05,0-10-6-15,0,1,11-10,15-19,5-28.05,2-9,9-11,19-12,14.64-12,20c0,9,1,6,9,12,8.52,6.39,11,15,6,32.06s-17,42.07-27.05,33-24-54.09-12-63.11,11-13,7-19-12-4-10-19,12-16,23.05-16,5-13,7-18,7-10,29.05-8,29,2,34.06-5,19-16,37.07-12c0,0,12,1,10-9s-11-13-9-26,5-11,8-16,2-10-4-13-10,3-21-5-13-9-18-7c-3.6,1.44-16,6-28.64,4.71A28.26,28.26,0,0,1,445,765.46c-3.56-4.08-8.92-8.55-13.18-4.91-6.15,5.28-13.85,16.72-33.22,11.33a38.57,38.57,0,0,1-12.29-6.07c-4.42-3.21-12.17-7.65-17.6-4.25C360.68,766.57,349.66,779.59,328.62,768.57Z"/><path class="cls-19" d="M255,618.49a5.38,5.38,0,0,1,2.09-5.46c8.77-6.66,47.08-30.3,155.16-36.3,0,0,100.68-6.52,158.29,38.06,0,0,4.51,3.51,1.5,6.52a4.75,4.75,0,0,1-6,1s-26.73-21.19-71.13-31.06c-36.06-8-141.25-16-231.41,28C263.51,619.3,256.27,623.65,255,618.49Z"/><path class="cls-20" d="M351.52,76.7a1.89,1.89,0,0,0-2.49.75c-.81,1.33-2.37,4.89-4.38,5.89-3.23,1.62-4,7-3,11s4,7,1,9-7,2-7,4,6,1,10-1,3-8,1-12,1-9,2-10S354.1,78.16,351.52,76.7Z"/><path class="cls-20" d="M356.73,60.47a.29.29,0,0,0-.34-.43c-2.11.7-8,3.1-11.24,8.78-4,7-5,5-7,14s-6,14-6,20,1,13,0,15-1,4,0,4,7-12,13-9,11.53,7.51,13.53,5.51c0,0,1-4,4-5s-5-5-5-10,0-7,1-10,2-8,5-6-3,11-2,15,3,6,4,8,6-2,14,0c0,0,5,1,7-5s7-6,7-10c0,0-16,1-18-12a33.9,33.9,0,0,1,0-11,6.55,6.55,0,0,0-8,3c-3,5-8,6-11,4s-6-6-4-11A45.78,45.78,0,0,1,356.73,60.47Z"/><path class="cls-20" d="M362.45,56.83A2.19,2.19,0,0,0,360.79,59a17.3,17.3,0,0,1-3.11,9.37c-4,6,4,8,5,7s2.75-7.16,10.41-7.11a2.18,2.18,0,0,0,2.16-1.58C376.34,62.65,377.49,53.19,362.45,56.83Z"/><path class="cls-20" d="M352.67,58.3s8-8,11-10,7-5,9-6,11-2,13-4,2,7-5,7-8,2-12,5-13,8-16,8"/><path class="cls-20" d="M359.54,123.78a2.65,2.65,0,0,0-2.3-1.79c-1.8-.15-5-.81-10.08-3.08-9-4-14,10-13,12s3,2,6,0,8-1,5,1-8,4-6,9,17,4,20,4,11-4,15-4,5-4,0-4C369.76,136.94,361.38,129.06,359.54,123.78Z"/><path class="cls-20" d="M352.54,156.74a6.94,6.94,0,0,1,.08-4.23,3.65,3.65,0,0,1,4.56-2.55c10,2,17-3,19-4s23,0,26.05-1,10,1,10,7c0,0-1.46,4.39,6.24-1,3.8-2.66,9.23,0,9.1,4.61-.18,6.6-13.33-1.08-13.33,4.39,0,5-2,7-9,11s-9,17-14,17-7-1-5-4,4-8-1-11-11.21,2.41-20-2S353.42,159.89,352.54,156.74Z"/><path class="cls-20" d="M378.71,57.3c1,3-1,24,3,28.05s10,9,19-1,11,0,18,0,13,0,20,8,5,4,6,0,4-26-9-33.06-17-10-12-16,14-5,9-11-21,2-26.05,2-9,4-13,4a4.72,4.72,0,0,0-4.55,3.42,11.27,11.27,0,0,1-10.48,8.61C367.69,51.29,377.71,54.29,378.71,57.3Zm13.53,20.53c23,1,4-26,8-35.06s18-2,20,1-2,3-2,3c-1,0-3-3-9-4s-5,3-4,8,4,12,3,20c-1.12,9-13,14-16,11S392.24,77.83,392.24,77.83Z"/><path class="cls-20" d="M469.38,109.89c-6-3-20-3-28.05-9s-11-12-18-12-14-7-17-2-7,7-7,9-9,12-7,15,17,9,14,16-21,0-14-1,10,1,10,0-8-6-10-9l-.06-.08a5,5,0,0,0-5.95-1.82,17.53,17.53,0,0,1-6,.9c-6,0-13-2-14,4s8,12,14,14,5,7,7,7,15-3,20-1,7,8,9,8a32.36,32.36,0,0,1,12,2c5,2,9-3,6-9s-1-5,0-5,8,10,4,16-9,2-8,4,3,5,5,5,15,0,19,1,9,1,13-3,6-9,8-12,1-2,3-4,4-2,2-12S475.39,112.9,469.38,109.89Zm-2,27.05c-1,3-1-3-8-3s-1-10-11-11-30-15-33.06-17-4-4-6-4c0,0-5,0-3-2s8,0,10,2,14,12,25.05,15,14,5,16,8-1,3,3,5S468.37,133.94,467.37,136.94Z"/><path class="cls-20" d="M521.47,101.88c-1-1-1,1-7,1s-11-1-13,3-11,9-13,11-9,0-7-2,9-3,13-7,5-5,2-8-8-6-10-8-6-3-5-4,4-2,6,0,6,6,9,7,3,7,7,6,10,0,14-4,3-6-1-12-3-15-10-13-19,8-20,8-4-1,0-4c3.66-2.74,14.83-10.5,21.32-10.3a.74.74,0,0,0,.63-1.2c-1.4-1.77-3.89-4.53-5.92-4.53-3,0-2-1-2-2s3-2,2-3-3-3-6-2-2-2-1-3-5-5-15-8-18-9-23-9-9,1-12-1c-2.63-1.75-7.56-2.74-8.75-1.61a.7.7,0,0,0,0,.92c1.06,1.39,5,7.2-.24,10.71-6,4-7,3-8,7s7,1,13,8,10,11,10,19-3,23,1,25,12,1,19,6,10,19,11,19,8-3,14,0,9,9,12,6S522.47,102.88,521.47,101.88Zm-41.93-8.41c0,1.93-3,1.93-3,0,0-3.21.15-6.64-1.17-9.63s-4.29-4.86-6.69-7a16.48,16.48,0,0,1-3.1-3.6,32,32,0,0,1-4.66,8.22c-.69.88-1.56,1.67-2.17,2.61a5.05,5.05,0,0,0-.46,3.34,13.29,13.29,0,0,1-1,7c-.78,1.76-3.37.23-2.59-1.52,1.07-2.41.4-4.63.5-7.12S456.57,82,458,80.29a29.05,29.05,0,0,0,6-12,1.46,1.46,0,0,1,.44-.75,4.45,4.45,0,0,1,.79-1.64,10.81,10.81,0,0,1,3.1-2.39c2.49-1.53,5.37-2.93,7-5.46,1.48-2.28,1.65-5-.53-6.87-2-1.7-4.6-2.36-6.8-3.67a10.37,10.37,0,0,1-3-2.59,14.53,14.53,0,0,1-1.65-3.44c-1.29-3.06-4.66-2.28-7.26-1.62-2.77.7-5.73,1.19-8.31-.41-1.64-1-.13-3.61,1.52-2.59,3,1.87,6.85-.5,10-.64a7.75,7.75,0,0,1,4.22,1,7,7,0,0,1,2.83,3.87,6.73,6.73,0,0,0,2.24,3.27,19.62,19.62,0,0,0,3.58,1.93c2.41,1.09,5,2.36,6.37,4.74A8.08,8.08,0,0,1,478.3,59c-1.41,2.63-3.86,4.4-6.34,5.92a39.75,39.75,0,0,0-3.84,2.39c-1.27,1-.93,2.55-.28,3.86,1.3,2.64,3.93,4.33,6.08,6.2a14.82,14.82,0,0,1,4.87,7.23A30.71,30.71,0,0,1,479.54,93.47Z"/><g class="cls-21"><path class="cls-22" d="M342.78,442.93a3.75,3.75,0,0,0-5.85,2.71l-.05-.27c-8.6.48-12.3-.9-13.88-2.2a32.65,32.65,0,0,0-.52-3.29c.2-.66,1.17-1.95,5.59-2.89l0-.17a2.31,2.31,0,0,0,.77.94,2.46,2.46,0,1,0-1-2c-.53.17-4.18,1.27-6.29.64a30.24,30.24,0,0,0-3.93-7.75c-.35-1.07-.44-4.4,8.15-10.44l0-.06a5,5,0,1,0-2.33-3.75,4.92,4.92,0,0,0,.64,2c-1.64,1.36-8,6.37-12.19,6.06a30.57,30.57,0,0,0-15.45-6.66c-1-.77-2.32-3-2.18-9.6l-.28,0a3.94,3.94,0,1,0-3.8-1.31,3.91,3.91,0,0,0,2.11,1.28c.06.84.4,6.22-1,9.41a30.6,30.6,0,0,0-16,5.19,16,16,0,0,1-2.56-3.7l-.17.08a2.72,2.72,0,0,0,.73-1.08,2.62,2.62,0,1,0-3.37,1.57,2.67,2.67,0,0,0,1.65.05,20.07,20.07,0,0,1,2.15,4.21,31,31,0,0,0-6.18,6.34c-1.24-.08-3.87-1-8.76-5.32a4.3,4.3,0,0,0,.15-1.19,3.72,3.72,0,1,0-3.74,3.7,4.27,4.27,0,0,0,2.43-.76c1.23.93,6.31,5,7.1,8.28a30.38,30.38,0,0,0-3,12.62c-.63.63-2.64,1.87-8.43,1.31a2.78,2.78,0,0,0-.63-1,2.92,2.92,0,1,0-.1,4.13,2.85,2.85,0,0,0,.85-1.55c1.44-.06,7-.14,8.57,1.95a30.76,30.76,0,0,0,13,21.23c.13,1.4-.08,5.64-5.92,11.16l.17.19a3.34,3.34,0,0,0-1.66-.47,3.48,3.48,0,1,0,2.76,1.48c.67-.79,6.9-8.16,10.43-9.22a30.84,30.84,0,0,0,18.58,1.52c1.38.24,3.93,1.44,5.47,6.79a2.93,2.93,0,1,0,1.36-.83c-.59-1.25-2.66-6.1-.73-8.06a30.91,30.91,0,0,0,8.58-6c1.88.1,4.83,1.47,9.34,6.17l.2-.15a3.48,3.48,0,1,0,3.29-1.33,3.41,3.41,0,0,0-2.15.37c-.68-.55-5.63-4.71-7.35-8.93a30.78,30.78,0,0,0,3-5,38.8,38.8,0,0,1,4.46,1.62l.13-.21a3.45,3.45,0,0,0,0,1.72,3.48,3.48,0,1,0,2.51-4.23,3.41,3.41,0,0,0-1.84,1.18,35.51,35.51,0,0,1-4.55-1.71,30.62,30.62,0,0,0,2-8.46c3.53-3.1,13-2.15,14.11-2a3.72,3.72,0,0,0,1.42,1.89,3.75,3.75,0,1,0,4.24-6.18Z"/><path class="cls-22" d="M272.43,467.64s2.62-3.1-.67-7.37-3.78-8.06-3.24-11.19,6.82-2.22,6.37-10.84,3.84-6.43,6-7,2.33-.41,4.6-5.18a5.2,5.2,0,0,1,6-2.87,6.51,6.51,0,0,1,2.69,1.12c7.44,5.08,13.67-1.31,14.64-2.74,0,0-22.84-15.09-40.52,8.15C268.29,429.7,254.05,447.89,272.43,467.64Z"/><ellipse class="cls-22" cx="311.61" cy="439.89" rx="4.98" ry="6.16" transform="translate(-226.94 463.8) rotate(-57.23)"/><path class="cls-22" d="M315.22,450.91c1.22,1.46,1.25,3.43.07,4.42s-3.12.6-4.34-.86-1.11-2.64.07-3.62S314,449.45,315.22,450.91Z"/><ellipse class="cls-22" cx="293.41" cy="461.66" rx="2.78" ry="3.44" transform="translate(-242.02 349.74) rotate(-45.76)"/><ellipse class="cls-22" cx="292.21" cy="454.74" rx="1.27" ry="1.57" transform="translate(-237.43 346.79) rotate(-45.76)"/></g><g class="cls-21"><path class="cls-22" d="M539.72,370.13a2.52,2.52,0,0,0-3.5.65,2.68,2.68,0,0,0-.43,1.17l0-.18c-5.76.31-8.24-.61-9.3-1.48a20.15,20.15,0,0,0-.35-2.2c.13-.44.79-1.31,3.75-1.94l0-.11a1.65,1.65,0,1,0,.17-1.67,1.62,1.62,0,0,0-.32,1c-.36.11-2.8.85-4.21.43a20.37,20.37,0,0,0-2.64-5.2c-.23-.71-.29-2.95,5.47-7l0,0a3.38,3.38,0,0,0,5.16-3.21,3.38,3.38,0,0,0-6.73.7,3.42,3.42,0,0,0,.43,1.32c-1.09.92-5.33,4.27-8.16,4.07A20.44,20.44,0,0,0,508.63,352c-.65-.51-1.56-2-1.46-6.43l-.19,0a2.51,2.51,0,0,0,1.17-.57,2.63,2.63,0,1,0-3.71-.3,2.59,2.59,0,0,0,1.41.86c0,.56.26,4.16-.67,6.3a20.53,20.53,0,0,0-10.7,3.48,11,11,0,0,1-1.72-2.48l-.11.05a1.84,1.84,0,0,0,.49-.72,1.76,1.76,0,1,0-2.26,1.05,1.67,1.67,0,0,0,1.1,0,13.3,13.3,0,0,1,1.45,2.83,20.79,20.79,0,0,0-4.14,4.24c-.83,0-2.6-.64-5.87-3.56a3.18,3.18,0,0,0,.1-.8,2.5,2.5,0,1,0-2.5,2.48,2.91,2.91,0,0,0,1.62-.51c.82.63,4.23,3.33,4.75,5.55a20.49,20.49,0,0,0-2,8.46c-.42.42-1.77,1.25-5.65.87a2,2,0,0,0-.42-.67,2,2,0,1,0-.06,2.77,2,2,0,0,0,.57-1c1,0,4.71-.1,5.73,1.3a20.63,20.63,0,0,0,8.73,14.23c.09.94-.06,3.78-4,7.48l.11.12a2.28,2.28,0,0,0-1.11-.31,2.33,2.33,0,1,0,2.27,2.39,2.25,2.25,0,0,0-.42-1.4c.45-.53,4.62-5.47,7-6.18a20.71,20.71,0,0,0,12.45,1c.92.16,2.63,1,3.66,4.55a1.92,1.92,0,0,0-.41.69,2,2,0,1,0,2.49-1.21,1.88,1.88,0,0,0-1.17,0c-.39-.85-1.78-4.09-.48-5.41a20.52,20.52,0,0,0,5.74-4c1.26.07,3.24,1,6.26,4.14l.14-.1a2.3,2.3,0,0,0-.45,1.06,2.32,2.32,0,1,0,1.2-1.71c-.45-.37-3.77-3.15-4.92-6a20.31,20.31,0,0,0,2-3.37,27.93,27.93,0,0,1,3,1.09l.08-.14a2.35,2.35,0,0,0,0,1.15,2.33,2.33,0,1,0,1.68-2.83,2.3,2.3,0,0,0-1.23.79,25.93,25.93,0,0,1-3-1.14,20.7,20.7,0,0,0,1.37-5.68c2.37-2.07,8.69-1.44,9.45-1.35a2.55,2.55,0,0,0,1,1.26,2.51,2.51,0,1,0,2.85-4.14Z"/><path class="cls-22" d="M492.58,386.68s1.76-2.07-.45-4.93a9.27,9.27,0,0,1-2.17-7.5c.36-2.1,4.57-1.48,4.27-7.26s2.57-4.31,4-4.7,1.56-.28,3.08-3.47a3.49,3.49,0,0,1,4-1.93,4.65,4.65,0,0,1,1.81.75c5,3.41,9.15-.87,9.8-1.83,0,0-15.29-10.11-27.14,5.46C489.81,361.27,480.27,373.45,492.58,386.68Z"/><ellipse class="cls-22" cx="518.83" cy="368.09" rx="3.34" ry="4.13" transform="translate(-71.51 605.1) rotate(-57.23)"/><path class="cls-22" d="M521.25,375.48a1.9,1.9,0,1,1-2.86,2.38c-.82-1-.74-1.76.05-2.42A1.91,1.91,0,0,1,521.25,375.48Z"/><ellipse class="cls-22" cx="506.64" cy="382.68" rx="1.86" ry="2.3" transform="translate(-120.99 478.61) rotate(-45.76)"/><ellipse class="cls-22" cx="505.83" cy="378.04" rx="0.85" ry="1.05" transform="translate(-117.91 476.64) rotate(-45.76)"/></g><g class="cls-21"><path class="cls-22" d="M551.46,592.75a1.69,1.69,0,0,0-2.35.44,1.66,1.66,0,0,0-.29.78l0-.12c-3.87.21-5.53-.41-6.25-1a14.26,14.26,0,0,0-.23-1.48c.09-.3.53-.88,2.52-1.3V590a1.06,1.06,0,0,0,.34.42,1.09,1.09,0,1,0-.45-.88,6.27,6.27,0,0,1-2.82.29,14,14,0,0,0-1.77-3.49c-.16-.48-.2-2,3.66-4.7v0a2.26,2.26,0,1,0-1.06-1.68,2.45,2.45,0,0,0,.29.89c-.73.61-3.58,2.86-5.48,2.73a13.78,13.78,0,0,0-6.95-3c-.44-.35-1.05-1.36-1-4.32h-.13a1.83,1.83,0,0,0,.79-.39,1.77,1.77,0,1,0-2.5-.2,1.87,1.87,0,0,0,1,.58,10.77,10.77,0,0,1-.45,4.23,13.78,13.78,0,0,0-7.18,2.34,7.42,7.42,0,0,1-1.16-1.67l-.07,0a1.12,1.12,0,0,0,.33-.48,1.18,1.18,0,0,0-.71-1.51,1.18,1.18,0,1,0-.07,2.24,8.88,8.88,0,0,1,1,1.89,14.22,14.22,0,0,0-2.78,2.86c-.56,0-1.74-.43-3.94-2.4a2.06,2.06,0,0,0,.07-.53,1.68,1.68,0,1,0-3.35,0,1.66,1.66,0,0,0,1.67,1.68,2,2,0,0,0,1.09-.34c.55.42,2.84,2.24,3.19,3.73a13.8,13.8,0,0,0-1.37,5.67c-.28.29-1.18.84-3.79.59a1.26,1.26,0,0,0-.28-.45,1.32,1.32,0,0,0-1.91,1.82,1.32,1.32,0,0,0,1.86,0,1.26,1.26,0,0,0,.39-.7c.65,0,3.16-.06,3.85.88a13.81,13.81,0,0,0,5.86,9.55c.06.63,0,2.54-2.67,5l.08.09a1.45,1.45,0,0,0-.74-.21,1.56,1.56,0,1,0,1.52,1.6,1.6,1.6,0,0,0-.28-.94c.3-.35,3.1-3.67,4.69-4.15a13.85,13.85,0,0,0,8.36.69c.62.11,1.77.65,2.46,3a1.32,1.32,0,1,0,2.21,1.33,1.32,1.32,0,0,0-.82-1.68,1.3,1.3,0,0,0-.78,0c-.26-.56-1.19-2.74-.33-3.63a13.84,13.84,0,0,0,3.86-2.68c.85,0,2.18.66,4.21,2.78l.09-.07a1.61,1.61,0,0,0-.31.72,1.58,1.58,0,1,0,.82-1.15,12.51,12.51,0,0,1-3.31-4,13.81,13.81,0,0,0,1.33-2.26,19.06,19.06,0,0,1,2,.73l.06-.09a1.54,1.54,0,0,0,0,.77,1.56,1.56,0,1,0,1.13-1.9,1.52,1.52,0,0,0-.83.53,16.68,16.68,0,0,1-2.05-.77,13.79,13.79,0,0,0,.92-3.81c1.59-1.39,5.84-1,6.35-.91a1.68,1.68,0,1,0,2.55-1.93Z"/><path class="cls-22" d="M519.8,603.87a2.6,2.6,0,0,0-.3-3.32,6.24,6.24,0,0,1-1.46-5c.24-1.41,3.07-1,2.87-4.88s1.73-2.89,2.72-3.16,1-.18,2.06-2.33a2.34,2.34,0,0,1,2.68-1.29,2.94,2.94,0,0,1,1.21.5c3.35,2.29,6.15-.58,6.59-1.23,0,0-10.27-6.79-18.23,3.67C517.94,586.8,511.54,595,519.8,603.87Z"/><ellipse class="cls-22" cx="537.43" cy="591.38" rx="2.24" ry="2.77" transform="translate(-250.73 723.17) rotate(-57.23)"/><path class="cls-22" d="M539.06,596.34a1.28,1.28,0,1,1-1.93,1.6c-.54-.65-.49-1.18,0-1.63A1.29,1.29,0,0,1,539.06,596.34Z"/><ellipse class="cls-22" cx="529.24" cy="601.17" rx="1.25" ry="1.55" transform="translate(-270.68 560.86) rotate(-45.76)"/><ellipse class="cls-22" cx="528.7" cy="598.06" rx="0.57" ry="0.71" transform="translate(-268.62 559.53) rotate(-45.76)"/></g><g class="cls-21"><path class="cls-22" d="M445,306.44a.94.94,0,0,0-1.31.24,1.07,1.07,0,0,0-.16.44v-.07c-2.17.12-3.1-.23-3.5-.55a7.55,7.55,0,0,0-.13-.83c.05-.17.3-.49,1.41-.73v0a.55.55,0,0,0,.2.23.6.6,0,0,0,.86-.13.62.62,0,0,0-.13-.86.63.63,0,0,0-.87.13.56.56,0,0,0-.11.37,3.52,3.52,0,0,1-1.59.16,7.62,7.62,0,0,0-1-1.95c-.09-.27-.11-1.11,2.05-2.63v0a1.27,1.27,0,1,0-.58-.94,1.09,1.09,0,0,0,.16.5c-.41.34-2,1.6-3.07,1.52a7.63,7.63,0,0,0-3.89-1.67c-.25-.2-.59-.76-.55-2.42h-.07a1,1,0,0,0,.44-.21,1,1,0,0,0-1.29-1.51,1,1,0,0,0,.42,1.72,6,6,0,0,1-.25,2.37,7.68,7.68,0,0,0-4,1.3,4.05,4.05,0,0,1-.65-.93l0,0a.64.64,0,0,0,.18-.27.66.66,0,1,0-1.24-.45.65.65,0,0,0,.4.84.58.58,0,0,0,.41,0,4.79,4.79,0,0,1,.54,1.06,7.54,7.54,0,0,0-1.55,1.59c-.32,0-1-.24-2.21-1.34a1.21,1.21,0,0,0,0-.3.94.94,0,1,0-.94.94,1.05,1.05,0,0,0,.61-.2c.31.24,1.59,1.26,1.78,2.09a7.87,7.87,0,0,0-.76,3.18c-.16.16-.66.47-2.12.33a.82.82,0,0,0-.16-.25.73.73,0,1,0,.19.65c.36,0,1.77,0,2.15.49a7.79,7.79,0,0,0,3.29,5.35c0,.35,0,1.42-1.5,2.81l.05,0a1,1,0,0,0-.42-.12.88.88,0,0,0-.9.86.89.89,0,0,0,.85.9.88.88,0,0,0,.9-.86.8.8,0,0,0-.16-.52c.17-.2,1.74-2.06,2.63-2.32a7.78,7.78,0,0,0,2.94.57,7.67,7.67,0,0,0,1.74-.19c.35.06,1,.36,1.38,1.71a.76.76,0,0,0-.16.26.74.74,0,0,0,.46.94.73.73,0,0,0,.93-.46.73.73,0,0,0-.89-1c-.15-.32-.67-1.54-.18-2a8.12,8.12,0,0,0,2.16-1.5c.47,0,1.21.37,2.35,1.55l.05,0a.76.76,0,0,0-.17.4.88.88,0,0,0,.74,1,.86.86,0,0,0,1-.73.87.87,0,0,0-.73-1,.89.89,0,0,0-.54.09,6.85,6.85,0,0,1-1.85-2.25,7.86,7.86,0,0,0,.74-1.26,9.49,9.49,0,0,1,1.13.41l0-.06a.82.82,0,0,0,0,.44.87.87,0,0,0,1.06.63.88.88,0,1,0-.43-1.7.87.87,0,0,0-.46.3,8.29,8.29,0,0,1-1.15-.43A7.62,7.62,0,0,0,440,308c.89-.78,3.27-.54,3.56-.51a.91.91,0,0,0,.36.47.94.94,0,0,0,1.31-.24A1,1,0,0,0,445,306.44Z"/><path class="cls-22" d="M427.29,312.66a1.46,1.46,0,0,0-.17-1.86,3.45,3.45,0,0,1-.81-2.81c.13-.79,1.72-.56,1.6-2.73s1-1.62,1.52-1.77.59-.11,1.16-1.31a1.31,1.31,0,0,1,1.5-.72,1.69,1.69,0,0,1,.68.28,2.7,2.7,0,0,0,3.69-.69,7.47,7.47,0,0,0-10.21,2.05S422.67,307.69,427.29,312.66Z"/><ellipse class="cls-22" cx="437.16" cy="305.67" rx="1.25" ry="1.55" transform="translate(-56.49 507.8) rotate(-57.23)"/><path class="cls-22" d="M438.07,308.45a.71.71,0,1,1-1.07.89c-.31-.36-.28-.66,0-.91A.72.72,0,0,1,438.07,308.45Z"/><ellipse class="cls-22" cx="432.58" cy="311.15" rx="0.7" ry="0.87" transform="translate(-92.14 403.94) rotate(-45.76)"/><ellipse class="cls-22" cx="432.28" cy="309.41" rx="0.32" ry="0.4" transform="translate(-90.98 403.2) rotate(-45.76)"/></g><path class="cls-23" d="M803.5,219.46a5.57,5.57,0,0,0-8.69,4l-.07-.4c-12.77.7-18.26-1.34-20.61-3.27a45.74,45.74,0,0,0-.77-4.87c.3-1,1.75-2.9,8.31-4.29l0-.26a3.53,3.53,0,0,0,1.14,1.39,3.66,3.66,0,1,0-1.48-2.92c-.79.25-6.2,1.88-9.33.95a45.36,45.36,0,0,0-5.84-11.51c-.52-1.58-.65-6.53,12.1-15.49l-.06-.09a7.48,7.48,0,1,0-3.47-5.56,7.65,7.65,0,0,0,.95,2.94c-2.42,2-11.8,9.45-18.07,9a45.52,45.52,0,0,0-22.94-9.89c-1.44-1.14-3.45-4.47-3.24-14.24l-.42,0a5.83,5.83,0,1,0-2.5,0c.09,1.24.59,9.22-1.48,14a45.36,45.36,0,0,0-23.7,7.69,23.59,23.59,0,0,1-3.81-5.49l-.25.12a4,4,0,0,0,1.09-1.6,3.9,3.9,0,1,0-5,2.33,3.86,3.86,0,0,0,2.44.07,30.06,30.06,0,0,1,3.2,6.25,46,46,0,0,0-9.18,9.41c-1.83-.12-5.74-1.42-13-7.9A6.69,6.69,0,0,0,679,188a5.53,5.53,0,1,0-5.55,5.5,6.35,6.35,0,0,0,3.6-1.13c1.83,1.38,9.37,7.38,10.53,12.29a45.43,45.43,0,0,0-4.51,18.74c-.93.93-3.9,2.77-12.51,1.93a4.34,4.34,0,1,0,.19,2.35c2.14-.09,10.45-.22,12.71,2.89a45.65,45.65,0,0,0,19.33,31.51c.19,2.08-.13,8.37-8.8,16.57l.26.27a5.22,5.22,0,0,0-2.46-.7,5.16,5.16,0,1,0,5,5.3,5.07,5.07,0,0,0-.94-3.09c1-1.19,10.24-12.11,15.49-13.69A45.75,45.75,0,0,0,739,269c2,.36,5.83,2.15,8.11,10.09a4.53,4.53,0,0,0-.92,1.53,4.37,4.37,0,1,0,2.94-2.76c-.87-1.87-3.94-9.06-1.08-12A45.75,45.75,0,0,0,760.73,257c2.79.15,7.18,2.18,13.87,9.15l.3-.22a5.16,5.16,0,0,0,3.34,8.23,5.16,5.16,0,1,0-1.66-9.65c-1-.82-8.35-7-10.9-13.26a45.63,45.63,0,0,0,4.39-7.46,59.12,59.12,0,0,1,6.63,2.42l.19-.32a5,5,0,0,0,0,2.55,5.18,5.18,0,1,0,1-4.52,53.82,53.82,0,0,1-6.76-2.53,45.43,45.43,0,0,0,3-12.57c5.24-4.6,19.25-3.19,20.93-3a5.56,5.56,0,1,0,8.41-6.38Z"/><path class="cls-24" d="M699.08,256.13s3.9-4.59-1-10.93-5.61-12-4.81-16.61,10.13-3.29,9.45-16.08,5.7-9.55,9-10.42,3.45-.61,6.82-7.69c2.11-4.43,6.13-4.69,8.84-4.26a10,10,0,0,1,4,1.66c11,7.54,20.28-1.93,21.72-4.07,0,0-33.88-22.39-60.13,12.1C692.94,199.83,671.81,226.83,699.08,256.13Z"/><ellipse class="cls-24" cx="757.23" cy="214.95" rx="7.39" ry="9.14" transform="translate(166.61 735.31) rotate(-57.23)"/><path class="cls-24" d="M762.59,231.3c1.81,2.17,1.85,5.11.1,6.57s-4.63.88-6.44-1.28-1.64-3.91.11-5.37S760.79,229.14,762.59,231.3Z"/><ellipse class="cls-24" cx="730.22" cy="247.26" rx="4.13" ry="5.1" transform="translate(43.6 597.85) rotate(-45.76)"/><ellipse class="cls-24" cx="728.44" cy="236.99" rx="1.89" ry="2.33" transform="translate(50.42 593.47) rotate(-45.76)"/><path class="cls-23" d="M756.71,651.35a3.75,3.75,0,0,0-5.85,2.72l-.05-.27c-8.6.47-12.3-.9-13.89-2.2a29.65,29.65,0,0,0-.51-3.29c.2-.66,1.17-1.95,5.59-2.89l0-.17a2.34,2.34,0,0,0,.76.93,2.46,2.46,0,1,0-1-2c-.54.17-4.18,1.27-6.29.64a30.63,30.63,0,0,0-3.93-7.76c-.36-1.06-.44-4.4,8.15-10.43l0-.07a5,5,0,1,0-2.34-3.75,5.13,5.13,0,0,0,.65,2c-1.64,1.36-8,6.37-12.19,6.06a30.53,30.53,0,0,0-15.45-6.67c-1-.76-2.32-3-2.18-9.6l-.28,0a3.95,3.95,0,1,0-1.69,0c.06.83.4,6.21-1,9.41a30.6,30.6,0,0,0-16,5.19,16.06,16.06,0,0,1-2.56-3.71l-.18.08a2.62,2.62,0,1,0-2.63.5,2.59,2.59,0,0,0,1.65,0,20.52,20.52,0,0,1,2.15,4.22,30.7,30.7,0,0,0-6.18,6.34c-1.24-.08-3.87-1-8.76-5.33a4.25,4.25,0,0,0,.15-1.19,3.72,3.72,0,1,0-3.74,3.71,4.32,4.32,0,0,0,2.43-.77c1.23.94,6.31,5,7.09,8.29a30.65,30.65,0,0,0-3,12.62c-.62.63-2.63,1.87-8.42,1.3a3.12,3.12,0,0,0-.63-1,2.93,2.93,0,1,0-.1,4.14,2.85,2.85,0,0,0,.85-1.55c1.44-.06,7-.15,8.57,1.94a30.76,30.76,0,0,0,13,21.24c.13,1.4-.08,5.64-5.93,11.16l.18.18a3.56,3.56,0,0,0-1.66-.47,3.49,3.49,0,1,0,2.76,1.49c.66-.8,6.9-8.16,10.43-9.23a30.71,30.71,0,0,0,11.68,2.3,31.38,31.38,0,0,0,6.9-.77c1.38.24,3.93,1.44,5.47,6.79a2.84,2.84,0,0,0-.62,1,2.93,2.93,0,1,0,2-1.86c-.58-1.26-2.65-6.1-.72-8.06a30.72,30.72,0,0,0,8.57-6c1.89.1,4.84,1.47,9.35,6.17l.2-.15a3.48,3.48,0,1,0,3.29-1.33,3.46,3.46,0,0,0-2.16.37c-.67-.55-5.62-4.71-7.34-8.94a30.78,30.78,0,0,0,3-5,37.23,37.23,0,0,1,4.46,1.63l.13-.22a3.53,3.53,0,1,0,.67-1.32,36.61,36.61,0,0,1-4.55-1.71,30.6,30.6,0,0,0,2-8.47c3.53-3.1,13-2.15,14.1-2a3.84,3.84,0,0,0,1.43,1.89,3.75,3.75,0,0,0,4.24-6.19Z"/><path class="cls-24" d="M686.36,676.06s2.62-3.09-.68-7.36-3.77-8.06-3.24-11.2,6.83-2.21,6.37-10.83,3.85-6.43,6-7,2.33-.41,4.6-5.18a5.18,5.18,0,0,1,5.95-2.87,6.67,6.67,0,0,1,2.7,1.11c7.44,5.09,13.66-1.3,14.64-2.74,0,0-22.84-15.09-40.52,8.16C682.22,638.13,668,656.32,686.36,676.06Z"/><ellipse class="cls-24" cx="725.54" cy="648.32" rx="4.98" ry="6.16" transform="translate(-212.31 907.45) rotate(-57.23)"/><path class="cls-24" d="M729.15,659.33c1.22,1.46,1.25,3.44.07,4.42s-3.13.6-4.34-.85-1.11-2.64.07-3.62S727.93,657.88,729.15,659.33Z"/><ellipse class="cls-24" cx="707.34" cy="670.08" rx="2.78" ry="3.44" transform="translate(-266.21 709.27) rotate(-45.76)"/><ellipse class="cls-24" cx="706.14" cy="663.16" rx="1.27" ry="1.57" transform="translate(-261.62 706.32) rotate(-45.76)"/><path class="cls-23" d="M191.65,378.88a2.07,2.07,0,0,0-3.24,1.51l0-.15c-4.77.26-6.82-.5-7.7-1.22a15.34,15.34,0,0,0-.29-1.82c.11-.37.66-1.09,3.11-1.61l0-.09a1.34,1.34,0,0,0,.43.52,1.36,1.36,0,1,0,1.61-2.19,1.35,1.35,0,0,0-1.9.29,1.28,1.28,0,0,0-.26.81,7.68,7.68,0,0,1-3.49.35,16.9,16.9,0,0,0-2.18-4.3c-.2-.59-.24-2.44,4.52-5.78l0,0a2.78,2.78,0,0,0,4.26-2.65,2.79,2.79,0,0,0-5.56.57,2.7,2.7,0,0,0,.36,1.1c-.91.76-4.41,3.53-6.76,3.36a17,17,0,0,0-8.56-3.69c-.54-.43-1.29-1.67-1.21-5.32h-.16a2.21,2.21,0,0,0,1-.48,2.18,2.18,0,1,0-3.07-.25,2.15,2.15,0,0,0,1.17.71,13.38,13.38,0,0,1-.56,5.22,16.88,16.88,0,0,0-8.85,2.88,9,9,0,0,1-1.42-2.06l-.1,0a1.5,1.5,0,0,0,.41-.6,1.45,1.45,0,1,0-1.87.87,1.53,1.53,0,0,0,.92,0,11.23,11.23,0,0,1,1.19,2.33,17.34,17.34,0,0,0-3.43,3.52c-.68-.05-2.14-.53-4.85-2.95a2.71,2.71,0,0,0,.08-.66,2.06,2.06,0,1,0-2.07,2.05,2.35,2.35,0,0,0,1.34-.43c.69.52,3.5,2.76,3.94,4.6a16.89,16.89,0,0,0-1.69,7c-.35.35-1.46,1-4.67.73a1.59,1.59,0,0,0-.35-.56,1.62,1.62,0,1,0-.05,2.3,1.66,1.66,0,0,0,.47-.87c.8,0,3.9-.08,4.75,1.08A17,17,0,0,0,154,394.79c.07.78,0,3.13-3.29,6.19l.1.1a2,2,0,0,0-.92-.26,1.93,1.93,0,1,0,1.88,2,1.89,1.89,0,0,0-.35-1.15c.37-.44,3.82-4.53,5.78-5.12a17.09,17.09,0,0,0,10.3.85c.77.13,2.18.8,3,3.76a1.57,1.57,0,0,0-.34.57,1.62,1.62,0,1,0,2.06-1,1.69,1.69,0,0,0-1,0c-.32-.69-1.47-3.38-.4-4.47a17.12,17.12,0,0,0,4.76-3.3c1,.06,2.68.82,5.18,3.42l.11-.08a1.93,1.93,0,1,0,1.82-.74,1.85,1.85,0,0,0-1.19.21c-.38-.31-3.12-2.62-4.08-5a16.55,16.55,0,0,0,1.65-2.78,21,21,0,0,1,2.47.9l.07-.12a2,2,0,1,0,.37-.73,21.83,21.83,0,0,1-2.52-.95,17,17,0,0,0,1.13-4.69c2-1.72,7.19-1.2,7.82-1.13a2,2,0,0,0,.79,1.05,2.08,2.08,0,0,0,2.35-3.43Z"/><path class="cls-24" d="M152.65,392.58s1.45-1.72-.37-4.08a7.67,7.67,0,0,1-1.8-6.21c.3-1.73,3.78-1.23,3.53-6s2.13-3.57,3.35-3.9,1.29-.22,2.55-2.87a2.88,2.88,0,0,1,3.3-1.59,3.7,3.7,0,0,1,1.49.62c4.13,2.82,7.58-.72,8.12-1.52,0,0-12.66-8.36-22.46,4.52C150.36,371.55,142.46,381.63,152.65,392.58Z"/><ellipse class="cls-24" cx="174.37" cy="377.2" rx="2.76" ry="3.41" transform="translate(-237.18 319.64) rotate(-57.23)"/><path class="cls-24" d="M176.37,383.31a1.58,1.58,0,1,1-2.37,2c-.67-.81-.61-1.46,0-2A1.59,1.59,0,0,1,176.37,383.31Z"/><ellipse class="cls-24" cx="164.28" cy="389.26" rx="1.54" ry="1.91" transform="translate(-229.2 235.35) rotate(-45.76)"/><ellipse class="cls-24" cx="163.62" cy="385.43" rx="0.7" ry="0.87" transform="translate(-226.65 233.72) rotate(-45.76)"/><path class="cls-23" d="M60.91,548.1a2.48,2.48,0,0,0-3.45.64A2.41,2.41,0,0,0,57,549.9l0-.18c-5.69.31-8.14-.6-9.19-1.46-.08-.74-.19-1.46-.34-2.18.13-.43.77-1.29,3.7-1.91l0-.12a1.63,1.63,0,1,0,.17-1.64,1.58,1.58,0,0,0-.32,1c-.35.12-2.76.84-4.16.43a20.37,20.37,0,0,0-2.6-5.14c-.24-.7-.29-2.91,5.39-6.91l0,0a3.31,3.31,0,1,0-1.13-1.17c-1.08.9-5.26,4.22-8.06,4a20.38,20.38,0,0,0-10.23-4.41c-.64-.51-1.54-2-1.45-6.35l-.18,0a2.53,2.53,0,0,0,1.15-.56,2.59,2.59,0,1,0-2.27.55c0,.55.26,4.11-.66,6.23a20.28,20.28,0,0,0-10.58,3.43A10.79,10.79,0,0,1,14.51,531l-.12,0a1.74,1.74,0,1,0-1.74.33,1.77,1.77,0,0,0,1.09,0,13.29,13.29,0,0,1,1.42,2.79,20.88,20.88,0,0,0-4.09,4.2c-.82-.06-2.56-.64-5.8-3.53a2.68,2.68,0,0,0,.1-.78,2.46,2.46,0,1,0-2.47,2.45A2.83,2.83,0,0,0,4.5,536c.82.62,4.18,3.3,4.7,5.49a20.28,20.28,0,0,0-2,8.35c-.42.42-1.74,1.24-5.58.87A2.12,2.12,0,0,0,1.2,550,1.94,1.94,0,0,0-1.54,550a1.93,1.93,0,0,0-.07,2.74,1.94,1.94,0,0,0,2.74.06,1.88,1.88,0,0,0,.56-1c1,0,4.66-.09,5.67,1.29A20.36,20.36,0,0,0,16,567.1c.08.93-.06,3.74-3.93,7.39l.12.12a2.42,2.42,0,0,0-1.1-.31,2.31,2.31,0,1,0,2.24,2.37,2.25,2.25,0,0,0-.41-1.38c.44-.53,4.56-5.4,6.91-6.11a20.25,20.25,0,0,0,7.73,1.52,20.69,20.69,0,0,0,4.56-.51c.92.16,2.6.95,3.62,4.5a2,2,0,0,0-.41.68,2,2,0,1,0,1.31-1.23c-.39-.83-1.75-4-.48-5.34a20.31,20.31,0,0,0,5.68-3.95c1.25.07,3.2,1,6.19,4.09l.13-.1a2.35,2.35,0,0,0-.44,1,2.29,2.29,0,1,0,1.19-1.69c-.44-.36-3.72-3.12-4.86-5.91A20.49,20.49,0,0,0,46,559,26.57,26.57,0,0,1,49,560l.09-.14a2.3,2.3,0,1,0,4.46,0,2.29,2.29,0,0,0-2.8-1.65,2.25,2.25,0,0,0-1.22.78,24.28,24.28,0,0,1-3-1.13,20.46,20.46,0,0,0,1.35-5.61c2.34-2,8.59-1.42,9.34-1.34a2.41,2.41,0,0,0,.94,1.25,2.48,2.48,0,1,0,2.81-4.09Z"/><path class="cls-24" d="M14.33,564.46s1.74-2.05-.45-4.88a9.16,9.16,0,0,1-2.14-7.41c.35-2.07,4.52-1.47,4.22-7.17s2.54-4.26,4-4.65,1.54-.27,3.05-3.43a3.43,3.43,0,0,1,3.94-1.9,4.36,4.36,0,0,1,1.78.74c4.93,3.36,9.05-.87,9.7-1.82,0,0-15.12-10-26.83,5.4C11.59,539.34,2.16,551.38,14.33,564.46Z"/><ellipse class="cls-24" cx="40.27" cy="546.09" rx="3.3" ry="4.08" transform="translate(-440.7 284.36) rotate(-57.23)"/><path class="cls-24" d="M42.66,553.38a1.88,1.88,0,1,1-2.83,2.36c-.8-1-.73-1.74.05-2.4A1.9,1.9,0,0,1,42.66,553.38Z"/><ellipse class="cls-24" cx="28.22" cy="560.5" rx="1.84" ry="2.28" transform="translate(-392.99 189.64) rotate(-45.76)"/><ellipse class="cls-24" cx="27.43" cy="555.92" rx="0.84" ry="1.04" transform="translate(-389.95 187.69) rotate(-45.76)"/><path class="cls-23" d="M100.55,967.13a3.89,3.89,0,0,0-5.4,1,3.8,3.8,0,0,0-.66,1.8l0-.27c-8.9.48-12.73-.94-14.37-2.28a29,29,0,0,0-.53-3.4c.2-.69,1.21-2,5.79-3l0-.19a2.54,2.54,0,1,0,3.8-3.11,2.54,2.54,0,0,0-4,2c-.55.18-4.32,1.31-6.5.66a31.87,31.87,0,0,0-4.07-8c-.37-1.1-.45-4.55,8.44-10.8l0-.06a5.13,5.13,0,0,0,3.3.77,5.22,5.22,0,1,0-5.72-4.65,5.05,5.05,0,0,0,.66,2.05c-1.69,1.41-8.23,6.59-12.6,6.27a31.67,31.67,0,0,0-16-6.9c-1-.79-2.41-3.11-2.26-9.92l-.29,0a4,4,0,0,0,1.81-.88,4.07,4.07,0,1,0-5.73-.46,4,4,0,0,0,2.17,1.32c.07.86.41,6.43-1,9.73a31.72,31.72,0,0,0-16.52,5.37A16.21,16.21,0,0,1,28,940.37l-.18.08a2.82,2.82,0,0,0,.76-1.11A2.73,2.73,0,1,0,26.84,941a21.08,21.08,0,0,1,2.22,4.36,32,32,0,0,0-6.39,6.56c-1.28-.08-4-1-9.06-5.51a5,5,0,0,0,.16-1.23A3.86,3.86,0,1,0,9.9,949a4.41,4.41,0,0,0,2.51-.79c1.27,1,6.52,5.15,7.34,8.57a31.63,31.63,0,0,0-3.15,13.06c-.65.65-2.72,1.93-8.72,1.35a3.15,3.15,0,0,0-.64-1,3,3,0,1,0-.11,4.28,2.94,2.94,0,0,0,.88-1.6c1.49-.06,7.29-.15,8.86,2a31.83,31.83,0,0,0,13.48,22c.13,1.45-.09,5.84-6.13,11.55l.18.19a3.66,3.66,0,1,0,1.13,1c.69-.83,7.14-8.44,10.8-9.54a31.76,31.76,0,0,0,12.08,2.37,32.22,32.22,0,0,0,7.14-.8c1.43.25,4.06,1.49,5.66,7a3.14,3.14,0,0,0-.65,1.07,3,3,0,1,0,3.85-1.88,3,3,0,0,0-1.8,0c-.61-1.3-2.75-6.31-.75-8.34a31.94,31.94,0,0,0,8.87-6.17c2,.11,5,1.53,9.67,6.39l.21-.16a3.49,3.49,0,0,0-.69,1.64,3.61,3.61,0,1,0,1.86-2.63c-.7-.57-5.82-4.88-7.6-9.25a31.77,31.77,0,0,0,3.07-5.19,39.82,39.82,0,0,1,4.61,1.68l.13-.22a3.6,3.6,0,1,0,2.6-2.6,3.62,3.62,0,0,0-1.91,1.23,38.63,38.63,0,0,1-4.7-1.77,31.9,31.9,0,0,0,2.11-8.76c3.65-3.21,13.42-2.22,14.59-2.09a3.83,3.83,0,0,0,1.48,1.95,3.88,3.88,0,0,0,4.39-6.4Z"/><path class="cls-24" d="M27.76,992.7s2.71-3.2-.7-7.62-3.91-8.34-3.35-11.58,7.06-2.29,6.59-11.21,4-6.66,6.25-7.27,2.4-.42,4.75-5.35c1.47-3.1,4.27-3.27,6.16-3a6.94,6.94,0,0,1,2.79,1.16C58,953.11,64.39,946.5,65.4,945c0,0-23.63-15.61-41.92,8.44C23.48,953.45,8.75,972.27,27.76,992.7Z"/><ellipse class="cls-24" cx="68.29" cy="963.99" rx="5.15" ry="6.37" transform="translate(-779.23 499.62) rotate(-57.23)"/><path class="cls-24" d="M72,975.39c1.26,1.51,1.29,3.56.07,4.57s-3.23.62-4.49-.89-1.14-2.72.08-3.74S70.77,973.88,72,975.39Z"/><ellipse class="cls-24" cx="49.46" cy="986.51" rx="2.88" ry="3.56" transform="translate(-691.75 333.64) rotate(-45.76)"/><ellipse class="cls-24" cx="48.22" cy="979.35" rx="1.32" ry="1.63" transform="translate(-687 330.58) rotate(-45.76)"/><path class="cls-23" d="M215.48,187.43a3.88,3.88,0,0,0-6.06,2.82l0-.28c-8.92.49-12.75-.94-14.39-2.28-.12-1.16-.3-2.29-.53-3.41.2-.68,1.21-2,5.79-3l0-.18a2.54,2.54,0,1,0,.26-2.58A2.5,2.5,0,0,0,200,180c-.55.18-4.33,1.32-6.52.66a31.45,31.45,0,0,0-4.07-8c-.37-1.1-.45-4.56,8.45-10.81l0-.07A5.26,5.26,0,1,0,196,160c-1.69,1.41-8.24,6.6-12.62,6.28a31.77,31.77,0,0,0-16-6.9c-1-.8-2.41-3.12-2.26-10l-.3,0a4.07,4.07,0,0,0,2.28-6.62,4.07,4.07,0,1,0-4,6.6c.06.86.41,6.44-1,9.75a31.61,31.61,0,0,0-16.54,5.37,16.59,16.59,0,0,1-2.66-3.84l-.18.09a2.66,2.66,0,0,0,.76-1.12,2.72,2.72,0,0,0-5.11-1.86,2.73,2.73,0,0,0,1.63,3.49,2.68,2.68,0,0,0,1.7.05,20.9,20.9,0,0,1,2.23,4.36,31.89,31.89,0,0,0-6.4,6.57c-1.29-.08-4-1-9.07-5.51a5.07,5.07,0,0,0,.15-1.24,3.86,3.86,0,1,0-3.87,3.84,4.47,4.47,0,0,0,2.51-.79c1.27,1,6.54,5.15,7.35,8.58a31.68,31.68,0,0,0-3.15,13.08c-.65.65-2.72,1.93-8.73,1.35a2.93,2.93,0,0,0-.65-1,3,3,0,1,0-.1,4.28,2.94,2.94,0,0,0,.88-1.6c1.49-.07,7.29-.15,8.87,2a31.89,31.89,0,0,0,13.5,22c.13,1.46-.09,5.85-6.14,11.57l.18.18a3.69,3.69,0,0,0-1.72-.48,3.61,3.61,0,1,0,2.86,1.54c.69-.83,7.15-8.46,10.81-9.56a31.79,31.79,0,0,0,12.1,2.38,32.28,32.28,0,0,0,7.14-.8c1.43.25,4.07,1.49,5.67,7a2.84,2.84,0,0,0-.64,1.06,3,3,0,1,0,2-1.92c-.6-1.3-2.75-6.32-.75-8.36a32,32,0,0,0,8.89-6.17c1.94.11,5,1.52,9.68,6.39l.21-.15a3.57,3.57,0,0,0-.7,1.64,3.6,3.6,0,1,0,1.87-2.64c-.7-.57-5.83-4.88-7.61-9.25a32,32,0,0,0,3.07-5.21,42.14,42.14,0,0,1,4.62,1.69l.13-.22a3.63,3.63,0,1,0,.7-1.38,36.69,36.69,0,0,1-4.72-1.77A31.62,31.62,0,0,0,195,194c3.66-3.21,13.44-2.23,14.61-2.09a3.89,3.89,0,1,0,5.87-4.46Z"/><path class="cls-24" d="M142.59,213s2.72-3.2-.69-7.63-3.92-8.35-3.36-11.59,7.07-2.3,6.6-11.23,4-6.66,6.26-7.27,2.41-.43,4.75-5.37c1.48-3.09,4.28-3.27,6.18-3a6.78,6.78,0,0,1,2.79,1.16c7.71,5.26,14.16-1.36,15.16-2.84,0,0-23.65-15.64-42,8.44C138.31,173.73,123.56,192.57,142.59,213Z"/><ellipse class="cls-24" cx="183.19" cy="184.29" rx="5.16" ry="6.38" transform="translate(-70.93 238.56) rotate(-57.23)"/><path class="cls-24" d="M186.93,195.7c1.26,1.51,1.29,3.56.06,4.58s-3.23.62-4.49-.89-1.15-2.73.08-3.75S185.67,194.19,186.93,195.7Z"/><ellipse class="cls-24" cx="164.33" cy="206.84" rx="2.88" ry="3.56" transform="translate(-98.5 180.24) rotate(-45.76)"/><ellipse class="cls-24" cx="163.09" cy="199.67" rx="1.32" ry="1.63" transform="translate(-93.74 177.19) rotate(-45.76)"/><g class="cls-25"><path class="cls-23" d="M834.43,138a1.93,1.93,0,0,0-2.69.5,2,2,0,0,0-.33.9l0-.14c-4.44.24-6.34-.47-7.16-1.14a15.66,15.66,0,0,0-.27-1.69c.1-.34.61-1,2.89-1.49l0-.09a1.3,1.3,0,0,0,.4.48,1.27,1.27,0,1,0-.27-1.77,1.19,1.19,0,0,0-.24.76,7.28,7.28,0,0,1-3.25.33,15.38,15.38,0,0,0-2-4c-.18-.55-.22-2.27,4.21-5.39l0,0a2.6,2.6,0,1,0-1.21-1.93,2.66,2.66,0,0,0,.33,1c-.84.7-4.1,3.29-6.28,3.13a15.74,15.74,0,0,0-8-3.44c-.5-.4-1.2-1.55-1.12-4.95h-.15a2.16,2.16,0,0,0,.9-.44,2,2,0,1,0-2.86-.23,2.11,2.11,0,0,0,1.09.66,12.44,12.44,0,0,1-.51,4.85,15.76,15.76,0,0,0-8.24,2.67,7.85,7.85,0,0,1-1.32-1.91l-.09.05a1.47,1.47,0,0,0,.38-.56,1.36,1.36,0,1,0-1.74.81,1.37,1.37,0,0,0,.85,0,10.93,10.93,0,0,1,1.11,2.18,16,16,0,0,0-3.19,3.27c-.64,0-2-.5-4.51-2.75a2.77,2.77,0,0,0,.07-.61,1.92,1.92,0,1,0-1.93,1.91,2.27,2.27,0,0,0,1.26-.4c.63.49,3.25,2.57,3.66,4.28a15.6,15.6,0,0,0-1.57,6.51c-.33.32-1.36,1-4.35.67a1.66,1.66,0,0,0-.32-.52,1.51,1.51,0,1,0,0,2.14,1.58,1.58,0,0,0,.44-.81c.74,0,3.63-.07,4.41,1a15.85,15.85,0,0,0,6.72,10.95c.07.72,0,2.91-3.06,5.76l.09.09a1.75,1.75,0,0,0-.85-.24,1.8,1.8,0,1,0,1.74,1.84,1.72,1.72,0,0,0-.32-1.07c.34-.42,3.56-4.21,5.38-4.76a16,16,0,0,0,9.58.78c.71.13,2,.75,2.82,3.51a1.42,1.42,0,0,0-.32.53,1.51,1.51,0,1,0,1.92-.94,1.54,1.54,0,0,0-.9,0c-.3-.65-1.37-3.15-.37-4.16a15.85,15.85,0,0,0,4.42-3.07c1,.05,2.49.76,4.82,3.18l.1-.08a1.88,1.88,0,0,0-.34.82,1.8,1.8,0,0,0,3.55.54,1.81,1.81,0,0,0-1.51-2.05,1.75,1.75,0,0,0-1.11.2,14.54,14.54,0,0,1-3.79-4.61,16,16,0,0,0,1.53-2.59,19.29,19.29,0,0,1,2.3.84l.06-.11a1.8,1.8,0,1,0,1.3-1.3,1.77,1.77,0,0,0-1,.61,18.09,18.09,0,0,1-2.35-.88,15.81,15.81,0,0,0,1.06-4.36c1.82-1.6,6.69-1.11,7.27-1.05a2,2,0,0,0,.73,1,1.93,1.93,0,0,0,2.19-3.19Z"/><path class="cls-24" d="M798.15,150.72s1.35-1.6-.35-3.8a7.12,7.12,0,0,1-1.67-5.77c.28-1.62,3.52-1.14,3.29-5.59s2-3.32,3.11-3.62,1.2-.21,2.37-2.67a2.68,2.68,0,0,1,3.07-1.48,3.53,3.53,0,0,1,1.39.57c3.84,2.62,7-.67,7.55-1.41,0,0-11.78-7.78-20.9,4.2C796,131.15,788.67,140.54,798.15,150.72Z"/><ellipse class="cls-24" cx="818.36" cy="136.41" rx="2.57" ry="3.18" transform="translate(260.69 750.68) rotate(-57.23)"/><path class="cls-24" d="M820.22,142.09a1.47,1.47,0,1,1-2.21,1.84c-.62-.75-.57-1.36,0-1.87A1.49,1.49,0,0,1,820.22,142.09Z"/><ellipse class="cls-24" cx="808.97" cy="147.64" rx="1.43" ry="1.77" transform="translate(138.77 624.15) rotate(-45.76)"/><ellipse class="cls-24" cx="808.35" cy="144.07" rx="0.66" ry="0.81" transform="translate(141.14 622.63) rotate(-45.76)"/></g><g class="cls-25"><path class="cls-23" d="M857.33,356.22a2.26,2.26,0,0,0-3.15.58,2.36,2.36,0,0,0-.39,1.06l0-.16c-5.2.28-7.44-.55-8.4-1.34a18.54,18.54,0,0,0-.31-2c.12-.4.71-1.18,3.38-1.75v-.11a1.4,1.4,0,0,0,.46.57,1.48,1.48,0,1,0-.31-2.07,1.43,1.43,0,0,0-.29.88,8.32,8.32,0,0,1-3.8.39,18.33,18.33,0,0,0-2.38-4.69c-.22-.65-.27-2.67,4.93-6.32l0,0a3,3,0,1,0-1.42-2.26,3.09,3.09,0,0,0,.39,1.2c-1,.82-4.81,3.85-7.37,3.66a18.46,18.46,0,0,0-9.35-4c-.58-.46-1.41-1.82-1.32-5.81h-.17a2.38,2.38,0,1,0-2-4.14,2.37,2.37,0,0,0-.27,3.35,2.3,2.3,0,0,0,1.27.77c0,.51.24,3.77-.6,5.7a18.5,18.5,0,0,0-9.67,3.14,10.21,10.21,0,0,1-1.55-2.24l-.1,0a1.59,1.59,0,1,0-1.59.3,1.53,1.53,0,0,0,1,0,11.81,11.81,0,0,1,1.3,2.55,18.66,18.66,0,0,0-3.74,3.84c-.74-.05-2.34-.58-5.29-3.22a3.08,3.08,0,0,0,.09-.72,2.26,2.26,0,1,0-2.26,2.24,2.62,2.62,0,0,0,1.46-.47c.75.57,3.82,3,4.3,5a18.48,18.48,0,0,0-1.84,7.64c-.38.38-1.59,1.13-5.1.79a1.77,1.77,0,1,0-.44,1.9,1.72,1.72,0,0,0,.51-.94c.88,0,4.26-.09,5.19,1.18a18.55,18.55,0,0,0,7.88,12.84c.07.85-.06,3.41-3.59,6.75l.1.12a2,2,0,0,0-1-.29,2.11,2.11,0,1,0,1.67.9c.4-.48,4.17-4.94,6.31-5.58a18.7,18.7,0,0,0,11.24.92c.84.14,2.38.87,3.31,4.11a1.85,1.85,0,0,0-.38.62,1.77,1.77,0,1,0,2.26-1.09,1.75,1.75,0,0,0-1.06,0c-.35-.76-1.61-3.69-.44-4.88a18.6,18.6,0,0,0,5.19-3.61c1.14.07,2.92.9,5.65,3.74l.13-.09a2,2,0,0,0-.41,1,2.1,2.1,0,1,0,2.39-1.77,2.07,2.07,0,0,0-1.3.23c-.41-.34-3.4-2.85-4.44-5.41a18.1,18.1,0,0,0,1.79-3,24.67,24.67,0,0,1,2.7,1l.07-.13a2,2,0,0,0,0,1,2.1,2.1,0,1,0,1.51-2.56,2.08,2.08,0,0,0-1.11.72,23.43,23.43,0,0,1-2.76-1,18.27,18.27,0,0,0,1.24-5.12c2.14-1.88,7.85-1.3,8.53-1.22a2.36,2.36,0,0,0,.87,1.14,2.27,2.27,0,0,0,2.56-3.74Z"/><path class="cls-24" d="M814.77,371.17s1.59-1.88-.41-4.46a8.41,8.41,0,0,1-2-6.77c.33-1.9,4.13-1.34,3.86-6.56s2.32-3.89,3.65-4.25,1.41-.24,2.78-3.13a3.15,3.15,0,0,1,3.6-1.74,4.19,4.19,0,0,1,1.63.68c4.51,3.07,8.27-.79,8.86-1.66,0,0-13.82-9.13-24.51,4.93C812.27,348.21,803.65,359.22,814.77,371.17Z"/><ellipse class="cls-24" cx="838.47" cy="354.38" rx="3.01" ry="3.73" transform="translate(86.64 867.58) rotate(-57.23)"/><path class="cls-24" d="M840.66,361a1.72,1.72,0,1,1-2.59,2.16c-.73-.88-.67-1.59,0-2.19A1.74,1.74,0,0,1,840.66,361Z"/><ellipse class="cls-24" cx="827.46" cy="367.55" rx="1.68" ry="2.08" transform="translate(-13.17 703.87) rotate(-45.76)"/><ellipse class="cls-24" cx="826.74" cy="363.36" rx="0.77" ry="0.95" transform="translate(-10.4 702.09) rotate(-45.76)"/></g><g class="cls-25"><path class="cls-23" d="M625.47,249.9a1.94,1.94,0,0,0-3,1.4l0-.14c-4.45.25-6.36-.46-7.18-1.14a15.66,15.66,0,0,0-.27-1.69c.1-.35.61-1,2.89-1.5v-.09a1.26,1.26,0,0,0,.4.49,1.27,1.27,0,0,0,1.5-2,1.25,1.25,0,0,0-1.77.27,1.23,1.23,0,0,0-.25.75,7,7,0,0,1-3.25.33,15.44,15.44,0,0,0-2-4c-.18-.55-.23-2.27,4.21-5.39l0,0a2.55,2.55,0,0,0,1.66.38,2.6,2.6,0,1,0-2.86-2.32,2.36,2.36,0,0,0,.33,1c-.85.71-4.11,3.3-6.3,3.14a15.82,15.82,0,0,0-8-3.45c-.5-.39-1.2-1.55-1.12-5h-.15a2,2,0,1,0-2-.67,2.07,2.07,0,0,0,1.09.66,12.54,12.54,0,0,1-.52,4.86,15.8,15.8,0,0,0-8.25,2.68,8.34,8.34,0,0,1-1.33-1.91l-.09,0a1.3,1.3,0,0,0,.38-.56,1.35,1.35,0,0,0-.81-1.74,1.36,1.36,0,1,0-.93,2.55,1.31,1.31,0,0,0,.85,0,10.28,10.28,0,0,1,1.12,2.18,15.75,15.75,0,0,0-3.2,3.27c-.64,0-2-.49-4.52-2.75a2.77,2.77,0,0,0,.07-.61,1.92,1.92,0,1,0-1.93,1.91,2.21,2.21,0,0,0,1.25-.39c.64.48,3.27,2.57,3.67,4.28a15.84,15.84,0,0,0-1.57,6.52c-.32.33-1.36,1-4.36.68a1.29,1.29,0,0,0-.32-.52,1.52,1.52,0,1,0,.39,1.33c.74,0,3.64-.07,4.43,1a15.85,15.85,0,0,0,6.73,11c.06.73,0,2.92-3.07,5.77l.09.1a1.65,1.65,0,0,0-.85-.24,1.8,1.8,0,1,0,1.75,1.84,1.77,1.77,0,0,0-.33-1.08c.35-.41,3.57-4.21,5.4-4.76a15.92,15.92,0,0,0,6,1.18,15.57,15.57,0,0,0,3.57-.4c.71.13,2,.75,2.82,3.51a1.46,1.46,0,0,0-.32.54,1.51,1.51,0,1,0,1.93-.94,1.49,1.49,0,0,0-.91,0c-.3-.65-1.37-3.16-.37-4.17a15.93,15.93,0,0,0,4.43-3.08c1,0,2.5.76,4.83,3.19l.11-.08a1.78,1.78,0,0,0-.35.82,1.8,1.8,0,1,0,2.05-1.51,1.85,1.85,0,0,0-1.12.19A14.29,14.29,0,0,1,612.3,261a16.89,16.89,0,0,0,1.53-2.6,20.48,20.48,0,0,1,2.3.84l.07-.11a1.79,1.79,0,0,0,0,.89,1.8,1.8,0,1,0,1.29-2.19,1.77,1.77,0,0,0-1,.62,20.71,20.71,0,0,1-2.35-.89,15.88,15.88,0,0,0,1.06-4.37c1.82-1.61,6.7-1.12,7.29-1a2,2,0,0,0,.73,1,1.94,1.94,0,0,0,2.2-3.2Z"/><path class="cls-24" d="M589.1,262.67s1.36-1.6-.34-3.81a7.11,7.11,0,0,1-1.68-5.78c.28-1.62,3.53-1.15,3.29-5.6s2-3.33,3.12-3.63,1.21-.21,2.38-2.68a2.68,2.68,0,0,1,3.08-1.48,3.41,3.41,0,0,1,1.39.58c3.85,2.62,7.06-.68,7.57-1.42,0,0-11.81-7.8-20.94,4.21C587,243.06,579.61,252.46,589.1,262.67Z"/><ellipse class="cls-24" cx="609.35" cy="248.33" rx="2.57" ry="3.18" transform="translate(70.71 626.28) rotate(-57.23)"/><path class="cls-24" d="M611.22,254a1.47,1.47,0,1,1-2.21,1.84c-.63-.75-.57-1.36,0-1.87A1.49,1.49,0,0,1,611.22,254Z"/><ellipse class="cls-24" cx="599.95" cy="259.58" rx="1.44" ry="1.78" transform="translate(-4.6 508.25) rotate(-45.76)"/><ellipse class="cls-24" cx="599.33" cy="256" rx="0.66" ry="0.81" transform="translate(-2.23 506.72) rotate(-45.76)"/></g><g class="cls-25"><path class="cls-23" d="M256.62,87.8a2.28,2.28,0,0,0-3.16.58,2.36,2.36,0,0,0-.39,1.06l0-.16c-5.21.28-7.45-.55-8.41-1.34-.07-.67-.18-1.34-.31-2,.11-.4.71-1.18,3.39-1.75l0-.11a1.43,1.43,0,0,0,.47.57,1.48,1.48,0,1,0-.32-2.07,1.43,1.43,0,0,0-.29.88,8.35,8.35,0,0,1-3.81.39,18.56,18.56,0,0,0-2.38-4.7c-.22-.65-.27-2.67,4.94-6.33l0,0a3.06,3.06,0,1,0-1.42-2.28,2.93,2.93,0,0,0,.39,1.21c-1,.82-4.82,3.86-7.39,3.67a18.51,18.51,0,0,0-9.36-4c-.59-.47-1.41-1.83-1.32-5.82H227a2.34,2.34,0,0,0,1.06-.52,2.38,2.38,0,1,0-3.35-.27,2.35,2.35,0,0,0,1.27.77c0,.51.24,3.77-.6,5.71a18.5,18.5,0,0,0-9.68,3.14,9.84,9.84,0,0,1-1.56-2.24l-.1,0a1.57,1.57,0,0,0,.44-.65,1.59,1.59,0,1,0-2,.95,1.5,1.5,0,0,0,1,0,12.34,12.34,0,0,1,1.31,2.56A18.45,18.45,0,0,0,211,78.89c-.75,0-2.35-.58-5.31-3.23a2.63,2.63,0,0,0,.09-.72,2.26,2.26,0,1,0-2.26,2.25,2.67,2.67,0,0,0,1.47-.47c.74.57,3.82,3,4.3,5a18.56,18.56,0,0,0-1.84,7.65c-.38.38-1.6,1.14-5.11.79a1.74,1.74,0,0,0-.38-.6,1.77,1.77,0,1,0-.06,2.5,1.72,1.72,0,0,0,.51-.94c.88,0,4.27-.08,5.19,1.18a18.64,18.64,0,0,0,7.9,12.87c.08.85-.05,3.42-3.59,6.77l.1.11a2.09,2.09,0,1,0,.67.61c.4-.48,4.18-4.94,6.32-5.59a18.58,18.58,0,0,0,7.08,1.4,19.12,19.12,0,0,0,4.18-.47c.84.14,2.38.87,3.31,4.11a1.81,1.81,0,0,0-.37.63,1.77,1.77,0,1,0,2.25-1.1,1.8,1.8,0,0,0-1,0c-.36-.76-1.61-3.7-.44-4.89a18.64,18.64,0,0,0,5.2-3.61c1.14.06,2.93.89,5.66,3.74l.12-.09a2,2,0,0,0-.4,1,2.12,2.12,0,1,0,1.09-1.54c-.41-.33-3.41-2.86-4.45-5.42a18.1,18.1,0,0,0,1.79-3,24.76,24.76,0,0,1,2.71,1l.07-.13a2.15,2.15,0,0,0,0,1,2.13,2.13,0,1,0,.41-1.85,22.62,22.62,0,0,1-2.76-1,18.69,18.69,0,0,0,1.24-5.13c2.14-1.88,7.86-1.31,8.55-1.23a2.2,2.2,0,0,0,.86,1.14,2.27,2.27,0,1,0,2.57-3.74Z"/><path class="cls-24" d="M214,102.77s1.59-1.87-.41-4.46a8.37,8.37,0,0,1-2-6.79c.32-1.89,4.14-1.34,3.86-6.56s2.33-3.9,3.66-4.26,1.41-.25,2.78-3.14a3.16,3.16,0,0,1,3.61-1.74,4,4,0,0,1,1.64.68c4.51,3.08,8.28-.79,8.87-1.66,0,0-13.84-9.15-24.56,4.94C211.47,79.78,202.84,90.8,214,102.77Z"/><ellipse class="cls-24" cx="237.73" cy="85.95" rx="3.02" ry="3.73" transform="translate(36.77 239.32) rotate(-57.23)"/><path class="cls-24" d="M239.92,92.63a1.72,1.72,0,1,1-2.59,2.16c-.74-.88-.67-1.6,0-2.19A1.74,1.74,0,0,1,239.92,92.63Z"/><ellipse class="cls-24" cx="226.7" cy="99.15" rx="1.69" ry="2.08" transform="translate(-2.5 192.37) rotate(-45.76)"/><ellipse class="cls-24" cx="225.97" cy="94.95" rx="0.77" ry="0.95" transform="translate(0.28 190.58) rotate(-45.76)"/></g><g class="cls-25"><path class="cls-23" d="M264.4,279.16a2,2,0,0,0-2.72.51,1.93,1.93,0,0,0-.33.91l0-.14c-4.49.25-6.42-.47-7.25-1.15a16.62,16.62,0,0,0-.27-1.72c.11-.34.61-1,2.92-1.51V276a1.26,1.26,0,0,0,.4.49,1.28,1.28,0,1,0-.52-1,7.26,7.26,0,0,1-3.28.33,15.94,15.94,0,0,0-2.06-4c-.18-.55-.22-2.3,4.26-5.45l0,0a2.63,2.63,0,1,0-1.22-2,2.76,2.76,0,0,0,.33,1c-.85.71-4.15,3.32-6.36,3.16a16,16,0,0,0-8.07-3.48c-.5-.4-1.21-1.57-1.13-5h-.15a2.1,2.1,0,0,0,.91-.45,2.05,2.05,0,1,0-2.89-.23,2,2,0,0,0,1.1.67,12.61,12.61,0,0,1-.52,4.91,16,16,0,0,0-8.34,2.71,8.11,8.11,0,0,1-1.34-1.94l-.09.05a1.37,1.37,0,1,0-1.38.25,1.34,1.34,0,0,0,.86,0,10.21,10.21,0,0,1,1.13,2.2,16.09,16.09,0,0,0-3.23,3.31c-.65,0-2-.5-4.57-2.78a2.33,2.33,0,0,0,.08-.62,1.95,1.95,0,1,0-2,1.93,2.21,2.21,0,0,0,1.27-.4c.64.49,3.3,2.6,3.71,4.33a15.83,15.83,0,0,0-1.59,6.59c-.33.33-1.38,1-4.4.68a1.44,1.44,0,0,0-.33-.52,1.53,1.53,0,1,0-.05,2.16,1.51,1.51,0,0,0,.44-.81c.76,0,3.68-.08,4.48,1a16.06,16.06,0,0,0,6.8,11.09c.06.73,0,3-3.1,5.83l.09.09a1.91,1.91,0,0,0-.86-.24,1.82,1.82,0,1,0,1.77,1.86,1.87,1.87,0,0,0-.33-1.09c.34-.41,3.6-4.26,5.45-4.81a16,16,0,0,0,6.09,1.2,15.77,15.77,0,0,0,3.6-.41c.72.13,2.05.76,2.86,3.55a1.46,1.46,0,0,0-.32.54,1.52,1.52,0,1,0,1.94-.95,1.57,1.57,0,0,0-.91,0c-.31-.66-1.39-3.19-.38-4.21a16.1,16.1,0,0,0,4.48-3.12c1,.06,2.52.77,4.88,3.23l.1-.08a1.78,1.78,0,0,0-.35.83,1.83,1.83,0,1,0,.94-1.33,14.72,14.72,0,0,1-3.83-4.67,16.72,16.72,0,0,0,1.55-2.62,19.07,19.07,0,0,1,2.32.85l.07-.11a1.82,1.82,0,1,0,1.31-1.31,1.79,1.79,0,0,0-1,.62,20.58,20.58,0,0,1-2.38-.9,15.89,15.89,0,0,0,1.07-4.42c1.84-1.62,6.77-1.12,7.36-1a2,2,0,0,0,.75,1,2,2,0,1,0,2.21-3.23Z"/><path class="cls-24" d="M227.67,292.07s1.37-1.62-.35-3.85a7.24,7.24,0,0,1-1.69-5.85c.28-1.63,3.56-1.15,3.32-5.65s2-3.36,3.15-3.67,1.22-.21,2.4-2.7a2.72,2.72,0,0,1,3.11-1.5,3.43,3.43,0,0,1,1.41.58c3.89,2.65,7.14-.68,7.64-1.43,0,0-11.92-7.88-21.15,4.26C225.51,272.26,218.07,281.75,227.67,292.07Z"/><ellipse class="cls-24" cx="248.13" cy="277.58" rx="2.6" ry="3.22" transform="translate(-119.58 335.96) rotate(-57.23)"/><path class="cls-24" d="M250,283.33a1.49,1.49,0,1,1-2.23,1.86c-.63-.76-.58-1.38,0-1.89A1.5,1.5,0,0,1,250,283.33Z"/><ellipse class="cls-24" cx="238.62" cy="288.94" rx="1.45" ry="1.8" transform="translate(-134.86 258.28) rotate(-45.76)"/><ellipse class="cls-24" cx="238" cy="285.33" rx="0.66" ry="0.82" transform="translate(-132.46 256.74) rotate(-45.76)"/></g><g class="cls-25"><path class="cls-23" d="M77,192a1.86,1.86,0,0,0-2.9,1.34l0-.13c-4.26.23-6.08-.45-6.87-1.09A14.91,14.91,0,0,0,67,190.5c.1-.32.58-1,2.76-1.43V189a1.12,1.12,0,0,0,.38.46,1.21,1.21,0,1,0-.26-1.69,1.21,1.21,0,0,0-.23.72,6.84,6.84,0,0,1-3.11.32A15.57,15.57,0,0,0,64.58,185c-.18-.52-.22-2.17,4-5.16l0,0a2.44,2.44,0,0,0,1.58.37,2.5,2.5,0,1,0-2.42-1.24c-.81.67-3.93,3.15-6,3a15.12,15.12,0,0,0-7.64-3.3c-.48-.38-1.15-1.49-1.08-4.74l-.14,0a1.83,1.83,0,0,0,.86-.42,2,2,0,1,0-1.69.41,12,12,0,0,1-.5,4.66,15,15,0,0,0-7.89,2.56,8,8,0,0,1-1.27-1.83l-.09,0a1.34,1.34,0,0,0,.37-.53,1.3,1.3,0,1,0-2.44-.89A1.29,1.29,0,0,0,41,179.5a1.36,1.36,0,0,0,.82,0,10,10,0,0,1,1.06,2.08,15.65,15.65,0,0,0-3.06,3.13c-.61,0-1.91-.47-4.32-2.63a2.58,2.58,0,0,0,.07-.59,1.84,1.84,0,1,0-1.85,1.83,2.06,2.06,0,0,0,1.2-.37c.61.46,3.12,2.45,3.51,4.09a15,15,0,0,0-1.5,6.24c-.31.31-1.3.92-4.17.65a1.55,1.55,0,0,0-.31-.5,1.45,1.45,0,1,0,0,2,1.41,1.41,0,0,0,.42-.77c.71,0,3.48-.07,4.24,1a15.16,15.16,0,0,0,6.44,10.5c.06.69-.05,2.79-2.94,5.52l.09.09a1.74,1.74,0,0,0-.82-.24,1.72,1.72,0,1,0,1.68,1.77,1.66,1.66,0,0,0-.32-1c.33-.4,3.41-4,5.16-4.56a15.19,15.19,0,0,0,5.78,1.13,15.36,15.36,0,0,0,3.41-.38c.68.12,1.94.71,2.7,3.36a1.45,1.45,0,1,0,1.53-.39,1.41,1.41,0,0,0-.86,0c-.29-.62-1.31-3-.36-4a15.26,15.26,0,0,0,4.24-2.94c.93,0,2.39.72,4.62,3l.1-.08a1.69,1.69,0,0,0-.33.79,1.72,1.72,0,0,0,3.4.51,1.73,1.73,0,0,0-1.44-2,1.76,1.76,0,0,0-1.07.19,13.88,13.88,0,0,1-3.63-4.42,15,15,0,0,0,1.46-2.48,18.1,18.1,0,0,1,2.21.8l.06-.1a1.72,1.72,0,0,0,2.1,2.09,1.73,1.73,0,0,0,1.23-2.1,1.72,1.72,0,0,0-3-.65,17.18,17.18,0,0,1-2.25-.84,15,15,0,0,0,1-4.19c1.75-1.53,6.42-1.06,7-1A1.85,1.85,0,1,0,77,192Z"/><path class="cls-24" d="M42.25,204.22s1.29-1.53-.34-3.64a6.85,6.85,0,0,1-1.6-5.53c.27-1.55,3.38-1.1,3.15-5.36s1.9-3.18,3-3.47,1.15-.2,2.27-2.56a2.56,2.56,0,0,1,2.94-1.42,3.39,3.39,0,0,1,1.33.55c3.68,2.52,6.76-.64,7.24-1.35,0,0-11.29-7.46-20,4C40.2,185.47,33.16,194.46,42.25,204.22Z"/><ellipse class="cls-24" cx="61.62" cy="190.51" rx="2.46" ry="3.04" transform="translate(-131.92 139.2) rotate(-57.23)"/><path class="cls-24" d="M63.4,196a1.41,1.41,0,1,1-2.11,1.76c-.6-.72-.55-1.3,0-1.79A1.43,1.43,0,0,1,63.4,196Z"/><ellipse class="cls-24" cx="52.62" cy="201.27" rx="1.37" ry="1.7" transform="translate(-128.28 98.53) rotate(-45.76)"/><ellipse class="cls-24" cx="52.03" cy="197.85" rx="0.63" ry="0.78" transform="translate(-126.01 97.07) rotate(-45.76)"/></g><g class="cls-25"><path class="cls-23" d="M828.45,824.11a3.41,3.41,0,0,0-4.76.88,3.47,3.47,0,0,0-.59,1.6l0-.25c-7.87.43-11.25-.82-12.7-2a27.32,27.32,0,0,0-.47-3c.18-.6,1.07-1.78,5.11-2.64l0-.16a2.22,2.22,0,0,0,.7.86,2.24,2.24,0,1,0-.47-3.13,2.21,2.21,0,0,0-.44,1.33c-.49.16-3.82,1.16-5.75.59a28,28,0,0,0-3.59-7.09c-.33-1-.4-4,7.45-9.55l0,0a4.56,4.56,0,0,0,2.92.68,4.6,4.6,0,1,0-4.48-2.3c-1.49,1.25-7.27,5.83-11.13,5.54A28,28,0,0,0,786,799.31c-.89-.7-2.13-2.75-2-8.78l-.26,0a3.68,3.68,0,0,0,1.6-.78,3.59,3.59,0,1,0-5.06-.41,3.56,3.56,0,0,0,1.92,1.17c.06.76.36,5.68-.91,8.61a27.94,27.94,0,0,0-14.61,4.74,15,15,0,0,1-2.34-3.39l-.16.07a2.21,2.21,0,0,0,.67-1,2.4,2.4,0,0,0-4.51-1.64,2.4,2.4,0,0,0,2.94,3.12,18.73,18.73,0,0,1,2,3.85,28.24,28.24,0,0,0-5.65,5.8c-1.13-.08-3.54-.88-8-4.87a4,4,0,0,0,.14-1.09,3.41,3.41,0,1,0-3.42,3.39,4,4,0,0,0,2.22-.7c1.12.86,5.77,4.55,6.49,7.57a27.82,27.82,0,0,0-2.78,11.55c-.58.57-2.41,1.7-7.71,1.19a2.71,2.71,0,0,0-.57-.92,2.68,2.68,0,1,0-.09,3.79,2.79,2.79,0,0,0,.78-1.42c1.31-.06,6.43-.14,7.83,1.78a28.05,28.05,0,0,0,11.91,19.41c.11,1.28-.08,5.16-5.42,10.21l.15.16a3.18,3.18,0,1,0,1.59,2.84,3.22,3.22,0,0,0-.58-1.91c.61-.72,6.31-7.46,9.54-8.43a28.12,28.12,0,0,0,10.68,2.1,28.51,28.51,0,0,0,6.31-.71c1.26.22,3.59,1.32,5,6.21a2.54,2.54,0,0,0-.57.95,2.67,2.67,0,1,0,1.81-1.71c-.54-1.14-2.43-5.57-.66-7.37a28,28,0,0,0,7.83-5.45c1.72.1,4.43,1.35,8.55,5.65l.18-.14a3.2,3.2,0,1,0,1-.88c-.62-.5-5.15-4.31-6.72-8.17a28.11,28.11,0,0,0,2.71-4.59,34.17,34.17,0,0,1,4.08,1.49l.12-.2a3.13,3.13,0,0,0,0,1.58,3.18,3.18,0,1,0,2.29-3.88,3.14,3.14,0,0,0-1.68,1.09,34.9,34.9,0,0,1-4.16-1.56,28.17,28.17,0,0,0,1.87-7.75c3.23-2.83,11.86-2,12.89-1.85a3.37,3.37,0,0,0,1.31,1.73,3.42,3.42,0,0,0,3.87-5.65Z"/><path class="cls-24" d="M764.12,846.7s2.41-2.83-.61-6.74-3.45-7.37-3-10.23,6.24-2,5.82-9.91,3.52-5.88,5.52-6.42,2.13-.37,4.2-4.73a4.76,4.76,0,0,1,5.45-2.63,6.13,6.13,0,0,1,2.46,1c6.81,4.65,12.5-1.19,13.39-2.5,0,0-20.88-13.8-37,7.45C760.34,812,747.32,828.64,764.12,846.7Z"/><ellipse class="cls-24" cx="799.95" cy="821.33" rx="4.55" ry="5.63" transform="translate(-323.66 1049.38) rotate(-57.23)"/><path class="cls-24" d="M803.25,831.4c1.11,1.34,1.14,3.15.06,4.05a2.9,2.9,0,0,1-4-.79c-1.12-1.33-1-2.41.06-3.31S802.14,830.07,803.25,831.4Z"/><ellipse class="cls-24" cx="783.31" cy="841.23" rx="2.54" ry="3.14" transform="translate(-365.85 815.42) rotate(-45.76)"/><ellipse class="cls-24" cx="782.21" cy="834.91" rx="1.16" ry="1.44" transform="translate(-361.65 812.73) rotate(-45.76)"/></g><g class="cls-25"><path class="cls-23" d="M112,752.5a2.24,2.24,0,0,0-3.51,1.62l0-.16c-5.15.28-7.36-.54-8.31-1.32a18.18,18.18,0,0,0-.31-2c.12-.4.71-1.17,3.35-1.73v-.11a1.38,1.38,0,0,0,.46.56,1.47,1.47,0,1,0-.32-2,1.51,1.51,0,0,0-.28.88,8.18,8.18,0,0,1-3.76.38A18.44,18.44,0,0,0,96.89,744c-.21-.64-.26-2.64,4.88-6.25l0,0a3,3,0,1,0-1.4-2.24,3,3,0,0,0,.38,1.19c-1,.81-4.76,3.81-7.29,3.62a18.32,18.32,0,0,0-9.25-4c-.57-.46-1.39-1.81-1.3-5.75h-.17a2.51,2.51,0,0,0,1-.51,2.38,2.38,0,1,0-2.06.49,14.35,14.35,0,0,1-.6,5.64,18.29,18.29,0,0,0-9.56,3.1A9.49,9.49,0,0,1,70,737l-.1,0a1.63,1.63,0,0,0,.44-.64,1.58,1.58,0,1,0-2,.94,1.6,1.6,0,0,0,1,0,12.05,12.05,0,0,1,1.28,2.52,18.67,18.67,0,0,0-3.69,3.79c-.75-.05-2.32-.57-5.24-3.18a3.72,3.72,0,0,0,.09-.72A2.23,2.23,0,1,0,59.53,742a2.57,2.57,0,0,0,1.45-.46c.73.56,3.78,3,4.25,5a18.22,18.22,0,0,0-1.82,7.56c-.38.37-1.58,1.11-5,.77a1.68,1.68,0,0,0-.37-.59,1.75,1.75,0,1,0-.06,2.47,1.79,1.79,0,0,0,.51-.93c.86,0,4.21-.08,5.12,1.17a18.45,18.45,0,0,0,7.8,12.71c.08.84,0,3.37-3.55,6.68l.1.11a2,2,0,0,0-1-.29,2.09,2.09,0,1,0,1.65.89c.4-.47,4.13-4.88,6.25-5.52a18.39,18.39,0,0,0,11.12.91c.82.15,2.35.87,3.27,4.07a1.68,1.68,0,0,0-.37.62,1.75,1.75,0,0,0,3.31,1.14A1.75,1.75,0,0,0,90,776c-.35-.75-1.59-3.65-.43-4.82a18.74,18.74,0,0,0,5.13-3.57c1.12.06,2.89.88,5.59,3.69l.12-.09a2.24,2.24,0,0,0-.4,1,2.08,2.08,0,1,0,1.08-1.52c-.4-.33-3.37-2.82-4.4-5.35a18.1,18.1,0,0,0,1.78-3,23.88,23.88,0,0,1,2.67,1l.07-.13a2.11,2.11,0,0,0,0,1,2.09,2.09,0,1,0,.4-1.82,23.54,23.54,0,0,1-2.72-1,18.7,18.7,0,0,0,1.22-5.07c2.12-1.86,7.77-1.29,8.44-1.21a2.25,2.25,0,1,0,3.4-2.57Z"/><path class="cls-24" d="M69.86,767.29s1.57-1.86-.4-4.41a8.27,8.27,0,0,1-1.94-6.7c.32-1.88,4.08-1.33,3.81-6.49s2.3-3.85,3.61-4.2,1.4-.24,2.75-3.1a3.12,3.12,0,0,1,3.57-1.72,4,4,0,0,1,1.61.67c4.46,3,8.18-.78,8.76-1.64,0,0-13.66-9-24.25,4.88C67.38,744.58,58.86,755.47,69.86,767.29Z"/><ellipse class="cls-24" cx="93.31" cy="750.68" rx="2.98" ry="3.69" transform="matrix(0.54, -0.84, 0.84, 0.54, -588.4, 422.8)"/><path class="cls-24" d="M95.47,757.27a1.7,1.7,0,1,1-2.56,2.13c-.72-.87-.66-1.57,0-2.16A1.71,1.71,0,0,1,95.47,757.27Z"/><ellipse class="cls-24" cx="82.42" cy="763.7" rx="1.66" ry="2.06" transform="translate(-522.18 289.89) rotate(-45.76)"/><ellipse class="cls-24" cx="81.7" cy="759.57" rx="0.76" ry="0.94" transform="translate(-519.43 288.13) rotate(-45.76)"/></g><g class="cls-25"><path class="cls-23" d="M101,416.39a2.25,2.25,0,0,0-3.12.58,2.16,2.16,0,0,0-.38,1l0-.15c-5.15.28-7.37-.55-8.32-1.32a18,18,0,0,0-.3-2c.11-.4.7-1.17,3.34-1.73v-.1a1.44,1.44,0,0,0,.46.56,1.47,1.47,0,1,0-.31-2.05,1.42,1.42,0,0,0-.29.87,8.18,8.18,0,0,1-3.76.38,18.76,18.76,0,0,0-2.35-4.64c-.22-.63-.27-2.63,4.88-6.24l0,0a3.07,3.07,0,0,0,1.92.45,3,3,0,1,0-3.32-2.7,2.94,2.94,0,0,0,.39,1.19c-1,.82-4.76,3.81-7.29,3.63a18.29,18.29,0,0,0-9.25-4c-.58-.46-1.39-1.8-1.31-5.74l-.17,0a2.29,2.29,0,0,0,1.05-.51,2.35,2.35,0,1,0-2.06.5,14.43,14.43,0,0,1-.59,5.63,18.35,18.35,0,0,0-9.56,3.1A9.57,9.57,0,0,1,59,400.91l-.1,0a1.57,1.57,0,1,0-1.58.29,1.6,1.6,0,0,0,1,0,12.49,12.49,0,0,1,1.29,2.52,18.26,18.26,0,0,0-3.7,3.8c-.74-.05-2.32-.58-5.24-3.19a3,3,0,0,0,.09-.71,2.23,2.23,0,1,0-2.24,2.21,2.52,2.52,0,0,0,1.45-.45c.74.56,3.78,3,4.25,5A18.29,18.29,0,0,0,52.43,418c-.38.37-1.58,1.12-5,.78a1.75,1.75,0,1,0-.44,1.88,1.79,1.79,0,0,0,.51-.93c.86,0,4.21-.09,5.13,1.16a18.39,18.39,0,0,0,7.79,12.71c.08.84-.05,3.38-3.55,6.68l.11.11a2.08,2.08,0,1,0,1,1.85A2,2,0,0,0,57.6,441c.39-.48,4.13-4.89,6.24-5.52a18.49,18.49,0,0,0,7,1.37,18.74,18.74,0,0,0,4.13-.46c.82.14,2.35.86,3.27,4.06a1.75,1.75,0,1,0,2.94,1.76A1.74,1.74,0,0,0,80.09,440a1.72,1.72,0,0,0-1,0c-.35-.75-1.59-3.65-.43-4.83a18.18,18.18,0,0,0,5.13-3.57c1.13.07,2.9.89,5.59,3.7l.13-.09a2,2,0,1,0,.67-.58c-.4-.33-3.36-2.82-4.39-5.34a18.86,18.86,0,0,0,1.77-3,22.27,22.27,0,0,1,2.67,1l.08-.13a2,2,0,0,0,0,1,2.09,2.09,0,1,0,.4-1.83,22.72,22.72,0,0,1-2.73-1,18.18,18.18,0,0,0,1.23-5.07c2.11-1.85,7.76-1.28,8.44-1.21a2.16,2.16,0,0,0,.85,1.13,2.24,2.24,0,0,0,2.54-3.7Z"/><path class="cls-24" d="M58.88,431.18s1.57-1.85-.4-4.41a8.3,8.3,0,0,1-1.94-6.7c.32-1.87,4.09-1.32,3.81-6.48s2.3-3.85,3.62-4.21,1.39-.24,2.75-3.09a3.09,3.09,0,0,1,3.56-1.72,3.82,3.82,0,0,1,1.61.67c4.46,3,8.18-.78,8.76-1.64,0,0-13.66-9-24.24,4.87C56.41,408.47,47.89,419.36,58.88,431.18Z"/><ellipse class="cls-24" cx="82.33" cy="414.57" rx="2.98" ry="3.69" transform="translate(-310.82 259.4) rotate(-57.23)"/><path class="cls-24" d="M84.49,421.17a1.7,1.7,0,1,1-2.55,2.13c-.73-.87-.67-1.58,0-2.17A1.7,1.7,0,0,1,84.49,421.17Z"/><ellipse class="cls-24" cx="71.44" cy="427.6" rx="1.66" ry="2.06" transform="translate(-284.72 180.43) rotate(-45.76)"/><ellipse class="cls-24" cx="70.72" cy="423.46" rx="0.76" ry="0.94" transform="translate(-281.98 178.67) rotate(-45.76)"/></g><g class="cls-25"><path class="cls-23" d="M840.17,1015.39a3.44,3.44,0,0,0-5.36,2.48l0-.24c-7.87.43-11.25-.83-12.7-2a26.78,26.78,0,0,0-.47-3c.18-.61,1.07-1.79,5.11-2.65l0-.16a2.22,2.22,0,0,0,.7.86,2.24,2.24,0,1,0-.47-3.13,2.21,2.21,0,0,0-.44,1.33c-.48.16-3.82,1.16-5.75.59a28,28,0,0,0-3.59-7.09c-.33-1-.4-4,7.45-9.54l0-.06a4.66,4.66,0,1,0-1.55-1.62c-1.5,1.25-7.28,5.83-11.14,5.54a28,28,0,0,0-14.13-6.09c-.89-.7-2.13-2.75-2-8.78l-.26,0a3.38,3.38,0,0,0,1.6-.78,3.59,3.59,0,1,0-3.14.76c.06.77.37,5.69-.91,8.61a28,28,0,0,0-14.6,4.74,14.61,14.61,0,0,1-2.35-3.39l-.16.08a2.44,2.44,0,0,0,.68-1A2.42,2.42,0,1,0,775,992.3a18.73,18.73,0,0,1,2,3.85,28.24,28.24,0,0,0-5.65,5.8c-1.13-.07-3.54-.87-8-4.87a3.9,3.9,0,0,0,.14-1.09,3.41,3.41,0,1,0-3.42,3.39,4,4,0,0,0,2.22-.7c1.12.86,5.77,4.55,6.49,7.58A27.89,27.89,0,0,0,766,1017.8c-.58.57-2.41,1.71-7.71,1.19a2.58,2.58,0,0,0-.57-.91,2.67,2.67,0,1,0-.09,3.78,2.72,2.72,0,0,0,.78-1.42c1.31-.06,6.43-.13,7.83,1.78a28.09,28.09,0,0,0,11.91,19.41c.11,1.29-.08,5.16-5.42,10.21l.16.17a3.18,3.18,0,1,0-1.68,5.93,3.19,3.19,0,0,0,3.26-3.1,3.1,3.1,0,0,0-.58-1.9c.61-.73,6.31-7.46,9.54-8.44a28.28,28.28,0,0,0,17,1.39c1.26.22,3.59,1.32,5,6.21a2.77,2.77,0,0,0-.57,1,2.68,2.68,0,1,0,3.4-1.66,2.62,2.62,0,0,0-1.59,0c-.54-1.15-2.43-5.58-.66-7.38a28,28,0,0,0,7.84-5.45c1.72.1,4.42,1.35,8.54,5.65l.19-.14a3.18,3.18,0,1,0,3-1.22,3.22,3.22,0,0,0-2,.34c-.61-.5-5.14-4.31-6.72-8.17a27.41,27.41,0,0,0,2.71-4.59,34.17,34.17,0,0,1,4.08,1.49l.12-.2a3.13,3.13,0,0,0,0,1.58,3.18,3.18,0,1,0,.61-2.79,33.09,33.09,0,0,1-4.16-1.56,28.1,28.1,0,0,0,1.87-7.74c3.23-2.84,11.86-2,12.89-1.85a3.43,3.43,0,0,0,6.07.84A3.43,3.43,0,0,0,840.17,1015.39Z"/><path class="cls-24" d="M775.84,1038s2.4-2.83-.62-6.73-3.45-7.37-3-10.24,6.24-2,5.82-9.9,3.52-5.89,5.52-6.43,2.13-.37,4.21-4.73a4.75,4.75,0,0,1,5.44-2.63,6.11,6.11,0,0,1,2.47,1c6.8,4.64,12.49-1.2,13.38-2.51,0,0-20.88-13.8-37.05,7.45C772.05,1003.29,759,1019.92,775.84,1038Z"/><ellipse class="cls-24" cx="811.66" cy="1012.61" rx="4.55" ry="5.63" transform="translate(-479.12 1146.97) rotate(-57.23)"/><path class="cls-24" d="M815,1022.68c1.11,1.34,1.14,3.15.06,4.05s-2.85.54-4-.79-1-2.41.06-3.31S813.85,1021.35,815,1022.68Z"/><ellipse class="cls-24" cx="795.02" cy="1032.51" rx="2.54" ry="3.14" transform="translate(-499.34 881.63) rotate(-45.76)"/><ellipse class="cls-24" cx="793.92" cy="1026.19" rx="1.16" ry="1.44" transform="translate(-495.14 878.94) rotate(-45.76)"/></g><g class="cls-25"><path class="cls-23" d="M650.74,931.56a3.44,3.44,0,0,0-5.36,2.48l0-.24c-7.87.43-11.25-.83-12.7-2a26.78,26.78,0,0,0-.47-3c.18-.61,1.07-1.79,5.11-2.65l0-.16a2.22,2.22,0,0,0,.7.86,2.24,2.24,0,1,0-.47-3.13,2.21,2.21,0,0,0-.44,1.33c-.49.16-3.82,1.16-5.75.59a28,28,0,0,0-3.59-7.09c-.33-1-.4-4,7.45-9.54l0-.06a4.66,4.66,0,1,0-1.55-1.62c-1.5,1.25-7.28,5.83-11.14,5.55a28,28,0,0,0-14.13-6.1c-.89-.7-2.13-2.75-2-8.78l-.26,0a3.43,3.43,0,0,0,1.6-.78,3.59,3.59,0,1,0-5.06-.41,3.54,3.54,0,0,0,1.92,1.17c.06.77.36,5.69-.91,8.61a28,28,0,0,0-14.6,4.74,14.61,14.61,0,0,1-2.35-3.39l-.16.08a2.44,2.44,0,0,0,.68-1,2.42,2.42,0,1,0-1.58,1.47,19,19,0,0,1,2,3.85,28.24,28.24,0,0,0-5.65,5.8c-1.13-.07-3.54-.87-8-4.86a4,4,0,0,0,.14-1.09,3.41,3.41,0,1,0-3.42,3.38,3.88,3.88,0,0,0,2.22-.7c1.12.86,5.77,4.55,6.49,7.58A27.89,27.89,0,0,0,576.55,934c-.58.57-2.41,1.71-7.71,1.19a2.58,2.58,0,0,0-.57-.91,2.67,2.67,0,1,0-.09,3.78,2.72,2.72,0,0,0,.78-1.42c1.31-.06,6.43-.13,7.83,1.78A28.09,28.09,0,0,0,588.7,957.8c.11,1.29-.08,5.16-5.42,10.21l.16.17a3.18,3.18,0,1,0-1.68,5.93A3.19,3.19,0,0,0,585,971a3.1,3.1,0,0,0-.58-1.9c.61-.73,6.31-7.46,9.54-8.44a28.28,28.28,0,0,0,17,1.39c1.26.22,3.59,1.32,5,6.21a2.77,2.77,0,0,0-.57,1,2.68,2.68,0,1,0,3.4-1.66,2.62,2.62,0,0,0-1.59,0c-.54-1.15-2.43-5.58-.66-7.38a28.17,28.17,0,0,0,7.84-5.44c1.72.09,4.42,1.34,8.54,5.64l.19-.14a3.06,3.06,0,0,0-.62,1.45,3.18,3.18,0,1,0,3.62-2.67,3.22,3.22,0,0,0-2,.34c-.61-.5-5.14-4.31-6.72-8.17a27.41,27.41,0,0,0,2.71-4.59,36,36,0,0,1,4.08,1.49l.12-.2a3.13,3.13,0,0,0,0,1.58,3.18,3.18,0,1,0,.61-2.79,33.09,33.09,0,0,1-4.16-1.56,28.1,28.1,0,0,0,1.87-7.74c3.23-2.84,11.86-2,12.89-1.85a3.43,3.43,0,0,0,6.07.84A3.43,3.43,0,0,0,650.74,931.56Z"/><path class="cls-24" d="M586.41,954.15s2.4-2.83-.62-6.73-3.45-7.37-3-10.24,6.24-2,5.82-9.9,3.52-5.89,5.52-6.43,2.13-.37,4.2-4.73a4.76,4.76,0,0,1,5.45-2.63,6,6,0,0,1,2.46,1c6.81,4.64,12.5-1.2,13.39-2.51,0,0-20.88-13.8-37,7.45C582.62,919.46,569.61,936.1,586.41,954.15Z"/><ellipse class="cls-24" cx="622.23" cy="928.78" rx="4.55" ry="5.63" transform="translate(-495.53 949.24) rotate(-57.23)"/><path class="cls-24" d="M625.53,938.86a2.89,2.89,0,0,1,.06,4c-1.07.9-2.85.55-4-.79s-1-2.41.06-3.31S624.42,937.52,625.53,938.86Z"/><ellipse class="cls-24" cx="605.59" cy="948.68" rx="2.54" ry="3.14" transform="translate(-496.55 720.59) rotate(-45.76)"/><ellipse class="cls-24" cx="604.49" cy="942.36" rx="1.16" ry="1.44" transform="translate(-492.35 717.9) rotate(-45.76)"/></g></g></g></svg>