<svg xmlns="http://www.w3.org/2000/svg" xmlns:xlink="http://www.w3.org/1999/xlink" viewBox="0 0 911 910"><defs><style>.cls-1,.cls-10,.cls-23,.cls-29,.cls-30,.cls-31,.cls-4,.cls-5,.cls-8{fill:none;}.cls-2{fill:#298c6a;}.cls-3{fill:#e0eaec;}.cls-4{stroke:#e0eaec;}.cls-10,.cls-23,.cls-29,.cls-30,.cls-31,.cls-4,.cls-5,.cls-8{stroke-miterlimit:10;}.cls-5{stroke:#9eccb6;stroke-width:0.75px;}.cls-10,.cls-29,.cls-31,.cls-5{stroke-linecap:round;}.cls-6{fill:#a5d0bd;}.cls-7{fill:#9eccb6;}.cls-8{stroke:#b6dac8;}.cls-13,.cls-9{fill:#018591;}.cls-10{stroke:#319897;}.cls-11{fill:#5cb098;}.cls-12{fill:#a8caba;}.cls-13{opacity:0.2;}.cls-14{clip-path:url(#clip-path);}.cls-15{fill:#faa27b;}.cls-16{fill:#f9a17b;}.cls-17{fill:#f9a17a;}.cls-18{fill:#ef775e;}.cls-19{fill:#eb626c;}.cls-20{fill:#e63b47;}.cls-21{fill:#fff;}.cls-22{fill:url(#Degradado_sin_nombre_13);}.cls-23{stroke:#5b97b3;}.cls-24{clip-path:url(#clip-path-2);}.cls-25{fill:#fce08c;}.cls-26{fill:#fed152;}.cls-27{fill:#ffdd61;}.cls-28{fill:#5e4131;}.cls-29{stroke:#8c6753;stroke-width:0.5px;}.cls-30,.cls-31{stroke:#00a99d;stroke-width:3px;}.cls-30{stroke-dasharray:12 3;}.cls-32{fill:#00a99d;}</style><clipPath id="clip-path"><circle class="cls-1" cx="605.99" cy="483.44" r="173.44"/></clipPath><linearGradient id="Degradado_sin_nombre_13" x1="563.37" y1="376.36" x2="659.85" y2="376.36" gradientUnits="userSpaceOnUse"><stop offset="0" stop-color="#0b2a46"/><stop offset="0.14" stop-color="#0b2a46"/><stop offset="1" stop-color="#0b2a46"/></linearGradient><clipPath id="clip-path-2"><circle class="cls-1" cx="265.09" cy="479.63" r="101.13"/></clipPath></defs><title>DistanciaSocial</title><g id="_Que_es_" data-name="¿Que es?"><ellipse class="cls-2" cx="187.93" cy="369.64" rx="11.16" ry="15.19" transform="translate(-64.68 40.79) rotate(-10.58)"/><path class="cls-3" d="M233.89,236.66a122.27,122.27,0,0,0-7.31,34.74c-2.21,30.29-12,100.19-55.75,122.05-56.4,28.2-131.59,70.5-42.3,202.08,71,104.65,332.27,117.16,509.54,18.6,89.37-49.69,143.63-146.62,132.41-248.25C762,289.19,718.12,213.57,574.74,222.67a216.59,216.59,0,0,1-85.44-11.89,263.1,263.1,0,0,1-50.6-24.11C380.88,151.09,276.75,123.93,233.89,236.66Z"/><path class="cls-4" d="M213.44,337.93s-47.31-137.16,46.68-184.15,164.6,10.38,183.34,35.74"/><path class="cls-5" d="M676,325.31S591.43,494.49,553.84,612"/><path class="cls-6" d="M673.67,330c0-4.95,14.86-54.49,29.72-44.58S673.67,330,673.67,330"/><path class="cls-6" d="M659.45,357.54c2.88-2.85,40-23.06,42.46-9s-42.46,9-42.46,9"/><path class="cls-6" d="M645.35,390.44c2.88-2.85,40-23.07,42.46-9s-42.46,9-42.46,9"/><path class="cls-6" d="M627.33,431.13c3.53-4.64,52.21-40.79,58.55-21.32s-58.55,21.32-58.55,21.32"/><path class="cls-6" d="M608.53,468.72c3.53-4.63,52.21-40.78,58.55-21.32s-58.55,21.32-58.55,21.32"/><path class="cls-6" d="M660.23,351.25c.12-3.57-9-39.64-19.52-32.85s19.52,32.85,19.52,32.85"/><path class="cls-6" d="M647.37,380c.12-3.57-9-39.64-19.52-32.85S647.37,380,647.37,380"/><path class="cls-6" d="M631.81,416c.89-5.05-4.8-58.14-21.18-50.61S631.81,416,631.81,416"/><path class="cls-6" d="M618.71,450.59c.89-5-4.79-58.13-21.17-50.61s21.17,50.61,21.17,50.61"/><path class="cls-5" d="M213.44,320.55S332,504.6,426.8,611.35"/><path class="cls-6" d="M216.74,325.66c-4.94-2.92-45.49-47-26.86-55.9s26.86,55.9,26.86,55.9"/><path class="cls-6" d="M235.76,356.07c-1.14-4.56.62-53.42,16.07-47.6s-16.07,47.6-16.07,47.6"/><path class="cls-6" d="M260.2,389.52c-1.14-4.56.62-53.42,16.06-47.6s-16.06,47.6-16.06,47.6"/><path class="cls-6" d="M290.08,431.46c-2.53-6.24-9.81-76,13.31-70.87s-13.31,70.87-13.31,70.87"/><path class="cls-6" d="M316.42,472.36c-2.53-6.24-9.8-76.05,13.32-70.87s-13.32,70.87-13.32,70.87"/><path class="cls-6" d="M230,351.58c-3.48-2.23-44.76-14.47-44.24.05s44.24-.05,44.24-.05"/><path class="cls-6" d="M251,381.36c-3.48-2.23-44.75-14.47-44.23.05s44.23-.05,44.23-.05"/><path class="cls-6" d="M277.63,418.07c-4.5-3.87-60.71-29.53-62.88-8.78s62.88,8.78,62.88,8.78"/><path class="cls-6" d="M304.37,451.53c-4.5-3.87-60.71-29.52-62.88-8.77s62.88,8.77,62.88,8.77"/><path class="cls-5" d="M108.26,419.48S281.57,553.24,406.64,622.11"/><path class="cls-6" d="M113.07,423.2c-5.62-1.11-58.57-29-44-43.69s44,43.69,44,43.69"/><path class="cls-6" d="M141.18,445.49c-2.6-3.91-17.3-50.55-.79-50.23s.79,50.23.79,50.23"/><path class="cls-6" d="M175.4,468.83c-2.6-3.91-17.3-50.55-.79-50.23s.79,50.23.79,50.23"/><path class="cls-6" d="M217.6,498.36c-4.48-5-34.7-68.39-11.18-71.25s11.18,71.25,11.18,71.25"/><path class="cls-6" d="M256.11,528.08c-4.48-5-34.69-68.38-11.17-71.24s11.17,71.24,11.17,71.24"/><path class="cls-6" d="M134.21,443.2c-4-.94-47,1.34-41.67,14.85s41.67-14.85,41.67-14.85"/><path class="cls-6" d="M164,464.22c-4-.94-47,1.34-41.67,14.85S164,464.22,164,464.22"/><path class="cls-6" d="M201.39,489.9c-5.54-2.14-67.1-7.5-62.2,12.77s62.2-12.77,62.2-12.77"/><path class="cls-6" d="M237.78,512.48c-5.53-2.14-67.09-7.5-62.19,12.78s62.19-12.78,62.19-12.78"/><path class="cls-7" d="M757.93,574.38l-18.46,25.85V574.38h-2.35c-36.09-3-65,1.21-87.54,8.32-55.34,17.44-55.24,95.81.16,113l2.79.85C746.52,724.77,911,574.38,911,574.38Z"/><path class="cls-8" d="M659.58,656.63S810,595.53,904,576.73"/><line class="cls-8" x1="779.92" y1="574.38" x2="751.22" y2="621.38"/><line class="cls-8" x1="856.96" y1="614.33" x2="814.36" y2="600.81"/><path class="cls-7" d="M346.75,386.47l-4.89,35.42,20-21.14,1.92,1.82C395.63,428,416,453.8,429,477.09c31.77,57.07-28.92,121.1-87.56,92.32-1-.47-1.95-1-2.93-1.45-98.7-49.64-116.94-299.89-116.94-299.89Z"/><path class="cls-8" d="M363.6,529.83S287.83,363.52,225.48,275.44"/><line class="cls-8" x1="328.76" y1="369.46" x2="315.89" y2="430.11"/><line class="cls-8" x1="234.85" y1="342.55" x2="280.15" y2="364.44"/><path class="cls-9" d="M51,602.58C40.5,602-5.41,597.88,4,565s65.8-4.69,84.59,0,18.8-9.39,23.5-18.79,18.8-14.1,32.9,0,32.89,37.59,42.29,28.19,23.5-23.49,37.6,0,14.1,28.2,18.8,28.2,14.1,9.4,14.1,14.1,18.79,70.49-89.29,79.89c0,0-49.35-11.75-30.55-30.55s-4.7-23.49-23.5-18.79-56.39,4.7-47-14.1S90.93,604.93,51,602.58Z"/><path class="cls-10" d="M6.34,562.64s159.79,47,230.28,84.59"/><path class="cls-10" d="M119.13,548.54S152.8,585,159.46,613.76"/><path class="cls-10" d="M76.83,642.53c9.4-4.7,62.36-17.4,73.48-32.2"/><path class="cls-10" d="M203.72,572s20.12,39,17.11,64.16"/><path class="cls-9" d="M743.21,427.46c5.12-10.87,29-57.83,59.92-33.83s-23.07,71.8-36.07,89.74,2,23.95,9.93,33,6.94,25.95-14,34.9-53.91,18.87-48,32.85S729.92,619,699,624s-35.92,2.94-37.93,7.92-16,11-21,9S557.28,630.71,593.4,512c0,0,33.5-47.34,45.43-19.39s26.93,5,30-16.91,19.06-61.83,35-43.85S723.68,468.83,743.21,427.46Z"/><path class="cls-10" d="M804.62,397.12s-118,149.48-187.93,208.24"/><path class="cls-10" d="M771.49,522.79s-53,20.18-86.39,15"/><path class="cls-10" d="M689.81,437.85c1,12-8.13,73.57,2.83,91.68"/><path class="cls-10" d="M710.49,602.52s-50,4.71-75.35-9.2"/><path class="cls-11" d="M27.49,724.77c-1.49,4.46,850.61,0,850.61,0s-70.49-18.8-98.69-51.7-75.19-23.49-94-23.49S582,541.49,539.74,532.09s-195-30.55-274.92,58.74-117.49,98.69-145.69,98.69S39.24,689.52,27.49,724.77Z"/><ellipse class="cls-12" cx="826.41" cy="487.44" rx="14.1" ry="7.05" transform="translate(-81.17 798.66) rotate(-49.46)"/><ellipse class="cls-12" cx="835.81" cy="421.65" rx="14.1" ry="7.05" transform="translate(-27.88 782.77) rotate(-49.46)"/><ellipse class="cls-12" cx="149.68" cy="304.16" rx="7.05" ry="14.1" transform="translate(-144.84 136.3) rotate(-34.12)"/><ellipse class="cls-12" cx="135.58" cy="341.76" rx="4.86" ry="9.73" transform="translate(-168.35 134.86) rotate(-34.12)"/><ellipse class="cls-2" cx="804.69" cy="523.76" rx="9.6" ry="7.05" transform="translate(-116.37 794.86) rotate(-49.46)"/><ellipse class="cls-2" cx="61.04" cy="510.62" rx="8.29" ry="6.09" transform="matrix(1, -0.07, 0.07, 1, -36.3, 5.66)"/><circle class="cls-13" cx="605.99" cy="483.44" r="173.44"/><g class="cls-14"><path class="cls-15" d="M701.43,494.58l41.66,33.65c1.68,1.36,3.38,2.67,5.13,3.92,5.51,3.94,20,20.59,10.5,37.08-13.28,22.94-55.56,36.46-66,45.14,0,0-4.2,7-17.73,14.79,0,0-4.84,6.05-8.32-25.2l-.86-9.55s6.94-1.74,24.3,0c0,0,22.57-29.52,33-36.46,0,0-38.2-19.1-45.14-31.25Z"/><path class="cls-16" d="M529.26,513.28c-3.87,8.68-9.64,22.14-11.86,29.91,0,0-15.63-36.46-17.36-41.66l-19.1,5.2s17.36,83.34,29.51,92,20.84-7,20.84-7,20.83-43.4,24.3-48.61c3-4.46,12.33-40.81-9.11-41.27A18.72,18.72,0,0,0,529.26,513.28Z"/><path class="cls-17" d="M634.59,403.44s5.2-10.42,13.88-1.74c0,0,3.48,8.68-3.47,19.1s-12.15,1.73-12.15,1.73,0,7-5.21,15.63c0,0,0,15.62,5.21,17.36,0,0,3.47,17.36-26,17.36,0,0-19.1-1.74-15.63-17.36,0,0,5.21-1.74,3.48-13.89,0,0-12.16-3.47-13.89-20.83,0,0-6.95,3.47-10.42-8.68s5.21-8.68,5.21-6.95c0,0-5.21-38.19,20.83-34.72S629.38,367,634.59,403.44Z"/><path class="cls-18" d="M591.18,380.87s4.49,7.48,20.41,9.94A23.08,23.08,0,0,1,622,395.27c3.73,2.81,9,8.06,11.69,14.24,0,0,3.47-8.68-7.81-21.7-12.09-13.95-10.42,0-33-20.83,0,0-19.1,1.73-17.36,33C575.56,400,577.29,391.28,591.18,380.87Z"/><path class="cls-18" d="M626.43,440.16s-5.29,6.41-28.29,5.38c0,0,11.61,7.22,28.7,1.17C626.84,446.71,625.49,444.37,626.43,440.16Z"/><path class="cls-19" d="M646.25,452.71h42.18a4,4,0,0,1,4,4v69a13.5,13.5,0,0,1-13.5,13.5H655.77a13.5,13.5,0,0,1-13.5-13.5v-69a4,4,0,0,1,4-4Z" transform="translate(1469.47 277.09) rotate(128.12)"/><path class="cls-20" d="M641.84,454.56H684a4,4,0,0,1,4,4V516.7a13.5,13.5,0,0,1-13.5,13.5H651.37a13.5,13.5,0,0,1-13.5-13.5V458.53a4,4,0,0,1,4-4Z" transform="matrix(-0.62, 0.79, -0.79, -0.62, 1459.52, 274.75)"/><path class="cls-19" d="M550.16,461.32h24.67a13.5,13.5,0,0,1,13.5,13.5v63.41a4,4,0,0,1-4,4H540.64a4,4,0,0,1-4-4V474.81a13.5,13.5,0,0,1,13.5-13.5Z" transform="translate(475.2 -246.94) rotate(41.62)"/><path class="cls-20" d="M553.61,462.35h24.67a13.5,13.5,0,0,1,13.5,13.5V529.1a4,4,0,0,1-4,4H544.08a4,4,0,0,1-4-4V475.85a13.5,13.5,0,0,1,13.5-13.5Z" transform="translate(473.39 -250.25) rotate(41.62)"/><path class="cls-20" d="M630.38,453.18s25.91,4.94,29.38,6.68,10.42,29.51,10.42,29.51,0,130.22,8.68,166.67c0,0,10.41,10.42-85.07,10.42,0,0-45.14,0-43.41-8.68,1.7-8.48,3.4-159.46,3.47-166.42a1.63,1.63,0,0,1,.09-.49l8.45-23.95a10.54,10.54,0,0,1,7.37-6.7l22.29-5.57s-6,20.15,27,15.73a14.68,14.68,0,0,0,12.3-10.26A7.89,7.89,0,0,0,630.38,453.18Z"/><path class="cls-21" d="M635.45,415.24s-2.71,3.86-2.25,10.89c0,0-1.2,11-12.9,18s-29.44-1-34.9-8.66-7.24-22-7.24-22a21.32,21.32,0,0,0,10.74-3.58c5.38-3.58,21.49-5.37,34,0,0,0,7.16,1.79,12.53,0Z"/><path class="cls-15" d="M507,459.86s-5.21,1.73-8.68,13.89-5.21-1.74-5.21-1.74-5.61-25.92-6.94-31.25c-1.74-6.94-5.21-5.21-5.21-1.73,0,1.79,1.29,13.3,1.74,19.09.42,5.42,0,5.21,0,5.21s-6.95-27.78-10.42-27.78,0,13.89,3.47,29.52c0,0,0,1.73-3.47-5.21-3.19-6.37-7.39-18.37-10.42-17.36-2.42.8-.88,8.14,1.58,14.63.59,1.57,1.24,3.09,1.9,4.46a60.78,60.78,0,0,1,3.47,8.69s.17,2.3-1.74,0c-3.73-4.5-8.68-15.63-10.42-15.63-3.88,0-1.73,6.94,5.21,20.83,6.37,12.74,9.82,22.55,15.7,25.43a4.1,4.1,0,0,1,2.21,2.51l1.84,6.37,19.11-6.48s-1.53-6.12.21-11.33,4.74-19.92,6.94-24.31C509.59,464.2,513.06,457.25,507,459.86Z"/><path class="cls-22" d="M569.48,381.76c0,.56.06,17.45,3.47,24.28a69.67,69.67,0,0,0,5.21,6.94s-2.6-14.75-.87-20,5.21-13.89,10.42-19.1c2.75-2.74,4.34-.87,4.34-.87s11.74,13.42,30.27,15.53a3.65,3.65,0,0,1,1.87.77,26.13,26.13,0,0,1,9.53,20.16s1.73-13.89,12.15-8.68c0,0,1.74,1.74,1.74,3.47,0,0,8.68-15.62,10.41-19.09s5.21-15.63-6.94-20.84a18,18,0,0,1-8.68-12.15c-1.74-8.68-13.89-19.1-34.72-6.94,0,0-7.92,2.63-13.4,1-3-2.79-12.6-9.73-24.45-.84-3.85,2.89-6,7.14-6.39,12.65C562.82,366.71,566.82,376.69,569.48,381.76Zm79.68-17.68c5.39,2,7.3,4.51,8.36,7.25,3.33,8.56-3,17.35-3,17.35C661.48,377.32,649.16,364.08,649.16,364.08Zm-35.41-21.41c22.57-8.68,27.78,8.68,27.78,8.68C632.85,337.46,613.75,342.67,613.75,342.67Zm-46,18.23s0,7.29.81,14.61c-2-5-4.7-12.21-4.29-18.08a17.62,17.62,0,0,1,7-12.15c6.64-5,12-3,16.16-1.4C580.59,343.32,570.46,347.32,567.75,360.9Z"/><path class="cls-23" d="M612,353.09c10.41-3.47,20.83-3.47,24.3,5.21s3.47,12.15,8.68,15.62,3.47,10.42,3.47,10.42"/></g><circle class="cls-13" cx="265.09" cy="479.63" r="101.13"/><g class="cls-24"><path class="cls-15" d="M214.28,488.42l-23.45,18.94c-.94.77-1.9,1.5-2.89,2.21-3.1,2.22-11.28,11.59-5.91,20.87,7.48,12.91,31.27,20.52,37.13,25.4,0,0,2.37,3.95,10,8.33,0,0,2.73,3.4,4.68-14.19l.49-5.37s-3.91-1-13.68,0c0,0-12.7-16.61-18.57-20.52,0,0,21.5-10.75,25.41-17.59Z"/><path class="cls-16" d="M311.17,499c2.18,4.89,5.43,12.46,6.68,16.83,0,0,8.79-20.52,9.77-23.45l10.75,2.93s-9.77,46.9-16.61,51.79S310,543.14,310,543.14s-11.72-24.43-13.68-27.36c-1.67-2.51-6.94-23,5.13-23.23A10.55,10.55,0,0,1,311.17,499Z"/><path class="cls-17" d="M251.9,437.13s-2.94-5.86-7.82-1c0,0-2,4.89,1.95,10.75s6.84,1,6.84,1a18.84,18.84,0,0,0,2.93,8.79s0,8.79-2.93,9.77c0,0-2,9.77,14.66,9.77,0,0,10.75-1,8.79-9.77,0,0-2.93-1-1.95-7.82,0,0,6.84-1.95,7.82-11.72,0,0,3.9,2,5.86-4.89s-2.93-4.88-2.93-3.91c0,0,2.93-21.49-11.73-19.54S254.83,416.61,251.9,437.13Z"/><path class="cls-18" d="M276.32,424.43s-2.52,4.21-11.48,5.59a13.09,13.09,0,0,0-5.88,2.51,21.58,21.58,0,0,0-6.58,8s-1.95-4.89,4.4-12.22c6.8-7.85,5.86,0,18.57-11.72,0,0,10.74,1,9.77,18.56C285.12,435.17,284.14,430.29,276.32,424.43Z"/><path class="cls-18" d="M256.48,457.8s3,3.61,15.93,3c0,0-6.53,4.07-16.15.66A5.45,5.45,0,0,0,256.48,457.8Z"/><path class="cls-25" d="M232.33,464.86h2.27a13,13,0,0,1,13,13v31.9a3.82,3.82,0,0,1-3.82,3.82H223.18a3.82,3.82,0,0,1-3.82-3.82v-31.9A13,13,0,0,1,232.33,464.86Z" transform="translate(474.23 3.55) rotate(51.88)"/><path class="cls-26" d="M234.81,465.9h2.27a13,13,0,0,1,13,13v25.78a3.82,3.82,0,0,1-3.82,3.82H225.66a3.82,3.82,0,0,1-3.82-3.82V478.87a13,13,0,0,1,13-13Z" transform="translate(473.59 0.83) rotate(51.88)"/><path class="cls-25" d="M281.87,469.7h21.2a3.94,3.94,0,0,1,3.94,3.94v28.21a13.37,13.37,0,0,1-13.37,13.37H291.3a13.37,13.37,0,0,1-13.37-13.37V473.64a3.94,3.94,0,0,1,3.94-3.94Z" transform="translate(838.18 666.39) rotate(138.38)"/><path class="cls-26" d="M279.93,470.29h21.2a3.94,3.94,0,0,1,3.94,3.94v22.49a13.37,13.37,0,0,1-13.37,13.37h-2.34A13.37,13.37,0,0,1,276,496.72V474.22a3.94,3.94,0,0,1,3.94-3.94Z" transform="translate(833.28 663.7) rotate(138.38)"/><path class="cls-27" d="M254.26,465.12s-14.58,2.79-16.53,3.76-5.86,16.61-5.86,16.61,0,73.29-4.89,93.8c0,0-5.86,5.87,47.88,5.87,0,0,25.4,0,24.42-4.89s-1.91-89.74-1.95-93.66a.87.87,0,0,0-.05-.28l-4.75-13.47a5.92,5.92,0,0,0-4.15-3.77L275.83,466s3.41,11.34-15.16,8.85a8.24,8.24,0,0,1-6.92-5.77A4.45,4.45,0,0,1,254.26,465.12Z"/><path class="cls-21" d="M251.41,443.77a10.13,10.13,0,0,1,1.26,6.13A14.66,14.66,0,0,0,259.94,460c6.58,3.91,16.57-.55,19.63-4.87s4.08-12.38,4.08-12.38a12,12,0,0,1-6-2c-3-2-12.09-3-19.14,0,0,0-4,1-7,0Z"/><path class="cls-15" d="M323.71,468.88s2.93,1,4.89,7.82,2.93-1,2.93-1,3.16-14.59,3.91-17.59c1-3.9,2.93-2.93,2.93-1,0,1-.73,7.48-1,10.75-.24,3,0,2.93,0,2.93s3.91-15.64,5.86-15.64,0,7.82-1.95,16.61c0,0,0,1,1.95-2.93,1.8-3.58,4.16-10.34,5.87-9.77,1.36.46.49,4.58-.89,8.24-.33.88-.7,1.74-1.07,2.51a33.75,33.75,0,0,0-2,4.89s-.1,1.29,1,0c2.1-2.54,4.89-8.8,5.87-8.8,2.18,0,1,3.91-2.93,11.73-3.59,7.16-5.53,12.68-8.84,14.31A2.31,2.31,0,0,0,339,493.4L338,497l-10.75-3.64a13.14,13.14,0,0,0-.12-6.38c-1-2.93-2.67-11.21-3.91-13.68C322.25,471.33,320.29,467.42,323.71,468.88Z"/><path class="cls-28" d="M291.94,411.61a9.27,9.27,0,0,0-3.6-7.12c-6.67-5-12-1.09-13.76.48-3.09.91-7.54-.57-7.54-.57-11.72-6.84-18.56-1-19.54,3.9a10.15,10.15,0,0,1-4.89,6.84c-6.84,2.93-4.88,9.77-3.91,11.73s5.87,10.75,5.87,10.75a3.43,3.43,0,0,1,1-2c5.87-2.93,6.84,4.89,6.84,4.89a14.69,14.69,0,0,1,5.37-11.35,2,2,0,0,1,1.05-.43,29,29,0,0,0,17-8.74s.9-1.06,2.45.49c2.93,2.93,4.88,7.81,5.86,10.75s-.49,11.23-.49,11.23a38.73,38.73,0,0,0,2.93-3.91c1.92-3.84,2-13.34,2-13.66C290,422.08,292.28,416.46,291.94,411.61Zm-51.28,17.21s-3.55-4.94-1.67-9.76c.6-1.55,1.67-2.94,4.7-4.08C243.69,415,236.76,422.43,240.66,428.82Zm7.33-21s2.93-9.78,15.63-4.89C263.62,402.93,252.87,400,248,407.82Zm30.47-4.21c2.32-.92,5.36-2,9.1.79a9.88,9.88,0,0,1,3.91,6.83c.23,3.31-1.3,7.39-2.41,10.18.45-4.12.45-8.22.45-8.22C288,405.55,282.28,403.3,278.46,403.61Z"/><path class="cls-29" d="M264.6,408.79c-5.86-2-11.73-2-13.68,2.93s-2,6.84-4.89,8.8-1.95,5.86-1.95,5.86"/></g><line class="cls-30" x1="329.99" y1="375.94" x2="443.5" y2="375.4"/><polyline class="cls-31" points="336.31 366.17 322.99 376.19 336.34 385.34"/><polyline class="cls-31" points="439.65 366 453 375.98 439.68 385.17"/><path class="cls-32" d="M335.43,353v-4.32l5.52-5.36c13.29-12.64,19.29-19.36,19.37-27.2,0-5.28-2.56-10.16-10.32-10.16a17.76,17.76,0,0,0-11.05,4.4l-2.24-5a22.85,22.85,0,0,1,14.73-5.28c11.2,0,15.92,7.68,15.92,15.12,0,9.6-7,17.36-17.92,27.92L345.28,347v.16h23.36V353Z"/><path class="cls-32" d="M386.71,324.79c0-4-.08-7.28-.32-10.48h6.16l.32,6.24h.24a13.35,13.35,0,0,1,12.17-7.12,11.45,11.45,0,0,1,11,7.76h.16a16,16,0,0,1,4.32-5,13.21,13.21,0,0,1,8.56-2.72c5.12,0,12.72,3.36,12.72,16.8V353h-6.88V331.11c0-7.44-2.72-11.92-8.4-11.92-4,0-7.12,3-8.32,6.4a11.59,11.59,0,0,0-.56,3.52V353H411v-23.2c0-6.16-2.72-10.64-8.08-10.64-4.4,0-7.61,3.52-8.73,7a9.7,9.7,0,0,0-.55,3.44V353h-6.89Z"/><path class="cls-13" d="M258.19,676.63s21-8.85,43.17-33.21,49.82-26,59.23-10.52,49.82,62,124,54.8,84.14,6.09,77.5,8.31S430.35,710.65,383.85,676.2s-70.86-17.83-86.92-4.55S226.64,693.79,258.19,676.63Z"/><path class="cls-13" d="M465.68,623.87c8.88,4.21,3.56,17.69-5.82,14.77-11.43-3.55-21.6-14.36-26.84-38.43C420.68,543.63,428,606,465.68,623.87Z"/></g></svg>