<svg xmlns="http://www.w3.org/2000/svg" xmlns:xlink="http://www.w3.org/1999/xlink" viewBox="0 0 1245 1175"><defs><style>.cls-1,.cls-31{fill:none;}.cls-2{isolation:isolate;}.cls-3{fill:#a8caba;}.cls-4{fill:#ccdafd;}.cls-18,.cls-4{opacity:0.3;}.cls-5{fill:#bde1f9;}.cls-6{clip-path:url(#clip-path);}.cls-15,.cls-7{fill:#fff;}.cls-7{mix-blend-mode:overlay;}.cls-8{fill:#4d4d4d;}.cls-9{fill:#3354a3;}.cls-10{fill:#90acff;}.cls-11{fill:#93d3dc;}.cls-12{fill:#00adb1;}.cls-13{fill:#f9d1c7;}.cls-14{fill:#e7afa2;}.cls-16{fill:#f2f2f2;}.cls-17{fill:#fffffd;}.cls-18,.cls-36{fill:#54bdd2;}.cls-19{fill:#bfc2b7;}.cls-19,.cls-48{opacity:0.4;}.cls-20{fill:#91d4dd;}.cls-21{fill:#91d4dc;}.cls-22{fill:#1a1a1a;}.cls-23{fill:#028a8a;}.cls-24{fill:#017b7c;}.cls-25{fill:#f6d4ca;}.cls-26{fill:#f2aea5;}.cls-27{fill:#00adb4;}.cls-28{fill:#007b7b;}.cls-29{fill:#04939b;opacity:0.7;}.cls-30{fill:#99aaa2;}.cls-31{stroke:#000;stroke-linecap:round;stroke-miterlimit:10;stroke-width:2.2px;}.cls-32{fill:#ccc;}.cls-33{fill:#694022;}.cls-34{fill:#04aab8;}.cls-35{fill:#f5ada1;opacity:0.5;}.cls-37{fill:#00aeb8;}.cls-38{fill:#007a7b;}.cls-39{fill:#3753a6;}.cls-40{fill:#91d4da;}.cls-41{fill:#00797c;}.cls-42{fill:#007b79;}.cls-43{fill:#333;}.cls-44{fill:#1b1464;}.cls-45{fill:#f4d3ce;}.cls-46{fill:#fffeff;}.cls-47{fill:#4582d5;}.cls-48{fill:#41d3ff;}.cls-49{fill:#602601;}.cls-50{fill:#754c24;}.cls-51{fill:#009397;}.cls-52{fill:#00acb8;}.cls-53{fill:#42d6fe;}.cls-54{fill:#dcdbd6;}.cls-55{fill:#c1c1b9;}.cls-56{fill:#009499;}.cls-57{fill:#c3c2bd;}.cls-58{fill:#c4c1ba;}.cls-59{fill:#3453a5;}.cls-60{fill:#26498b;}.cls-61{fill:#03929a;}.cls-62{fill:#01969a;}.cls-63{fill:#05acb2;}.cls-64{fill:#dadcd7;}.cls-65{fill:#dbdbd3;}.cls-66{fill:#00b0b2;}.cls-67{fill:#00949c;}</style><clipPath id="clip-path"><rect class="cls-1" width="1245" height="1174.5"/></clipPath></defs><title>fondo-medidas-</title><g class="cls-2"><g id="Fondos-Grids"><ellipse class="cls-3" cx="1130.38" cy="340.7" rx="12.38" ry="6.19" transform="translate(-45.57 445.45) rotate(-21.86)"/><ellipse class="cls-3" cx="1160.01" cy="359.8" rx="8.54" ry="4.27" transform="translate(-50.55 457.85) rotate(-21.86)"/><path class="cls-4" d="M3.29,570.2c0,117.84,70.89,223.53,179.19,270a210.34,210.34,0,0,1,24.61,12.55C408.33,972.35,734.41,1144.5,886,890.65s-76.52-275.59-71.33-436.2C819.74,296.89,763.7,200.6,658,196.23c-84.57-3.51-144.69,27.54-205.14-6.21-44.76-25-94.81-39-146.08-39h-10.5c-161.8,0-293,131.17-293,293Z"/><path class="cls-4" d="M606.77,624.54c24.81,74.35,91.54,127.27,169.7,133.16a140.43,140.43,0,0,1,19.29,2.83c152.9,33.26,396.06,73.39,438.43-119.62s-106.83-158.53-137.53-261.45c-30.11-101-86-150.16-154-130.56-54.36,15.68-85.9,48.08-131.37,39.48-33.67-6.38-68.36-4.67-100.87,6.18l-6.65,2.22C601.21,331,545.81,441.94,580.05,544.52Z"/><path class="cls-4" d="M65.56,857.84a200,200,0,0,0,176.3,135.92,148.56,148.56,0,0,1,20.11,2.8c159.34,33.31,412.82,73.18,458.14-125.49s-110.56-162.37-142-268c-30.84-103.63-88.89-153.87-159.9-133.34-56.8,16.43-89.9,49.93-137.29,41.34-35.09-6.36-71.3-4.41-105.28,6.93l-7,2.33C61.46,556.11,3,670.46,38.15,775.72Z"/><path class="cls-4" d="M476.2,858.23C501,932.58,567.74,985.49,645.9,991.38a140.06,140.06,0,0,1,19.29,2.84c152.91,33.25,396.06,73.39,438.44-119.62S996.79,716.07,966.1,613.14c-30.12-101-86-150.15-154-130.55-54.36,15.67-85.91,48.08-131.37,39.47-33.67-6.37-68.37-4.67-100.87,6.18l-6.66,2.22c-102.58,34.24-158,145.16-123.74,247.74Z"/><ellipse class="cls-3" cx="814.72" cy="836.73" rx="8.49" ry="16.98" transform="translate(-329.09 600.96) rotate(-34.12)"/><ellipse class="cls-3" cx="797.74" cy="882.01" rx="5.86" ry="11.72" transform="translate(-357.41 599.23) rotate(-34.12)"/><ellipse class="cls-3" cx="98.8" cy="168" rx="5.98" ry="11.97" transform="translate(-22.52 15.46) rotate(-8.04)"/><ellipse class="cls-3" cx="129.1" cy="183.63" rx="4.13" ry="8.26" transform="translate(-24.4 19.85) rotate(-8.04)"/><path class="cls-5" d="M274.23,608.19s21.92-21.91-27.89-105.58,71.72-165.35,149.42-141.45,113.55,73.71,195.23,12S798.17,251.6,927.66,357.18s6,231.09,0,263,12,63.75,79.68,101.6,67.74,173.32-107.57,243-677.33,87.66-772.95-103.59c0,0-55.78-145.43,89.64-205.19C216.46,656,270.25,628.11,274.23,608.19Z"/><path class="cls-5" d="M291.71,597S313.62,575,263.82,491.37,335.53,326,413.23,349.93s113.55,73.71,195.23,11.95S815.64,240.36,945.13,346s6,231.08,0,263,12,63.75,79.69,101.6,67.73,173.31-107.58,243S239.91,1041.2,144.29,850c0,0-55.78-145.43,89.65-205.19C233.94,644.77,287.72,616.88,291.71,597Z"/><g class="cls-6"><g id="Stars"><ellipse class="cls-7" cx="1093.05" cy="853.11" rx="2.6" ry="1.73"/><ellipse class="cls-7" cx="1224.11" cy="855.52" rx="2.16" ry="1.44"/><ellipse class="cls-7" cx="1078" cy="922.63" rx="1.27" ry="0.93"/><ellipse class="cls-7" cx="1185.44" cy="898.72" rx="3.43" ry="2.81"/><ellipse class="cls-7" cx="1118.41" cy="1021.04" rx="2.06" ry="1.37"/><ellipse class="cls-7" cx="829.01" cy="865.78" rx="4.02" ry="3.3"/><ellipse class="cls-7" cx="923.86" cy="944.47" rx="3.93" ry="3.22"/><ellipse class="cls-7" cx="403.91" cy="899.11" rx="2.81" ry="1.87"/><ellipse class="cls-7" cx="1053.54" cy="940.39" rx="1.95" ry="1.43"/><ellipse class="cls-7" cx="1125.49" cy="922.24" rx="3.87" ry="3.18"/><ellipse class="cls-7" cx="1223.96" cy="938.87" rx="3.01" ry="2.47"/><ellipse class="cls-7" cx="1108.78" cy="1091.02" rx="3.17" ry="2.33"/><ellipse class="cls-7" cx="770.23" cy="770.22" rx="3.77" ry="3.39"/><ellipse class="cls-7" cx="268.88" cy="936.25" rx="1.32" ry="0.32"/><ellipse class="cls-7" cx="850.91" cy="1021.63" rx="0.89" ry="0.24"/><ellipse class="cls-7" cx="1008.4" cy="978.98" rx="1.88" ry="1.38"/><ellipse class="cls-7" cx="144.41" cy="842.74" rx="1.32" ry="0.32"/><ellipse class="cls-7" cx="962.44" cy="999.95" rx="1.89" ry="0.5"/><ellipse class="cls-7" cx="865.7" cy="1094.47" rx="1.34" ry="0.32"/><ellipse class="cls-7" cx="462.36" cy="701.09" rx="1.35" ry="0.44"/><ellipse class="cls-7" cx="1005.99" cy="1029.73" rx="2.27" ry="1.51"/><ellipse class="cls-7" cx="357.84" cy="1023.16" rx="2.97" ry="1.98"/><ellipse class="cls-7" cx="370.22" cy="1077.78" rx="1.94" ry="1.29"/><ellipse class="cls-7" cx="302.19" cy="966.93" rx="3.36" ry="2.24"/><ellipse class="cls-7" cx="942.23" cy="814.1" rx="1.7" ry="1.13"/><ellipse class="cls-7" cx="1038.33" cy="745.03" rx="3.04" ry="2.73"/><ellipse class="cls-7" cx="696.83" cy="729.43" rx="3.28" ry="2.95"/><ellipse class="cls-7" cx="42.32" cy="932.55" rx="1.55" ry="1.03"/><ellipse class="cls-7" cx="56.51" cy="900.58" rx="1.02" ry="0.25"/><ellipse class="cls-7" cx="217.93" cy="920.46" rx="2.67" ry="1.78"/><ellipse class="cls-7" cx="889.17" cy="991.64" rx="1.26" ry="0.92"/><ellipse class="cls-7" cx="1066.75" cy="943.33" rx="2.99" ry="2.45"/><ellipse class="cls-7" cx="15.38" cy="847.88" rx="4.38" ry="2.92"/><ellipse class="cls-7" cx="864.36" cy="774.76" rx="2.81" ry="2.53"/><ellipse class="cls-7" cx="13.19" cy="952.44" rx="2.19" ry="1.46"/><ellipse class="cls-7" cx="316.99" cy="927.31" rx="3.9" ry="2.6"/><ellipse class="cls-7" cx="1076.11" cy="972.96" rx="1.88" ry="1.38"/><ellipse class="cls-7" cx="1126.12" cy="798.77" rx="2.86" ry="1.91"/><ellipse class="cls-7" cx="1138.88" cy="1130.84" rx="2.37" ry="1.58"/><ellipse class="cls-7" cx="1168.77" cy="733.43" rx="2.44" ry="1.63"/><ellipse class="cls-7" cx="903.2" cy="661.42" rx="2.9" ry="2.6"/><ellipse class="cls-7" cx="1066.75" cy="645.32" rx="1.57" ry="1.41"/><ellipse class="cls-7" cx="1176.4" cy="691.55" rx="2.93" ry="1.95"/><ellipse class="cls-7" cx="317.41" cy="635.35" rx="2.95" ry="2.65"/><ellipse class="cls-7" cx="844.62" cy="672.53" rx="2.8" ry="2.52"/><ellipse class="cls-7" cx="611.79" cy="668.36" rx="2.31" ry="2.07"/><ellipse class="cls-7" cx="1124.91" cy="662.57" rx="4.84" ry="4.37"/><ellipse class="cls-7" cx="1088.21" cy="713.07" rx="2.3" ry="2.07"/><ellipse class="cls-7" cx="372.88" cy="656.89" rx="2.04" ry="1.83"/><ellipse class="cls-7" cx="538.36" cy="651.31" rx="1.59" ry="1.42"/><ellipse class="cls-7" cx="508.24" cy="706.24" rx="1.52" ry="1.37"/><ellipse class="cls-7" cx="695.8" cy="682.44" rx="2.64" ry="2.37"/><ellipse class="cls-7" cx="986.55" cy="644.06" rx="1.24" ry="1.11"/><ellipse class="cls-7" cx="412.53" cy="694.75" rx="3.01" ry="2.71"/><ellipse class="cls-7" cx="1039.78" cy="802.99" rx="3.04" ry="2.03"/><ellipse class="cls-7" cx="153.52" cy="801.88" rx="2.73" ry="2.45"/><ellipse class="cls-7" cx="478.71" cy="664.19" rx="3.51" ry="3.15"/><ellipse class="cls-7" cx="942.06" cy="689.08" rx="3.38" ry="3.04"/><ellipse class="cls-7" cx="614.1" cy="741.41" rx="4.51" ry="4.05"/><ellipse class="cls-7" cx="807.27" cy="784.58" rx="4.51" ry="4.05"/><ellipse class="cls-7" cx="938.68" cy="973.99" rx="4.51" ry="4.05"/><ellipse class="cls-7" cx="159.22" cy="627.68" rx="3.28" ry="2.95"/><ellipse class="cls-7" cx="162.5" cy="722.89" rx="2.22" ry="1.99"/><ellipse class="cls-7" cx="272.46" cy="667.05" rx="4.4" ry="3.95"/><ellipse class="cls-7" cx="283.64" cy="888.35" rx="1.04" ry="0.94"/><ellipse class="cls-7" cx="208.66" cy="860.06" rx="3.79" ry="3.41"/><ellipse class="cls-7" cx="60.54" cy="690.66" rx="4.42" ry="3.97"/><ellipse class="cls-7" cx="204.08" cy="880.44" rx="1.94" ry="1.74"/><ellipse class="cls-7" cx="396.22" cy="664.13" rx="3.59" ry="3.23"/><ellipse class="cls-7" cx="998.57" cy="674.51" rx="4.41" ry="3.96"/><ellipse class="cls-7" cx="759.67" cy="630.13" rx="1.75" ry="1.57"/><ellipse class="cls-7" cx="1194.01" cy="659.35" rx="1.71" ry="1.14"/><ellipse class="cls-7" cx="1170.21" cy="783.83" rx="2.44" ry="1.63"/><ellipse class="cls-7" cx="922.98" cy="754.4" rx="2.9" ry="2.6"/><ellipse class="cls-7" cx="1057.61" cy="742.64" rx="1.57" ry="1.41"/><ellipse class="cls-7" cx="1177.85" cy="741.95" rx="2.93" ry="1.95"/><ellipse class="cls-7" cx="319.07" cy="713.27" rx="2.95" ry="2.65"/><ellipse class="cls-7" cx="474.15" cy="744.91" rx="1.62" ry="1.45"/><ellipse class="cls-7" cx="846.07" cy="740.44" rx="2.8" ry="2.52"/><ellipse class="cls-7" cx="1129.34" cy="776.01" rx="3.19" ry="2.13"/><ellipse class="cls-7" cx="1089.65" cy="779.27" rx="2.3" ry="1.53"/><ellipse class="cls-7" cx="327.81" cy="827.28" rx="1.59" ry="1.43"/><ellipse class="cls-7" cx="540.02" cy="729.22" rx="1.59" ry="1.42"/><ellipse class="cls-7" cx="45.25" cy="785.99" rx="1.77" ry="1.59"/><ellipse class="cls-7" cx="988" cy="736.73" rx="1.24" ry="1.11"/><ellipse class="cls-7" cx="414.18" cy="774.19" rx="3.01" ry="2.01"/><ellipse class="cls-7" cx="964.41" cy="1053.69" rx="1.97" ry="0.52"/><ellipse class="cls-7" cx="51.08" cy="734.71" rx="1.44" ry="1.29"/><ellipse class="cls-7" cx="1011.21" cy="945.02" rx="1.34" ry="0.98"/><ellipse class="cls-7" cx="1017.07" cy="927.5" rx="2.25" ry="1.5"/><ellipse class="cls-7" cx="151.65" cy="677.88" rx="1.91" ry="1.72"/><ellipse class="cls-7" cx="187.66" cy="691.87" rx="1.32" ry="1.19"/><ellipse class="cls-7" cx="122.47" cy="698.46" rx="2.85" ry="2.56"/><ellipse class="cls-7" cx="151.91" cy="793.38" rx="0.87" ry="0.78"/><ellipse class="cls-7" cx="89.38" cy="769.79" rx="3.16" ry="2.84"/><ellipse class="cls-7" cx="85.56" cy="786.79" rx="1.62" ry="1.45"/><ellipse class="cls-7" cx="202.81" cy="696.57" rx="2.33" ry="2.09"/><ellipse class="cls-7" cx="152.73" cy="728.46" rx="1.91" ry="1.72"/><ellipse class="cls-7" cx="183.18" cy="833.23" rx="1.03" ry="0.93"/><ellipse class="cls-7" cx="307.61" cy="848.75" rx="1.32" ry="0.32"/><ellipse class="cls-7" cx="256.66" cy="832.96" rx="2.67" ry="1.78"/><ellipse class="cls-7" cx="355.72" cy="839.81" rx="3.9" ry="2.6"/><ellipse class="cls-7" cx="322.38" cy="800.85" rx="1.04" ry="0.94"/><ellipse class="cls-7" cx="247.39" cy="772.56" rx="3.79" ry="3.41"/><ellipse class="cls-7" cx="242.82" cy="792.94" rx="1.94" ry="1.74"/><ellipse class="cls-7" cx="366.54" cy="739.78" rx="1.59" ry="1.43"/><ellipse class="cls-7" cx="221.91" cy="745.73" rx="1.03" ry="0.93"/><ellipse class="cls-7" cx="237" cy="1016.59" rx="2.22" ry="1.99"/><ellipse class="cls-7" cx="63.48" cy="949.07" rx="2.45" ry="2.2"/><ellipse class="cls-7" cx="174.78" cy="955.74" rx="3.28" ry="2.94"/><ellipse class="cls-7" cx="236.46" cy="962.86" rx="2.27" ry="2.04"/><ellipse class="cls-7" cx="57.05" cy="956.05" rx="1.18" ry="1.06"/><ellipse class="cls-7" cx="125.58" cy="1028.42" rx="1.44" ry="1.29"/><ellipse class="cls-7" cx="124.8" cy="974.15" rx="4.89" ry="4.39"/><ellipse class="cls-7" cx="163.87" cy="1063.5" rx="3.16" ry="2.84"/><ellipse class="cls-7" cx="262.4" cy="970.91" rx="3.99" ry="3.59"/><ellipse class="cls-7" cx="227.23" cy="1022.17" rx="1.91" ry="1.72"/><ellipse class="cls-7" cx="263.24" cy="1036.15" rx="1.32" ry="1.19"/><ellipse class="cls-7" cx="141.57" cy="941.52" rx="1.23" ry="1.1"/><ellipse class="cls-7" cx="84.98" cy="923.64" rx="2.45" ry="2.2"/><ellipse class="cls-7" cx="135.55" cy="916.54" rx="1.06" ry="0.95"/><ellipse class="cls-7" cx="300.89" cy="926.25" rx="1.32" ry="1.19"/><ellipse class="cls-7" cx="78.55" cy="913.78" rx="1.18" ry="1.06"/><ellipse class="cls-7" cx="79.73" cy="948.08" rx="0.8" ry="0.72"/><ellipse class="cls-7" cx="119.35" cy="927.96" rx="1.58" ry="1.42"/><ellipse class="cls-7" cx="112.35" cy="865.37" rx="5.42" ry="4.87"/><ellipse class="cls-7" cx="136.14" cy="944.62" rx="1.06" ry="0.95"/><ellipse class="cls-7" cx="329.4" cy="953.54" rx="1.32" ry="1.19"/><ellipse class="cls-7" cx="1159.61" cy="789.05" rx="1.32" ry="0.32"/><ellipse class="cls-7" cx="1057.52" cy="878.85" rx="1.55" ry="1.03"/><ellipse class="cls-7" cx="1071.71" cy="846.88" rx="1.02" ry="0.25"/><ellipse class="cls-7" cx="1233.13" cy="866.77" rx="2.67" ry="1.78"/><ellipse class="cls-7" cx="1030.58" cy="794.19" rx="4.38" ry="2.92"/><ellipse class="cls-7" cx="1028.39" cy="898.75" rx="2.19" ry="1.46"/><ellipse class="cls-7" cx="1168.72" cy="748.19" rx="2.73" ry="2.45"/><ellipse class="cls-7" cx="1195.72" cy="707.68" rx="2.22" ry="1.99"/><ellipse class="cls-7" cx="1223.86" cy="806.37" rx="3.79" ry="3.41"/><ellipse class="cls-7" cx="1219.29" cy="826.75" rx="1.94" ry="1.74"/><ellipse class="cls-7" cx="1060.45" cy="732.3" rx="1.77" ry="1.59"/><ellipse class="cls-7" cx="1066.28" cy="681.02" rx="1.44" ry="1.29"/><ellipse class="cls-7" cx="1167.11" cy="739.69" rx="0.87" ry="0.78"/><ellipse class="cls-7" cx="1104.58" cy="716.1" rx="3.16" ry="2.84"/><ellipse class="cls-7" cx="1100.76" cy="733.09" rx="1.62" ry="1.45"/><ellipse class="cls-7" cx="1167.93" cy="674.77" rx="1.91" ry="1.72"/><ellipse class="cls-7" cx="1198.38" cy="779.53" rx="1.03" ry="0.93"/><ellipse class="cls-7" cx="1237.11" cy="692.03" rx="1.03" ry="0.93"/><ellipse class="cls-7" cx="1078.68" cy="912.21" rx="2.45" ry="2.2"/><ellipse class="cls-7" cx="1189.98" cy="983.44" rx="3.28" ry="2.94"/><ellipse class="cls-7" cx="1072.25" cy="902.35" rx="1.18" ry="1.06"/><ellipse class="cls-7" cx="1140" cy="937.29" rx="4.89" ry="4.39"/><ellipse class="cls-7" cx="1156.77" cy="887.83" rx="1.23" ry="1.1"/><ellipse class="cls-7" cx="1100.18" cy="869.94" rx="2.45" ry="2.2"/><ellipse class="cls-7" cx="1150.75" cy="862.85" rx="1.06" ry="0.95"/><ellipse class="cls-7" cx="1093.75" cy="860.09" rx="1.18" ry="1.06"/><ellipse class="cls-7" cx="1094.93" cy="894.39" rx="0.8" ry="0.72"/><ellipse class="cls-7" cx="1134.55" cy="874.27" rx="1.58" ry="1.42"/><ellipse class="cls-7" cx="937.52" cy="855.24" rx="2.6" ry="1.73"/><ellipse class="cls-7" cx="902" cy="880.98" rx="1.55" ry="1.03"/><ellipse class="cls-7" cx="916.19" cy="849.02" rx="1.02" ry="0.25"/><ellipse class="cls-7" cx="944.66" cy="872.07" rx="2.45" ry="2.2"/><ellipse class="cls-7" cx="938.22" cy="862.22" rx="1.18" ry="1.06"/><ellipse class="cls-7" cx="979.03" cy="876.4" rx="1.58" ry="1.42"/><ellipse class="cls-7" cx="1127.55" cy="811.68" rx="5.42" ry="4.87"/><ellipse class="cls-7" cx="1151.34" cy="890.92" rx="1.06" ry="0.95"/><ellipse class="cls-7" cx="627.85" cy="750.58" rx="1.7" ry="1.65" transform="translate(-296.71 1071.14) rotate(-69.21)"/><ellipse class="cls-7" cx="674.4" cy="691.99" rx="2.69" ry="2.23" transform="translate(-0.91 0.89) rotate(-0.08)"/><ellipse class="cls-7" cx="522.85" cy="782.68" rx="1.98" ry="2.61" transform="translate(-266.23 1295.83) rotate(-89.29)"/><ellipse class="cls-7" cx="577" cy="727.35" rx="1.87" ry="1.82" transform="translate(-307.79 1008.61) rotate(-69.21)"/><ellipse class="cls-7" cx="515.94" cy="697.53" rx="1.59" ry="1.55" transform="translate(-319.3 932.29) rotate(-69.21)"/><ellipse class="cls-7" cx="578.27" cy="783.6" rx="1.98" ry="1.93" transform="translate(-359.57 1046.08) rotate(-69.21)"/><ellipse class="cls-7" cx="564.14" cy="698.21" rx="1.59" ry="1.55" transform="translate(-288.84 977.79) rotate(-69.21)"/><ellipse class="cls-7" cx="521.18" cy="770.07" rx="1.02" ry="1.35" transform="translate(-255.26 1281.71) rotate(-89.29)"/><ellipse class="cls-7" cx="524.37" cy="691.9" rx="1.91" ry="1.86" transform="translate(-308.6 936.54) rotate(-69.21)"/><ellipse class="cls-7" cx="555.36" cy="724.52" rx="2.08" ry="2.03" transform="translate(-319.11 986.55) rotate(-69.21)"/><ellipse class="cls-7" cx="557.2" cy="750.42" rx="1.5" ry="1.46" transform="translate(-342.14 1004.98) rotate(-69.21)"/><ellipse class="cls-7" cx="568.78" cy="705.26" rx="0.86" ry="0.3" transform="translate(-164.87 1236.93) rotate(-87.04)"/><ellipse class="cls-7" cx="651.31" cy="774.5" rx="1.01" ry="0.98" transform="translate(-303.94 1108.49) rotate(-69.21)"/><ellipse class="cls-7" cx="621.22" cy="764.25" rx="0.66" ry="0.24" transform="translate(-174.04 1345.25) rotate(-87.04)"/><ellipse class="cls-7" cx="569.56" cy="789.3" rx="2.86" ry="2.78" transform="translate(-370.51 1041.61) rotate(-69.21)"/><ellipse class="cls-7" cx="669.39" cy="794.08" rx="1.43" ry="1.39" transform="translate(-310.58 1138.02) rotate(-69.21)"/><ellipse class="cls-7" cx="530.04" cy="698.03" rx="1.77" ry="2.34" transform="translate(-174.48 1219.42) rotate(-89.29)"/><ellipse class="cls-7" cx="521.87" cy="698.81" rx="0.56" ry="0.75" transform="translate(-183.33 1212.01) rotate(-89.29)"/><ellipse class="cls-7" cx="560.94" cy="679.76" rx="0.67" ry="0.89" transform="translate(-125.69 1232.27) rotate(-89.29)"/><ellipse class="cls-7" cx="674.23" cy="765.68" rx="0.77" ry="1.02" transform="translate(-99.7 1430.42) rotate(-89.29)"/><ellipse class="cls-7" cx="663.07" cy="710.28" rx="0.8" ry="1.06" transform="translate(-55.34 1364.54) rotate(-89.29)"/><ellipse class="cls-7" cx="644.17" cy="746.49" rx="1.59" ry="2.11" transform="translate(-110.21 1381.4) rotate(-89.29)"/><ellipse class="cls-7" cx="639.01" cy="713.39" rx="0.69" ry="0.91" transform="translate(-82.21 1343.55) rotate(-89.29)"/><ellipse class="cls-7" cx="634.54" cy="750.35" rx="0.77" ry="1.02" transform="matrix(0.01, -1, 1, 0.01, -123.58, 1375.59)"/><ellipse class="cls-7" cx="667.35" cy="750.68" rx="0.52" ry="0.69" transform="translate(-91.5 1408.73) rotate(-89.29)"/><ellipse class="cls-7" cx="649.4" cy="724.29" rx="1.03" ry="1.36" transform="translate(-82.84 1364.71) rotate(-89.29)"/><ellipse class="cls-7" cx="589.38" cy="726.83" rx="3.53" ry="4.65" transform="matrix(0.01, -1, 1, 0.01, -144.67, 1307.2)"/><ellipse class="cls-7" cx="257.51" cy="883.16" rx="1.31" ry="1.72" transform="translate(-636.69 1099.22) rotate(-87.33)"/><ellipse class="cls-7" cx="351.11" cy="893.79" rx="1.31" ry="1.72" transform="translate(-558.08 1202.85) rotate(-87.33)"/><ellipse class="cls-7" cx="354.55" cy="863.36" rx="1.51" ry="2.25" transform="translate(-540.04 1129.46) rotate(-84.24)"/><ellipse class="cls-7" cx="309.44" cy="908.54" rx="1.29" ry="1.92" transform="translate(-625.57 1125.23) rotate(-84.24)"/><ellipse class="cls-7" cx="317.66" cy="869.36" rx="1.29" ry="1.92" transform="translate(-579.19 1098.16) rotate(-84.24)"/><ellipse class="cls-7" cx="303.99" cy="900.8" rx="1.55" ry="2.3" transform="translate(-622.77 1112.85) rotate(-84.24)"/><ellipse class="cls-7" cx="347.83" cy="880.56" rx="1.68" ry="2.5" transform="translate(-563.19 1138.26) rotate(-84.24)"/><ellipse class="cls-7" cx="326.83" cy="866.66" rx="0.25" ry="1.03" transform="translate(-580.24 1054.11) rotate(-81.01)"/><ellipse class="cls-7" cx="312.21" cy="897.12" rx="2.16" ry="1.92" transform="translate(-121.01 51.77) rotate(-7.95)"/><ellipse class="cls-7" cx="311.88" cy="903.91" rx="0.69" ry="0.61" transform="translate(-121.95 51.79) rotate(-7.95)"/><ellipse class="cls-7" cx="295.07" cy="869.13" rx="0.82" ry="0.73" transform="translate(-117.3 49.13) rotate(-7.95)"/><ellipse class="cls-7" cx="355.83" cy="853.19" rx="4.3" ry="3.82" transform="translate(-114.51 57.37) rotate(-7.95)"/><ellipse class="cls-7" cx="351.63" cy="798.25" rx="1.31" ry="1.72" transform="translate(-462.14 1112.28) rotate(-87.33)"/><ellipse class="cls-7" cx="445.23" cy="808.87" rx="1.31" ry="1.72" transform="translate(-383.52 1215.91) rotate(-87.33)"/><ellipse class="cls-7" cx="448.67" cy="778.44" rx="1.51" ry="2.25" transform="translate(-370.88 1146.72) rotate(-84.24)"/><ellipse class="cls-7" cx="403.56" cy="823.62" rx="1.29" ry="1.92" transform="translate(-456.41 1142.48) rotate(-84.24)"/><ellipse class="cls-7" cx="411.78" cy="784.44" rx="1.29" ry="1.92" transform="translate(-410.03 1115.42) rotate(-84.24)"/><ellipse class="cls-7" cx="398.11" cy="815.89" rx="1.55" ry="2.3" transform="translate(-453.61 1130.1) rotate(-84.24)"/><ellipse class="cls-7" cx="441.96" cy="795.65" rx="1.68" ry="2.5" transform="translate(-394.03 1155.52) rotate(-84.24)"/><ellipse class="cls-7" cx="420.95" cy="781.75" rx="0.25" ry="1.03" transform="translate(-416.95 1075.43) rotate(-81.01)"/><ellipse class="cls-7" cx="406.33" cy="812.21" rx="2.16" ry="1.92" transform="translate(-108.37 63.96) rotate(-7.95)"/><ellipse class="cls-7" cx="406" cy="818.99" rx="0.69" ry="0.61" transform="matrix(0.99, -0.14, 0.14, 0.99, -109.31, 63.98)"/><ellipse class="cls-7" cx="389.19" cy="784.22" rx="0.82" ry="0.73" transform="translate(-104.66 61.32) rotate(-7.95)"/><ellipse class="cls-7" cx="449.95" cy="768.28" rx="4.3" ry="3.82" transform="translate(-101.87 69.57) rotate(-7.95)"/><ellipse class="cls-7" cx="665.85" cy="713.9" rx="0.69" ry="0.91" transform="translate(-56.21 1370.9) rotate(-89.29)"/><ellipse class="cls-7" cx="849.21" cy="770.93" rx="2.31" ry="2.07"/><ellipse class="cls-7" cx="775.77" cy="753.87" rx="1.59" ry="1.42"/><ellipse class="cls-7" cx="745.65" cy="808.8" rx="1.52" ry="1.37"/><ellipse class="cls-7" cx="851.51" cy="843.97" rx="4.51" ry="4.05"/><ellipse class="cls-7" cx="777.43" cy="831.79" rx="1.59" ry="1.42"/><ellipse class="cls-7" cx="865.27" cy="853.15" rx="1.7" ry="1.65" transform="translate(-239.45 1359.25) rotate(-69.21)"/><ellipse class="cls-7" cx="911.81" cy="794.56" rx="2.69" ry="2.23" transform="translate(-1.04 1.2) rotate(-0.08)"/><ellipse class="cls-7" cx="814.42" cy="829.91" rx="1.87" ry="1.82" transform="translate(-250.53 1296.72) rotate(-69.21)"/><ellipse class="cls-7" cx="753.36" cy="800.09" rx="1.59" ry="1.55" transform="translate(-262.04 1220.41) rotate(-69.21)"/><ellipse class="cls-7" cx="801.56" cy="800.77" rx="1.59" ry="1.55" transform="translate(-231.58 1265.9) rotate(-69.21)"/><ellipse class="cls-7" cx="758.59" cy="872.64" rx="1.02" ry="1.35" transform="translate(-123.34 1620.41) rotate(-89.29)"/><ellipse class="cls-7" cx="761.79" cy="794.46" rx="1.91" ry="1.86" transform="translate(-251.34 1224.65) rotate(-69.21)"/><ellipse class="cls-7" cx="792.77" cy="827.09" rx="2.08" ry="2.03" transform="translate(-261.85 1274.67) rotate(-69.21)"/><ellipse class="cls-7" cx="794.61" cy="852.99" rx="1.5" ry="1.46" transform="translate(-284.88 1293.09) rotate(-69.21)"/><ellipse class="cls-7" cx="806.2" cy="807.83" rx="0.86" ry="0.3" transform="translate(-42.12 1571.31) rotate(-87.04)"/><ellipse class="cls-7" cx="888.73" cy="877.06" rx="1.01" ry="0.98" transform="translate(-246.68 1396.61) rotate(-69.21)"/><ellipse class="cls-7" cx="858.64" cy="866.82" rx="0.66" ry="0.24" transform="translate(-51.29 1679.62) rotate(-87.04)"/><ellipse class="cls-7" cx="767.46" cy="800.6" rx="1.77" ry="2.34" transform="translate(-42.55 1558.12) rotate(-89.29)"/><ellipse class="cls-7" cx="759.28" cy="801.37" rx="0.56" ry="0.75" transform="matrix(0.01, -1, 1, 0.01, -51.4, 1550.71)"/><ellipse class="cls-7" cx="798.36" cy="782.33" rx="0.67" ry="0.89" transform="translate(6.24 1570.97) rotate(-89.29)"/><ellipse class="cls-7" cx="911.65" cy="868.24" rx="0.77" ry="1.02" transform="translate(32.23 1769.11) rotate(-89.29)"/><ellipse class="cls-7" cx="900.48" cy="812.85" rx="0.8" ry="1.06" transform="translate(76.59 1703.23) rotate(-89.29)"/><ellipse class="cls-7" cx="881.58" cy="849.05" rx="1.59" ry="2.11" transform="translate(21.72 1720.09) rotate(-89.29)"/><ellipse class="cls-7" cx="876.43" cy="815.96" rx="0.69" ry="0.91" transform="translate(49.72 1682.25) rotate(-89.29)"/><ellipse class="cls-7" cx="871.96" cy="852.92" rx="0.77" ry="1.02" transform="translate(8.35 1714.29) rotate(-89.29)"/><ellipse class="cls-7" cx="904.77" cy="853.25" rx="0.52" ry="0.69" transform="translate(40.43 1747.42) rotate(-89.29)"/><ellipse class="cls-7" cx="886.82" cy="826.85" rx="1.03" ry="1.36" transform="translate(49.09 1703.4) rotate(-89.29)"/><ellipse class="cls-7" cx="903.27" cy="816.47" rx="0.69" ry="0.91" transform="translate(75.72 1709.59) rotate(-89.29)"/><ellipse class="cls-7" cx="826.79" cy="829.4" rx="3.53" ry="4.65" transform="translate(-12.74 1645.89) rotate(-89.29)"/></g><g id="Stars-2" data-name="Stars"><ellipse class="cls-7" cx="294.62" cy="239.51" rx="2.73" ry="2.46"/><ellipse class="cls-7" cx="1063.34" cy="330.82" rx="2.43" ry="1.97"/><ellipse class="cls-7" cx="940.8" cy="328.08" rx="2.02" ry="1.63"/><ellipse class="cls-7" cx="598.2" cy="256.28" rx="2.47" ry="2"/><ellipse class="cls-7" cx="408.57" cy="325.57" rx="2.66" ry="2.4"/><ellipse class="cls-7" cx="116.6" cy="261.98" rx="2.86" ry="2.32"/><ellipse class="cls-7" cx="1077.41" cy="251.93" rx="1.18" ry="1.06"/><ellipse class="cls-7" cx="976.96" cy="279.06" rx="3.2" ry="3.19"/><ellipse class="cls-7" cx="1039.62" cy="140.25" rx="1.92" ry="1.55"/><ellipse class="cls-7" cx="884.57" cy="378.23" rx="1.93" ry="1.56"/><ellipse class="cls-7" cx="748.65" cy="79.48" rx="2.21" ry="1.79"/><ellipse class="cls-7" cx="185.89" cy="363.23" rx="3" ry="2.43"/><ellipse class="cls-7" cx="80.59" cy="428.92" rx="3.31" ry="2.68"/><ellipse class="cls-7" cx="147.21" cy="489.92" rx="2.78" ry="2.25"/><ellipse class="cls-7" cx="702.28" cy="252.03" rx="2.13" ry="1.72"/><ellipse class="cls-7" cx="520.05" cy="309.65" rx="3.14" ry="2.54"/><ellipse class="cls-7" cx="307.18" cy="448.62" rx="4.22" ry="3.41"/><ellipse class="cls-7" cx="1221.52" cy="227.15" rx="3.67" ry="3.65"/><ellipse class="cls-7" cx="671.41" cy="349.04" rx="2.61" ry="2.11"/><ellipse class="cls-7" cx="364.89" cy="397.95" rx="3.3" ry="2.67"/><ellipse class="cls-7" cx="228.29" cy="485.69" rx="1.96" ry="1.59"/><ellipse class="cls-7" cx="79.57" cy="261.58" rx="2.57" ry="2.08"/><ellipse class="cls-7" cx="1100.28" cy="231.78" rx="1.83" ry="1.63"/><ellipse class="cls-7" cx="1033" cy="252.37" rx="3.62" ry="3.6"/><ellipse class="cls-7" cx="940.94" cy="233.5" rx="2.81" ry="2.8"/><ellipse class="cls-7" cx="561.86" cy="398.73" rx="2.88" ry="2.89"/><ellipse class="cls-7" cx="224.55" cy="276.67" rx="1.87" ry="1.51"/><ellipse class="cls-7" cx="362.41" cy="286.04" rx="2.48" ry="2.24"/><ellipse class="cls-7" cx="445.73" cy="385.86" rx="2.54" ry="2.3"/><ellipse class="cls-7" cx="161.16" cy="194.34" rx="2.73" ry="2.46"/><ellipse class="cls-7" cx="275.11" cy="261.29" rx="2.66" ry="2.4"/><ellipse class="cls-7" cx="228.95" cy="221.76" rx="2.48" ry="2.24"/><ellipse class="cls-7" cx="443.19" cy="242.95" rx="2.54" ry="2.3"/><ellipse class="cls-7" cx="132.87" cy="322.9" rx="2.73" ry="2.46"/><ellipse class="cls-7" cx="246.82" cy="408.95" rx="2.66" ry="2.4"/><ellipse class="cls-7" cx="200.66" cy="369.43" rx="2.48" ry="2.24"/><ellipse class="cls-7" cx="283.97" cy="469.24" rx="2.54" ry="2.3"/><ellipse class="cls-7" cx="1048.63" cy="60.84" rx="2.97" ry="2.64"/><ellipse class="cls-7" cx="818.31" cy="372.02" rx="3.68" ry="2.98"/><ellipse class="cls-7" cx="598.2" cy="346.94" rx="4.2" ry="4.21"/><ellipse class="cls-7" cx="365.01" cy="566.73" rx="4.2" ry="4.21"/><ellipse class="cls-7" cx="311.4" cy="325.18" rx="3.41" ry="2.76"/><ellipse class="cls-7" cx="646.51" cy="530.49" rx="2.99" ry="3"/><ellipse class="cls-7" cx="565.34" cy="487.46" rx="3.69" ry="3.7"/><ellipse class="cls-7" cx="332.54" cy="475.59" rx="2.88" ry="2.33"/><ellipse class="cls-7" cx="896.77" cy="317.35" rx="3.52" ry="3.5"/><ellipse class="cls-7" cx="1142.48" cy="187.99" rx="1.76" ry="1.57"/><ellipse class="cls-7" cx="1185.45" cy="164.19" rx="1.77" ry="0.57"/><ellipse class="cls-7" cx="1144.73" cy="130.39" rx="2.12" ry="1.72"/><ellipse class="cls-7" cx="1204.35" cy="375.09" rx="1.59" ry="1.28"/><ellipse class="cls-7" cx="792.3" cy="201.01" rx="2.83" ry="2.29"/><ellipse class="cls-7" cx="714.13" cy="382.8" rx="3.55" ry="3.57"/><ellipse class="cls-7" cx="820.44" cy="453.83" rx="2.72" ry="2.2"/><ellipse class="cls-7" cx="1114.5" cy="453.47" rx="2.84" ry="3.1"/><ellipse class="cls-7" cx="1087.92" cy="228.44" rx="2.8" ry="2.78"/><ellipse class="cls-7" cx="899.14" cy="120.53" rx="2.97" ry="2.4"/><ellipse class="cls-7" cx="1079.17" cy="194.82" rx="1.76" ry="1.57"/><ellipse class="cls-7" cx="1032.42" cy="392.49" rx="2.67" ry="2.16"/><ellipse class="cls-7" cx="1020.49" cy="15.66" rx="2.21" ry="1.79"/><ellipse class="cls-7" cx="885.13" cy="524.59" rx="3.44" ry="2.78"/><ellipse class="cls-7" cx="660.37" cy="485.43" rx="2.13" ry="2.13"/><ellipse class="cls-7" cx="992.54" cy="466.64" rx="2.28" ry="1.85"/><ellipse class="cls-7" cx="1240.84" cy="548.35" rx="2.71" ry="2.96"/><ellipse class="cls-7" cx="738.09" cy="523.22" rx="2.73" ry="2.74"/><ellipse class="cls-7" cx="449.82" cy="501" rx="2.22" ry="1.8"/><ellipse class="cls-7" cx="540.76" cy="512.08" rx="1.34" ry="1.35"/><ellipse class="cls-7" cx="617.26" cy="525.49" rx="2.66" ry="2.67"/><ellipse class="cls-7" cx="1087.92" cy="566.63" rx="1.47" ry="1.6"/><ellipse class="cls-7" cx="701.2" cy="539.2" rx="2.95" ry="2.96"/><ellipse class="cls-7" cx="395.47" cy="507.57" rx="2.99" ry="2.42"/><ellipse class="cls-7" cx="985.4" cy="514.16" rx="2.74" ry="2.22"/><ellipse class="cls-7" cx="610.4" cy="485.47" rx="2.18" ry="2.18"/><ellipse class="cls-7" cx="1033.54" cy="547.04" rx="4.53" ry="4.96"/><ellipse class="cls-7" cx="1067.86" cy="489.74" rx="2.15" ry="2.35"/><ellipse class="cls-7" cx="855.83" cy="490.96" rx="1.18" ry="0.96"/><ellipse class="cls-7" cx="1162.91" cy="568.05" rx="1.16" ry="1.26"/><ellipse class="cls-7" cx="1113.14" cy="387.7" rx="2.84" ry="2.3"/><ellipse class="cls-7" cx="1204.51" cy="516.97" rx="3.16" ry="3.44"/><ellipse class="cls-7" cx="848.16" cy="541.5" rx="4.3" ry="3.48"/><ellipse class="cls-7" cx="1207.67" cy="193.65" rx="4.22" ry="4.6"/><ellipse class="cls-7" cx="85.36" cy="590.92" rx="3.81" ry="3.08"/><ellipse class="cls-7" cx="285.84" cy="554.06" rx="2.09" ry="1.69"/><ellipse class="cls-7" cx="89.17" cy="508.19" rx="3.1" ry="0.91"/><ellipse class="cls-7" cx="721.49" cy="575.86" rx="3.72" ry="3.74"/><ellipse class="cls-7" cx="465.94" cy="552.47" rx="2.98" ry="2.41"/><ellipse class="cls-7" cx="1151.67" cy="533.5" rx="4.12" ry="4.49"/><ellipse class="cls-7" cx="784.71" cy="269.88" rx="2.97" ry="3.24"/><ellipse class="cls-7" cx="157.08" cy="565.83" rx="2.64" ry="2.13"/><ellipse class="cls-7" cx="332.06" cy="508.37" rx="1.97" ry="1.59"/><ellipse class="cls-7" cx="578.58" cy="549.11" rx="3.05" ry="3.06"/><ellipse class="cls-7" cx="968.94" cy="550.71" rx="1.6" ry="1.29"/><ellipse class="cls-7" cx="208.33" cy="521.74" rx="3.9" ry="3.15"/><ellipse class="cls-7" cx="883.58" cy="458.97" rx="3.44" ry="2.78"/><ellipse class="cls-7" cx="658.98" cy="412.53" rx="2.13" ry="2.13"/><ellipse class="cls-7" cx="991.19" cy="409.44" rx="2.28" ry="1.85"/><ellipse class="cls-7" cx="1222.34" cy="442.83" rx="2.71" ry="2.96"/><ellipse class="cls-7" cx="736.7" cy="450.32" rx="2.73" ry="2.74"/><ellipse class="cls-7" cx="448.27" cy="435.38" rx="2.22" ry="1.8"/><ellipse class="cls-7" cx="539.37" cy="439.18" rx="1.34" ry="1.35"/><ellipse class="cls-7" cx="503.63" cy="378.73" rx="2.66" ry="2.67"/><ellipse class="cls-7" cx="676.02" cy="463.57" rx="2.66" ry="2.67"/><ellipse class="cls-7" cx="1096.47" cy="456.18" rx="1.47" ry="1.6"/><ellipse class="cls-7" cx="491.68" cy="467.33" rx="2.95" ry="2.96"/><ellipse class="cls-7" cx="393.92" cy="441.96" rx="2.99" ry="2.42"/><ellipse class="cls-7" cx="984.05" cy="456.97" rx="2.74" ry="2.22"/><ellipse class="cls-7" cx="609.02" cy="412.57" rx="2.18" ry="2.18"/><ellipse class="cls-7" cx="1029.4" cy="418.32" rx="2.98" ry="2.41"/><ellipse class="cls-7" cx="1066.51" cy="414.62" rx="2.15" ry="1.74"/><ellipse class="cls-7" cx="854.28" cy="425.34" rx="1.18" ry="0.96"/><ellipse class="cls-7" cx="1161.56" cy="462.9" rx="1.16" ry="1.26"/><ellipse class="cls-7" cx="1183.61" cy="103.21" rx="1.84" ry="0.6"/><ellipse class="cls-7" cx="1139.85" cy="226.52" rx="1.25" ry="1.11"/><ellipse class="cls-7" cx="1134.37" cy="246.4" rx="2.11" ry="1.71"/><ellipse class="cls-7" cx="884.73" cy="297.41" rx="1.24" ry="0.36"/><ellipse class="cls-7" cx="1001.1" cy="403.52" rx="1.23" ry="0.36"/><ellipse class="cls-7" cx="853.59" cy="243.49" rx="3.14" ry="2.54"/><ellipse class="cls-7" cx="1096.55" cy="301.61" rx="1.45" ry="1.17"/><ellipse class="cls-7" cx="1083.28" cy="337.89" rx="0.95" ry="0.28"/><ellipse class="cls-7" cx="932.37" cy="315.32" rx="2.5" ry="2.02"/><ellipse class="cls-7" cx="1121.74" cy="397.69" rx="4.09" ry="3.31"/><ellipse class="cls-7" cx="1123.79" cy="279.03" rx="2.04" ry="1.65"/><ellipse class="cls-7" cx="992.59" cy="449.89" rx="2.55" ry="2.78"/><ellipse class="cls-7" cx="967.34" cy="495.86" rx="2.07" ry="2.26"/><ellipse class="cls-7" cx="870.93" cy="351.77" rx="0.97" ry="1.06"/><ellipse class="cls-7" cx="941.03" cy="383.86" rx="3.55" ry="3.87"/><ellipse class="cls-7" cx="945.31" cy="360.74" rx="1.81" ry="1.98"/><ellipse class="cls-7" cx="1093.81" cy="467.92" rx="1.66" ry="1.8"/><ellipse class="cls-7" cx="1088.36" cy="526.11" rx="1.35" ry="1.47"/><ellipse class="cls-7" cx="994.09" cy="459.54" rx="0.81" ry="0.88"/><ellipse class="cls-7" cx="1052.56" cy="486.3" rx="2.96" ry="3.23"/><ellipse class="cls-7" cx="1056.13" cy="467.02" rx="1.51" ry="1.65"/><ellipse class="cls-7" cx="993.33" cy="533.2" rx="1.79" ry="1.95"/><ellipse class="cls-7" cx="964.86" cy="414.32" rx="0.96" ry="1.05"/><ellipse class="cls-7" cx="517.11" cy="225.07" rx="2.28" ry="1.85"/><ellipse class="cls-7" cx="515.76" cy="167.87" rx="2.28" ry="1.85"/><ellipse class="cls-7" cx="508.62" cy="215.4" rx="2.74" ry="2.22"/><ellipse class="cls-7" cx="517.16" cy="208.32" rx="2.55" ry="2.78"/><ellipse class="cls-7" cx="518.66" cy="217.97" rx="0.81" ry="0.88"/><ellipse class="cls-7" cx="489.43" cy="172.75" rx="0.96" ry="1.05"/><ellipse class="cls-7" cx="896.15" cy="414.62" rx="2.5" ry="2.02"/><ellipse class="cls-7" cx="904.82" cy="483.16" rx="3.55" ry="3.87"/><ellipse class="cls-7" cx="909.1" cy="460.03" rx="1.81" ry="1.98"/><ellipse class="cls-7" cx="928.65" cy="513.61" rx="0.96" ry="1.05"/><ellipse class="cls-7" cx="1076.77" cy="263.76" rx="2.29" ry="2.5"/><ellipse class="cls-7" cx="972.71" cy="182.93" rx="3.06" ry="3.34"/><ellipse class="cls-7" cx="915.04" cy="248.11" rx="2.12" ry="2.31"/><ellipse class="cls-7" cx="1082.78" cy="274.94" rx="1.11" ry="1.21"/><ellipse class="cls-7" cx="1019.44" cy="235.29" rx="4.57" ry="4.98"/><ellipse class="cls-7" cx="890.79" cy="238.97" rx="3.73" ry="4.07"/><ellipse class="cls-7" cx="1003.76" cy="291.42" rx="1.15" ry="1.25"/><ellipse class="cls-7" cx="1056.67" cy="311.72" rx="2.29" ry="2.5"/><ellipse class="cls-7" cx="1009.39" cy="319.77" rx="0.99" ry="1.08"/><ellipse class="cls-7" cx="854.8" cy="308.76" rx="1.24" ry="1.35"/><ellipse class="cls-7" cx="1062.68" cy="322.91" rx="1.11" ry="1.21"/><ellipse class="cls-7" cx="1061.58" cy="283.98" rx="0.75" ry="0.81"/><ellipse class="cls-7" cx="1024.53" cy="306.81" rx="1.48" ry="1.61"/><ellipse class="cls-7" cx="1208.75" cy="328.4" rx="2.43" ry="1.97"/><ellipse class="cls-7" cx="1241.96" cy="299.19" rx="1.45" ry="1.17"/><ellipse class="cls-7" cx="1228.69" cy="335.47" rx="0.95" ry="0.28"/><ellipse class="cls-7" cx="1202.08" cy="309.3" rx="2.29" ry="2.5"/><ellipse class="cls-7" cx="1208.09" cy="320.49" rx="1.11" ry="1.21"/><ellipse class="cls-7" cx="1169.94" cy="304.39" rx="1.48" ry="1.61"/><ellipse class="cls-7" cx="1031.08" cy="377.84" rx="5.07" ry="5.52"/><ellipse class="cls-7" cx="1008.83" cy="287.91" rx="0.99" ry="1.08"/><ellipse class="cls-7" cx="1232.79" cy="397.27" rx="2.53" ry="2.51" transform="translate(793.43 1615.69) rotate(-88.03)"/><ellipse class="cls-7" cx="1232.94" cy="313.65" rx="0.87" ry="0.95" transform="translate(868.75 1532.61) rotate(-87.64)"/><ellipse class="cls-7" cx="1243.38" cy="376.51" rx="0.91" ry="0.99" transform="translate(815.94 1603.32) rotate(-87.64)"/><ellipse class="cls-7" cx="1239.37" cy="330.67" rx="0.59" ry="0.64" transform="translate(857.91 1555.36) rotate(-87.64)"/><ellipse class="cls-7" cx="1240.78" cy="372.4" rx="0.78" ry="0.85" transform="translate(817.56 1596.78) rotate(-87.64)"/><ellipse class="cls-7" cx="708.28" cy="280.04" rx="2.43" ry="1.97"/><ellipse class="cls-7" cx="585.74" cy="277.3" rx="2.02" ry="1.63"/><ellipse class="cls-7" cx="722.34" cy="220.25" rx="1.18" ry="1.06"/><ellipse class="cls-7" cx="621.89" cy="228.28" rx="3.2" ry="3.19"/><ellipse class="cls-7" cx="677.94" cy="220.7" rx="3.62" ry="3.6"/><ellipse class="cls-7" cx="585.88" cy="201.82" rx="2.81" ry="2.8"/><ellipse class="cls-7" cx="677.36" cy="341.71" rx="2.67" ry="2.16"/><ellipse class="cls-7" cx="636.13" cy="358.66" rx="2.28" ry="1.85"/><ellipse class="cls-7" cx="674.34" cy="367.54" rx="2.98" ry="2.41"/><ellipse class="cls-7" cx="711.45" cy="363.84" rx="2.15" ry="1.74"/><ellipse class="cls-7" cx="646.04" cy="352.74" rx="1.23" ry="0.36"/><ellipse class="cls-7" cx="728.22" cy="287.11" rx="0.95" ry="0.28"/><ellipse class="cls-7" cx="577.3" cy="264.54" rx="2.5" ry="2.02"/><ellipse class="cls-7" cx="590.25" cy="309.96" rx="1.81" ry="1.98"/><ellipse class="cls-7" cx="609.8" cy="363.54" rx="0.96" ry="1.05"/><ellipse class="cls-7" cx="721.7" cy="212.98" rx="2.29" ry="2.5"/><ellipse class="cls-7" cx="792.05" cy="326.77" rx="3.06" ry="3.34"/><ellipse class="cls-7" cx="559.98" cy="216.43" rx="2.12" ry="2.31"/><ellipse class="cls-7" cx="727.72" cy="224.16" rx="1.11" ry="1.21"/><ellipse class="cls-7" cx="585.97" cy="333.08" rx="3.55" ry="3.87"/><ellipse class="cls-7" cx="664.38" cy="203.61" rx="4.57" ry="4.98"/><ellipse class="cls-7" cx="648.7" cy="240.64" rx="1.15" ry="1.25"/><ellipse class="cls-7" cx="701.61" cy="260.94" rx="2.29" ry="2.5"/><ellipse class="cls-7" cx="654.33" cy="268.99" rx="0.99" ry="1.08"/><ellipse class="cls-7" cx="707.62" cy="272.13" rx="1.11" ry="1.21"/><ellipse class="cls-7" cx="706.51" cy="233.2" rx="0.75" ry="0.81"/><ellipse class="cls-7" cx="669.47" cy="256.03" rx="1.48" ry="1.61"/><ellipse class="cls-7" cx="676.02" cy="327.06" rx="5.07" ry="5.52"/><ellipse class="cls-7" cx="653.77" cy="237.13" rx="0.99" ry="1.08"/><ellipse class="cls-7" cx="182.44" cy="166.81" rx="1.24" ry="0.36"/><ellipse class="cls-7" cx="298.81" cy="253.82" rx="1.23" ry="0.36"/><ellipse class="cls-7" cx="151.3" cy="112.89" rx="3.14" ry="2.54"/><ellipse class="cls-7" cx="394.26" cy="171.01" rx="1.45" ry="1.17"/><ellipse class="cls-7" cx="380.99" cy="207.29" rx="0.95" ry="0.28"/><circle class="cls-7" cx="230.76" cy="184.93" r="1.81"/><ellipse class="cls-7" cx="419.45" cy="247.98" rx="4.09" ry="3.31"/><ellipse class="cls-7" cx="421.5" cy="148.43" rx="2.04" ry="1.65"/><ellipse class="cls-7" cx="290.3" cy="300.18" rx="2.55" ry="2.78"/><ellipse class="cls-7" cx="281.9" cy="389.82" rx="2.07" ry="2.26"/><ellipse class="cls-7" cx="168.64" cy="221.17" rx="0.97" ry="1.06"/><ellipse class="cls-7" cx="238.74" cy="234.16" rx="3.55" ry="3.87"/><circle class="cls-7" cx="242.94" cy="211.11" r="1.9"/><ellipse class="cls-7" cx="391.52" cy="318.21" rx="1.66" ry="1.8"/><ellipse class="cls-7" cx="386.07" cy="376.41" rx="1.35" ry="1.47"/><ellipse class="cls-7" cx="291.8" cy="309.83" rx="0.81" ry="0.88"/><ellipse class="cls-7" cx="350.27" cy="336.6" rx="2.96" ry="3.23"/><ellipse class="cls-7" cx="353.84" cy="317.31" rx="1.51" ry="1.65"/><ellipse class="cls-7" cx="291.04" cy="383.5" rx="1.79" ry="1.95"/><ellipse class="cls-7" cx="262.57" cy="264.61" rx="0.96" ry="1.05"/><ellipse class="cls-7" cx="193.86" cy="264.92" rx="2.5" ry="2.02"/><ellipse class="cls-7" cx="202.53" cy="333.45" rx="3.55" ry="3.87"/><ellipse class="cls-7" cx="206.81" cy="310.33" rx="1.81" ry="1.98"/><ellipse class="cls-7" cx="226.35" cy="363.91" rx="0.96" ry="1.05"/><ellipse class="cls-7" cx="374.48" cy="133.16" rx="2.29" ry="2.5"/><circle class="cls-7" cx="270.13" cy="144.67" r="3.35"/><ellipse class="cls-7" cx="212.75" cy="117.51" rx="2.12" ry="2.31"/><ellipse class="cls-7" cx="380.49" cy="144.34" rx="1.11" ry="1.21"/><ellipse class="cls-7" cx="317.1" cy="105.05" rx="4.61" ry="4.62"/><ellipse class="cls-7" cx="188.49" cy="108.37" rx="3.73" ry="4.07"/><ellipse class="cls-7" cx="301.47" cy="160.82" rx="1.15" ry="1.25"/><ellipse class="cls-7" cx="354.38" cy="181.12" rx="2.29" ry="2.5"/><ellipse class="cls-7" cx="307.1" cy="189.17" rx="0.99" ry="1.08"/><ellipse class="cls-7" cx="152.51" cy="178.16" rx="1.24" ry="1.35"/><ellipse class="cls-7" cx="360.39" cy="192.31" rx="1.11" ry="1.21"/><ellipse class="cls-7" cx="359.29" cy="153.38" rx="0.75" ry="0.81"/><ellipse class="cls-7" cx="322.24" cy="176.21" rx="1.48" ry="1.61"/><ellipse class="cls-7" cx="329.36" cy="229.16" rx="4.5" ry="4.5"/><ellipse class="cls-7" cx="306.54" cy="157.31" rx="0.99" ry="1.08"/></g></g><path class="cls-8" d="M898.54,864.31s1.41,16.46,14.09,22.51c10.56,5,19.38,9.07,19.35,15.8,0,2.69-4.53,7.45-20.21,5.12-10.59-1.57-14.19-3.81-19.42-3.09s-14.21-.07-14.92-7.55-5-32.92-5-34.42S894.12,851.58,898.54,864.31Z"/><path class="cls-8" d="M779.79,864.36s.1,16.51-12,23.69c-10.06,6-18.49,10.8-17.84,17.5.26,2.68,5.19,7,20.6,3.26,10.4-2.53,13.78-5.09,19.06-4.85s14.13-1.37,14.16-8.88,2-33.25,1.89-34.74S783,851.27,779.79,864.36Z"/><path class="cls-9" d="M804.42,563.82s51.36,11.51,77.92,0c0,0,14.17,180.64,14.17,204.55s9.74,89.43,3.54,92.09c0,0-22.13,9.74-31,6.2-5.75-2.3-9.3-62.43-12.84-89.88s-9.74-85-9.74-91.2c0,0-17.71,73.49-19.48,89.43s-13.28,91.2-21.25,92.09-28.34,1.77-31.88-3.54-4.43-10.63-1.77-41.62,6.45-83.34,8-94.75C783.61,700.63,804.42,563.82,804.42,563.82Z"/><path class="cls-10" d="M802.86,415.42s29.08,16.86,43.65,9.14c0,0,25.21,36.54,27,128.63v20.37a78.73,78.73,0,0,1-22.14,0s6.2-50.47-9.74-85S802.86,415.42,802.86,415.42Z"/><path class="cls-11" d="M840.2,419.26c.12,1.06,1.55,2.94,7.64,6,0,0,6.2,15.94-16.82,12.4,0,0-18.6-5.31-25.68-21.25,0,0,5.31,0,9.74-6.2l23.62,7.33A2.11,2.11,0,0,1,840.2,419.26Z"/><path class="cls-12" d="M805.75,399.56c3.35,3,11.1,6.2,11.1,6.2v-8.85c.89-22.14,5.31-32.77,5.31-32.77,8-13.28,29.22-8,32.77-5.31s3.54,15.05,3.54,15.05c0,2.66.88,3.55.88,3.55a54.25,54.25,0,0,0,3.55-5.32c8-18.59-1.77-27.45-1.77-27.45-1.78-2.65-8-4.43-13.29-10.62s-17.71-9.74-24.79-4.43a48.92,48.92,0,0,1-12.4,7.08c-20.36,2.66-18.59,15.06-18.59,16.83s.41,8.85-.89,13.28C791.17,366.8,787.15,382.74,805.75,399.56Z"/><path class="cls-13" d="M859.57,381.9a10.13,10.13,0,0,1-.22-2V368.57c0-5.31,0-13.28-14.16-14.17s-20.37,1.77-23.91,8.86-6.2,27.45-5.31,38.07c0,0-.45,6.64-.45,8.42,0,0,13.28,9.74,25.24,10.18a7.05,7.05,0,0,1,.88-7.09s13.29-.88,16.83-11.51A39.12,39.12,0,0,0,859.57,381.9Z"/><path class="cls-14" d="M847,374.12a.45.45,0,0,1,.8-.14c.82,1.16,2.73,3.9,3.16,4.77.89,1.77-1.77,3.55-1.77,3.55s-2.66,0-2.66-.89A44,44,0,0,1,847,374.12Z"/><path class="cls-15" d="M860.55,383.18c.93.82,1.46,4,1.46,5.76a36.47,36.47,0,0,1-2.66,14.16c-.88,1.67-4.42,9.74-14.16,11.52-7.89,1.43-17.71-4.94-21.26-12.44l-.46-1c-3.58-7.64-.46-16.78,8.43-21.11,5.73-2.78,13.64-3.61,17.71-2.65C856.51,379.05,858.66,381.5,860.55,383.18Z"/><path class="cls-16" d="M834.56,410.51a15.29,15.29,0,0,0,7.25,2.54,9.35,9.35,0,0,0,10.13-7.1c1.08-4.49.86-9.42.33-10.43-.89-1.66-6.2-1.66-5.31-3.33a5.15,5.15,0,0,1,2.76-1.79,5.59,5.59,0,0,0,3.73-5.32v-.17a6.37,6.37,0,0,0-6.13-5.93h-.17a21.67,21.67,0,0,0-5.85.41c-.45.1-.9.21-1.35.29-2.19.37-11.59,3.95-14.24,9.27C821.81,396.74,826.59,404.63,834.56,410.51Z"/><path class="cls-15" d="M827.92,384.07s-10-2.66-10.79-4.43l-.42,1.77a2,2,0,0,0,1.21,2.35l8.34,3Z"/><path class="cls-15" d="M823.77,398.23s-5.07,1.56-7.75,1a.43.43,0,0,0-.5.42v1.51a.69.69,0,0,0,.61.69,18.72,18.72,0,0,0,8.47-1Z"/><path class="cls-17" d="M789.44,372.68v.06a.76.76,0,0,0,1.2.54c4.68-3.39,28.12-18.75,39.9-20.65,13.73-2.21,25.94-.88,35.64,3.25,1.94.83,2-1.44.75-3.14l0,0a5.62,5.62,0,0,0-2.25-1.46c-4.31-1.55-18.78-6.29-35-3.05-15.5,3.1-31.48,14-37.43,18.48A6.92,6.92,0,0,0,789.44,372.68Z"/><path class="cls-18" d="M805.75,360.6c-.46-.76,17.71-10.62,30.11-10.62s22.13.88,28.33,3.54c0,0,5.89,17.66,4.55,51.34a2.36,2.36,0,0,1-2.7,2.25c-7.73-1.17-31.33-4-49.45,2a2.34,2.34,0,0,1-3.09-2C812.76,397.45,810.17,368,805.75,360.6Z"/><path class="cls-15" d="M805.31,415.06s-23.91,1.77-34.54,27.45c0,0,8,47.82,27.45,92.09a52,52,0,0,1,0,33.65c-6.2,18.59-17.71,93-22.13,126.62s-9.75,59.33-9.75,59.33,8.86,11.51,59.33,8c0,0,23.91-119.54,26.57-152.3s8-67.3,0-100.95S808.85,418.6,805.31,415.06Z"/><path class="cls-15" d="M842.05,421.7s19.48,27.45,26.57,96.52,3.54,244.39,3.54,244.39,35.42-3.54,41.62-3.54c0,0-8-40.73-8-60.21s-8.86-89.44-15-120.43-8-42.5-8-57.56.88-19.48-4.43-39a185.59,185.59,0,0,1-6.2-45.16S851.79,425.24,842.05,421.7Z"/><path class="cls-13" d="M799.8,432.72a11.39,11.39,0,0,0-13.44-9.08,11.52,11.52,0,0,0-7.42,5.59c-6.84,11.06-10.38,33.2,19.73,82.79,0,0,24.79,39,39,30.11,0,0,23.9-7.09,39.84-23l-8.85-9.74S840.28,520,834.08,520.87c0,0-16.82-46-24.79-60.21C804.17,451.56,801.24,439.89,799.8,432.72Z"/><path class="cls-13" d="M882.72,505.51c.38-8.71-3.66-21-3.66-21-5.95-20.86-6.89-46.38-6.89-46.38s5.75.82,11.06,11.44a154.5,154.5,0,0,0,5.31,15.94c2.66,6.2,13.28,29.22,15.94,33.65s10.63,15.05,4.43,23.91-60.21-1.77-60.21-1.77,1.77-11.51.88-11.51l17-2.88q2.46-.42,5-.6Z"/><path class="cls-19" d="M882.72,505.51c.38-8.71-3.66-21-3.66-21-5.95-20.86-6.89-46.38-6.89-46.38s5.75.82,11.06,11.44a154.5,154.5,0,0,0,5.31,15.94c2.66,6.2,13.28,29.22,15.94,33.65s10.63,15.05,4.43,23.91-60.21-1.77-60.21-1.77,1.77-11.51.88-11.51l17-2.88q2.46-.42,5-.6Z"/><path class="cls-20" d="M866.41,507.15A48.73,48.73,0,0,0,885,494.75c8-8.85,18.6-8.85,23-3.54,4.88,5.85,1.77,19.48-12.39,15.05S866.41,507.15,866.41,507.15Z"/><path class="cls-21" d="M849.14,520.87s-9.67-.07-12.8-.48l-2.26.48s-4.16-11.18-4.73-12.67,15.3-1.05,20.64,1.39Z"/><path class="cls-22" d="M663.92,880.76s.33,18-12.79,25.32c-8.75,4.85-19.19,8.32-18.49,15.48.27,2.86,5,10.7,21.44,6.7,11.11-2.7,14.72-5.44,20.36-5.18s15.11-1.47,15.13-9.49,2.18-35.52,2-37.11S667.38,866.79,663.92,880.76Z"/><path class="cls-22" d="M757.43,879.89s-4.43,12.61,8.22,22c10.54,7.79,27,10.94,25.51,18.34-.59,3-4.78,6.37-21.52,6.37-12,0-21.71-3.3-27.62-3.63s-15.61-3.11-14.79-11.48,1.45-37.29,1.78-38.93S755.28,865,757.43,879.89Z"/><path class="cls-23" d="M679.57,537.26s50.47,15,93.86,2.65c0,0,0,44.28-.89,75.27S761,872,761,877.28c0,0,.89,1.77-4.43,1.77s-31,1.78-31-3.54,1.33-50.91-1.33-69.51c-2.32-16.3,1.47-128.49,2.44-156a.58.58,0,0,0-1.14-.13c-.89,4.68-2.2,12.84-4,26.82-3.54,28.34-8.86,92.09-14.17,111.57-4.35,16-9.3,65.16-10.94,82.46a7.52,7.52,0,0,1-6.82,6.78,146.23,146.23,0,0,1-17.44.66,7,7,0,0,1-6.7-7.1c.29-12.77-1.46-42.86-2.82-72.62-1.77-39,1.77-71.72.89-91.2,0,0,1.41-42.5,1.56-70.57a430.51,430.51,0,0,1,5.6-67.84C673.19,554.26,676.2,541,679.57,537.26Z"/><path class="cls-24" d="M699.05,547s38.07,9.74,74.38-3.55c0,0-8.86,17.71-54,15.94,0,0-14.16-1.77-22.13-5.31Z"/><path class="cls-25" d="M776.09,440.74s10.62,24.79,25.67,45.16c0,0-7.56,16.49-13,24.66a7.29,7.29,0,0,1-5,3.16c-2.83.42-6.91,1.18-8.57,2.28l5.09,22.77s-6.86,4.68-7.75,4.68h.89v5.32a7.29,7.29,0,0,0,8,0c3.73-2.24,11.85-17.66,14.32-22.48a11.67,11.67,0,0,1,1.84-2.62c4.75-5.11,23.25-25.24,26.34-32.46A12.85,12.85,0,0,0,823,479.7s-22.86-47.85-25.16-53.15Z"/><path class="cls-26" d="M699.05,308.8s6.2-7.08,9.74,3.54c0,0-.89-8-6.2-7.08A6,6,0,0,0,699.05,308.8Z"/><path class="cls-27" d="M710.56,346l-7.08,8.86a22.3,22.3,0,0,1-8.86,3.54,142.58,142.58,0,0,0-23.91,7.08s-4.43,2.66-4.43,4.43.89,82.35.89,82.35a30.79,30.79,0,0,0,8.41-13.73c2.66-8.85,2.66-7.08,2.66-7.08s6.2,28.34,7.08,33.65-7.08,41.62-7.08,41.62,4.43,17.71,4.43,19.48l2.65,19.48s56.67,10.62,86.78-.89c0,0,9.74-5.31,8.86-8s-13.29-55.78-14.17-85c0,0,11.51-22.14,12.39-38.08.73-13-9.21-30.81-12.85-36.85a9.06,9.06,0,0,0-3.39-3.26l-21.83-12.13s-1.77,15.94-19.48,8c0,0-12.4-6-12.4-14.17C709.23,354.4,710.56,346,710.56,346Z"/><path class="cls-28" d="M665,370.34s4.42-5.31,5.31-3.54,12.78,24.75,12.4,32.76c-.45,9.3-4.43,31.88-4.43,31.88s-5.76,19.92-9.81,19.57Z"/><path class="cls-28" d="M765.91,376.25s31.43,40.58,35,45.89c0,0-8,13.28-17.71,17.71S769.92,445,769.92,445s9.74-25.9,8.82-34.34a62.93,62.93,0,0,0-8.65-25.34C765,376.54,765.91,376.25,765.91,376.25Z"/><path class="cls-29" d="M701.7,436.31c.81-.36,8-5.31,17.71-5.31s46.05-1.77,46.05-1.77S769,431,761,432.77s-22.14,3.54-32.76,5.31S693.73,439.85,701.7,436.31Z"/><path class="cls-30" d="M729.15,392s8,3.54,8,5.31-1.77,1.77,0,2.66a10.89,10.89,0,0,1,2.66,1.77,2,2,0,0,0,.89-2.66s-3.55-4.43-11.52-8.86Z"/><path class="cls-30" d="M724.66,401.88s6.35,6,8,5.29,1-2.31,2.45-1a10.83,10.83,0,0,0,2.66,1.76,1.93,1.93,0,0,1-2.11,1.84s-5.45-1.55-12.62-7.18Z"/><path class="cls-31" d="M711.89,345.55c-18.6,17.71,3.54,42.5,3.54,42.5s5.31-3.54,14.17,3.54"/><path class="cls-31" d="M736.68,353.52s7.08,3.54,12.4,15.94,4.43,16.82,4.43,16.82"/><circle class="cls-32" cx="749.52" cy="391.15" r="6.64"/><circle class="cls-30" cx="749.52" cy="391.15" r="5.31"/><path class="cls-25" d="M697.66,291A55,55,0,0,0,699.05,307s-2.66,5.31-.89,9.74,8,6.2,8,6.2l1.77.88s2.66,12.4,2.66,17.71-1.77,15.06-1.77,15.06S714.1,371.67,732.7,377c0,0,8-4.42,8-15.94,0,0-4-1.32-4-4.87s.89-9.74.89-10.62c0,0,13.28-5.32,15-20.37V310.13c0-2.32-.68-14.09-.85-17a10.52,10.52,0,0,0-.21-1.58c-.9-4.13-5.82-20.84-26.39-21.23a34,34,0,0,0-18,4.81A19.2,19.2,0,0,0,697.66,291Z"/><path class="cls-33" d="M699.49,307.47A3.94,3.94,0,0,1,702.4,306a5.76,5.76,0,0,1,5.11,2.53,8.84,8.84,0,0,1,1.72,5.14,12.27,12.27,0,0,0,1.77-6.2s.89,3.54,0,5.31c0,0,4.43-4.42,1.77-20.36,0,0,8,.88,13.29,0a181,181,0,0,1,18.59-1.77,47.8,47.8,0,0,1,7.08.88s-6.19-25.68-33.64-20.36c0,0-18.6,1.77-20.37,19.48C697.72,290.65,696.83,301.27,699.49,307.47Z"/><path class="cls-34" d="M698.61,307.47s10.18-12.84,34.27-15.92a12.17,12.17,0,0,1,2.41.07c3.67.25,13.35.36,16.89,1.24,0,0,.88-22.14-20.37-25.68s-30.11,6.2-33.65,10.63C694,283.07,692.41,296.85,698.61,307.47Z"/><path class="cls-35" d="M715.43,337.58s14.17,10.62,21.25,8.85l-.88,8.86h0s-14.42-3.2-21.16-11.89a6.46,6.46,0,0,1-1.42-3.94C713.22,338.24,713.66,337.14,715.43,337.58Z"/><path class="cls-35" d="M739.78,304.37a28.34,28.34,0,0,0,2.66,4.43h0a1.23,1.23,0,0,1,0,1.77c-.89.89-3.55,0-3.55,0v-6.2C738.89,302.6,739.78,304.37,739.78,304.37Z"/><path class="cls-36" d="M709.79,328.14c1.6,2,4.45,4.89,7.85,5.45a12.84,12.84,0,0,0,1.77,3.55s-4.45,0-10.12-6.54a.57.57,0,0,1-.13-.27l-.33-1.74A.55.55,0,0,1,709.79,328.14Z"/><path class="cls-36" d="M709.56,313a26.67,26.67,0,0,0,6.31,8.17s.89-2.66,1.77-2.66c0,0-2.53-.84-5.36-5.12a4.19,4.19,0,0,0-1.84-1.41h0A.72.72,0,0,0,709.56,313Z"/><path class="cls-37" d="M752.93,314.11c.85.91,1.46,4,1.46,5.76A36.59,36.59,0,0,1,751.73,334c-.88,1.66-4.42,9.74-14.16,11.51-7.89,1.43-17.71-4.94-21.26-12.43l-.46-1c-3.58-7.64-.46-16.78,8.43-21.11,5.73-2.78,13.64-3.61,17.71-2.65C748.89,310,751.29,312.34,752.93,314.11Z"/><path class="cls-36" d="M726.94,341.44a15.08,15.08,0,0,0,7.25,2.54,9.35,9.35,0,0,0,10.13-7.1c1.08-4.49.86-9.42.33-10.43-.89-1.66-6.2-1.66-5.31-3.33a5.15,5.15,0,0,1,2.76-1.79,5.59,5.59,0,0,0,3.73-5.31v-.18a6.37,6.37,0,0,0-6.13-5.93h-.17a21.67,21.67,0,0,0-5.85.41c-.45.1-.9.21-1.35.29-2.19.37-11.59,4-14.24,9.27C714.19,327.67,719,335.57,726.94,341.44Z"/><path class="cls-25" d="M683.11,542.57s8.85,3.54,17.71,3.54c0,0-1.77,20.37-14.17,22.14Z"/><path class="cls-38" d="M725.18,652.09s0-25.84,15.93-53.29c0,0-5.31,21.25-5.31,28.33S731.37,733.39,733.14,767s6,112.24,6,112.24-14,.14-13.53-4.25.08-58.74-1.07-67-1-32.19-1-32.19l-.16-67.26,3-49S726.07,646.93,725.18,652.09Z"/><path d="M268,852.8s-1.41,16.46-14.08,22.5c-10.56,5-19.39,9.08-19.36,15.81,0,2.69,4.53,7.45,20.22,5.12,10.58-1.57,14.18-3.81,19.42-3.09s14.2-.08,14.91-7.56,5.06-32.92,5.05-34.41S272.45,840.07,268,852.8Z"/><path d="M390.33,852.84s-.1,16.52,12,23.7c10.06,6,18.48,10.8,17.83,17.5-.26,2.68-5.18,7-20.59,3.26-10.4-2.53-13.78-5.09-19.06-4.85s-14.14-1.37-14.16-8.89-2-33.24-1.89-34.73S387.09,839.76,390.33,852.84Z"/><path class="cls-39" d="M270.47,741.8s-1.77,70-2.65,77.93-4.43,24.79-2.66,31,.88,7.08,15.94,8.85,15,6.2,18.59-5.31a431.73,431.73,0,0,0,13.28-54c4.43-24.8,10.63-42.51,9.75-53.13S270.47,741.8,270.47,741.8Z"/><path class="cls-39" d="M387.84,741.8s1.77,70,2.65,77.93,4.43,24.79,2.66,31-.88,7.08-15.94,8.85-15,6.2-18.59-5.31a431.34,431.34,0,0,1-13.29-54c-4.42-24.8-10.62-42.51-9.74-53.13S387.84,741.8,387.84,741.8Z"/><path class="cls-12" d="M311.65,362.37s0-12.39,3.54-15.05,24.79-8,32.76,5.31c0,0,4.43,10.63,5.31,32.76v8.86s6.2-3.54,10.63-4.43,18.6-10.62,18.6-20.36-2.66-12.4-3.55-14.17-.88-11.51-.88-13.28,1.77-14.17-18.6-16.83a49,49,0,0,1-12.39-7.08c-7.09-5.32-19.48-1.77-24.8,4.43s-11.51,8-13.28,10.62c0,0-9.74,8.86-1.77,27.45a54.53,54.53,0,0,0,3.54,5.31S311.65,365,311.65,362.37Z"/><path class="cls-13" d="M310.55,370.39a10.12,10.12,0,0,0,.21-2.05V357.06c0-5.31,0-13.28,14.17-14.17s20.37,1.77,23.91,8.86,6.2,27.45,5.31,38.07c0,0,.44,6.64.44,8.41,0,0-13.28,9.74-25.23,10.19a7,7,0,0,0-.89-7.09s-13.28-.88-16.82-11.51A38.87,38.87,0,0,1,310.55,370.39Z"/><path class="cls-14" d="M323.13,362.61a.44.44,0,0,0-.79-.14c-.82,1.16-2.73,3.9-3.17,4.77-.88,1.77,1.77,3.54,1.77,3.54s2.66,0,2.66-.88A44,44,0,0,0,323.13,362.61Z"/><path class="cls-15" d="M309.56,371.67c-.93.82-1.46,4-1.46,5.76a36.47,36.47,0,0,0,2.66,14.16c.89,1.67,4.43,9.74,14.17,11.51,7.88,1.44,17.71-4.93,21.25-12.43l.47-1c3.57-7.64.46-16.78-8.44-21.11-5.72-2.79-13.63-3.61-17.71-2.66C313.6,367.54,311.46,370,309.56,371.67Z"/><path class="cls-16" d="M335.55,399a15.14,15.14,0,0,1-7.25,2.53,9.33,9.33,0,0,1-10.12-7.1c-1.08-4.49-.87-9.42-.33-10.42.88-1.66,6.19-1.66,5.31-3.33a5.18,5.18,0,0,0-2.77-1.79,5.59,5.59,0,0,1-3.72-5.32v-.17a6.36,6.36,0,0,1,6.13-5.94H323a22.05,22.05,0,0,1,5.85.42c.45.1.9.21,1.36.29,2.19.37,11.58,3.95,14.24,9.27C348.31,385.23,343.52,393.12,335.55,399Z"/><path class="cls-15" d="M342.2,372.56s10-2.66,10.79-4.43l.41,1.77a2,2,0,0,1-1.21,2.35l-8.33,3Z"/><path class="cls-15" d="M346.35,386.72s5.06,1.56,7.74,1a.42.42,0,0,1,.5.42v1.51a.68.68,0,0,1-.6.69,18.86,18.86,0,0,1-8.47-1Z"/><path class="cls-27" d="M329.8,406.2s21.25-6.19,24.79-8c0,0,4.43,6.2,9.74,6.2,0,0,8,2.12,13.88,4.3a8.31,8.31,0,0,1,5.39,8.11c-.65,16.09-2.6,64.34-3.33,84.11-.69,18.77,2.43,55,3.81,69.72a116.84,116.84,0,0,1,.48,13.23l-3.4,171.19-113.27-3.88A12.71,12.71,0,0,1,256,735.51c2.83-11.67,6.22-28.49,7-44.62,2.06-44.45.89-62,9.75-102.72S286.41,516,286.41,516s-10.63-34.53-3.54-54.9c3.8-10.92,6.58-19.81,8.34-25.7A18.36,18.36,0,0,1,301.13,424c7.31-3.37,17.95-8.37,22.91-11.13C332,408.42,329.8,406.2,329.8,406.2Z"/><path class="cls-40" d="M317.85,498.74s8.85-.89,14.16-.89,16.38,4,16.38,4-3.54,13.28-4.42,15.05c0,0-16.57-.44-23.12-4.87Z"/><path class="cls-11" d="M329.92,407.75c-.12,1.05-1.56,2.94-7.65,6,0,0-6.2,15.94,16.83,12.4,0,0,18.59-5.32,25.68-21.25,0,0-5.32,0-9.74-6.2L331.42,406A2.08,2.08,0,0,0,329.92,407.75Z"/><path class="cls-41" d="M297.48,511.13s17.71,17.71,38.07,23.91c0,0,25.68,8,31.88-8s12.4-35.42,12.4-35.42l3.54-76.15S371.86,431.44,365.66,443c0,0-22.14,52.25-21.25,70.84,0,0-19.48-15-40.73-15.94Z"/><path class="cls-42" d="M296.59,427s-10.17,4.49-18.15,25.24c-8.85,23-20,43-20.81,46.49-2.21,9.29-2.21,19.92,13.28,19.48,15.16-.43,50.48-4.43,50.48-4.43s-2.66-8-2.66-15c0,0-23.91-6.2-37.19-3.54,0,0-3-25.55,3.1-37.64.88-1.77,7.53-24.35,7.53-24.35S294.82,427.9,296.59,427Z"/><path class="cls-40" d="M292.93,494.63s-18.66-19.8-30.52-6.08c0,0-4.78,10.19,6.73,9.3,0,0,9.74-2.65,12.4-2.65S292.93,494.63,292.93,494.63Z"/><path class="cls-43" d="M384.8,847.49s-.33,22.54-17,32c-13.89,7.88-25.52,14.22-24.82,23.38.28,3.67,6.88,9.71,28,5,14.26-3.16,18.94-6.56,26.14-6.09s19.32-1.47,19.57-11.72,3.7-45.3,3.55-47.34S389.59,829.73,384.8,847.49Z"/><path class="cls-43" d="M523.49,850.16s.33,22.53,17,32c13.89,7.88,25.52,14.22,24.82,23.38-.28,3.66-6.88,9.7-28,5-14.26-3.16-18.94-6.56-26.14-6.08S491.84,903,491.6,892.74s-3.71-45.3-3.56-47.33S518.71,832.4,523.49,850.16Z"/><path class="cls-41" d="M359,574.45s8,11.51,11.51,15,3.54,17.71,5.31,22.14-1.77,3.54-1.77,3.54-1.77-3.54-1.77-4.43-5.31-5.31-6.2,0,4.43,18.6,12.4,14.17,6.2-20.37,8-23.91-5.31-54-5.31-54S360.79,549.65,359,574.45Z"/><path class="cls-44" d="M379.39,833.89c-.77-.44-4.43,20.37.88,23s42.23,3.12,43.39,2.65c4.43-1.77,6.2-18.59,0-23C423.66,836.55,390,840.09,379.39,833.89Z"/><path class="cls-44" d="M480.59,836.22c-.82-.34-1.67,20.77,4,22.7s42.26-2.55,43.35-3.16c4.15-2.35,3.66-19.26-3.07-22.82C524.82,832.94,491.94,840.94,480.59,836.22Z"/><path class="cls-45" d="M420.12,313.23s2.66-7.09,14.17-7.09c.88,0,11.51-.88,16.82,5.32s8,24.79,8,28.33c0,0-21.69-12-29.66-9.3s-11.51,7.09-11.51,7.09S416.13,324.3,420.12,313.23Z"/><path class="cls-46" d="M487.86,341.12c-1.77-7.08-.89-15.05-1.77-16.82a13.35,13.35,0,0,1-.56-1.33,27.47,27.47,0,0,1-1.43-5.85,47.74,47.74,0,0,0-2-8.79,33.29,33.29,0,0,0-33.89-22.51c-20.6,1.35-27.36,12.75-30.34,17.22a23.13,23.13,0,0,0-3.55,11.52c0,5.31-.88,23-.88,23v26.56c0,11.51,11.51,14.17,11.51,14.17,19.48,3.54,50.47-6.2,61.1-13.28S488.74,344.66,487.86,341.12Zm-58.44-10.63c-8,2.66-11.51,7.09-11.51,7.09s-1.78-13.28,2.21-24.35c0,0,2.66-7.09,14.17-7.09.88,0,11.51-.88,16.82,5.32s8,24.79,8,28.33C459.08,339.79,437.39,327.84,429.42,330.49Z"/><path class="cls-47" d="M418.27,336.5a5.57,5.57,0,0,0,1.41.19,5.87,5.87,0,0,0,1-.1c2.83-.25,7.47-.35,12.34-.36C427.57,336.21,421.91,336.26,418.27,336.5Z"/><path class="cls-47" d="M450.67,312a3.3,3.3,0,0,0-1.28-.39,88.68,88.68,0,0,0-10.22-.38c2.14,0,4.36.16,6.67.38a3.29,3.29,0,0,1,1.29.39c7.93.54,14.16,5.86,14.16,12.35,0,6-5.32,11-12.39,12.14h0c-.43.07-.87.12-1.31.16a17,17,0,0,0,1.76.09,18.53,18.53,0,0,0,3.1-.25h0c7.07-1.14,12.4-6.15,12.4-12.14C464.84,317.81,458.6,312.49,450.67,312Z"/><path class="cls-47" d="M433,336.23c3.22,0,6.38,0,9,.08a19.15,19.15,0,0,0,3.75.38,17.53,17.53,0,0,0,1.78-.09,17.8,17.8,0,0,1-2-.29C442,336.26,437.42,336.21,433,336.23Z"/><path class="cls-47" d="M411.71,325.18c0-6.36,3.56-11.51,8-11.51.12,0,.23,0,.35,0l.17-.07a85.33,85.33,0,0,1,19-2.45,86.21,86.21,0,0,0-22.51,2.45l-.17.07-.36,0c-4.4,0-8,5.15-8,11.51s3.57,11.51,8,11.51a5.69,5.69,0,0,0,1-.1l1.12-.09C414.54,335.54,411.71,330.85,411.71,325.18Z"/><path class="cls-48" d="M461.29,324.3c0-6.49-6.23-11.81-14.16-12.35a3.29,3.29,0,0,0-1.29-.39,87.24,87.24,0,0,0-29.18,2.07l-.17.07-.36,0c-4.4,0-8,5.15-8,11.51s3.57,11.51,8,11.51a5.69,5.69,0,0,0,1-.1c5.39-.48,17.3-.39,24.9-.28a19.15,19.15,0,0,0,3.75.38,18.41,18.41,0,0,0,3.09-.25h0C456,335.3,461.29,330.29,461.29,324.3Z"/><path class="cls-49" d="M464,320.22l.41,6.29s0,1.77,1.77.89c1.12-.56,19.7,1.93,20.48,3.17a15.87,15.87,0,0,0-.73-6.65c-1.07-2.54-17.3-4.25-19.5-4.47a1.32,1.32,0,0,1-.44-.13A1.28,1.28,0,0,0,464,320.22Z"/><path class="cls-50" d="M466.16,327.4s-.88-2.66,1.78-2.66,14.16,1.77,18.59,3.54c0,0-15-2.87-18.6-2.84a1.42,1.42,0,0,0-1.42,1.21,1.37,1.37,0,0,0,.11.67Z"/><path class="cls-51" d="M417.91,337.58s0,17.71.88,19.48,5.31,12.4,13.28,13.28,20.37-6.2,23.91-14.17,4.43-10.62,3.54-16.82c0,0-19.3-11.78-27.45-9.74C421.45,332.27,417.91,337.58,417.91,337.58Z"/><path class="cls-52" d="M426.47,337.8a9.25,9.25,0,0,0,1.18,5.09s4.42.89,5.31,2.66-4.43,1.77-5.31,3.54-.89,15.05,4.42,18.59c0,0,8,.89,13.29-2.65s9.74-10.63,11.51-15.94c1.44-4.32.54-6.3-.8-7.84a10.7,10.7,0,0,0-2-1.72c-2.35-1.63-8.49-5.63-14.63-7.38a20,20,0,0,0-6.72-.67h-.16A6.57,6.57,0,0,0,426.47,337.8Z"/><path class="cls-46" d="M530.36,406.65c11.53,47.92-5.31,115.11-10.62,131.05-.18.52-.34,1-.5,1.52a51.73,51.73,0,0,0,.26,31.92c7.54,23,12.77,54.71,13.52,82.56.88,32.76,2.66,106.26,1.77,124.85s-4.43,54.9-4.43,60.21-6.64,4.87-36.3,8.86c-27.34,3.67-28.34-46-31.88-64.64s-2.66-74.38-5.31-82.35S451.55,651,448,647.5s-4.43,20.37-4.43,53.13-6.19,47.81-8.85,63.75-2.66,62-3.54,73.5-29.22,6.2-44.28,4.43-15.05-25.68-15.05-25.68c-3.54-31.88,2.66-77,3.54-115.12s4.43-110.68,6.2-121.31-5.31-48.7-1.77-65.52,8-85.9,10.63-102.72,28.33-37.19,28.33-37.19c27.45,9.74,68.18-10.63,68.18-10.63S522,371.67,530.36,406.65Z"/><path class="cls-53" d="M419.93,376a.4.4,0,0,0-.65.34c.16,2.51.91,8.71,4.38,12.18,4.43,4.43,31,10.63,47.82-2.65s18.59-20.37,18.59-20.37l-3.26-1s-17.38,11-45.36,14.19C441.45,378.71,424.1,379.13,419.93,376Z"/><path class="cls-53" d="M382.82,566.38c.1,1,.19,2,.25,2.9a8.38,8.38,0,0,0,5.74,7.36,155.86,155.86,0,0,0,93.25.75,7,7,0,0,0,4.83-8c-.05-.25-.09-.5-.14-.77a7,7,0,0,0-9-5.4c-14.32,4.57-47.16,11.59-89.86-1.1A4,4,0,0,0,382.82,566.38Z"/><path class="cls-54" d="M407.28,388.05s-13.28,3.54-24.79,26.57-36.31,53.13-41.62,80.58a202.2,202.2,0,0,1-8,18.59,74.49,74.49,0,0,0,0,15.05c.88,7.09-4.43,27.45,27.45,48.71,0,0-3.33-22,19.58-29.17,0,0-.76-26.6-.87-27.94s-8.37-1.05-2.77-6.65c.88-.89,4.36-1.73,5.28-10.61S387.8,401.33,407.28,388.05Z"/><path class="cls-55" d="M388.24,411.52s-23,35.42-23.91,39.84,5.32,14.17,5.32,26.57,0,17.71-3.55,22.14,1.78,11.51-1.77,12.39-13.28-1.77-20.36,5.32c0,0,14.16-5.32,23.91,0,0,0,6.19,2.65-7.09,3.54,0,0-5.31,2.65,1.77,6.2,0,0,5.32,0,8-.89s2.71,7.41,1.56,25.32c0,0,6.54-3.64,7.36-3.41,0,0-1.25-20.34-.43-27.55,0,0,.48-.73-3.34-2.19s2.45-6.44,2.45-6.44,4.21-.65,4.73-24.85S386,435,394,409.3C394,409.3,394.88,403.1,388.24,411.52Z"/><path class="cls-12" d="M367.39,474c-1.81-2-2.91-5.05.93-8.89v-8c0-5.31,1.77-6.2,5.31-8.86s1.77-8.85,3.54-11.51S384.26,435,386,435s6.2-1.77,9.74,0c3,1.48,12.68,13.42,17.37,19.41a6.91,6.91,0,0,0,5.09,2.65,10.27,10.27,0,0,1,6.76,2.74c4.43,3.54,0,24.79-9.74,32.76a10.94,10.94,0,0,1-10.9,2.14,12.37,12.37,0,0,1-5.43-3.78,29.1,29.1,0,0,0-12.14-8.48,9.93,9.93,0,0,1-3.25-1.86l-.07-.06a14.15,14.15,0,0,0-8.95-3.52l-.59,0A9.49,9.49,0,0,1,367.39,474Z"/><path class="cls-56" d="M402.85,482.8c0-1.25,10.63-8,11.51-24.8,0,0,2.66-3.54,1.77,6.2s-8.85,18.6-10.62,19.48C405.51,483.68,402.85,485.45,402.85,482.8Z"/><path class="cls-56" d="M394.88,449.15s-.88-2.66,1.77-2.66,10.63,9.74,8,10.63S394.88,449.15,394.88,449.15Z"/><path class="cls-56" d="M369.82,465.54s-4,4-1.22,4.61,5.38.23,11.54-.52a2.45,2.45,0,0,1-.43-3.52S377.52,462.81,369.82,465.54Z"/><path class="cls-56" d="M373.48,452s-4.19,3.83-1.48,4.54,5.36.53,11.55.13a2.45,2.45,0,0,1-.23-3.54S381.32,449.76,373.48,452Z"/><path class="cls-56" d="M379.08,442.61s-4.54,2.68-2,3.62,5.13,1.14,11.17,1.59a1.91,1.91,0,0,1,.23-3S387,441.7,379.08,442.61Z"/><path class="cls-56" d="M387.29,435.29s-4.05,1.11-2.26,2.34,3.76,1.89,8.37,3.46a1.47,1.47,0,0,1,.75-2.23S393.59,436.19,387.29,435.29Z"/><path class="cls-54" d="M506.9,373.44c4.86,2.92,11.51,4.43,17.71,16.82s15.8,39.85,2.21,98.74c-12,51.8-31.16,77.7-51.8,64.19-35.86-23.46-91.65-54.45-78.81-64.64,0,0,8.86,6.2,17.71.89s14.17-21.25,8.86-28.34c0,0-1.33-5.75-7.53-4,0,0,18.27-6.65,50,23.5a2.13,2.13,0,0,0,3.57-1.28,98.79,98.79,0,0,1,13.74-38.16s6.19-13.28,4.42-26.56c-1.67-12.59.62-29.94,13.67-40.77a5.4,5.4,0,0,1,6.19-.45Z"/><path class="cls-57" d="M404.78,498.21a1.19,1.19,0,0,1,1.21-1.94c2.3.58,6,.26,12.36-4.17,11.51-8,14.17-30.11,9.74-32.77,0,0,0-2.65,9.74,5.32s12.4,10.62,14.17,13.28c0,0,1.32,3.1-7.53-4.87s-10.63-7.09-10.63-3.54-4.42,4.42-4.42,10.62-5.32,6.2-6.2,10.63-8,4.43-8,6.2c0,.88-.89,1.77,8,9.74,0,0,4.43,6.19-7.09,0A40.63,40.63,0,0,1,404.78,498.21Z"/><path class="cls-57" d="M529.92,427.46s-8.86,90.32-26.57,80.57c-14.25-7.83-23.91-18-29-19.77-1.88-2.3-4.41-2.15-6.43-1.48-2.66.89-2.66,6.2-2.66,6.2s14.17,46.93,10.62,52.25-41.47-22-44.27-24.8c-.89-.88-2.29-.34-2.2.43a2.65,2.65,0,0,0,1.16,1.85c5.09,3.56,35.6,24.45,43.92,28.95,6.91,3.75,11.13,4.17,14,3.33a8.75,8.75,0,0,0,1.56-.62h0a23.31,23.31,0,0,0,13.57-8.72,12.09,12.09,0,0,0,2-2.19,104.73,104.73,0,0,0,11.11-21.25C530.81,487.67,535.23,426.57,529.92,427.46Z"/><path class="cls-58" d="M424.84,625.43a1.43,1.43,0,0,0-1.36,2.44c4.37,3.81,14,14.16,11.25,29.37-3.54,19.48-1.77,85-7.08,101.83s-4.43,9.74-4.43,27.45,8.85,37.19-15.94,46.05c0,0-12.4-8.86-16.82-2.66s-19.49-15-19.49-15,1.78,27.45,15.94,27.45c0,0,18.34,2.81,26,2.73s18.29-1,18.29-7.16,1.77-68.18,4.43-78.81c0,0,8-30.11,8-48.7s-.88-63.76,4.43-62.87c0,0,3.54-5.31,9.74,55.78,0,0,.89,14.17,1.77,34.54s.89,35.42,4.43,57.56,6.2,43.38,21.25,51.35c0,0,5.32,2.66,17.71-.88,0,0,14.17-2.66,18.6-2.66,0,0,5.31,0,5.31-12.39s-.89,4.42-9.74,1.77-8-2.66-13.28.88-9.74,9.74-14.17,0-2.66,23-16.82-15.05c-4.8-12.89-8.86-110.69-14.17-139s-6.2-30.11-.89-39,8.86-10.63,8.86-14.17c0-8.17-13.29,21.25-31,5.31C435.62,631.56,429.05,626.75,424.84,625.43Z"/><path class="cls-58" d="M489.19,555S477.68,569.13,514,654.14c0,0,15,16.82,7.08,62.87,0,0-4.42,18.6,0,57.56s-3.54,52.24-3.54,52.24,8,16.82,9.74-30.11,3.55-65.52,5.32-81.46c0,0,2.65-70.84-.89-93.86s-23-24.8-26.56-59.33C505.13,562.05,505.13,545.23,489.19,555Z"/><path d="M532.12,901l38,1.69s-.53,29-1.69,33c-1,3.44-15.12,4.85-31.1,5.18-10.35.21-21.47.47-30.29-1.2a8.45,8.45,0,0,1-5.63-3.82c-2.74-4.42-4.11-12.74,15-20.87C516.48,915,537.61,908.18,532.12,901Z"/><path d="M663.5,892l-38-.11S622.9,918,624.93,924c1.08,3.2,13.45,5.43,28.09,7,11.25,1.22,23.84,2.43,33.65,1.18a6.75,6.75,0,0,0,4.14-2.13c3.38-3.71,7.88-12.62-12.57-23.06C678.24,907.05,657.43,901.19,663.5,892Z"/><path class="cls-59" d="M534.35,614.29s-.89,116,2.65,142.57c0,0-12.39,78.81-8.85,89.43s8,25.68,4.43,35.42-5.32,10.55-5.32,15.94v5.44a3.42,3.42,0,0,0,5,3c4.76-2.51,12.06-5.33,18-3.16,9.74,3.54,17.71,8.86,20.36,8.86s.89-14.17,4.43-26.57,8.85-46.77,8.85-87.66c0-2.66,4.43-45.16,8.86-86.78s7.08-70.84,13.28-62.87.89,100.95,7.09,121.31,3.54,54.9,3.54,54.9-2.66,40.74.88,47.82-.88,12.4,0,17.71,4.43,15.94,8,15.05,17.71-15.05,26.57-11.51,10.48,8.12,13.28,5.32c1.77-1.78,7.08-3.55,2.66-24.8s-5.32-124-5.32-142.56,4.43-101.83,0-123.09l-128.39-1.77Z"/><path class="cls-60" d="M533.9,636.87s48.71,6.2,51.36,16.83-2.65,60.21-3.54,73.49,0,39,0,47.82-11.51,17.71-7.08,38.08,7.08,63.75-6.2,58.44-24.8-4.43-24.8-2.66,15.06,5.31,22.14,15.94c0,0,9.74,10.63-13.28,7.08s-18.6,8.86-18.6,8.86,2.66-7.09,15.94-2.66,18.6,10.63,18.6,10.63,3.86,3.39,4.14-6.28a84.36,84.36,0,0,1,3.49-21.06c1.22-4.54,5.93-42.15,6.67-49.91s1.19-32.25,1.19-32.25,0-5.3,2.07-22,8.53-82.78,8.53-82.78,2.45-46.56,9-47.62c0,0,7.62-4.25,5.75,31,0,0-1,43.21-.1,45.87s2.49,36.6,3,41.32,6.08,18.89,5.07,41.47-1.59,63.64,1.36,68.35-.7,6.41-1.09,12.2,2.71,21.6,8,16.86,20.93-12.71,25.3-11c0,0-4.49-6.27-20.43-.07,0,0-5.31,0,4.43-8.86,0,0,8-4.42,14.17-1.77,0,0,2.65-3.54-7.09-4.42S626,880.38,626,876.84c0,0,.89-11.51,1.78-16.82s-2.66-9.74-3.55-14.17,0-22.14,2.66-30.11,1.77-35.42-6.2-56.67-4.43-55.79-2.65-66.41-5.32-15.94-3.55-25.68-2.65-17.71,15.94-23,27.56-1.52,34.15-12.27l-.34-9.29s-32,19.79-41.78,11.82-15.94-4.43-30.1,1.77-58.45-7.09-58.45-7.09Z"/><path class="cls-45" d="M629.54,276.48c-.86-.85-1.91.35-2.78,1.82.27-1.78.54-3.43.76-4.8a32.76,32.76,0,1,0-62.58,2.22c.17.67.34,1.34.5,2-.79-1.18-1.68-2-2.41-1.24-1.77,1.77,0,13.28,0,13.28s1.36,7.5,5.28,8.74c1.17,10.49,6.15,17.08,11.66,21.2a26.18,26.18,0,0,1-.46,10.35c2.65,8,17.71,15.94,17.71,15.94,6.2-1.77,15.94-15.05,15.94-15.05-2.25-5.24-.71-11.08-.17-12.78,7.72-6.9,10.89-15.58,11.29-19.67,3.9-1.27,5.26-8.73,5.26-8.73S631.31,278.25,629.54,276.48Z"/><path d="M563.57,264.82s1.8-26,29.61-33.74c0,0,26-4.82,35,32.77,0,0,1.35,16.87-4.93,24.58,0,0,5.38-18.31-1.8-24.1,0,0,2.69,6.75-.89,10.61,0,0,2.69-9.64-7.18-15.43,0,0-.9,11.57-16.15,12.54a15.48,15.48,0,0,0,9.87-13.5s-4.49,12.53-10.77,11.57c0,0,7.18-6.75,3.59-16.39,0,0-12.56,6.75-14.36,14.46,0,0-.89-1.93,2.7-10.6,0,0-8.08,14.46-20.64,15.42,0,0,12.56-7.71,12.56-16.39,0,0-13.07,8.11-12.17,27.39,0,0-.89-3.55-2.19-8.11,0,0,1.29,9.64,2.19,12.53A44.77,44.77,0,0,1,563.57,264.82Z"/><path class="cls-61" d="M629.09,268.07s0-18.6-10.62-28.34c0,0-8.86-10.62-26.57-8.85,0,0-15.94,1.77-24.79,15.05,0,0-7.08,11.51-4.43,24.79,0,0,10.19-8.41,15.5-9.29s21.25-1.77,35.42,0C613.6,261.43,623.34,264.08,629.09,268.07Z"/><path class="cls-27" d="M628.65,265s-.88-23.91-20.36-32c0,0-20.37,7.19-23.91,11.62s13.28,2.66,15,3.54-15.94,5.32-10.63,6.2C588.8,254.34,614.93,253,628.65,265Z"/><path class="cls-62" d="M599.43,327a25.37,25.37,0,0,0,15.05-8c8.09-8.87,9.74-21.25,9.74-21.25A52.91,52.91,0,0,0,595.89,288c-14.17.89-27.45,10.63-27.45,10.63,2.65,25.68,23,28.33,23,28.33A49.42,49.42,0,0,0,599.43,327Z"/><path class="cls-63" d="M594.56,288.43s-3.54,3.55-.89,10.63c0,0,0,.89,6.2.89,0,0,3.55.88,0,2.65s-6.2,3.54-5.31,5.31.89,4.43.89,7.09,1.77,3.54,5.31,3.54c0,0-.89.89-3.54.89s-1,5.45,1.13,6.64c2.41,1.33,13-2.22,18.35-11.07,0,0,8-14.17,6.2-16.83C622.9,298.17,613.16,289.32,594.56,288.43Z"/><path class="cls-64" d="M658.84,358.24s6.56,6.35,7.44,8.12c0,0,2.66,91.2,5.32,103.6s25.68,136.36,21.25,137.25c0,0-14.45,2.46-18.29,3,0,0-23.33-97.75-22.44-162.39C652.12,447.82,659.8,372.7,658.84,358.24Z"/><path class="cls-15" d="M572.42,337.14s-46.93,2.65-56.67,15.05c0,0-42.5,120.43-41.62,124.85S506,594.81,508.67,597.47c0,0,2.93-.48,11.51-5.31a140.52,140.52,0,0,0,19.48-12.4s-19-50-27-85.45c0,0,13.28-39.85,15.94-50.47,0,0,7.09,177.09,4.43,187.72,0,0,54,11.51,75.27,8.86a84.46,84.46,0,0,0,4.87-11.07s6.64,8.41,7.52,11.07c0,0,36.31-5.32,54.9-23,0,0-22.13-154.07-21.25-174.44,0,0,8.86-58.44,8-81.46,0,0-10.63-12.4-42.5-23.91C619.8,337.58,604.74,350,572.42,337.14Z"/><path class="cls-27" d="M579.51,329.17s13.28,8.85,33.65.88c0,0,3.54,6.2,6.19,8s-15.05,78.81-15.05,78.81-34.53-75.27-31.88-79.69C572.42,337.14,578.62,331.82,579.51,329.17Z"/><path class="cls-65" d="M612.71,629.79c.89-2.66-3.54-129.28-7.08-187.72,0,0-36.31-46.93-31-56.68S581.72,373,581.72,373s-22.14-7.09-21.25-11.51,4.43-23,6.2-23.91H572a730,730,0,0,0,31.88,78.81s11.51-41.62,15.94-78.81l5.31,2.65s7.08,23,4.43,26.57-9.74,8.85-9.74,8.85,4.42,20.37,2.65,23S608.29,420.81,604.74,427c0,0,5.32,16.83,5.32,22.14S612.71,629.79,612.71,629.79Z"/><circle class="cls-65" cx="600.32" cy="450.92" r="3.1"/><circle class="cls-65" cx="601.2" cy="484.57" r="3.1"/><circle class="cls-65" cx="600.32" cy="526.19" r="3.1"/><path class="cls-65" d="M553.83,619.61s20.36,3.54,26.56-4.43,10.63-39.85,8-51.36c0,0-33.65-5.31-44.27-10.63,0,0,38.07,8,47.81,6.2,0,0,1.77,26.57-7.08,53.13,0,0-3.54,8.86-11.51,9.74S553.83,619.61,553.83,619.61Z"/><path class="cls-65" d="M667.17,602.78s.89,6.2,0,9.74-20.37,14.17-25.68,8-4.43-62.87-4.43-62.87c10.19-5.75,24.8-9.74,24.8-9.74s-20.93,8.88-21.25,11.51a173,173,0,0,0,0,44.28s1.77,14.17,10.62,14.17C668.08,617.84,667.17,602.78,667.17,602.78Z"/><path class="cls-65" d="M515.75,352.19s23.91,60.21,22.14,67.3-4.43,8.85-4.43,8.85-.88,70,0,72.61,6.2,8,3.54,14.17-5.31,43.39-2.65,56.67l-2.66-14.17s.44-5.75.44-19.92-3.54-93-3.54-93l-15.94,49.59,10.63,39,7.08,21.25S510,561.61,502.91,574c0,0,5.32-13.28,22.14-22.13,0,0-1.77-11.51-4.43-18.6s-4.43-15-4.43-16.82-7.08-8-7.08-11.51,1.77-7.09.89-9.74-16.83,2.65-16.83,2.65a72.62,72.62,0,0,1,15.94-8s-5.31-6.2-19.48,0c0,0,6.2-7.08,19.48-8.85,0,0,10.63-37.19,12.4-50.48s-1.77-32.76-1.77-32.76-9.74-11.51-8.86-23c0,0,3.54,9.74,8.86,11.51,0,0,1.77-2.66-.89-13.28S514.42,357.06,515.75,352.19Z"/><path class="cls-66" d="M533.46,584.19a85.52,85.52,0,0,1,12,9.29s2.65,2.66,4.42,12.4c.48,2.61-3.54,1.77-3.54.89s-7.08-12.4-8-10.63,0,10.63,3.54,16.83,8,15,6.2,15.93-8.85-8.85-9.74-10.62-5.31-6.2-5.31-6.2c0,.89.88,8,5.31,12.4s5.31,6.19,3.54,7.08-7.52-3.1-7.52-3.1.88,0-1.77.89-11.52-7.09-11.52-7.09l-6.19-6.2c-.89-.88-3.55-19.48-3.55-19.48Z"/><path class="cls-67" d="M525.49,614.29s3,10.6,8.72,13.72a26.78,26.78,0,0,1-4.64-6.11C527.16,617.77,525.49,614.29,525.49,614.29Z"/><path class="cls-67" d="M528.51,598s2.52,8.58,4,10.47a4.81,4.81,0,0,1-1.57-1.09c-.5-.63-3.38-8.33-3.3-9.13S528.51,598,528.51,598Z"/><path class="cls-67" d="M514,604.55s1.77,10.63,4.43,12.4l2.65,1.77a13.37,13.37,0,0,1-3.54-4.43c-3.54-8-2.65-13.28-2.65-13.28Z"/><path class="cls-67" d="M539.66,617s4.43,7.08,6.2,7.08,1.77,3.55,1.77,3.55-1.77.88-5.31-4.43S538.77,616.06,539.66,617Z"/><path class="cls-28" d="M687.54,606.32s6.19,19.48,6.19,26.57A67.13,67.13,0,0,1,692,647.06s-3.54,8.85-6.19,6.19c0,0-.45-1.32,1.32-6.64s.89-8,.89-8-1.77-1.77-2.66,0-1.77,15.06-6.2,12.4c0,0-.88,0,0-8.85a56.6,56.6,0,0,0-1.77,6.19c0,.89-3.54.89-3.54-1.77s-.88-22.13-2.66-31S687.54,606.32,687.54,606.32Z"/><path class="cls-31" d="M715.43,388.05s-4.43,7.09,9.74,15.05"/></g></g></svg>