<svg xmlns="http://www.w3.org/2000/svg" xmlns:xlink="http://www.w3.org/1999/xlink" viewBox="0 0 1245 1175"><defs><style>.cls-1,.cls-64,.cls-65{fill:none;}.cls-2{isolation:isolate;}.cls-3{fill:#ccdafd;opacity:0.3;}.cls-4{clip-path:url(#clip-path);}.cls-10,.cls-5{fill:#fff;}.cls-5{mix-blend-mode:overlay;}.cls-6{clip-path:url(#clip-path-2);}.cls-7{fill:#a8caba;}.cls-8{fill:#298c6a;}.cls-9{fill:#224251;}.cls-11{fill:#106a85;}.cls-12{fill:#fffffd;}.cls-13{fill:#f1f1f1;}.cls-14{fill:url(#Degradado_sin_nombre_3);}.cls-15{fill:url(#Degradado_sin_nombre_14);}.cls-16{fill:#cdfffe;}.cls-17{fill:#6cebe2;}.cls-18{fill:#00b69f;}.cls-19{fill:url(#Degradado_sin_nombre_11);}.cls-20{fill:#00b6a0;}.cls-21{fill:url(#Degradado_sin_nombre_9);}.cls-22{fill:#01a189;}.cls-23{fill:#00a18c;}.cls-24{fill:#01b7a0;}.cls-25,.cls-48{fill:#fffeff;}.cls-25,.cls-52{opacity:0.5;}.cls-26{fill:#bef3ff;}.cls-27{fill:#d2fcfb;}.cls-28{fill:#bbf5ff;}.cls-29{fill:#d4fefd;}.cls-30{fill:#f8ffff;}.cls-31{fill:#7daaeb;}.cls-32{fill:#478dfd;}.cls-33{fill:#cceeeb;}.cls-34{fill:#99ddd8;}.cls-35{fill:#fe7668;}.cls-36{fill:#ffc2c7;}.cls-37{fill:#abcdfa;}.cls-38{fill:#61a3fa;}.cls-39{fill:#61a1f9;}.cls-40{fill:#aacffc;}.cls-41{fill:#a9cffc;}.cls-42{fill:#2070fd;}.cls-43{fill:#aad2ff;}.cls-44{fill:#fcad82;}.cls-45{fill:#1b1464;}.cls-46{fill:#ff8d6e;}.cls-47{fill:#0096e8;}.cls-49{clip-path:url(#clip-path-3);}.cls-50{fill:#fdbd9b;}.cls-51{fill:#60a2ff;}.cls-52,.cls-54{fill:#07a7c7;}.cls-52{mix-blend-mode:soft-light;}.cls-53{fill:#fdfef9;}.cls-55{fill:#018591;opacity:0.2;}.cls-56{fill:#f4c8ab;}.cls-57{fill:#662d91;}.cls-58{fill:#331749;}.cls-59{fill:#d4a67f;}.cls-60{fill:#00a99d;}.cls-61{fill:#007f76;}.cls-62{fill:#1a1a1a;}.cls-63{fill:#333;}.cls-64,.cls-65{stroke:#999;stroke-miterlimit:10;stroke-width:5.4px;}.cls-64{stroke-dasharray:21.6 5.4;}.cls-65{stroke-linecap:round;}</style><clipPath id="clip-path"><rect class="cls-1" x="-1265" width="1245" height="1174.5"/></clipPath><clipPath id="clip-path-2"><rect class="cls-1" y="-2" width="1245" height="1174.5"/></clipPath><linearGradient id="Degradado_sin_nombre_3" x1="3300.25" y1="-619.81" x2="3546.2" y2="-619.81" gradientTransform="matrix(1, 0, 0, -1, -2963.46, -42.47)" gradientUnits="userSpaceOnUse"><stop offset="0" stop-color="#fff"/><stop offset="1" stop-color="#a8edfd"/></linearGradient><linearGradient id="Degradado_sin_nombre_14" x1="3306.82" y1="-619.81" x2="3539.64" y2="-619.81" gradientTransform="matrix(1, 0, 0, -1, -2963.46, -42.47)" gradientUnits="userSpaceOnUse"><stop offset="0" stop-color="#eefefd"/><stop offset="1" stop-color="#aeedff"/></linearGradient><linearGradient id="Degradado_sin_nombre_11" x1="3306.82" y1="-483.12" x2="3539.64" y2="-483.12" gradientTransform="matrix(-0.96, 0.26, 0.26, 0.96, 3925.34, 273.32)" gradientUnits="userSpaceOnUse"><stop offset="0" stop-color="#6deae4"/><stop offset="1" stop-color="#00aaa1"/></linearGradient><linearGradient id="Degradado_sin_nombre_9" x1="3306.95" y1="-470.66" x2="3539.69" y2="-470.66" gradientTransform="matrix(-0.96, 0.26, 0.26, 0.96, 3925.34, 273.32)" gradientUnits="userSpaceOnUse"><stop offset="0" stop-color="#65e4db"/><stop offset="1" stop-color="#00988a"/></linearGradient><clipPath id="clip-path-3"><path class="cls-1" d="M687.74,688.24C541,718,431,643.24,430.67,570.94c-.35-81.31,52.4-65.34,110.37-69.54,47.75-3.46,63.32-49.48,63.32-49.48,36-95.5,120.41-99.65,120.41-99.65C847.25,350.89,839,501.05,839,501.05S839.12,657.53,687.74,688.24Z"/></clipPath></defs><title>f-medidas-</title><g class="cls-2"><g id="Fondos-Grids"><path class="cls-3" d="M956.94,528.91c0-86.82-51.55-165.81-131.6-199.41a155.09,155.09,0,0,1-19.27-9.75c-149-88.56-390.37-216-502.58-28.08s56.65,204,52.8,322.92c-3.77,116.64,37.72,187.92,116,191.16,62.61,2.6,107.12-20.39,151.87,4.6,33.13,18.5,70.18,28.88,108.14,28.88h7.77c119.78,0,216.89-97.1,216.89-216.88Z"/><path class="cls-3" d="M699.47,506c0-86.82-51.54-165.81-131.59-199.41a155.09,155.09,0,0,1-19.27-9.75c-149-88.56-390.37-216-502.58-28.08s56.65,204,52.8,322.92c-3.77,116.64,37.72,187.92,116,191.16,62.61,2.6,107.12-20.39,151.87,4.6,33.13,18.5,70.18,28.88,108.14,28.88h7.77c119.78,0,216.88-97.1,216.88-216.88Z"/><path class="cls-3" d="M306.28,704.36c7.55,86.49,69.23,160.39,157.29,186.43a170.54,170.54,0,0,1,21.34,7.92c166.14,74.39,433.93,178.93,536.91-18.7s-78-198-84.24-316.79c-6.14-116.55-56.46-183.71-140-179.67-66.81,3.24-112.14,30.27-161.9,9.53-36.85-15.36-77.15-22.26-117.52-18.73l-8.26.72c-127.38,11.12-222.2,116.87-211.78,236.2Z"/><g class="cls-4"><g id="Stars"><ellipse class="cls-5" cx="650.24" cy="933.57" rx="2.91" ry="2.17"/><ellipse class="cls-5" cx="325.54" cy="918.8" rx="2.64" ry="1.76"/><ellipse class="cls-5" cx="528.36" cy="857.74" rx="2.84" ry="2.12"/><ellipse class="cls-5" cx="840.65" cy="913.78" rx="3.06" ry="2.04"/><ellipse class="cls-5" cx="19.25" cy="811.34" rx="2.06" ry="1.38"/><ellipse class="cls-5" cx="164.62" cy="1074.6" rx="2.36" ry="1.58"/><ellipse class="cls-5" cx="766.54" cy="824.55" rx="3.21" ry="2.14"/><ellipse class="cls-5" cx="879.16" cy="766.66" rx="3.54" ry="2.36"/><ellipse class="cls-5" cx="807.91" cy="712.92" rx="2.97" ry="1.98"/><ellipse class="cls-5" cx="214.22" cy="922.54" rx="2.28" ry="1.52"/><ellipse class="cls-5" cx="409.13" cy="871.77" rx="3.36" ry="2.24"/><ellipse class="cls-5" cx="636.8" cy="749.3" rx="4.51" ry="3.01"/><ellipse class="cls-5" cx="247.23" cy="837.05" rx="2.79" ry="1.86"/><ellipse class="cls-5" cx="575.08" cy="793.96" rx="3.53" ry="2.35"/><ellipse class="cls-5" cx="721.19" cy="716.64" rx="2.1" ry="1.4"/><ellipse class="cls-5" cx="880.25" cy="914.13" rx="2.75" ry="1.83"/><ellipse class="cls-5" cx="364.41" cy="793.27" rx="3.08" ry="2.54"/><ellipse class="cls-5" cx="725.18" cy="900.83" rx="2" ry="1.33"/><ellipse class="cls-5" cx="577.73" cy="892.57" rx="2.65" ry="1.97"/><ellipse class="cls-5" cx="488.62" cy="804.61" rx="2.72" ry="2.02"/><ellipse class="cls-5" cx="792.99" cy="973.38" rx="2.91" ry="2.17"/><ellipse class="cls-5" cx="671.11" cy="914.38" rx="2.84" ry="2.12"/><ellipse class="cls-5" cx="720.48" cy="949.22" rx="2.65" ry="1.97"/><ellipse class="cls-5" cx="491.34" cy="930.55" rx="2.72" ry="2.02"/><ellipse class="cls-5" cx="823.25" cy="860.1" rx="2.91" ry="2.17"/><ellipse class="cls-5" cx="701.37" cy="784.26" rx="2.84" ry="2.12"/><ellipse class="cls-5" cx="750.74" cy="819.09" rx="2.65" ry="1.97"/><ellipse class="cls-5" cx="661.63" cy="731.13" rx="2.72" ry="2.02"/><ellipse class="cls-5" cx="90.12" cy="816.8" rx="3.94" ry="2.63"/><ellipse class="cls-5" cx="325.54" cy="838.91" rx="4.49" ry="3.71"/><ellipse class="cls-5" cx="574.96" cy="645.23" rx="4.49" ry="3.71"/><ellipse class="cls-5" cx="632.29" cy="858.09" rx="3.64" ry="2.43"/><ellipse class="cls-5" cx="273.88" cy="677.16" rx="3.2" ry="2.64"/><ellipse class="cls-5" cx="360.68" cy="715.08" rx="3.94" ry="3.26"/><ellipse class="cls-5" cx="609.68" cy="725.54" rx="3.08" ry="2.05"/><ellipse class="cls-5" cx="6.2" cy="864.98" rx="3.76" ry="3.08"/><ellipse class="cls-5" cx="117.94" cy="967.5" rx="3.02" ry="2.02"/><ellipse class="cls-5" cx="201.55" cy="807.31" rx="3.8" ry="3.14"/><ellipse class="cls-5" cx="87.84" cy="744.71" rx="2.91" ry="1.94"/><ellipse class="cls-5" cx="3.67" cy="1038.42" rx="3.18" ry="2.12"/><ellipse class="cls-5" cx="18.65" cy="682.36" rx="3.68" ry="2.45"/><ellipse class="cls-5" cx="259.05" cy="716.87" rx="2.28" ry="1.88"/><ellipse class="cls-5" cx="175.93" cy="683.57" rx="2.92" ry="2.42"/><ellipse class="cls-5" cx="484.25" cy="703.15" rx="2.37" ry="1.58"/><ellipse class="cls-5" cx="386.97" cy="693.39" rx="1.44" ry="1.19"/><ellipse class="cls-5" cx="305.15" cy="681.56" rx="2.85" ry="2.35"/><ellipse class="cls-5" cx="215.38" cy="669.49" rx="3.16" ry="2.61"/><ellipse class="cls-5" cx="542.38" cy="697.35" rx="3.19" ry="2.13"/><ellipse class="cls-5" cx="312.49" cy="716.83" rx="2.33" ry="1.92"/><ellipse class="cls-5" cx="49.99" cy="712" rx="1.26" ry="0.84"/><ellipse class="cls-5" cx="58.19" cy="667.46" rx="4.6" ry="3.07"/><ellipse class="cls-5" cx="874.06" cy="623.91" rx="4.07" ry="2.72"/><ellipse class="cls-5" cx="659.63" cy="656.39" rx="2.24" ry="1.49"/><ellipse class="cls-5" cx="869.98" cy="696.81" rx="3.32" ry="0.8"/><ellipse class="cls-5" cx="193.68" cy="637.18" rx="3.98" ry="3.29"/><ellipse class="cls-5" cx="467.01" cy="657.79" rx="3.19" ry="2.12"/><ellipse class="cls-5" cx="126.05" cy="906.82" rx="3.18" ry="2.86"/><ellipse class="cls-5" cx="797.35" cy="646.02" rx="2.82" ry="1.88"/><ellipse class="cls-5" cx="610.19" cy="696.66" rx="2.11" ry="1.41"/><ellipse class="cls-5" cx="346.52" cy="660.75" rx="3.26" ry="2.7"/><ellipse class="cls-5" cx="742.54" cy="684.87" rx="4.17" ry="2.78"/><ellipse class="cls-5" cx="20.31" cy="740.19" rx="3.68" ry="2.45"/><ellipse class="cls-5" cx="260.53" cy="781.11" rx="2.28" ry="1.88"/><ellipse class="cls-5" cx="177.41" cy="747.81" rx="2.92" ry="2.42"/><ellipse class="cls-5" cx="485.9" cy="760.97" rx="2.37" ry="1.58"/><ellipse class="cls-5" cx="388.46" cy="757.63" rx="1.44" ry="1.19"/><ellipse class="cls-5" cx="426.69" cy="810.9" rx="2.85" ry="2.35"/><ellipse class="cls-5" cx="242.31" cy="736.13" rx="2.85" ry="2.35"/><ellipse class="cls-5" cx="439.47" cy="732.82" rx="3.16" ry="2.61"/><ellipse class="cls-5" cx="544.04" cy="755.18" rx="3.19" ry="2.13"/><ellipse class="cls-5" cx="313.97" cy="781.07" rx="2.33" ry="1.92"/><ellipse class="cls-5" cx="51.65" cy="769.82" rx="1.26" ry="0.84"/><ellipse class="cls-5" cx="19.08" cy="882.55" rx="1.32" ry="0.32"/><ellipse class="cls-5" cx="52.39" cy="930.07" rx="3.36" ry="2.24"/><ellipse class="cls-5" cx="33.84" cy="834.65" rx="1.04" ry="0.94"/><ellipse class="cls-5" cx="412.27" cy="946.3" rx="2.44" ry="1.63"/><ellipse class="cls-5" cx="413.72" cy="996.7" rx="2.44" ry="1.63"/><ellipse class="cls-5" cx="421.36" cy="954.82" rx="2.93" ry="1.95"/><ellipse class="cls-5" cx="412.22" cy="961.06" rx="2.73" ry="2.45"/><ellipse class="cls-5" cx="410.62" cy="952.56" rx="0.87" ry="0.78"/><ellipse class="cls-5" cx="441.88" cy="992.41" rx="1.03" ry="0.93"/><ellipse class="cls-5" cx="6.86" cy="779.27" rx="2.67" ry="1.78"/><ellipse class="cls-5" cx="-2.4" cy="718.87" rx="3.79" ry="3.41"/><ellipse class="cls-5" cx="12.6" cy="934.05" rx="3.99" ry="3.59"/><ellipse class="cls-5" cx="51.1" cy="872.56" rx="1.32" ry="1.19"/><ellipse class="cls-5" cx="207.81" cy="897.86" rx="2.6" ry="1.73"/><ellipse class="cls-5" cx="338.87" cy="900.27" rx="2.16" ry="1.44"/><ellipse class="cls-5" cx="192.76" cy="950.55" rx="1.27" ry="0.93"/><ellipse class="cls-5" cx="300.2" cy="943.47" rx="3.43" ry="2.81"/><ellipse class="cls-5" cx="240.26" cy="950.16" rx="3.87" ry="3.18"/><ellipse class="cls-5" cx="338.72" cy="966.79" rx="3.01" ry="2.47"/><ellipse class="cls-5" cx="240.88" cy="843.52" rx="2.86" ry="1.91"/><ellipse class="cls-5" cx="284.97" cy="828.58" rx="2.44" ry="1.63"/><ellipse class="cls-5" cx="244.1" cy="820.76" rx="3.19" ry="2.13"/><ellipse class="cls-5" cx="204.42" cy="824.02" rx="2.3" ry="1.53"/><ellipse class="cls-5" cx="274.37" cy="833.79" rx="1.32" ry="0.32"/><ellipse class="cls-5" cx="186.47" cy="891.63" rx="1.02" ry="0.25"/><ellipse class="cls-5" cx="347.89" cy="911.52" rx="2.67" ry="1.78"/><ellipse class="cls-5" cx="334.05" cy="871.5" rx="1.94" ry="1.74"/><ellipse class="cls-5" cx="313.14" cy="824.28" rx="1.03" ry="0.93"/><ellipse class="cls-5" cx="193.45" cy="956.96" rx="2.45" ry="2.2"/><ellipse class="cls-5" cx="118.21" cy="856.69" rx="3.28" ry="2.94"/><ellipse class="cls-5" cx="366.42" cy="953.91" rx="2.27" ry="2.04"/><ellipse class="cls-5" cx="187.01" cy="947.1" rx="1.18" ry="1.06"/><ellipse class="cls-5" cx="338.63" cy="851.12" rx="3.79" ry="3.41"/><ellipse class="cls-5" cx="254.76" cy="965.21" rx="4.89" ry="4.39"/><ellipse class="cls-5" cx="271.53" cy="932.58" rx="1.23" ry="1.1"/><ellipse class="cls-5" cx="214.94" cy="914.69" rx="2.45" ry="2.2"/><ellipse class="cls-5" cx="265.51" cy="907.6" rx="1.06" ry="0.95"/><ellipse class="cls-5" cx="208.51" cy="904.83" rx="1.18" ry="1.06"/><ellipse class="cls-5" cx="209.69" cy="939.14" rx="0.8" ry="0.72"/><ellipse class="cls-5" cx="249.31" cy="919.02" rx="1.58" ry="1.42"/><ellipse class="cls-5" cx="242.31" cy="856.43" rx="5.42" ry="4.87"/><ellipse class="cls-5" cx="266.11" cy="935.67" rx="1.06" ry="0.95"/><ellipse class="cls-5" cx="770.22" cy="997.64" rx="1.32" ry="0.32"/><ellipse class="cls-5" cx="645.76" cy="920.97" rx="1.32" ry="0.32"/><ellipse class="cls-5" cx="803.53" cy="1045.16" rx="3.36" ry="2.24"/><ellipse class="cls-5" cx="543.67" cy="993.94" rx="1.55" ry="1.03"/><ellipse class="cls-5" cx="557.86" cy="961.97" rx="1.02" ry="0.25"/><ellipse class="cls-5" cx="718.54" cy="981.67" rx="1.94" ry="1.6"/><ellipse class="cls-5" cx="516.73" cy="926.11" rx="4.38" ry="2.92"/><ellipse class="cls-5" cx="514.53" cy="1013.84" rx="2.19" ry="1.46"/><ellipse class="cls-5" cx="654.86" cy="880.11" rx="2.73" ry="2.45"/><ellipse class="cls-5" cx="663.85" cy="801.12" rx="2.22" ry="1.99"/><ellipse class="cls-5" cx="784.99" cy="949.74" rx="1.04" ry="0.94"/><ellipse class="cls-5" cx="710.01" cy="938.29" rx="3.79" ry="3.41"/><ellipse class="cls-5" cx="705.52" cy="958.6" rx="2.03" ry="1.67"/><ellipse class="cls-5" cx="546.6" cy="864.22" rx="1.77" ry="1.59"/><ellipse class="cls-5" cx="552.43" cy="812.94" rx="1.44" ry="1.29"/><ellipse class="cls-5" cx="653.25" cy="871.61" rx="0.87" ry="0.78"/><ellipse class="cls-5" cx="590.72" cy="848.02" rx="3.16" ry="2.84"/><ellipse class="cls-5" cx="586.9" cy="865.01" rx="1.62" ry="1.45"/><ellipse class="cls-5" cx="654.08" cy="806.69" rx="1.91" ry="1.72"/><ellipse class="cls-5" cx="684.52" cy="911.45" rx="1.03" ry="0.93"/><ellipse class="cls-5" cx="758.01" cy="911.19" rx="2.67" ry="1.78"/><ellipse class="cls-5" cx="748.74" cy="850.79" rx="3.79" ry="3.41"/><ellipse class="cls-5" cx="744.16" cy="871.17" rx="1.94" ry="1.74"/><ellipse class="cls-5" cx="723.26" cy="823.95" rx="1.03" ry="0.93"/><ellipse class="cls-5" cx="564.83" cy="1027.3" rx="2.45" ry="2.2"/><ellipse class="cls-5" cx="676.43" cy="1017.15" rx="3.58" ry="2.96"/><ellipse class="cls-5" cx="737.8" cy="1041.09" rx="2.27" ry="2.04"/><ellipse class="cls-5" cx="558.4" cy="1017.44" rx="1.18" ry="1.06"/><ellipse class="cls-5" cx="626.19" cy="1052.06" rx="4.93" ry="4.07"/><ellipse class="cls-5" cx="763.75" cy="1049.14" rx="3.99" ry="3.59"/><ellipse class="cls-5" cx="642.91" cy="1002.92" rx="1.23" ry="1.1"/><ellipse class="cls-5" cx="586.33" cy="985.03" rx="2.45" ry="2.2"/><ellipse class="cls-5" cx="636.89" cy="977.94" rx="1.06" ry="0.95"/><ellipse class="cls-5" cx="802.24" cy="987.64" rx="1.32" ry="1.19"/><ellipse class="cls-5" cx="579.89" cy="975.17" rx="1.18" ry="1.06"/><ellipse class="cls-5" cx="581.08" cy="1009.48" rx="0.8" ry="0.72"/><ellipse class="cls-5" cx="620.7" cy="989.36" rx="1.58" ry="1.42"/><ellipse class="cls-5" cx="613.09" cy="942.7" rx="4.81" ry="3.97"/><ellipse class="cls-5" cx="637.49" cy="1006.01" rx="1.06" ry="0.95"/></g><g id="Stars-2" data-name="Stars"><ellipse class="cls-5" cx="45.2" cy="316.44" rx="3.76" ry="3.75"/><ellipse class="cls-5" cx="442.66" cy="278.63" rx="2.62" ry="2.12"/><ellipse class="cls-5" cx="100.16" cy="424.89" rx="3.52" ry="3.84"/><ellipse class="cls-5" cx="568.9" cy="236.48" rx="1.24" ry="0.36"/><ellipse class="cls-5" cx="24.73" cy="139.58" rx="0.83" ry="0.27"/><ellipse class="cls-5" cx="685.28" cy="342.59" rx="1.23" ry="0.36"/><ellipse class="cls-5" cx="10.9" cy="56.93" rx="1.26" ry="0.37"/><ellipse class="cls-5" cx="388.01" cy="503.33" rx="1.26" ry="0.5"/><ellipse class="cls-5" cx="485.72" cy="137.85" rx="2.78" ry="2.25"/><ellipse class="cls-5" cx="474.15" cy="75.87" rx="1.81" ry="1.47"/><ellipse class="cls-5" cx="537.76" cy="201.66" rx="3.14" ry="2.54"/><ellipse class="cls-5" cx="168.78" cy="471.17" rx="3.07" ry="3.35"/><ellipse class="cls-5" cx="780.72" cy="240.68" rx="1.45" ry="1.17"/><ellipse class="cls-5" cx="767.46" cy="276.96" rx="0.95" ry="0.28"/><ellipse class="cls-5" cx="616.54" cy="254.39" rx="2.5" ry="2.02"/><ellipse class="cls-5" cx="805.91" cy="336.75" rx="4.09" ry="3.31"/><ellipse class="cls-5" cx="12.15" cy="419.73" rx="2.63" ry="2.87"/><ellipse class="cls-5" cx="807.96" cy="218.1" rx="2.04" ry="1.65"/><ellipse class="cls-5" cx="523.92" cy="246.62" rx="3.65" ry="2.95"/><ellipse class="cls-5" cx="523.53" cy="577.94" rx="2.76" ry="3"/><ellipse class="cls-5" cx="30.61" cy="535.75" rx="2.62" ry="2.86"/><ellipse class="cls-5" cx="248.29" cy="540.47" rx="2.16" ry="2.35"/><ellipse class="cls-5" cx="471.66" cy="553.49" rx="1.91" ry="2.08"/><ellipse class="cls-5" cx="316.95" cy="559.83" rx="1.48" ry="1.62"/><ellipse class="cls-5" cx="345.11" cy="497.49" rx="1.43" ry="1.55"/><ellipse class="cls-5" cx="169.75" cy="524.5" rx="2.46" ry="2.69"/><ellipse class="cls-5" cx="434.6" cy="510.53" rx="2.82" ry="3.07"/><ellipse class="cls-5" cx="676.76" cy="388.96" rx="2.55" ry="2.78"/><ellipse class="cls-5" cx="372.72" cy="545.21" rx="3.28" ry="3.58"/><ellipse class="cls-5" cx="246.14" cy="457.58" rx="4.22" ry="4.6"/><ellipse class="cls-5" cx="65.53" cy="408.59" rx="4.22" ry="4.6"/><ellipse class="cls-5" cx="671.43" cy="586.64" rx="3.07" ry="3.35"/><ellipse class="cls-5" cx="668.36" cy="478.6" rx="2.07" ry="2.26"/><ellipse class="cls-5" cx="565.55" cy="541.96" rx="4.11" ry="4.48"/><ellipse class="cls-5" cx="555.1" cy="290.84" rx="0.97" ry="1.06"/><ellipse class="cls-5" cx="625.2" cy="322.93" rx="3.55" ry="3.87"/><ellipse class="cls-5" cx="763.69" cy="515.17" rx="4.13" ry="4.5"/><ellipse class="cls-5" cx="629.48" cy="299.81" rx="1.81" ry="1.98"/><ellipse class="cls-5" cx="449.85" cy="545.28" rx="3.36" ry="3.66"/><ellipse class="cls-5" cx="110.03" cy="583.86" rx="1.63" ry="1.78"/><ellipse class="cls-5" cx="521.98" cy="489.52" rx="2.76" ry="3"/><ellipse class="cls-5" cx="376.99" cy="453.6" rx="1.51" ry="1.65"/><ellipse class="cls-5" cx="29.26" cy="458.68" rx="2.62" ry="2.86"/><ellipse class="cls-5" cx="513.8" cy="360.14" rx="1.48" ry="1.62"/><ellipse class="cls-5" cx="315.4" cy="471.41" rx="1.48" ry="1.62"/><ellipse class="cls-5" cx="777.98" cy="406.99" rx="1.66" ry="1.8"/><ellipse class="cls-5" cx="433.05" cy="420.38" rx="2.82" ry="2.28"/><ellipse class="cls-5" cx="772.53" cy="465.18" rx="1.35" ry="1.47"/><ellipse class="cls-5" cx="678.5" cy="529.67" rx="1.79" ry="1.95"/><ellipse class="cls-5" cx="644.83" cy="513.8" rx="1.24" ry="1.35"/><ellipse class="cls-5" cx="705.79" cy="506.32" rx="2.67" ry="2.91"/><ellipse class="cls-5" cx="678.26" cy="398.61" rx="0.81" ry="0.88"/><ellipse class="cls-5" cx="736.73" cy="425.37" rx="2.96" ry="3.23"/><ellipse class="cls-5" cx="740.3" cy="406.09" rx="1.51" ry="1.65"/><ellipse class="cls-5" cx="630.67" cy="508.47" rx="2.18" ry="2.38"/><ellipse class="cls-5" cx="677.5" cy="472.27" rx="1.79" ry="1.95"/><ellipse class="cls-5" cx="649.03" cy="353.39" rx="0.96" ry="1.05"/><ellipse class="cls-5" cx="532.69" cy="335.78" rx="1.24" ry="0.36"/><ellipse class="cls-5" cx="580.32" cy="353.69" rx="2.5" ry="2.02"/><ellipse class="cls-5" cx="487.71" cy="345.91" rx="3.65" ry="2.95"/><ellipse class="cls-5" cx="518.88" cy="390.13" rx="0.97" ry="1.06"/><ellipse class="cls-5" cx="588.99" cy="422.23" rx="3.55" ry="3.87"/><ellipse class="cls-5" cx="593.27" cy="399.1" rx="1.81" ry="1.98"/><ellipse class="cls-5" cx="477.59" cy="459.43" rx="1.48" ry="1.62"/><ellipse class="cls-5" cx="612.82" cy="452.68" rx="0.96" ry="1.05"/><ellipse class="cls-5" cx="598.71" cy="145.3" rx="2.07" ry="2.26"/><ellipse class="cls-5" cx="760.94" cy="221.93" rx="2.29" ry="2.5"/><ellipse class="cls-5" cx="656.88" cy="214.36" rx="3.06" ry="3.34"/><ellipse class="cls-5" cx="599.21" cy="206.28" rx="2.12" ry="2.31"/><ellipse class="cls-5" cx="766.95" cy="214.01" rx="1.11" ry="1.21"/><ellipse class="cls-5" cx="702.88" cy="131.89" rx="1.35" ry="1.47"/><ellipse class="cls-5" cx="703.61" cy="193.46" rx="4.57" ry="4.98"/><ellipse class="cls-5" cx="667.08" cy="92.08" rx="2.96" ry="3.23"/><ellipse class="cls-5" cx="574.96" cy="197.15" rx="3.73" ry="4.07"/><ellipse class="cls-5" cx="607.84" cy="138.98" rx="1.79" ry="1.95"/><ellipse class="cls-5" cx="574.17" cy="123.11" rx="1.24" ry="1.35"/><ellipse class="cls-5" cx="687.93" cy="230.49" rx="1.15" ry="1.25"/><ellipse class="cls-5" cx="740.84" cy="250.79" rx="2.29" ry="2.5"/><ellipse class="cls-5" cx="693.56" cy="258.84" rx="0.99" ry="1.08"/><ellipse class="cls-5" cx="538.97" cy="247.83" rx="1.24" ry="1.35"/><ellipse class="cls-5" cx="746.85" cy="261.98" rx="1.11" ry="1.21"/><ellipse class="cls-5" cx="745.75" cy="223.05" rx="0.75" ry="0.81"/><ellipse class="cls-5" cx="708.71" cy="245.88" rx="1.48" ry="1.61"/><ellipse class="cls-5" cx="715.25" cy="316.91" rx="5.07" ry="5.52"/><ellipse class="cls-5" cx="693" cy="226.98" rx="0.99" ry="1.08"/><ellipse class="cls-5" cx="512.32" cy="216.85" rx="1.24" ry="1.35"/><ellipse class="cls-5" cx="233.27" cy="447.17" rx="1.92" ry="1.55" transform="translate(-222.96 662.16) rotate(-87.68)"/><ellipse class="cls-5" cx="189.76" cy="513.66" rx="2.53" ry="2.51" transform="translate(-330.11 685.67) rotate(-88.03)"/><ellipse class="cls-5" cx="331.45" cy="410.74" rx="2.24" ry="2.44" transform="translate(-92.6 724.99) rotate(-87.64)"/><ellipse class="cls-5" cx="280.82" cy="473.54" rx="2.11" ry="1.7" transform="translate(-203.69 734.98) rotate(-87.68)"/><ellipse class="cls-5" cx="337.91" cy="507.38" rx="1.8" ry="1.46" transform="translate(-182.72 824.48) rotate(-87.68)"/><ellipse class="cls-5" cx="279.64" cy="409.7" rx="2.24" ry="1.81" transform="translate(-141.04 672.54) rotate(-87.68)"/><ellipse class="cls-5" cx="292.84" cy="506.61" rx="1.8" ry="1.46" transform="matrix(0.04, -1, 1, 0.04, -225.2, 778.72)"/><ellipse class="cls-5" cx="333.01" cy="425.06" rx="1.16" ry="1.26" transform="translate(-105.4 740.27) rotate(-87.64)"/><ellipse class="cls-5" cx="330.02" cy="513.77" rx="2.16" ry="1.75" transform="translate(-196.67 822.74) rotate(-87.68)"/><ellipse class="cls-5" cx="301.05" cy="476.75" rx="2.35" ry="1.9" transform="translate(-187.48 758.27) rotate(-87.68)"/><ellipse class="cls-5" cx="299.33" cy="447.35" rx="1.7" ry="1.37" transform="translate(-159.76 728.35) rotate(-87.68)"/><ellipse class="cls-5" cx="288.5" cy="498.6" rx="0.97" ry="0.28" transform="translate(-221.4 766.61) rotate(-87.67)"/><ellipse class="cls-5" cx="211.34" cy="420.03" rx="1.14" ry="0.92" transform="translate(-216.89 614.21) rotate(-87.68)"/><ellipse class="cls-5" cx="239.47" cy="431.66" rx="0.75" ry="0.22" transform="translate(-201.56 653.41) rotate(-87.67)"/><ellipse class="cls-5" cx="287.78" cy="403.24" rx="3.23" ry="2.61" transform="translate(-126.77 674.47) rotate(-87.68)"/><ellipse class="cls-5" cx="194.44" cy="397.82" rx="1.61" ry="1.3" transform="translate(-210.91 576.01) rotate(-87.68)"/><ellipse class="cls-5" cx="324.73" cy="506.8" rx="2.01" ry="2.19" transform="translate(-195.03 810.37) rotate(-87.64)"/><ellipse class="cls-5" cx="332.37" cy="505.93" rx="0.64" ry="0.7" transform="matrix(0.04, -1, 1, 0.04, -186.82, 817.16)"/><ellipse class="cls-5" cx="295.84" cy="527.54" rx="0.76" ry="0.83" transform="translate(-243.45 801.39) rotate(-87.64)"/><ellipse class="cls-5" cx="189.91" cy="430.04" rx="0.87" ry="0.95" transform="translate(-247.59 602.07) rotate(-87.64)"/><ellipse class="cls-5" cx="200.35" cy="492.91" rx="0.91" ry="0.99" transform="translate(-300.39 672.77) rotate(-87.64)"/><ellipse class="cls-5" cx="218.02" cy="451.82" rx="1.81" ry="1.97" transform="translate(-242.4 651.04) rotate(-87.64)"/><ellipse class="cls-5" cx="222.84" cy="489.37" rx="0.78" ry="0.85" transform="translate(-275.3 691.86) rotate(-87.64)"/><ellipse class="cls-5" cx="227.02" cy="447.43" rx="0.87" ry="0.95" transform="translate(-229.39 655.82) rotate(-87.64)"/><ellipse class="cls-5" cx="196.34" cy="447.06" rx="0.59" ry="0.64" transform="translate(-258.43 624.81) rotate(-87.64)"/><ellipse class="cls-5" cx="213.13" cy="477.01" rx="1.17" ry="1.27" transform="translate(-272.26 670.3) rotate(-87.64)"/><ellipse class="cls-5" cx="269.25" cy="474.13" rx="4" ry="4.35" transform="translate(-215.57 723.61) rotate(-87.64)"/><ellipse class="cls-5" cx="579.53" cy="296.72" rx="1.48" ry="1.61" transform="translate(196.16 822.96) rotate(-81.04)"/><ellipse class="cls-5" cx="492.02" cy="284.66" rx="1.48" ry="1.61" transform="translate(134.2 726.34) rotate(-81.04)"/><ellipse class="cls-5" cx="488.81" cy="319.19" rx="1.71" ry="2.11" transform="translate(80.5 736.45) rotate(-78.77)"/><ellipse class="cls-5" cx="530.98" cy="267.92" rx="1.46" ry="1.8" transform="translate(164.75 736.54) rotate(-78.77)"/><ellipse class="cls-5" cx="523.29" cy="312.38" rx="1.46" ry="1.8" transform="translate(114.95 764.79) rotate(-78.77)"/><ellipse class="cls-5" cx="536.08" cy="276.7" rx="1.75" ry="2.16" transform="translate(160.24 748.6) rotate(-78.77)"/><ellipse class="cls-5" cx="495.08" cy="299.67" rx="1.9" ry="2.35" transform="translate(104.71 726.89) rotate(-78.77)"/><ellipse class="cls-5" cx="514.72" cy="315.45" rx="0.29" ry="0.97" transform="translate(105.38 759.17) rotate(-78.81)"/><ellipse class="cls-5" cx="528.39" cy="280.88" rx="2.19" ry="2.01" transform="translate(151.58 745.74) rotate(-78.97)"/><ellipse class="cls-5" cx="528.7" cy="273.18" rx="0.7" ry="0.64" transform="translate(159.38 739.82) rotate(-78.97)"/><ellipse class="cls-5" cx="544.41" cy="312.64" rx="0.83" ry="0.76" transform="translate(133.36 787.16) rotate(-78.97)"/><ellipse class="cls-5" cx="487.6" cy="330.73" rx="4.36" ry="4" transform="translate(69.67 746.03) rotate(-78.97)"/><ellipse class="cls-5" cx="491.53" cy="393.08" rx="1.48" ry="1.61" transform="translate(26.69 817.39) rotate(-81.04)"/><ellipse class="cls-5" cx="404.02" cy="381.02" rx="1.48" ry="1.61" transform="translate(-35.28 720.76) rotate(-81.04)"/><ellipse class="cls-5" cx="400.81" cy="415.55" rx="1.71" ry="2.11" transform="translate(-84.87 727.73) rotate(-78.77)"/><ellipse class="cls-5" cx="442.98" cy="364.28" rx="1.46" ry="1.8" transform="translate(-0.62 727.81) rotate(-78.77)"/><ellipse class="cls-5" cx="435.29" cy="408.74" rx="1.46" ry="1.8" transform="translate(-50.42 756.07) rotate(-78.77)"/><ellipse class="cls-5" cx="448.08" cy="373.06" rx="1.75" ry="2.16" transform="translate(-5.13 739.88) rotate(-78.77)"/><ellipse class="cls-5" cx="407.08" cy="396.03" rx="1.9" ry="2.35" transform="translate(-60.66 718.16) rotate(-78.77)"/><ellipse class="cls-5" cx="426.72" cy="411.81" rx="0.29" ry="0.97" transform="translate(-60.07 750.5) rotate(-78.81)"/><ellipse class="cls-5" cx="440.39" cy="377.24" rx="2.19" ry="2.01" transform="translate(-14.16 737.29) rotate(-78.97)"/><ellipse class="cls-5" cx="440.7" cy="369.54" rx="0.7" ry="0.64" transform="matrix(0.19, -0.98, 0.98, 0.19, -6.35, 731.37)"/><ellipse class="cls-5" cx="456.41" cy="409" rx="0.83" ry="0.76" transform="translate(-32.38 778.7) rotate(-78.97)"/><ellipse class="cls-5" cx="399.6" cy="427.09" rx="4.36" ry="4" transform="translate(-96.07 737.57) rotate(-78.97)"/><ellipse class="cls-5" cx="197.75" cy="488.79" rx="0.78" ry="0.85" transform="translate(-298.78 666.23) rotate(-87.64)"/><ellipse class="cls-5" cx="26.32" cy="424.08" rx="2.16" ry="2.35"/><ellipse class="cls-5" cx="94.98" cy="443.44" rx="1.48" ry="1.62"/><ellipse class="cls-5" cx="123.14" cy="381.1" rx="1.43" ry="1.55"/><ellipse class="cls-5" cx="24.16" cy="341.19" rx="4.22" ry="4.6"/><ellipse class="cls-5" cx="93.42" cy="355.02" rx="1.48" ry="1.62"/><ellipse class="cls-5" cx="11.3" cy="330.78" rx="1.92" ry="1.55" transform="translate(-319.66 328.69) rotate(-87.68)"/><ellipse class="cls-5" cx="58.85" cy="357.15" rx="2.11" ry="1.7" transform="translate(-300.39 401.5) rotate(-87.68)"/><ellipse class="cls-5" cx="115.93" cy="390.99" rx="1.8" ry="1.46" transform="translate(-279.42 491.01) rotate(-87.68)"/><ellipse class="cls-5" cx="70.87" cy="390.22" rx="1.8" ry="1.46" transform="translate(-321.89 445.24) rotate(-87.68)"/><ellipse class="cls-5" cx="111.04" cy="308.66" rx="1.16" ry="1.26" transform="translate(-201.94 406.89) rotate(-87.64)"/><ellipse class="cls-5" cx="108.05" cy="397.38" rx="2.16" ry="1.75" transform="translate(-293.37 489.27) rotate(-87.68)"/><ellipse class="cls-5" cx="79.08" cy="360.36" rx="2.35" ry="1.9" transform="translate(-284.18 424.8) rotate(-87.68)"/><ellipse class="cls-5" cx="77.36" cy="330.96" rx="1.7" ry="1.37" transform="translate(-256.46 394.87) rotate(-87.68)"/><ellipse class="cls-5" cx="66.53" cy="382.21" rx="0.97" ry="0.28" transform="translate(-318.07 433.16) rotate(-87.67)"/><ellipse class="cls-5" cx="17.5" cy="315.27" rx="0.75" ry="0.22" transform="translate(-298.22 319.95) rotate(-87.67)"/><ellipse class="cls-5" cx="102.75" cy="390.41" rx="2.01" ry="2.19" transform="translate(-291.56 476.99) rotate(-87.64)"/><ellipse class="cls-5" cx="110.4" cy="389.53" rx="0.64" ry="0.7" transform="translate(-283.36 483.78) rotate(-87.64)"/><ellipse class="cls-5" cx="73.86" cy="411.15" rx="0.76" ry="0.83" transform="translate(-339.98 468.01) rotate(-87.64)"/><ellipse class="cls-5" cx="0.87" cy="372.98" rx="0.78" ry="0.85" transform="translate(-371.83 358.48) rotate(-87.64)"/><ellipse class="cls-5" cx="5.05" cy="331.04" rx="0.87" ry="0.95" transform="translate(-325.92 322.44) rotate(-87.64)"/><ellipse class="cls-5" cx="47.27" cy="357.73" rx="4" ry="4.35" transform="translate(-312.1 390.23) rotate(-87.64)"/></g></g><g class="cls-6"><g id="Stars-3" data-name="Stars"><ellipse class="cls-5" cx="1093.05" cy="851.11" rx="2.6" ry="1.73"/><ellipse class="cls-5" cx="1224.11" cy="853.52" rx="2.16" ry="1.44"/><ellipse class="cls-5" cx="1078" cy="920.63" rx="1.27" ry="0.93"/><ellipse class="cls-5" cx="1185.44" cy="896.72" rx="3.43" ry="2.81"/><ellipse class="cls-5" cx="1118.41" cy="1019.04" rx="2.06" ry="1.37"/><ellipse class="cls-5" cx="829.01" cy="863.78" rx="4.02" ry="3.3"/><ellipse class="cls-5" cx="923.86" cy="942.47" rx="3.93" ry="3.22"/><ellipse class="cls-5" cx="403.91" cy="897.11" rx="2.81" ry="1.87"/><ellipse class="cls-5" cx="1053.54" cy="938.39" rx="1.95" ry="1.43"/><ellipse class="cls-5" cx="1125.49" cy="920.24" rx="3.87" ry="3.18"/><ellipse class="cls-5" cx="1223.96" cy="936.87" rx="3.01" ry="2.47"/><ellipse class="cls-5" cx="1108.78" cy="1089.02" rx="3.17" ry="2.33"/><ellipse class="cls-5" cx="770.23" cy="768.22" rx="3.77" ry="3.39"/><ellipse class="cls-5" cx="268.88" cy="934.25" rx="1.32" ry="0.32"/><ellipse class="cls-5" cx="850.91" cy="1019.63" rx="0.89" ry="0.24"/><ellipse class="cls-5" cx="1008.4" cy="976.98" rx="1.88" ry="1.38"/><ellipse class="cls-5" cx="144.41" cy="840.74" rx="1.32" ry="0.32"/><ellipse class="cls-5" cx="962.44" cy="997.95" rx="1.89" ry="0.5"/><ellipse class="cls-5" cx="865.7" cy="1092.47" rx="1.34" ry="0.32"/><ellipse class="cls-5" cx="462.36" cy="699.09" rx="1.35" ry="0.44"/><ellipse class="cls-5" cx="1005.99" cy="1027.73" rx="2.27" ry="1.51"/><ellipse class="cls-5" cx="357.84" cy="1021.16" rx="2.97" ry="1.98"/><ellipse class="cls-5" cx="370.22" cy="1075.78" rx="1.94" ry="1.29"/><ellipse class="cls-5" cx="302.19" cy="964.93" rx="3.36" ry="2.24"/><ellipse class="cls-5" cx="942.23" cy="812.1" rx="1.7" ry="1.13"/><ellipse class="cls-5" cx="1038.33" cy="743.03" rx="3.04" ry="2.73"/><ellipse class="cls-5" cx="696.83" cy="727.43" rx="3.28" ry="2.95"/><ellipse class="cls-5" cx="42.32" cy="930.55" rx="1.55" ry="1.03"/><ellipse class="cls-5" cx="56.51" cy="898.58" rx="1.02" ry="0.25"/><ellipse class="cls-5" cx="217.93" cy="918.46" rx="2.67" ry="1.78"/><ellipse class="cls-5" cx="889.17" cy="989.64" rx="1.26" ry="0.92"/><ellipse class="cls-5" cx="1066.75" cy="941.33" rx="2.99" ry="2.45"/><ellipse class="cls-5" cx="15.38" cy="845.88" rx="4.38" ry="2.92"/><ellipse class="cls-5" cx="864.36" cy="772.76" rx="2.81" ry="2.53"/><ellipse class="cls-5" cx="13.19" cy="950.44" rx="2.19" ry="1.46"/><ellipse class="cls-5" cx="316.99" cy="925.31" rx="3.9" ry="2.6"/><ellipse class="cls-5" cx="1076.11" cy="970.96" rx="1.88" ry="1.38"/><ellipse class="cls-5" cx="1126.12" cy="796.77" rx="2.86" ry="1.91"/><ellipse class="cls-5" cx="1138.88" cy="1128.84" rx="2.37" ry="1.58"/><ellipse class="cls-5" cx="1168.77" cy="731.43" rx="2.44" ry="1.63"/><ellipse class="cls-5" cx="903.2" cy="659.42" rx="2.9" ry="2.6"/><ellipse class="cls-5" cx="1066.75" cy="643.32" rx="1.57" ry="1.41"/><ellipse class="cls-5" cx="1176.4" cy="689.55" rx="2.93" ry="1.95"/><ellipse class="cls-5" cx="317.41" cy="633.35" rx="2.95" ry="2.65"/><ellipse class="cls-5" cx="844.62" cy="670.53" rx="2.8" ry="2.52"/><ellipse class="cls-5" cx="611.79" cy="666.36" rx="2.31" ry="2.07"/><ellipse class="cls-5" cx="1124.91" cy="660.57" rx="4.84" ry="4.37"/><ellipse class="cls-5" cx="1088.21" cy="711.07" rx="2.3" ry="2.07"/><ellipse class="cls-5" cx="372.88" cy="654.89" rx="2.04" ry="1.83"/><ellipse class="cls-5" cx="538.36" cy="649.31" rx="1.59" ry="1.42"/><ellipse class="cls-5" cx="508.24" cy="704.24" rx="1.52" ry="1.37"/><ellipse class="cls-5" cx="695.8" cy="680.44" rx="2.64" ry="2.37"/><ellipse class="cls-5" cx="986.55" cy="642.06" rx="1.24" ry="1.11"/><ellipse class="cls-5" cx="412.53" cy="692.75" rx="3.01" ry="2.71"/><ellipse class="cls-5" cx="1039.78" cy="800.99" rx="3.04" ry="2.03"/><ellipse class="cls-5" cx="153.52" cy="799.88" rx="2.73" ry="2.45"/><ellipse class="cls-5" cx="478.71" cy="662.19" rx="3.51" ry="3.15"/><ellipse class="cls-5" cx="942.06" cy="687.08" rx="3.38" ry="3.04"/><ellipse class="cls-5" cx="614.1" cy="739.41" rx="4.51" ry="4.05"/><ellipse class="cls-5" cx="807.27" cy="782.58" rx="4.51" ry="4.05"/><ellipse class="cls-5" cx="938.68" cy="971.99" rx="4.51" ry="4.05"/><ellipse class="cls-5" cx="159.22" cy="625.68" rx="3.28" ry="2.95"/><ellipse class="cls-5" cx="162.5" cy="720.89" rx="2.22" ry="1.99"/><ellipse class="cls-5" cx="272.46" cy="665.05" rx="4.4" ry="3.95"/><ellipse class="cls-5" cx="283.64" cy="886.35" rx="1.04" ry="0.94"/><ellipse class="cls-5" cx="208.66" cy="858.06" rx="3.79" ry="3.41"/><ellipse class="cls-5" cx="60.54" cy="688.66" rx="4.42" ry="3.97"/><ellipse class="cls-5" cx="204.08" cy="878.44" rx="1.94" ry="1.74"/><ellipse class="cls-5" cx="396.22" cy="662.13" rx="3.59" ry="3.23"/><ellipse class="cls-5" cx="998.57" cy="672.51" rx="4.41" ry="3.96"/><ellipse class="cls-5" cx="759.67" cy="628.13" rx="1.75" ry="1.57"/><ellipse class="cls-5" cx="1194.01" cy="657.35" rx="1.71" ry="1.14"/><ellipse class="cls-5" cx="1170.21" cy="781.83" rx="2.44" ry="1.63"/><ellipse class="cls-5" cx="922.98" cy="752.4" rx="2.9" ry="2.6"/><ellipse class="cls-5" cx="1057.61" cy="740.64" rx="1.57" ry="1.41"/><ellipse class="cls-5" cx="1177.85" cy="739.95" rx="2.93" ry="1.95"/><ellipse class="cls-5" cx="319.07" cy="711.27" rx="2.95" ry="2.65"/><ellipse class="cls-5" cx="474.15" cy="742.91" rx="1.62" ry="1.45"/><ellipse class="cls-5" cx="846.07" cy="738.44" rx="2.8" ry="2.52"/><ellipse class="cls-5" cx="1129.34" cy="774.01" rx="3.19" ry="2.13"/><ellipse class="cls-5" cx="1089.65" cy="777.27" rx="2.3" ry="1.53"/><ellipse class="cls-5" cx="327.81" cy="825.28" rx="1.59" ry="1.43"/><ellipse class="cls-5" cx="540.02" cy="727.22" rx="1.59" ry="1.42"/><ellipse class="cls-5" cx="45.25" cy="783.99" rx="1.77" ry="1.59"/><ellipse class="cls-5" cx="988" cy="734.73" rx="1.24" ry="1.11"/><ellipse class="cls-5" cx="414.18" cy="772.19" rx="3.01" ry="2.01"/><ellipse class="cls-5" cx="964.41" cy="1051.69" rx="1.97" ry="0.52"/><ellipse class="cls-5" cx="51.08" cy="732.71" rx="1.44" ry="1.29"/><ellipse class="cls-5" cx="1011.21" cy="943.02" rx="1.34" ry="0.98"/><ellipse class="cls-5" cx="1017.07" cy="925.5" rx="2.25" ry="1.5"/><ellipse class="cls-5" cx="151.65" cy="675.88" rx="1.91" ry="1.72"/><ellipse class="cls-5" cx="187.66" cy="689.87" rx="1.32" ry="1.19"/><ellipse class="cls-5" cx="122.47" cy="696.46" rx="2.85" ry="2.56"/><ellipse class="cls-5" cx="151.91" cy="791.38" rx="0.87" ry="0.78"/><ellipse class="cls-5" cx="89.38" cy="767.79" rx="3.16" ry="2.84"/><ellipse class="cls-5" cx="85.56" cy="784.79" rx="1.62" ry="1.45"/><ellipse class="cls-5" cx="202.81" cy="694.57" rx="2.33" ry="2.09"/><ellipse class="cls-5" cx="152.73" cy="726.46" rx="1.91" ry="1.72"/><ellipse class="cls-5" cx="183.18" cy="831.23" rx="1.03" ry="0.93"/><ellipse class="cls-5" cx="307.61" cy="846.75" rx="1.32" ry="0.32"/><ellipse class="cls-5" cx="256.66" cy="830.96" rx="2.67" ry="1.78"/><ellipse class="cls-5" cx="355.72" cy="837.81" rx="3.9" ry="2.6"/><ellipse class="cls-5" cx="322.38" cy="798.85" rx="1.04" ry="0.94"/><ellipse class="cls-5" cx="247.39" cy="770.56" rx="3.79" ry="3.41"/><ellipse class="cls-5" cx="242.82" cy="790.94" rx="1.94" ry="1.74"/><ellipse class="cls-5" cx="366.54" cy="737.78" rx="1.59" ry="1.43"/><ellipse class="cls-5" cx="221.91" cy="743.73" rx="1.03" ry="0.93"/><ellipse class="cls-5" cx="237" cy="1014.59" rx="2.22" ry="1.99"/><ellipse class="cls-5" cx="63.48" cy="947.07" rx="2.45" ry="2.2"/><ellipse class="cls-5" cx="174.78" cy="953.74" rx="3.28" ry="2.94"/><ellipse class="cls-5" cx="236.46" cy="960.86" rx="2.27" ry="2.04"/><ellipse class="cls-5" cx="57.05" cy="954.05" rx="1.18" ry="1.06"/><ellipse class="cls-5" cx="125.58" cy="1026.42" rx="1.44" ry="1.29"/><ellipse class="cls-5" cx="124.8" cy="972.15" rx="4.89" ry="4.39"/><ellipse class="cls-5" cx="163.87" cy="1061.5" rx="3.16" ry="2.84"/><ellipse class="cls-5" cx="262.4" cy="968.91" rx="3.99" ry="3.59"/><ellipse class="cls-5" cx="227.23" cy="1020.17" rx="1.91" ry="1.72"/><ellipse class="cls-5" cx="263.24" cy="1034.15" rx="1.32" ry="1.19"/><ellipse class="cls-5" cx="141.57" cy="939.52" rx="1.23" ry="1.1"/><ellipse class="cls-5" cx="84.98" cy="921.64" rx="2.45" ry="2.2"/><ellipse class="cls-5" cx="135.55" cy="914.54" rx="1.06" ry="0.95"/><ellipse class="cls-5" cx="300.89" cy="924.25" rx="1.32" ry="1.19"/><ellipse class="cls-5" cx="78.55" cy="911.78" rx="1.18" ry="1.06"/><ellipse class="cls-5" cx="79.73" cy="946.08" rx="0.8" ry="0.72"/><ellipse class="cls-5" cx="119.35" cy="925.96" rx="1.58" ry="1.42"/><ellipse class="cls-5" cx="112.35" cy="863.37" rx="5.42" ry="4.87"/><ellipse class="cls-5" cx="136.14" cy="942.62" rx="1.06" ry="0.95"/><ellipse class="cls-5" cx="329.4" cy="951.54" rx="1.32" ry="1.19"/><ellipse class="cls-5" cx="1159.61" cy="787.05" rx="1.32" ry="0.32"/><ellipse class="cls-5" cx="1057.52" cy="876.85" rx="1.55" ry="1.03"/><ellipse class="cls-5" cx="1071.71" cy="844.88" rx="1.02" ry="0.25"/><ellipse class="cls-5" cx="1233.13" cy="864.77" rx="2.67" ry="1.78"/><ellipse class="cls-5" cx="1030.58" cy="792.19" rx="4.38" ry="2.92"/><ellipse class="cls-5" cx="1028.39" cy="896.75" rx="2.19" ry="1.46"/><ellipse class="cls-5" cx="1168.72" cy="746.19" rx="2.73" ry="2.45"/><ellipse class="cls-5" cx="1195.72" cy="705.68" rx="2.22" ry="1.99"/><ellipse class="cls-5" cx="1223.86" cy="804.37" rx="3.79" ry="3.41"/><ellipse class="cls-5" cx="1219.29" cy="824.75" rx="1.94" ry="1.74"/><ellipse class="cls-5" cx="1060.45" cy="730.3" rx="1.77" ry="1.59"/><ellipse class="cls-5" cx="1066.28" cy="679.02" rx="1.44" ry="1.29"/><ellipse class="cls-5" cx="1167.11" cy="737.69" rx="0.87" ry="0.78"/><ellipse class="cls-5" cx="1104.58" cy="714.1" rx="3.16" ry="2.84"/><ellipse class="cls-5" cx="1100.76" cy="731.09" rx="1.62" ry="1.45"/><ellipse class="cls-5" cx="1167.93" cy="672.77" rx="1.91" ry="1.72"/><ellipse class="cls-5" cx="1198.38" cy="777.53" rx="1.03" ry="0.93"/><ellipse class="cls-5" cx="1237.11" cy="690.03" rx="1.03" ry="0.93"/><ellipse class="cls-5" cx="1078.68" cy="910.21" rx="2.45" ry="2.2"/><ellipse class="cls-5" cx="1189.98" cy="981.44" rx="3.28" ry="2.94"/><ellipse class="cls-5" cx="1072.25" cy="900.35" rx="1.18" ry="1.06"/><ellipse class="cls-5" cx="1140" cy="935.29" rx="4.89" ry="4.39"/><ellipse class="cls-5" cx="1156.77" cy="885.83" rx="1.23" ry="1.1"/><ellipse class="cls-5" cx="1100.18" cy="867.94" rx="2.45" ry="2.2"/><ellipse class="cls-5" cx="1150.75" cy="860.85" rx="1.06" ry="0.95"/><ellipse class="cls-5" cx="1093.75" cy="858.09" rx="1.18" ry="1.06"/><ellipse class="cls-5" cx="1094.93" cy="892.39" rx="0.8" ry="0.72"/><ellipse class="cls-5" cx="1134.55" cy="872.27" rx="1.58" ry="1.42"/><ellipse class="cls-5" cx="937.52" cy="853.24" rx="2.6" ry="1.73"/><ellipse class="cls-5" cx="902" cy="878.98" rx="1.55" ry="1.03"/><ellipse class="cls-5" cx="916.19" cy="847.02" rx="1.02" ry="0.25"/><ellipse class="cls-5" cx="944.66" cy="870.07" rx="2.45" ry="2.2"/><ellipse class="cls-5" cx="938.22" cy="860.22" rx="1.18" ry="1.06"/><ellipse class="cls-5" cx="979.03" cy="874.4" rx="1.58" ry="1.42"/><ellipse class="cls-5" cx="1127.55" cy="809.68" rx="5.42" ry="4.87"/><ellipse class="cls-5" cx="1151.34" cy="888.92" rx="1.06" ry="0.95"/><ellipse class="cls-5" cx="627.85" cy="748.58" rx="1.7" ry="1.65" transform="translate(-294.84 1069.85) rotate(-69.21)"/><ellipse class="cls-5" cx="674.4" cy="689.99" rx="2.69" ry="2.23" transform="translate(-0.91 0.89) rotate(-0.08)"/><ellipse class="cls-5" cx="522.85" cy="780.68" rx="1.98" ry="2.61" transform="translate(-264.23 1293.86) rotate(-89.29)"/><ellipse class="cls-5" cx="577" cy="725.35" rx="1.87" ry="1.82" transform="translate(-305.92 1007.32) rotate(-69.21)"/><ellipse class="cls-5" cx="515.94" cy="695.53" rx="1.59" ry="1.55" transform="translate(-317.43 931) rotate(-69.21)"/><ellipse class="cls-5" cx="578.27" cy="781.6" rx="1.98" ry="1.93" transform="translate(-357.7 1044.79) rotate(-69.21)"/><ellipse class="cls-5" cx="564.14" cy="696.21" rx="1.59" ry="1.55" transform="translate(-286.97 976.5) rotate(-69.21)"/><ellipse class="cls-5" cx="521.18" cy="768.07" rx="1.02" ry="1.35" transform="translate(-253.26 1279.73) rotate(-89.29)"/><ellipse class="cls-5" cx="524.37" cy="689.9" rx="1.91" ry="1.86" transform="translate(-306.73 935.25) rotate(-69.21)"/><ellipse class="cls-5" cx="555.36" cy="722.52" rx="2.08" ry="2.03" transform="translate(-317.24 985.26) rotate(-69.21)"/><ellipse class="cls-5" cx="557.2" cy="748.42" rx="1.5" ry="1.46" transform="translate(-340.27 1003.69) rotate(-69.21)"/><ellipse class="cls-5" cx="568.78" cy="703.26" rx="0.86" ry="0.3" transform="translate(-162.87 1235.04) rotate(-87.04)"/><ellipse class="cls-5" cx="651.31" cy="772.5" rx="1.01" ry="0.98" transform="translate(-302.07 1107.2) rotate(-69.21)"/><ellipse class="cls-5" cx="621.22" cy="762.25" rx="0.66" ry="0.24" transform="translate(-172.04 1343.35) rotate(-87.04)"/><ellipse class="cls-5" cx="569.56" cy="787.3" rx="2.86" ry="2.78" transform="translate(-368.64 1040.32) rotate(-69.21)"/><ellipse class="cls-5" cx="669.39" cy="792.08" rx="1.43" ry="1.39" transform="translate(-308.71 1136.73) rotate(-69.21)"/><ellipse class="cls-5" cx="530.04" cy="696.03" rx="1.77" ry="2.34" transform="translate(-172.48 1217.45) rotate(-89.29)"/><ellipse class="cls-5" cx="521.87" cy="696.81" rx="0.56" ry="0.75" transform="translate(-181.33 1210.04) rotate(-89.29)"/><ellipse class="cls-5" cx="560.94" cy="677.76" rx="0.67" ry="0.89" transform="translate(-123.69 1230.3) rotate(-89.29)"/><ellipse class="cls-5" cx="674.23" cy="763.68" rx="0.77" ry="1.02" transform="translate(-97.7 1428.44) rotate(-89.29)"/><ellipse class="cls-5" cx="663.07" cy="708.28" rx="0.8" ry="1.06" transform="translate(-53.34 1362.56) rotate(-89.29)"/><ellipse class="cls-5" cx="644.17" cy="744.49" rx="1.59" ry="2.11" transform="translate(-108.21 1379.42) rotate(-89.29)"/><ellipse class="cls-5" cx="639.01" cy="711.39" rx="0.69" ry="0.91" transform="translate(-80.21 1341.58) rotate(-89.29)"/><ellipse class="cls-5" cx="634.54" cy="748.35" rx="0.77" ry="1.02" transform="matrix(0.01, -1, 1, 0.01, -121.58, 1373.61)"/><ellipse class="cls-5" cx="667.35" cy="748.68" rx="0.52" ry="0.69" transform="translate(-89.5 1406.75) rotate(-89.29)"/><ellipse class="cls-5" cx="649.4" cy="722.29" rx="1.03" ry="1.36" transform="translate(-80.84 1362.73) rotate(-89.29)"/><ellipse class="cls-5" cx="589.38" cy="724.83" rx="3.53" ry="4.65" transform="matrix(0.01, -1, 1, 0.01, -142.67, 1305.22)"/><ellipse class="cls-5" cx="257.51" cy="881.16" rx="1.31" ry="1.72" transform="translate(-634.7 1097.31) rotate(-87.33)"/><ellipse class="cls-5" cx="351.11" cy="891.79" rx="1.31" ry="1.72" transform="translate(-556.08 1200.94) rotate(-87.33)"/><ellipse class="cls-5" cx="354.55" cy="861.36" rx="1.51" ry="2.25" transform="translate(-538.05 1127.66) rotate(-84.24)"/><ellipse class="cls-5" cx="309.44" cy="906.54" rx="1.29" ry="1.92" transform="translate(-623.58 1123.43) rotate(-84.24)"/><ellipse class="cls-5" cx="317.66" cy="867.36" rx="1.29" ry="1.92" transform="translate(-577.2 1096.36) rotate(-84.24)"/><ellipse class="cls-5" cx="303.99" cy="898.8" rx="1.55" ry="2.3" transform="translate(-620.78 1111.05) rotate(-84.24)"/><ellipse class="cls-5" cx="347.83" cy="878.56" rx="1.68" ry="2.5" transform="translate(-561.2 1136.46) rotate(-84.24)"/><ellipse class="cls-5" cx="326.83" cy="864.66" rx="0.25" ry="1.03" transform="translate(-578.27 1052.43) rotate(-81.01)"/><ellipse class="cls-5" cx="312.21" cy="895.12" rx="2.16" ry="1.92" transform="translate(-120.73 51.75) rotate(-7.95)"/><ellipse class="cls-5" cx="311.88" cy="901.91" rx="0.69" ry="0.61" transform="translate(-121.67 51.77) rotate(-7.95)"/><ellipse class="cls-5" cx="295.07" cy="867.13" rx="0.82" ry="0.73" transform="translate(-117.02 49.11) rotate(-7.95)"/><ellipse class="cls-5" cx="355.83" cy="851.19" rx="4.3" ry="3.82" transform="translate(-114.24 57.35) rotate(-7.95)"/><ellipse class="cls-5" cx="351.63" cy="796.25" rx="1.31" ry="1.72" transform="translate(-460.14 1110.38) rotate(-87.33)"/><ellipse class="cls-5" cx="445.23" cy="806.87" rx="1.31" ry="1.72" transform="translate(-381.53 1214) rotate(-87.33)"/><ellipse class="cls-5" cx="448.67" cy="776.44" rx="1.51" ry="2.25" transform="translate(-368.89 1144.92) rotate(-84.24)"/><ellipse class="cls-5" cx="403.56" cy="821.62" rx="1.29" ry="1.92" transform="translate(-454.42 1140.68) rotate(-84.24)"/><ellipse class="cls-5" cx="411.78" cy="782.44" rx="1.29" ry="1.92" transform="translate(-408.04 1113.62) rotate(-84.24)"/><ellipse class="cls-5" cx="398.11" cy="813.89" rx="1.55" ry="2.3" transform="translate(-451.62 1128.3) rotate(-84.24)"/><ellipse class="cls-5" cx="441.96" cy="793.65" rx="1.68" ry="2.5" transform="translate(-392.04 1153.72) rotate(-84.24)"/><ellipse class="cls-5" cx="420.95" cy="779.75" rx="0.25" ry="1.03" transform="translate(-414.97 1073.74) rotate(-81.01)"/><ellipse class="cls-5" cx="406.33" cy="810.21" rx="2.16" ry="1.92" transform="translate(-108.09 63.94) rotate(-7.95)"/><ellipse class="cls-5" cx="406" cy="816.99" rx="0.69" ry="0.61" transform="matrix(0.99, -0.14, 0.14, 0.99, -109.03, 63.96)"/><ellipse class="cls-5" cx="389.19" cy="782.22" rx="0.82" ry="0.73" transform="translate(-104.38 61.3) rotate(-7.95)"/><ellipse class="cls-5" cx="449.95" cy="766.28" rx="4.3" ry="3.82" transform="translate(-101.6 69.55) rotate(-7.95)"/><ellipse class="cls-5" cx="665.85" cy="711.9" rx="0.69" ry="0.91" transform="translate(-54.21 1368.92) rotate(-89.29)"/><ellipse class="cls-5" cx="849.21" cy="768.93" rx="2.31" ry="2.07"/><ellipse class="cls-5" cx="775.77" cy="751.87" rx="1.59" ry="1.42"/><ellipse class="cls-5" cx="745.65" cy="806.8" rx="1.52" ry="1.37"/><ellipse class="cls-5" cx="851.51" cy="841.97" rx="4.51" ry="4.05"/><ellipse class="cls-5" cx="777.43" cy="829.79" rx="1.59" ry="1.42"/><ellipse class="cls-5" cx="865.27" cy="851.15" rx="1.7" ry="1.65" transform="translate(-237.58 1357.96) rotate(-69.21)"/><ellipse class="cls-5" cx="911.81" cy="792.56" rx="2.69" ry="2.23" transform="translate(-1.04 1.2) rotate(-0.08)"/><ellipse class="cls-5" cx="814.42" cy="827.91" rx="1.87" ry="1.82" transform="translate(-248.66 1295.43) rotate(-69.21)"/><ellipse class="cls-5" cx="753.36" cy="798.09" rx="1.59" ry="1.55" transform="translate(-260.17 1219.12) rotate(-69.21)"/><ellipse class="cls-5" cx="801.56" cy="798.77" rx="1.59" ry="1.55" transform="translate(-229.71 1264.61) rotate(-69.21)"/><ellipse class="cls-5" cx="758.59" cy="870.64" rx="1.02" ry="1.35" transform="translate(-121.34 1618.43) rotate(-89.29)"/><ellipse class="cls-5" cx="761.79" cy="792.46" rx="1.91" ry="1.86" transform="translate(-249.47 1223.36) rotate(-69.21)"/><ellipse class="cls-5" cx="792.77" cy="825.09" rx="2.08" ry="2.03" transform="translate(-259.98 1273.38) rotate(-69.21)"/><ellipse class="cls-5" cx="794.61" cy="850.99" rx="1.5" ry="1.46" transform="translate(-283.01 1291.8) rotate(-69.21)"/><ellipse class="cls-5" cx="806.2" cy="805.83" rx="0.86" ry="0.3" transform="translate(-40.12 1569.41) rotate(-87.04)"/><ellipse class="cls-5" cx="888.73" cy="875.06" rx="1.01" ry="0.98" transform="translate(-244.81 1395.32) rotate(-69.21)"/><ellipse class="cls-5" cx="858.64" cy="864.82" rx="0.66" ry="0.24" transform="translate(-49.29 1677.73) rotate(-87.04)"/><ellipse class="cls-5" cx="767.46" cy="798.6" rx="1.77" ry="2.34" transform="translate(-40.55 1556.15) rotate(-89.29)"/><ellipse class="cls-5" cx="759.28" cy="799.37" rx="0.56" ry="0.75" transform="matrix(0.01, -1, 1, 0.01, -49.4, 1548.74)"/><ellipse class="cls-5" cx="798.36" cy="780.33" rx="0.67" ry="0.89" transform="translate(8.24 1568.99) rotate(-89.29)"/><ellipse class="cls-5" cx="911.65" cy="866.24" rx="0.77" ry="1.02" transform="translate(34.23 1767.14) rotate(-89.29)"/><ellipse class="cls-5" cx="900.48" cy="810.85" rx="0.8" ry="1.06" transform="translate(78.59 1701.26) rotate(-89.29)"/><ellipse class="cls-5" cx="881.58" cy="847.05" rx="1.59" ry="2.11" transform="translate(23.72 1718.12) rotate(-89.29)"/><ellipse class="cls-5" cx="876.43" cy="813.96" rx="0.69" ry="0.91" transform="translate(51.72 1680.28) rotate(-89.29)"/><ellipse class="cls-5" cx="871.96" cy="850.92" rx="0.77" ry="1.02" transform="translate(10.35 1712.31) rotate(-89.29)"/><ellipse class="cls-5" cx="904.77" cy="851.25" rx="0.52" ry="0.69" transform="translate(42.43 1745.45) rotate(-89.29)"/><ellipse class="cls-5" cx="886.82" cy="824.85" rx="1.03" ry="1.36" transform="translate(51.09 1701.43) rotate(-89.29)"/><ellipse class="cls-5" cx="903.27" cy="814.47" rx="0.69" ry="0.91" transform="translate(77.72 1707.62) rotate(-89.29)"/><ellipse class="cls-5" cx="826.79" cy="827.4" rx="3.53" ry="4.65" transform="translate(-10.74 1643.92) rotate(-89.29)"/></g><g id="Stars-4" data-name="Stars"><ellipse class="cls-5" cx="294.62" cy="237.51" rx="2.73" ry="2.46"/><ellipse class="cls-5" cx="1063.34" cy="328.82" rx="2.43" ry="1.97"/><ellipse class="cls-5" cx="940.8" cy="326.08" rx="2.02" ry="1.63"/><ellipse class="cls-5" cx="598.2" cy="254.28" rx="2.47" ry="2"/><ellipse class="cls-5" cx="408.57" cy="323.57" rx="2.66" ry="2.4"/><ellipse class="cls-5" cx="116.6" cy="259.98" rx="2.86" ry="2.32"/><ellipse class="cls-5" cx="1077.41" cy="249.93" rx="1.18" ry="1.06"/><ellipse class="cls-5" cx="976.96" cy="277.06" rx="3.2" ry="3.19"/><ellipse class="cls-5" cx="1039.62" cy="138.25" rx="1.92" ry="1.55"/><ellipse class="cls-5" cx="884.57" cy="376.23" rx="1.93" ry="1.56"/><ellipse class="cls-5" cx="748.65" cy="77.48" rx="2.21" ry="1.79"/><ellipse class="cls-5" cx="185.89" cy="361.23" rx="3" ry="2.43"/><ellipse class="cls-5" cx="80.59" cy="426.92" rx="3.31" ry="2.68"/><ellipse class="cls-5" cx="147.21" cy="487.92" rx="2.78" ry="2.25"/><ellipse class="cls-5" cx="702.28" cy="250.03" rx="2.13" ry="1.72"/><ellipse class="cls-5" cx="520.05" cy="307.65" rx="3.14" ry="2.54"/><ellipse class="cls-5" cx="307.18" cy="446.62" rx="4.22" ry="3.41"/><ellipse class="cls-5" cx="1221.52" cy="225.15" rx="3.67" ry="3.65"/><ellipse class="cls-5" cx="671.41" cy="347.04" rx="2.61" ry="2.11"/><ellipse class="cls-5" cx="364.89" cy="395.95" rx="3.3" ry="2.67"/><ellipse class="cls-5" cx="228.29" cy="483.69" rx="1.96" ry="1.59"/><ellipse class="cls-5" cx="79.57" cy="259.58" rx="2.57" ry="2.08"/><ellipse class="cls-5" cx="1100.28" cy="229.78" rx="1.83" ry="1.63"/><ellipse class="cls-5" cx="1033" cy="250.37" rx="3.62" ry="3.6"/><ellipse class="cls-5" cx="940.94" cy="231.5" rx="2.81" ry="2.8"/><ellipse class="cls-5" cx="561.86" cy="396.73" rx="2.88" ry="2.89"/><ellipse class="cls-5" cx="224.55" cy="274.67" rx="1.87" ry="1.51"/><ellipse class="cls-5" cx="362.41" cy="284.04" rx="2.48" ry="2.24"/><ellipse class="cls-5" cx="445.73" cy="383.86" rx="2.54" ry="2.3"/><ellipse class="cls-5" cx="161.16" cy="192.34" rx="2.73" ry="2.46"/><ellipse class="cls-5" cx="275.11" cy="259.29" rx="2.66" ry="2.4"/><ellipse class="cls-5" cx="228.95" cy="219.76" rx="2.48" ry="2.24"/><ellipse class="cls-5" cx="443.19" cy="240.95" rx="2.54" ry="2.3"/><ellipse class="cls-5" cx="132.87" cy="320.9" rx="2.73" ry="2.46"/><ellipse class="cls-5" cx="246.82" cy="406.95" rx="2.66" ry="2.4"/><ellipse class="cls-5" cx="200.66" cy="367.43" rx="2.48" ry="2.24"/><ellipse class="cls-5" cx="283.97" cy="467.24" rx="2.54" ry="2.3"/><ellipse class="cls-5" cx="1048.63" cy="58.84" rx="2.97" ry="2.64"/><ellipse class="cls-5" cx="818.31" cy="370.02" rx="3.68" ry="2.98"/><ellipse class="cls-5" cx="598.2" cy="344.94" rx="4.2" ry="4.21"/><ellipse class="cls-5" cx="365.01" cy="564.73" rx="4.2" ry="4.21"/><ellipse class="cls-5" cx="311.4" cy="323.18" rx="3.41" ry="2.76"/><ellipse class="cls-5" cx="646.51" cy="528.49" rx="2.99" ry="3"/><ellipse class="cls-5" cx="565.34" cy="485.46" rx="3.69" ry="3.7"/><ellipse class="cls-5" cx="332.54" cy="473.59" rx="2.88" ry="2.33"/><ellipse class="cls-5" cx="896.77" cy="315.35" rx="3.52" ry="3.5"/><ellipse class="cls-5" cx="1142.48" cy="185.99" rx="1.76" ry="1.57"/><ellipse class="cls-5" cx="1185.45" cy="162.19" rx="1.77" ry="0.57"/><ellipse class="cls-5" cx="1144.73" cy="128.39" rx="2.12" ry="1.72"/><ellipse class="cls-5" cx="1204.35" cy="373.09" rx="1.59" ry="1.28"/><ellipse class="cls-5" cx="792.3" cy="199.01" rx="2.83" ry="2.29"/><ellipse class="cls-5" cx="714.13" cy="380.8" rx="3.55" ry="3.57"/><ellipse class="cls-5" cx="820.44" cy="451.83" rx="2.72" ry="2.2"/><ellipse class="cls-5" cx="1114.5" cy="451.47" rx="2.84" ry="3.1"/><ellipse class="cls-5" cx="1087.92" cy="226.44" rx="2.8" ry="2.78"/><ellipse class="cls-5" cx="899.14" cy="118.53" rx="2.97" ry="2.4"/><ellipse class="cls-5" cx="1079.17" cy="192.82" rx="1.76" ry="1.57"/><ellipse class="cls-5" cx="1032.42" cy="390.49" rx="2.67" ry="2.16"/><ellipse class="cls-5" cx="1020.49" cy="13.66" rx="2.21" ry="1.79"/><ellipse class="cls-5" cx="885.13" cy="522.59" rx="3.44" ry="2.78"/><ellipse class="cls-5" cx="660.37" cy="483.43" rx="2.13" ry="2.13"/><ellipse class="cls-5" cx="992.54" cy="464.64" rx="2.28" ry="1.85"/><ellipse class="cls-5" cx="1240.84" cy="546.35" rx="2.71" ry="2.96"/><ellipse class="cls-5" cx="738.09" cy="521.22" rx="2.73" ry="2.74"/><ellipse class="cls-5" cx="449.82" cy="499" rx="2.22" ry="1.8"/><ellipse class="cls-5" cx="540.76" cy="510.08" rx="1.34" ry="1.35"/><ellipse class="cls-5" cx="617.26" cy="523.49" rx="2.66" ry="2.67"/><ellipse class="cls-5" cx="1087.92" cy="564.63" rx="1.47" ry="1.6"/><ellipse class="cls-5" cx="701.2" cy="537.2" rx="2.95" ry="2.96"/><ellipse class="cls-5" cx="395.47" cy="505.57" rx="2.99" ry="2.42"/><ellipse class="cls-5" cx="985.4" cy="512.16" rx="2.74" ry="2.22"/><ellipse class="cls-5" cx="610.4" cy="483.47" rx="2.18" ry="2.18"/><ellipse class="cls-5" cx="1033.54" cy="545.04" rx="4.53" ry="4.96"/><ellipse class="cls-5" cx="1067.86" cy="487.74" rx="2.15" ry="2.35"/><ellipse class="cls-5" cx="855.83" cy="488.96" rx="1.18" ry="0.96"/><ellipse class="cls-5" cx="1162.91" cy="566.05" rx="1.16" ry="1.26"/><ellipse class="cls-5" cx="1113.14" cy="385.7" rx="2.84" ry="2.3"/><ellipse class="cls-5" cx="1204.51" cy="514.97" rx="3.16" ry="3.44"/><ellipse class="cls-5" cx="848.16" cy="539.5" rx="4.3" ry="3.48"/><ellipse class="cls-5" cx="1207.67" cy="191.65" rx="4.22" ry="4.6"/><ellipse class="cls-5" cx="85.36" cy="588.92" rx="3.81" ry="3.08"/><ellipse class="cls-5" cx="285.84" cy="552.06" rx="2.09" ry="1.69"/><ellipse class="cls-5" cx="89.17" cy="506.19" rx="3.1" ry="0.91"/><ellipse class="cls-5" cx="721.49" cy="573.86" rx="3.72" ry="3.74"/><ellipse class="cls-5" cx="465.94" cy="550.47" rx="2.98" ry="2.41"/><ellipse class="cls-5" cx="1151.67" cy="531.5" rx="4.12" ry="4.49"/><ellipse class="cls-5" cx="784.71" cy="267.88" rx="2.97" ry="3.24"/><ellipse class="cls-5" cx="157.08" cy="563.83" rx="2.64" ry="2.13"/><ellipse class="cls-5" cx="332.06" cy="506.37" rx="1.97" ry="1.59"/><ellipse class="cls-5" cx="578.58" cy="547.11" rx="3.05" ry="3.06"/><ellipse class="cls-5" cx="968.94" cy="548.71" rx="1.6" ry="1.29"/><ellipse class="cls-5" cx="208.33" cy="519.74" rx="3.9" ry="3.15"/><ellipse class="cls-5" cx="883.58" cy="456.97" rx="3.44" ry="2.78"/><ellipse class="cls-5" cx="658.98" cy="410.53" rx="2.13" ry="2.13"/><ellipse class="cls-5" cx="991.19" cy="407.44" rx="2.28" ry="1.85"/><ellipse class="cls-5" cx="1222.34" cy="440.83" rx="2.71" ry="2.96"/><ellipse class="cls-5" cx="736.7" cy="448.32" rx="2.73" ry="2.74"/><ellipse class="cls-5" cx="448.27" cy="433.38" rx="2.22" ry="1.8"/><ellipse class="cls-5" cx="539.37" cy="437.18" rx="1.34" ry="1.35"/><ellipse class="cls-5" cx="503.63" cy="376.73" rx="2.66" ry="2.67"/><ellipse class="cls-5" cx="676.02" cy="461.57" rx="2.66" ry="2.67"/><ellipse class="cls-5" cx="1096.47" cy="454.18" rx="1.47" ry="1.6"/><ellipse class="cls-5" cx="491.68" cy="465.33" rx="2.95" ry="2.96"/><ellipse class="cls-5" cx="393.92" cy="439.96" rx="2.99" ry="2.42"/><ellipse class="cls-5" cx="984.05" cy="454.97" rx="2.74" ry="2.22"/><ellipse class="cls-5" cx="609.02" cy="410.57" rx="2.18" ry="2.18"/><ellipse class="cls-5" cx="1029.4" cy="416.32" rx="2.98" ry="2.41"/><ellipse class="cls-5" cx="1066.51" cy="412.62" rx="2.15" ry="1.74"/><ellipse class="cls-5" cx="854.28" cy="423.34" rx="1.18" ry="0.96"/><ellipse class="cls-5" cx="1161.56" cy="460.9" rx="1.16" ry="1.26"/><ellipse class="cls-5" cx="1183.61" cy="101.21" rx="1.84" ry="0.6"/><ellipse class="cls-5" cx="1139.85" cy="224.52" rx="1.25" ry="1.11"/><ellipse class="cls-5" cx="1134.37" cy="244.4" rx="2.11" ry="1.71"/><ellipse class="cls-5" cx="884.73" cy="295.41" rx="1.24" ry="0.36"/><ellipse class="cls-5" cx="1001.1" cy="401.52" rx="1.23" ry="0.36"/><ellipse class="cls-5" cx="853.59" cy="241.49" rx="3.14" ry="2.54"/><ellipse class="cls-5" cx="1096.55" cy="299.61" rx="1.45" ry="1.17"/><ellipse class="cls-5" cx="1083.28" cy="335.89" rx="0.95" ry="0.28"/><ellipse class="cls-5" cx="932.37" cy="313.32" rx="2.5" ry="2.02"/><ellipse class="cls-5" cx="1121.74" cy="395.69" rx="4.09" ry="3.31"/><ellipse class="cls-5" cx="1123.79" cy="277.03" rx="2.04" ry="1.65"/><ellipse class="cls-5" cx="992.59" cy="447.89" rx="2.55" ry="2.78"/><ellipse class="cls-5" cx="967.34" cy="493.86" rx="2.07" ry="2.26"/><ellipse class="cls-5" cx="870.93" cy="349.77" rx="0.97" ry="1.06"/><ellipse class="cls-5" cx="941.03" cy="381.86" rx="3.55" ry="3.87"/><ellipse class="cls-5" cx="945.31" cy="358.74" rx="1.81" ry="1.98"/><ellipse class="cls-5" cx="1093.81" cy="465.92" rx="1.66" ry="1.8"/><ellipse class="cls-5" cx="1088.36" cy="524.11" rx="1.35" ry="1.47"/><ellipse class="cls-5" cx="994.09" cy="457.54" rx="0.81" ry="0.88"/><ellipse class="cls-5" cx="1052.56" cy="484.3" rx="2.96" ry="3.23"/><ellipse class="cls-5" cx="1056.13" cy="465.02" rx="1.51" ry="1.65"/><ellipse class="cls-5" cx="993.33" cy="531.2" rx="1.79" ry="1.95"/><ellipse class="cls-5" cx="964.86" cy="412.32" rx="0.96" ry="1.05"/><ellipse class="cls-5" cx="517.11" cy="223.07" rx="2.28" ry="1.85"/><ellipse class="cls-5" cx="515.76" cy="165.87" rx="2.28" ry="1.85"/><ellipse class="cls-5" cx="508.62" cy="213.4" rx="2.74" ry="2.22"/><ellipse class="cls-5" cx="517.16" cy="206.32" rx="2.55" ry="2.78"/><ellipse class="cls-5" cx="518.66" cy="215.97" rx="0.81" ry="0.88"/><ellipse class="cls-5" cx="489.43" cy="170.75" rx="0.96" ry="1.05"/><ellipse class="cls-5" cx="896.15" cy="412.62" rx="2.5" ry="2.02"/><ellipse class="cls-5" cx="904.82" cy="481.16" rx="3.55" ry="3.87"/><ellipse class="cls-5" cx="909.1" cy="458.03" rx="1.81" ry="1.98"/><ellipse class="cls-5" cx="928.65" cy="511.61" rx="0.96" ry="1.05"/><ellipse class="cls-5" cx="1076.77" cy="261.76" rx="2.29" ry="2.5"/><ellipse class="cls-5" cx="972.71" cy="180.93" rx="3.06" ry="3.34"/><ellipse class="cls-5" cx="915.04" cy="246.11" rx="2.12" ry="2.31"/><ellipse class="cls-5" cx="1082.78" cy="272.94" rx="1.11" ry="1.21"/><ellipse class="cls-5" cx="1019.44" cy="233.29" rx="4.57" ry="4.98"/><ellipse class="cls-5" cx="890.79" cy="236.97" rx="3.73" ry="4.07"/><ellipse class="cls-5" cx="1003.76" cy="289.42" rx="1.15" ry="1.25"/><ellipse class="cls-5" cx="1056.67" cy="309.72" rx="2.29" ry="2.5"/><ellipse class="cls-5" cx="1009.39" cy="317.77" rx="0.99" ry="1.08"/><ellipse class="cls-5" cx="854.8" cy="306.76" rx="1.24" ry="1.35"/><ellipse class="cls-5" cx="1062.68" cy="320.91" rx="1.11" ry="1.21"/><ellipse class="cls-5" cx="1061.58" cy="281.98" rx="0.75" ry="0.81"/><ellipse class="cls-5" cx="1024.53" cy="304.81" rx="1.48" ry="1.61"/><ellipse class="cls-5" cx="1208.75" cy="326.4" rx="2.43" ry="1.97"/><ellipse class="cls-5" cx="1241.96" cy="297.19" rx="1.45" ry="1.17"/><ellipse class="cls-5" cx="1228.69" cy="333.47" rx="0.95" ry="0.28"/><ellipse class="cls-5" cx="1202.08" cy="307.3" rx="2.29" ry="2.5"/><ellipse class="cls-5" cx="1208.09" cy="318.49" rx="1.11" ry="1.21"/><ellipse class="cls-5" cx="1169.94" cy="302.39" rx="1.48" ry="1.61"/><ellipse class="cls-5" cx="1031.08" cy="375.84" rx="5.07" ry="5.52"/><ellipse class="cls-5" cx="1008.83" cy="285.91" rx="0.99" ry="1.08"/><ellipse class="cls-5" cx="1232.79" cy="395.27" rx="2.53" ry="2.51" transform="translate(795.43 1613.76) rotate(-88.03)"/><ellipse class="cls-5" cx="1232.94" cy="311.65" rx="0.87" ry="0.95" transform="translate(870.75 1530.7) rotate(-87.64)"/><ellipse class="cls-5" cx="1243.38" cy="374.51" rx="0.91" ry="0.99" transform="translate(817.94 1601.4) rotate(-87.64)"/><ellipse class="cls-5" cx="1239.37" cy="328.67" rx="0.59" ry="0.64" transform="translate(859.91 1553.44) rotate(-87.64)"/><ellipse class="cls-5" cx="1240.78" cy="370.4" rx="0.78" ry="0.85" transform="translate(819.56 1594.86) rotate(-87.64)"/><ellipse class="cls-5" cx="708.28" cy="278.04" rx="2.43" ry="1.97"/><ellipse class="cls-5" cx="585.74" cy="275.3" rx="2.02" ry="1.63"/><ellipse class="cls-5" cx="722.34" cy="218.25" rx="1.18" ry="1.06"/><ellipse class="cls-5" cx="621.89" cy="226.28" rx="3.2" ry="3.19"/><ellipse class="cls-5" cx="677.94" cy="218.7" rx="3.62" ry="3.6"/><ellipse class="cls-5" cx="585.88" cy="199.82" rx="2.81" ry="2.8"/><ellipse class="cls-5" cx="677.36" cy="339.71" rx="2.67" ry="2.16"/><ellipse class="cls-5" cx="636.13" cy="356.66" rx="2.28" ry="1.85"/><ellipse class="cls-5" cx="674.34" cy="365.54" rx="2.98" ry="2.41"/><ellipse class="cls-5" cx="711.45" cy="361.84" rx="2.15" ry="1.74"/><ellipse class="cls-5" cx="646.04" cy="350.74" rx="1.23" ry="0.36"/><ellipse class="cls-5" cx="728.22" cy="285.11" rx="0.95" ry="0.28"/><ellipse class="cls-5" cx="577.3" cy="262.54" rx="2.5" ry="2.02"/><ellipse class="cls-5" cx="590.25" cy="307.96" rx="1.81" ry="1.98"/><ellipse class="cls-5" cx="609.8" cy="361.54" rx="0.96" ry="1.05"/><ellipse class="cls-5" cx="721.7" cy="210.98" rx="2.29" ry="2.5"/><ellipse class="cls-5" cx="792.05" cy="324.77" rx="3.06" ry="3.34"/><ellipse class="cls-5" cx="559.98" cy="214.43" rx="2.12" ry="2.31"/><ellipse class="cls-5" cx="727.72" cy="222.16" rx="1.11" ry="1.21"/><ellipse class="cls-5" cx="585.97" cy="331.08" rx="3.55" ry="3.87"/><ellipse class="cls-5" cx="664.38" cy="201.61" rx="4.57" ry="4.98"/><ellipse class="cls-5" cx="648.7" cy="238.64" rx="1.15" ry="1.25"/><ellipse class="cls-5" cx="701.61" cy="258.94" rx="2.29" ry="2.5"/><ellipse class="cls-5" cx="654.33" cy="266.99" rx="0.99" ry="1.08"/><ellipse class="cls-5" cx="707.62" cy="270.13" rx="1.11" ry="1.21"/><ellipse class="cls-5" cx="706.51" cy="231.2" rx="0.75" ry="0.81"/><ellipse class="cls-5" cx="669.47" cy="254.03" rx="1.48" ry="1.61"/><ellipse class="cls-5" cx="676.02" cy="325.06" rx="5.07" ry="5.52"/><ellipse class="cls-5" cx="653.77" cy="235.13" rx="0.99" ry="1.08"/><ellipse class="cls-5" cx="182.44" cy="164.81" rx="1.24" ry="0.36"/><ellipse class="cls-5" cx="298.81" cy="251.82" rx="1.23" ry="0.36"/><ellipse class="cls-5" cx="151.3" cy="110.89" rx="3.14" ry="2.54"/><ellipse class="cls-5" cx="394.26" cy="169.01" rx="1.45" ry="1.17"/><ellipse class="cls-5" cx="380.99" cy="205.29" rx="0.95" ry="0.28"/><circle class="cls-5" cx="230.76" cy="182.93" r="1.81"/><ellipse class="cls-5" cx="419.45" cy="245.98" rx="4.09" ry="3.31"/><ellipse class="cls-5" cx="421.5" cy="146.43" rx="2.04" ry="1.65"/><ellipse class="cls-5" cx="290.3" cy="298.18" rx="2.55" ry="2.78"/><ellipse class="cls-5" cx="281.9" cy="387.82" rx="2.07" ry="2.26"/><ellipse class="cls-5" cx="168.64" cy="219.17" rx="0.97" ry="1.06"/><ellipse class="cls-5" cx="238.74" cy="232.16" rx="3.55" ry="3.87"/><circle class="cls-5" cx="242.94" cy="209.11" r="1.9"/><ellipse class="cls-5" cx="391.52" cy="316.21" rx="1.66" ry="1.8"/><ellipse class="cls-5" cx="386.07" cy="374.41" rx="1.35" ry="1.47"/><ellipse class="cls-5" cx="291.8" cy="307.83" rx="0.81" ry="0.88"/><ellipse class="cls-5" cx="350.27" cy="334.6" rx="2.96" ry="3.23"/><ellipse class="cls-5" cx="353.84" cy="315.31" rx="1.51" ry="1.65"/><ellipse class="cls-5" cx="291.04" cy="381.5" rx="1.79" ry="1.95"/><ellipse class="cls-5" cx="262.57" cy="262.61" rx="0.96" ry="1.05"/><ellipse class="cls-5" cx="193.86" cy="262.92" rx="2.5" ry="2.02"/><ellipse class="cls-5" cx="202.53" cy="331.45" rx="3.55" ry="3.87"/><ellipse class="cls-5" cx="206.81" cy="308.33" rx="1.81" ry="1.98"/><ellipse class="cls-5" cx="226.35" cy="361.91" rx="0.96" ry="1.05"/><ellipse class="cls-5" cx="374.48" cy="131.16" rx="2.29" ry="2.5"/><circle class="cls-5" cx="270.13" cy="142.67" r="3.35"/><ellipse class="cls-5" cx="212.75" cy="115.51" rx="2.12" ry="2.31"/><ellipse class="cls-5" cx="380.49" cy="142.34" rx="1.11" ry="1.21"/><ellipse class="cls-5" cx="317.1" cy="103.05" rx="4.61" ry="4.62"/><ellipse class="cls-5" cx="188.49" cy="106.37" rx="3.73" ry="4.07"/><ellipse class="cls-5" cx="301.47" cy="158.82" rx="1.15" ry="1.25"/><ellipse class="cls-5" cx="354.38" cy="179.12" rx="2.29" ry="2.5"/><ellipse class="cls-5" cx="307.1" cy="187.17" rx="0.99" ry="1.08"/><ellipse class="cls-5" cx="152.51" cy="176.16" rx="1.24" ry="1.35"/><ellipse class="cls-5" cx="360.39" cy="190.31" rx="1.11" ry="1.21"/><ellipse class="cls-5" cx="359.29" cy="151.38" rx="0.75" ry="0.81"/><ellipse class="cls-5" cx="322.24" cy="174.21" rx="1.48" ry="1.61"/><ellipse class="cls-5" cx="329.36" cy="227.16" rx="4.5" ry="4.5"/><ellipse class="cls-5" cx="306.54" cy="155.31" rx="0.99" ry="1.08"/></g></g><ellipse class="cls-7" cx="274.7" cy="962.63" rx="6.6" ry="13.2" transform="translate(-559.74 409.62) rotate(-40.54)"/><ellipse class="cls-7" cx="302.46" cy="867.52" rx="6.6" ry="13.2" transform="translate(-226.83 116.57) rotate(-15.96)"/><ellipse class="cls-8" cx="331.6" cy="996.64" rx="6.6" ry="8.99" transform="translate(-693.9 1223.8) rotate(-84.09)"/><ellipse class="cls-7" cx="1146.19" cy="440.23" rx="9.99" ry="19.99" transform="translate(370.71 1392.16) rotate(-71.84)"/><ellipse class="cls-7" cx="1029.04" cy="533.92" rx="19.99" ry="9.99" transform="translate(-53.29 118.53) rotate(-6.43)"/><ellipse class="cls-8" cx="1226.59" cy="500.27" rx="9.99" ry="13.61" transform="translate(-90.58 641.21) rotate(-28.3)"/><rect class="cls-9" x="348.86" y="247.66" width="64.29" height="33.43" rx="7.29" transform="translate(818.2 419.03) rotate(164.72)"/><rect class="cls-9" x="381.15" y="276.36" width="17.91" height="46.56" transform="matrix(-0.96, 0.26, -0.26, -0.96, 845.38, 485.9)"/><path class="cls-10" d="M337.84,319.61H452.46a0,0,0,0,1,0,0V340.9A16.46,16.46,0,0,1,436,357.36H354.3a16.46,16.46,0,0,1-16.46-16.46V319.61a0,0,0,0,1,0,0Z" transform="translate(865.52 560.9) rotate(164.72)"/><path class="cls-11" d="M328.7,346.54H481.52a0,0,0,0,1,0,0v26.94A20.82,20.82,0,0,1,460.7,394.3H349.52a20.82,20.82,0,0,1-20.82-20.82V346.54A0,0,0,0,1,328.7,346.54Z" transform="translate(893.5 621.02) rotate(164.72)"/><path class="cls-12" d="M426.87,242.31c.39,5.79.46,16.11-2.67,25.3a7.57,7.57,0,0,1-7.73,5c-2.18-.16-5.18-.51-9.3-1.18-14.25-2.3-88.18-5.62-136.54,48.43L253.88,322s13-45.59,69.25-70.3a156,156,0,0,1,33.42-10.23c16.83-3.22,49.93-8.77,64.56-5.76A7.23,7.23,0,0,1,426.87,242.31Z"/><path class="cls-9" d="M270.63,319.89c-2.61-.52-12.71-3.91-14.58-3.73l-2.59,6.57Z"/><path class="cls-13" d="M420.78,267.37a3.46,3.46,0,0,0-2.49-4.73c-16.94-3.48-84.26-12-149.75,54.11,0,0,60.42-60.77,148.49-47.3a3.46,3.46,0,0,0,3.75-2.08Z"/><path class="cls-14" d="M360.25,381.24h199a23.46,23.46,0,0,1,23.46,23.46V719.83a53.62,53.62,0,0,1-53.62,53.62H390.41a53.62,53.62,0,0,1-53.62-53.62V404.7a23.46,23.46,0,0,1,23.46-23.46Z" transform="translate(1055.41 1013.15) rotate(164.72)"/><path class="cls-15" d="M365.57,391.71H554a22.21,22.21,0,0,1,22.21,22.21v298.3A50.75,50.75,0,0,1,525.42,763H394.11a50.75,50.75,0,0,1-50.75-50.75V413.92A22.21,22.21,0,0,1,365.57,391.71Z" transform="translate(1055.41 1013.15) rotate(164.72)"/><path class="cls-16" d="M382.08,391.55H538.6A18.45,18.45,0,0,1,557.05,410V720.66a42.17,42.17,0,0,1-42.17,42.17H405.8a42.17,42.17,0,0,1-42.17-42.17V410a18.45,18.45,0,0,1,18.45-18.45Z" transform="translate(1056.5 1012.69) rotate(164.72)"/><path class="cls-17" d="M539.89,428.86s-37.48-5.8-84.7,20.71-111.61,49.05-137.37,36.28L331,534.22S390.18,497,474.16,482.75s78-8.92,78-8.92Z"/><path class="cls-18" d="M525.4,428s-32.07-.32-74,23.91-96.51,40.57-122.06,37.65L341,528.41s53.24-33.22,127.77-45.28c71-11.5,70.2-10,70.2-10Z"/><path class="cls-19" d="M595.69,633.19s-50.47,28.18-115.6,43.5-109.5,16-109.5,16l18.27,65.66a31.5,31.5,0,0,0,11.3,16.89,26.06,26.06,0,0,0,18.76,5.21l177.67-48s14.57-4.52,17.36-20.7a31.41,31.41,0,0,0-.78-13.46Z"/><path class="cls-20" d="M579.1,642.67a454.33,454.33,0,0,1-96,33.81c-54.05,12.28-90.55,15.13-90.55,15.13L410.17,755a36,36,0,0,0,10.22,17.17c4,3.58,9.33,6.45,16,6l147.16-39.69s12.05-3.83,13.69-19.69c.45-4.39,2.38-10,1.19-14.36Z"/><path class="cls-21" d="M603.9,663.72s-30.06-15.4-111,28.24S378,719.85,378,719.85l10.87,39.8S393,783.86,420,782.84l177.37-48.45s20.06-7.15,17.73-29.75Z"/><path class="cls-22" d="M584.38,659.34s-20.93-3-89,31.11c-62.48,31.27-94,31.24-94,31.24l8.38,30.51s4.36,23.56,27.12,23.53l148.32-40.5s16.7-6.21,13.93-28.15Z"/><circle class="cls-23" cx="501.9" cy="459.71" r="10.15"/><circle class="cls-24" cx="566.39" cy="695.82" r="12.54"/><circle class="cls-24" cx="473.31" cy="744.75" r="10.15"/><circle class="cls-24" cx="536.54" cy="695.3" r="6.57"/><circle class="cls-24" cx="441.79" cy="733.56" r="6.57"/><circle class="cls-24" cx="547.86" cy="723.16" r="4.18"/><circle class="cls-23" cx="476.66" cy="457.94" r="7.76"/><circle class="cls-23" cx="364.95" cy="502.06" r="7.76"/><ellipse class="cls-25" cx="486.01" cy="401.54" rx="15.41" ry="27.11" transform="matrix(0.29, -0.96, 0.96, 0.29, -40.98, 747.56)"/><path class="cls-26" d="M257.91,337.94s-8.53,11.42-1.35,27.66,15.47,37.71,8.71,46-22.53,14.45-27.86-15.87S244.43,349.06,257.91,337.94Z"/><path class="cls-27" d="M256.9,340.13s-7.69,10.42-1.17,25.29,14.09,34.51,8,42.09-20.37,13.16-25.25-14.58S244.72,350.27,256.9,340.13Z"/><path class="cls-28" d="M255.78,341.52s-6.95,9.7-.93,23.61,13,32.3,7.49,39.34-18.47,12.19-23.07-13.74S244.75,350.93,255.78,341.52Z"/><path class="cls-29" d="M254.68,343s-6.6,9-1,22,12.18,30,7,36.57-17.5,11.39-21.75-12.71S244.22,351.76,254.68,343Z"/><path class="cls-30" d="M248.87,358s-2.69,6.26.78,16.08,7.6,22.73,5.44,27.25-7.83,7.38-11.25-10.56S244.3,363.88,248.87,358Z"/><path class="cls-31" d="M703.31,657.75v34.32a38.38,38.38,0,0,0,38.38,38.38h19.44a38.37,38.37,0,0,0,38.37-38.38V657.75a38.37,38.37,0,0,0-38.37-38.37H741.69A38.37,38.37,0,0,0,703.31,657.75Zm22.45-4.23A16.49,16.49,0,0,1,742.25,637h18.31a16.49,16.49,0,0,1,16.5,16.49V690a16.5,16.5,0,0,1-16.5,16.5H742.25A16.49,16.49,0,0,1,725.76,690Z"/><path class="cls-32" d="M483.61,507.62s0-46.36-24.22-72c-21.88-23.13-38.06-18-44.29-6.92s4.15,27,22.83,42.21c9.56,7.78,21.46,24.91,23.53,41.52Z"/><path class="cls-32" d="M463.54,512.47s-25.49-31.68-54.67-32.53c-23.65-.68-27.89,10.59-25.71,19.77S399,512.35,416.9,511.25c9.14-.57,24.27,2.79,33.77,10.81Z"/><path class="cls-32" d="M486.37,509.7s5.12-25.18,21.24-33.64c13.07-6.86,16.46-1.71,17.75,4s-7.15,12.3-14.37,15.7a32.54,32.54,0,0,0-14.58,15.31Z"/><path class="cls-10" d="M476,513.16h.08a.7.7,0,0,0,.61-.77c-4.82-44.75-40.73-72.85-41.09-73.13a.69.69,0,0,0-1,.13.7.7,0,0,0,.12,1c.36.27,35.81,28,40.57,72.18A.68.68,0,0,0,476,513.16Z"/><path class="cls-10" d="M466.78,520.9a.67.67,0,0,0,.49-.21.69.69,0,0,0,0-1c-27.71-27-66.91-26-67.3-26a.69.69,0,0,0-.67.71.68.68,0,0,0,.72.67c.39,0,39-1,66.28,25.58A.71.71,0,0,0,466.78,520.9Z"/><path class="cls-10" d="M489.12,508a.69.69,0,0,0,.58-.31,86.78,86.78,0,0,1,25.95-25.8.69.69,0,1,0-.74-1.17,88.14,88.14,0,0,0-26.37,26.21.69.69,0,0,0,.2,1A.65.65,0,0,0,489.12,508Z"/><path class="cls-33" d="M687.74,688.24C541,718,431,643.24,430.67,570.94c-.35-81.31,52.4-65.34,110.37-69.54,47.75-3.46,63.32-49.48,63.32-49.48,36-95.5,120.41-99.65,120.41-99.65C847.25,350.89,839,501.05,839,501.05S839.12,657.53,687.74,688.24Z"/><path class="cls-34" d="M762.58,656.26s3.36-28.92,2-40.68c-1.12-9.46-12.51-14.89-14.42-33.18a46.92,46.92,0,0,1,3.16-22.13c5.74-14.5,18-50.44,4.34-63-17.3-15.91-33.91,13.84-35.3,40.83s-16.6,56-33.21,47.75S718.88,482,718.88,482,732.72,448.11,712,435s-35.29,30.45-38.75,60.9C670,524.23,662,555,647.45,553.47a4.76,4.76,0,0,1-4.2-4c-.58-3.65.11-10.54,4.36-22.52,7.61-21.45-24.22-33.22-33.91-12.46a49.4,49.4,0,0,0-4,26.34c2.3,19.41-16.66,34.52-34.83,27.32-1.75-.7-3.59-1.51-5.5-2.45-24.54-12-25.84-35.55-24-49.78,1.26-9.82-5-14-14.83-12.8-3.56.44-7.67,1.76-12.76,2.38-11.36,1.38-19.21-2.77-25.2-2.77-24.22,0-47.05,9-54.67,27-12.53,29.62-18.47,82.52,53.74,130.87S708.71,701.1,762.58,656.26Z"/><circle class="cls-32" cx="434.82" cy="541.88" r="7.96"/><circle class="cls-32" cx="499.18" cy="453.3" r="3.11"/><circle class="cls-35" cx="755.56" cy="403.83" r="3.81"/><circle class="cls-35" cx="727.53" cy="403.48" r="3.81"/><circle class="cls-35" cx="703.31" cy="403.48" r="3.81"/><circle class="cls-36" cx="665.6" cy="351.93" r="4.84"/><circle class="cls-36" cx="844.48" cy="592.39" r="7.27"/><circle class="cls-37" cx="481.88" cy="673.36" r="3.46"/><circle class="cls-37" cx="457.66" cy="673.36" r="3.46"/><circle class="cls-37" cx="433.44" cy="673.36" r="3.46"/><path class="cls-32" d="M875.28,623.19s-9.69,15.22-38.06,27c-21.63,9-45,10.07-49.19,9.8-1-.06-2.71-.12-2.91-.11-5.61.33-28.18-3.47-45.48-11.08,0,0-27.68-13.15-34.6-24.91Z"/><ellipse class="cls-38" cx="790.33" cy="623.53" rx="84.94" ry="7.27"/><path class="cls-39" d="M839.29,506.24H826.53a64.86,64.86,0,0,0-23.08,4.11c-6.58,2.49-13.55,6.4-17.64,12.42-.28.43-.56.85-.86,1.27-1.42,2-6.55,9.84-6.55,18.18V561.6h13.14v-15a26,26,0,0,1,15.72-24l.89-.35s8-3.81,30.8-3.12Z"/><polygon class="cls-40" points="795.7 630.45 772.86 630.45 779.78 566.44 789.47 566.44 795.7 630.45"/><circle class="cls-41" cx="802.62" cy="596.2" r="2.77"/><circle class="cls-41" cx="770.09" cy="603.81" r="1.38"/><circle class="cls-41" cx="765.94" cy="615.58" r="3.46"/><circle class="cls-41" cx="804.69" cy="622.5" r="3.46"/><circle class="cls-41" cx="800.54" cy="628.72" r="1.38"/><polygon class="cls-42" points="774.94 568.52 789.76 568.52 795 568.52 795 561.6 774.94 561.6 774.94 568.52"/><rect class="cls-43" x="814.73" y="503.82" width="5.54" height="18.68" transform="translate(1634.99 1026.32) rotate(-180)"/><rect class="cls-32" x="773.21" y="671.97" width="29.76" height="8.3" transform="translate(1576.17 1352.25) rotate(-180)"/><path class="cls-44" d="M625.69,424.4s1.56,26.42-4.66,48.18S605.48,499,588.39,491.24c-11.76-5.35-19.11-18-22.55-25.45a44.67,44.67,0,0,1-2.6-7.64c-.43-1.66-1.54-1.71-4.39-2.66-7-2.33-9.54-35.46,4.71-32.55a8.8,8.8,0,0,1,6.78,7.65c.44,3.53.95,8.24.95,10.91,0,0,0,9.32,10.88-18.66,0,0,4.28-11.42,26.55-2.78a47.08,47.08,0,0,0,6.76,2.07Z"/><path class="cls-45" d="M580.2,429.79a18.3,18.3,0,0,1,16.27-8.91,42.56,42.56,0,0,1,12.9,2.74c17.1,6.22,20.21,1.56,26.42-12.43,4.37-9.83,12.63-14.43,23.67-14.08a33.14,33.14,0,0,1,17.72,6l.2.13a12.89,12.89,0,0,1,1.23,1c8.71,8.08,39.59,32.44,66,.76,31.09-37.31-7.77-88.6-54.4-80.83s-48.19,34.2-77.72,29.53h0s-14-3.1-23.32-10.88c-7.66-6.38-32.1-4.37-42.31,11.19a23.81,23.81,0,0,0-3.42,15.8c.42,3.6-.3,9-7.12,11.87h0s-23.31,14-12.43,45.08h0A38,38,0,0,1,527,446.94c-1.56,10.88-7.77,38.85,35.73,34.2l0,0c0-.66.73-16.45-1.55-24.83,0,0,0,0,0,0-.45,0-8.5.11-7.62-22.54h0s2.2-12.81,10.28-9.66a9.75,9.75,0,0,1,6,9.24c-.08,12.89,2.24,15.11,5.39,5.5C576.58,434.69,578.86,432,580.2,429.79Z"/><path class="cls-44" d="M588.39,488.13s-3.11,12.43-4.67,21.76-23.31,4.66-26.42-6.22,6.22-34.19,4.66-49.74Z"/><path class="cls-46" d="M587.22,491.46a.63.63,0,0,0-.32-.8c-3.38-1.63-21.22-11.35-24.85-30,0,0-1.59,19.61,24.18,31.91a.59.59,0,0,0,.82-.39Z"/><path class="cls-47" d="M584.29,507.28s29.06,22.83,41.52,56.05c9.24,24.63,25.6,78.89,26.3,130.1,0,0-134.25,6.92-188.92-56.75,0,0-10.38-53,31.49-106.5a82.35,82.35,0,0,1,60.82-31.83l1.8-.07S562.84,511.43,584.29,507.28Z"/><circle class="cls-48" cx="720.96" cy="601.74" r="2.77"/><g class="cls-49"><path class="cls-50" d="M594.5,675s1.35,5.54,30.36,1.23,58.23-73.62,58.23-73.62h0c2.6-5.78,8-17.87,7.94-19,0-1.54-7-8.83-9.57-13.73s-.54-11.44,4.22-5.35,6.58,3.58,6.58,3.58a82.59,82.59,0,0,1-2.16-14.5c-.12-6.19,2.8-15.17,5.42-7.54,3.13,9.12,3.67,12.92,3.67,12.92-.67-7.51,1.47-16,2.17-18.49a6.46,6.46,0,0,1,.66-1.5c3.2-5.25,5.28-4.36,6.44-2.78a5.69,5.69,0,0,1,1,3.87c-1,11.29.16,15,.16,15,1.86-10.9,5.36-17,7-19.4a4.42,4.42,0,0,1,2.92-1.91c4-.6,3.63,5.67,3.38,6.48s-5.16,19.92-3.59,21.44,8.87-20.31,12.1-14.18c2,3.77-1.08,13.75-3.72,20.86a32.81,32.81,0,0,0-1.81,15.3c1.52,12.71.31,34.39.31,34.39-8.42,75.4-41.71,97.73-41.71,97.73-79.65,36.17-118.86,27.91-118.86,27.91Z"/></g><path class="cls-51" d="M804.05,365.42l66.61,37.66-65.91,38.86Zm1.41,2.39.65,71.72L867.9,403.1Z"/><path class="cls-51" d="M415.94,581.38h39.11l-19.56,33.87Zm2.4,1.38,17.15,29.72,17.16-29.72Z"/><path class="cls-52" d="M629.27,606.93s-15.92-54.67-42.21-82.35,4.15,48.44-7.61,51.9-36.68-24.91-26.3-42.91-9-18-27.68,0S506.79,582,508.86,584.78s25,26.35,68.47,11.74A31.19,31.19,0,0,1,601.09,598a30,30,0,0,1,5.35,3.4C616.81,609.69,634.11,622.15,629.27,606.93Z"/><path class="cls-53" d="M678.06,548.45c3.92,8.42,9.68,10.38,3.46,13.84s-4.85,5.54,2.07,10.38,13.84,13.15,14.53,15.92,4.85,5.53,10.38,4.84,2.77-.69,2.77-.69,13.15,2.08,13.15-3.46-2.77-12.46,1.38-14.53,8.31-.69,10.38-3.46.7-8.31-2.07-13.15-.69-12.46,0-13.15,3.46-11.76-13.84-4.15c0,0-2.08,1.38-1.39-2.77,0,0-1.73-8.65-8-2.42s-9.69,0-15.23-2.08-6.23,8.31-8.3,9.69S675.63,543.26,678.06,548.45Z"/><circle class="cls-48" cx="741.37" cy="551.57" r="2.42"/><circle class="cls-48" cx="726.15" cy="527.35" r="2.42"/><circle class="cls-48" cx="670.1" cy="555.72" r="3.81"/><circle class="cls-48" cx="739.64" cy="582.36" r="2.77"/><path class="cls-44" d="M553.5,615.58s-1.39,5.53,26.29,15.22,85.81-38.06,85.81-38.06l0,0c5-3.91,15.36-12.12,15.89-13.17.69-1.38-2.08-11.07-2.08-16.61s4.84-10.38,6.23-2.76,4.15,6.22,4.15,6.22a83.36,83.36,0,0,1,4.84-13.84c2.77-5.53,11.77-13.14,8.31-4.15s-2.77,13.15-2.77,13.15c2.91-7,8.75-13.47,10.54-15.36a5.71,5.71,0,0,1,1.14-.94c5.38-3.27,6.83-1.49,7.13.46a5.72,5.72,0,0,1-.91,3.89c-6.19,9.5-6.83,13.33-6.83,13.33,6.75-8.82,12.72-12.58,15.28-13.91a4.36,4.36,0,0,1,3.39-.33c3.9,1.3.62,6.72,0,7.32s-13.84,15.23-13.15,17.3,17.3-13.84,17.3-6.92c0,4.27-7.35,11.68-13,16.74a32.8,32.8,0,0,0-8.72,12.7,153.8,153.8,0,0,1-12.19,23.85C666,682.35,624.21,688.84,615,694a6.12,6.12,0,0,1-3.35.75c-86-5.32-115.54-31.77-115.54-31.77Z"/><path class="cls-54" d="M562.26,607.2a72.45,72.45,0,0,0,6,11.54,5.26,5.26,0,0,1-1.77,7.56c-14.27,7.89-36.14,22.84-59.84,42.44.17,1.85-17.13-8.53-18.52-10.61s-28-49.47-9.34-99.3c11.49-30.63,38.41-10.78,57.44,9.06A130.66,130.66,0,0,1,562.26,607.2Z"/><path class="cls-10" d="M489.83,655a.67.67,0,0,0,.55-.27c20.41-26.53,69.8-46.64,70.3-46.84a.69.69,0,1,0-.52-1.28c-.5.2-50.24,20.45-70.87,47.28a.69.69,0,0,0,.12,1A.75.75,0,0,0,489.83,655Z"/><path class="cls-10" d="M486.37,648.1a.67.67,0,0,0,.55-.27c20.41-26.53,69.8-46.64,70.3-46.84a.69.69,0,1,0-.52-1.28c-.5.2-50.24,20.45-70.87,47.28a.69.69,0,0,0,.12,1A.75.75,0,0,0,486.37,648.1Z"/><circle class="cls-55" cx="471.39" cy="708.02" r="154.01"/><path class="cls-56" d="M508.29,629.27a47.08,47.08,0,0,0-3.09-27.37c-4.53-10.2-13.75-20.71-32.52-22-37.53-2.58-63.81-3.23-69.88,32.36-9.06,53.06,63.06,118.23,88,111.3,23.3-6.47,1.3-24.59,5.18-34.94C499,680.57,505.52,644.85,508.29,629.27Z"/><path class="cls-57" d="M494.55,636.19c0,1.3-6.74,10.36-14.82,12.94s-16.17-2.58-17.52-3.88-14.83-7.76-25.61,0-20.21,3.88-20.21,3.88S433.23,687.31,446,688c10.76.55,18.86,1.3,29.65-5.18s20.21-20.7,20.21-20.7-7.41-11,2-21.36Z"/><path class="cls-58" d="M445.36,645.9s0,28.47,6.74,38.83C452.1,684.73,441.32,679.55,445.36,645.9Z"/><path class="cls-59" d="M434.51,612.9a57.13,57.13,0,0,0,23.29,12.94c14.24,3.88,16.83-1.3,27.18,7.76,0,0-1.22-9.06-12.94-9.06C459.1,624.54,450,623.25,434.51,612.9Z"/><path class="cls-59" d="M487.38,679.38a25.05,25.05,0,0,0,.67,12.35,4.67,4.67,0,0,1-4.22,5.93,113.08,113.08,0,0,1-26-1.44,6.79,6.79,0,0,1-4.07-2.32c-1.24-1.49-1.14-.76-3.72-3.35,0,0,9.06,6.47,27.17-3.88,4.65-2.66,6.48-6.47,7.73-8.77C485.61,676.66,487.67,678,487.38,679.38Z"/><path class="cls-60" d="M496,700.51s30.41,9.56,46.46,50a70.3,70.3,0,0,0,12.71,20.66c14.44,16.32,37.25,51.74-11.28,74.07-63.1,29-131.13,17.44-169.27-15.55-1.62-1.4-3.25-2.78-4.91-4.11-7.48-6-32.31-29.09-21.25-64.46,12.94-41.42,76.36-77.66,86.71-71.19,9.52,6,23.42,29.41,50.74,20.07A16.84,16.84,0,0,0,496,700.51Z"/><path class="cls-61" d="M528.34,740.38s3.88,9.06,2.59,23.29,1.29,16.83,6.47,22S562,805.09,552.93,818s-11.65,15.53-11.65,24.59c0,0,2.59-14.23,14.24-22s-1.3-23.3-11.65-34.94-7.77-24.59-7.77-27.18S537.4,753.32,528.34,740.38Z"/><path class="cls-61" d="M421.56,768.2c0,2.59,7.77,16.83,2.59,36.24,0,0,5.18-9.06,15.53-9.06,0,0-18.12,2.59-16.82,27.18s3.93,33.78,3.93,33.78l-15.33-5s-.9-23,6.87-45S421.56,768.2,421.56,768.2Z"/><path class="cls-62" d="M421.56,601.25S435.8,618.07,463,620.66s41.41,19.42,32.35,45.3c0,0-16.82,20.71,2.59,36.24,0,0,31.06,16.82,42.71,58.24,0,0,0,16.82,6.47,25.88S565.22,807,566.52,814.8s0,11.64,0,11.64,22-10.35,29.76-44c0,0,1.3-18.12-1.29-28.47,0,0,9.06,9.06,6.47,36.24,0,0,16.83-32.36,12.94-60.83s-34.94-46.6-38.82-53.07S557.46,659.49,551,624.54,536.75,587,522.51,575.36s-27.18-37.53-27.18-37.53-5.17-15.53-38.82-7.76-51.77,19.41-56.95,32.35-1.29,22-1.29,22-19.42,31.06-12.95,66a20.35,20.35,0,0,1-3.88,19.41C373.68,678.9,327.08,720.32,331,754s23.29,54.35,23.29,54.35S356,754,389.51,724.14a127.75,127.75,0,0,0,10.8-10.78c7.32-8.31,20.68-21.77,29.67-20.87a73.8,73.8,0,0,0,30.59,28,60.82,60.82,0,0,1,20.56,16c10,12.29,19,32.35,1.91,55.69,0,0,42.71-32.36-6.47-73.77,0,0-39.78-28.48-50.95-53.07,0,0-13.76-14.23-9.88-58.24C415.74,607.07,415.74,594.13,421.56,601.25Z"/><path class="cls-63" d="M550.34,633s0,32.35,44,64.71C594.34,697.67,550.34,677,550.34,633Z"/><path class="cls-63" d="M414.44,648.49s5.18,41.41,47.89,68.59C462.33,717.08,415.74,699,414.44,648.49Z"/><path class="cls-63" d="M413,579a2.9,2.9,0,0,1,5.42-1c5.81,10.5,18.52,27.67,41.33,32.94,33.65,7.76,50.48,16.82,44,47.88,0,0,7.28-35.22-37-41a71.47,71.47,0,0,1-14.17-3.21c-9.1-3.16-22.44-9.41-30.4-20.55,0,0-3.93-4.91-8.36-7a2.92,2.92,0,0,1-1.64-3.06Z"/><path class="cls-63" d="M378.21,677s-40.12,40.12-37.54,76.36c1.39,19.43,4.6,28.23,6.8,32.09a1.62,1.62,0,0,0,3-.45c2.18-9.37,9.78-36.48,27.77-52.35,0,0-22.25,35.12-24.42,61.94a2.44,2.44,0,0,1-4,1.75c-3.66-3-9.1-9.76-12.19-24.06a80.81,80.81,0,0,1,13.49-63.81A251.22,251.22,0,0,1,378.21,677Z"/><line class="cls-64" x1="557.25" y1="818.63" x2="817.6" y2="817.39"/><polyline class="cls-65" points="571.74 796.21 541.2 819.2 571.81 840.18"/><polyline class="cls-65" points="808.76 795.83 839.39 818.71 808.84 839.79"/><path class="cls-11" d="M569.74,766.09v-9.91l12.66-12.3c30.47-29,44.23-44.4,44.41-62.39,0-12.11-5.87-23.3-23.67-23.3-10.83,0-19.82,5.5-25.33,10.09l-5.13-11.38a52.35,52.35,0,0,1,33.76-12.11c25.69,0,36.52,17.62,36.52,34.68,0,22-16,39.82-41.1,64l-9.55,8.81v.36H645.9v13.4Z"/><path class="cls-11" d="M687.35,701.31c0-9.17-.18-16.7-.73-24h14.13l.73,14.32H702c5-8.45,13.22-16.34,27.9-16.34,12.11,0,21.28,7.34,25.14,17.8h.37a36.55,36.55,0,0,1,9.9-11.56c5.33-4,11.2-6.24,19.64-6.24,11.74,0,29.18,7.71,29.18,38.54v52.3H798.38V715.81c0-17.07-6.24-27.34-19.27-27.34-9.18,0-16.33,6.79-19.09,14.68a26.66,26.66,0,0,0-1.28,8.07v54.87H743V712.87c0-14.13-6.24-24.4-18.54-24.4-10.09,0-17.43,8.07-20,16.14a22.22,22.22,0,0,0-1.28,7.89v53.59H687.35Z"/></g></g></svg>