<svg xmlns="http://www.w3.org/2000/svg" viewBox="0 0 2828.56 1041.75"><defs><style>.cls-1{isolation:isolate;}.cls-2{fill:#fbeede;}.cls-3{fill:#fdc2c4;}.cls-4{mix-blend-mode:multiply;}.cls-5,.cls-6,.cls-7{fill:none;stroke:#fdc2c4;stroke-linecap:round;stroke-miterlimit:10;stroke-width:2px;}.cls-6{stroke-dasharray:4 12 7 4;}.cls-7{stroke-dasharray:12 7 4 12 7 4;}.cls-8{fill:#fff;mix-blend-mode:overlay;}</style></defs><title>fondo-pais</title><g class="cls-1"><g id="Fondos"><path class="cls-2" d="M2579.87,851a7,7,0,0,1,9.79,1.82,7.12,7.12,0,0,1,1.2,3.28l.09-.5c16.16.88,23.1-1.7,26.07-4.14a59.6,59.6,0,0,1,1-6.17c-.37-1.24-2.2-3.66-10.5-5.43l.05-.33a4.59,4.59,0,1,1,.43-1.93c1,.32,7.84,2.39,11.8,1.2a57.53,57.53,0,0,1,7.39-14.56c.66-2,.82-8.26-15.31-19.59l.07-.12a9.43,9.43,0,1,1,3.19-3.31c3.06,2.55,14.93,12,22.87,11.38a57.43,57.43,0,0,1,29-12.52c1.82-1.44,4.37-5.65,4.1-18l.53,0a7.46,7.46,0,1,1,3.17,0c-.12,1.57-.75,11.67,1.87,17.67a57.51,57.51,0,0,1,30,9.74,30.24,30.24,0,0,0,4.81-7l.32.15a4.88,4.88,0,0,1-1.37-2,4.94,4.94,0,1,1,3.23,3,37.46,37.46,0,0,0-4,7.91,57.91,57.91,0,0,1,11.6,11.9c2.33-.15,7.27-1.8,16.44-10a8.9,8.9,0,0,1-.28-2.24,7,7,0,1,1,7,7,8.15,8.15,0,0,1-4.56-1.44c-2.3,1.76-11.84,9.34-13.32,15.55a57.43,57.43,0,0,1,5.71,23.7c1.18,1.18,4.94,3.51,15.82,2.45a5.67,5.67,0,0,1,1.18-1.88,5.52,5.52,0,1,1-1.41,4.85c-2.71-.11-13.22-.27-16.08,3.66a57.74,57.74,0,0,1-24.46,39.86c-.24,2.64.17,10.6,11.13,21l-.32.35a6.39,6.39,0,0,1,3.11-.88,6.53,6.53,0,1,1-5.18,2.78c-1.25-1.49-12.95-15.32-19.59-17.31a58,58,0,0,1-34.88,2.85c-2.59.45-7.37,2.71-10.27,12.76a5.41,5.41,0,0,1,1.17,1.93,5.49,5.49,0,1,1-3.71-3.49c1.1-2.36,5-11.45,1.35-15.14A57.86,57.86,0,0,1,2634,898.5c-3.53.19-9.08,2.77-17.55,11.59l-.38-.28a6.55,6.55,0,1,1-2.12-1.8c1.26-1,10.56-8.85,13.79-16.78a57.85,57.85,0,0,1-5.57-9.43,72.83,72.83,0,0,0-8.37,3.06l-.24-.41a6.43,6.43,0,0,1,0,3.23,6.53,6.53,0,1,1-4.7-7.94,6.44,6.44,0,0,1,3.45,2.23,69.81,69.81,0,0,0,8.55-3.22,57.64,57.64,0,0,1-3.84-15.89c-6.63-5.83-24.36-4-26.48-3.8a7,7,0,1,1-10.64-8.07Z"/><path class="cls-2" d="M2709.31,855.56c0-25.69-14.12-47.3-37.82-53.62.89-.05,1.78-.07,2.68-.07A55.51,55.51,0,1,1,2659.84,911C2689.25,909.6,2709.31,885.32,2709.31,855.56Z"/><path class="cls-2" d="M2670.08,827.92c-3.6,6.33,0,15.16,8,19.73s17.46,3.13,21.06-3.19.72-16.42-7.32-21S2673.68,821.59,2670.08,827.92Z"/><path class="cls-2" d="M2634.51,831.17c.65,3.25,4.52,5.22,8.65,4.4s6.94-4.13,6.29-7.38-4.65-5.86-8.77-5S2633.86,827.93,2634.51,831.17Z"/><path class="cls-2" d="M2637.66,887.1c.37,1.87,2.6,3,5,2.53s4-2.38,3.62-4.24-2.68-3.37-5.05-2.9A4.27,4.27,0,0,0,2637.66,887.1Z"/><path class="cls-2" d="M2656,850.34c-1.18-1.5-3.68-1.5-5.58,0s-2.48,3.92-1.31,5.42,3.91,1.8,5.81.3S2657.21,851.83,2656,850.34Z"/><path class="cls-2" d="M2676.44,896c.39,1.87,2.63,3,5,2.48s4-2.41,3.57-4.28-2.7-3.34-5.07-2.84S2676.05,894.14,2676.44,896Z"/><path class="cls-2" d="M2657.44,814.63c-1.24,1.45-.76,3.9,1.07,5.47s4.32,1.69,5.57.24,1-4.18-.83-5.75S2658.68,813.19,2657.44,814.63Z"/><path class="cls-2" d="M2700.28,856.59c-1.24,1.45-.76,3.89,1.07,5.47s4.33,1.69,5.57.24,1-4.18-.82-5.76S2701.52,855.15,2700.28,856.59Z"/><circle class="cls-2" cx="2671.06" cy="871.05" r="8.66"/><circle class="cls-2" cx="2697.49" cy="882.4" r="6.12"/><circle class="cls-2" cx="2660.8" cy="897.06" r="6.12"/><circle class="cls-2" cx="2637.6" cy="866.83" r="6.12"/><path class="cls-2" d="M1943.75,219.72a4.32,4.32,0,0,1,6.75,3.13l.06-.3c9.93.54,14.19-1.05,16-2.55a34,34,0,0,1,.6-3.79c-.23-.76-1.36-2.25-6.46-3.33l0-.2a2.82,2.82,0,1,1,.27-1.19c.61.19,4.82,1.46,7.25.74a35.41,35.41,0,0,1,4.54-8.95c.4-1.23.5-5.07-9.41-12l0-.07a5.74,5.74,0,0,1-3.68.86,5.82,5.82,0,1,1,6.38-5.18,5.68,5.68,0,0,1-.74,2.28c1.89,1.57,9.18,7.35,14.06,7a35.26,35.26,0,0,1,17.82-7.68c1.12-.89,2.68-3.48,2.52-11.08l.33,0a4.53,4.53,0,1,1,4.37-1.5,4.46,4.46,0,0,1-2.43,1.47c-.07,1-.46,7.17,1.15,10.86a35.29,35.29,0,0,1,18.43,6,18.64,18.64,0,0,0,2.95-4.27l.2.09a2.94,2.94,0,0,1-.84-1.24,3,3,0,1,1,3.88,1.81,3.1,3.1,0,0,1-1.9.06,22.93,22.93,0,0,0-2.48,4.85,35.85,35.85,0,0,1,7.13,7.32c1.43-.1,4.47-1.11,10.1-6.14a5.21,5.21,0,0,1-.17-1.38,4.29,4.29,0,1,1,4.31,4.28,5,5,0,0,1-2.8-.89c-1.42,1.08-7.28,5.74-8.18,9.56a35.34,35.34,0,0,1,3.5,14.56c.73.73,3,2.16,9.73,1.51a3.31,3.31,0,0,1,.72-1.16,3.38,3.38,0,1,1-.87,3c-1.66-.07-8.12-.16-9.88,2.25a35.43,35.43,0,0,1-15,24.49c-.14,1.62.11,6.51,6.84,12.88l-.2.21a4.15,4.15,0,0,1,1.91-.54,4,4,0,1,1-3.18,1.71c-.77-.91-8-9.41-12-10.64a35.37,35.37,0,0,1-13.48,2.65,35.87,35.87,0,0,1-8-.89c-1.6.28-4.53,1.66-6.31,7.84a3.17,3.17,0,0,1,.71,1.19,3.37,3.37,0,1,1-4.29-2.09,3.3,3.3,0,0,1,2-.06c.68-1.45,3.06-7,.84-9.3a35.39,35.39,0,0,1-9.89-6.88c-2.17.12-5.58,1.7-10.78,7.12l-.24-.17a4,4,0,1,1-1.3-1.11c.77-.63,6.49-5.43,8.47-10.31a35.68,35.68,0,0,1-3.42-5.79,44.41,44.41,0,0,0-5.14,1.88l-.15-.25a4,4,0,1,1-.77-1.53,43.31,43.31,0,0,0,5.25-2,35.36,35.36,0,0,1-2.36-9.77c-4.07-3.58-15-2.48-16.27-2.33a4.33,4.33,0,1,1-6.54-5Z"/><path class="cls-2" d="M2023.28,222.53c0-15.79-8.67-29.07-23.24-32.95.55,0,1.1,0,1.65,0a34.11,34.11,0,1,1-8.8,67C2011,255.73,2023.28,240.81,2023.28,222.53Z"/><path class="cls-2" d="M1999.18,205.55c-2.21,3.89,0,9.31,4.94,12.12s10.72,1.92,12.93-2,.44-10.09-4.49-12.9S2001.39,201.66,1999.18,205.55Z"/><path class="cls-2" d="M1977.33,207.55c.4,2,2.77,3.2,5.31,2.69s4.26-2.53,3.86-4.53-2.85-3.6-5.39-3.09S1976.93,205.55,1977.33,207.55Z"/><path class="cls-2" d="M1979.26,241.91a2.77,2.77,0,0,0,5.28-1.06,2.72,2.72,0,0,0-5.28,1.06Z"/><path class="cls-2" d="M1990.55,219.32a2.77,2.77,0,0,0-4.23,3.32,2.71,2.71,0,0,0,4.23-3.32Z"/><path class="cls-2" d="M2003.09,247.38a2.76,2.76,0,0,0,5.26-1.11,2.71,2.71,0,0,0-5.26,1.11Z"/><path class="cls-2" d="M1991.41,197.38a2.77,2.77,0,0,0,4.08,3.51,2.71,2.71,0,0,0-4.08-3.51Z"/><path class="cls-2" d="M2017.74,223.16a2.76,2.76,0,0,0,4.07,3.51,2.71,2.71,0,0,0-4.07-3.51Z"/><circle class="cls-2" cx="1999.78" cy="232.05" r="5.32"/><circle class="cls-2" cx="2016.02" cy="239.02" r="3.76"/><circle class="cls-2" cx="1993.48" cy="248.03" r="3.76"/><circle class="cls-2" cx="1979.23" cy="229.46" r="3.76"/><path class="cls-2" d="M9.28,621C9.28,504.34,78.46,398,186.14,353a210.61,210.61,0,0,0,26.34-13.29C413.14,220.45,738.26,48.81,889.39,301.91s-76.3,274.79-71.12,434.93c5.08,157.1-50.8,253.11-156.21,257.47-84.55,3.5-144.59-27.62-205,6.46-44.06,24.84-93.48,38.64-144.06,38.64H297.14c-159,0-287.86-128.88-287.86-287.86Z"/><ellipse class="cls-3" cx="2156.58" cy="757.27" rx="10.84" ry="5.42" transform="translate(320.06 2117.97) rotate(-55.88)"/><ellipse class="cls-3" cx="2167.42" cy="786.18" rx="7.48" ry="3.74" transform="translate(300.89 2139.63) rotate(-55.88)"/><ellipse class="cls-3" cx="1555.7" cy="482.59" rx="10.84" ry="5.42" transform="translate(29.56 1051.79) rotate(-37.69)"/><ellipse class="cls-3" cx="1554.42" cy="451.75" rx="7.48" ry="3.74" transform="translate(48.15 1044.58) rotate(-37.69)"/><ellipse class="cls-3" cx="2318.7" cy="47.2" rx="5.42" ry="10.84" transform="matrix(0.61, -0.79, 0.79, 0.61, 863.78, 1853.24)"/><ellipse class="cls-3" cx="2317.42" cy="78.04" rx="3.74" ry="7.48" transform="translate(838.88 1864.22) rotate(-52.31)"/><ellipse class="cls-3" cx="816.6" cy="672.7" rx="13" ry="6.5" transform="translate(-225.39 856.05) rotate(-49.46)"/><ellipse class="cls-3" cx="789.26" cy="579.03" rx="13" ry="6.5" transform="translate(15.57 1178.71) rotate(-74.04)"/><ellipse class="cls-3" cx="760.57" cy="706.19" rx="8.85" ry="6.5" transform="translate(-68.71 82.11) rotate(-5.91)"/><ellipse class="cls-3" cx="205.05" cy="161.37" rx="12.25" ry="6.12" transform="translate(-40.07 71.93) rotate(-18.16)"/><ellipse class="cls-3" cx="276.85" cy="218.79" rx="6.12" ry="12.25" transform="translate(28.45 469.41) rotate(-83.57)"/><ellipse class="cls-3" cx="155.77" cy="198.17" rx="8.34" ry="6.12" transform="translate(-92.56 241.39) rotate(-61.7)"/><ellipse class="cls-3" cx="985.72" cy="169" rx="5.05" ry="6.88" transform="translate(746.78 1140.14) rotate(-85.91)"/><ellipse class="cls-3" cx="953.72" cy="210" rx="8.15" ry="11.1" transform="translate(84.5 655.12) rotate(-39.53)"/><g class="cls-4"><path class="cls-5" d="M1984.28,185.79s-.93-1.91-2.77-5.32"/><path class="cls-6" d="M1978.11,174.36c-3.17-5.54-7.56-12.83-13.15-21.24"/><path class="cls-7" d="M1963.84,151.45c-51.55-76.67-199.75-240.17-434.67-43-329.89,276.82-478.46,121.19-534.94,32.12a172.75,172.75,0,0,1-10.05-18.29C969.45,91.15,906.3-26.57,830.92,60.61a165.31,165.31,0,0,0-27.06,43.94c-31.23,73.92-241.15,402.06-675,247.58"/><path class="cls-5" d="M126.92,351.45l-5.64-2"/></g><circle class="cls-2" cx="90.28" cy="328.41" r="34"/><circle class="cls-2" cx="936.78" cy="846.91" r="32.5"/><path class="cls-2" d="M338,97.77a4.15,4.15,0,0,1,6.47,3l0-.29c9.52.52,13.6-1,15.35-2.44a36.1,36.1,0,0,1,.57-3.63c-.21-.73-1.29-2.16-6.18-3.2l0-.19a2.65,2.65,0,0,1-.85,1,2.71,2.71,0,1,1,.58-3.79,2.73,2.73,0,0,1,.52,1.61c.59.19,4.62,1.41,6.95.71A33.74,33.74,0,0,1,365.85,82c.39-1.18.48-4.87-9-11.54l0-.07a5.52,5.52,0,1,1,1.88-2c1.8,1.51,8.79,7,13.46,6.7a33.82,33.82,0,0,1,17.08-7.37c1.07-.84,2.57-3.33,2.41-10.61l.32,0a4.46,4.46,0,0,1-1.94-.95,4.34,4.34,0,1,1,6.13-.49,4.29,4.29,0,0,1-2.33,1.41c-.07.93-.44,6.87,1.1,10.4a33.83,33.83,0,0,1,17.66,5.74,18.05,18.05,0,0,0,2.83-4.1l.19.09a2.93,2.93,0,1,1,1.09.6,22.75,22.75,0,0,0-2.38,4.66,33.93,33.93,0,0,1,6.84,7c1.36-.09,4.28-1.06,9.67-5.89a5.16,5.16,0,0,1-.16-1.31,4.12,4.12,0,1,1,4.13,4.09,4.7,4.7,0,0,1-2.68-.85c-1.36,1-7,5.5-7.84,9.16a34,34,0,0,1,3.36,14c.69.69,2.91,2.06,9.31,1.44a3.33,3.33,0,0,1,.69-1.11,3.24,3.24,0,1,1-.83,2.85c-1.59-.06-7.78-.15-9.46,2.16A34,34,0,0,1,413,129.5c-.14,1.55.1,6.23,6.55,12.34l-.19.2a3.89,3.89,0,0,1,1.83-.52,3.84,3.84,0,1,1-3.05,1.64c-.73-.88-7.62-9-11.53-10.19a34.12,34.12,0,0,1-20.53,1.68c-1.53.26-4.34,1.59-6,7.51a3.14,3.14,0,0,1,.69,1.14,3.24,3.24,0,1,1-4.12-2,3.19,3.19,0,0,1,1.93-.06c.65-1.39,2.94-6.74.8-8.91a34.23,34.23,0,0,1-9.48-6.59c-2.07.11-5.34,1.63-10.33,6.82l-.22-.16a3.77,3.77,0,0,1,.74,1.75,3.84,3.84,0,1,1-4.37-3.23,3.8,3.8,0,0,1,2.38.42c.74-.61,6.22-5.21,8.12-9.88a34.31,34.31,0,0,1-3.28-5.55,41.89,41.89,0,0,0-4.93,1.8l-.14-.24a3.71,3.71,0,0,1,0,1.9,3.88,3.88,0,1,1-.74-3.36,41.71,41.71,0,0,0,5-1.9,33.86,33.86,0,0,1-2.27-9.35c-3.9-3.43-14.33-2.38-15.58-2.24A4.14,4.14,0,1,1,338,97.77Z"/><path class="cls-2" d="M414.22,100.46c0-15.13-8.32-27.85-22.27-31.57.52,0,1.05,0,1.58,0a32.68,32.68,0,1,1-8.44,64.25C402.4,132.27,414.22,118,414.22,100.46Z"/><path class="cls-2" d="M391.12,84.19c-2.12,3.73,0,8.93,4.73,11.61s10.28,1.85,12.4-1.88.42-9.66-4.31-12.35S393.24,80.46,391.12,84.19Z"/><path class="cls-2" d="M370.18,86.1c.38,1.92,2.66,3.07,5.09,2.59s4.09-2.43,3.7-4.34-2.73-3.46-5.16-3S369.8,84.19,370.18,86.1Z"/><path class="cls-2" d="M372,119a2.65,2.65,0,0,0,5.06-1,2.6,2.6,0,0,0-5.06,1Z"/><path class="cls-2" d="M382.85,97.38a2.65,2.65,0,0,0-4.05,3.19,2.6,2.6,0,0,0,4.05-3.19Z"/><path class="cls-2" d="M394.87,124.27a2.65,2.65,0,0,0,5-1.06,2.6,2.6,0,0,0-5,1.06Z"/><path class="cls-2" d="M383.68,76.37a2.65,2.65,0,0,0,3.9,3.36,2.6,2.6,0,0,0-3.9-3.36Z"/><path class="cls-2" d="M408.9,101.07a2.65,2.65,0,0,0,3.91,3.36,2.6,2.6,0,0,0-3.91-3.36Z"/><circle class="cls-2" cx="391.7" cy="109.58" r="5.1"/><circle class="cls-2" cx="407.26" cy="116.26" r="3.61"/><circle class="cls-2" cx="385.66" cy="124.89" r="3.61"/><circle class="cls-2" cx="372" cy="107.1" r="3.61"/><g id="Stars"><ellipse class="cls-8" cx="318.14" cy="634.04" rx="3.84" ry="4.33"/><ellipse class="cls-8" cx="1400.04" cy="473.64" rx="3.42" ry="3.46"/><ellipse class="cls-8" cx="1227.58" cy="478.45" rx="2.84" ry="2.87"/><ellipse class="cls-8" cx="745.4" cy="604.59" rx="3.48" ry="3.51"/><ellipse class="cls-8" cx="478.52" cy="482.87" rx="3.74" ry="4.22"/><ellipse class="cls-8" cx="67.6" cy="594.57" rx="4.03" ry="4.07"/><ellipse class="cls-8" cx="1419.84" cy="612.23" rx="1.67" ry="1.86"/><ellipse class="cls-8" cx="1278.46" cy="564.56" rx="4.51" ry="5.6"/><ellipse class="cls-8" cx="1366.66" cy="808.39" rx="2.7" ry="2.73"/><ellipse class="cls-8" cx="1148.44" cy="390.37" rx="2.72" ry="2.74"/><ellipse class="cls-8" cx="957.15" cy="915.16" rx="3.11" ry="3.14"/><ellipse class="cls-8" cx="165.11" cy="416.71" rx="4.22" ry="4.26"/><ellipse class="cls-8" cx="16.92" cy="301.32" rx="4.65" ry="4.7"/><ellipse class="cls-8" cx="110.67" cy="194.18" rx="3.91" ry="3.95"/><ellipse class="cls-8" cx="891.89" cy="612.04" rx="3" ry="3.03"/><ellipse class="cls-8" cx="635.41" cy="510.83" rx="4.41" ry="4.46"/><ellipse class="cls-8" cx="335.83" cy="266.71" rx="5.93" ry="5.99"/><ellipse class="cls-8" cx="1747.47" cy="498.9" rx="5.29" ry="6.58"/><ellipse class="cls-8" cx="1622.66" cy="655.75" rx="5.16" ry="6.42"/><ellipse class="cls-8" cx="848.44" cy="441.63" rx="3.67" ry="3.71"/><ellipse class="cls-8" cx="417.04" cy="355.73" rx="4.65" ry="4.69"/><ellipse class="cls-8" cx="224.79" cy="201.6" rx="2.77" ry="2.79"/><ellipse class="cls-8" cx="15.48" cy="595.28" rx="3.61" ry="3.65"/><ellipse class="cls-8" cx="2306.85" cy="565.33" rx="3.69" ry="3.73"/><ellipse class="cls-8" cx="1452.03" cy="647.62" rx="2.57" ry="2.86"/><ellipse class="cls-8" cx="1357.34" cy="611.45" rx="5.1" ry="6.33"/><ellipse class="cls-8" cx="1227.78" cy="644.6" rx="3.96" ry="4.92"/><ellipse class="cls-8" cx="694.26" cy="354.35" rx="4.05" ry="5.07"/><ellipse class="cls-8" cx="219.53" cy="568.76" rx="2.63" ry="2.66"/><ellipse class="cls-8" cx="413.55" cy="552.3" rx="3.49" ry="3.93"/><ellipse class="cls-8" cx="530.81" cy="376.96" rx="3.57" ry="4.03"/><ellipse class="cls-8" cx="130.31" cy="713.39" rx="3.84" ry="4.33"/><ellipse class="cls-8" cx="290.69" cy="595.78" rx="3.74" ry="4.22"/><ellipse class="cls-8" cx="225.72" cy="665.21" rx="3.49" ry="3.93"/><ellipse class="cls-8" cx="527.24" cy="628" rx="3.57" ry="4.03"/><ellipse class="cls-8" cx="90.49" cy="487.56" rx="3.84" ry="4.33"/><ellipse class="cls-8" cx="250.87" cy="336.4" rx="3.74" ry="4.22"/><ellipse class="cls-8" cx="185.9" cy="405.83" rx="3.49" ry="3.93"/><ellipse class="cls-8" cx="303.16" cy="230.49" rx="3.57" ry="4.03"/><ellipse class="cls-8" cx="1379.34" cy="947.89" rx="4.17" ry="4.64"/><ellipse class="cls-8" cx="1055.18" cy="401.26" rx="5.18" ry="5.23"/><ellipse class="cls-8" cx="745.4" cy="445.32" rx="5.91" ry="7.4"/><ellipse class="cls-8" cx="417.2" cy="59.24" rx="5.91" ry="7.4"/><ellipse class="cls-8" cx="341.76" cy="483.56" rx="4.79" ry="4.84"/><ellipse class="cls-8" cx="1824.82" cy="308.4" rx="4.96" ry="6.75"/><ellipse class="cls-8" cx="813.39" cy="122.9" rx="4.21" ry="5.27"/><ellipse class="cls-8" cx="699.16" cy="198.49" rx="5.19" ry="6.5"/><ellipse class="cls-8" cx="371.52" cy="219.34" rx="4.05" ry="4.09"/><ellipse class="cls-8" cx="1165.61" cy="497.3" rx="4.95" ry="6.15"/><ellipse class="cls-8" cx="2484.54" cy="639.36" rx="1.74" ry="0.64"/><ellipse class="cls-8" cx="1718.66" cy="809.58" rx="1.17" ry="0.47"/><ellipse class="cls-8" cx="1511.42" cy="724.54" rx="2.48" ry="2.76"/><ellipse class="cls-8" cx="2648.32" cy="452.97" rx="1.73" ry="0.63"/><ellipse class="cls-8" cx="1571.9" cy="766.34" rx="2.49" ry="1"/><ellipse class="cls-8" cx="1699.2" cy="954.77" rx="1.77" ry="0.65"/><ellipse class="cls-8" cx="2229.94" cy="170.61" rx="1.77" ry="0.88"/><ellipse class="cls-8" cx="1514.6" cy="825.72" rx="2.99" ry="3.02"/><ellipse class="cls-8" cx="2367.47" cy="812.61" rx="3.91" ry="3.95"/><ellipse class="cls-8" cx="2351.18" cy="921.49" rx="2.55" ry="2.58"/><ellipse class="cls-8" cx="2440.7" cy="700.52" rx="4.41" ry="4.46"/><ellipse class="cls-8" cx="1598.5" cy="395.89" rx="2.23" ry="2.25"/><ellipse class="cls-8" cx="1018.58" cy="701.67" rx="3.98" ry="4.02"/><ellipse class="cls-8" cx="908.56" cy="382.33" rx="5" ry="6.26"/><ellipse class="cls-8" cx="1058.19" cy="257.56" rx="3.83" ry="3.87"/><ellipse class="cls-8" cx="1472.04" cy="258.2" rx="4" ry="5.44"/><ellipse class="cls-8" cx="1921.41" cy="227.1" rx="4.32" ry="5.88"/><ellipse class="cls-8" cx="2782.65" cy="631.99" rx="2.04" ry="2.06"/><ellipse class="cls-8" cx="2763.98" cy="568.26" rx="1.34" ry="0.49"/><ellipse class="cls-8" cx="2551.57" cy="607.9" rx="3.52" ry="3.55"/><ellipse class="cls-8" cx="1668.31" cy="749.78" rx="1.65" ry="1.84"/><ellipse class="cls-8" cx="1434.64" cy="653.49" rx="3.94" ry="4.89"/><ellipse class="cls-8" cx="2818.1" cy="463.22" rx="5.76" ry="5.82"/><ellipse class="cls-8" cx="1700.96" cy="317.47" rx="3.7" ry="5.04"/><ellipse class="cls-8" cx="1168.94" cy="843.04" rx="4.18" ry="4.22"/><ellipse class="cls-8" cx="2820.99" cy="671.65" rx="2.88" ry="2.9"/><ellipse class="cls-8" cx="2421.23" cy="621.55" rx="5.13" ry="5.18"/><ellipse class="cls-8" cx="1422.32" cy="712.55" rx="2.48" ry="2.76"/><ellipse class="cls-8" cx="1356.52" cy="365.32" rx="3.76" ry="3.8"/><ellipse class="cls-8" cx="1339.73" cy="1027.26" rx="3.12" ry="3.15"/><ellipse class="cls-8" cx="1149.23" cy="133.28" rx="4.84" ry="4.89"/><ellipse class="cls-8" cx="832.9" cy="202.05" rx="2.99" ry="3.75"/><ellipse class="cls-8" cx="1300.4" cy="235.07" rx="3.22" ry="3.25"/><ellipse class="cls-8" cx="1649.86" cy="91.53" rx="3.82" ry="5.19"/><ellipse class="cls-8" cx="942.28" cy="135.68" rx="3.85" ry="4.82"/><ellipse class="cls-8" cx="536.57" cy="174.71" rx="3.12" ry="3.15"/><ellipse class="cls-8" cx="664.57" cy="155.25" rx="1.89" ry="2.37"/><ellipse class="cls-8" cx="772.23" cy="131.68" rx="3.75" ry="4.69"/><ellipse class="cls-8" cx="1434.64" cy="59.42" rx="2.07" ry="2.82"/><ellipse class="cls-8" cx="890.36" cy="107.61" rx="4.15" ry="5.2"/><ellipse class="cls-8" cx="460.08" cy="163.16" rx="4.2" ry="4.24"/><ellipse class="cls-8" cx="1290.35" cy="151.58" rx="3.86" ry="3.9"/><ellipse class="cls-8" cx="762.58" cy="201.99" rx="3.06" ry="3.83"/><ellipse class="cls-8" cx="2420.67" cy="39.56" rx="3.88" ry="5.28"/><ellipse class="cls-8" cx="1726.93" cy="113.67" rx="3.69" ry="5.02"/><ellipse class="cls-8" cx="2033.31" cy="105.37" rx="3.03" ry="4.13"/><ellipse class="cls-8" cx="1358.11" cy="93.82" rx="6.37" ry="8.71"/><ellipse class="cls-8" cx="1406.41" cy="194.48" rx="3.03" ry="4.12"/><ellipse class="cls-8" cx="1107.99" cy="192.35" rx="1.66" ry="1.68"/><ellipse class="cls-8" cx="2347.68" cy="82.5" rx="2.68" ry="3.65"/><ellipse class="cls-8" cx="2129.93" cy="71.36" rx="2.09" ry="2.84"/><ellipse class="cls-8" cx="2169.57" cy="180.87" rx="2.01" ry="2.73"/><ellipse class="cls-8" cx="1922.76" cy="133.43" rx="3.47" ry="4.72"/><ellipse class="cls-8" cx="1540.17" cy="56.92" rx="1.63" ry="2.21"/><ellipse class="cls-8" cx="2295.51" cy="157.97" rx="3.97" ry="5.4"/><ellipse class="cls-8" cx="1470.14" cy="373.74" rx="4" ry="4.04"/><ellipse class="cls-8" cx="2636.33" cy="371.52" rx="3.59" ry="4.88"/><ellipse class="cls-8" cx="2208.42" cy="97.04" rx="4.62" ry="6.29"/><ellipse class="cls-8" cx="1598.72" cy="146.66" rx="4.45" ry="6.05"/><ellipse class="cls-8" cx="1097.2" cy="103.56" rx="6.05" ry="6.11"/><ellipse class="cls-8" cx="2030.27" cy="250.98" rx="5.94" ry="8.08"/><ellipse class="cls-8" cx="1776.08" cy="337.03" rx="5.94" ry="8.08"/><ellipse class="cls-8" cx="1603.17" cy="714.6" rx="5.94" ry="8.08"/><ellipse class="cls-8" cx="2628.83" cy="24.27" rx="4.32" ry="5.88"/><ellipse class="cls-8" cx="2624.51" cy="214.06" rx="2.92" ry="3.97"/><ellipse class="cls-8" cx="2479.82" cy="102.75" rx="5.78" ry="7.87"/><ellipse class="cls-8" cx="2465.1" cy="543.88" rx="1.37" ry="1.86"/><ellipse class="cls-8" cx="2563.77" cy="487.5" rx="4.99" ry="6.79"/><ellipse class="cls-8" cx="2758.67" cy="149.82" rx="5.81" ry="7.91"/><ellipse class="cls-8" cx="2569.79" cy="528.12" rx="2.55" ry="3.47"/><ellipse class="cls-8" cx="2316.97" cy="96.93" rx="4.73" ry="6.43"/><ellipse class="cls-8" cx="23.63" cy="16.76" rx="5.36" ry="5.41"/><ellipse class="cls-8" cx="305.79" cy="81.5" rx="2.94" ry="2.97"/><ellipse class="cls-8" cx="28.99" cy="162.08" rx="4.37" ry="1.6"/><ellipse class="cls-8" cx="918.92" cy="43.21" rx="5.24" ry="6.56"/><ellipse class="cls-8" cx="559.25" cy="84.29" rx="4.19" ry="4.24"/><ellipse class="cls-8" cx="1524.36" cy="117.61" rx="5.8" ry="7.89"/><ellipse class="cls-8" cx="1007.9" cy="580.7" rx="4.19" ry="5.7"/><ellipse class="cls-8" cx="1838.72" cy="29.16" rx="2.3" ry="3.13"/><ellipse class="cls-8" cx="124.56" cy="60.82" rx="3.71" ry="3.75"/><ellipse class="cls-8" cx="370.84" cy="161.76" rx="2.77" ry="2.8"/><ellipse class="cls-8" cx="717.8" cy="90.2" rx="4.3" ry="5.38"/><ellipse class="cls-8" cx="1267.19" cy="87.39" rx="2.25" ry="2.27"/><ellipse class="cls-8" cx="196.7" cy="138.27" rx="5.48" ry="5.54"/><ellipse class="cls-8" cx="1147.05" cy="248.54" rx="4.84" ry="4.89"/><ellipse class="cls-8" cx="830.95" cy="330.11" rx="2.99" ry="3.75"/><ellipse class="cls-8" cx="1298.5" cy="335.54" rx="3.22" ry="3.25"/><ellipse class="cls-8" cx="1623.82" cy="276.88" rx="3.82" ry="5.19"/><ellipse class="cls-8" cx="940.32" cy="263.73" rx="3.85" ry="4.82"/><ellipse class="cls-8" cx="534.39" cy="289.98" rx="3.12" ry="3.15"/><ellipse class="cls-8" cx="662.61" cy="283.3" rx="1.89" ry="2.37"/><ellipse class="cls-8" cx="612.3" cy="389.49" rx="3.75" ry="4.69"/><ellipse class="cls-8" cx="854.93" cy="240.45" rx="3.75" ry="4.69"/><ellipse class="cls-8" cx="1446.66" cy="253.43" rx="2.07" ry="2.82"/><ellipse class="cls-8" cx="595.49" cy="233.85" rx="4.15" ry="5.2"/><ellipse class="cls-8" cx="457.9" cy="278.42" rx="4.2" ry="4.24"/><ellipse class="cls-8" cx="1288.45" cy="252.05" rx="3.86" ry="3.9"/><ellipse class="cls-8" cx="760.63" cy="330.04" rx="3.06" ry="3.83"/><ellipse class="cls-8" cx="2418.49" cy="194.87" rx="3.88" ry="5.28"/><ellipse class="cls-8" cx="2214.43" cy="257.96" rx="2.13" ry="2.9"/><ellipse class="cls-8" cx="1725.03" cy="249.05" rx="3.69" ry="5.02"/><ellipse class="cls-8" cx="1352.28" cy="319.95" rx="4.19" ry="4.24"/><ellipse class="cls-8" cx="1404.5" cy="326.45" rx="3.03" ry="3.06"/><ellipse class="cls-8" cx="1105.81" cy="307.61" rx="1.66" ry="1.68"/><ellipse class="cls-8" cx="2406.99" cy="422.15" rx="2.09" ry="2.84"/><ellipse class="cls-8" cx="2127.75" cy="226.68" rx="2.09" ry="2.84"/><ellipse class="cls-8" cx="2778.79" cy="339.85" rx="2.33" ry="3.17"/><ellipse class="cls-8" cx="1538.27" cy="241.64" rx="1.63" ry="2.21"/><ellipse class="cls-8" cx="2293.33" cy="316.32" rx="3.97" ry="4.01"/><ellipse class="cls-8" cx="1569.31" cy="873.47" rx="2.59" ry="1.05"/><ellipse class="cls-8" cx="2771.12" cy="237.63" rx="1.89" ry="2.58"/><ellipse class="cls-8" cx="1507.73" cy="656.85" rx="1.76" ry="1.96"/><ellipse class="cls-8" cx="1500.01" cy="621.93" rx="2.97" ry="3"/><ellipse class="cls-8" cx="2638.79" cy="124.34" rx="2.52" ry="3.43"/><ellipse class="cls-8" cx="2591.4" cy="152.22" rx="1.74" ry="2.37"/><ellipse class="cls-8" cx="2677.19" cy="165.36" rx="3.75" ry="5.11"/><ellipse class="cls-8" cx="2638.45" cy="354.57" rx="1.14" ry="1.55"/><ellipse class="cls-8" cx="2720.73" cy="307.55" rx="4.16" ry="5.67"/><ellipse class="cls-8" cx="2725.76" cy="341.43" rx="2.13" ry="2.9"/><ellipse class="cls-8" cx="2571.47" cy="161.59" rx="3.07" ry="4.17"/><ellipse class="cls-8" cx="2637.37" cy="225.17" rx="2.52" ry="3.43"/><ellipse class="cls-8" cx="2597.3" cy="434.01" rx="1.36" ry="1.85"/><ellipse class="cls-8" cx="2433.57" cy="464.94" rx="1.74" ry="0.64"/><ellipse class="cls-8" cx="2500.61" cy="433.47" rx="3.52" ry="3.55"/><ellipse class="cls-8" cx="2370.26" cy="447.13" rx="5.13" ry="5.18"/><ellipse class="cls-8" cx="2414.14" cy="369.46" rx="1.37" ry="1.86"/><ellipse class="cls-8" cx="2512.8" cy="313.08" rx="4.99" ry="6.79"/><ellipse class="cls-8" cx="2518.83" cy="353.7" rx="2.55" ry="3.47"/><ellipse class="cls-8" cx="2356.02" cy="247.72" rx="2.09" ry="2.84"/><ellipse class="cls-8" cx="2546.34" cy="259.58" rx="1.36" ry="1.85"/><ellipse class="cls-8" cx="2526.48" cy="799.53" rx="2.92" ry="3.97"/><ellipse class="cls-8" cx="2754.8" cy="664.92" rx="3.23" ry="4.39"/><ellipse class="cls-8" cx="2608.35" cy="678.22" rx="4.31" ry="5.87"/><ellipse class="cls-8" cx="2527.19" cy="692.41" rx="2.98" ry="4.06"/><ellipse class="cls-8" cx="2763.27" cy="678.83" rx="1.56" ry="2.12"/><ellipse class="cls-8" cx="2673.09" cy="823.09" rx="1.89" ry="2.58"/><ellipse class="cls-8" cx="2674.12" cy="714.93" rx="6.43" ry="8.75"/><ellipse class="cls-8" cx="2622.7" cy="893.02" rx="4.16" ry="5.67"/><ellipse class="cls-8" cx="2493.05" cy="708.46" rx="5.25" ry="7.15"/><ellipse class="cls-8" cx="2539.34" cy="810.64" rx="2.52" ry="3.43"/><ellipse class="cls-8" cx="2491.95" cy="838.52" rx="1.74" ry="2.37"/><ellipse class="cls-8" cx="2652.06" cy="649.88" rx="1.62" ry="2.2"/><ellipse class="cls-8" cx="2726.52" cy="614.23" rx="3.23" ry="4.39"/><ellipse class="cls-8" cx="2659.98" cy="600.09" rx="1.4" ry="1.9"/><ellipse class="cls-8" cx="2442.4" cy="619.43" rx="1.74" ry="2.37"/><ellipse class="cls-8" cx="2734.98" cy="594.58" rx="1.56" ry="2.12"/><ellipse class="cls-8" cx="2733.43" cy="662.96" rx="1.05" ry="1.43"/><ellipse class="cls-8" cx="2681.29" cy="622.85" rx="2.08" ry="2.84"/><ellipse class="cls-8" cx="2690.51" cy="498.08" rx="7.13" ry="9.7"/><ellipse class="cls-8" cx="2659.19" cy="656.05" rx="1.4" ry="1.9"/><ellipse class="cls-8" cx="2404.9" cy="673.84" rx="1.74" ry="2.37"/><ellipse class="cls-8" cx="1148.67" cy="532.33" rx="1.74" ry="0.64"/><ellipse class="cls-8" cx="1312.45" cy="345.94" rx="1.73" ry="0.63"/><ellipse class="cls-8" cx="1104.84" cy="627.05" rx="4.41" ry="4.46"/><ellipse class="cls-8" cx="1446.78" cy="524.96" rx="2.04" ry="2.06"/><ellipse class="cls-8" cx="1428.11" cy="461.23" rx="1.34" ry="0.49"/><ellipse class="cls-8" cx="1215.71" cy="500.87" rx="3.52" ry="3.55"/><ellipse class="cls-8" cx="1482.24" cy="356.19" rx="5.76" ry="5.82"/><ellipse class="cls-8" cx="1485.12" cy="564.62" rx="2.88" ry="2.9"/><ellipse class="cls-8" cx="1300.47" cy="264.49" rx="3.59" ry="4.88"/><ellipse class="cls-8" cx="1264.94" cy="183.74" rx="2.92" ry="3.97"/><ellipse class="cls-8" cx="1129.24" cy="436.85" rx="1.37" ry="1.86"/><ellipse class="cls-8" cx="1227.9" cy="380.47" rx="4.99" ry="6.79"/><ellipse class="cls-8" cx="1233.93" cy="421.09" rx="2.55" ry="3.47"/><ellipse class="cls-8" cx="1442.93" cy="232.82" rx="2.33" ry="3.17"/><ellipse class="cls-8" cx="1435.25" cy="130.6" rx="1.89" ry="2.58"/><ellipse class="cls-8" cx="1302.58" cy="247.54" rx="1.14" ry="1.55"/><ellipse class="cls-8" cx="1384.87" cy="200.52" rx="4.16" ry="5.67"/><ellipse class="cls-8" cx="1389.89" cy="234.4" rx="2.13" ry="2.9"/><ellipse class="cls-8" cx="1301.5" cy="118.14" rx="2.52" ry="3.43"/><ellipse class="cls-8" cx="1261.44" cy="326.97" rx="1.36" ry="1.85"/><ellipse class="cls-8" cx="631.28" cy="659.41" rx="3.22" ry="3.25"/><ellipse class="cls-8" cx="629.37" cy="759.88" rx="3.22" ry="3.25"/><ellipse class="cls-8" cx="619.32" cy="676.39" rx="3.86" ry="3.9"/><ellipse class="cls-8" cx="631.34" cy="688.83" rx="3.59" ry="4.88"/><ellipse class="cls-8" cx="633.46" cy="671.88" rx="1.14" ry="1.55"/><ellipse class="cls-8" cx="592.31" cy="751.31" rx="1.36" ry="1.85"/><ellipse class="cls-8" cx="1164.74" cy="326.44" rx="3.52" ry="3.55"/><ellipse class="cls-8" cx="1176.94" cy="206.05" rx="4.99" ry="6.79"/><ellipse class="cls-8" cx="1182.96" cy="246.67" rx="2.55" ry="3.47"/><ellipse class="cls-8" cx="1210.47" cy="152.55" rx="1.36" ry="1.85"/><ellipse class="cls-8" cx="1418.94" cy="591.45" rx="3.23" ry="4.39"/><ellipse class="cls-8" cx="1272.49" cy="733.44" rx="4.31" ry="5.87"/><ellipse class="cls-8" cx="1191.33" cy="618.94" rx="2.98" ry="4.06"/><ellipse class="cls-8" cx="1427.4" cy="571.8" rx="1.56" ry="2.12"/><ellipse class="cls-8" cx="1338.26" cy="641.45" rx="6.43" ry="8.75"/><ellipse class="cls-8" cx="1157.19" cy="634.98" rx="5.25" ry="7.15"/><ellipse class="cls-8" cx="1316.19" cy="542.85" rx="1.62" ry="2.2"/><ellipse class="cls-8" cx="1390.65" cy="507.19" rx="3.23" ry="4.39"/><ellipse class="cls-8" cx="1324.11" cy="493.05" rx="1.4" ry="1.9"/><ellipse class="cls-8" cx="1106.54" cy="512.4" rx="1.74" ry="2.37"/><ellipse class="cls-8" cx="1399.12" cy="487.55" rx="1.56" ry="2.12"/><ellipse class="cls-8" cx="1397.56" cy="555.93" rx="1.05" ry="1.43"/><ellipse class="cls-8" cx="1345.43" cy="515.82" rx="2.08" ry="2.84"/><ellipse class="cls-8" cx="1604.69" cy="477.89" rx="3.42" ry="3.46"/><ellipse class="cls-8" cx="1651.43" cy="529.2" rx="2.04" ry="2.06"/><ellipse class="cls-8" cx="1632.76" cy="465.48" rx="1.34" ry="0.49"/><ellipse class="cls-8" cx="1595.3" cy="511.44" rx="3.23" ry="4.39"/><ellipse class="cls-8" cx="1603.76" cy="491.79" rx="1.56" ry="2.12"/><ellipse class="cls-8" cx="1550.07" cy="520.07" rx="2.08" ry="2.84"/><ellipse class="cls-8" cx="1354.64" cy="391.05" rx="7.13" ry="9.7"/><ellipse class="cls-8" cx="1323.33" cy="549.02" rx="1.4" ry="1.9"/><ellipse class="cls-8" cx="2012.17" cy="269.26" rx="2.18" ry="3.37" transform="translate(-4.85 39.11) rotate(-1.11)"/><ellipse class="cls-8" cx="1950.93" cy="152.47" rx="3.53" ry="4.44" transform="translate(-0.16 2.08) rotate(-0.06)"/><ellipse class="cls-8" cx="2150.35" cy="333.25" rx="3.94" ry="3.43" transform="translate(1763.28 2474.56) rotate(-88.56)"/><ellipse class="cls-8" cx="2079.09" cy="222.94" rx="2.4" ry="3.71" transform="translate(-3.94 40.4) rotate(-1.11)"/><ellipse class="cls-8" cx="2159.43" cy="163.5" rx="2.05" ry="3.17" transform="translate(-2.77 41.95) rotate(-1.11)"/><ellipse class="cls-8" cx="2077.42" cy="335.08" rx="2.55" ry="3.94" transform="translate(-6.11 40.39) rotate(-1.11)"/><ellipse class="cls-8" cx="2096.01" cy="164.85" rx="2.05" ry="3.17" transform="translate(-2.81 40.72) rotate(-1.11)"/><ellipse class="cls-8" cx="2152.54" cy="308.11" rx="2.04" ry="1.78" transform="translate(1790.55 2452.25) rotate(-88.56)"/><ellipse class="cls-8" cx="2148.34" cy="152.28" rx="2.46" ry="3.8" transform="translate(-2.55 41.73) rotate(-1.11)"/><ellipse class="cls-8" cx="2107.56" cy="217.31" rx="2.67" ry="4.13" transform="translate(-3.82 40.95) rotate(-1.11)"/><ellipse class="cls-8" cx="2105.14" cy="268.94" rx="1.93" ry="2.98" transform="translate(-4.82 40.91) rotate(-1.11)"/><ellipse class="cls-8" cx="2089.9" cy="178.92" rx="0.4" ry="1.71" transform="translate(-4.6 65.9) rotate(-1.8)"/><ellipse class="cls-8" cx="1981.3" cy="316.94" rx="1.3" ry="2.01" transform="translate(-5.78 38.52) rotate(-1.11)"/><ellipse class="cls-8" cx="2020.89" cy="296.51" rx="0.31" ry="1.32" transform="translate(-8.33 63.78) rotate(-1.8)"/><ellipse class="cls-8" cx="2088.88" cy="346.43" rx="3.67" ry="5.68" transform="translate(-6.33 40.61) rotate(-1.11)"/><ellipse class="cls-8" cx="1957.52" cy="355.96" rx="1.83" ry="2.83" transform="translate(-6.54 38.06) rotate(-1.11)"/><ellipse class="cls-8" cx="2140.88" cy="164.51" rx="3.54" ry="3.08" transform="translate(1922.73 2300.59) rotate(-88.56)"/><ellipse class="cls-8" cx="2151.63" cy="166.05" rx="1.13" ry="0.98" transform="translate(1931.68 2312.85) rotate(-88.56)"/><ellipse class="cls-8" cx="2100.22" cy="128.09" rx="1.34" ry="1.16" transform="translate(1919.5 2224.43) rotate(-88.56)"/><ellipse class="cls-8" cx="1951.14" cy="299.36" rx="1.53" ry="1.34" transform="translate(1602.95 2242.37) rotate(-88.56)"/><ellipse class="cls-8" cx="1965.83" cy="188.92" rx="1.6" ry="1.39" transform="translate(1727.67 2149.4) rotate(-88.56)"/><ellipse class="cls-8" cx="1990.7" cy="261.1" rx="3.18" ry="2.77" transform="translate(1679.77 2244.63) rotate(-88.56)"/><ellipse class="cls-8" cx="1997.49" cy="195.13" rx="1.38" ry="1.2" transform="translate(1752.33 2187.09) rotate(-88.56)"/><ellipse class="cls-8" cx="2003.37" cy="268.8" rx="1.53" ry="1.34" transform="translate(1684.41 2264.8) rotate(-88.56)"/><ellipse class="cls-8" cx="1960.19" cy="269.46" rx="1.04" ry="0.9" transform="translate(1641.66 2222.28) rotate(-88.56)"/><ellipse class="cls-8" cx="1983.81" cy="216.84" rx="2.05" ry="1.79" transform="translate(1717.29 2194.59) rotate(-88.56)"/><ellipse class="cls-8" cx="2062.8" cy="221.91" rx="7.03" ry="6.12" transform="translate(1789.22 2278.5) rotate(-88.56)"/><ellipse class="cls-8" cx="2499.49" cy="533.54" rx="2.61" ry="2.26" transform="translate(1742.68 2974.72) rotate(-84.83)"/><ellipse class="cls-8" cx="2376.33" cy="554.73" rx="2.61" ry="2.26" transform="translate(1609.53 2871.34) rotate(-84.83)"/><ellipse class="cls-8" cx="2371.81" cy="494.07" rx="3.11" ry="2.86" transform="translate(576.2 2120.52) rotate(-53.94)"/><ellipse class="cls-8" cx="2431.16" cy="584.13" rx="2.66" ry="2.44" transform="translate(527.81 2205.55) rotate(-53.94)"/><ellipse class="cls-8" cx="2420.34" cy="506.03" rx="2.66" ry="2.44" transform="translate(586.49 2164.68) rotate(-53.94)"/><ellipse class="cls-8" cx="2438.33" cy="568.7" rx="3.19" ry="2.93" transform="translate(543.23 2205) rotate(-53.94)"/><ellipse class="cls-8" cx="2380.64" cy="528.36" rx="3.47" ry="3.19" transform="translate(552.11 2141.77) rotate(-53.94)"/><ellipse class="cls-8" cx="2408.28" cy="500.65" rx="1.38" ry="0.5" transform="translate(-48.46 622.74) rotate(-14.59)"/><ellipse class="cls-8" cx="2427.51" cy="561.38" rx="2.84" ry="3.84" transform="translate(-26.24 128.88) rotate(-3.02)"/><ellipse class="cls-8" cx="2427.95" cy="574.89" rx="0.9" ry="1.22" transform="translate(-26.95 128.92) rotate(-3.02)"/><ellipse class="cls-8" cx="2450.07" cy="505.58" rx="1.07" ry="1.45" transform="translate(-23.26 129.99) rotate(-3.02)"/><ellipse class="cls-8" cx="2370.11" cy="473.8" rx="5.64" ry="7.64" transform="translate(-21.7 125.73) rotate(-3.02)"/><ellipse class="cls-8" cx="2375.64" cy="364.27" rx="2.61" ry="2.26" transform="translate(1798.57 2697.37) rotate(-84.83)"/><ellipse class="cls-8" cx="2252.48" cy="385.46" rx="2.61" ry="2.26" transform="translate(1665.42 2593.99) rotate(-84.83)"/><ellipse class="cls-8" cx="2247.95" cy="324.8" rx="3.11" ry="2.86" transform="translate(662.09 1950.78) rotate(-53.94)"/><ellipse class="cls-8" cx="2307.31" cy="414.86" rx="2.66" ry="2.44" transform="translate(613.7 2035.81) rotate(-53.94)"/><ellipse class="cls-8" cx="2296.49" cy="336.76" rx="2.66" ry="2.44" transform="translate(672.38 1994.94) rotate(-53.94)"/><ellipse class="cls-8" cx="2314.48" cy="399.44" rx="3.19" ry="2.93" transform="translate(629.12 2035.26) rotate(-53.94)"/><ellipse class="cls-8" cx="2256.79" cy="359.1" rx="3.47" ry="3.19" transform="translate(638 1972.03) rotate(-53.94)"/><ellipse class="cls-8" cx="2284.43" cy="331.38" rx="1.38" ry="0.5" transform="translate(-9.82 586.08) rotate(-14.59)"/><ellipse class="cls-8" cx="2303.66" cy="392.11" rx="2.84" ry="3.84" transform="translate(-17.48 122.11) rotate(-3.02)"/><ellipse class="cls-8" cx="2304.1" cy="405.63" rx="0.9" ry="1.22" transform="translate(-18.19 122.15) rotate(-3.02)"/><ellipse class="cls-8" cx="2326.21" cy="336.31" rx="1.07" ry="1.45" transform="translate(-14.51 123.22) rotate(-3.02)"/><ellipse class="cls-8" cx="2246.26" cy="304.53" rx="5.64" ry="7.64" transform="translate(-12.94 118.96) rotate(-3.02)"/><ellipse class="cls-8" cx="1962.17" cy="196.15" rx="1.38" ry="1.2" transform="translate(1716.88 2152.78) rotate(-88.56)"/><ellipse class="cls-8" cx="1720.9" cy="309.82" rx="3.03" ry="4.13"/><ellipse class="cls-8" cx="1817.53" cy="275.82" rx="2.09" ry="2.84"/><ellipse class="cls-8" cx="1857.16" cy="385.32" rx="2.01" ry="2.73"/><ellipse class="cls-8" cx="1717.87" cy="455.43" rx="5.94" ry="8.08"/><ellipse class="cls-8" cx="1815.34" cy="431.13" rx="2.09" ry="2.84"/><ellipse class="cls-8" cx="1699.76" cy="473.72" rx="2.18" ry="3.37" transform="translate(-8.88 33.08) rotate(-1.11)"/><ellipse class="cls-8" cx="1638.52" cy="356.92" rx="3.53" ry="4.44" transform="translate(-0.38 1.75) rotate(-0.06)"/><ellipse class="cls-8" cx="1766.68" cy="427.39" rx="2.4" ry="3.71" transform="translate(-7.96 34.37) rotate(-1.11)"/><ellipse class="cls-8" cx="1847.02" cy="367.96" rx="2.05" ry="3.17" transform="matrix(1, -0.02, 0.02, 1, -6.79, 35.92)"/><ellipse class="cls-8" cx="1783.6" cy="369.31" rx="2.05" ry="3.17" transform="matrix(1, -0.02, 0.02, 1, -6.83, 34.69)"/><ellipse class="cls-8" cx="1840.14" cy="512.56" rx="2.04" ry="1.78" transform="matrix(0.03, -1, 1, 0.03, 1281.59, 2339.27)"/><ellipse class="cls-8" cx="1835.93" cy="356.73" rx="2.46" ry="3.8" transform="translate(-6.58 35.7) rotate(-1.11)"/><ellipse class="cls-8" cx="1795.16" cy="421.76" rx="2.67" ry="4.13" transform="translate(-7.85 34.93) rotate(-1.11)"/><ellipse class="cls-8" cx="1792.73" cy="473.39" rx="1.93" ry="2.98" transform="matrix(1, -0.02, 0.02, 1, -8.85, 34.89)"/><ellipse class="cls-8" cx="1777.49" cy="383.38" rx="0.4" ry="1.71" transform="translate(-11.19 56.16) rotate(-1.8)"/><ellipse class="cls-8" cx="1668.9" cy="521.39" rx="1.3" ry="2.01" transform="translate(-9.81 32.49) rotate(-1.11)"/><ellipse class="cls-8" cx="1708.49" cy="500.96" rx="0.31" ry="1.32" transform="translate(-14.93 54.05) rotate(-1.8)"/><ellipse class="cls-8" cx="1828.47" cy="368.96" rx="3.54" ry="3.08" transform="translate(1413.77 2187.61) rotate(-88.56)"/><ellipse class="cls-8" cx="1839.23" cy="370.51" rx="1.13" ry="0.98" transform="translate(1422.72 2199.86) rotate(-88.56)"/><ellipse class="cls-8" cx="1787.81" cy="332.54" rx="1.34" ry="1.16" transform="translate(1410.54 2111.45) rotate(-88.56)"/><ellipse class="cls-8" cx="1638.73" cy="503.81" rx="1.53" ry="1.34" transform="matrix(0.03, -1, 1, 0.03, 1093.99, 2129.39)"/><ellipse class="cls-8" cx="1653.43" cy="393.38" rx="1.6" ry="1.39" transform="translate(1218.71 2036.42) rotate(-88.56)"/><ellipse class="cls-8" cx="1678.3" cy="465.55" rx="3.18" ry="2.77" transform="translate(1170.81 2131.64) rotate(-88.56)"/><ellipse class="cls-8" cx="1685.08" cy="399.58" rx="1.38" ry="1.2" transform="translate(1243.37 2074.11) rotate(-88.56)"/><ellipse class="cls-8" cx="1690.96" cy="473.25" rx="1.53" ry="1.34" transform="translate(1175.45 2151.82) rotate(-88.56)"/><ellipse class="cls-8" cx="1647.79" cy="473.91" rx="1.04" ry="0.9" transform="translate(1132.7 2109.3) rotate(-88.56)"/><ellipse class="cls-8" cx="1671.41" cy="421.29" rx="2.05" ry="1.79" transform="translate(1208.33 2081.61) rotate(-88.56)"/><ellipse class="cls-8" cx="1649.76" cy="400.6" rx="1.38" ry="1.2" transform="translate(1207.92 2039.8) rotate(-88.56)"/><ellipse class="cls-8" cx="900.33" cy="562.84" rx="3.42" ry="3.46"/><ellipse class="cls-8" cx="727.87" cy="567.65" rx="2.84" ry="2.87"/><ellipse class="cls-8" cx="920.12" cy="667.87" rx="1.67" ry="1.86"/><ellipse class="cls-8" cx="778.75" cy="653.76" rx="4.51" ry="5.6"/><ellipse class="cls-8" cx="857.63" cy="667.09" rx="5.1" ry="6.33"/><ellipse class="cls-8" cx="728.07" cy="700.24" rx="3.96" ry="4.92"/><ellipse class="cls-8" cx="856.81" cy="454.52" rx="3.76" ry="3.8"/><ellipse class="cls-8" cx="798.79" cy="424.74" rx="3.22" ry="3.25"/><ellipse class="cls-8" cx="852.57" cy="409.15" rx="4.19" ry="4.24"/><ellipse class="cls-8" cx="904.79" cy="415.65" rx="3.03" ry="3.06"/><ellipse class="cls-8" cx="812.74" cy="435.13" rx="1.73" ry="0.63"/><ellipse class="cls-8" cx="928.4" cy="550.43" rx="1.34" ry="0.49"/><ellipse class="cls-8" cx="715.99" cy="590.07" rx="3.52" ry="3.55"/><ellipse class="cls-8" cx="734.21" cy="510.29" rx="2.55" ry="3.47"/><ellipse class="cls-8" cx="761.72" cy="416.17" rx="1.36" ry="1.85"/><ellipse class="cls-8" cx="919.22" cy="680.65" rx="3.23" ry="4.39"/><ellipse class="cls-8" cx="1018.22" cy="480.77" rx="4.31" ry="5.87"/><ellipse class="cls-8" cx="691.61" cy="674.58" rx="2.98" ry="4.06"/><ellipse class="cls-8" cx="927.69" cy="661" rx="1.56" ry="2.12"/><ellipse class="cls-8" cx="1750.39" cy="426.37" rx="7.03" ry="6.12" transform="translate(1280.26 2165.52) rotate(-88.56)"/><ellipse class="cls-8" cx="728.19" cy="469.67" rx="4.99" ry="6.79"/><ellipse class="cls-8" cx="838.54" cy="697.1" rx="6.43" ry="8.75"/><ellipse class="cls-8" cx="816.48" cy="632.05" rx="1.62" ry="2.2"/><ellipse class="cls-8" cx="890.94" cy="596.39" rx="3.23" ry="4.39"/><ellipse class="cls-8" cx="824.4" cy="582.25" rx="1.4" ry="1.9"/><ellipse class="cls-8" cx="899.4" cy="576.75" rx="1.56" ry="2.12"/><ellipse class="cls-8" cx="897.84" cy="645.13" rx="1.05" ry="1.43"/><ellipse class="cls-8" cx="845.71" cy="605.02" rx="2.08" ry="2.84"/><ellipse class="cls-8" cx="854.93" cy="480.25" rx="7.13" ry="9.7"/><ellipse class="cls-8" cx="823.61" cy="638.22" rx="1.4" ry="1.9"/><ellipse class="cls-8" cx="160.26" cy="761.74" rx="1.74" ry="0.64"/><ellipse class="cls-8" cx="324.04" cy="608.9" rx="1.73" ry="0.63"/><ellipse class="cls-8" cx="116.43" cy="856.46" rx="4.41" ry="4.46"/><ellipse class="cls-8" cx="458.38" cy="754.37" rx="2.04" ry="2.06"/><ellipse class="cls-8" cx="439.71" cy="690.64" rx="1.34" ry="0.49"/><ellipse class="cls-8" cx="228.27" cy="729.91" rx="2.55" ry="3.19"/><ellipse class="cls-8" cx="493.83" cy="619.16" rx="5.76" ry="5.82"/><ellipse class="cls-8" cx="496.72" cy="794.03" rx="2.88" ry="2.9"/><ellipse class="cls-8" cx="312.06" cy="527.46" rx="3.59" ry="4.88"/><ellipse class="cls-8" cx="300.24" cy="370" rx="2.92" ry="3.97"/><ellipse class="cls-8" cx="140.83" cy="666.26" rx="1.37" ry="1.86"/><ellipse class="cls-8" cx="239.5" cy="643.44" rx="4.99" ry="6.79"/><ellipse class="cls-8" cx="245.4" cy="683.92" rx="2.67" ry="3.34"/><ellipse class="cls-8" cx="454.52" cy="495.79" rx="2.33" ry="3.17"/><ellipse class="cls-8" cx="446.85" cy="393.57" rx="1.89" ry="2.58"/><ellipse class="cls-8" cx="314.18" cy="510.51" rx="1.14" ry="1.55"/><ellipse class="cls-8" cx="396.46" cy="463.49" rx="4.16" ry="5.67"/><ellipse class="cls-8" cx="401.49" cy="497.37" rx="2.13" ry="2.9"/><ellipse class="cls-8" cx="313.1" cy="381.11" rx="2.52" ry="3.43"/><ellipse class="cls-8" cx="273.03" cy="589.94" rx="1.36" ry="1.85"/><ellipse class="cls-8" cx="176.34" cy="589.41" rx="3.52" ry="3.55"/><ellipse class="cls-8" cx="188.53" cy="469.02" rx="4.99" ry="6.79"/><ellipse class="cls-8" cx="194.55" cy="509.63" rx="2.55" ry="3.47"/><ellipse class="cls-8" cx="222.07" cy="415.52" rx="1.36" ry="1.85"/><ellipse class="cls-8" cx="430.53" cy="820.86" rx="3.23" ry="4.39"/><ellipse class="cls-8" cx="283.68" cy="800.63" rx="4.72" ry="5.89"/><ellipse class="cls-8" cx="202.92" cy="848.35" rx="2.98" ry="4.06"/><ellipse class="cls-8" cx="439" cy="801.21" rx="1.56" ry="2.12"/><ellipse class="cls-8" cx="349.79" cy="870.23" rx="6.49" ry="8.11"/><ellipse class="cls-8" cx="168.78" cy="864.4" rx="5.25" ry="7.15"/><ellipse class="cls-8" cx="327.79" cy="772.26" rx="1.62" ry="2.2"/><ellipse class="cls-8" cx="402.25" cy="736.61" rx="3.23" ry="4.39"/><ellipse class="cls-8" cx="335.71" cy="722.47" rx="1.4" ry="1.9"/><ellipse class="cls-8" cx="118.13" cy="741.81" rx="1.74" ry="2.37"/><ellipse class="cls-8" cx="410.71" cy="716.96" rx="1.56" ry="2.12"/><ellipse class="cls-8" cx="409.15" cy="785.34" rx="1.05" ry="1.43"/><ellipse class="cls-8" cx="357.02" cy="745.23" rx="2.08" ry="2.84"/><ellipse class="cls-8" cx="367.04" cy="652.23" rx="6.33" ry="7.91"/><ellipse class="cls-8" cx="334.92" cy="778.43" rx="1.4" ry="1.9"/></g></g></g></svg>