<svg xmlns="http://www.w3.org/2000/svg" viewBox="0 0 2828.56 1041.75"><defs><style>.cls-1{isolation:isolate;}.cls-2{fill:#f0f4fe;}.cls-3{fill:#e6edfe;}.cls-4{mix-blend-mode:multiply;}.cls-5{fill:none;stroke:#9eccb6;stroke-linecap:round;stroke-miterlimit:10;stroke-width:0.75px;}.cls-6{fill:#a5d0bd;}.cls-7{fill:#a8caba;}.cls-8{fill:#298c6a;}</style></defs><title>fondo-grids</title><g class="cls-1"><g id="Sintomas"><path class="cls-2" d="M-.14,744.42s102.83-67.14,215.79,0C428.74,871.09,774,1053.37,934.5,784.59s-81-291.82-75.53-461.88c5.4-166.83-54-268.78-165.89-273.42S509.66,97.18,427.4,1.4H-.14Z"/><path class="cls-2" d="M2821.86,220.61s-114.28,74.63-239.82,0C2345.21,79.83,1961.48-122.75,1783.11,176s90.05,324.33,83.94,513.34c-6,185.41,60,298.72,184.37,303.87s203.85-53.22,295.29,53.23h475.15Z"/><path class="cls-2" d="M2821.86,549.76c0-137.4-83.12-260.4-209.69-313.87A246.93,246.93,0,0,1,2582,220.61C2345.21,79.83,1961.48-122.75,1783.11,176s90.05,324.33,83.94,513.34c-6,185.41,60,298.72,184.37,303.87,99.79,4.13,170.65-32.6,242,7.62,52,29.33,110.32,45.61,170,45.61h18.71c187.63,0,339.74-152.11,339.74-339.75Z"/><path class="cls-3" d="M2823.86,498.06c0,137.4-83.12,260.39-209.69,313.86A246.93,246.93,0,0,0,2584,827.2c-236.83,140.78-620.56,343.36-798.93,44.64s90.05-324.32,83.94-513.33c-6-185.42,60-298.73,184.37-303.88,99.79-4.13,170.65,32.6,242-7.62,52-29.33,110.32-45.6,170-45.6h18.71c187.63,0,339.74,152.11,339.74,339.74Z"/><g class="cls-4"><path class="cls-5" d="M220.4,525.05S66.27,833.32-2.24,1047.39"/><path class="cls-6" d="M216.12,533.61c0-9,27.08-99.28,54.15-81.23s-54.15,81.23-54.15,81.23"/><path class="cls-6" d="M190.2,583.78c5.25-5.2,72.84-42,77.36-16.44s-77.36,16.44-77.36,16.44"/><path class="cls-6" d="M164.51,643.72c5.25-5.2,72.84-42,77.36-16.44s-77.36,16.44-77.36,16.44"/><path class="cls-6" d="M131.68,717.86c6.43-8.45,95.13-74.31,106.67-38.85s-106.67,38.85-106.67,38.85"/><path class="cls-6" d="M97.43,786.36c6.43-8.44,95.13-74.31,106.67-38.84S97.43,786.36,97.43,786.36"/><path class="cls-6" d="M191.62,572.32c.23-6.5-16.31-72.23-35.57-59.86s35.57,59.86,35.57,59.86"/><path class="cls-6" d="M168.19,624.74c.22-6.51-16.32-72.23-35.57-59.87s35.57,59.87,35.57,59.87"/><path class="cls-6" d="M139.83,690.25c1.63-9.2-8.74-105.92-38.58-92.21s38.58,92.21,38.58,92.21"/><path class="cls-6" d="M116,753.32c1.63-9.2-8.74-105.92-38.58-92.2S116,753.32,116,753.32"/><path class="cls-5" d="M332.1,692s-250,249.82-331.74,347"/><path class="cls-6" d="M328,695.51c2-4.73,35.49-46.07,45.61-30.7S328,695.51,328,695.51"/><path class="cls-6" d="M303.76,716.11c3.85-1.57,46.81-6.08,43.61,8.31s-43.61-8.31-43.61-8.31"/><path class="cls-6" d="M277.5,741.88c3.85-1.57,46.81-6.07,43.61,8.32s-43.61-8.32-43.61-8.32"/><path class="cls-6" d="M250.83,777.21c5-3.22,64.57-20.65,63.7.5s-63.7-.5-63.7-.5"/><path class="cls-6" d="M219.41,806.84c5-3.22,64.57-20.64,63.7.51s-63.7-.51-63.7-.51"/><path class="cls-6" d="M307,710.42c1.52-3.36,7.17-41.39-5.47-39.13S307,710.42,307,710.42"/><path class="cls-6" d="M283.51,732.75c1.52-3.36,7.17-41.4-5.47-39.14s5.47,39.14,5.47,39.14"/><path class="cls-6" d="M254.66,760.85c2.83-4.46,18.38-57.38,0-56.72s0,56.72,0,56.72"/><path class="cls-6" d="M228.67,788.66c2.83-4.46,18.38-57.38,0-56.72s0,56.72,0,56.72"/><path class="cls-5" d="M303.82,873S111.69,965.24-2.9,1043.91"/><path class="cls-6" d="M298.48,875.53c3.42-4.41,50.85-38.26,57.25-19.18s-57.25,19.18-57.25,19.18"/><path class="cls-6" d="M266.8,890.23c4.54-.55,51.53,7.06,44.05,21.28s-44.05-21.28-44.05-21.28"/><path class="cls-6" d="M231.54,909.79c4.54-.55,51.53,7.06,44,21.28s-44-21.28-44-21.28"/><path class="cls-6" d="M187.4,933.59c6.35-1.69,74.66-.28,66.86,21.43s-66.86-21.43-66.86-21.43"/><path class="cls-6" d="M144.71,954.09c6.34-1.69,74.65-.27,66.85,21.44s-66.85-21.44-66.85-21.44"/><path class="cls-6" d="M271.84,885.17c2.58-3.09,19.4-41.48,5.3-42.74s-5.3,42.74-5.3,42.74"/><path class="cls-6" d="M240.53,901.91c2.58-3.09,19.39-41.48,5.3-42.74s-5.3,42.74-5.3,42.74"/><path class="cls-6" d="M201.85,923.19c4.28-3.89,35.86-55.09,16.08-59.69s-16.08,59.69-16.08,59.69"/><path class="cls-6" d="M166.29,945c4.28-3.88,35.86-55.08,16.08-59.68S166.29,945,166.29,945"/></g><ellipse class="cls-7" cx="676.57" cy="757.27" rx="5.42" ry="10.84" transform="translate(-308.3 509.8) rotate(-34.12)"/><ellipse class="cls-7" cx="665.73" cy="786.18" rx="3.74" ry="7.48" transform="translate(-326.38 508.69) rotate(-34.12)"/><ellipse class="cls-7" cx="1277.45" cy="482.59" rx="5.42" ry="10.84" transform="translate(114.56 1198.46) rotate(-52.31)"/><ellipse class="cls-7" cx="1278.72" cy="451.75" rx="3.74" ry="7.48" transform="translate(139.47 1187.48) rotate(-52.31)"/><ellipse class="cls-7" cx="514.45" cy="47.2" rx="10.84" ry="5.42" transform="translate(78.49 324.36) rotate(-37.69)"/><ellipse class="cls-7" cx="515.72" cy="78.04" rx="7.48" ry="3.74" transform="translate(59.89 331.58) rotate(-37.69)"/><ellipse class="cls-7" cx="2016.55" cy="672.7" rx="6.5" ry="13" transform="translate(46.82 1472.16) rotate(-40.54)"/><ellipse class="cls-7" cx="2043.88" cy="579.03" rx="6.5" ry="13" transform="translate(-80.43 584.17) rotate(-15.96)"/><ellipse class="cls-8" cx="2072.58" cy="706.19" rx="6.5" ry="8.85" transform="translate(1156.62 2694.98) rotate(-84.09)"/><ellipse class="cls-7" cx="2628.09" cy="161.37" rx="6.12" ry="12.25" transform="translate(1655.8 2608.32) rotate(-71.84)"/><ellipse class="cls-7" cx="2556.29" cy="218.79" rx="12.25" ry="6.12" transform="translate(-8.43 287.5) rotate(-6.43)"/><ellipse class="cls-8" cx="2677.37" cy="198.17" rx="6.12" ry="8.34" transform="translate(225.98 1292.82) rotate(-28.3)"/><ellipse class="cls-8" cx="1847.43" cy="169" rx="6.88" ry="5.05" transform="translate(-7.35 132.32) rotate(-4.09)"/><ellipse class="cls-7" cx="1879.43" cy="210" rx="11.1" ry="8.15" transform="translate(521.13 1525.82) rotate(-50.47)"/></g></g></svg>