<svg xmlns="http://www.w3.org/2000/svg" viewBox="0 0 2826.56 1118.75"><defs><style>.cls-1{isolation:isolate;}.cls-2,.cls-4{opacity:0.76;}.cls-3,.cls-4{fill:#ccdafd;}.cls-5{fill:#f0f4fe;}.cls-6{opacity:0.72;}.cls-7{opacity:0.7;}.cls-8{fill:#fff;mix-blend-mode:overlay;}</style></defs><title>fondo-grids-03</title><g class="cls-1"><g id="Fondos"><g class="cls-2"><ellipse class="cls-3" cx="646.57" cy="796.27" rx="5.42" ry="10.84" transform="translate(-335.34 499.68) rotate(-34.12)"/><ellipse class="cls-3" cx="635.73" cy="825.18" rx="3.74" ry="7.48" transform="translate(-353.41 498.58) rotate(-34.12)"/></g><g class="cls-2"><ellipse class="cls-3" cx="1247.45" cy="521.59" rx="5.42" ry="10.84" transform="translate(72.04 1189.88) rotate(-52.31)"/><ellipse class="cls-3" cx="1248.72" cy="490.75" rx="3.74" ry="7.48" transform="translate(96.94 1178.9) rotate(-52.31)"/></g><g class="cls-2"><ellipse class="cls-3" cx="484.45" cy="86.2" rx="10.84" ry="5.42" transform="translate(48.38 314.16) rotate(-37.69)"/><ellipse class="cls-3" cx="485.72" cy="117.04" rx="7.48" ry="3.74" transform="translate(29.79 321.37) rotate(-37.69)"/></g><g class="cls-2"><ellipse class="cls-3" cx="1986.55" cy="711.7" rx="6.5" ry="13" transform="translate(14.27 1462.03) rotate(-40.54)"/><ellipse class="cls-3" cx="2013.88" cy="618.03" rx="6.5" ry="13" transform="translate(-92.31 577.42) rotate(-15.96)"/><ellipse class="cls-3" cx="2042.58" cy="745.19" rx="6.5" ry="8.85" transform="translate(1090.92 2700.13) rotate(-84.09)"/></g><g class="cls-2"><ellipse class="cls-3" cx="2598.09" cy="200.37" rx="6.12" ry="12.25" transform="translate(1598.09 2606.66) rotate(-71.84)"/><ellipse class="cls-3" cx="2526.29" cy="257.79" rx="12.25" ry="6.12" transform="translate(-12.98 284.38) rotate(-6.43)"/><ellipse class="cls-3" cx="2647.37" cy="237.17" rx="6.12" ry="8.34" transform="translate(203.9 1283.25) rotate(-28.3)"/></g><ellipse class="cls-4" cx="1849.43" cy="249" rx="11.1" ry="8.15" transform="translate(480.15 1516.86) rotate(-50.47)"/><ellipse class="cls-3" cx="1817.43" cy="208" rx="6.88" ry="5.05" transform="translate(-10.21 130.27) rotate(-4.09)"/><path class="cls-5" d="M3.86,1117.41c326.13,0,108.5-426.63,388.5-556,461-213-62.37-561-388.5-561Z"/></g><g id="Covids"><path class="cls-5" d="M1027,281a4.59,4.59,0,0,0-7.17,3.33l-.06-.33c-10.56.58-15.09-1.11-17-2.7a38,38,0,0,0-.64-4c.25-.81,1.44-2.39,6.86-3.55l0-.21a3,3,0,0,0,.94,1.15,3,3,0,1,0-1.22-2.41c-.65.21-5.12,1.56-7.71.78a37.5,37.5,0,0,0-4.82-9.51c-.43-1.3-.54-5.39,10-12.79l-.05-.08a6.18,6.18,0,1,0-2.87-4.6,6,6,0,0,0,.79,2.43c-2,1.67-9.75,7.81-14.94,7.43a37.57,37.57,0,0,0-19-8.17c-1.19-.94-2.85-3.69-2.68-11.77l-.34,0a4.82,4.82,0,0,0,2.69-7.84,4.82,4.82,0,1,0-7.34,6.25,4.72,4.72,0,0,0,2.58,1.56c.07,1,.49,7.63-1.23,11.55a37.39,37.39,0,0,0-19.58,6.36,19.71,19.71,0,0,1-3.14-4.55l-.22.1a3.11,3.11,0,0,0,.9-1.31,3.22,3.22,0,1,0-2.11,2,24.53,24.53,0,0,1,2.64,5.16,38.28,38.28,0,0,0-7.58,7.78c-1.52-.1-4.74-1.18-10.73-6.53a5.83,5.83,0,0,0,.18-1.46,4.57,4.57,0,1,0-4.59,4.54,5.16,5.16,0,0,0,3-.94c1.51,1.15,7.74,6.11,8.7,10.16a37.57,37.57,0,0,0-3.73,15.48c-.77.77-3.22,2.29-10.33,1.6a3.73,3.73,0,0,0-.77-1.23,3.59,3.59,0,1,0-.12,5.08,3.55,3.55,0,0,0,1-1.91c1.77-.07,8.63-.17,10.5,2.39a37.74,37.74,0,0,0,16,26c.15,1.72-.11,6.92-7.27,13.69l.21.22a4.27,4.27,0,1,0,2.12,3.8,4.16,4.16,0,0,0-.77-2.55c.82-1,8.46-10,12.8-11.31a38,38,0,0,0,22.78,1.86c1.69.3,4.81,1.77,6.7,8.33a3.59,3.59,0,1,0,3.81-.95,3.56,3.56,0,0,0-2.14-.06c-.72-1.54-3.26-7.48-.89-9.89A37.62,37.62,0,0,0,991.61,312c2.31.13,5.93,1.81,11.46,7.57l.25-.18a4.22,4.22,0,0,0-.82,1.94,4.28,4.28,0,1,0,2.21-3.12c-.83-.68-6.9-5.78-9-11a37.23,37.23,0,0,0,3.64-6.16,49.9,49.9,0,0,1,5.47,2l.15-.27a4.27,4.27,0,1,0,8.27,0,4.26,4.26,0,0,0-7.45-1.62,44.71,44.71,0,0,1-5.58-2.1,37.72,37.72,0,0,0,2.51-10.38c4.33-3.8,15.91-2.64,17.29-2.48a4.6,4.6,0,1,0,7-5.27Z"/><g class="cls-6"><path class="cls-3" d="M1337,985.53a3.84,3.84,0,0,0-5.35,1,3.76,3.76,0,0,0-.66,1.78l0-.27c-8.83.48-12.62-.93-14.25-2.26a33.79,33.79,0,0,0-.53-3.37c.2-.68,1.2-2,5.74-3l0-.18a2.52,2.52,0,1,0,.26-2.55,2.45,2.45,0,0,0-.49,1.5c-.55.17-4.29,1.3-6.45.65a31.57,31.57,0,0,0-4-8c-.36-1.09-.45-4.51,8.37-10.71l0-.06a5.19,5.19,0,1,0-1.74-1.81c-1.68,1.39-8.17,6.53-12.51,6.22a31.33,31.33,0,0,0-15.86-6.84c-1-.79-2.38-3.09-2.23-9.85l-.29,0a4,4,0,0,0,1.79-.87,4.06,4.06,0,1,0-3.52.85c.06.86.4,6.38-1,9.66a31.37,31.37,0,0,0-16.39,5.32,16.47,16.47,0,0,1-2.63-3.8l-.18.08a2.69,2.69,0,1,0-2.7.51,2.72,2.72,0,0,0,1.69,0,20.54,20.54,0,0,1,2.21,4.32,31.81,31.81,0,0,0-6.34,6.51c-1.27-.09-4-1-9-5.46a5,5,0,0,0,.16-1.23,3.83,3.83,0,1,0-3.84,3.81,4.42,4.42,0,0,0,2.49-.79c1.26,1,6.47,5.1,7.28,8.5a31.42,31.42,0,0,0-3.12,13c-.64.64-2.7,1.91-8.65,1.33a3,3,0,0,0-.64-1,3,3,0,1,0-.1,4.24,3.06,3.06,0,0,0,.87-1.59c1.48-.06,7.22-.15,8.79,2a31.57,31.57,0,0,0,13.37,21.79c.13,1.44-.09,5.79-6.09,11.45l.18.19a3.5,3.5,0,0,0-1.7-.48,3.58,3.58,0,1,0,2.83,1.52c.68-.82,7.08-8.37,10.71-9.46a31.86,31.86,0,0,0,19.06,1.56c1.42.24,4,1.48,5.61,7a3,3,0,0,0-.63,1.06,3,3,0,1,0,2-1.91c-.6-1.29-2.72-6.26-.74-8.28a31.76,31.76,0,0,0,8.8-6.11c1.93.1,5,1.51,9.59,6.33l.21-.15a3.52,3.52,0,0,0-.69,1.62,3.57,3.57,0,1,0,4.06-3,3.54,3.54,0,0,0-2.21.38c-.69-.56-5.77-4.83-7.54-9.17a31.25,31.25,0,0,0,3-5.15,38.67,38.67,0,0,1,4.58,1.67l.13-.22a3.57,3.57,0,0,0,4.35,4.34,3.57,3.57,0,0,0-1.77-6.92,3.51,3.51,0,0,0-1.89,1.22,38.72,38.72,0,0,1-4.67-1.76,31.4,31.4,0,0,0,2.1-8.69c3.62-3.18,13.31-2.2,14.47-2.07a3.85,3.85,0,1,0,5.82-4.41Z"/><path class="cls-3" d="M1776.89,340.28a2.26,2.26,0,0,0-3.13.58,2.16,2.16,0,0,0-.38,1.05l0-.16c-5.16.28-7.38-.55-8.33-1.33a18.76,18.76,0,0,0-.31-2c.12-.39.7-1.17,3.36-1.73l0-.1a1.54,1.54,0,0,0,.46.56,1.47,1.47,0,1,0-.31-2.06,1.45,1.45,0,0,0-.29.88,8.21,8.21,0,0,1-3.77.38,18,18,0,0,0-2.36-4.65c-.21-.64-.26-2.64,4.89-6.26l0,0a3.07,3.07,0,0,0,1.92.45,3,3,0,1,0-2.94-1.51c-1,.81-4.77,3.82-7.3,3.63a18.45,18.45,0,0,0-9.27-4c-.58-.45-1.39-1.8-1.31-5.75h-.17a2.31,2.31,0,0,0,1.05-.52,2.36,2.36,0,1,0-3.32-.27,2.3,2.3,0,0,0,1.26.77c0,.5.24,3.73-.6,5.64a18.37,18.37,0,0,0-9.58,3.12,9.83,9.83,0,0,1-1.53-2.23l-.11.05a1.45,1.45,0,0,0,.44-.64,1.57,1.57,0,1,0-1,1,12,12,0,0,1,1.29,2.52,18.56,18.56,0,0,0-3.7,3.81c-.75-.05-2.33-.58-5.25-3.2a3.51,3.51,0,0,0,.09-.71,2.24,2.24,0,1,0-2.25,2.22,2.57,2.57,0,0,0,1.46-.46c.74.56,3.78,3,4.25,5a18.3,18.3,0,0,0-1.82,7.57c-.38.38-1.58,1.12-5,.78a1.76,1.76,0,1,0-.44,1.88,1.79,1.79,0,0,0,.51-.93c.87,0,4.22-.09,5.14,1.17a18.44,18.44,0,0,0,7.81,12.73c.08.84,0,3.39-3.56,6.7l.11.11a2.07,2.07,0,1,0,.66.6c.4-.47,4.14-4.89,6.26-5.53a18.32,18.32,0,0,0,7,1.38,18.83,18.83,0,0,0,4.14-.46c.82.14,2.35.86,3.27,4.07a1.68,1.68,0,0,0-.37.62,1.76,1.76,0,1,0,1.19-1.12c-.35-.75-1.59-3.66-.44-4.83a18.51,18.51,0,0,0,5.15-3.58c1.12.06,2.9.89,5.6,3.7l.12-.09a2.11,2.11,0,0,0-.4,1,2.08,2.08,0,1,0,2.37-1.75,2,2,0,0,0-1.29.22c-.4-.33-3.37-2.83-4.4-5.36a18.86,18.86,0,0,0,1.77-3,22.35,22.35,0,0,1,2.68,1l.07-.13a2,2,0,0,0,0,1,2.09,2.09,0,1,0,1.5-2.54,2.14,2.14,0,0,0-1.11.71,24.13,24.13,0,0,1-2.73-1,18.34,18.34,0,0,0,1.23-5.08c2.12-1.86,7.78-1.29,8.46-1.21a2.29,2.29,0,0,0,.85,1.13,2.25,2.25,0,1,0,2.55-3.71Z"/></g><g id="Stars" class="cls-7"><ellipse class="cls-8" cx="313.56" cy="672.54" rx="3.84" ry="4.33"/><ellipse class="cls-8" cx="1395.46" cy="512.14" rx="3.42" ry="3.46"/><ellipse class="cls-8" cx="1223" cy="516.95" rx="2.84" ry="2.87"/><ellipse class="cls-8" cx="740.82" cy="643.09" rx="3.48" ry="3.51"/><ellipse class="cls-8" cx="473.94" cy="521.37" rx="3.74" ry="4.22"/><ellipse class="cls-8" cx="63.01" cy="633.07" rx="4.03" ry="4.07"/><ellipse class="cls-8" cx="1415.25" cy="650.73" rx="1.67" ry="1.86"/><ellipse class="cls-8" cx="1273.88" cy="603.06" rx="4.51" ry="5.6"/><ellipse class="cls-8" cx="1362.08" cy="846.89" rx="2.7" ry="2.73"/><ellipse class="cls-8" cx="1143.86" cy="428.87" rx="2.72" ry="2.74"/><ellipse class="cls-8" cx="952.56" cy="953.66" rx="3.11" ry="3.14"/><ellipse class="cls-8" cx="160.53" cy="455.21" rx="4.22" ry="4.26"/><ellipse class="cls-8" cx="12.34" cy="339.82" rx="4.65" ry="4.7"/><ellipse class="cls-8" cx="106.09" cy="232.68" rx="3.91" ry="3.95"/><ellipse class="cls-8" cx="887.3" cy="650.54" rx="3" ry="3.03"/><ellipse class="cls-8" cx="630.83" cy="549.33" rx="4.41" ry="4.46"/><ellipse class="cls-8" cx="331.24" cy="305.21" rx="5.93" ry="5.99"/><ellipse class="cls-8" cx="1742.89" cy="537.4" rx="5.29" ry="6.58"/><ellipse class="cls-8" cx="1618.08" cy="694.25" rx="5.16" ry="6.42"/><ellipse class="cls-8" cx="843.86" cy="480.13" rx="3.67" ry="3.71"/><ellipse class="cls-8" cx="412.46" cy="394.23" rx="4.65" ry="4.69"/><ellipse class="cls-8" cx="220.21" cy="240.1" rx="2.77" ry="2.79"/><ellipse class="cls-8" cx="10.89" cy="633.78" rx="3.61" ry="3.65"/><ellipse class="cls-8" cx="2302.27" cy="603.83" rx="3.69" ry="3.73"/><ellipse class="cls-8" cx="1447.45" cy="686.12" rx="2.57" ry="2.86"/><ellipse class="cls-8" cx="1352.76" cy="649.95" rx="5.1" ry="6.33"/><ellipse class="cls-8" cx="1223.2" cy="683.1" rx="3.96" ry="4.92"/><ellipse class="cls-8" cx="689.67" cy="392.85" rx="4.05" ry="5.07"/><ellipse class="cls-8" cx="214.94" cy="607.26" rx="2.63" ry="2.66"/><ellipse class="cls-8" cx="408.97" cy="590.8" rx="3.49" ry="3.93"/><ellipse class="cls-8" cx="526.23" cy="415.46" rx="3.57" ry="4.03"/><ellipse class="cls-8" cx="125.72" cy="751.89" rx="3.84" ry="4.33"/><ellipse class="cls-8" cx="286.1" cy="634.28" rx="3.74" ry="4.22"/><ellipse class="cls-8" cx="221.14" cy="703.71" rx="3.49" ry="3.93"/><ellipse class="cls-8" cx="522.66" cy="666.5" rx="3.57" ry="4.03"/><ellipse class="cls-8" cx="85.91" cy="526.06" rx="3.84" ry="4.33"/><ellipse class="cls-8" cx="246.29" cy="374.9" rx="3.74" ry="4.22"/><ellipse class="cls-8" cx="181.32" cy="444.33" rx="3.49" ry="3.93"/><ellipse class="cls-8" cx="298.58" cy="268.99" rx="3.57" ry="4.03"/><ellipse class="cls-8" cx="1374.75" cy="986.39" rx="4.17" ry="4.64"/><ellipse class="cls-8" cx="1050.6" cy="439.76" rx="5.18" ry="5.23"/><ellipse class="cls-8" cx="740.82" cy="483.82" rx="5.91" ry="7.4"/><ellipse class="cls-8" cx="412.62" cy="97.74" rx="5.91" ry="7.4"/><ellipse class="cls-8" cx="337.17" cy="522.06" rx="4.79" ry="4.84"/><ellipse class="cls-8" cx="1820.24" cy="346.9" rx="4.96" ry="6.75"/><ellipse class="cls-8" cx="808.8" cy="161.4" rx="4.21" ry="5.27"/><ellipse class="cls-8" cx="694.58" cy="236.99" rx="5.19" ry="6.5"/><ellipse class="cls-8" cx="366.93" cy="257.84" rx="4.05" ry="4.09"/><ellipse class="cls-8" cx="1161.02" cy="535.8" rx="4.95" ry="6.15"/><ellipse class="cls-8" cx="2479.95" cy="677.86" rx="1.74" ry="0.64"/><ellipse class="cls-8" cx="1714.08" cy="848.08" rx="1.17" ry="0.47"/><ellipse class="cls-8" cx="1506.84" cy="763.04" rx="2.48" ry="2.76"/><ellipse class="cls-8" cx="2643.73" cy="491.47" rx="1.73" ry="0.63"/><ellipse class="cls-8" cx="1567.31" cy="804.84" rx="2.49" ry="1"/><ellipse class="cls-8" cx="1694.61" cy="993.27" rx="1.77" ry="0.65"/><ellipse class="cls-8" cx="2225.35" cy="209.11" rx="1.77" ry="0.88"/><ellipse class="cls-8" cx="1510.01" cy="864.22" rx="2.99" ry="3.02"/><ellipse class="cls-8" cx="2362.88" cy="851.11" rx="3.91" ry="3.95"/><ellipse class="cls-8" cx="2346.6" cy="959.99" rx="2.55" ry="2.58"/><ellipse class="cls-8" cx="2436.12" cy="739.02" rx="4.41" ry="4.46"/><ellipse class="cls-8" cx="1593.91" cy="434.39" rx="2.23" ry="2.25"/><ellipse class="cls-8" cx="1013.99" cy="740.17" rx="3.98" ry="4.02"/><ellipse class="cls-8" cx="903.97" cy="420.83" rx="5" ry="6.26"/><ellipse class="cls-8" cx="1053.6" cy="296.06" rx="3.83" ry="3.87"/><ellipse class="cls-8" cx="1467.45" cy="296.7" rx="4" ry="5.44"/><ellipse class="cls-8" cx="1916.82" cy="265.6" rx="4.32" ry="5.88"/><ellipse class="cls-8" cx="2778.06" cy="670.49" rx="2.04" ry="2.06"/><ellipse class="cls-8" cx="2759.39" cy="606.76" rx="1.34" ry="0.49"/><ellipse class="cls-8" cx="2546.99" cy="646.4" rx="3.52" ry="3.55"/><ellipse class="cls-8" cx="1663.73" cy="788.28" rx="1.65" ry="1.84"/><ellipse class="cls-8" cx="1430.05" cy="691.99" rx="3.94" ry="4.89"/><ellipse class="cls-8" cx="2813.52" cy="501.72" rx="5.76" ry="5.82"/><ellipse class="cls-8" cx="1696.38" cy="355.97" rx="3.7" ry="5.04"/><ellipse class="cls-8" cx="1260.84" cy="993.08" rx="1.66" ry="1.68"/><ellipse class="cls-8" cx="2816.4" cy="710.15" rx="2.88" ry="2.9"/><ellipse class="cls-8" cx="2416.65" cy="660.05" rx="5.13" ry="5.18"/><ellipse class="cls-8" cx="1417.73" cy="751.05" rx="2.48" ry="2.76"/><ellipse class="cls-8" cx="1351.94" cy="403.82" rx="3.76" ry="3.8"/><ellipse class="cls-8" cx="1335.14" cy="1065.76" rx="3.12" ry="3.15"/><ellipse class="cls-8" cx="1144.65" cy="171.78" rx="4.84" ry="4.89"/><ellipse class="cls-8" cx="828.32" cy="240.55" rx="2.99" ry="3.75"/><ellipse class="cls-8" cx="1295.82" cy="273.57" rx="3.22" ry="3.25"/><ellipse class="cls-8" cx="1645.27" cy="130.03" rx="3.82" ry="5.19"/><ellipse class="cls-8" cx="937.69" cy="174.18" rx="3.85" ry="4.82"/><ellipse class="cls-8" cx="531.99" cy="213.21" rx="3.12" ry="3.15"/><ellipse class="cls-8" cx="659.98" cy="193.75" rx="1.89" ry="2.37"/><ellipse class="cls-8" cx="767.65" cy="170.18" rx="3.75" ry="4.69"/><ellipse class="cls-8" cx="1430.05" cy="97.92" rx="2.07" ry="2.82"/><ellipse class="cls-8" cx="885.78" cy="146.11" rx="4.15" ry="5.2"/><ellipse class="cls-8" cx="455.49" cy="201.66" rx="4.2" ry="4.24"/><ellipse class="cls-8" cx="1285.77" cy="190.08" rx="3.86" ry="3.9"/><ellipse class="cls-8" cx="758" cy="240.49" rx="3.06" ry="3.83"/><ellipse class="cls-8" cx="2416.09" cy="78.06" rx="3.88" ry="5.28"/><ellipse class="cls-8" cx="1722.35" cy="152.17" rx="3.69" ry="5.02"/><ellipse class="cls-8" cx="2028.72" cy="143.87" rx="3.03" ry="4.13"/><ellipse class="cls-8" cx="1353.52" cy="132.32" rx="6.37" ry="8.71"/><ellipse class="cls-8" cx="1401.82" cy="232.98" rx="3.03" ry="4.12"/><ellipse class="cls-8" cx="1103.4" cy="230.85" rx="1.66" ry="1.68"/><ellipse class="cls-8" cx="2343.09" cy="121" rx="2.68" ry="3.65"/><ellipse class="cls-8" cx="2125.35" cy="109.86" rx="2.09" ry="2.84"/><ellipse class="cls-8" cx="2164.98" cy="219.37" rx="2.01" ry="2.73"/><ellipse class="cls-8" cx="1918.17" cy="171.93" rx="3.47" ry="4.72"/><ellipse class="cls-8" cx="1535.59" cy="95.42" rx="1.63" ry="2.21"/><ellipse class="cls-8" cx="2290.93" cy="196.47" rx="3.97" ry="5.4"/><ellipse class="cls-8" cx="1465.55" cy="412.24" rx="4" ry="4.04"/><ellipse class="cls-8" cx="2631.75" cy="410.02" rx="3.59" ry="4.88"/><ellipse class="cls-8" cx="2203.84" cy="135.54" rx="4.62" ry="6.29"/><ellipse class="cls-8" cx="1594.14" cy="185.16" rx="4.45" ry="6.05"/><ellipse class="cls-8" cx="1092.62" cy="142.06" rx="6.05" ry="6.11"/><ellipse class="cls-8" cx="2025.69" cy="289.48" rx="5.94" ry="8.08"/><ellipse class="cls-8" cx="1771.49" cy="375.53" rx="5.94" ry="8.08"/><ellipse class="cls-8" cx="1598.59" cy="753.1" rx="5.94" ry="8.08"/><ellipse class="cls-8" cx="2624.25" cy="62.77" rx="4.32" ry="5.88"/><ellipse class="cls-8" cx="2619.93" cy="252.56" rx="2.92" ry="3.97"/><ellipse class="cls-8" cx="2475.24" cy="141.25" rx="5.78" ry="7.87"/><ellipse class="cls-8" cx="2460.52" cy="582.38" rx="1.37" ry="1.86"/><ellipse class="cls-8" cx="2559.18" cy="526" rx="4.99" ry="6.79"/><ellipse class="cls-8" cx="2754.09" cy="188.32" rx="5.81" ry="7.91"/><ellipse class="cls-8" cx="2565.21" cy="566.62" rx="2.55" ry="3.47"/><ellipse class="cls-8" cx="2312.39" cy="135.43" rx="4.73" ry="6.43"/><ellipse class="cls-8" cx="19.05" cy="55.26" rx="5.36" ry="5.41"/><ellipse class="cls-8" cx="301.21" cy="120" rx="2.94" ry="2.97"/><ellipse class="cls-8" cx="24.41" cy="200.58" rx="4.37" ry="1.6"/><ellipse class="cls-8" cx="914.34" cy="81.71" rx="5.24" ry="6.56"/><ellipse class="cls-8" cx="554.67" cy="122.79" rx="4.19" ry="4.24"/><ellipse class="cls-8" cx="1519.77" cy="156.11" rx="5.8" ry="7.89"/><ellipse class="cls-8" cx="1003.32" cy="619.2" rx="4.19" ry="5.7"/><ellipse class="cls-8" cx="1834.13" cy="67.66" rx="2.3" ry="3.13"/><ellipse class="cls-8" cx="119.98" cy="99.32" rx="3.71" ry="3.75"/><ellipse class="cls-8" cx="366.26" cy="200.26" rx="2.77" ry="2.8"/><ellipse class="cls-8" cx="713.21" cy="128.7" rx="4.3" ry="5.38"/><ellipse class="cls-8" cx="1262.6" cy="125.89" rx="2.25" ry="2.27"/><ellipse class="cls-8" cx="192.11" cy="176.77" rx="5.48" ry="5.54"/><ellipse class="cls-8" cx="1142.47" cy="287.04" rx="4.84" ry="4.89"/><ellipse class="cls-8" cx="826.36" cy="368.61" rx="2.99" ry="3.75"/><ellipse class="cls-8" cx="1293.92" cy="374.04" rx="3.22" ry="3.25"/><ellipse class="cls-8" cx="1619.24" cy="315.38" rx="3.82" ry="5.19"/><ellipse class="cls-8" cx="948.74" cy="282.23" rx="3.85" ry="4.82"/><ellipse class="cls-8" cx="963.74" cy="294.23" rx="2.26" ry="2.83"/><ellipse class="cls-8" cx="529.8" cy="328.48" rx="3.12" ry="3.15"/><ellipse class="cls-8" cx="658.03" cy="321.8" rx="1.89" ry="2.37"/><ellipse class="cls-8" cx="607.72" cy="427.99" rx="3.75" ry="4.69"/><ellipse class="cls-8" cx="850.34" cy="278.95" rx="3.75" ry="4.69"/><ellipse class="cls-8" cx="1442.08" cy="291.93" rx="2.07" ry="2.82"/><ellipse class="cls-8" cx="590.91" cy="272.35" rx="4.15" ry="5.2"/><ellipse class="cls-8" cx="453.31" cy="316.92" rx="4.2" ry="4.24"/><ellipse class="cls-8" cx="1283.86" cy="290.55" rx="3.86" ry="3.9"/><ellipse class="cls-8" cx="756.04" cy="368.54" rx="3.06" ry="3.83"/><ellipse class="cls-8" cx="2413.9" cy="233.37" rx="3.88" ry="5.28"/><ellipse class="cls-8" cx="2209.84" cy="296.46" rx="2.13" ry="2.9"/><ellipse class="cls-8" cx="1720.45" cy="287.55" rx="3.69" ry="5.02"/><ellipse class="cls-8" cx="1347.7" cy="358.45" rx="4.19" ry="4.24"/><ellipse class="cls-8" cx="1399.92" cy="364.95" rx="3.03" ry="3.06"/><ellipse class="cls-8" cx="1101.22" cy="346.11" rx="1.66" ry="1.68"/><ellipse class="cls-8" cx="2402.4" cy="460.65" rx="2.09" ry="2.84"/><ellipse class="cls-8" cx="2123.17" cy="265.18" rx="2.09" ry="2.84"/><ellipse class="cls-8" cx="2774.21" cy="378.35" rx="2.33" ry="3.17"/><ellipse class="cls-8" cx="1533.69" cy="280.14" rx="1.63" ry="2.21"/><ellipse class="cls-8" cx="2288.74" cy="354.82" rx="3.97" ry="4.01"/><ellipse class="cls-8" cx="1564.72" cy="911.97" rx="2.59" ry="1.05"/><ellipse class="cls-8" cx="2766.54" cy="276.13" rx="1.89" ry="2.58"/><ellipse class="cls-8" cx="1503.14" cy="695.35" rx="1.76" ry="1.96"/><ellipse class="cls-8" cx="1495.43" cy="660.43" rx="2.97" ry="3"/><ellipse class="cls-8" cx="2634.2" cy="162.84" rx="2.52" ry="3.43"/><ellipse class="cls-8" cx="2586.81" cy="190.72" rx="1.74" ry="2.37"/><ellipse class="cls-8" cx="2672.6" cy="203.86" rx="3.75" ry="5.11"/><ellipse class="cls-8" cx="2633.87" cy="393.07" rx="1.14" ry="1.55"/><ellipse class="cls-8" cx="2716.15" cy="346.05" rx="4.16" ry="5.67"/><ellipse class="cls-8" cx="2721.17" cy="379.93" rx="2.13" ry="2.9"/><ellipse class="cls-8" cx="2566.88" cy="200.09" rx="3.07" ry="4.17"/><ellipse class="cls-8" cx="2632.78" cy="263.67" rx="2.52" ry="3.43"/><ellipse class="cls-8" cx="2592.72" cy="472.51" rx="1.36" ry="1.85"/><ellipse class="cls-8" cx="2428.98" cy="503.44" rx="1.74" ry="0.64"/><ellipse class="cls-8" cx="2496.02" cy="471.97" rx="3.52" ry="3.55"/><ellipse class="cls-8" cx="2365.68" cy="485.63" rx="5.13" ry="5.18"/><ellipse class="cls-8" cx="2409.55" cy="407.96" rx="1.37" ry="1.86"/><ellipse class="cls-8" cx="2508.22" cy="351.58" rx="4.99" ry="6.79"/><ellipse class="cls-8" cx="2514.24" cy="392.2" rx="2.55" ry="3.47"/><ellipse class="cls-8" cx="2351.44" cy="286.22" rx="2.09" ry="2.84"/><ellipse class="cls-8" cx="2541.75" cy="298.08" rx="1.36" ry="1.85"/><ellipse class="cls-8" cx="2521.9" cy="838.03" rx="2.92" ry="3.97"/><ellipse class="cls-8" cx="2750.22" cy="703.42" rx="3.23" ry="4.39"/><ellipse class="cls-8" cx="2603.77" cy="716.72" rx="4.31" ry="5.87"/><ellipse class="cls-8" cx="2522.61" cy="730.91" rx="2.98" ry="4.06"/><ellipse class="cls-8" cx="2758.68" cy="717.33" rx="1.56" ry="2.12"/><ellipse class="cls-8" cx="2668.51" cy="861.59" rx="1.89" ry="2.58"/><ellipse class="cls-8" cx="2669.54" cy="753.43" rx="6.43" ry="8.75"/><ellipse class="cls-8" cx="2618.12" cy="931.52" rx="4.16" ry="5.67"/><ellipse class="cls-8" cx="2488.47" cy="746.96" rx="5.25" ry="7.15"/><ellipse class="cls-8" cx="2534.75" cy="849.14" rx="2.52" ry="3.43"/><ellipse class="cls-8" cx="2487.37" cy="877.02" rx="1.74" ry="2.37"/><ellipse class="cls-8" cx="2647.47" cy="688.38" rx="1.62" ry="2.2"/><ellipse class="cls-8" cx="2721.93" cy="652.73" rx="3.23" ry="4.39"/><ellipse class="cls-8" cx="2655.39" cy="638.59" rx="1.4" ry="1.9"/><ellipse class="cls-8" cx="2437.82" cy="657.93" rx="1.74" ry="2.37"/><ellipse class="cls-8" cx="2730.4" cy="633.08" rx="1.56" ry="2.12"/><ellipse class="cls-8" cx="2728.84" cy="701.46" rx="1.05" ry="1.43"/><ellipse class="cls-8" cx="2676.71" cy="661.35" rx="2.08" ry="2.84"/><ellipse class="cls-8" cx="2685.92" cy="536.58" rx="7.13" ry="9.7"/><ellipse class="cls-8" cx="2654.61" cy="694.55" rx="1.4" ry="1.9"/><ellipse class="cls-8" cx="2400.31" cy="712.34" rx="1.74" ry="2.37"/><ellipse class="cls-8" cx="1144.09" cy="570.83" rx="1.74" ry="0.64"/><ellipse class="cls-8" cx="1307.87" cy="384.44" rx="1.73" ry="0.63"/><ellipse class="cls-8" cx="1100.25" cy="665.55" rx="4.41" ry="4.46"/><ellipse class="cls-8" cx="1442.2" cy="563.46" rx="2.04" ry="2.06"/><ellipse class="cls-8" cx="1423.53" cy="499.73" rx="1.34" ry="0.49"/><ellipse class="cls-8" cx="1211.12" cy="539.37" rx="3.52" ry="3.55"/><ellipse class="cls-8" cx="1477.65" cy="394.69" rx="5.76" ry="5.82"/><ellipse class="cls-8" cx="1480.54" cy="603.12" rx="2.88" ry="2.9"/><ellipse class="cls-8" cx="1295.88" cy="302.99" rx="3.59" ry="4.88"/><ellipse class="cls-8" cx="1260.35" cy="222.24" rx="2.92" ry="3.97"/><ellipse class="cls-8" cx="1124.65" cy="475.35" rx="1.37" ry="1.86"/><ellipse class="cls-8" cx="1223.32" cy="418.97" rx="4.99" ry="6.79"/><ellipse class="cls-8" cx="1229.34" cy="459.59" rx="2.55" ry="3.47"/><ellipse class="cls-8" cx="1438.34" cy="271.32" rx="2.33" ry="3.17"/><ellipse class="cls-8" cx="1430.67" cy="169.1" rx="1.89" ry="2.58"/><ellipse class="cls-8" cx="1298" cy="286.04" rx="1.14" ry="1.55"/><ellipse class="cls-8" cx="1380.28" cy="239.02" rx="4.16" ry="5.67"/><ellipse class="cls-8" cx="1385.31" cy="272.9" rx="2.13" ry="2.9"/><ellipse class="cls-8" cx="1296.92" cy="156.64" rx="2.52" ry="3.43"/><ellipse class="cls-8" cx="1256.85" cy="365.47" rx="1.36" ry="1.85"/><ellipse class="cls-8" cx="626.69" cy="697.91" rx="3.22" ry="3.25"/><ellipse class="cls-8" cx="624.79" cy="798.38" rx="3.22" ry="3.25"/><ellipse class="cls-8" cx="614.74" cy="714.89" rx="3.86" ry="3.9"/><ellipse class="cls-8" cx="626.76" cy="727.33" rx="3.59" ry="4.88"/><ellipse class="cls-8" cx="628.87" cy="710.38" rx="1.14" ry="1.55"/><ellipse class="cls-8" cx="587.73" cy="789.81" rx="1.36" ry="1.85"/><ellipse class="cls-8" cx="1160.16" cy="364.94" rx="3.52" ry="3.55"/><ellipse class="cls-8" cx="1172.35" cy="244.55" rx="4.99" ry="6.79"/><ellipse class="cls-8" cx="1178.38" cy="285.17" rx="2.55" ry="3.47"/><ellipse class="cls-8" cx="1205.89" cy="191.05" rx="1.36" ry="1.85"/><ellipse class="cls-8" cx="1414.35" cy="629.95" rx="3.23" ry="4.39"/><ellipse class="cls-8" cx="1297.9" cy="958.94" rx="2.6" ry="3.53"/><ellipse class="cls-8" cx="1313.9" cy="997.94" rx="2.97" ry="2.18" transform="translate(-104.52 155.14) rotate(-6.5)"/><ellipse class="cls-8" cx="1186.74" cy="657.44" rx="2.98" ry="4.06"/><ellipse class="cls-8" cx="1422.82" cy="610.3" rx="1.56" ry="2.12"/><ellipse class="cls-8" cx="1333.67" cy="679.95" rx="6.43" ry="8.75"/><ellipse class="cls-8" cx="1152.6" cy="673.48" rx="5.25" ry="7.15"/><ellipse class="cls-8" cx="1311.61" cy="581.35" rx="1.62" ry="2.2"/><ellipse class="cls-8" cx="1386.07" cy="545.69" rx="3.23" ry="4.39"/><ellipse class="cls-8" cx="1319.53" cy="531.55" rx="1.4" ry="1.9"/><ellipse class="cls-8" cx="1101.95" cy="550.9" rx="1.74" ry="2.37"/><ellipse class="cls-8" cx="1394.53" cy="526.05" rx="1.56" ry="2.12"/><ellipse class="cls-8" cx="1392.98" cy="594.43" rx="1.05" ry="1.43"/><ellipse class="cls-8" cx="1340.84" cy="554.32" rx="2.08" ry="2.84"/><ellipse class="cls-8" cx="1600.1" cy="516.39" rx="3.42" ry="3.46"/><ellipse class="cls-8" cx="1646.85" cy="567.7" rx="2.04" ry="2.06"/><ellipse class="cls-8" cx="1628.17" cy="503.98" rx="1.34" ry="0.49"/><ellipse class="cls-8" cx="1590.71" cy="549.94" rx="3.23" ry="4.39"/><ellipse class="cls-8" cx="1599.18" cy="530.29" rx="1.56" ry="2.12"/><ellipse class="cls-8" cx="1545.49" cy="558.57" rx="2.08" ry="2.84"/><ellipse class="cls-8" cx="1350.06" cy="429.55" rx="7.13" ry="9.7"/><ellipse class="cls-8" cx="1318.74" cy="587.52" rx="1.4" ry="1.9"/><ellipse class="cls-8" cx="2007.58" cy="307.76" rx="2.18" ry="3.37" transform="translate(-5.6 39.03) rotate(-1.11)"/><ellipse class="cls-8" cx="1946.34" cy="190.97" rx="3.53" ry="4.44" transform="translate(-0.2 2.08) rotate(-0.06)"/><ellipse class="cls-8" cx="2145.76" cy="371.75" rx="3.94" ry="3.43" transform="translate(1720.32 2507.51) rotate(-88.56)"/><ellipse class="cls-8" cx="2074.5" cy="261.44" rx="2.4" ry="3.71" transform="translate(-4.68 40.32) rotate(-1.11)"/><ellipse class="cls-8" cx="2154.84" cy="202" rx="2.05" ry="3.17" transform="translate(-3.52 41.87) rotate(-1.11)"/><ellipse class="cls-8" cx="2072.84" cy="373.58" rx="2.55" ry="3.94" transform="translate(-6.86 40.31) rotate(-1.11)"/><ellipse class="cls-8" cx="2091.42" cy="203.35" rx="2.05" ry="3.17" transform="translate(-3.55 40.63) rotate(-1.11)"/><ellipse class="cls-8" cx="2147.96" cy="346.61" rx="2.04" ry="1.78" transform="translate(1747.59 2485.2) rotate(-88.56)"/><ellipse class="cls-8" cx="2143.75" cy="190.78" rx="2.46" ry="3.8" transform="translate(-3.3 41.65) rotate(-1.11)"/><ellipse class="cls-8" cx="2102.98" cy="255.81" rx="2.67" ry="4.13" transform="translate(-4.57 40.87) rotate(-1.11)"/><ellipse class="cls-8" cx="2100.56" cy="307.44" rx="1.93" ry="2.98" transform="translate(-5.57 40.83) rotate(-1.11)"/><ellipse class="cls-8" cx="2085.31" cy="217.42" rx="0.4" ry="1.71" transform="translate(-5.81 65.77) rotate(-1.8)"/><ellipse class="cls-8" cx="1976.72" cy="355.44" rx="1.3" ry="2.01" transform="translate(-6.53 38.44) rotate(-1.11)"/><ellipse class="cls-8" cx="2016.31" cy="335.01" rx="0.31" ry="1.32" transform="translate(-9.55 63.66) rotate(-1.8)"/><ellipse class="cls-8" cx="2084.29" cy="384.93" rx="3.67" ry="5.68" transform="translate(-7.08 40.53) rotate(-1.11)"/><ellipse class="cls-8" cx="1952.93" cy="394.46" rx="1.83" ry="2.83" transform="translate(-7.29 37.98) rotate(-1.11)"/><ellipse class="cls-8" cx="1891.96" cy="412.03" rx="0.88" ry="1.39" transform="translate(-7.64 36.8) rotate(-1.11)"/><ellipse class="cls-8" cx="1902.95" cy="420.35" rx="1.83" ry="1.94" transform="translate(-7.8 37.02) rotate(-1.11)"/><ellipse class="cls-8" cx="2136.29" cy="203.01" rx="3.54" ry="3.08" transform="translate(1879.77 2333.54) rotate(-88.56)"/><ellipse class="cls-8" cx="2147.05" cy="204.55" rx="1.13" ry="0.98" transform="translate(1888.72 2345.8) rotate(-88.56)"/><ellipse class="cls-8" cx="2095.63" cy="166.59" rx="1.34" ry="1.16" transform="translate(1876.55 2257.38) rotate(-88.56)"/><ellipse class="cls-8" cx="1946.55" cy="337.86" rx="1.53" ry="1.34" transform="translate(1559.99 2275.32) rotate(-88.56)"/><ellipse class="cls-8" cx="1961.25" cy="227.42" rx="1.6" ry="1.39" transform="translate(1684.71 2182.35) rotate(-88.56)"/><ellipse class="cls-8" cx="1986.12" cy="299.6" rx="3.18" ry="2.77" transform="translate(1636.81 2277.58) rotate(-88.56)"/><ellipse class="cls-8" cx="1992.9" cy="233.63" rx="1.38" ry="1.2" transform="translate(1709.37 2220.04) rotate(-88.56)"/><ellipse class="cls-8" cx="1998.78" cy="307.3" rx="1.53" ry="1.34" transform="translate(1641.45 2297.75) rotate(-88.56)"/><ellipse class="cls-8" cx="1955.61" cy="307.96" rx="1.04" ry="0.9" transform="translate(1598.7 2255.23) rotate(-88.56)"/><ellipse class="cls-8" cx="1979.23" cy="255.34" rx="2.05" ry="1.79" transform="translate(1674.33 2227.54) rotate(-88.56)"/><ellipse class="cls-8" cx="2058.21" cy="260.41" rx="7.03" ry="6.12" transform="translate(1746.27 2311.45) rotate(-88.56)"/><ellipse class="cls-8" cx="2494.91" cy="572.04" rx="2.61" ry="2.26" transform="translate(1700.16 3005.18) rotate(-84.83)"/><ellipse class="cls-8" cx="2371.75" cy="593.23" rx="2.61" ry="2.26" transform="translate(1567.01 2901.8) rotate(-84.83)"/><ellipse class="cls-8" cx="2367.22" cy="532.57" rx="3.11" ry="2.86" transform="translate(543.19 2132.65) rotate(-53.94)"/><ellipse class="cls-8" cx="2426.58" cy="622.63" rx="2.66" ry="2.44" transform="matrix(0.59, -0.81, 0.81, 0.59, 494.8, 2217.68)"/><ellipse class="cls-8" cx="2415.76" cy="544.53" rx="2.66" ry="2.44" transform="translate(553.49 2176.81) rotate(-53.94)"/><ellipse class="cls-8" cx="2433.75" cy="607.2" rx="3.19" ry="2.93" transform="translate(510.22 2217.13) rotate(-53.94)"/><ellipse class="cls-8" cx="2376.05" cy="566.86" rx="3.47" ry="3.19" transform="matrix(0.59, -0.81, 0.81, 0.59, 519.1, 2153.9)"/><ellipse class="cls-8" cx="2403.69" cy="539.15" rx="1.38" ry="0.5" transform="translate(-58.3 622.82) rotate(-14.59)"/><ellipse class="cls-8" cx="2422.93" cy="599.88" rx="2.84" ry="3.84" transform="translate(-28.28 128.69) rotate(-3.02)"/><ellipse class="cls-8" cx="2423.36" cy="613.39" rx="0.9" ry="1.22" transform="translate(-28.99 128.73) rotate(-3.02)"/><ellipse class="cls-8" cx="2445.48" cy="544.08" rx="1.07" ry="1.45" transform="translate(-25.3 129.8) rotate(-3.02)"/><ellipse class="cls-8" cx="2365.53" cy="512.3" rx="5.64" ry="7.64" transform="translate(-23.74 125.54) rotate(-3.02)"/><ellipse class="cls-8" cx="2371.05" cy="402.77" rx="2.61" ry="2.26" transform="translate(1756.06 2727.84) rotate(-84.83)"/><ellipse class="cls-8" cx="2247.9" cy="423.96" rx="2.61" ry="2.26" transform="matrix(0.09, -1, 1, 0.09, 1622.91, 2624.45)"/><ellipse class="cls-8" cx="2243.37" cy="363.3" rx="3.11" ry="2.86" transform="translate(629.08 1962.91) rotate(-53.94)"/><ellipse class="cls-8" cx="2302.72" cy="453.36" rx="2.66" ry="2.44" transform="translate(580.69 2047.94) rotate(-53.94)"/><ellipse class="cls-8" cx="2291.91" cy="375.26" rx="2.66" ry="2.44" transform="translate(639.37 2007.07) rotate(-53.94)"/><ellipse class="cls-8" cx="2309.9" cy="437.94" rx="3.19" ry="2.93" transform="translate(596.11 2047.39) rotate(-53.94)"/><ellipse class="cls-8" cx="2252.2" cy="397.6" rx="3.47" ry="3.19" transform="translate(604.99 1984.16) rotate(-53.94)"/><ellipse class="cls-8" cx="2279.84" cy="369.88" rx="1.38" ry="0.5" transform="translate(-19.66 586.17) rotate(-14.59)"/><ellipse class="cls-8" cx="2299.08" cy="430.61" rx="2.84" ry="3.84" transform="translate(-19.52 121.92) rotate(-3.02)"/><ellipse class="cls-8" cx="2299.51" cy="444.13" rx="0.9" ry="1.22" transform="translate(-20.23 121.96) rotate(-3.02)"/><ellipse class="cls-8" cx="2321.63" cy="374.81" rx="1.07" ry="1.45" transform="translate(-16.54 123.03) rotate(-3.02)"/><ellipse class="cls-8" cx="2241.68" cy="343.03" rx="5.64" ry="7.64" transform="translate(-14.98 118.77) rotate(-3.02)"/><ellipse class="cls-8" cx="1957.59" cy="234.65" rx="1.38" ry="1.2" transform="translate(1673.92 2185.73) rotate(-88.56)"/><ellipse class="cls-8" cx="1716.32" cy="348.32" rx="3.03" ry="4.13"/><ellipse class="cls-8" cx="1812.94" cy="314.32" rx="2.09" ry="2.84"/><ellipse class="cls-8" cx="1852.58" cy="423.82" rx="2.01" ry="2.73"/><ellipse class="cls-8" cx="1713.28" cy="493.93" rx="5.94" ry="8.08"/><ellipse class="cls-8" cx="1810.76" cy="469.63" rx="2.09" ry="2.84"/><ellipse class="cls-8" cx="1695.18" cy="512.22" rx="2.18" ry="3.37" transform="translate(-9.62 33) rotate(-1.11)"/><ellipse class="cls-8" cx="1633.94" cy="395.42" rx="3.53" ry="4.44" transform="translate(-0.42 1.75) rotate(-0.06)"/><ellipse class="cls-8" cx="1762.09" cy="465.89" rx="2.4" ry="3.71" transform="translate(-8.71 34.29) rotate(-1.11)"/><ellipse class="cls-8" cx="1842.44" cy="406.46" rx="2.05" ry="3.17" transform="translate(-7.54 35.84) rotate(-1.11)"/><ellipse class="cls-8" cx="1779.02" cy="407.81" rx="2.05" ry="3.17" transform="translate(-7.58 34.61) rotate(-1.11)"/><ellipse class="cls-8" cx="1835.55" cy="551.06" rx="2.04" ry="1.78" transform="translate(1238.63 2372.22) rotate(-88.56)"/><ellipse class="cls-8" cx="1831.35" cy="395.23" rx="2.46" ry="3.8" transform="translate(-7.33 35.62) rotate(-1.11)"/><ellipse class="cls-8" cx="1790.57" cy="460.26" rx="2.67" ry="4.13" transform="translate(-8.6 34.84) rotate(-1.11)"/><ellipse class="cls-8" cx="1788.15" cy="511.89" rx="1.93" ry="2.98" transform="translate(-9.6 34.81) rotate(-1.11)"/><ellipse class="cls-8" cx="1772.91" cy="421.88" rx="0.4" ry="1.71" transform="translate(-12.41 56.04) rotate(-1.8)"/><ellipse class="cls-8" cx="1664.31" cy="559.89" rx="1.3" ry="2.01" transform="translate(-10.55 32.41) rotate(-1.11)"/><ellipse class="cls-8" cx="1703.9" cy="539.46" rx="0.31" ry="1.32" transform="translate(-16.14 53.92) rotate(-1.8)"/><ellipse class="cls-8" cx="1823.89" cy="407.46" rx="3.54" ry="3.08" transform="translate(1370.81 2220.56) rotate(-88.56)"/><ellipse class="cls-8" cx="1834.64" cy="409.01" rx="1.13" ry="0.98" transform="matrix(0.03, -1, 1, 0.03, 1379.76, 2232.82)"/><ellipse class="cls-8" cx="1783.23" cy="371.04" rx="1.34" ry="1.16" transform="translate(1367.59 2144.4) rotate(-88.56)"/><ellipse class="cls-8" cx="1634.15" cy="542.31" rx="1.53" ry="1.34" transform="translate(1051.03 2162.34) rotate(-88.56)"/><ellipse class="cls-8" cx="1648.84" cy="431.88" rx="1.6" ry="1.39" transform="translate(1175.75 2069.37) rotate(-88.56)"/><ellipse class="cls-8" cx="1673.71" cy="504.05" rx="3.18" ry="2.77" transform="translate(1127.85 2164.6) rotate(-88.56)"/><ellipse class="cls-8" cx="1680.5" cy="438.08" rx="1.38" ry="1.2" transform="translate(1200.41 2107.06) rotate(-88.56)"/><ellipse class="cls-8" cx="1686.38" cy="511.75" rx="1.53" ry="1.34" transform="translate(1132.49 2184.77) rotate(-88.56)"/><ellipse class="cls-8" cx="1643.2" cy="512.41" rx="1.04" ry="0.9" transform="translate(1089.74 2142.25) rotate(-88.56)"/><ellipse class="cls-8" cx="1666.82" cy="459.79" rx="2.05" ry="1.79" transform="translate(1165.37 2114.56) rotate(-88.56)"/><ellipse class="cls-8" cx="1645.18" cy="439.1" rx="1.38" ry="1.2" transform="translate(1164.96 2072.75) rotate(-88.56)"/><ellipse class="cls-8" cx="895.74" cy="601.34" rx="3.42" ry="3.46"/><ellipse class="cls-8" cx="723.28" cy="606.15" rx="2.84" ry="2.87"/><ellipse class="cls-8" cx="915.54" cy="706.37" rx="1.67" ry="1.86"/><ellipse class="cls-8" cx="774.16" cy="692.26" rx="4.51" ry="5.6"/><ellipse class="cls-8" cx="853.04" cy="705.59" rx="5.1" ry="6.33"/><ellipse class="cls-8" cx="723.48" cy="738.74" rx="3.96" ry="4.92"/><ellipse class="cls-8" cx="852.22" cy="493.02" rx="3.76" ry="3.8"/><ellipse class="cls-8" cx="794.2" cy="463.24" rx="3.22" ry="3.25"/><ellipse class="cls-8" cx="847.98" cy="447.65" rx="4.19" ry="4.24"/><ellipse class="cls-8" cx="900.2" cy="454.15" rx="3.03" ry="3.06"/><ellipse class="cls-8" cx="808.15" cy="473.63" rx="1.73" ry="0.63"/><ellipse class="cls-8" cx="923.81" cy="588.93" rx="1.34" ry="0.49"/><ellipse class="cls-8" cx="711.41" cy="628.57" rx="3.52" ry="3.55"/><ellipse class="cls-8" cx="729.63" cy="548.79" rx="2.55" ry="3.47"/><ellipse class="cls-8" cx="757.14" cy="454.67" rx="1.36" ry="1.85"/><ellipse class="cls-8" cx="914.64" cy="719.15" rx="3.23" ry="4.39"/><ellipse class="cls-8" cx="1013.64" cy="519.27" rx="4.31" ry="5.87"/><ellipse class="cls-8" cx="687.03" cy="713.08" rx="2.98" ry="4.06"/><ellipse class="cls-8" cx="923.1" cy="699.5" rx="1.56" ry="2.12"/><ellipse class="cls-8" cx="1745.81" cy="464.87" rx="7.03" ry="6.12" transform="translate(1237.31 2198.47) rotate(-88.56)"/><ellipse class="cls-8" cx="723.6" cy="508.17" rx="4.99" ry="6.79"/><ellipse class="cls-8" cx="833.96" cy="735.6" rx="6.43" ry="8.75"/><ellipse class="cls-8" cx="811.89" cy="670.55" rx="1.62" ry="2.2"/><ellipse class="cls-8" cx="886.35" cy="634.89" rx="3.23" ry="4.39"/><ellipse class="cls-8" cx="819.81" cy="620.75" rx="1.4" ry="1.9"/><ellipse class="cls-8" cx="894.82" cy="615.25" rx="1.56" ry="2.12"/><ellipse class="cls-8" cx="893.26" cy="683.63" rx="1.05" ry="1.43"/><ellipse class="cls-8" cx="841.13" cy="643.52" rx="2.08" ry="2.84"/><ellipse class="cls-8" cx="850.34" cy="518.75" rx="7.13" ry="9.7"/><ellipse class="cls-8" cx="819.03" cy="676.72" rx="1.4" ry="1.9"/><ellipse class="cls-8" cx="155.68" cy="800.24" rx="1.74" ry="0.64"/><ellipse class="cls-8" cx="319.46" cy="647.4" rx="1.73" ry="0.63"/><ellipse class="cls-8" cx="111.85" cy="894.96" rx="4.41" ry="4.46"/><ellipse class="cls-8" cx="453.79" cy="792.87" rx="2.04" ry="2.06"/><ellipse class="cls-8" cx="435.12" cy="729.14" rx="1.34" ry="0.49"/><ellipse class="cls-8" cx="223.69" cy="768.41" rx="2.55" ry="3.19"/><ellipse class="cls-8" cx="489.25" cy="657.66" rx="5.76" ry="5.82"/><ellipse class="cls-8" cx="492.13" cy="832.53" rx="2.88" ry="2.9"/><ellipse class="cls-8" cx="307.48" cy="565.96" rx="3.59" ry="4.88"/><ellipse class="cls-8" cx="295.66" cy="408.5" rx="2.92" ry="3.97"/><ellipse class="cls-8" cx="136.25" cy="704.76" rx="1.37" ry="1.86"/><ellipse class="cls-8" cx="234.91" cy="681.94" rx="4.99" ry="6.79"/><ellipse class="cls-8" cx="240.82" cy="722.42" rx="2.67" ry="3.34"/><ellipse class="cls-8" cx="449.94" cy="534.29" rx="2.33" ry="3.17"/><ellipse class="cls-8" cx="442.26" cy="432.07" rx="1.89" ry="2.58"/><ellipse class="cls-8" cx="309.59" cy="549.01" rx="1.14" ry="1.55"/><ellipse class="cls-8" cx="391.88" cy="501.99" rx="4.16" ry="5.67"/><ellipse class="cls-8" cx="396.9" cy="535.87" rx="2.13" ry="2.9"/><ellipse class="cls-8" cx="308.51" cy="419.61" rx="2.52" ry="3.43"/><ellipse class="cls-8" cx="268.45" cy="628.44" rx="1.36" ry="1.85"/><ellipse class="cls-8" cx="171.75" cy="627.91" rx="3.52" ry="3.55"/><ellipse class="cls-8" cx="183.95" cy="507.52" rx="4.99" ry="6.79"/><ellipse class="cls-8" cx="189.97" cy="548.13" rx="2.55" ry="3.47"/><ellipse class="cls-8" cx="217.48" cy="454.02" rx="1.36" ry="1.85"/><ellipse class="cls-8" cx="425.95" cy="859.36" rx="3.23" ry="4.39"/><ellipse class="cls-8" cx="279.09" cy="839.13" rx="4.72" ry="5.89"/><ellipse class="cls-8" cx="198.34" cy="886.85" rx="2.98" ry="4.06"/><ellipse class="cls-8" cx="434.41" cy="839.71" rx="1.56" ry="2.12"/><ellipse class="cls-8" cx="345.2" cy="908.73" rx="6.49" ry="8.11"/><ellipse class="cls-8" cx="164.2" cy="902.9" rx="5.25" ry="7.15"/><ellipse class="cls-8" cx="323.2" cy="810.76" rx="1.62" ry="2.2"/><ellipse class="cls-8" cx="397.66" cy="775.11" rx="3.23" ry="4.39"/><ellipse class="cls-8" cx="331.12" cy="760.97" rx="1.4" ry="1.9"/><ellipse class="cls-8" cx="113.55" cy="780.31" rx="1.74" ry="2.37"/><ellipse class="cls-8" cx="406.13" cy="755.46" rx="1.56" ry="2.12"/><ellipse class="cls-8" cx="404.57" cy="823.84" rx="1.05" ry="1.43"/><ellipse class="cls-8" cx="352.44" cy="783.73" rx="2.08" ry="2.84"/><ellipse class="cls-8" cx="362.45" cy="690.73" rx="6.33" ry="7.91"/><ellipse class="cls-8" cx="330.34" cy="816.93" rx="1.4" ry="1.9"/></g></g></g></svg>