<svg xmlns="http://www.w3.org/2000/svg" viewBox="0 0 2828.56 1041.75"><defs><style>.cls-1{isolation:isolate;}.cls-2{fill:#f0f4fe;}.cls-3{fill:#a8caba;}.cls-4{fill:#298c6a;}.cls-5{fill:#fff;mix-blend-mode:overlay;}</style></defs><title>fondo-grids</title><g class="cls-1"><g id="Fondos"><path class="cls-2" d="M.86,744.42s102.83-67.14,215.79,0C429.74,871.09,775,1053.37,935.5,784.59s-81-291.82-75.53-461.88c5.4-166.83-54-268.78-165.89-273.42S510.66,97.18,428.4,1.4H.86Z"/><path class="cls-2" d="M2829.86,220.61s-121.28,74.63-246.82,0C2346.21,79.83,1962.48-122.75,1784.11,176s90.05,324.33,83.94,513.34c-6,185.41,60,298.72,184.37,303.87,92.3,3.83,159.85-27.32,225.91-.18,84.58,34.75,174.9,53.41,266.33,53.41h0c153.65,0,287.2-124.56,287.2-278.2Z"/><path class="cls-2" d="M2822.86,549.76c0-137.4-83.12-260.4-209.69-313.87A246.93,246.93,0,0,1,2583,220.61C2346.21,79.83,1962.48-122.75,1784.11,176s90.05,324.33,83.94,513.34c-6,185.41,60,298.72,184.37,303.87,99.79,4.13,170.65-32.6,242,7.62,52,29.33,110.32,45.61,170,45.61h18.71c187.63,0,339.74-152.11,339.74-339.75Z"/><ellipse class="cls-3" cx="677.57" cy="757.27" rx="5.42" ry="10.84" transform="translate(-308.13 510.36) rotate(-34.12)"/><ellipse class="cls-3" cx="666.73" cy="786.18" rx="3.74" ry="7.48" transform="translate(-326.2 509.25) rotate(-34.12)"/><ellipse class="cls-3" cx="1278.45" cy="482.59" rx="5.42" ry="10.84" transform="translate(114.95 1199.25) rotate(-52.31)"/><ellipse class="cls-3" cx="1279.72" cy="451.75" rx="3.74" ry="7.48" transform="translate(139.85 1188.27) rotate(-52.31)"/><ellipse class="cls-3" cx="515.45" cy="47.2" rx="10.84" ry="5.42" transform="translate(78.69 324.97) rotate(-37.69)"/><ellipse class="cls-3" cx="516.72" cy="78.04" rx="7.48" ry="3.74" transform="translate(60.1 332.19) rotate(-37.69)"/><ellipse class="cls-3" cx="2017.55" cy="672.7" rx="6.5" ry="13" transform="translate(47.06 1472.81) rotate(-40.54)"/><ellipse class="cls-3" cx="2044.88" cy="579.03" rx="6.5" ry="13" transform="translate(-80.39 584.44) rotate(-15.96)"/><ellipse class="cls-4" cx="2073.58" cy="706.19" rx="6.5" ry="8.85" transform="translate(1157.52 2695.98) rotate(-84.09)"/><ellipse class="cls-3" cx="2629.09" cy="161.37" rx="6.12" ry="12.25" transform="translate(1656.49 2609.27) rotate(-71.84)"/><ellipse class="cls-3" cx="2557.29" cy="218.79" rx="12.25" ry="6.12" transform="translate(-8.42 287.61) rotate(-6.43)"/><ellipse class="cls-4" cx="2678.37" cy="198.17" rx="6.12" ry="8.34" transform="translate(226.1 1293.29) rotate(-28.3)"/><ellipse class="cls-3" cx="106.35" cy="860.93" rx="6.12" ry="12.25" transform="translate(-449.87 195.25) rotate(-32.84)"/><ellipse class="cls-3" cx="198.28" cy="861.5" rx="6.12" ry="12.25" transform="matrix(0.54, -0.84, 0.84, 0.54, -634.43, 564.71)"/><ellipse class="cls-4" cx="91.21" cy="801.31" rx="8.34" ry="6.12" transform="translate(-713.09 742.04) rotate(-79.29)"/><ellipse class="cls-4" cx="1848.43" cy="169" rx="6.88" ry="5.05" transform="translate(-7.35 132.39) rotate(-4.09)"/><ellipse class="cls-3" cx="1880.43" cy="210" rx="11.1" ry="8.15" transform="translate(521.5 1526.59) rotate(-50.47)"/><g id="Stars"><ellipse class="cls-5" cx="2514" cy="634.04" rx="3.84" ry="4.33"/><ellipse class="cls-5" cx="1432.1" cy="473.64" rx="3.42" ry="3.46"/><ellipse class="cls-5" cx="1604.56" cy="478.45" rx="2.84" ry="2.87"/><ellipse class="cls-5" cx="2086.74" cy="604.59" rx="3.48" ry="3.51"/><ellipse class="cls-5" cx="2353.62" cy="482.87" rx="3.74" ry="4.22"/><ellipse class="cls-5" cx="2764.55" cy="594.57" rx="4.03" ry="4.07"/><ellipse class="cls-5" cx="1412.31" cy="612.23" rx="1.67" ry="1.86"/><ellipse class="cls-5" cx="1553.68" cy="564.56" rx="4.51" ry="5.6"/><ellipse class="cls-5" cx="1465.48" cy="808.39" rx="2.7" ry="2.73"/><ellipse class="cls-5" cx="1683.7" cy="390.37" rx="2.72" ry="2.74"/><ellipse class="cls-5" cx="1875" cy="915.16" rx="3.11" ry="3.14"/><ellipse class="cls-5" cx="2667.03" cy="416.71" rx="4.22" ry="4.26"/><ellipse class="cls-5" cx="2815.22" cy="301.32" rx="4.65" ry="4.7"/><ellipse class="cls-5" cx="2721.47" cy="194.18" rx="3.91" ry="3.95"/><ellipse class="cls-5" cx="1940.26" cy="612.04" rx="3" ry="3.03"/><ellipse class="cls-5" cx="2196.73" cy="510.83" rx="4.41" ry="4.46"/><ellipse class="cls-5" cx="2496.32" cy="266.71" rx="5.93" ry="5.99"/><ellipse class="cls-5" cx="1084.67" cy="498.9" rx="5.29" ry="6.58"/><ellipse class="cls-5" cx="1209.48" cy="655.75" rx="5.16" ry="6.42"/><ellipse class="cls-5" cx="1983.7" cy="441.63" rx="3.67" ry="3.71"/><ellipse class="cls-5" cx="2415.1" cy="355.73" rx="4.65" ry="4.69"/><ellipse class="cls-5" cx="2607.35" cy="201.6" rx="2.77" ry="2.79"/><ellipse class="cls-5" cx="2816.67" cy="595.28" rx="3.61" ry="3.65"/><ellipse class="cls-5" cx="525.29" cy="565.33" rx="3.69" ry="3.73"/><ellipse class="cls-5" cx="1380.12" cy="647.62" rx="2.57" ry="2.86"/><ellipse class="cls-5" cx="1474.8" cy="611.45" rx="5.1" ry="6.33"/><ellipse class="cls-5" cx="1604.36" cy="644.6" rx="3.96" ry="4.92"/><ellipse class="cls-5" cx="2137.89" cy="354.35" rx="4.05" ry="5.07"/><ellipse class="cls-5" cx="2612.62" cy="568.76" rx="2.63" ry="2.66"/><ellipse class="cls-5" cx="2418.59" cy="552.3" rx="3.49" ry="3.93"/><ellipse class="cls-5" cx="2301.33" cy="376.96" rx="3.57" ry="4.03"/><ellipse class="cls-5" cx="2701.84" cy="713.39" rx="3.84" ry="4.33"/><ellipse class="cls-5" cx="2541.46" cy="595.78" rx="3.74" ry="4.22"/><ellipse class="cls-5" cx="2606.42" cy="665.21" rx="3.49" ry="3.93"/><ellipse class="cls-5" cx="2304.9" cy="628" rx="3.57" ry="4.03"/><ellipse class="cls-5" cx="2741.65" cy="487.56" rx="3.84" ry="4.33"/><ellipse class="cls-5" cx="2581.28" cy="336.4" rx="3.74" ry="4.22"/><ellipse class="cls-5" cx="2646.24" cy="405.83" rx="3.49" ry="3.93"/><ellipse class="cls-5" cx="2528.98" cy="230.49" rx="3.57" ry="4.03"/><ellipse class="cls-5" cx="1452.81" cy="947.89" rx="4.17" ry="4.64"/><ellipse class="cls-5" cx="1776.96" cy="401.26" rx="5.18" ry="5.23"/><ellipse class="cls-5" cx="2086.74" cy="445.32" rx="5.91" ry="7.4"/><ellipse class="cls-5" cx="2414.94" cy="59.24" rx="5.91" ry="7.4"/><ellipse class="cls-5" cx="2490.39" cy="483.56" rx="4.79" ry="4.84"/><ellipse class="cls-5" cx="1007.32" cy="308.4" rx="4.96" ry="6.75"/><ellipse class="cls-5" cx="2018.76" cy="122.9" rx="4.21" ry="5.27"/><ellipse class="cls-5" cx="2132.98" cy="198.49" rx="5.19" ry="6.5"/><ellipse class="cls-5" cx="2460.63" cy="219.34" rx="4.05" ry="4.09"/><ellipse class="cls-5" cx="1666.54" cy="497.3" rx="4.95" ry="6.15"/><ellipse class="cls-5" cx="347.61" cy="639.36" rx="1.74" ry="0.64"/><ellipse class="cls-5" cx="1113.48" cy="809.58" rx="1.17" ry="0.47"/><ellipse class="cls-5" cx="1320.72" cy="724.54" rx="2.48" ry="2.76"/><ellipse class="cls-5" cx="183.83" cy="452.97" rx="1.73" ry="0.63"/><ellipse class="cls-5" cx="1260.25" cy="766.34" rx="2.49" ry="1"/><ellipse class="cls-5" cx="1132.95" cy="954.77" rx="1.77" ry="0.65"/><ellipse class="cls-5" cx="602.21" cy="170.61" rx="1.77" ry="0.88"/><ellipse class="cls-5" cx="1317.55" cy="825.72" rx="2.99" ry="3.02"/><ellipse class="cls-5" cx="464.68" cy="812.61" rx="3.91" ry="3.95"/><ellipse class="cls-5" cx="480.96" cy="921.49" rx="2.55" ry="2.58"/><ellipse class="cls-5" cx="391.44" cy="700.52" rx="4.41" ry="4.46"/><ellipse class="cls-5" cx="1233.65" cy="395.89" rx="2.23" ry="2.25"/><ellipse class="cls-5" cx="1813.57" cy="701.67" rx="3.98" ry="4.02"/><ellipse class="cls-5" cx="1923.59" cy="382.33" rx="5" ry="6.26"/><ellipse class="cls-5" cx="1773.96" cy="257.56" rx="3.83" ry="3.87"/><ellipse class="cls-5" cx="1360.11" cy="258.2" rx="4" ry="5.44"/><ellipse class="cls-5" cx="910.74" cy="227.1" rx="4.32" ry="5.88"/><ellipse class="cls-5" cx="49.5" cy="631.99" rx="2.04" ry="2.06"/><ellipse class="cls-5" cx="68.17" cy="568.26" rx="1.34" ry="0.49"/><ellipse class="cls-5" cx="280.57" cy="607.9" rx="3.52" ry="3.55"/><ellipse class="cls-5" cx="1163.83" cy="749.78" rx="1.65" ry="1.84"/><ellipse class="cls-5" cx="1397.51" cy="653.49" rx="3.94" ry="4.89"/><ellipse class="cls-5" cx="14.04" cy="463.22" rx="5.76" ry="5.82"/><ellipse class="cls-5" cx="1131.18" cy="317.47" rx="3.7" ry="5.04"/><ellipse class="cls-5" cx="1663.2" cy="843.04" rx="4.18" ry="4.22"/><ellipse class="cls-5" cx="11.16" cy="671.65" rx="2.88" ry="2.9"/><ellipse class="cls-5" cx="410.91" cy="621.55" rx="5.13" ry="5.18"/><ellipse class="cls-5" cx="1409.83" cy="712.55" rx="2.48" ry="2.76"/><ellipse class="cls-5" cx="1475.62" cy="365.32" rx="3.76" ry="3.8"/><ellipse class="cls-5" cx="1492.42" cy="1027.26" rx="3.12" ry="3.15"/><ellipse class="cls-5" cx="1682.91" cy="133.28" rx="4.84" ry="4.89"/><ellipse class="cls-5" cx="1999.24" cy="202.05" rx="2.99" ry="3.75"/><ellipse class="cls-5" cx="1531.74" cy="235.07" rx="3.22" ry="3.25"/><ellipse class="cls-5" cx="1182.29" cy="91.53" rx="3.82" ry="5.19"/><ellipse class="cls-5" cx="1889.87" cy="135.68" rx="3.85" ry="4.82"/><ellipse class="cls-5" cx="2295.57" cy="174.71" rx="3.12" ry="3.15"/><ellipse class="cls-5" cx="2167.58" cy="155.25" rx="1.89" ry="2.37"/><ellipse class="cls-5" cx="2059.91" cy="131.68" rx="3.75" ry="4.69"/><ellipse class="cls-5" cx="1397.51" cy="59.42" rx="2.07" ry="2.82"/><ellipse class="cls-5" cx="1941.79" cy="107.61" rx="4.15" ry="5.2"/><ellipse class="cls-5" cx="2372.07" cy="163.16" rx="4.2" ry="4.24"/><ellipse class="cls-5" cx="1541.79" cy="151.58" rx="3.86" ry="3.9"/><ellipse class="cls-5" cx="2069.56" cy="201.99" rx="3.06" ry="3.83"/><ellipse class="cls-5" cx="411.47" cy="39.56" rx="3.88" ry="5.28"/><ellipse class="cls-5" cx="1105.21" cy="113.67" rx="3.69" ry="5.02"/><ellipse class="cls-5" cx="798.84" cy="105.37" rx="3.03" ry="4.13"/><ellipse class="cls-5" cx="1474.04" cy="93.82" rx="6.37" ry="8.71"/><ellipse class="cls-5" cx="1425.74" cy="194.48" rx="3.03" ry="4.12"/><ellipse class="cls-5" cx="1724.16" cy="192.35" rx="1.66" ry="1.68"/><ellipse class="cls-5" cx="484.47" cy="82.5" rx="2.68" ry="3.65"/><ellipse class="cls-5" cx="702.21" cy="71.36" rx="2.09" ry="2.84"/><ellipse class="cls-5" cx="662.58" cy="180.87" rx="2.01" ry="2.73"/><ellipse class="cls-5" cx="909.39" cy="133.43" rx="3.47" ry="4.72"/><ellipse class="cls-5" cx="1291.97" cy="56.92" rx="1.63" ry="2.21"/><ellipse class="cls-5" cx="536.63" cy="157.97" rx="3.97" ry="5.4"/><ellipse class="cls-5" cx="1362.01" cy="373.74" rx="4" ry="4.04"/><ellipse class="cls-5" cx="195.81" cy="371.52" rx="3.59" ry="4.88"/><ellipse class="cls-5" cx="623.72" cy="97.04" rx="4.62" ry="6.29"/><ellipse class="cls-5" cx="1233.42" cy="146.66" rx="4.45" ry="6.05"/><ellipse class="cls-5" cx="1734.94" cy="103.56" rx="6.05" ry="6.11"/><ellipse class="cls-5" cx="801.87" cy="250.98" rx="5.94" ry="8.08"/><ellipse class="cls-5" cx="1056.07" cy="337.03" rx="5.94" ry="8.08"/><ellipse class="cls-5" cx="1228.98" cy="714.6" rx="5.94" ry="8.08"/><ellipse class="cls-5" cx="203.31" cy="24.27" rx="4.32" ry="5.88"/><ellipse class="cls-5" cx="207.63" cy="214.06" rx="2.92" ry="3.97"/><ellipse class="cls-5" cx="352.32" cy="102.75" rx="5.78" ry="7.87"/><ellipse class="cls-5" cx="367.04" cy="543.88" rx="1.37" ry="1.86"/><ellipse class="cls-5" cx="268.38" cy="487.5" rx="4.99" ry="6.79"/><ellipse class="cls-5" cx="73.47" cy="149.82" rx="5.81" ry="7.91"/><ellipse class="cls-5" cx="262.35" cy="528.12" rx="2.55" ry="3.47"/><ellipse class="cls-5" cx="515.17" cy="96.93" rx="4.73" ry="6.43"/><ellipse class="cls-5" cx="2808.51" cy="16.76" rx="5.36" ry="5.41"/><ellipse class="cls-5" cx="2526.35" cy="81.5" rx="2.94" ry="2.97"/><ellipse class="cls-5" cx="2803.15" cy="162.08" rx="4.37" ry="1.6"/><ellipse class="cls-5" cx="1913.22" cy="43.21" rx="5.24" ry="6.56"/><ellipse class="cls-5" cx="2272.89" cy="84.29" rx="4.19" ry="4.24"/><ellipse class="cls-5" cx="1307.79" cy="117.61" rx="5.8" ry="7.89"/><ellipse class="cls-5" cx="1824.24" cy="580.7" rx="4.19" ry="5.7"/><ellipse class="cls-5" cx="993.43" cy="29.16" rx="2.3" ry="3.13"/><ellipse class="cls-5" cx="2707.58" cy="60.82" rx="3.71" ry="3.75"/><ellipse class="cls-5" cx="2461.3" cy="161.76" rx="2.77" ry="2.8"/><ellipse class="cls-5" cx="2114.35" cy="90.2" rx="4.3" ry="5.38"/><ellipse class="cls-5" cx="1564.96" cy="87.39" rx="2.25" ry="2.27"/><ellipse class="cls-5" cx="2635.45" cy="138.27" rx="5.48" ry="5.54"/><ellipse class="cls-5" cx="1685.09" cy="248.54" rx="4.84" ry="4.89"/><ellipse class="cls-5" cx="2001.2" cy="330.11" rx="2.99" ry="3.75"/><ellipse class="cls-5" cx="1533.64" cy="335.54" rx="3.22" ry="3.25"/><ellipse class="cls-5" cx="1208.32" cy="276.88" rx="3.82" ry="5.19"/><ellipse class="cls-5" cx="1891.82" cy="263.73" rx="3.85" ry="4.82"/><ellipse class="cls-5" cx="2297.76" cy="289.98" rx="3.12" ry="3.15"/><ellipse class="cls-5" cx="2169.53" cy="283.3" rx="1.89" ry="2.37"/><ellipse class="cls-5" cx="2219.84" cy="389.49" rx="3.75" ry="4.69"/><ellipse class="cls-5" cx="1977.22" cy="240.45" rx="3.75" ry="4.69"/><ellipse class="cls-5" cx="1385.48" cy="253.43" rx="2.07" ry="2.82"/><ellipse class="cls-5" cx="2236.65" cy="233.85" rx="4.15" ry="5.2"/><ellipse class="cls-5" cx="2374.25" cy="278.42" rx="4.2" ry="4.24"/><ellipse class="cls-5" cx="1543.7" cy="252.05" rx="3.86" ry="3.9"/><ellipse class="cls-5" cx="2071.52" cy="330.04" rx="3.06" ry="3.83"/><ellipse class="cls-5" cx="413.66" cy="194.87" rx="3.88" ry="5.28"/><ellipse class="cls-5" cx="617.72" cy="257.96" rx="2.13" ry="2.9"/><ellipse class="cls-5" cx="1107.11" cy="249.05" rx="3.69" ry="5.02"/><ellipse class="cls-5" cx="1479.86" cy="319.95" rx="4.19" ry="4.24"/><ellipse class="cls-5" cx="1427.64" cy="326.45" rx="3.03" ry="3.06"/><ellipse class="cls-5" cx="1726.34" cy="307.61" rx="1.66" ry="1.68"/><ellipse class="cls-5" cx="425.16" cy="422.15" rx="2.09" ry="2.84"/><ellipse class="cls-5" cx="704.39" cy="226.68" rx="2.09" ry="2.84"/><ellipse class="cls-5" cx="53.35" cy="339.85" rx="2.33" ry="3.17"/><ellipse class="cls-5" cx="1293.87" cy="241.64" rx="1.63" ry="2.21"/><ellipse class="cls-5" cx="538.82" cy="316.32" rx="3.97" ry="4.01"/><ellipse class="cls-5" cx="1262.84" cy="873.47" rx="2.59" ry="1.05"/><ellipse class="cls-5" cx="61.02" cy="237.63" rx="1.89" ry="2.58"/><ellipse class="cls-5" cx="1324.42" cy="656.85" rx="1.76" ry="1.96"/><ellipse class="cls-5" cx="1332.13" cy="621.93" rx="2.97" ry="3"/><ellipse class="cls-5" cx="193.36" cy="124.34" rx="2.52" ry="3.43"/><ellipse class="cls-5" cx="240.75" cy="152.22" rx="1.74" ry="2.37"/><ellipse class="cls-5" cx="154.96" cy="165.36" rx="3.75" ry="5.11"/><ellipse class="cls-5" cx="193.7" cy="354.57" rx="1.14" ry="1.55"/><ellipse class="cls-5" cx="111.41" cy="307.55" rx="4.16" ry="5.67"/><ellipse class="cls-5" cx="106.39" cy="341.43" rx="2.13" ry="2.9"/><ellipse class="cls-5" cx="260.68" cy="161.59" rx="3.07" ry="4.17"/><ellipse class="cls-5" cx="194.78" cy="225.17" rx="2.52" ry="3.43"/><ellipse class="cls-5" cx="234.84" cy="434.01" rx="1.36" ry="1.85"/><ellipse class="cls-5" cx="398.58" cy="464.94" rx="1.74" ry="0.64"/><ellipse class="cls-5" cx="331.54" cy="433.47" rx="3.52" ry="3.55"/><ellipse class="cls-5" cx="461.88" cy="447.13" rx="5.13" ry="5.18"/><ellipse class="cls-5" cx="418.01" cy="369.46" rx="1.37" ry="1.86"/><ellipse class="cls-5" cx="319.34" cy="313.08" rx="4.99" ry="6.79"/><ellipse class="cls-5" cx="313.32" cy="353.7" rx="2.55" ry="3.47"/><ellipse class="cls-5" cx="476.12" cy="247.72" rx="2.09" ry="2.84"/><ellipse class="cls-5" cx="285.81" cy="259.58" rx="1.36" ry="1.85"/><ellipse class="cls-5" cx="305.66" cy="799.53" rx="2.92" ry="3.97"/><ellipse class="cls-5" cx="77.34" cy="664.92" rx="3.23" ry="4.39"/><ellipse class="cls-5" cx="223.79" cy="678.22" rx="4.31" ry="5.87"/><ellipse class="cls-5" cx="304.95" cy="692.41" rx="2.98" ry="4.06"/><ellipse class="cls-5" cx="68.88" cy="678.83" rx="1.56" ry="2.12"/><ellipse class="cls-5" cx="159.05" cy="823.09" rx="1.89" ry="2.58"/><ellipse class="cls-5" cx="158.02" cy="714.93" rx="6.43" ry="8.75"/><ellipse class="cls-5" cx="209.44" cy="893.02" rx="4.16" ry="5.67"/><ellipse class="cls-5" cx="339.09" cy="708.46" rx="5.25" ry="7.15"/><ellipse class="cls-5" cx="292.81" cy="810.64" rx="2.52" ry="3.43"/><ellipse class="cls-5" cx="340.19" cy="838.52" rx="1.74" ry="2.37"/><ellipse class="cls-5" cx="180.09" cy="649.88" rx="1.62" ry="2.2"/><ellipse class="cls-5" cx="105.63" cy="614.23" rx="3.23" ry="4.39"/><ellipse class="cls-5" cx="172.17" cy="600.09" rx="1.4" ry="1.9"/><ellipse class="cls-5" cx="389.74" cy="619.43" rx="1.74" ry="2.37"/><ellipse class="cls-5" cx="97.16" cy="594.58" rx="1.56" ry="2.12"/><ellipse class="cls-5" cx="98.72" cy="662.96" rx="1.05" ry="1.43"/><ellipse class="cls-5" cx="150.85" cy="622.85" rx="2.08" ry="2.84"/><ellipse class="cls-5" cx="141.64" cy="498.08" rx="7.13" ry="9.7"/><ellipse class="cls-5" cx="172.95" cy="656.05" rx="1.4" ry="1.9"/><ellipse class="cls-5" cx="427.25" cy="673.84" rx="1.74" ry="2.37"/><ellipse class="cls-5" cx="1683.48" cy="532.33" rx="1.74" ry="0.64"/><ellipse class="cls-5" cx="1519.69" cy="345.94" rx="1.73" ry="0.63"/><ellipse class="cls-5" cx="1727.31" cy="627.05" rx="4.41" ry="4.46"/><ellipse class="cls-5" cx="1385.36" cy="524.96" rx="2.04" ry="2.06"/><ellipse class="cls-5" cx="1404.03" cy="461.23" rx="1.34" ry="0.49"/><ellipse class="cls-5" cx="1616.44" cy="500.87" rx="3.52" ry="3.55"/><ellipse class="cls-5" cx="1349.91" cy="356.19" rx="5.76" ry="5.82"/><ellipse class="cls-5" cx="1347.02" cy="564.62" rx="2.88" ry="2.9"/><ellipse class="cls-5" cx="1531.68" cy="264.49" rx="3.59" ry="4.88"/><ellipse class="cls-5" cx="1567.21" cy="183.74" rx="2.92" ry="3.97"/><ellipse class="cls-5" cx="1702.91" cy="436.85" rx="1.37" ry="1.86"/><ellipse class="cls-5" cx="1604.24" cy="380.47" rx="4.99" ry="6.79"/><ellipse class="cls-5" cx="1598.22" cy="421.09" rx="2.55" ry="3.47"/><ellipse class="cls-5" cx="1389.22" cy="232.82" rx="2.33" ry="3.17"/><ellipse class="cls-5" cx="1396.89" cy="130.6" rx="1.89" ry="2.58"/><ellipse class="cls-5" cx="1529.56" cy="247.54" rx="1.14" ry="1.55"/><ellipse class="cls-5" cx="1447.28" cy="200.52" rx="4.16" ry="5.67"/><ellipse class="cls-5" cx="1442.25" cy="234.4" rx="2.13" ry="2.9"/><ellipse class="cls-5" cx="1530.64" cy="118.14" rx="2.52" ry="3.43"/><ellipse class="cls-5" cx="1570.71" cy="326.97" rx="1.36" ry="1.85"/><ellipse class="cls-5" cx="2200.87" cy="659.41" rx="3.22" ry="3.25"/><ellipse class="cls-5" cx="2202.77" cy="759.88" rx="3.22" ry="3.25"/><ellipse class="cls-5" cx="2212.82" cy="676.39" rx="3.86" ry="3.9"/><ellipse class="cls-5" cx="2200.8" cy="688.83" rx="3.59" ry="4.88"/><ellipse class="cls-5" cx="2198.69" cy="671.88" rx="1.14" ry="1.55"/><ellipse class="cls-5" cx="2239.83" cy="751.31" rx="1.36" ry="1.85"/><ellipse class="cls-5" cx="1667.4" cy="326.44" rx="3.52" ry="3.55"/><ellipse class="cls-5" cx="1655.21" cy="206.05" rx="4.99" ry="6.79"/><ellipse class="cls-5" cx="1649.18" cy="246.67" rx="2.55" ry="3.47"/><ellipse class="cls-5" cx="1621.67" cy="152.55" rx="1.36" ry="1.85"/><ellipse class="cls-5" cx="1413.21" cy="591.45" rx="3.23" ry="4.39"/><ellipse class="cls-5" cx="1559.66" cy="733.44" rx="4.31" ry="5.87"/><ellipse class="cls-5" cx="1640.82" cy="618.94" rx="2.98" ry="4.06"/><ellipse class="cls-5" cx="1404.74" cy="571.8" rx="1.56" ry="2.12"/><ellipse class="cls-5" cx="1493.89" cy="641.45" rx="6.43" ry="8.75"/><ellipse class="cls-5" cx="1674.96" cy="634.98" rx="5.25" ry="7.15"/><ellipse class="cls-5" cx="1515.95" cy="542.85" rx="1.62" ry="2.2"/><ellipse class="cls-5" cx="1441.49" cy="507.19" rx="3.23" ry="4.39"/><ellipse class="cls-5" cx="1508.03" cy="493.05" rx="1.4" ry="1.9"/><ellipse class="cls-5" cx="1725.61" cy="512.4" rx="1.74" ry="2.37"/><ellipse class="cls-5" cx="1433.03" cy="487.55" rx="1.56" ry="2.12"/><ellipse class="cls-5" cx="1434.58" cy="555.93" rx="1.05" ry="1.43"/><ellipse class="cls-5" cx="1486.72" cy="515.82" rx="2.08" ry="2.84"/><ellipse class="cls-5" cx="1227.46" cy="477.89" rx="3.42" ry="3.46"/><ellipse class="cls-5" cx="1180.71" cy="529.2" rx="2.04" ry="2.06"/><ellipse class="cls-5" cx="1199.39" cy="465.48" rx="1.34" ry="0.49"/><ellipse class="cls-5" cx="1236.85" cy="511.44" rx="3.23" ry="4.39"/><ellipse class="cls-5" cx="1228.38" cy="491.79" rx="1.56" ry="2.12"/><ellipse class="cls-5" cx="1282.07" cy="520.07" rx="2.08" ry="2.84"/><ellipse class="cls-5" cx="1477.5" cy="391.05" rx="7.13" ry="9.7"/><ellipse class="cls-5" cx="1508.82" cy="549.02" rx="1.4" ry="1.9"/><ellipse class="cls-5" cx="819.98" cy="269.26" rx="3.37" ry="2.18" transform="translate(534.85 1083.86) rotate(-88.89)"/><ellipse class="cls-5" cx="881.22" cy="152.47" rx="4.44" ry="3.53" transform="translate(727.81 1033.53) rotate(-89.94)"/><ellipse class="cls-5" cx="681.8" cy="333.25" rx="3.43" ry="3.94" transform="matrix(1, -0.03, 0.03, 1, -8.14, 17.2)"/><ellipse class="cls-5" cx="753.06" cy="222.94" rx="3.71" ry="2.4" transform="translate(515.54 971.53) rotate(-88.89)"/><ellipse class="cls-5" cx="672.72" cy="163.5" rx="3.17" ry="2.05" transform="translate(496.18 832.92) rotate(-88.89)"/><ellipse class="cls-5" cx="754.72" cy="335.08" rx="3.94" ry="2.55" transform="translate(405.06 1083.16) rotate(-88.89)"/><ellipse class="cls-5" cx="736.14" cy="164.85" rx="3.17" ry="2.05" transform="matrix(0.02, -1, 1, 0.02, 557.03, 897.65)"/><ellipse class="cls-5" cx="679.6" cy="308.11" rx="1.78" ry="2.04" transform="translate(-7.51 17.14) rotate(-1.44)"/><ellipse class="cls-5" cx="683.81" cy="152.28" rx="3.8" ry="2.46" transform="translate(518.28 833) rotate(-88.89)"/><ellipse class="cls-5" cx="724.58" cy="217.31" rx="4.13" ry="2.67" transform="translate(493.25 937.54) rotate(-88.89)"/><ellipse class="cls-5" cx="727" cy="268.94" rx="2.98" ry="1.93" transform="translate(444 990.59) rotate(-88.89)"/><ellipse class="cls-5" cx="742.25" cy="178.92" rx="1.71" ry="0.4" transform="translate(540.04 915.17) rotate(-88.2)"/><ellipse class="cls-5" cx="850.84" cy="316.94" rx="2.01" ry="1.3" transform="translate(517.45 1161.46) rotate(-88.89)"/><ellipse class="cls-5" cx="811.25" cy="296.51" rx="1.32" ry="0.31" transform="translate(489.34 1098.02) rotate(-88.2)"/><ellipse class="cls-5" cx="743.27" cy="346.43" rx="5.68" ry="3.67" transform="translate(382.47 1082.84) rotate(-88.89)"/><ellipse class="cls-5" cx="874.63" cy="355.96" rx="2.83" ry="1.83" transform="translate(501.76 1223.51) rotate(-88.89)"/><ellipse class="cls-5" cx="691.27" cy="164.51" rx="3.08" ry="3.54" transform="translate(-3.91 17.39) rotate(-1.44)"/><ellipse class="cls-5" cx="680.51" cy="166.05" rx="0.98" ry="1.13" transform="matrix(1, -0.03, 0.03, 1, -3.95, 17.12)"/><ellipse class="cls-5" cx="731.93" cy="128.09" rx="1.16" ry="1.34" transform="translate(-2.98 18.4) rotate(-1.44)"/><ellipse class="cls-5" cx="881.01" cy="299.36" rx="1.34" ry="1.53" transform="translate(-7.23 22.19) rotate(-1.44)"/><ellipse class="cls-5" cx="866.31" cy="188.92" rx="1.39" ry="1.6" transform="translate(-4.47 21.78) rotate(-1.44)"/><ellipse class="cls-5" cx="841.44" cy="261.1" rx="2.77" ry="3.18" transform="translate(-6.28 21.18) rotate(-1.44)"/><ellipse class="cls-5" cx="834.66" cy="195.13" rx="1.2" ry="1.38" transform="translate(-4.63 20.99) rotate(-1.44)"/><ellipse class="cls-5" cx="828.78" cy="268.8" rx="1.34" ry="1.53" transform="translate(-6.48 20.87) rotate(-1.44)"/><ellipse class="cls-5" cx="871.95" cy="269.46" rx="0.9" ry="1.04" transform="translate(-6.48 21.95) rotate(-1.44)"/><ellipse class="cls-5" cx="848.33" cy="216.84" rx="1.79" ry="2.05" transform="translate(-5.17 21.34) rotate(-1.44)"/><ellipse class="cls-5" cx="769.35" cy="221.91" rx="6.12" ry="7.03" transform="matrix(1, -0.03, 0.03, 1, -5.32, 19.36)"/><ellipse class="cls-5" cx="332.65" cy="533.54" rx="2.26" ry="2.61" transform="translate(-46.77 32.18) rotate(-5.17)"/><ellipse class="cls-5" cx="455.81" cy="554.73" rx="2.26" ry="2.61" transform="translate(-48.18 43.37) rotate(-5.17)"/><ellipse class="cls-5" cx="460.34" cy="494.07" rx="2.86" ry="3.11" transform="translate(-202.63 365.67) rotate(-36.06)"/><ellipse class="cls-5" cx="400.98" cy="584.13" rx="2.44" ry="2.66" transform="translate(-267.02 347.98) rotate(-36.06)"/><ellipse class="cls-5" cx="411.8" cy="506.03" rx="2.44" ry="2.66" transform="translate(-218.97 339.39) rotate(-36.06)"/><ellipse class="cls-5" cx="393.81" cy="568.7" rx="2.93" ry="3.19" transform="translate(-259.32 340.81) rotate(-36.06)"/><ellipse class="cls-5" cx="451.51" cy="528.36" rx="3.19" ry="3.47" transform="translate(-224.51 367.04) rotate(-36.06)"/><ellipse class="cls-5" cx="423.87" cy="500.65" rx="0.5" ry="1.38" transform="translate(-167.4 784.75) rotate(-75.41)"/><ellipse class="cls-5" cx="404.63" cy="561.38" rx="3.84" ry="2.84" transform="translate(-177.31 935.82) rotate(-86.98)"/><ellipse class="cls-5" cx="404.2" cy="574.89" rx="1.22" ry="0.9" transform="translate(-191.22 948.19) rotate(-86.98)"/><ellipse class="cls-5" cx="382.08" cy="505.58" rx="1.45" ry="1.07" transform="translate(-142.95 860.45) rotate(-86.98)"/><ellipse class="cls-5" cx="462.03" cy="473.8" rx="7.64" ry="5.64" transform="translate(-35.49 910.19) rotate(-86.98)"/><ellipse class="cls-5" cx="456.51" cy="364.27" rx="2.26" ry="2.61" transform="translate(-31 42.66) rotate(-5.17)"/><ellipse class="cls-5" cx="579.66" cy="385.46" rx="2.26" ry="2.61" transform="translate(-32.4 53.85) rotate(-5.17)"/><ellipse class="cls-5" cx="584.19" cy="324.8" rx="2.86" ry="3.11" transform="translate(-79.25 406.14) rotate(-36.06)"/><ellipse class="cls-5" cx="524.84" cy="414.86" rx="2.44" ry="2.66" transform="translate(-143.64 388.46) rotate(-36.06)"/><ellipse class="cls-5" cx="535.65" cy="336.76" rx="2.44" ry="2.66" transform="translate(-95.6 379.86) rotate(-36.06)"/><ellipse class="cls-5" cx="517.66" cy="399.44" rx="2.93" ry="3.19" transform="translate(-135.94 381.28) rotate(-36.06)"/><ellipse class="cls-5" cx="575.36" cy="359.1" rx="3.19" ry="3.47" transform="translate(-101.14 407.51) rotate(-36.06)"/><ellipse class="cls-5" cx="547.72" cy="331.38" rx="0.5" ry="1.38" transform="translate(89.06 777.97) rotate(-75.41)"/><ellipse class="cls-5" cx="528.48" cy="392.11" rx="3.84" ry="2.84" transform="translate(109.03 899.17) rotate(-86.98)"/><ellipse class="cls-5" cx="528.05" cy="405.63" rx="1.22" ry="0.9" transform="translate(95.12 911.54) rotate(-86.98)"/><ellipse class="cls-5" cx="505.93" cy="336.31" rx="1.45" ry="1.07" transform="translate(143.39 823.79) rotate(-86.98)"/><ellipse class="cls-5" cx="585.88" cy="304.53" rx="7.64" ry="5.64" transform="translate(250.86 873.53) rotate(-86.98)"/><ellipse class="cls-5" cx="869.97" cy="196.15" rx="1.2" ry="1.38" transform="matrix(1, -0.03, 0.03, 1, -4.65, 21.88)"/><ellipse class="cls-5" cx="1111.24" cy="309.82" rx="3.03" ry="4.13"/><ellipse class="cls-5" cx="1014.62" cy="275.82" rx="2.09" ry="2.84"/><ellipse class="cls-5" cx="974.98" cy="385.32" rx="2.01" ry="2.73"/><ellipse class="cls-5" cx="1114.28" cy="455.43" rx="5.94" ry="8.08"/><ellipse class="cls-5" cx="1016.8" cy="431.13" rx="2.09" ry="2.84"/><ellipse class="cls-5" cx="1132.38" cy="473.72" rx="3.37" ry="2.18" transform="translate(636.77 1596.69) rotate(-88.89)"/><ellipse class="cls-5" cx="1193.62" cy="356.92" rx="4.44" ry="3.53" transform="translate(835.43 1550.17) rotate(-89.94)"/><ellipse class="cls-5" cx="1065.47" cy="427.39" rx="3.71" ry="2.4" transform="translate(617.47 1484.36) rotate(-88.89)"/><ellipse class="cls-5" cx="985.12" cy="367.96" rx="3.17" ry="2.05" transform="translate(598.11 1345.75) rotate(-88.89)"/><ellipse class="cls-5" cx="1048.54" cy="369.31" rx="3.17" ry="2.05" transform="translate(658.95 1410.48) rotate(-88.89)"/><ellipse class="cls-5" cx="992.01" cy="512.56" rx="1.78" ry="2.04" transform="translate(-12.54 25.04) rotate(-1.44)"/><ellipse class="cls-5" cx="996.21" cy="356.73" rx="3.8" ry="2.46" transform="translate(620.21 1345.83) rotate(-88.89)"/><ellipse class="cls-5" cx="1036.99" cy="421.76" rx="4.13" ry="2.67" transform="translate(595.18 1450.37) rotate(-88.89)"/><ellipse class="cls-5" cx="1039.41" cy="473.39" rx="2.98" ry="1.93" transform="translate(545.93 1503.42) rotate(-88.89)"/><ellipse class="cls-5" cx="1054.65" cy="383.38" rx="1.71" ry="0.4" transform="translate(638.26 1425.43) rotate(-88.2)"/><ellipse class="cls-5" cx="1163.25" cy="521.39" rx="2.01" ry="1.3" transform="translate(619.38 1674.3) rotate(-88.89)"/><ellipse class="cls-5" cx="1123.66" cy="500.96" rx="1.32" ry="0.31" transform="translate(587.56 1608.28) rotate(-88.2)"/><ellipse class="cls-5" cx="1003.67" cy="368.96" rx="3.08" ry="3.54" transform="translate(-8.94 25.29) rotate(-1.44)"/><ellipse class="cls-5" cx="992.92" cy="370.51" rx="0.98" ry="1.13" transform="translate(-8.98 25.02) rotate(-1.44)"/><ellipse class="cls-5" cx="1044.33" cy="332.54" rx="1.16" ry="1.34" transform="translate(-8.01 26.29) rotate(-1.44)"/><ellipse class="cls-5" cx="1193.41" cy="503.81" rx="1.34" ry="1.53" transform="translate(-12.26 30.09) rotate(-1.44)"/><ellipse class="cls-5" cx="1178.72" cy="393.38" rx="1.39" ry="1.6" transform="translate(-9.49 29.68) rotate(-1.44)"/><ellipse class="cls-5" cx="1153.85" cy="465.55" rx="2.77" ry="3.18" transform="translate(-11.31 29.08) rotate(-1.44)"/><ellipse class="cls-5" cx="1147.06" cy="399.58" rx="1.2" ry="1.38" transform="translate(-9.66 28.89) rotate(-1.44)"/><ellipse class="cls-5" cx="1141.18" cy="473.25" rx="1.34" ry="1.53" transform="translate(-11.51 28.77) rotate(-1.44)"/><ellipse class="cls-5" cx="1184.36" cy="473.91" rx="0.9" ry="1.04" transform="matrix(1, -0.03, 0.03, 1, -11.51, 29.85)"/><ellipse class="cls-5" cx="1160.74" cy="421.29" rx="1.79" ry="2.05" transform="translate(-10.2 29.24) rotate(-1.44)"/><ellipse class="cls-5" cx="1182.38" cy="400.6" rx="1.2" ry="1.38" transform="translate(-9.67 29.78) rotate(-1.44)"/><ellipse class="cls-5" cx="1931.82" cy="562.84" rx="3.42" ry="3.46"/><ellipse class="cls-5" cx="2104.28" cy="567.65" rx="2.84" ry="2.87"/><ellipse class="cls-5" cx="1912.02" cy="667.87" rx="1.67" ry="1.86"/><ellipse class="cls-5" cx="2053.4" cy="653.76" rx="4.51" ry="5.6"/><ellipse class="cls-5" cx="1974.52" cy="667.09" rx="5.1" ry="6.33"/><ellipse class="cls-5" cx="2104.08" cy="700.24" rx="3.96" ry="4.92"/><ellipse class="cls-5" cx="1975.34" cy="454.52" rx="3.76" ry="3.8"/><ellipse class="cls-5" cx="2033.36" cy="424.74" rx="3.22" ry="3.25"/><ellipse class="cls-5" cx="1979.58" cy="409.15" rx="4.19" ry="4.24"/><ellipse class="cls-5" cx="1927.36" cy="415.65" rx="3.03" ry="3.06"/><ellipse class="cls-5" cx="2019.41" cy="435.13" rx="1.73" ry="0.63"/><ellipse class="cls-5" cx="1903.75" cy="550.43" rx="1.34" ry="0.49"/><ellipse class="cls-5" cx="2116.15" cy="590.07" rx="3.52" ry="3.55"/><ellipse class="cls-5" cx="2097.93" cy="510.29" rx="2.55" ry="3.47"/><ellipse class="cls-5" cx="2070.42" cy="416.17" rx="1.36" ry="1.85"/><ellipse class="cls-5" cx="1912.92" cy="680.65" rx="3.23" ry="4.39"/><ellipse class="cls-5" cx="1813.92" cy="480.77" rx="4.31" ry="5.87"/><ellipse class="cls-5" cx="2140.53" cy="674.58" rx="2.98" ry="4.06"/><ellipse class="cls-5" cx="1904.46" cy="661" rx="1.56" ry="2.12"/><ellipse class="cls-5" cx="1081.75" cy="426.37" rx="6.12" ry="7.03" transform="matrix(1, -0.03, 0.03, 1, -10.35, 27.26)"/><ellipse class="cls-5" cx="2103.96" cy="469.67" rx="4.99" ry="6.79"/><ellipse class="cls-5" cx="1993.6" cy="697.1" rx="6.43" ry="8.75"/><ellipse class="cls-5" cx="2015.67" cy="632.05" rx="1.62" ry="2.2"/><ellipse class="cls-5" cx="1941.21" cy="596.39" rx="3.23" ry="4.39"/><ellipse class="cls-5" cx="2007.75" cy="582.25" rx="1.4" ry="1.9"/><ellipse class="cls-5" cx="1932.74" cy="576.75" rx="1.56" ry="2.12"/><ellipse class="cls-5" cx="1934.3" cy="645.13" rx="1.05" ry="1.43"/><ellipse class="cls-5" cx="1986.43" cy="605.02" rx="2.08" ry="2.84"/><ellipse class="cls-5" cx="1977.22" cy="480.25" rx="7.13" ry="9.7"/><ellipse class="cls-5" cx="2008.53" cy="638.22" rx="1.4" ry="1.9"/><ellipse class="cls-5" cx="2671.88" cy="761.74" rx="1.74" ry="0.64"/><ellipse class="cls-5" cx="2508.1" cy="608.9" rx="1.73" ry="0.63"/><ellipse class="cls-5" cx="2715.72" cy="856.46" rx="4.41" ry="4.46"/><ellipse class="cls-5" cx="2373.77" cy="754.37" rx="2.04" ry="2.06"/><ellipse class="cls-5" cx="2392.44" cy="690.64" rx="1.34" ry="0.49"/><ellipse class="cls-5" cx="2603.87" cy="729.91" rx="2.55" ry="3.19"/><ellipse class="cls-5" cx="2338.31" cy="619.16" rx="5.76" ry="5.82"/><ellipse class="cls-5" cx="2335.43" cy="794.03" rx="2.88" ry="2.9"/><ellipse class="cls-5" cx="2520.08" cy="527.46" rx="3.59" ry="4.88"/><ellipse class="cls-5" cx="2531.9" cy="370" rx="2.92" ry="3.97"/><ellipse class="cls-5" cx="2691.31" cy="666.26" rx="1.37" ry="1.86"/><ellipse class="cls-5" cx="2592.65" cy="643.44" rx="4.99" ry="6.79"/><ellipse class="cls-5" cx="2586.74" cy="683.92" rx="2.67" ry="3.34"/><ellipse class="cls-5" cx="2377.62" cy="495.79" rx="2.33" ry="3.17"/><ellipse class="cls-5" cx="2385.3" cy="393.57" rx="1.89" ry="2.58"/><ellipse class="cls-5" cx="2517.97" cy="510.51" rx="1.14" ry="1.55"/><ellipse class="cls-5" cx="2435.68" cy="463.49" rx="4.16" ry="5.67"/><ellipse class="cls-5" cx="2430.66" cy="497.37" rx="2.13" ry="2.9"/><ellipse class="cls-5" cx="2519.05" cy="381.11" rx="2.52" ry="3.43"/><ellipse class="cls-5" cx="2559.11" cy="589.94" rx="1.36" ry="1.85"/><ellipse class="cls-5" cx="2655.81" cy="589.41" rx="3.52" ry="3.55"/><ellipse class="cls-5" cx="2643.61" cy="469.02" rx="4.99" ry="6.79"/><ellipse class="cls-5" cx="2637.59" cy="509.63" rx="2.55" ry="3.47"/><ellipse class="cls-5" cx="2610.08" cy="415.52" rx="1.36" ry="1.85"/><ellipse class="cls-5" cx="2401.61" cy="820.86" rx="3.23" ry="4.39"/><ellipse class="cls-5" cx="2548.47" cy="800.63" rx="4.72" ry="5.89"/><ellipse class="cls-5" cx="2629.22" cy="848.35" rx="2.98" ry="4.06"/><ellipse class="cls-5" cx="2393.15" cy="801.21" rx="1.56" ry="2.12"/><ellipse class="cls-5" cx="2482.36" cy="870.23" rx="6.49" ry="8.11"/><ellipse class="cls-5" cx="2663.36" cy="864.4" rx="5.25" ry="7.15"/><ellipse class="cls-5" cx="2504.36" cy="772.26" rx="1.62" ry="2.2"/><ellipse class="cls-5" cx="2429.9" cy="736.61" rx="3.23" ry="4.39"/><ellipse class="cls-5" cx="2496.44" cy="722.47" rx="1.4" ry="1.9"/><ellipse class="cls-5" cx="2714.01" cy="741.81" rx="1.74" ry="2.37"/><ellipse class="cls-5" cx="2421.43" cy="716.96" rx="1.56" ry="2.12"/><ellipse class="cls-5" cx="2422.99" cy="785.34" rx="1.05" ry="1.43"/><ellipse class="cls-5" cx="2475.12" cy="745.23" rx="2.08" ry="2.84"/><ellipse class="cls-5" cx="2465.11" cy="652.23" rx="6.33" ry="7.91"/><ellipse class="cls-5" cx="2497.22" cy="778.43" rx="1.4" ry="1.9"/></g></g></g></svg>