<svg xmlns="http://www.w3.org/2000/svg" viewBox="0 0 2828.56 1041.75"><defs><style>.cls-1{isolation:isolate;}.cls-2{fill:#fbeede;}.cls-3{fill:#fdc2c4;}.cls-4{mix-blend-mode:multiply;}.cls-5,.cls-6,.cls-7{fill:none;stroke:#fdc2c4;stroke-linecap:round;stroke-miterlimit:10;stroke-width:2px;}.cls-6{stroke-dasharray:4 12 7 4;}.cls-7{stroke-dasharray:12 7 4 12 7 4;}</style></defs><title>fondo-grids-02</title><g class="cls-1"><g id="coronaos"><path class="cls-2" d="M253.28,851a7,7,0,0,0-9.79,1.82,6.9,6.9,0,0,0-1.2,3.28l-.1-.5c-16.15.88-23.09-1.7-26.07-4.14a57,57,0,0,0-1-6.17c.37-1.24,2.21-3.66,10.5-5.43l-.05-.33a4.66,4.66,0,1,0-.42-1.93c-1,.32-7.84,2.39-11.8,1.2A57.86,57.86,0,0,0,206,824.23c-.66-2-.82-8.26,15.31-19.59l-.07-.12a9.43,9.43,0,1,0-3.19-3.31c-3.07,2.55-14.93,12-22.87,11.38a57.47,57.47,0,0,0-29-12.52c-1.82-1.44-4.36-5.65-4.09-18l-.54,0a7.48,7.48,0,1,0-3.16,0c.12,1.57.74,11.67-1.88,17.67a57.51,57.51,0,0,0-30,9.74,30.21,30.21,0,0,1-4.82-7l-.32.15a4.93,4.93,0,1,0-4.94.93,5,5,0,0,0,3.09.09,38.48,38.48,0,0,1,4,7.91,57.7,57.7,0,0,0-11.61,11.9c-2.32-.15-7.26-1.8-16.44-10a8.88,8.88,0,0,0,.29-2.24,7,7,0,1,0-7,7,8.13,8.13,0,0,0,4.55-1.44c2.31,1.76,11.85,9.34,13.32,15.55a57.42,57.42,0,0,0-5.7,23.7c-1.18,1.18-5,3.51-15.83,2.45a5.5,5.5,0,1,0,.24,3c2.7-.11,13.21-.27,16.08,3.66a57.68,57.68,0,0,0,24.46,39.86c.23,2.64-.17,10.6-11.14,21l.33.35a6.53,6.53,0,0,0-9.81,5.48,6.53,6.53,0,1,0,11.87-3.58c1.26-1.49,13-15.32,19.6-17.31a58,58,0,0,0,34.88,2.85c2.59.45,7.37,2.71,10.26,12.76a5.39,5.39,0,0,0-1.16,1.93,5.49,5.49,0,1,0,3.71-3.49c-1.1-2.36-5-11.45-1.36-15.14a57.76,57.76,0,0,0,16.1-11.19c3.53.19,9.08,2.77,17.54,11.59l.38-.28a6.38,6.38,0,0,0-1.25,3,6.54,6.54,0,1,0,3.38-4.78c-1.26-1-10.57-8.85-13.79-16.78A57.8,57.8,0,0,0,211,881.8a72.24,72.24,0,0,1,8.38,3.06l.24-.41a6.42,6.42,0,0,0,0,3.23,6.53,6.53,0,1,0,4.71-7.94,6.46,6.46,0,0,0-3.46,2.23,69.81,69.81,0,0,1-8.55-3.22,56.94,56.94,0,0,0,3.84-15.89c6.64-5.83,24.36-4,26.48-3.8A7,7,0,1,0,253.28,851Z"/><path class="cls-2" d="M123.83,855.56c0-25.69,14.12-47.3,37.83-53.62-.89-.05-1.79-.07-2.69-.07A55.51,55.51,0,1,0,173.3,911C143.9,909.6,123.83,885.32,123.83,855.56Z"/><path class="cls-2" d="M163.07,827.92c3.59,6.33,0,15.16-8,19.73s-17.46,3.13-21.06-3.19-.71-16.42,7.32-21S159.47,821.59,163.07,827.92Z"/><path class="cls-2" d="M198.63,831.17c-.65,3.25-4.52,5.22-8.64,4.4s-6.94-4.13-6.29-7.38,4.64-5.86,8.77-5S199.28,827.93,198.63,831.17Z"/><path class="cls-2" d="M195.48,887.1c-.37,1.87-2.59,3-5,2.53s-4-2.38-3.62-4.24,2.67-3.37,5-2.9S195.86,885.23,195.48,887.1Z"/><path class="cls-2" d="M177.11,850.34c1.18-1.5,3.67-1.5,5.57,0s2.49,3.92,1.31,5.42-3.9,1.8-5.81.3S175.93,851.83,177.11,850.34Z"/><path class="cls-2" d="M156.7,896c-.39,1.87-2.62,3-5,2.48s-4-2.41-3.58-4.28,2.71-3.34,5.07-2.84S157.09,894.14,156.7,896Z"/><path class="cls-2" d="M175.71,814.63c1.24,1.45.76,3.9-1.07,5.47s-4.33,1.69-5.57.24-1-4.18.82-5.75A4.29,4.29,0,0,1,175.71,814.63Z"/><path class="cls-2" d="M132.86,856.59c1.25,1.45.77,3.89-1.07,5.47s-4.32,1.69-5.56.24-1-4.18.82-5.76S131.62,855.15,132.86,856.59Z"/><circle class="cls-2" cx="162.08" cy="871.05" r="8.66"/><circle class="cls-2" cx="135.66" cy="882.4" r="6.12"/><circle class="cls-2" cx="172.35" cy="897.06" r="6.12"/><circle class="cls-2" cx="195.54" cy="866.83" r="6.12"/><path class="cls-2" d="M889.39,219.72a4.32,4.32,0,0,0-6,1.12,4.25,4.25,0,0,0-.74,2l-.06-.3c-9.92.54-14.19-1.05-16-2.55a36.46,36.46,0,0,0-.59-3.79c.23-.76,1.35-2.25,6.45-3.33l0-.2a2.78,2.78,0,0,0,.89,1.08,2.84,2.84,0,1,0-1.15-2.27c-.62.19-4.82,1.46-7.25.74a35.41,35.41,0,0,0-4.54-8.95c-.41-1.23-.51-5.07,9.41-12l0-.07a5.82,5.82,0,0,0,8.88-5.52,5.82,5.82,0,1,0-10.84,3.48c-1.88,1.57-9.17,7.35-14,7a35.3,35.3,0,0,0-17.83-7.68c-1.11-.89-2.68-3.48-2.51-11.08l-.33,0a4.59,4.59,0,1,0-1.95,0c.08,1,.46,7.17-1.15,10.86a35.29,35.29,0,0,0-18.42,6,18.93,18.93,0,0,1-3-4.27l-.2.09a3,3,0,0,0,.85-1.24,3,3,0,1,0-3.88,1.81,3.06,3.06,0,0,0,1.89.06,23.3,23.3,0,0,1,2.49,4.85,35.59,35.59,0,0,0-7.13,7.32c-1.43-.1-4.47-1.11-10.11-6.14a5.19,5.19,0,0,0,.18-1.38,4.3,4.3,0,1,0-4.32,4.28,4.92,4.92,0,0,0,2.8-.89c1.42,1.08,7.28,5.74,8.19,9.56a35.35,35.35,0,0,0-3.51,14.56c-.72.73-3,2.16-9.72,1.51a3.46,3.46,0,0,0-.72-1.16,3.38,3.38,0,1,0-.12,4.77,3.32,3.32,0,0,0,1-1.79c1.67-.07,8.12-.16,9.88,2.25a35.46,35.46,0,0,0,15,24.49c.15,1.62-.1,6.51-6.84,12.88l.2.21a4.08,4.08,0,0,0-1.91-.54,4,4,0,1,0,3.18,1.71c.77-.91,8-9.41,12-10.64a35.28,35.28,0,0,0,13.47,2.65,36,36,0,0,0,8-.89c1.59.28,4.53,1.66,6.31,7.84a3.33,3.33,0,0,0-.72,1.19,3.37,3.37,0,1,0,4.29-2.09,3.3,3.3,0,0,0-2-.06c-.67-1.45-3.06-7-.83-9.3a35.69,35.69,0,0,0,9.89-6.88c2.17.12,5.58,1.7,10.78,7.12l.23-.17a4,4,0,1,0,1.31-1.11c-.78-.63-6.49-5.43-8.48-10.31a35,35,0,0,0,3.42-5.79,44.49,44.49,0,0,1,5.15,1.88l.15-.25a3.84,3.84,0,0,0,0,2,4,4,0,1,0,.77-3.52,42.67,42.67,0,0,1-5.25-2,35.35,35.35,0,0,0,2.35-9.77c4.08-3.58,15-2.48,16.27-2.33a4.33,4.33,0,1,0,6.54-5Z"/><path class="cls-2" d="M809.86,222.53c0-15.79,8.68-29.07,23.24-32.95-.55,0-1.1,0-1.65,0a34.11,34.11,0,1,0,8.81,67C822.19,255.73,809.86,240.81,809.86,222.53Z"/><path class="cls-2" d="M834,205.55c2.21,3.89,0,9.31-4.94,12.12s-10.73,1.92-12.94-2-.44-10.09,4.5-12.9S831.76,201.66,834,205.55Z"/><path class="cls-2" d="M855.82,207.55c-.4,2-2.78,3.2-5.31,2.69s-4.27-2.53-3.87-4.53,2.86-3.6,5.39-3.09S856.22,205.55,855.82,207.55Z"/><path class="cls-2" d="M853.88,241.91a2.76,2.76,0,0,1-5.27-1.06,2.71,2.71,0,0,1,5.27,1.06Z"/><path class="cls-2" d="M842.59,219.32a2.46,2.46,0,0,1,3.43,0,2.43,2.43,0,0,1,.8,3.32,2.71,2.71,0,0,1-4.23-3.32Z"/><path class="cls-2" d="M830.06,247.38a2.77,2.77,0,0,1-5.27-1.11,2.72,2.72,0,0,1,5.27,1.11Z"/><path class="cls-2" d="M841.73,197.38a2.77,2.77,0,0,1-4.08,3.51,2.72,2.72,0,0,1,4.08-3.51Z"/><path class="cls-2" d="M815.41,223.16a2.77,2.77,0,0,1-4.08,3.51,2.72,2.72,0,0,1,4.08-3.51Z"/><circle class="cls-2" cx="833.36" cy="232.05" r="5.32"/><circle class="cls-2" cx="817.13" cy="239.02" r="3.76"/><circle class="cls-2" cx="839.67" cy="248.03" r="3.76"/><circle class="cls-2" cx="853.92" cy="229.46" r="3.76"/></g><g id="Sintomas"><path class="cls-2" d="M2823.86,621c0-116.67-69.17-223.06-176.85-268a209.93,209.93,0,0,1-26.34-13.29C2420,220.45,2094.89,48.81,1943.76,301.91s76.3,274.79,71.12,434.93c-5.08,157.1,50.8,253.11,156.21,257.47,84.54,3.5,144.58-27.62,205,6.46,44.05,24.84,93.47,38.64,144.05,38.64H2536c159,0,287.85-128.88,287.85-287.86Z"/><ellipse class="cls-3" cx="676.57" cy="757.27" rx="5.42" ry="10.84" transform="translate(-308.3 509.8) rotate(-34.12)"/><ellipse class="cls-3" cx="665.73" cy="786.18" rx="3.74" ry="7.48" transform="translate(-326.38 508.69) rotate(-34.12)"/><ellipse class="cls-3" cx="1277.45" cy="482.59" rx="5.42" ry="10.84" transform="translate(114.56 1198.46) rotate(-52.31)"/><ellipse class="cls-3" cx="1278.72" cy="451.75" rx="3.74" ry="7.48" transform="translate(139.47 1187.48) rotate(-52.31)"/><ellipse class="cls-3" cx="514.45" cy="47.2" rx="10.84" ry="5.42" transform="translate(78.49 324.36) rotate(-37.69)"/><ellipse class="cls-3" cx="515.72" cy="78.04" rx="7.48" ry="3.74" transform="translate(59.89 331.58) rotate(-37.69)"/><ellipse class="cls-3" cx="2016.55" cy="672.7" rx="6.5" ry="13" transform="translate(46.82 1472.16) rotate(-40.54)"/><ellipse class="cls-3" cx="2043.88" cy="579.03" rx="6.5" ry="13" transform="translate(-80.43 584.17) rotate(-15.96)"/><ellipse class="cls-3" cx="2072.58" cy="706.19" rx="6.5" ry="8.85" transform="translate(1156.62 2694.98) rotate(-84.09)"/><ellipse class="cls-3" cx="2628.09" cy="161.37" rx="6.12" ry="12.25" transform="translate(1655.8 2608.32) rotate(-71.84)"/><ellipse class="cls-3" cx="2556.29" cy="218.79" rx="12.25" ry="6.12" transform="translate(-8.43 287.5) rotate(-6.43)"/><ellipse class="cls-3" cx="2677.37" cy="198.17" rx="6.12" ry="8.34" transform="translate(225.98 1292.82) rotate(-28.3)"/><ellipse class="cls-3" cx="1847.43" cy="169" rx="6.88" ry="5.05" transform="translate(-7.35 132.32) rotate(-4.09)"/><ellipse class="cls-3" cx="1879.43" cy="210" rx="11.1" ry="8.15" transform="translate(521.13 1525.82) rotate(-50.47)"/><g class="cls-4"><path class="cls-5" d="M848.86,185.79s.93-1.91,2.77-5.32"/><path class="cls-6" d="M855,174.36c3.18-5.54,7.57-12.83,13.16-21.24"/><path class="cls-7" d="M869.3,151.45c51.55-76.67,199.75-240.17,434.67-43,329.89,276.82,478.47,121.19,534.94,32.12a171,171,0,0,0,10-18.29c14.73-31.09,77.89-148.81,153.27-61.63a165.53,165.53,0,0,1,27,43.94c31.23,73.92,241.16,402.06,675.05,247.58"/><path class="cls-5" d="M2706.22,351.45l5.64-2"/></g><circle class="cls-2" cx="2742.86" cy="328.41" r="34"/><circle class="cls-2" cx="1896.36" cy="846.91" r="32.5"/><path class="cls-2" d="M2495.14,97.77a4.16,4.16,0,0,0-5.77,1.07,4,4,0,0,0-.7,1.93l-.06-.29c-9.51.52-13.6-1-15.35-2.44a33.45,33.45,0,0,0-.57-3.63c.22-.73,1.3-2.16,6.18-3.2l0-.19a2.83,2.83,0,0,0,.85,1,2.71,2.71,0,1,0-1.1-2.18c-.59.19-4.61,1.41-7,.71A33.71,33.71,0,0,0,2467.3,82c-.39-1.18-.49-4.87,9-11.54l0-.07a5.57,5.57,0,1,0-2.59-4.14,5.39,5.39,0,0,0,.71,2.19c-1.8,1.51-8.79,7-13.47,6.7a33.78,33.78,0,0,0-17.08-7.37c-1.07-.84-2.57-3.33-2.41-10.61l-.31,0a4.43,4.43,0,0,0,1.93-.95,4.34,4.34,0,1,0-6.12-.49,4.26,4.26,0,0,0,2.32,1.41c.07.93.44,6.87-1.1,10.4a33.83,33.83,0,0,0-17.65,5.74,17.7,17.7,0,0,1-2.84-4.1l-.19.09a2.81,2.81,0,0,0,.81-1.18,2.92,2.92,0,1,0-1.9,1.78,22.24,22.24,0,0,1,2.38,4.66,33.88,33.88,0,0,0-6.83,7c-1.37-.09-4.28-1.06-9.68-5.89a5.63,5.63,0,0,0,.17-1.31,4.12,4.12,0,1,0-4.14,4.09,4.66,4.66,0,0,0,2.68-.85c1.36,1,7,5.5,7.85,9.16a33.83,33.83,0,0,0-3.36,14c-.7.69-2.91,2.06-9.32,1.44a3.33,3.33,0,0,0-.69-1.11,3.23,3.23,0,1,0-.11,4.57,3.2,3.2,0,0,0,.94-1.72c1.59-.06,7.78-.15,9.47,2.16a34,34,0,0,0,14.4,23.47c.14,1.55-.1,6.23-6.56,12.34l.19.2a3.84,3.84,0,1,0,1.92,3.42,3.82,3.82,0,0,0-.7-2.3c.74-.88,7.63-9,11.54-10.19a34.12,34.12,0,0,0,20.53,1.68c1.52.26,4.34,1.59,6,7.51a3.27,3.27,0,0,0-.68,1.14,3.22,3.22,0,1,0,2.18-2.06c-.64-1.39-2.93-6.74-.8-8.91a34.08,34.08,0,0,0,9.48-6.59c2.08.11,5.35,1.63,10.33,6.82l.22-.16a3.85,3.85,0,1,0,3.64-1.48,3.78,3.78,0,0,0-2.38.42c-.75-.61-6.22-5.21-8.12-9.88a34.26,34.26,0,0,0,3.27-5.55,41.25,41.25,0,0,1,4.93,1.8l.14-.24a3.91,3.91,0,1,0,.74-1.46,42.51,42.51,0,0,1-5-1.9,33.85,33.85,0,0,0,2.26-9.35c3.9-3.43,14.34-2.38,15.59-2.24a4.14,4.14,0,1,0,6.27-4.75Z"/><path class="cls-2" d="M2418.93,100.46c0-15.13,8.31-27.85,22.27-31.57-.53,0-1,0-1.58,0a32.68,32.68,0,1,0,8.43,64.25C2430.74,132.27,2418.93,118,2418.93,100.46Z"/><path class="cls-2" d="M2442,84.19c2.11,3.73,0,8.93-4.73,11.61s-10.28,1.85-12.4-1.88-.42-9.66,4.31-12.35S2439.91,80.46,2442,84.19Z"/><path class="cls-2" d="M2463,86.1c-.39,1.92-2.67,3.07-5.09,2.59s-4.09-2.43-3.71-4.34,2.74-3.46,5.17-3S2463.35,84.19,2463,86.1Z"/><path class="cls-2" d="M2461.11,119a2.65,2.65,0,0,1-5.05-1,2.6,2.6,0,0,1,5.05,1Z"/><path class="cls-2" d="M2450.29,97.38a2.66,2.66,0,0,1,4.06,3.19,2.61,2.61,0,0,1-4.06-3.19Z"/><path class="cls-2" d="M2438.28,124.27a2.65,2.65,0,0,1-5.05-1.06,2.6,2.6,0,0,1,5.05,1.06Z"/><path class="cls-2" d="M2449.47,76.37a2.65,2.65,0,0,1-3.91,3.36,2.6,2.6,0,0,1,3.91-3.36Z"/><path class="cls-2" d="M2424.25,101.07a2.65,2.65,0,0,1-3.91,3.36,2.6,2.6,0,0,1,3.91-3.36Z"/><circle class="cls-2" cx="2441.45" cy="109.58" r="5.1"/><circle class="cls-2" cx="2425.89" cy="116.26" r="3.61"/><circle class="cls-2" cx="2447.49" cy="124.89" r="3.61"/><circle class="cls-2" cx="2461.14" cy="107.1" r="3.61"/></g></g></svg>