<svg xmlns="http://www.w3.org/2000/svg" viewBox="0 0 526 316"><defs><style>.cls-1{fill:#f79594;}.cls-2{fill:#59de9d;}.cls-3{fill:#7daaeb;}.cls-4{fill:#a7e8e2;}.cls-5{fill:#68c7bb;}.cls-6{font-size:7.45px;}.cls-6,.cls-7,.cls-8{fill:gray;font-family:Arial-BoldMT, Arial;font-weight:700;}.cls-7{font-size:7.41px;}.cls-8{font-size:8.34px;}</style></defs><title>Grafica01</title><g id="Noticias"><rect class="cls-1" x="123.29" y="65.17" width="331.57" height="17.1" rx="8.55"/><rect class="cls-1" x="123.29" y="88.46" width="181.35" height="17.1" rx="8.55"/><rect class="cls-2" x="123.29" y="111.74" width="85.49" height="17.1" rx="8.55"/><rect class="cls-3" x="123.29" y="135.03" width="71.44" height="17.1" rx="8.55"/><rect class="cls-1" x="123.29" y="158.31" width="29.92" height="17.1" rx="8.55"/><rect class="cls-1" x="123.29" y="181.59" width="26.3" height="17.1" rx="8.55"/><rect class="cls-1" x="123.29" y="204.88" width="24.51" height="17.1" rx="8.55"/><rect class="cls-3" x="123.29" y="228.16" width="22.72" height="17.1" rx="8.55"/><rect class="cls-4" x="123.29" y="251.45" width="20.94" height="17.1" rx="8.55"/><rect class="cls-5" x="123.29" y="274.73" width="19.15" height="17.1" rx="8.55"/><text class="cls-6" transform="translate(62.04 75.87)">Estados Unidos</text><text class="cls-6" transform="translate(97.64 99.16)">Brasil</text><text class="cls-6" transform="translate(100.96 122.44)">India</text><text class="cls-6" transform="translate(98.06 145.72)">Rusia</text><text class="cls-6" transform="translate(101.78 169.01)">Perú</text><text class="cls-7" transform="translate(100.26 192.28)">Chile</text><text class="cls-7" transform="translate(93.27 215.57)">Mexico</text><text class="cls-7" transform="translate(87.95 238.85)">R. Unido</text><text class="cls-6" transform="translate(81.49 262.14)">Sudráfrica</text><text class="cls-6" transform="translate(104.68 285.43)">Irán</text><rect class="cls-2" x="62.03" y="24.17" width="71" height="26" rx="11"/><text class="cls-8" transform="translate(87.96 40.69)">Asia</text><rect class="cls-3" x="144.76" y="24.17" width="71" height="26" rx="11"/><text class="cls-8" transform="translate(165.9 39.18)">Europa</text><rect class="cls-4" x="310.24" y="24.17" width="71" height="26" rx="11"/><text class="cls-8" transform="translate(333.92 39.18)">Africa</text><rect class="cls-5" x="392.97" y="24.17" width="71" height="26" rx="11"/><text class="cls-8" transform="translate(412.25 39.18)">Oceanía</text><rect class="cls-1" x="227.5" y="24.17" width="71" height="26" rx="11"/><text class="cls-8" transform="translate(246.54 39.18)">America</text></g></svg>