<svg id="Layer_1" data-name="Layer 1" xmlns="http://www.w3.org/2000/svg" xmlns:xlink="http://www.w3.org/1999/xlink" viewBox="0 0 35.12 35.12"><defs><style>.cls-1{fill:url(#linear-gradient);}.cls-2{fill:#86cab4;}.cls-3{fill:#fff;}</style><linearGradient id="linear-gradient" x1="17.32" y1="33.56" x2="17.32" y2="1.56" gradientUnits="userSpaceOnUse"><stop offset="0" stop-color="#86cab4"/><stop offset="1" stop-color="#41c987"/></linearGradient></defs><title>ICONS</title><path class="cls-1" d="M18.37,33.53a16,16,0,0,1-2.1-31.94,16,16,0,0,1,2.1,31.94ZM16.3,2.09A15.5,15.5,0,1,0,32.79,16.54,15.52,15.52,0,0,0,16.3,2.09Z"/><path class="cls-2" d="M18.25,31.66A14.14,14.14,0,0,1,6.69,8.24a14.15,14.15,0,0,1,20-1.31,14.15,14.15,0,0,1,1.31,20A14,14,0,0,1,18.25,31.66ZM16.4,3.58A14,14,0,1,0,31.3,16.64,14,14,0,0,0,16.4,3.58Z"/><path class="cls-3" d="M28.29,23.79a.56.56,0,0,0-.54-.05,1,1,0,0,1-.45,0,1.28,1.28,0,0,1-.83-.39A11.27,11.27,0,0,1,25.6,22a9.45,9.45,0,0,0,1-2.55A12.36,12.36,0,0,1,28.18,19a1,1,0,0,1,.57.12.84.84,0,0,1,.29.33.46.46,0,0,0,.36.32c.3,0,.63-.42.66-.95s-.24-1-.54-1a.42.42,0,0,0-.35.19,1,1,0,0,1-.25.2.93.93,0,0,1-.67.1,10,10,0,0,1-1.39-.61,9.31,9.31,0,0,0-.42-3.19,9.45,9.45,0,0,1,.9-.94,1.2,1.2,0,0,1,.76-.24,1,1,0,0,1,.56.2.63.63,0,0,0,.65.13c.36-.18.46-.91.14-1.57s-.94-1-1.3-.82a.58.58,0,0,0-.29.47,1,1,0,0,1-.17.41,1.23,1.23,0,0,1-.73.57,7.46,7.46,0,0,1-1.2.15,9.44,9.44,0,0,0-2.07-2.62A7.19,7.19,0,0,1,24,9.13a.93.93,0,0,1,.41-.42.74.74,0,0,1,.44-.05.49.49,0,0,0,.46-.14c.18-.24,0-.75-.44-1.07s-.95-.33-1.12-.09a.4.4,0,0,0,0,.4.91.91,0,0,1,0,.33,1,1,0,0,1-.28.61,7.71,7.71,0,0,1-.95.64A9.22,9.22,0,0,0,19.3,8a5.91,5.91,0,0,1-.18-.74,1.22,1.22,0,0,1,.19-.77,1.14,1.14,0,0,1,.46-.38.65.65,0,0,0,.45-.48c0-.41-.55-.87-1.28-.94s-1.33.29-1.37.7a.57.57,0,0,0,.25.48,1.17,1.17,0,0,1,.27.36,1.28,1.28,0,0,1,.11.92,6.67,6.67,0,0,1-.28.68,9.51,9.51,0,0,0-3.81.58,5.87,5.87,0,0,1-.57-.59.91.91,0,0,1-.16-.56.71.71,0,0,1,.16-.4.47.47,0,0,0,.11-.47c-.12-.28-.66-.37-1.15-.15s-.75.67-.63,1a.47.47,0,0,0,.34.22.81.81,0,0,1,.3.13.91.91,0,0,1,.4.54A5.43,5.43,0,0,1,13,9a9.48,9.48,0,0,0-2.9,2.4,7.7,7.7,0,0,1-.89-.27,1.21,1.21,0,0,1-.56-.56.92.92,0,0,1-.08-.59.65.65,0,0,0-.19-.63c-.33-.24-1,0-1.46.6s-.44,1.3-.11,1.54a.59.59,0,0,0,.54,0,1.14,1.14,0,0,1,.45-.05,1.31,1.31,0,0,1,.84.38,7,7,0,0,1,.58.83,9.52,9.52,0,0,0-1.1,3.13,8.85,8.85,0,0,1-1.17.35A.88.88,0,0,1,6.37,16a.72.72,0,0,1-.28-.34.48.48,0,0,0-.36-.31c-.3,0-.64.41-.67.94s.23,1,.53,1a.41.41,0,0,0,.35-.19.73.73,0,0,1,.26-.2.93.93,0,0,1,.67-.1,8.78,8.78,0,0,1,1.12.5,9.43,9.43,0,0,0,.61,3.32,6,6,0,0,1-.61.62,1.16,1.16,0,0,1-.75.24,1,1,0,0,1-.56-.19A.66.66,0,0,0,6,21.17c-.36.18-.46.92-.13,1.58s.95,1,1.31.8a.61.61,0,0,0,.29-.47,1,1,0,0,1,.16-.41,1.3,1.3,0,0,1,.72-.58A7.83,7.83,0,0,1,9.23,22a9.15,9.15,0,0,0,2.16,2.58A11.94,11.94,0,0,1,11.13,26a.86.86,0,0,1-.38.45.68.68,0,0,1-.42.1.5.5,0,0,0-.45.17c-.16.26.07.75.53,1s1,.24,1.13,0a.43.43,0,0,0,0-.4.75.75,0,0,1-.06-.33.94.94,0,0,1,.22-.64,10.4,10.4,0,0,1,1.09-.86,9.55,9.55,0,0,0,3.08,1.09,9.33,9.33,0,0,1,.19,1.18,1.1,1.1,0,0,1-.26.75.94.94,0,0,1-.49.33c-.26.09-.45.24-.48.44-.08.41.45.92,1.18,1.06s1.35-.17,1.43-.57a.58.58,0,0,0-.21-.51,1.14,1.14,0,0,1-.23-.38A1.28,1.28,0,0,1,17,28a11.66,11.66,0,0,1,.72-1.25,9.59,9.59,0,0,0,2.71-.48,10.53,10.53,0,0,1,1.21,1,.9.9,0,0,1,.2.54.71.71,0,0,1-.12.42.45.45,0,0,0-.06.48c.14.26.68.3,1.15,0s.69-.73.54-1a.44.44,0,0,0-.35-.19.87.87,0,0,1-.31-.1,1,1,0,0,1-.45-.51A9.93,9.93,0,0,1,22,25.56a9.4,9.4,0,0,0,2.42-1.91,9.77,9.77,0,0,1,1.47.45,1.21,1.21,0,0,1,.55.57,1,1,0,0,1,.07.59.65.65,0,0,0,.17.63c.33.25,1,0,1.48-.57S28.62,24,28.29,23.79Z"/><path class="cls-3" d="M20.59,25.62a1.75,1.75,0,0,0-2.11-.8,4.22,4.22,0,0,1-3.5-.61c-.78-.56.31-2.16-2.12-3.19s-1.24-1.91-1.11-2.59.2-.69-.81-1.95a1.59,1.59,0,0,1,0-2,2,2,0,0,1,.67-.58,3.27,3.27,0,0,0,1.2-4.38S5.64,13.74,9.64,21.69C9.64,21.69,12.73,28,20.59,25.62Z"/><path class="cls-3" d="M20.73,11a2,2,0,0,1-2.4,1.51,2,2,0,0,1-2-2,2.25,2.25,0,0,1,4.43.48Z"/><path class="cls-3" d="M24.33,14.09a.93.93,0,0,1-1.28-.2.94.94,0,0,1-.11-1.29,1,1,0,0,1,1.39,1.49Z"/><path class="cls-3" d="M19.64,19.89a.55.55,0,0,1-.74-.11.54.54,0,0,1-.06-.74.59.59,0,0,1,.8.85Z"/><path class="cls-3" d="M14.75,17.84A.6.6,0,0,1,14,17a.58.58,0,0,1,.77.08A.57.57,0,0,1,14.75,17.84Z"/><path class="cls-3" d="M15.23,11.72c0,.25-.22.48-.54.51a.53.53,0,0,1-.62-.41.58.58,0,0,1,.54-.56A.57.57,0,0,1,15.23,11.72Z"/><circle class="cls-3" cx="17.27" cy="15.56" r="1.15"/><circle class="cls-3" cx="13.53" cy="14.73" r="0.82"/><path class="cls-3" d="M23.4,19.77a.42.42,0,0,1,.48.35.41.41,0,0,1-.22.55.46.46,0,0,1-.52-.34A.46.46,0,0,1,23.4,19.77Z"/><path class="cls-3" d="M25.5,16.59a.42.42,0,0,1-.43.41.44.44,0,0,1-.5-.33.47.47,0,0,1,.93-.08Z"/><circle class="cls-3" cx="20.08" cy="23.52" r="0.65"/><circle class="cls-3" cx="23.97" cy="22.35" r="0.65"/><path class="cls-2" d="M28.29,23.79a.56.56,0,0,0-.54-.05,1,1,0,0,1-.45,0,1.28,1.28,0,0,1-.83-.39A11.27,11.27,0,0,1,25.6,22a9.45,9.45,0,0,0,1-2.55A12.36,12.36,0,0,1,28.18,19a1,1,0,0,1,.57.12.84.84,0,0,1,.29.33.46.46,0,0,0,.36.32c.3,0,.63-.42.66-.95s-.24-1-.54-1a.42.42,0,0,0-.35.19,1,1,0,0,1-.25.2.93.93,0,0,1-.67.1,10,10,0,0,1-1.39-.61,9.31,9.31,0,0,0-.42-3.19,9.45,9.45,0,0,1,.9-.94,1.2,1.2,0,0,1,.76-.24,1,1,0,0,1,.56.2.63.63,0,0,0,.65.13c.36-.18.46-.91.14-1.57s-.94-1-1.3-.82a.58.58,0,0,0-.29.47,1,1,0,0,1-.17.41,1.23,1.23,0,0,1-.73.57,7.46,7.46,0,0,1-1.2.15,9.44,9.44,0,0,0-2.07-2.62A7.19,7.19,0,0,1,24,9.13a.93.93,0,0,1,.41-.42.74.74,0,0,1,.44-.05.49.49,0,0,0,.46-.14c.18-.24,0-.75-.44-1.07s-.95-.33-1.12-.09a.4.4,0,0,0,0,.4.91.91,0,0,1,0,.33,1,1,0,0,1-.28.61,7.71,7.71,0,0,1-.95.64A9.22,9.22,0,0,0,19.3,8a5.91,5.91,0,0,1-.18-.74,1.22,1.22,0,0,1,.19-.77,1.14,1.14,0,0,1,.46-.38.65.65,0,0,0,.45-.48c0-.41-.55-.87-1.28-.94s-1.33.29-1.37.7a.57.57,0,0,0,.25.48,1.17,1.17,0,0,1,.27.36,1.28,1.28,0,0,1,.11.92,6.67,6.67,0,0,1-.28.68,9.51,9.51,0,0,0-3.81.58,5.87,5.87,0,0,1-.57-.59.91.91,0,0,1-.16-.56.71.71,0,0,1,.16-.4.47.47,0,0,0,.11-.47c-.12-.28-.66-.37-1.15-.15s-.75.67-.63,1a.47.47,0,0,0,.34.22.81.81,0,0,1,.3.13.91.91,0,0,1,.4.54A5.43,5.43,0,0,1,13,9a9.48,9.48,0,0,0-2.9,2.4,7.7,7.7,0,0,1-.89-.27,1.21,1.21,0,0,1-.56-.56.92.92,0,0,1-.08-.59.65.65,0,0,0-.19-.63c-.33-.24-1,0-1.46.6s-.44,1.3-.11,1.54a.59.59,0,0,0,.54,0,1.14,1.14,0,0,1,.45-.05,1.31,1.31,0,0,1,.84.38,7,7,0,0,1,.58.83,9.52,9.52,0,0,0-1.1,3.13,8.85,8.85,0,0,1-1.17.35A.88.88,0,0,1,6.37,16a.72.72,0,0,1-.28-.34.48.48,0,0,0-.36-.31c-.3,0-.64.41-.67.94s.23,1,.53,1a.41.41,0,0,0,.35-.19.73.73,0,0,1,.26-.2.93.93,0,0,1,.67-.1,8.78,8.78,0,0,1,1.12.5,9.43,9.43,0,0,0,.61,3.32,6,6,0,0,1-.61.62,1.16,1.16,0,0,1-.75.24,1,1,0,0,1-.56-.19A.66.66,0,0,0,6,21.17c-.36.18-.46.92-.13,1.58s.95,1,1.31.8a.61.61,0,0,0,.29-.47,1,1,0,0,1,.16-.41,1.3,1.3,0,0,1,.72-.58A7.83,7.83,0,0,1,9.23,22a9.15,9.15,0,0,0,2.16,2.58A11.94,11.94,0,0,1,11.13,26a.86.86,0,0,1-.38.45.68.68,0,0,1-.42.1.5.5,0,0,0-.45.17c-.16.26.07.75.53,1s1,.24,1.13,0a.43.43,0,0,0,0-.4.75.75,0,0,1-.06-.33.94.94,0,0,1,.22-.64,10.4,10.4,0,0,1,1.09-.86,9.55,9.55,0,0,0,3.08,1.09,9.33,9.33,0,0,1,.19,1.18,1.1,1.1,0,0,1-.26.75.94.94,0,0,1-.49.33c-.26.09-.45.24-.48.44-.08.41.45.92,1.18,1.06s1.35-.17,1.43-.57a.58.58,0,0,0-.21-.51,1.14,1.14,0,0,1-.23-.38A1.28,1.28,0,0,1,17,28a11.66,11.66,0,0,1,.72-1.25,9.59,9.59,0,0,0,2.71-.48,10.53,10.53,0,0,1,1.21,1,.9.9,0,0,1,.2.54.71.71,0,0,1-.12.42.45.45,0,0,0-.06.48c.14.26.68.3,1.15,0s.69-.73.54-1a.44.44,0,0,0-.35-.19.87.87,0,0,1-.31-.1,1,1,0,0,1-.45-.51A9.93,9.93,0,0,1,22,25.56a9.4,9.4,0,0,0,2.42-1.91,9.77,9.77,0,0,1,1.47.45,1.21,1.21,0,0,1,.55.57,1,1,0,0,1,.07.59.65.65,0,0,0,.17.63c.33.25,1,0,1.48-.57S28.62,24,28.29,23.79Z"/><path class="cls-2" d="M20.59,25.62a1.75,1.75,0,0,0-2.11-.8,4.22,4.22,0,0,1-3.5-.61c-.78-.56.31-2.16-2.12-3.19s-1.24-1.91-1.11-2.59.2-.69-.81-1.95a1.59,1.59,0,0,1,0-2,2,2,0,0,1,.67-.58,3.27,3.27,0,0,0,1.2-4.38S5.64,13.74,9.64,21.69C9.64,21.69,12.73,28,20.59,25.62Z"/><path class="cls-2" d="M20.73,11a2,2,0,0,1-2.4,1.51,2,2,0,0,1-2-2,2.25,2.25,0,0,1,4.43.48Z"/><path class="cls-2" d="M24.33,14.09a.93.93,0,0,1-1.28-.2.94.94,0,0,1-.11-1.29,1,1,0,0,1,1.39,1.49Z"/><path class="cls-2" d="M19.64,19.89a.55.55,0,0,1-.74-.11.54.54,0,0,1-.06-.74.59.59,0,0,1,.8.85Z"/><path class="cls-2" d="M14.75,17.84A.6.6,0,0,1,14,17a.58.58,0,0,1,.77.08A.57.57,0,0,1,14.75,17.84Z"/><path class="cls-2" d="M15.23,11.72c0,.25-.22.48-.54.51a.53.53,0,0,1-.62-.41.58.58,0,0,1,.54-.56A.57.57,0,0,1,15.23,11.72Z"/><circle class="cls-2" cx="17.27" cy="15.56" r="1.15"/><circle class="cls-2" cx="13.53" cy="14.73" r="0.82"/><path class="cls-2" d="M23.4,19.77a.42.42,0,0,1,.48.35.41.41,0,0,1-.22.55.46.46,0,0,1-.52-.34A.46.46,0,0,1,23.4,19.77Z"/><path class="cls-2" d="M25.5,16.59a.42.42,0,0,1-.43.41.44.44,0,0,1-.5-.33.47.47,0,0,1,.93-.08Z"/><circle class="cls-2" cx="20.08" cy="23.52" r="0.65"/><circle class="cls-2" cx="23.97" cy="22.35" r="0.65"/></svg>