<svg id="Layer_1" data-name="Layer 1" xmlns="http://www.w3.org/2000/svg" viewBox="0 0 35.12 35.12"><defs><style>.cls-1{fill:#fbdfdf;}.cls-2{fill:#ed6160;}</style></defs><title>ICONS</title><circle class="cls-1" cx="17.56" cy="17.56" r="15.76"/><path class="cls-2" d="M16.71,30.61l-.32,0a2.11,2.11,0,0,1-1-.45,1,1,0,0,1-.39-.84.85.85,0,0,1,.62-.65.8.8,0,0,0,.43-.35.87.87,0,0,0,.13-.5,6.41,6.41,0,0,0-.19-1,9.59,9.59,0,0,1-2.85-.91,7.37,7.37,0,0,0-.9.76.59.59,0,0,0-.14.37.72.72,0,0,0,.07.37.69.69,0,0,1,0,.58,1.09,1.09,0,0,1-1.46.14c-.59-.33-.89-.95-.66-1.34a.72.72,0,0,1,.67-.32.53.53,0,0,0,.35-.13.47.47,0,0,0,.17-.26,8.32,8.32,0,0,0,.19-1.28,9.72,9.72,0,0,1-2.09-2.34c-.29,0-.5.09-.63.12a1.07,1.07,0,0,0-.54.45,1.1,1.1,0,0,0-.14.42.82.82,0,0,1-.39.6A1,1,0,0,1,6.7,24a2,2,0,0,1-.76-.8,2.11,2.11,0,0,1-.25-1.08.94.94,0,0,1,.44-.82.85.85,0,0,1,.89.11.84.84,0,0,0,.53.13.88.88,0,0,0,.48-.2,4.52,4.52,0,0,0,.46-.48,9.59,9.59,0,0,1-.66-3.08,9.37,9.37,0,0,0-1-.38.61.61,0,0,0-.42.07,1.24,1.24,0,0,0-.27.21.67.67,0,0,1-.51.26.78.78,0,0,1-.61-.41,1.6,1.6,0,0,1-.19-.82c0-.67.43-1.22.89-1.2a.72.72,0,0,1,.59.44.48.48,0,0,0,.28.26.53.53,0,0,0,.3,0,6.38,6.38,0,0,0,1-.32A9.43,9.43,0,0,1,8.85,13a5.21,5.21,0,0,0-.5-.65,1,1,0,0,0-.64-.27,1.19,1.19,0,0,0-.44.06.82.82,0,0,1-.71-.07c-.47-.33-.47-1.19,0-1.88s1.31-1,1.78-.7a.85.85,0,0,1,.31.84.8.8,0,0,0,.13.53.83.83,0,0,0,.39.34,5.38,5.38,0,0,0,.69.2A9.61,9.61,0,0,1,12.52,9a6.08,6.08,0,0,0-.09-.63.64.64,0,0,0-.25-.33,1,1,0,0,0-.32-.14.66.66,0,0,1-.47-.34.76.76,0,0,1,.08-.72,1.47,1.47,0,0,1,.62-.56c.6-.3,1.28-.2,1.48.21a.69.69,0,0,1-.11.73.48.48,0,0,0-.09.37.54.54,0,0,0,.11.29,5.35,5.35,0,0,0,.44.44,9.6,9.6,0,0,1,3.55-.67,4.05,4.05,0,0,0,.18-.49,1,1,0,0,0-.1-.69,1.11,1.11,0,0,0-.28-.35A.81.81,0,0,1,17,5.52a1,1,0,0,1,.53-.74,2,2,0,0,1,1.08-.23c.84,0,1.56.59,1.52,1.16a.86.86,0,0,1-.56.7.76.76,0,0,0-.39.38,1,1,0,0,0-.09.51,5.48,5.48,0,0,0,.15.55,9.62,9.62,0,0,1,3,1.12A5.28,5.28,0,0,0,23,8.42a.56.56,0,0,0,.17-.35.83.83,0,0,0,0-.38.66.66,0,0,1,.07-.57c.26-.38.93-.38,1.46,0s.79,1,.53,1.4a.72.72,0,0,1-.69.25.48.48,0,0,0-.36.1.56.56,0,0,0-.2.24,5.66,5.66,0,0,0-.23.91,9.83,9.83,0,0,1,2,2.36,5.53,5.53,0,0,0,1-.16,1,1,0,0,0,.54-.44,1.17,1.17,0,0,0,.15-.41.82.82,0,0,1,.39-.6,1,1,0,0,1,.91.07,1.94,1.94,0,0,1,.75.8,2,2,0,0,1,.24,1.09.94.94,0,0,1-.44.81.85.85,0,0,1-.89-.11.79.79,0,0,0-.53-.14.87.87,0,0,0-.48.19,6.61,6.61,0,0,0-.75.82,9.78,9.78,0,0,1,.48,2.94,8.75,8.75,0,0,0,1.2.49.64.64,0,0,0,.42-.06.93.93,0,0,0,.27-.22.65.65,0,0,1,.52-.26h0c.45,0,.82.58.8,1.22s-.42,1.22-.88,1.21a.72.72,0,0,1-.59-.44.49.49,0,0,0-.28-.25.57.57,0,0,0-.31,0,11.22,11.22,0,0,0-1.37.49A9.54,9.54,0,0,1,26,21.75a10,10,0,0,0,.8,1.16,1,1,0,0,0,.64.28,1.17,1.17,0,0,0,.44-.05.79.79,0,0,1,.71.09,1,1,0,0,1,.34.84,2,2,0,0,1-.38,1,2,2,0,0,1-.87.7,1,1,0,0,1-.93,0,.89.89,0,0,1-.29-.85.88.88,0,0,0-.11-.54.92.92,0,0,0-.39-.35,9.59,9.59,0,0,0-1.28-.35,9.5,9.5,0,0,1-2.17,1.83,7.73,7.73,0,0,0,.23,1.13A.55.55,0,0,0,23,27a.86.86,0,0,0,.33.11.62.62,0,0,1,.49.3.74.74,0,0,1,0,.72,1.44,1.44,0,0,1-.58.62,1.52,1.52,0,0,1-.82.23.76.76,0,0,1-.67-.32.72.72,0,0,1,.05-.73.55.55,0,0,0-.08-.65,8.16,8.16,0,0,0-1.08-.84,9.21,9.21,0,0,1-2.49.52A7.37,7.37,0,0,0,17.55,28a1,1,0,0,0,0,.69,1,1,0,0,0,.24.37.81.81,0,0,1,.25.67A1.28,1.28,0,0,1,16.71,30.61Zm-3.6-5.21a.35.35,0,0,1,.17,0,9.16,9.16,0,0,0,2.84.91.37.37,0,0,1,.32.28,8.37,8.37,0,0,1,.22,1.13,1.42,1.42,0,0,1-.2.78,1.3,1.3,0,0,1-.69.57.42.42,0,0,0-.3.26.51.51,0,0,0,.23.38,1.6,1.6,0,0,0,.77.34c.62.09,1.08-.18,1.12-.4a.35.35,0,0,0-.12-.25,1.61,1.61,0,0,1-.35-.54,1.48,1.48,0,0,1,0-1,10.27,10.27,0,0,1,.66-1.24.4.4,0,0,1,.3-.19,9.52,9.52,0,0,0,2.48-.51.37.37,0,0,1,.35,0,11.34,11.34,0,0,1,1.2.93,1.13,1.13,0,0,1,.27.52,1,1,0,0,1-.12.73c-.06.11-.07.19,0,.22s.1.08.25.08a1,1,0,0,0,.56-.16,1,1,0,0,0,.38-.4.34.34,0,0,0,0-.26.2.2,0,0,0-.13-.05,1.59,1.59,0,0,1-.53-.18,1,1,0,0,1-.49-.58A7.65,7.65,0,0,1,22,25.5a.39.39,0,0,1,.18-.38,9.17,9.17,0,0,0,2.16-1.82.39.39,0,0,1,.37-.12,9.56,9.56,0,0,1,1.43.4,1.29,1.29,0,0,1,.61.53,1.31,1.31,0,0,1,.19.87.44.44,0,0,0,.09.38.48.48,0,0,0,.45,0,1.56,1.56,0,0,0,.65-.53,1.47,1.47,0,0,0,.29-.76.48.48,0,0,0-.13-.42.34.34,0,0,0-.28,0,1.57,1.57,0,0,1-.64.06,1.46,1.46,0,0,1-.95-.44A9.33,9.33,0,0,1,25.53,22a.37.37,0,0,1,0-.38,9,9,0,0,0,.86-2.36.36.36,0,0,1,.22-.27,10.58,10.58,0,0,1,1.53-.55,1.18,1.18,0,0,1,.58.06,1.07,1.07,0,0,1,.55.5c.05.11.12.16.16.16h0c.1,0,.35-.27.37-.72s-.21-.71-.33-.71h0s-.07,0-.12.08a1.53,1.53,0,0,1-.43.35,1.19,1.19,0,0,1-.75.1,10.7,10.7,0,0,1-1.36-.56.36.36,0,0,1-.22-.34,9.32,9.32,0,0,0-.49-2.92.41.41,0,0,1,.07-.37,9.24,9.24,0,0,1,.85-.93,1.33,1.33,0,0,1,.75-.3,1.32,1.32,0,0,1,.87.21c.15.1.29.14.38.09s.16-.21.18-.41a1.54,1.54,0,0,0-.19-.82,1.43,1.43,0,0,0-.55-.59A.48.48,0,0,0,28,11.2a.32.32,0,0,0-.14.24,1.59,1.59,0,0,1-.22.6,1.46,1.46,0,0,1-.82.65,6.27,6.27,0,0,1-1.15.18.36.36,0,0,1-.37-.18,9.31,9.31,0,0,0-2-2.35A.38.38,0,0,1,23.2,10a7.12,7.12,0,0,1,.28-1.07,1,1,0,0,1,.36-.45,1,1,0,0,1,.72-.2c.12,0,.2,0,.22,0s0-.45-.4-.7-.71-.22-.78-.12a.23.23,0,0,0,0,.14,1.28,1.28,0,0,1,0,.61,1,1,0,0,1-.31.63,7.23,7.23,0,0,1-.9.65.41.41,0,0,1-.4,0,8.9,8.9,0,0,0-3-1.11.35.35,0,0,1-.29-.26,6,6,0,0,1-.19-.68,1.35,1.35,0,0,1,.13-.8A1.29,1.29,0,0,1,19.32,6c.17-.08.27-.19.28-.28s-.44-.6-1.06-.63a1.5,1.5,0,0,0-.8.16.51.51,0,0,0-.28.34.32.32,0,0,0,.14.24,1.7,1.7,0,0,1,.4.5,1.49,1.49,0,0,1,.13,1,4.62,4.62,0,0,1-.24.63.38.38,0,0,1-.35.23,9.29,9.29,0,0,0-3.5.65.35.35,0,0,1-.39-.07,6.14,6.14,0,0,1-.56-.54,1.09,1.09,0,0,1-.22-.54A1.07,1.07,0,0,1,13.05,7a.28.28,0,0,0,.08-.22.79.79,0,0,0-.82,0,1.09,1.09,0,0,0-.42.37.35.35,0,0,0-.05.26.19.19,0,0,0,.12.06,1.48,1.48,0,0,1,.52.23,1.15,1.15,0,0,1,.43.61,5.26,5.26,0,0,1,.11.79.39.39,0,0,1-.19.36,9,9,0,0,0-2.62,2.3.38.38,0,0,1-.38.14A6,6,0,0,1,9,11.64a1.36,1.36,0,0,1-.83-1.38c0-.19,0-.33-.1-.38s-.73.06-1.09.58-.31,1-.13,1.18a.34.34,0,0,0,.28,0,1.76,1.76,0,0,1,.63-.08,1.53,1.53,0,0,1,1,.42,8.18,8.18,0,0,1,.58.77.37.37,0,0,1,0,.39,9.13,9.13,0,0,0-.92,2.92.39.39,0,0,1-.24.3A6.91,6.91,0,0,1,7,16.73a1,1,0,0,1-1.12-.56c-.06-.11-.12-.17-.16-.17h0c-.11,0-.36.28-.38.72a1.07,1.07,0,0,0,.13.55c.07.11.15.17.2.17s.07,0,.11-.08A1.74,1.74,0,0,1,6.25,17,1.12,1.12,0,0,1,7,16.92a7.25,7.25,0,0,1,1.1.44.37.37,0,0,1,.22.33,9.3,9.3,0,0,0,.66,3,.37.37,0,0,1-.07.39,5.2,5.2,0,0,1-.55.6,1.34,1.34,0,0,1-.75.31,1.22,1.22,0,0,1-.86-.21c-.16-.1-.3-.13-.39-.08a.51.51,0,0,0-.17.41,1.54,1.54,0,0,0,.19.82,1.45,1.45,0,0,0,.56.59.5.5,0,0,0,.43.06c.09,0,.12-.17.14-.24a1.58,1.58,0,0,1,.21-.6,1.48,1.48,0,0,1,.82-.66A5.69,5.69,0,0,1,9.32,22a.39.39,0,0,1,.38.18,9.07,9.07,0,0,0,2.06,2.31.4.4,0,0,1,.15.34,10.29,10.29,0,0,1-.22,1.44,1,1,0,0,1-.32.48,1.06,1.06,0,0,1-.69.26c-.13,0-.21,0-.23.06s.08.45.47.67.72.15.78,0,0-.08,0-.14a1.16,1.16,0,0,1-.1-.6,1.08,1.08,0,0,1,.25-.66,8.94,8.94,0,0,1,1-.87A.35.35,0,0,1,13.11,25.4Z"/><path class="cls-2" d="M17.56,33.56a16,16,0,0,1-16-16,16,16,0,0,1,16-16,16,16,0,0,1,16,16,16,16,0,0,1-16,16Zm0-31.5a15.5,15.5,0,1,0,15.5,15.5A15.51,15.51,0,0,0,17.56,2.06Z"/><path class="cls-2" d="M17.56,31.69a14.13,14.13,0,0,1-10-24.12,14.13,14.13,0,1,1,20,20A14,14,0,0,1,17.56,31.69Zm0-28.14a14,14,0,1,0,14,14A14,14,0,0,0,17.56,3.55Z"/></svg>