<svg xmlns="http://www.w3.org/2000/svg" viewBox="0 0 911 910"><defs><style>.cls-1{isolation:isolate;}.cls-2{fill:#ccdafd;opacity:0.3;}.cls-3{fill:#bde1f9;}.cls-4{fill:#dfe5f1;}.cls-20,.cls-4,.cls-5{mix-blend-mode:multiply;}.cls-5{fill:#bdbfd4;}.cls-6{fill:#f0b097;}.cls-7{fill:#ef775e;}.cls-8{fill:#fff;}.cls-9{fill:#101415;}.cls-10{fill:none;stroke:#333;stroke-linecap:round;stroke-miterlimit:10;}.cls-11{fill:#eeb097;}.cls-12{fill:#b2b4c0;}.cls-13{fill:#e2971a;}.cls-14{fill:#eda628;}.cls-15{fill:#fcc72b;}.cls-16{fill:#fff04f;}.cls-17{fill:#211249;}.cls-18{fill:#1c1034;}.cls-19,.cls-20{fill:#302857;}.cls-19{opacity:0.4;}.cls-20{opacity:0.23;}.cls-21{fill:#00bef4;}.cls-22{fill:#01c2fb;}.cls-23{fill:#01cffe;}.cls-24{fill:#33defc;}.cls-25{fill:#b8cff8;}.cls-26{fill:#b8cff9;}.cls-27{fill:#b9ccf7;}.cls-28{fill:#c9c9c7;}.cls-29{fill:#8091af;}.cls-30{fill:#5c677b;}.cls-31{fill:#fffcff;}.cls-32{fill:#d2e4fc;}.cls-33{fill:#b0b2b1;}.cls-34{fill:#f79594;}.cls-35{fill:#f27d7d;}.cls-36{fill:#ed6160;}.cls-37{fill:#f9b1b2;}.cls-38{opacity:0.8;}</style></defs><title>Batalla</title><g class="cls-1"><g id="Sintomas"><path class="cls-2" d="M37.36,443.89c0,79.57,47.87,150.94,121,182.3A142.64,142.64,0,0,1,175,634.67c135.9,80.78,356.09,197,458.44,25.62s-51.67-186.11-48.16-294.57c3.44-106.39-34.41-171.42-105.8-174.37-57.11-2.37-97.71,18.6-138.53-4.19-30.22-16.88-64-26.35-98.64-26.35H235.2c-109.27,0-197.84,88.57-197.84,197.84Z"/><path class="cls-2" d="M444.88,479.44c16.75,50.21,61.81,85.94,114.59,89.92a95.2,95.2,0,0,1,13,1.92C675.75,593.73,840,620.83,868.57,490.5s-72.15-107-92.88-176.56c-20.33-68.18-58.08-101.39-104-88.16-36.71,10.59-58,32.47-88.71,26.66a135.27,135.27,0,0,0-68.12,4.17l-4.49,1.5A132.22,132.22,0,0,0,426.84,425.4Z"/><path class="cls-2" d="M79.41,637a135.08,135.08,0,0,0,119.05,91.78A99.41,99.41,0,0,1,212,730.66c107.6,22.5,278.77,49.42,309.37-84.74s-74.66-109.65-95.88-181c-20.83-70-60-103.91-108-90-38.36,11.09-60.71,33.71-92.71,27.91a143.59,143.59,0,0,0-71.1,4.68l-4.69,1.57C76.64,433.23,37.17,510.45,60.9,581.53Z"/><path class="cls-2" d="M356.71,637.25c16.76,50.2,61.81,85.94,114.59,89.91a95,95,0,0,1,13,1.92c103.25,22.45,267.45,49.56,296.07-80.78s-72.15-107-92.87-176.56c-20.34-68.18-58.09-101.39-104-88.16-36.71,10.59-58,32.47-88.71,26.66a135.38,135.38,0,0,0-68.12,4.17l-4.49,1.5a132.24,132.24,0,0,0-83.56,167.3Z"/><path class="cls-3" d="M220.32,468.4s14.8-14.8-18.83-71.3,48.43-111.66,100.89-95.51,76.68,49.77,131.84,8.07S574.13,227.6,661.57,298.9s4,156.05,0,177.57,8.07,43,53.81,68.61,45.74,117-72.65,164.12-457.38,59.19-522-70c0,0-37.66-98.21,60.54-138.56C181.31,500.69,217.63,481.85,220.32,468.4Z"/><path class="cls-3" d="M232.12,460.82s14.8-14.8-18.83-71.3S261.72,277.86,314.18,294s76.68,49.78,131.84,8.07S585.92,220,673.37,291.31s4,156.05,0,177.58,8.07,43,53.81,68.6,45.74,117-72.65,164.13-457.39,59.19-522-70c0,0-37.67-98.2,60.54-138.56C193.11,493.1,229.43,474.27,232.12,460.82Z"/><path class="cls-4" d="M193.38,683.26l462-3.9c65.17-.55,103.16-74,65.72-127.37-.62-.89-1.25-1.78-1.89-2.68a194.54,194.54,0,0,1-37-110.24c-.06-3.82,0-7.72.12-11.67,1.95-53.21-33.1-189.49-178.46-154.44s-97.66,297.53-176.18,269-35.05-85-98-60.35c-47.3,18.53-92.77,67.84-99.37,132.91C126.56,651.57,156.13,683.58,193.38,683.26Z"/><path class="cls-4" d="M316.82,361c0,25.58-23.66,46.32-52.85,46.32S211.13,386.58,211.13,361,236,322.84,264,314.68C298.17,304.74,316.82,335.42,316.82,361Z"/><path class="cls-5" d="M500.92,470.68l0,0c0-.2,0-.4,0-.61,0,0-15.13-23.47-26.76-27.64,0,0-24.57,3.07-39,12.29,0,0,.4,8.83.93,19.24-2.72-1.91-5.94-4.11-7.64-5.27v0a1.73,1.73,0,0,0-1-2.23l-2.28-.83c-.91-1.23-3.23-2.28-3.58-4.74-.44-3.07-2.2-16.23-4.83-21.5-2.5-5-10.54-5.65-11.34-5.7a9.8,9.8,0,0,1,.23-4.56,12.57,12.57,0,0,0,4.9-2.91A21.12,21.12,0,0,0,414,419.8c1,.33,3.13.48,4.94-3.64,1.27-2.89.68-4-.18-4.21,1.62-3.49,2.51-9.76,2.54-10,1.57-2.21,4.09-6.64,4.36-10.72a7.84,7.84,0,0,0-2.19-6.36c-5-4.93-9.93-2.29-11.54-1.17-2.68.41-6.23-1.34-6.23-1.34-9-7.05-15.38-2.94-16.75,1a8.59,8.59,0,0,1-4.86,5.15c-6.05,1.66-5.2,7.6-4.61,9.34.47,1.36,2.45,6.48,3.29,8.65a10.53,10.53,0,0,0,.54,8.9c2.2,4.53,4.69,2.53,5.4,1.82a10.24,10.24,0,0,1-.2,1.45,11.58,11.58,0,0,0,1.66,5.55c.06.15.11.3.18.46,0,0-1.26,6.77-3.51,8.07l-.1-.08c-9.34-1.33-13.81-5-15.08-6.22l-.4-.42L367,421.58a2.51,2.51,0,0,0-.31-.26l-2.38-2.49a2.69,2.69,0,0,0-2.83-.66A50.94,50.94,0,0,0,355,411.9s-2.19-28.52-4-37.29a9.93,9.93,0,0,0,2.92-2.52l1.51.08v.17l40.77,2.27a42.37,42.37,0,0,0,2.55-9l8.33.47a17,17,0,0,0,1-3.69l35.2.41a.69.69,0,0,0,.06-1.37l-35-2.94a21.41,21.41,0,0,0-.61-4.62l-8.43-.47a50.92,50.92,0,0,0-1.42-9.44l-37.16-2.06v-.17l-8.45-.47v.12L310.57,339l.46-8.26-4-.22-.94,17-19.81-1.1.48-8.56-4-.22-1.61,29,4,.22.48-8.55,19.8,1.1-1,18.25,4,.22.46-8.14,28.57,1.59a30,30,0,0,0,3.72,4s-.44,41.24.44,43.43c.73,1.82,4.48,6.66,8.5,10.26a2.65,2.65,0,0,0,.41,3.11l12.6,13.11a9,9,0,0,0,3,2.09h0c2.8,19.14-4.42,37-13.38,54.12-10.09,19.3-6.8,32.68-6.8,32.68a10,10,0,0,1,1.59-4.21c-.93,22.16,11.78,53.57,11.78,53.57C322.75,594.15,307.73,601.39,303,604l0-.78H294v27.6c-9.31.83-14.73,1.83-14.73,2.89,0,2.91,40.27,5.27,89.94,5.27s89.94-2.36,89.94-5.27c0-1-4.54-1.89-12.44-2.67-2.9-2.49-8.48-5.14-18.65-3.63v-4.55h-.47c2.14-11.4,8.58-46.54,9-58.24.65-20.11.44-27-33.54-45,1.54-4.37,5.81-24.07,8.27-35.66l1.18-4.9c.25-1.14.46-2.38.64-3.67.18.24,4.42,5.69,6.56,6.12a.77.77,0,0,0,.61-.2l1.4.54a1.74,1.74,0,0,0,2.14-.84c3.83,2.65,9.59,4.39,12.79,5.21.56,10,1.13,19,1.49,20.73.87,4.39,4.82,18.43,25.44,39.93l.74-.31a4.12,4.12,0,0,1,.28.31S505.62,531.14,500.92,470.68Zm-78.05-86a8.4,8.4,0,0,1,2.48,6.16c-.18,2.78-1.93,6-3.18,8.22.85-3.39,1.32-6.81,1.32-6.81-.4-6.56-4.9-9.09-8.12-9.26C417.4,382.5,420.07,381.94,422.87,384.7Zm-41.94,15s-2.39-4.53-.28-8.34c.68-1.22,1.73-2.26,4.4-2.86C385.05,388.53,378.41,394,380.93,399.73Zm32.4,158.7c0,38.11,1.87,56.81,2.88,64.14h-.37l0,6.61c-13.58-.49-29.51-.76-46.55-.76-24.13,0-46,.55-62.18,1.46a16.52,16.52,0,0,0-6-3.76V616.8l2.55-2.15v-.29c8.65-.94,45.46-5.1,56.35-8.66,12.36-4,27.28-4.49,28.53-43.05.06-2.11,0-6.28-.05-11.38C401.76,555.78,413.33,558.43,413.33,558.43ZM389.45,383s3.56-7.82,13.61-2.29C403.06,380.75,394.42,377.07,389.45,383Z"/><path class="cls-5" d="M302,504.47v0l0-.41s-10-15.46-17.63-18.2c0,0-16.18,2-25.72,8.09,0,0,.27,5.82.62,12.68-1.8-1.26-3.92-2.71-5-3.47v0a1.14,1.14,0,0,0-.69-1.47l-1.5-.55c-.6-.81-2.13-1.5-2.36-3.12-.29-2-1.44-10.7-3.18-14.17-1.65-3.29-6.94-3.72-7.47-3.75a6.53,6.53,0,0,1,.15-3,8.19,8.19,0,0,0,3.23-1.91,13.71,13.71,0,0,0,2.39-4.18c.64.21,2.06.31,3.26-2.4.83-1.91.44-2.61-.12-2.77a29.6,29.6,0,0,0,1.67-6.59,15.44,15.44,0,0,0,2.87-7.07A5.09,5.09,0,0,0,251,448a5.65,5.65,0,0,0-7.6-.78,8.54,8.54,0,0,1-4.1-.88c-5.94-4.64-10.14-1.93-11,.68a5.65,5.65,0,0,1-3.2,3.39c-4,1.1-3.42,5-3,6.15.3.9,1.6,4.27,2.16,5.71a6.91,6.91,0,0,0,.36,5.86c1.44,3,3.08,1.67,3.55,1.19a7.08,7.08,0,0,1-.13,1,7.59,7.59,0,0,0,1.09,3.65l.12.31s-.83,4.46-2.31,5.31l-.07,0c-6.15-.88-9.09-3.29-9.93-4.11l-.26-.27-2.84-2.95a1.71,1.71,0,0,0-.2-.18L212,470.32a1.76,1.76,0,0,0-1.86-.44,33.79,33.79,0,0,0-4.27-4.13s-1.45-18.78-2.6-24.56a6.76,6.76,0,0,0,1.92-1.66l1,.05v.11l26.86,1.5a27.81,27.81,0,0,0,1.68-6l5.49.31a11,11,0,0,0,.68-2.43l23.19.27a.45.45,0,0,0,0-.9L241,430.54a14,14,0,0,0-.4-3l-5.55-.31a33.58,33.58,0,0,0-.94-6.22l-24.48-1.36v-.11l-5.57-.31v.08l-27.51-1.53.31-5.44-2.63-.15-.62,11.18-13-.73.32-5.63-2.63-.15-1.06,19.1,2.63.14.31-5.63,13,.72-.67,12,2.62.14.3-5.36,18.82,1a19.76,19.76,0,0,0,2.45,2.62s-.29,27.17.29,28.61c.48,1.2,3,4.39,5.6,6.76a1.76,1.76,0,0,0,.27,2.05l8.3,8.64a6.06,6.06,0,0,0,2,1.37h0c1.84,12.61-2.91,24.36-8.82,35.65-6.64,12.71-4.48,21.53-4.48,21.53a6.61,6.61,0,0,1,1-2.77c-.61,14.59,7.76,35.28,7.76,35.28-24.12,7.06-34,11.82-37.11,13.52l0-.51h-5.89v18.18c-6.13.55-9.71,1.2-9.71,1.9,0,1.92,26.53,3.47,59.25,3.47s59.25-1.55,59.25-3.47c0-.64-3-1.24-8.2-1.76-1.9-1.64-5.58-3.38-12.28-2.39v-3h-.31c1.41-7.51,5.65-30.66,5.9-38.37.43-13.24.29-17.78-22.09-29.65,1-2.89,3.82-15.86,5.44-23.5l.78-3.22c.16-.76.3-1.57.42-2.42.12.15,2.91,3.75,4.33,4a.56.56,0,0,0,.4-.13l.92.35a1.14,1.14,0,0,0,1.41-.55,28.57,28.57,0,0,0,8.42,3.43c.37,6.59.75,12.49,1,13.66.58,2.89,3.18,12.14,16.77,26.3,0,0,.17-.06.48-.2l.19.2S305.06,544.3,302,504.47Zm-51.41-56.63a5.49,5.49,0,0,1,1.63,4.05,14.34,14.34,0,0,1-2.09,5.41c.56-2.23.87-4.48.87-4.48-.26-4.32-3.23-6-5.35-6.1A4.59,4.59,0,0,1,250.55,447.84Zm-27.63,9.9s-1.57-3-.18-5.5a3.85,3.85,0,0,1,2.89-1.89S221.26,453.93,222.92,457.74Zm21.34,104.54c0,25.1,1.24,37.42,1.9,42.25h-.24l0,4.35c-8.94-.31-19.44-.5-30.66-.5-15.89,0-30.32.37-41,1a10.91,10.91,0,0,0-3.95-2.48v-6.13l1.68-1.42v-.19c5.7-.62,30-3.36,37.12-5.7,8.14-2.67,18-3,18.79-28.36.05-1.39,0-4.14,0-7.5C236.65,560.53,244.26,562.28,244.26,562.28ZM228.53,446.74s2.35-5.15,9-1.51C237.5,445.23,231.81,442.81,228.53,446.74Z"/><path class="cls-6" d="M326.38,338.93s-2.52-7.41-9.09-2.43c0,0-3.1,5.47.57,13s7.93,2.27,7.93,2.27a22.51,22.51,0,0,0,2,10.87s-2,11-5.67,11.71c0,0-3.27,10.62,16.38,13.31,0,0,12.87,1.2,12-9.52,0,0-3.31-2.25-1-10.18,0,0,8.4-1.2,11.14-12.6,0,0,4.31,2.94,7.72-4.83s-2.67-6.25-2.83-5.1c0,0,6.95-24.95-10.7-25S333.16,315.13,326.38,338.93Z"/><path class="cls-7" d="M357.32,327.86s-3.67,4.57-14.49,4.76a15.55,15.55,0,0,0-7.35,2,25.86,25.86,0,0,0-9.08,8.42s-1.52-6.09,7.18-13.73c9.31-8.19,6.93.95,23.85-10.87,0,0,12.56,2.9,8.56,23.54C366,342,365.62,336.06,357.32,327.86Z"/><path class="cls-7" d="M328.45,364.12s2.95,4.75,18.35,6.15c0,0-8.38,3.75-19.21-1.83A6.46,6.46,0,0,0,328.45,364.12Z"/><path class="cls-8" d="M324.72,346.71a12,12,0,0,1,.51,7.45,17.46,17.46,0,0,0,6.95,13.14c7.16,5.69,19.69,2,24-2.58s6.82-14,6.82-14a14.31,14.31,0,0,1-6.82-3.37c-3.25-2.87-13.81-5.53-22.65-3.1,0,0-4.93.54-8.34-1.14Z"/><path class="cls-9" d="M377.87,315.23a11.06,11.06,0,0,0-3.1-9c-7.08-7-14.07-3.25-16.36-1.67-3.79.58-8.82-1.9-8.82-1.9-12.76-10-21.8-4.16-23.75,1.46a12.11,12.11,0,0,1-6.88,7.3c-8.57,2.36-7.36,10.77-6.53,13.24s5.2,13.66,5.2,13.66a4.09,4.09,0,0,1,1.47-2.16c7.41-2.51,7.3,6.89,7.3,6.89a17.57,17.57,0,0,1,8.18-12.55,2.43,2.43,0,0,1,1.31-.35c12.53.29,21.57-7.57,21.57-7.57s1.23-1.11,2.81,1c3,3.94,4.51,10,5.19,13.66s-2.39,13.21-2.39,13.21a46.26,46.26,0,0,0,4.1-4.14c2.89-4.24,4.47-15.47,4.52-15.85C373.92,327.3,377.49,321,377.87,315.23Zm-63.44,12s-3.39-6.42-.4-11.82c1-1.73,2.46-3.2,6.23-4.06C320.26,311.4,310.85,319.09,314.43,327.28Zm12.07-23.66s5.05-11.08,19.28-3.24C345.78,300.38,333.54,295.17,326.5,303.62Zm36.73,0c2.88-.71,6.66-1.51,10.63,2.41a11.8,11.8,0,0,1,3.51,8.72c-.25,3.94-2.73,8.52-4.5,11.64,1.21-4.8,1.88-9.65,1.88-9.65C374.18,307.42,367.79,303.83,363.23,303.58Z"/><path class="cls-10" d="M346,307.47c-6.62-3.26-13.55-4.21-16.66,1.25s-3.42,7.77-7.2,9.61-3.26,6.62-3.26,6.62"/><path class="cls-6" d="M250,283.29s4.35,6.21,8.08,9.32c0,0-.62,58.44.62,61.55s8.7,12.44,15.54,17.41L289.15,356s-7.15-8.39-11.5-11.5c0,0-3.11-40.42-5.59-52.85a15,15,0,0,0,6.84-8.7Z"/><path class="cls-11" d="M379.92,423.8s15.55,10.56,18.66,13.05l-1.87,13.68s-15.54-3.11-23-9.33Z"/><ellipse class="cls-12" cx="297.86" cy="658.8" rx="127.45" ry="7.46"/><path class="cls-13" d="M446.45,387.74s-34.82,4.35-55.33,17.4c0,0,3.1,67.77,4.35,74s6.84,26.11,36.06,56.57c0,0,59.68-22.38,52.84-108.8C484.37,426.9,462.92,393.64,446.45,387.74Z"/><path class="cls-14" d="M447.51,389s-33.92,4.31-53.91,17.26c0,0,3,67.2,4.24,73.36s6.67,25.9,35.14,56.1c0,0,58.15-22.19,51.48-107.88C484.46,427.82,463.57,394.84,447.51,389Z"/><path class="cls-15" d="M449.76,397.52s-29.08,3.63-46.21,14.53c0,0,2.6,56.6,3.63,61.79s5.72,21.81,30.12,47.25c0,0,49.84-18.69,44.13-90.86C481.43,430.23,463.52,402.45,449.76,397.52Z"/><path class="cls-16" d="M451.42,414.47s7.46,48.49-8.7,90.15C442.72,504.62,464.48,464.21,451.42,414.47Z"/><path class="cls-17" d="M269,503.06s24.43-33.45,74.7-7.09,50.57,36,49.64,64.91c-.64,19.9-13.68,87.67-13.68,87.67h-14.3s-5-22.39-5-96.37C360.34,552.18,266.77,530.73,269,503.06Z"/><path class="cls-17" d="M277.34,486s31.26-30.71,43.52,0c3.34,8.36,4.62,60.94,4.26,72.19-1.77,54.64-22.91,55.28-40.43,61s-82.46,12.55-82.46,12.55l-.75-13.54s16.62-11.32,82.37-30.57C283.85,587.61,250.94,506.3,277.34,486Z"/><path class="cls-18" d="M363.9,643.06,363.76,660h47.87s-5.52-13.81-30.38-10.13v-6.44Z"/><path class="cls-18" d="M204,615.6l.91,16.24-3.62,3v13.2s9.95,3,13.57,13.2H191.28V615.6Z"/><path class="cls-19" d="M297.49,503.86a123.42,123.42,0,0,1,27.19-2.58A91.39,91.39,0,0,1,366,512c6.18,3.31,12.46,7.58,15.83,12.5,6.49,9.49,9,22.6,7.76,37.38a.88.88,0,0,1-1.76,0c-1.15-14.17-6.26-37.28-27.14-41.12-30.46-5.59-42.3,7.46-42.9,16.17-1.86,27.35-19.27,32.95-31.08,14.92a83.88,83.88,0,0,1-7.37-14.23A24.93,24.93,0,0,1,297.49,503.86Z"/><path class="cls-20" d="M361.27,550s5.6-14.3,12.44-14.3c0,0-8.71,3.73-12.44,21.14Z"/><path class="cls-21" d="M293.11,355.09h.09a13.5,13.5,0,0,1,13.5,13.5v24.93a4,4,0,0,1-4,4H283.58a4,4,0,0,1-4-4V368.59A13.5,13.5,0,0,1,293.11,355.09Z" transform="translate(765.24 444.61) rotate(136.15)"/><path class="cls-21" d="M381.63,424.91l-6.26,17.17a2.46,2.46,0,0,1-3.16,1.47l-2.85-1.1c-3.92-1.43-9.35-14.89-25.85-19.33a5.47,5.47,0,0,1-3.74-7.16h0a8.37,8.37,0,0,1,10.75-5l29.63,10.79A2.47,2.47,0,0,1,381.63,424.91Z"/><path class="cls-22" d="M295.08,359.72h.09a13.5,13.5,0,0,1,13.5,13.5v19.6a4,4,0,0,1-4,4H285.55a4,4,0,0,1-4-4v-19.6a13.5,13.5,0,0,1,13.5-13.5Z" transform="translate(769.99 446.63) rotate(136.15)"/><path class="cls-22" d="M348.84,375.3s12.43.62,16.16,8.08,6.22,26.12,6.84,30.47,5.6,5.59,5.6,8.08-5,21.76-8.08,21.14-9.33-8.71-9.33-8.71-11.19,54.09-14.3,62.8c0,0-77.09-6.84-80.82,20.51,0,0-4.67-19,9.63-46.31s25.49-56,16.79-87l9.45-19.72s5.91,7.12,21.93,9.41c0,0,21.22,14.44,26.16,1"/><path class="cls-23" d="M302.81,384.57a16.77,16.77,0,0,0-.63,7.35c.84,6.47,2.84,27.4-3.39,44-7.46,19.89-20.52,41.65-3.73,42.9s30.95-2.72,50,13.87c0,0,19.65-106.51,15.3-108.37s-12.43,4.35-29.84-3.73C324.07,377.6,307.1,371.62,302.81,384.57Z"/><path class="cls-24" d="M359.15,439.6l-10.51,43.49a43,43,0,0,1-1.36-14.84c.48-6.61-4.43-5.33-6.82-4.34a3.1,3.1,0,0,1-2.81-.15c-3.6-2.2,5.07-7.56,7.12-8.8a10.78,10.78,0,0,0,1.29-1c11.48-9.69,14.59-69.37,14.59-69.37S363.25,420.59,359.15,439.6Z"/><rect class="cls-25" x="207.87" y="229.33" width="5.65" height="66.84" transform="translate(14.92 -11.3) rotate(3.18)"/><rect class="cls-25" x="174.21" y="239.39" width="5.65" height="41.14" transform="translate(14.71 -9.43) rotate(3.18)"/><rect class="cls-25" x="179.15" y="252.46" width="29.46" height="16.86" transform="translate(14.79 -10.36) rotate(3.18)"/><rect class="cls-26" x="212.78" y="242.85" width="60.56" height="43.56" transform="translate(15.07 -13.09) rotate(3.18)"/><path class="cls-27" d="M351.51,279.53l-23-1.28,1-17.3,23,1.28S355,271.12,351.51,279.53Z"/><path class="cls-28" d="M402.85,274.88l-50.7-.59.27-5.59L403,273a1,1,0,0,1,.88,1h0A1,1,0,0,1,402.85,274.88Z"/><path class="cls-29" d="M336.09,291.68l-57.78-3.21L280.73,245l57.78,3.21S344.79,270.55,336.09,291.68Z"/><rect class="cls-30" x="272.67" y="244.66" width="12" height="43.56" transform="translate(15.23 -15.07) rotate(3.18)"/><rect class="cls-31" x="221.42" y="264.23" width="2.9" height="17.45" transform="translate(15.5 -11.96) rotate(3.18)"/><rect class="cls-32" x="232.3" y="231.43" width="2.9" height="34.25" transform="translate(494.9 28.97) rotate(93.18)"/><rect class="cls-32" x="258.16" y="244.83" width="1.52" height="11.28" transform="translate(523.39 5.86) rotate(93.18)"/><rect class="cls-31" x="239.45" y="265.47" width="2.9" height="17.45" transform="translate(15.6 -12.96) rotate(3.18)"/><rect class="cls-31" x="257.48" y="266.1" width="2.9" height="17.45" transform="translate(15.66 -13.96) rotate(3.18)"/><rect class="cls-33" x="292.92" y="269.2" width="2.9" height="17.45" transform="translate(15.89 -15.92) rotate(3.18)"/><rect class="cls-33" x="310.95" y="270.45" width="2.9" height="17.45" transform="translate(15.99 -16.92) rotate(3.18)"/><path class="cls-34" d="M737.51,436a2.82,2.82,0,0,0-2.28,1.34,5.29,5.29,0,0,1-1.66,1.39,6.15,6.15,0,0,1-4.4.8,54.65,54.65,0,0,1-7.22-2.88,45.76,45.76,0,0,0-3.21-12.88,58.74,58.74,0,0,1,4.7-6.42,4.24,4.24,0,0,1,2.59-1.13,3.44,3.44,0,0,1,2,.49,2.28,2.28,0,0,0,2.33.21c1.22-.77,1.29-3.4-.09-5.6s-3.7-3.14-4.92-2.37a2.06,2.06,0,0,0-.84,1.74,3.75,3.75,0,0,1-.44,1.53,4.47,4.47,0,0,1-2.34,2.29,53.52,53.52,0,0,1-7.16,1.48,46,46,0,0,0-10.67-11.34,46.73,46.73,0,0,1,.9-6.23,5.85,5.85,0,0,1,2.32-3.07,4.73,4.73,0,0,1,2.75-.79,3.09,3.09,0,0,0,2.9-1.31c.94-1.73-.74-4.91-3.86-6.6s-6.5-1.24-7.43.49a2.79,2.79,0,0,0,.18,2.64,5.1,5.1,0,0,1,.5,2.1,6.18,6.18,0,0,1-1.24,4.3,42,42,0,0,1-4.33,4,45.15,45.15,0,0,0-15.51-4.44,37.64,37.64,0,0,1-1.86-5.2,4.27,4.27,0,0,1,.46-2.78,3.42,3.42,0,0,1,1.52-1.44,2.28,2.28,0,0,0,1.44-1.84c0-1.44-2.14-2.94-4.74-3s-4.65,1.39-4.67,2.84a2.06,2.06,0,0,0,1,1.65,3.88,3.88,0,0,1,1,1.2,4.52,4.52,0,0,1,.65,3.21,39.76,39.76,0,0,1-2,5.18,45.35,45.35,0,0,0-16.3,4,26,26,0,0,1-2.77-2.4,5.73,5.73,0,0,1-1.44-3.56,4.64,4.64,0,0,1,.75-2.77,3.11,3.11,0,0,0,.37-3.16c-1-1.7-4.59-1.9-7.64-.1s-4.42,4.92-3.42,6.62a2.81,2.81,0,0,0,2.35,1.2,5.25,5.25,0,0,1,2.06.66,6.19,6.19,0,0,1,3,3.28,29.4,29.4,0,0,1,.78,3.45,46,46,0,0,0-13.27,13,30.27,30.27,0,0,1-3.92-.71,4.28,4.28,0,0,1-2.2-1.76,3.47,3.47,0,0,1-.53-2,2.26,2.26,0,0,0-.9-2.15c-1.25-.72-3.61.44-4.91,2.7s-1.05,4.73.2,5.45a2.09,2.09,0,0,0,1.94-.07,3.75,3.75,0,0,1,1.55-.33,4.49,4.49,0,0,1,3.12,1,28.93,28.93,0,0,1,2.67,3.06,45.46,45.46,0,0,0-4.63,17.64,31.61,31.61,0,0,1-4.24,1.42,5.82,5.82,0,0,1-3.8-.61,4.69,4.69,0,0,1-2-2.08,3.11,3.11,0,0,0-2.51-1.95c-2,0-4,2.95-4,6.49s1.92,6.33,3.89,6.35a2.82,2.82,0,0,0,2.25-1.38,5.09,5.09,0,0,1,1.63-1.43,6.18,6.18,0,0,1,4.38-.9,34.93,34.93,0,0,1,4.61,1.6,45.53,45.53,0,0,0,4.52,15.41,42.27,42.27,0,0,1-3.6,4.7,4.32,4.32,0,0,1-2.6,1.11,3.46,3.46,0,0,1-2-.51,2.29,2.29,0,0,0-2.32-.23c-1.23.76-1.32,3.4,0,5.61s3.68,3.16,4.91,2.41a2.09,2.09,0,0,0,.84-1.74,3.78,3.78,0,0,1,.46-1.53,4.54,4.54,0,0,1,2.35-2.27,42.17,42.17,0,0,1,5.8-1.21,46,46,0,0,0,11.77,11.34,30.38,30.38,0,0,1-.64,4.12,5.81,5.81,0,0,1-2.28,3.1,4.67,4.67,0,0,1-2.75.81,3.13,3.13,0,0,0-2.89,1.34c-.92,1.74.8,4.91,3.93,6.56s6.51,1.18,7.43-.56a2.78,2.78,0,0,0-.21-2.63,5.29,5.29,0,0,1-.52-2.11,6.16,6.16,0,0,1,1.2-4.3,29.81,29.81,0,0,1,3-2.87,45,45,0,0,0,15.77,4,54.75,54.75,0,0,1,3.13,6.5,4.27,4.27,0,0,1-.21,2.81,3.49,3.49,0,0,1-1.39,1.58,2.29,2.29,0,0,0-1.27,2c.11,1.44,2.41,2.74,5,2.54s4.5-1.81,4.39-3.25a2.09,2.09,0,0,0-1.16-1.55,3.74,3.74,0,0,1-1.14-1.1,4.52,4.52,0,0,1-.94-3.14,49.35,49.35,0,0,1,1.86-6.5,45.07,45.07,0,0,0,15.14-4.4,41.39,41.39,0,0,1,4.11,4.1,5.74,5.74,0,0,1,1.1,3.68,4.68,4.68,0,0,1-1,2.69,3.13,3.13,0,0,0-.66,3.11c.84,1.78,4.4,2.31,7.61.8s4.85-4.5,4-6.28a2.81,2.81,0,0,0-2.23-1.41,5.14,5.14,0,0,1-2-.85,6.17,6.17,0,0,1-2.72-3.54,52.31,52.31,0,0,1-.7-7,45.91,45.91,0,0,0,9.3-9.53,56.35,56.35,0,0,1,7.5.46,4.27,4.27,0,0,1,2.35,1.56,3.44,3.44,0,0,1,.69,2,2.31,2.31,0,0,0,1.09,2.07c1.31.61,3.57-.76,4.66-3.12s.63-4.81-.68-5.42a2.06,2.06,0,0,0-1.92.25,3.84,3.84,0,0,1-1.52.46,4.53,4.53,0,0,1-3.2-.72,47.55,47.55,0,0,1-4.68-4.72,45.38,45.38,0,0,0,4.1-14.35,53.48,53.48,0,0,1,7-2.38,5.82,5.82,0,0,1,3.78.7,4.69,4.69,0,0,1,1.94,2.12,3.09,3.09,0,0,0,2.47,2c2,.07,4.06-2.86,4.18-6.4S739.47,436.11,737.51,436Z"/><path class="cls-35" d="M712.39,465s-5.15-3.05-10.53,2.8-10.77,7.49-15.45,7.49-4.91-9.36-17.32-6.55-10.3-4-11.7-7-1.17-3.28-8.66-5.39c-4.69-1.32-5.62-5.21-5.66-7.93a9.7,9.7,0,0,1,1-4.19c5.52-12.08-5.3-19.53-7.63-20.58,0,0-16.23,36.92,21.92,56.81C658.32,480.41,688.29,496.56,712.39,465Z"/><path class="cls-36" d="M671.61,407c2.32,4.08,0,9.77-5.18,12.71s-11.25,2-13.57-2.05-.46-10.58,4.72-13.53S669.29,403,671.61,407Z"/><path class="cls-36" d="M694.53,409.13c-.42,2.09-2.91,3.36-5.57,2.83s-4.47-2.66-4.06-4.76,3-3.77,5.66-3.24S695,407,694.53,409.13Z"/><path class="cls-37" d="M692.5,445.17a2.9,2.9,0,0,1-5.53-1.11,2.85,2.85,0,0,1,5.53,1.11Z"/><path class="cls-36" d="M667.51,450.9c-.25,1.21-1.69,1.92-3.22,1.6a2.57,2.57,0,0,1-2.3-2.75,2.84,2.84,0,0,1,5.52,1.15Z"/><path class="cls-36" d="M652.15,425.51a2.9,2.9,0,0,1-4.28,3.68,2.85,2.85,0,0,1,4.28-3.68Z"/><circle class="cls-36" cx="670.98" cy="434.82" r="5.58"/><circle class="cls-36" cx="653.95" cy="442.14" r="3.95"/><path class="cls-37" d="M706.94,434.07a2.32,2.32,0,0,1,3.55,2.79,2.28,2.28,0,0,1-3.55-2.79Z"/><path class="cls-37" d="M706.22,415.65a2.32,2.32,0,0,1-3.43,2.94,2.28,2.28,0,0,1,3.43-2.94Z"/><circle class="cls-37" cx="704.49" cy="458.17" r="3.16"/><circle class="cls-37" cx="716.45" cy="442.58" r="3.16"/><g class="cls-38"><path class="cls-34" d="M716.42,310.46a2.51,2.51,0,0,0-3.5.65,2.46,2.46,0,0,0-.43,1.17l0-.18c-5.78.32-8.27-.61-9.33-1.48-.08-.75-.2-1.49-.35-2.21.13-.44.79-1.31,3.76-1.94l0-.12a1.74,1.74,0,0,0,.52.63,1.65,1.65,0,1,0-.35-2.3,1.62,1.62,0,0,0-.32,1c-.36.11-2.81.85-4.23.43a20.67,20.67,0,0,0-2.64-5.22c-.24-.71-.3-2.95,5.48-7l0,0a3.44,3.44,0,0,0,2.15.5,3.39,3.39,0,1,0-3.72-3,3.53,3.53,0,0,0,.43,1.33c-1.09.91-5.34,4.28-8.19,4.07a20.67,20.67,0,0,0-10.39-4.48c-.65-.51-1.56-2-1.46-6.45l-.19,0a2.51,2.51,0,0,0,1.17-.57,2.64,2.64,0,1,0-2.31.56c0,.56.27,4.18-.67,6.33A20.55,20.55,0,0,0,671,295.55a10.68,10.68,0,0,1-1.72-2.49l-.12.06a1.8,1.8,0,0,0,.5-.73,1.77,1.77,0,1,0-2.27,1.06,1.83,1.83,0,0,0,1.11,0,14.1,14.1,0,0,1,1.45,2.83,20.53,20.53,0,0,0-4.16,4.27c-.83-.06-2.6-.65-5.89-3.58a2.83,2.83,0,0,0,.1-.8,2.5,2.5,0,1,0-2.51,2.49,2.88,2.88,0,0,0,1.63-.52c.83.63,4.24,3.35,4.77,5.57a20.64,20.64,0,0,0-2,8.49c-.42.42-1.77,1.26-5.67.88a1.93,1.93,0,0,0-.42-.68,2,2,0,1,0-.07,2.78,1.94,1.94,0,0,0,.58-1c1,0,4.73-.1,5.75,1.31a20.7,20.7,0,0,0,8.76,14.28c.09.94-.06,3.79-4,7.5l.11.12a2.31,2.31,0,0,0-1.11-.31,2.36,2.36,0,1,0,1.85,1c.45-.54,4.64-5.49,7-6.2a20.84,20.84,0,0,0,12.49,1c.93.16,2.64,1,3.67,4.57a1.84,1.84,0,0,0-.41.69,2,2,0,1,0,1.33-1.25c-.4-.85-1.79-4.1-.49-5.42a21,21,0,0,0,5.77-4c1.26.07,3.25,1,6.28,4.15l.14-.1a2.3,2.3,0,0,0-.46,1.07,2.34,2.34,0,1,0,2.67-2,2.31,2.31,0,0,0-1.45.25c-.46-.37-3.79-3.16-4.94-6a21.56,21.56,0,0,0,2-3.38,26,26,0,0,1,3,1.09l.09-.14a2.28,2.28,0,0,0,0,1.16,2.34,2.34,0,1,0,.44-2.05,24.74,24.74,0,0,1-3.06-1.15,20.43,20.43,0,0,0,1.38-5.69c2.37-2.09,8.72-1.45,9.48-1.36a2.58,2.58,0,0,0,1,1.27,2.52,2.52,0,0,0,2.85-4.16Z"/><path class="cls-37" d="M669.12,327.07s1.76-2.08-.45-4.95a9.3,9.3,0,0,1-2.18-7.53c.36-2.1,4.59-1.49,4.28-7.28s2.58-4.33,4.06-4.72,1.56-.28,3.09-3.49a3.5,3.5,0,0,1,4-1.93,4.5,4.5,0,0,1,1.82.76c5,3.41,9.18-.88,9.84-1.85,0,0-15.36-10.14-27.24,5.48C666.34,301.56,656.76,313.79,669.12,327.07Z"/><ellipse class="cls-37" cx="695.46" cy="308.41" rx="3.35" ry="4.14" transform="translate(59.69 726.24) rotate(-57.23)"/><path class="cls-37" d="M697.89,315.82a1.91,1.91,0,1,1-2.87,2.4c-.82-1-.75-1.77.05-2.44A1.92,1.92,0,0,1,697.89,315.82Z"/><ellipse class="cls-37" cx="683.22" cy="323.05" rx="1.87" ry="2.31" transform="translate(-24.9 587.09) rotate(-45.76)"/><ellipse class="cls-37" cx="682.42" cy="318.4" rx="0.85" ry="1.06" transform="translate(-21.81 585.11) rotate(-45.76)"/></g><path class="cls-34" d="M636,323.39a3.79,3.79,0,0,0-3.07,1.8,7,7,0,0,1-2.24,1.88,8.33,8.33,0,0,1-5.93,1.08,75.12,75.12,0,0,1-9.74-3.88,61.33,61.33,0,0,0-4.33-17.37c1.33-2,4.66-7,6.35-8.66a5.77,5.77,0,0,1,3.48-1.52,4.65,4.65,0,0,1,2.76.66,3,3,0,0,0,3.13.28c1.65-1,1.75-4.59-.11-7.56s-5-4.22-6.64-3.19a2.77,2.77,0,0,0-1.12,2.36,5.21,5.21,0,0,1-.6,2.06,6.12,6.12,0,0,1-3.15,3.09,72.38,72.38,0,0,1-9.67,2,62.05,62.05,0,0,0-14.38-15.29,62,62,0,0,1,1.22-8.39,7.87,7.87,0,0,1,3.12-4.14,6.32,6.32,0,0,1,3.72-1.06c1.82,0,3.27-.59,3.91-1.77,1.26-2.34-1-6.62-5.21-8.9s-8.76-1.67-10,.66a3.76,3.76,0,0,0,.24,3.55,7,7,0,0,1,.68,2.85,8.28,8.28,0,0,1-1.68,5.79,56.08,56.08,0,0,1-5.84,5.36,60.9,60.9,0,0,0-20.9-6,54.56,54.56,0,0,1-2.52-7,5.71,5.71,0,0,1,.63-3.74,4.6,4.6,0,0,1,2.06-2,3.08,3.08,0,0,0,1.94-2.47c0-2-2.9-4-6.41-4s-6.26,1.88-6.29,3.83a2.8,2.8,0,0,0,1.36,2.22,5.1,5.1,0,0,1,1.41,1.62,6.1,6.1,0,0,1,.87,4.33,53.51,53.51,0,0,1-2.62,7,61.26,61.26,0,0,0-22,5.36,37,37,0,0,1-3.74-3.23,7.86,7.86,0,0,1-1.94-4.81,6.4,6.4,0,0,1,1-3.74c.94-1.56,1.19-3.1.51-4.26-1.35-2.29-6.19-2.56-10.31-.13s-6,6.63-4.61,8.92a3.8,3.8,0,0,0,3.16,1.63,7,7,0,0,1,2.79.89,8.27,8.27,0,0,1,4.09,4.42,36.12,36.12,0,0,1,1.06,4.65,62,62,0,0,0-17.9,17.59,40.21,40.21,0,0,1-5.28-1,5.73,5.73,0,0,1-3-2.37,4.56,4.56,0,0,1-.7-2.75,3.09,3.09,0,0,0-1.22-2.9c-1.69-1-4.88.6-6.63,3.64s-1.41,6.38.28,7.36a2.82,2.82,0,0,0,2.61-.11,5,5,0,0,1,2.1-.44,6.07,6.07,0,0,1,4.2,1.35,38.24,38.24,0,0,1,3.6,4.12,61.17,61.17,0,0,0-6.25,23.79,45.38,45.38,0,0,1-5.72,1.92,7.85,7.85,0,0,1-5.11-.83,6.31,6.31,0,0,1-2.68-2.8c-.85-1.61-2-2.62-3.38-2.63-2.66,0-5.4,4-5.45,8.75s2.6,8.53,5.25,8.56a3.81,3.81,0,0,0,3-1.87,7,7,0,0,1,2.2-1.92,8.28,8.28,0,0,1,5.9-1.22,49,49,0,0,1,6.23,2.17,61.28,61.28,0,0,0,6.09,20.77,56.27,56.27,0,0,1-4.86,6.33,5.74,5.74,0,0,1-3.5,1.5,4.71,4.71,0,0,1-2.75-.69,3.07,3.07,0,0,0-3.13-.3c-1.66,1-1.79,4.57.06,7.56s4.95,4.27,6.61,3.24a2.78,2.78,0,0,0,1.14-2.34,5.17,5.17,0,0,1,.61-2.06A6.12,6.12,0,0,1,496,368a57.84,57.84,0,0,1,7.82-1.62,61.83,61.83,0,0,0,15.87,15.28,41.82,41.82,0,0,1-.87,5.56,7.81,7.81,0,0,1-3.08,4.18,6.26,6.26,0,0,1-3.7,1.09c-1.82,0-3.27.63-3.9,1.81-1.24,2.35,1.07,6.62,5.3,8.85s8.78,1.59,10-.76a3.8,3.8,0,0,0-.28-3.55,6.93,6.93,0,0,1-.71-2.84,8.3,8.3,0,0,1,1.62-5.8,42.22,42.22,0,0,1,4-3.87,61.05,61.05,0,0,0,21.26,5.44,71.55,71.55,0,0,1,4.22,8.76,5.74,5.74,0,0,1-.29,3.79,4.5,4.5,0,0,1-1.87,2.13,3.09,3.09,0,0,0-1.71,2.64c.15,1.95,3.25,3.69,6.74,3.43s6.07-2.44,5.92-4.38a2.78,2.78,0,0,0-1.55-2.1,5,5,0,0,1-1.55-1.48,6.07,6.07,0,0,1-1.26-4.24,66,66,0,0,1,2.5-8.75,61.12,61.12,0,0,0,20.41-5.93,56.46,56.46,0,0,1,5.55,5.51,7.82,7.82,0,0,1,1.48,5,6.29,6.29,0,0,1-1.34,3.62c-1.08,1.47-1.47,3-.89,4.2,1.13,2.4,5.93,3.12,10.25,1.08s6.54-6.06,5.41-8.47a3.82,3.82,0,0,0-3-1.91,7,7,0,0,1-2.69-1.13,8.36,8.36,0,0,1-3.67-4.78,67.28,67.28,0,0,1-.94-9.39,61.51,61.51,0,0,0,12.53-12.84,75.59,75.59,0,0,1,10.11.62,5.76,5.76,0,0,1,3.17,2.1,4.68,4.68,0,0,1,.94,2.68,3.06,3.06,0,0,0,1.47,2.78c1.76.82,4.8-1,6.28-4.2s.84-6.49-.92-7.31a2.79,2.79,0,0,0-2.59.34,5.2,5.2,0,0,1-2,.62,6.14,6.14,0,0,1-4.31-1,65.71,65.71,0,0,1-6.32-6.37,60.89,60.89,0,0,0,5.53-19.35,71.37,71.37,0,0,1,9.48-3.2,7.87,7.87,0,0,1,5.1.94,6.3,6.3,0,0,1,2.61,2.86c.82,1.62,2,2.66,3.33,2.71,2.65.09,5.48-3.86,5.64-8.64S638.63,323.48,636,323.39Z"/><path class="cls-35" d="M516.54,328.19c0-27.4,15.05-50.44,40.33-57.18-1,0-1.9-.07-2.86-.07a59.18,59.18,0,1,0,15.28,116.35C537.93,385.8,516.54,359.91,516.54,328.19Z"/><path class="cls-36" d="M550.81,299.26c3.83,6.75,0,16.16-8.57,21s-18.62,3.34-22.45-3.41-.76-17.5,7.8-22.37S547,292.51,550.81,299.26Z"/><path class="cls-36" d="M588.73,302.72c-.7,3.47-4.82,5.57-9.22,4.69s-7.4-4.4-6.71-7.87,5-6.25,9.36-5.37S589.42,299.26,588.73,302.72Z"/><path class="cls-36" d="M585.37,362.35c-.4,2-2.77,3.2-5.3,2.69s-4.25-2.53-3.85-4.52,2.85-3.59,5.37-3.09S585.77,360.36,585.37,362.35Z"/><path class="cls-37" d="M565.78,323.15c1.25-1.59,3.91-1.6,5.94,0s2.65,4.18,1.4,5.77-4.17,1.92-6.19.33S564.52,324.75,565.78,323.15Z"/><path class="cls-36" d="M544,371.84c-.41,2-2.8,3.17-5.32,2.64s-4.23-2.57-3.81-4.55,2.88-3.57,5.4-3S544.44,369.86,544,371.84Z"/><path class="cls-37" d="M564.28,285.09c1.33,1.54.82,4.15-1.14,5.83s-4.61,1.8-5.93.26-1.08-4.46.87-6.14S563,283.55,564.28,285.09Z"/><path class="cls-36" d="M518.61,329.82c1.32,1.54.81,4.15-1.14,5.83s-4.62,1.8-5.94.26-1.08-4.46.88-6.14S517.28,328.28,518.61,329.82Z"/><circle class="cls-36" cx="549.76" cy="345.24" r="9.23"/><circle class="cls-36" cx="521.58" cy="357.34" r="6.53"/><circle class="cls-37" cx="560.7" cy="372.97" r="6.53"/><circle class="cls-37" cx="585.43" cy="340.74" r="6.53"/><g class="cls-38"><path class="cls-34" d="M612.65,508.83a3.83,3.83,0,0,0-5.32,1,3.75,3.75,0,0,0-.65,1.78l0-.27c-8.79.48-12.56-.92-14.18-2.25a30.74,30.74,0,0,0-.52-3.35c.2-.68,1.2-2,5.71-3l0-.18a2.48,2.48,0,0,0,.78,1,2.52,2.52,0,1,0-1-2c-.55.17-4.27,1.3-6.42.65a31.16,31.16,0,0,0-4-7.91c-.36-1.09-.45-4.49,8.32-10.65l0-.07a5.07,5.07,0,0,0,3.26.77,5.15,5.15,0,1,0-5.65-4.59,5.07,5.07,0,0,0,.66,2c-1.67,1.39-8.12,6.5-12.44,6.19a31.1,31.1,0,0,0-15.77-6.8c-1-.79-2.37-3.08-2.22-9.8l-.29,0a3.88,3.88,0,0,0,1.78-.88,4,4,0,1,0-5.65-.45,4,4,0,0,0,2.15,1.3c.06.86.4,6.35-1,9.61a31.21,31.21,0,0,0-16.3,5.29,16.83,16.83,0,0,1-2.62-3.78l-.17.08a2.57,2.57,0,0,0,.75-1.09,2.68,2.68,0,1,0-3.44,1.6,2.76,2.76,0,0,0,1.68.05,20.61,20.61,0,0,1,2.2,4.3,31.67,31.67,0,0,0-6.31,6.46c-1.26-.08-4-1-8.94-5.43a4.38,4.38,0,0,0,.16-1.21,3.8,3.8,0,1,0-3.82,3.78,4.42,4.42,0,0,0,2.48-.78c1.25.95,6.44,5.07,7.24,8.45a31.27,31.27,0,0,0-3.1,12.88c-.64.65-2.69,1.91-8.6,1.33a3.07,3.07,0,0,0-.64-1,3,3,0,1,0-.1,4.22,3,3,0,0,0,.86-1.58c1.47-.06,7.19-.15,8.74,2a31.42,31.42,0,0,0,13.3,21.67c.13,1.43-.09,5.75-6,11.39l.17.18a3.42,3.42,0,0,0-1.69-.47,3.54,3.54,0,1,0,2.82,1.51c.68-.81,7-8.33,10.65-9.41a31.58,31.58,0,0,0,19,1.55c1.41.24,4,1.47,5.58,6.93a3,3,0,0,0-.63,1.06A3,3,0,1,0,577,549a2.93,2.93,0,0,0-1.78,0c-.6-1.28-2.71-6.23-.74-8.23a31.42,31.42,0,0,0,8.75-6.08c1.92.1,4.94,1.5,9.54,6.29l.2-.15a3.51,3.51,0,0,0-.68,1.62,3.56,3.56,0,1,0,1.84-2.6c-.69-.56-5.74-4.81-7.5-9.12a31.64,31.64,0,0,0,3-5.12,40,40,0,0,1,4.55,1.66l.13-.22a3.61,3.61,0,0,0,0,1.76,3.55,3.55,0,1,0,2.56-4.32,3.45,3.45,0,0,0-1.88,1.21,38.28,38.28,0,0,1-4.64-1.75,31,31,0,0,0,2.08-8.64c3.61-3.16,13.24-2.19,14.39-2.06a3.83,3.83,0,1,0,5.79-4.39Z"/><path class="cls-35" d="M542.29,511.32c0-14,7.68-25.72,20.56-29.15-.48,0-1,0-1.46,0a30.17,30.17,0,1,0,7.79,59.32C553.2,540.69,542.29,527.49,542.29,511.32Z"/><path class="cls-36" d="M563.62,496.29c2,3.44,0,8.25-4.37,10.73s-9.49,1.7-11.45-1.74-.38-8.92,4-11.41S561.66,492.85,563.62,496.29Z"/><path class="cls-36" d="M583,498.06c-.35,1.77-2.46,2.84-4.7,2.39s-3.77-2.24-3.42-4a4.18,4.18,0,0,1,8.12,1.62Z"/><path class="cls-36" d="M581.24,528.46a2.45,2.45,0,0,1-4.67-.93,2.4,2.4,0,0,1,4.67.93Z"/><path class="cls-37" d="M571.25,508.48a2.44,2.44,0,0,1,3.74,2.94,2.4,2.4,0,0,1-3.74-2.94Z"/><path class="cls-36" d="M560.16,533.3a2.45,2.45,0,0,1-4.66-1,2.4,2.4,0,0,1,4.66,1Z"/><path class="cls-37" d="M570.49,489.07a2.45,2.45,0,0,1-3.61,3.1,2.4,2.4,0,0,1,3.61-3.1Z"/><path class="cls-36" d="M547.2,511.88a2.45,2.45,0,0,1-3.61,3.1,2.4,2.4,0,0,1,3.61-3.1Z"/><circle class="cls-36" cx="563.08" cy="519.74" r="4.71"/><circle class="cls-36" cx="548.72" cy="525.91" r="3.33"/><circle class="cls-37" cx="568.66" cy="533.87" r="3.33"/><circle class="cls-37" cx="581.27" cy="517.44" r="3.33"/></g></g></g></svg>