<svg xmlns="http://www.w3.org/2000/svg" xmlns:xlink="http://www.w3.org/1999/xlink" viewBox="0 0 911 910"><defs><style>.cls-1,.cls-24,.cls-5{fill:none;}.cls-2{isolation:isolate;}.cls-3{fill:#7daaeb;}.cls-4{fill:#478dfd;}.cls-5{stroke:#fff;stroke-linecap:round;}.cls-24,.cls-5{stroke-miterlimit:10;stroke-width:2px;}.cls-6{fill:#fededf;}.cls-7{fill:#fdc2c4;}.cls-8{fill:#fe7668;}.cls-9{fill:#ffc2c7;}.cls-10{fill:#abcdfa;}.cls-11{fill:#61a3fa;}.cls-12{fill:#61a1f9;}.cls-13{fill:#aacffc;}.cls-14{fill:#a9cffc;}.cls-15{fill:#2070fd;}.cls-16{fill:#aad2ff;}.cls-17{fill:#fcad82;}.cls-18{fill:#0545b3;}.cls-19{fill:#ff8d6e;}.cls-20{fill:#0096e8;}.cls-21{fill:#fffeff;}.cls-22{clip-path:url(#clip-path);}.cls-23{fill:#fdbd9b;}.cls-24{stroke:#60a2ff;}.cls-25,.cls-27{fill:#07a7c7;}.cls-25{opacity:0.5;mix-blend-mode:soft-light;}.cls-26{fill:#fdfef9;}</style><clipPath id="clip-path"><path class="cls-1" d="M377.5,721.5c212,43,371.06-65,371.5-169.5.5-117.5-75.72-94.43-159.5-100.5-69-5-91.5-71.5-91.5-71.5C446,242,324,236,324,236c-177-2-165,215-165,215S158.75,677.13,377.5,721.5Z"/></clipPath></defs><title>lavado_de_manos-06-06</title><g class="cls-2"><g id="Sintomas"><path class="cls-3" d="M299.55,622h-28.1A55.46,55.46,0,0,0,216,677.45v49.6a55.46,55.46,0,0,0,55.45,55.45h28.1A55.46,55.46,0,0,0,355,727.05v-49.6A55.46,55.46,0,0,0,299.55,622Zm23,102a23.83,23.83,0,0,1-23.84,23.83H272.27A23.83,23.83,0,0,1,248.43,724V671.34a23.84,23.84,0,0,1,23.84-23.84h26.46a23.84,23.84,0,0,1,23.84,23.84Z"/><path class="cls-4" d="M672.5,460.5s0-67,35-104c31.62-33.43,55-26,64-10s-6,39-33,61c-13.8,11.25-31,36-34,60Z"/><path class="cls-4" d="M701.5,467.5s36.83-45.77,79-47c34.17-1,40.3,15.29,37.15,28.56s-22.93,18.27-48.75,16.68c-13.21-.82-35.07,4-48.8,15.62Z"/><path class="cls-4" d="M668.5,463.5s-7.39-36.38-30.69-48.62c-18.88-9.91-23.78-2.46-25.65,5.84s10.34,17.78,20.76,22.69c7.47,3.52,16.55,11.87,21.08,22.12Z"/><path class="cls-5" d="M742.5,362.5s-52,40-59,105"/><path class="cls-5" d="M793.34,441.43s-56.32-2-96.52,37.25"/><path class="cls-5" d="M664.53,460.05a126.73,126.73,0,0,0-37.81-37.59"/><path class="cls-6" d="M377.5,721.5c212,43,371.06-65,371.5-169.5.5-117.5-75.72-94.43-159.5-100.5-69-5-91.5-71.5-91.5-71.5C446,242,324,236,324,236c-177-2-165,215-165,215S158.75,677.13,377.5,721.5Z"/><path class="cls-7" d="M269.35,675.3s-4.85-41.8-2.85-58.8c1.61-13.66,18.07-21.51,20.84-47.94a67.78,67.78,0,0,0-4.57-32c-8.29-21-26-72.89-6.27-91.08,25-23,49,20,51,59s24,81,48,69-43-150-43-150-20-49,10-68,51,44,56,88c4.66,41,16.26,85.46,37.23,83.26A6.88,6.88,0,0,0,441.8,521c.83-5.28-.16-15.23-6.3-32.54-11-31,35-48,49-18,0,0,8.32,16,5.72,38.05-3.31,28.05,24.08,49.89,50.34,39.48q3.8-1.5,7.94-3.53c35.47-17.4,37.35-51.37,34.71-71.94-1.82-14.2,7.23-20.25,21.44-18.5,5.14.64,11.09,2.55,18.43,3.44,16.42,2,27.77-4,36.42-4,35,0,68,13,79,39,18.11,42.81,26.7,119.25-77.65,189.13S347.21,740.09,269.35,675.3Z"/><circle class="cls-4" cx="743" cy="510" r="11.5"/><circle class="cls-4" cx="650" cy="382" r="4.5"/><circle class="cls-8" cx="279.5" cy="310.5" r="5.5"/><circle class="cls-8" cx="320" cy="310" r="5.5"/><circle class="cls-8" cx="355" cy="310" r="5.5"/><circle class="cls-9" cx="409.5" cy="235.5" r="7"/><circle class="cls-9" cx="151" cy="583" r="10.5"/><circle class="cls-10" cx="675" cy="700" r="5"/><circle class="cls-10" cx="710" cy="700" r="5"/><circle class="cls-10" cx="745" cy="700" r="5"/><path class="cls-4" d="M106.5,627.5s14,22,55,39c31.26,13,65,14.56,71.07,14.17,1.41-.09,3.93-.17,4.22-.15,8.1.47,40.71-5,65.71-16,0,0,40-19,50-36Z"/><ellipse class="cls-11" cx="229.25" cy="628" rx="122.75" ry="10.5"/><path class="cls-12" d="M158.5,458.5h18.44a94,94,0,0,1,33.36,5.93c9.51,3.61,19.58,9.26,25.48,18,.42.61.82,1.23,1.25,1.83,2.05,2.91,9.47,14.22,9.47,26.28v28h-19V516.77A37.55,37.55,0,0,0,204.79,482c-.42-.18-.85-.35-1.29-.52,0,0-11.5-5.5-44.5-4.5Z"/><polygon class="cls-13" points="221.5 638 254.5 638 244.5 545.5 230.5 545.5 221.5 638"/><circle class="cls-14" cx="211.5" cy="588.5" r="4"/><circle class="cls-14" cx="258.5" cy="599.5" r="2"/><circle class="cls-14" cx="264.5" cy="616.5" r="5"/><circle class="cls-14" cx="208.5" cy="626.5" r="5"/><circle class="cls-14" cx="214.5" cy="635.5" r="2"/><polygon class="cls-15" points="251.5 548.5 230.08 548.5 222.5 548.5 222.5 538.5 251.5 538.5 251.5 548.5"/><rect class="cls-16" x="186" y="455" width="8" height="27"/><rect class="cls-4" x="211" y="698" width="43" height="12"/><path class="cls-17" d="M467.17,340.23s-2.24,38.19,6.74,69.63,22.46,38.19,47.17,27c17-7.72,27.61-26.07,32.59-36.78a64.57,64.57,0,0,0,3.75-11c.62-2.41,2.22-2.48,6.34-3.85,10.11-3.37,13.79-51.24-6.8-47a12.72,12.72,0,0,0-9.8,11.05c-.63,5.11-1.37,11.91-1.37,15.77,0,0,0,13.48-15.72-26.95,0,0-6.2-16.52-38.37-4a68,68,0,0,1-9.77,3Z"/><path class="cls-18" d="M532.91,348a26.42,26.42,0,0,0-23.51-12.87,61.46,61.46,0,0,0-18.64,4c-24.71,9-29.2,2.24-38.19-18-6.45-14.52-18.78-21.15-35.27-20.3a47.87,47.87,0,0,0-24.75,8.75l-.07.06a12.26,12.26,0,0,0-1.65,1.3c-12.43,11.55-57.22,47.13-95.49,1.2-44.93-53.91,11.23-128,78.61-116.8S443.59,244.77,486.27,238h0s20.21-4.5,33.69-15.73c11.07-9.22,46.39-6.32,61.14,16.17a34.36,34.36,0,0,1,4.95,22.83c-.6,5.2.44,12.94,10.28,17.16h0s33.69,20.22,18,65.14h0s-6.74,13.48-4.49,29.2,11.23,56.14-51.63,49.42c0,0,0,0,0,0,0-.95-1-23.78,2.24-35.88,0,0,0,0,0,0,.67,0,12.29.16,11-32.57h0s-3.19-18.5-14.87-13.95a14.1,14.1,0,0,0-8.72,13.35c.13,18.62-3.23,21.83-7.77,7.94C538.14,355.1,534.85,351.22,532.91,348Z"/><path class="cls-17" d="M521.08,432.33s4.5,18,6.74,31.44,33.69,6.74,38.19-9-9-49.42-6.74-71.88Z"/><path class="cls-19" d="M522.77,437.14a.92.92,0,0,1,.45-1.16c4.89-2.34,30.67-16.4,35.92-43.38,0,0,2.3,28.34-34.94,46.12a.84.84,0,0,1-1.18-.56Z"/><path class="cls-20" d="M527,460s-42,33-60,81c-13.35,35.59-37,114-38,188,0,0,194,10,273-82,0,0,15-76.65-45.5-153.9-21.34-27.25-53.32-44.43-87.89-46-.87,0-1.73-.07-2.61-.09C566,447,558,466,527,460Z"/><circle class="cls-21" cx="329.5" cy="596.5" r="4"/><g class="cls-22"><path class="cls-23" d="M512.25,702.41s-1.95,8-43.87,1.79-84.15-106.4-84.15-106.4h-.05c-3.75-8.35-11.5-25.83-11.47-27.53.05-2.23,10.11-12.76,13.83-19.84s.78-16.54-6.1-7.73-9.5,5.17-9.5,5.17,2.93-12,3.11-21S370,505,366.22,516c-4.52,13.17-5.3,18.67-5.3,18.67,1-10.86-2.12-23.07-3.14-26.72a8.87,8.87,0,0,0-.95-2.16c-4.62-7.6-7.63-6.31-9.31-4a8.15,8.15,0,0,0-1.45,5.59c1.52,16.32-.24,21.65-.24,21.65-2.69-15.74-7.75-24.56-10.15-28a6.36,6.36,0,0,0-4.22-2.77c-5.79-.87-5.25,8.19-4.88,9.37.42,1.35,7.46,28.78,5.18,31s-12.82-29.34-17.47-20.49c-2.87,5.46,1.55,19.88,5.36,30.16a47.4,47.4,0,0,1,2.63,22.11c-2.19,18.36-.46,49.69-.46,49.69C334,729,382.1,761.28,382.1,761.28c115.11,52.26,171.76,40.33,171.76,40.33Z"/></g><polygon class="cls-24" points="208.41 256.73 207.43 363.83 115.16 309.44 208.41 256.73"/><polygon class="cls-24" points="742.03 614.03 715.5 568.08 768.55 568.08 742.03 614.03"/><path class="cls-25" d="M462,604s23-79,61-119-6,70,11,75,53-36,38-62,13-26,40,0,27,70,24,74c-2.88,3.84-36.15,38.07-98.93,17a45.11,45.11,0,0,0-34.34,2.13A42.76,42.76,0,0,0,495,596C480,608,455,626,462,604Z"/><path class="cls-26" d="M391.5,519.5c-5.67,12.16-14,15-5,20s7,8-3,15-20,19-21,23-7,8-15,7-4-1-4-1-19,3-19-5,4-18-2-21-12-1-15-5-1-12,3-19,1-18,0-19-5-17,20-6c0,0,3,2,2-4,0,0,2.5-12.5,11.5-3.5s14,0,22-3,9,12,12,14S395,512,391.5,519.5Z"/><circle class="cls-21" cx="300" cy="524" r="3.5"/><circle class="cls-21" cx="322" cy="489" r="3.5"/><circle class="cls-21" cx="403" cy="530" r="5.5"/><circle class="cls-21" cx="302.5" cy="568.5" r="4"/><path class="cls-17" d="M571.5,616.5s2,8-38,22-124-55-124-55l0,0c-7.2-5.65-22.2-17.51-23-19-1-2,3-16,3-24s-7-15-9-4-6,9-6,9-3-12-7-20-17-19-12-6,4,19,4,19c-4.2-10.08-12.64-19.46-15.23-22.2a7.92,7.92,0,0,0-1.65-1.35c-7.78-4.73-9.87-2.16-10.3.65a8.21,8.21,0,0,0,1.32,5.63c8.94,13.73,9.86,19.27,9.86,19.27-9.75-12.75-18.38-18.19-22.08-20.11a6.35,6.35,0,0,0-4.9-.48c-5.63,1.89-.9,9.71,0,10.59s20,22,19,25-25-20-25-10c0,6.16,10.62,16.87,18.78,24.19A47.46,47.46,0,0,1,341.89,588c6.61,17.27,17.61,34.46,17.61,34.46,41.36,60.25,109.82,99.88,123.19,107.25a8.93,8.93,0,0,0,4.85,1.1c124.24-7.69,167-45.92,167-45.92Z"/><path class="cls-27" d="M558.83,604.39a104.11,104.11,0,0,1-8.61,16.68A7.59,7.59,0,0,0,552.77,632c20.62,11.39,52.23,33,86.47,61.33C639,696,664,681,666,678s40.5-71.5,13.5-143.5c-16.6-44.27-55.5-15.58-83,13.09A189.05,189.05,0,0,0,558.83,604.39Z"/><path class="cls-5" d="M561.5,604.5s72,29,102,68"/><path class="cls-5" d="M565.5,593.5s72,29,102,68"/></g></g></svg>