<svg xmlns="http://www.w3.org/2000/svg" viewBox="0 0 540 552"><defs><style>.cls-1{isolation:isolate;}.cls-2{fill:#e0eaec;}.cls-3,.cls-4,.cls-7,.cls-9{fill:none;stroke-miterlimit:10;}.cls-3{stroke:#e0eaec;}.cls-4{stroke:#9eccb6;stroke-width:0.75px;}.cls-4,.cls-9{stroke-linecap:round;}.cls-5{fill:#a5d0bd;}.cls-6{fill:#9eccb6;}.cls-7{stroke:#b6dac8;}.cls-13,.cls-8{fill:#018591;}.cls-9{stroke:#319897;}.cls-10{fill:#5cb098;}.cls-11{fill:#a8caba;}.cls-12{fill:#298c6a;}.cls-13{opacity:0.5;mix-blend-mode:multiply;}.cls-14{fill:#333;}.cls-15{fill:#00797c;}.cls-16{fill:#1b1464;}.cls-17{fill:#f4d3ce;}.cls-18{fill:#fff;}.cls-19{fill:#4582d5;}.cls-20{fill:#41d3ff;opacity:0.4;}.cls-21{fill:#602601;}.cls-22{fill:#754c24;}.cls-23{fill:#009397;}.cls-24{fill:#00acb8;}.cls-25{fill:#42d6fe;}.cls-26{fill:#dcdbd6;}.cls-27{fill:#c1c1b9;}.cls-28{fill:#00adb1;}.cls-29{fill:#009499;}.cls-30{fill:#c3c2bd;}.cls-31{fill:#c4c1ba;}.cls-32{fill:#f79594;}.cls-33{fill:#f27d7d;}.cls-34{fill:#ed6160;}.cls-35{fill:#f9b1b2;}.cls-36{fill:#59de9d;}.cls-37{fill:#43ca88;}.cls-38{fill:#41c987;}.cls-39{fill:#43ca85;}</style></defs><title>origen-doctor</title><g class="cls-1"><g id="Noticias"><path class="cls-2" d="M137.43,260.41a72.93,72.93,0,0,0-4.34,20.66c-1.31,18-7.15,59.57-33.15,72.56C66.41,370.4,21.7,395.55,74.79,473.78,117,536,272.34,543.43,377.73,484.83c53.14-29.54,85.4-87.16,78.73-147.59-5-45.59-31.14-90.55-116.38-85.14a128.84,128.84,0,0,1-50.8-7.07A156.48,156.48,0,0,1,259.2,230.7C224.82,209.54,162.92,193.39,137.43,260.41Z"/><path class="cls-3" d="M125.28,320.63S97.14,239.08,153,211.14s97.87,6.17,109,21.25"/><path class="cls-4" d="M400.3,313.12S350,413.71,327.65,483.56"/><path class="cls-5" d="M398.9,315.92c0-2.95,8.84-32.4,17.67-26.51s-17.67,26.51-17.67,26.51"/><path class="cls-5" d="M390.44,332.29c1.72-1.7,23.77-13.72,25.25-5.37s-25.25,5.37-25.25,5.37"/><path class="cls-5" d="M382.06,351.84c1.71-1.69,23.77-13.71,25.24-5.36s-25.24,5.36-25.24,5.36"/><path class="cls-5" d="M371.35,376c2.1-2.75,31-24.24,34.8-12.67S371.35,376,371.35,376"/><path class="cls-5" d="M360.17,398.39c2.1-2.76,31-24.25,34.81-12.68s-34.81,12.68-34.81,12.68"/><path class="cls-5" d="M390.91,328.55C391,326.42,385.58,305,379.3,309s11.61,19.54,11.61,19.54"/><path class="cls-5" d="M383.26,345.65c.07-2.12-5.32-23.57-11.61-19.53s11.61,19.53,11.61,19.53"/><path class="cls-5" d="M374,367c.53-3-2.85-34.57-12.59-30.09S374,367,374,367"/><path class="cls-5" d="M366.22,387.61c.53-3-2.85-34.57-12.58-30.09s12.58,30.09,12.58,30.09"/><path class="cls-4" d="M125.28,310.29s70.48,109.42,126.84,172.9"/><path class="cls-5" d="M127.23,313.33c-2.93-1.74-27-27.91-16-33.23s16,33.23,16,33.23"/><path class="cls-5" d="M138.54,331.41c-.68-2.71.37-31.76,9.56-28.3s-9.56,28.3-9.56,28.3"/><path class="cls-5" d="M153.07,351.3c-.68-2.71.37-31.76,9.56-28.3s-9.56,28.3-9.56,28.3"/><path class="cls-5" d="M170.84,376.23c-1.51-3.71-5.83-45.21,7.91-42.13s-7.91,42.13-7.91,42.13"/><path class="cls-5" d="M186.5,400.55c-1.5-3.71-5.83-45.21,7.92-42.14s-7.92,42.14-7.92,42.14"/><path class="cls-5" d="M135.09,328.74c-2.07-1.33-26.6-8.6-26.29,0s26.29,0,26.29,0"/><path class="cls-5" d="M147.61,346.45c-2.07-1.33-26.6-8.61-26.3,0s26.3,0,26.3,0"/><path class="cls-5" d="M163.44,368.27c-2.68-2.3-36.1-17.55-37.39-5.22s37.39,5.22,37.39,5.22"/><path class="cls-5" d="M179.34,388.17c-2.68-2.3-36.1-17.56-37.39-5.22s37.39,5.22,37.39,5.22"/><path class="cls-4" d="M62.74,369.11s103,79.53,177.4,120.47"/><path class="cls-5" d="M65.6,371.32c-3.34-.66-34.82-17.25-26.17-26s26.17,26,26.17,26"/><path class="cls-5" d="M82.31,384.57c-1.55-2.32-10.28-30.05-.47-29.86s.47,29.86.47,29.86"/><path class="cls-5" d="M102.66,398.45c-1.55-2.33-10.29-30.05-.47-29.87s.47,29.87.47,29.87"/><path class="cls-5" d="M127.75,416c-2.67-3-20.63-40.65-6.65-42.35S127.75,416,127.75,416"/><path class="cls-5" d="M150.64,433.68C148,430.68,130,393,144,391.32s6.64,42.36,6.64,42.36"/><path class="cls-5" d="M78.17,383.21c-2.4-.55-28,.8-24.77,8.83s24.77-8.83,24.77-8.83"/><path class="cls-5" d="M95.89,395.71c-2.4-.56-27.95.79-24.77,8.83s24.77-8.83,24.77-8.83"/><path class="cls-5" d="M118.11,411c-3.3-1.27-39.89-4.46-37,7.59s37-7.59,37-7.59"/><path class="cls-5" d="M139.75,424.4c-3.3-1.27-39.89-4.46-37,7.6s37-7.6,37-7.6"/><path class="cls-6" d="M449,461.21l-11,15.36V461.21h-1.4c-21.46-1.79-38.62.71-52.05,4.94-32.89,10.37-32.84,57,.1,67.2l1.66.5C442.21,550.61,540,461.21,540,461.21Z"/><path class="cls-7" d="M390.52,510.1s89.41-36.32,145.29-47.5"/><line class="cls-7" x1="462.07" y1="461.21" x2="445" y2="489.15"/><line class="cls-7" x1="507.87" y1="484.95" x2="482.54" y2="476.92"/><path class="cls-6" d="M204.53,349.48l-2.9,21.06L213.51,358l1.15,1.08c18.93,15.14,31,30.46,38.75,44.31,18.89,33.93-17.2,72-52.06,54.89q-.87-.42-1.74-.87c-58.68-29.51-69.52-178.29-69.52-178.29Z"/><path class="cls-7" d="M214.55,434.71s-45.05-98.87-82.12-151.24"/><line class="cls-7" x1="193.84" y1="339.37" x2="186.19" y2="375.43"/><line class="cls-7" x1="138" y1="323.37" x2="164.94" y2="336.38"/><path class="cls-8" d="M28.69,478c-6.24-.37-33.53-2.79-27.94-22.35s39.12-2.8,50.29,0S62.22,450,65,444.44s11.18-8.38,19.56,0,19.56,22.35,25.15,16.77,14-14,22.35,0S140.45,478,143.25,478s8.38,5.59,8.38,8.38,11.17,41.91-53.09,47.5c0,0-29.34-7-18.16-18.16s-2.79-14-14-11.18-33.53,2.8-27.94-8.38S52.44,479.37,28.69,478Z"/><path class="cls-9" d="M2.15,454.22s95,27.94,136.9,50.29"/><path class="cls-9" d="M69.2,445.84s20,21.67,24,38.78"/><path class="cls-9" d="M44.06,501.72c5.59-2.79,37.07-10.35,43.68-19.14"/><path class="cls-9" d="M119.5,459.81s12,23.19,10.17,38.14"/><path class="cls-8" d="M440.24,373.85c3.05-6.46,17.26-34.38,35.63-20.11s-13.72,42.69-21.45,53.36,1.17,14.24,5.9,19.58,4.13,15.43-8.33,20.75S419.93,458.65,423.48,467s8.86,20.78-9.53,23.72-21.36,1.74-22.55,4.71-9.51,6.51-12.47,5.31-49.23-6-27.76-76.57c0,0,19.92-28.14,27-11.52s16,3,17.82-10.06,11.33-36.76,20.8-26.07S428.63,398.45,440.24,373.85Z"/><path class="cls-9" d="M476.75,355.82S406.61,444.69,365,479.62"/><path class="cls-9" d="M457.06,430.53s-31.53,12-51.37,8.91"/><path class="cls-9" d="M408.49,380c.58,7.12-4.83,43.74,1.69,54.51"/><path class="cls-9" d="M420.79,477.93s-29.71,2.8-44.8-5.47"/><path class="cls-10" d="M14.72,550.61c-.73,2.21,348.8.75,467.11.19a2.72,2.72,0,0,0,.54-5.38c-16.77-3.5-34.41-9.17-42.13-18.18C423.47,507.68,409.65,501,398.48,501s-27.84,7.73-87.39-21.66c-23.1-11.4-82.28-39.92-131.47,11.6C138.47,534,86,529.66,69.2,529.66S21.7,529.66,14.72,550.61Z"/><ellipse class="cls-11" cx="489.71" cy="409.52" rx="8.38" ry="4.19" transform="translate(-139.8 515.5) rotate(-49.46)"/><ellipse class="cls-11" cx="495.3" cy="370.4" rx="8.38" ry="4.19" transform="translate(-108.12 506.06) rotate(-49.46)"/><ellipse class="cls-11" cx="87.36" cy="300.55" rx="4.19" ry="8.38" transform="translate(-153.53 100.73) rotate(-34.12)"/><ellipse class="cls-11" cx="78.98" cy="322.9" rx="2.89" ry="5.78" transform="translate(-167.51 99.87) rotate(-34.12)"/><ellipse class="cls-12" cx="476.79" cy="431.11" rx="5.71" ry="4.19" transform="translate(-160.73 513.25) rotate(-49.46)"/><ellipse class="cls-12" cx="34.67" cy="423.3" rx="4.93" ry="3.62" transform="translate(-30.13 3.55) rotate(-4.09)"/><ellipse class="cls-13" cx="248" cy="536.36" rx="126" ry="11.5"/><path class="cls-14" d="M208.29,503.82S208.09,518,197.56,524c-8.76,5-16.1,9-15.66,14.76.17,2.32,4.34,6.13,17.68,3.17,9-2,11.95-4.14,16.5-3.84s12.2-.93,12.35-7.4,2.34-28.6,2.24-29.88S211.32,492.61,208.29,503.82Z"/><path class="cls-14" d="M295.84,505.5s.21,14.23,10.74,20.2c8.76,5,16.1,9,15.66,14.75-.17,2.32-4.34,6.13-17.68,3.18-9-2-11.95-4.14-16.5-3.85s-12.2-.93-12.35-7.4-2.34-28.59-2.24-29.88S292.82,494.29,295.84,505.5Z"/><path class="cls-15" d="M192,331.45s5,7.27,7.27,9.51,2.23,11.18,3.35,14-1.12,2.24-1.12,2.24a14.37,14.37,0,0,1-1.12-2.8c0-.56-3.35-3.35-3.91,0s2.8,11.74,7.83,8.95,3.91-12.86,5-15.1S206,314.13,206,314.13,193.14,315.8,192,331.45Z"/><path class="cls-16" d="M204.88,495.24c-.49-.29-2.8,12.85.56,14.53s26.65,2,27.39,1.68c2.79-1.12,3.91-11.74,0-14.54C232.83,496.91,211.58,499.15,204.88,495.24Z"/><path class="cls-16" d="M268.76,496.7c-.52-.21-1.05,13.12,2.5,14.33s26.68-1.61,27.36-2c2.62-1.49,2.31-12.16-1.94-14.41C296.68,494.63,275.93,499.68,268.76,496.7Z"/><path class="cls-17" d="M230.59,166.56s1.68-4.48,8.94-4.48c.56,0,7.27-.56,10.62,3.36s5,15.65,5,17.88c0,0-13.69-7.54-18.72-5.86a16.26,16.26,0,0,0-7.27,4.47S228.07,173.54,230.59,166.56Z"/><path class="cls-18" d="M273.35,184.16c-1.12-4.47-.56-9.5-1.12-10.62a7.62,7.62,0,0,1-.35-.84A17.29,17.29,0,0,1,271,169a29.8,29.8,0,0,0-1.24-5.54,21,21,0,0,0-21.39-14.22c-13,.86-17.27,8.05-19.16,10.88a14.6,14.6,0,0,0-2.23,7.26c0,3.36-.56,14.54-.56,14.54V198.7c0,7.26,7.26,8.94,7.26,8.94,12.3,2.24,31.87-3.91,38.57-8.38S273.91,186.4,273.35,184.16Zm-36.89-6.7a16.26,16.26,0,0,0-7.27,4.47s-1.12-8.39,1.4-15.37c0,0,1.68-4.48,8.94-4.48.56,0,7.27-.56,10.62,3.36s5,15.65,5,17.88C255.18,183.32,241.49,175.78,236.46,177.46Z"/><path class="cls-19" d="M229.42,181.25a3.82,3.82,0,0,0,.89.12,3.39,3.39,0,0,0,.64-.07c1.79-.16,4.72-.21,7.8-.23C235.29,181.06,231.72,181.1,229.42,181.25Z"/><path class="cls-19" d="M249.87,165.75a2.14,2.14,0,0,0-.8-.25,55.74,55.74,0,0,0-6.45-.24c1.35,0,2.75.1,4.21.24a2.25,2.25,0,0,1,.81.25c5,.34,8.94,3.7,8.94,7.79,0,3.79-3.36,7-7.82,7.67h0a7.53,7.53,0,0,1-.83.1,10.37,10.37,0,0,0,1.12.06,12.41,12.41,0,0,0,2-.16h0c4.47-.72,7.83-3.88,7.83-7.67C258.82,169.45,254.88,166.09,249.87,165.75Z"/><path class="cls-19" d="M238.75,181.07c2,0,4,0,5.69.06a12.1,12.1,0,0,0,2.36.24,10.37,10.37,0,0,0,1.12-.06c-.42,0-.84-.1-1.25-.18C244.4,181.09,241.51,181.06,238.75,181.07Z"/><path class="cls-19" d="M225.28,174.1c0-4,2.25-7.26,5-7.26h.22l.11,0a54.26,54.26,0,0,1,12-1.55,54.42,54.42,0,0,0-14.21,1.55l-.11,0h-.23c-2.77,0-5,3.25-5,7.26s2.26,7.27,5,7.27a3.5,3.5,0,0,0,.65-.07l.7-.05C227.07,180.64,225.28,177.68,225.28,174.1Z"/><path class="cls-20" d="M256.58,173.54c0-4.09-3.93-7.45-8.94-7.79a2.25,2.25,0,0,0-.81-.25,55.37,55.37,0,0,0-18.42,1.31l-.11,0h-.23c-2.77,0-5,3.25-5,7.26s2.26,7.27,5,7.27a3.5,3.5,0,0,0,.65-.07c3.4-.3,10.91-.24,15.72-.17a12.1,12.1,0,0,0,2.36.24,12.41,12.41,0,0,0,1.95-.16h0C253.22,180.49,256.58,177.33,256.58,173.54Z"/><path class="cls-21" d="M258.28,171l.26,4s0,1.12,1.12.56c.7-.35,12.43,1.22,12.92,2a10.06,10.06,0,0,0-.46-4.2c-.68-1.61-10.92-2.69-12.31-2.83a.69.69,0,0,1-.28-.08A.81.81,0,0,0,258.28,171Z"/><path class="cls-22" d="M259.66,175.5s-.56-1.68,1.11-1.68a53.19,53.19,0,0,1,11.74,2.24s-9.48-1.82-11.74-1.79a.9.9,0,0,0-.9.76.83.83,0,0,0,.08.42Z"/><path class="cls-23" d="M229.19,181.93s0,11.18.56,12.29,3.36,7.83,8.39,8.39,12.85-3.91,15.09-8.94,2.79-6.71,2.23-10.62c0,0-12.18-7.44-17.32-6.15C231.43,178.57,229.19,181.93,229.19,181.93Z"/><path class="cls-24" d="M234.6,182.07a5.88,5.88,0,0,0,.74,3.21s2.8.56,3.35,1.68-2.79,1.12-3.35,2.23-.56,9.51,2.8,11.74c0,0,5,.56,8.38-1.67s6.15-6.71,7.27-10.07c.91-2.72.34-4-.51-4.94a6.14,6.14,0,0,0-1.24-1.09,34.43,34.43,0,0,0-9.23-4.66,12.6,12.6,0,0,0-4.24-.42h-.1A4.13,4.13,0,0,0,234.6,182.07Z"/><path class="cls-18" d="M300.18,225.53c7.28,30.25-3.35,72.67-6.71,82.73-.1.32-.21.64-.31,1a32.57,32.57,0,0,0,.17,20.15c4.75,14.53,8.05,34.53,8.53,52.11.56,20.69,1.68,67.08,1.12,78.82s-2.8,34.66-2.8,38-4.19,3.07-22.92,5.59c-17.25,2.32-17.88-29.07-20.12-40.81s-1.68-46.95-3.35-52-3.36-31.3-5.59-33.54-2.8,12.86-2.8,33.54-3.91,30.18-5.59,40.25-1.67,39.12-2.23,46.39-18.45,3.91-28,2.8-9.5-16.21-9.5-16.21c-2.24-20.13,1.67-48.64,2.23-72.67s2.8-69.87,3.91-76.58-3.35-30.75-1.11-41.37,5-54.22,6.7-64.84,17.89-23.48,17.89-23.48c17.33,6.15,43-6.7,43-6.7S294.87,203.45,300.18,225.53Z"/><path class="cls-25" d="M230.47,206.16a.25.25,0,0,0-.41.22c.1,1.58.57,5.5,2.77,7.69,2.79,2.79,19.56,6.71,30.18-1.68s11.74-12.85,11.74-12.85l-2.06-.61s-11,7-28.63,9C244.06,207.89,233.1,208.16,230.47,206.16Z"/><path class="cls-25" d="M207,326.36c.07.61.12,1.23.16,1.83a5.31,5.31,0,0,0,3.62,4.65,98.42,98.42,0,0,0,58.87.47,4.41,4.41,0,0,0,3.05-5l-.09-.49a4.38,4.38,0,0,0-5.65-3.41c-9,2.89-29.78,7.32-56.73-.69A2.53,2.53,0,0,0,207,326.36Z"/><path class="cls-26" d="M222.48,213.79s-8.38,2.24-15.65,16.77-22.91,33.54-26.27,50.87a127,127,0,0,1-5,11.73,47.28,47.28,0,0,0,0,9.51c.56,4.47-2.79,17.33,17.33,30.74,0,0-2.1-13.9,12.36-18.41,0,0-.48-16.79-.55-17.64s-5.28-.66-1.75-4.2c.56-.55,2.75-1.09,3.33-6.69S210.19,222.17,222.48,213.79Z"/><path class="cls-27" d="M210.47,228.6s-14.54,22.36-15.1,25.16,3.36,8.94,3.36,16.77,0,11.18-2.24,14,1.12,7.27-1.12,7.83-8.38-1.12-12.85,3.35c0,0,8.94-3.35,15.09,0,0,0,3.91,1.68-4.47,2.24,0,0-3.36,1.67,1.12,3.91a21.6,21.6,0,0,0,5-.56c1.67-.56,1.71,4.68,1,16,0,0,4.13-2.3,4.65-2.15,0,0-.79-12.84-.28-17.39,0,0,.31-.46-2.1-1.39s1.54-4.06,1.54-4.06,2.66-.41,3-15.68,2-33.16,7-49.38C214.1,227.2,214.66,223.29,210.47,228.6Z"/><path class="cls-28" d="M197.31,268c-1.15-1.26-1.84-3.19.58-5.61v-5c0-3.35,1.12-3.91,3.35-5.59s1.12-5.59,2.24-7.27,4.47-1.11,5.59-1.11,3.91-1.12,6.15,0c1.86.93,8,8.47,11,12.24a4.33,4.33,0,0,0,3.22,1.68,6.46,6.46,0,0,1,4.26,1.73c2.8,2.23,0,15.65-6.14,20.68a6.9,6.9,0,0,1-6.88,1.35,7.87,7.87,0,0,1-3.44-2.39,18.26,18.26,0,0,0-7.66-5.35,6.1,6.1,0,0,1-2-1.18l0,0a9,9,0,0,0-5.65-2.22l-.38,0A5.93,5.93,0,0,1,197.31,268Z"/><path class="cls-29" d="M219.69,273.6c0-.79,6.71-5,7.27-15.65,0,0,1.67-2.24,1.11,3.91s-5.59,11.74-6.7,12.3C221.37,274.16,219.69,275.28,219.69,273.6Z"/><path class="cls-29" d="M214.66,252.36s-.56-1.68,1.12-1.68,6.7,6.15,5,6.71S214.66,252.36,214.66,252.36Z"/><path class="cls-29" d="M198.84,262.71s-2.5,2.55-.77,2.91,3.4.14,7.28-.33a1.55,1.55,0,0,1-.27-2.22S203.7,261,198.84,262.71Z"/><path class="cls-29" d="M201.15,254.19s-2.64,2.41-.93,2.86,3.38.34,7.28.08a1.54,1.54,0,0,1-.14-2.23S206.1,252.74,201.15,254.19Z"/><path class="cls-29" d="M204.68,248.23s-2.86,1.69-1.26,2.29,3.23.72,7.05,1a1.2,1.2,0,0,1,.14-1.89S209.66,247.65,204.68,248.23Z"/><path class="cls-29" d="M209.86,243.61s-2.55.7-1.42,1.47,2.37,1.2,5.28,2.19a.93.93,0,0,1,.48-1.41S213.84,244.18,209.86,243.61Z"/><path class="cls-26" d="M285.37,204.57c3.07,1.84,7.27,2.79,11.18,10.62s10,25.15,1.4,62.32c-7.55,32.7-19.67,49.05-32.7,40.53-22.64-14.81-57.86-34.38-49.75-40.81,0,0,5.59,3.92,11.18.56s8.94-13.41,5.59-17.88a3.55,3.55,0,0,0-4.75-2.52s11.53-4.19,31.55,14.84a1.35,1.35,0,0,0,2.26-.81A62.32,62.32,0,0,1,270,247.33s3.91-8.39,2.79-16.77c-1.06-7.95.39-18.9,8.63-25.74a3.42,3.42,0,0,1,3.91-.28Z"/><path class="cls-30" d="M220.91,283.33a.76.76,0,0,1,.76-1.23c1.45.37,3.76.17,7.8-2.63,7.27-5,8.95-19,6.15-20.68,0,0,0-1.68,6.15,3.35s7.83,6.71,8.94,8.39c0,0,.84,2-4.75-3.08s-6.71-4.47-6.71-2.23-2.79,2.79-2.79,6.7-3.35,3.92-3.91,6.71-5,2.8-5,3.91c0,.56-.56,1.12,5,6.15,0,0,2.79,3.92-4.48,0A25.38,25.38,0,0,1,220.91,283.33Z"/><path class="cls-30" d="M299.9,238.66s-5.59,57-16.77,50.87c-9-4.95-15.09-11.34-18.3-12.48a3.44,3.44,0,0,0-4.06-.93c-1.67.55-1.67,3.91-1.67,3.91s8.94,29.62,6.71,33-26.19-13.89-27.95-15.65c-.56-.56-1.45-.22-1.39.27a1.67,1.67,0,0,0,.73,1.17c3.21,2.24,22.47,15.43,27.72,18.27,4.37,2.37,7,2.63,8.87,2.1a4.77,4.77,0,0,0,1-.39h0a14.68,14.68,0,0,0,8.56-5.5,7.37,7.37,0,0,0,1.27-1.39,65.52,65.52,0,0,0,7-13.41C300.46,276.67,303.26,238.1,299.9,238.66Z"/><path class="cls-31" d="M233.57,363.64a.9.9,0,0,0-.86,1.54c2.76,2.4,8.85,8.94,7.1,18.54-2.23,12.3-1.12,53.66-4.47,64.28s-2.79,6.15-2.79,17.33,5.59,23.48-10.07,29.07c0,0-7.82-5.59-10.62-1.68s-12.29-9.5-12.29-9.5,1.11,17.33,10.06,17.33c0,0,11.57,1.77,16.41,1.72s11.54-.61,11.54-4.52,1.11-43,2.79-49.75c0,0,5-19,5-30.74s-.56-40.25,2.8-39.69c0,0,2.23-3.35,6.15,35.22,0,0,.56,8.94,1.11,21.8s.56,22.36,2.8,36.33,3.91,27.39,13.41,32.42c0,0,3.36,1.68,11.18-.56,0,0,8.95-1.68,11.74-1.68,0,0,3.36,0,3.36-7.82s-.56,2.79-6.15,1.12-5-1.68-8.39.56-6.15,6.14-8.94,0-1.68,14.53-10.62-9.51c-3-8.13-5.59-69.87-8.94-87.76s-3.92-19-.56-24.59,5.59-6.71,5.59-9c0-5.15-8.39,13.42-19.57,3.36C240.37,367.51,236.23,364.47,233.57,363.64Z"/><path class="cls-31" d="M274.19,319.16s-7.27,8.94,15.65,62.6c0,0,9.5,10.62,4.47,39.69,0,0-2.79,11.74,0,36.33s-2.23,33-2.23,33,5,10.62,6.15-19,2.23-41.37,3.35-51.43c0,0,1.68-44.72-.56-59.25s-14.53-15.65-16.77-37.45C284.25,323.63,284.25,313,274.19,319.16Z"/><path class="cls-32" d="M285.55,101a.79.79,0,0,0-.63.36,1.36,1.36,0,0,1-.45.38,1.66,1.66,0,0,1-1.21.22,14.14,14.14,0,0,1-2-.79,12.28,12.28,0,0,0-.88-3.53,16.24,16.24,0,0,1,1.29-1.76,1.19,1.19,0,0,1,.71-.31.92.92,0,0,1,.56.14.63.63,0,0,0,.64,0c.33-.21.35-.93,0-1.54s-1-.86-1.35-.65A.59.59,0,0,0,282,94a.89.89,0,0,1-.12.42,1.19,1.19,0,0,1-.64.63,15.28,15.28,0,0,1-2,.41,12.75,12.75,0,0,0-2.93-3.11,11.82,11.82,0,0,1,.25-1.71,1.57,1.57,0,0,1,.63-.84,1.28,1.28,0,0,1,.76-.22.84.84,0,0,0,.79-.36c.26-.48-.2-1.35-1.06-1.81s-1.78-.34-2,.13a.77.77,0,0,0,.05.73,1.36,1.36,0,0,1,.13.57,1.65,1.65,0,0,1-.34,1.18,10.65,10.65,0,0,1-1.19,1.09,12.41,12.41,0,0,0-4.25-1.21,10.65,10.65,0,0,1-.51-1.43,1.14,1.14,0,0,1,.13-.76.91.91,0,0,1,.42-.4.6.6,0,0,0,.39-.5c0-.4-.59-.81-1.3-.82s-1.28.38-1.28.78a.54.54,0,0,0,.27.45,1,1,0,0,1,.29.33,1.21,1.21,0,0,1,.18.88,10,10,0,0,1-.54,1.42A12.65,12.65,0,0,0,263.66,91a8.57,8.57,0,0,1-.76-.66,1.54,1.54,0,0,1-.39-1,1.28,1.28,0,0,1,.2-.76.89.89,0,0,0,.11-.87c-.28-.47-1.26-.52-2.1,0s-1.21,1.35-.94,1.82a.77.77,0,0,0,.64.33A1.31,1.31,0,0,1,261,90a1.68,1.68,0,0,1,.83.9,6.5,6.5,0,0,1,.22,1,12.51,12.51,0,0,0-3.64,3.57,7.78,7.78,0,0,1-1.08-.19,1.17,1.17,0,0,1-.6-.48.92.92,0,0,1-.14-.56.65.65,0,0,0-.25-.59c-.35-.2-1,.12-1.35.74s-.29,1.3.06,1.49a.53.53,0,0,0,.53,0,1.22,1.22,0,0,1,.42-.09,1.25,1.25,0,0,1,.86.28,8.1,8.1,0,0,1,.73.84,12.48,12.48,0,0,0-1.27,4.84,10.48,10.48,0,0,1-1.16.39,1.62,1.62,0,0,1-1-.17,1.26,1.26,0,0,1-.55-.57.85.85,0,0,0-.69-.54c-.54,0-1.09.81-1.11,1.78s.53,1.74,1.07,1.75a.79.79,0,0,0,.62-.38,1.24,1.24,0,0,1,.45-.4,1.66,1.66,0,0,1,1.2-.24,8.82,8.82,0,0,1,1.26.44A12.73,12.73,0,0,0,257.6,108a11.14,11.14,0,0,1-1,1.29,1.16,1.16,0,0,1-.71.31,1,1,0,0,1-.56-.14.62.62,0,0,0-.63-.07c-.34.21-.37.94,0,1.54s1,.87,1.34.66a.57.57,0,0,0,.24-.47.89.89,0,0,1,.12-.42,1.22,1.22,0,0,1,.65-.63,12.73,12.73,0,0,1,1.59-.33,12.41,12.41,0,0,0,3.23,3.11,8.13,8.13,0,0,1-.18,1.13,1.55,1.55,0,0,1-.63.85,1.3,1.3,0,0,1-.75.23.83.83,0,0,0-.79.36c-.26.48.21,1.35,1.08,1.8s1.78.33,2-.15a.78.78,0,0,0,0-.72,1.32,1.32,0,0,1-.15-.58,1.7,1.7,0,0,1,.33-1.18,8.92,8.92,0,0,1,.81-.79,12.35,12.35,0,0,0,4.33,1.11,15,15,0,0,1,.86,1.78,1.23,1.23,0,0,1-.06.77,1,1,0,0,1-.38.44.62.62,0,0,0-.35.53c0,.4.66.75,1.37.7s1.24-.5,1.21-.89a.59.59,0,0,0-.32-.43,1,1,0,0,1-.32-.3,1.24,1.24,0,0,1-.25-.86,11.86,11.86,0,0,1,.51-1.78,12.44,12.44,0,0,0,4.15-1.21,12,12,0,0,1,1.13,1.12,1.65,1.65,0,0,1,.3,1,1.27,1.27,0,0,1-.27.74.84.84,0,0,0-.18.85c.23.49,1.2.64,2.08.22s1.33-1.23,1.1-1.72a.78.78,0,0,0-.61-.39,1.4,1.4,0,0,1-.55-.23,1.71,1.71,0,0,1-.74-1,13.2,13.2,0,0,1-.2-1.91,12.13,12.13,0,0,0,2.55-2.61,14.74,14.74,0,0,1,2.06.12,1.17,1.17,0,0,1,.65.43,1,1,0,0,1,.19.55.58.58,0,0,0,.3.56c.35.17,1-.21,1.27-.85s.18-1.32-.18-1.49a.58.58,0,0,0-.53.07,1,1,0,0,1-.42.12,1.19,1.19,0,0,1-.87-.19,13.23,13.23,0,0,1-1.29-1.3,12.38,12.38,0,0,0,1.13-3.93,15.28,15.28,0,0,1,1.92-.66,1.62,1.62,0,0,1,1,.2,1.25,1.25,0,0,1,.53.58.87.87,0,0,0,.68.55c.54,0,1.11-.79,1.15-1.76S286.09,101,285.55,101Z"/><path class="cls-33" d="M261.25,101.93c0-5.57,3.06-10.26,8.2-11.63l-.58,0a12,12,0,0,0,0,24.08A12.22,12.22,0,0,0,272,114C265.6,113.65,261.25,108.39,261.25,101.93Z"/><path class="cls-34" d="M268.22,96.05c.78,1.37,0,3.29-1.74,4.28s-3.79.68-4.57-.7a3.66,3.66,0,0,1,6.31-3.58Z"/><path class="cls-34" d="M275.93,96.75a1.7,1.7,0,0,1-3.24-.65A1.63,1.63,0,0,1,274.6,95,1.61,1.61,0,0,1,275.93,96.75Z"/><path class="cls-34" d="M275.25,108.88a1,1,0,0,1-1.86-.37,1,1,0,0,1,1.86.37Z"/><path class="cls-35" d="M271.27,100.91a.85.85,0,0,1,1.2,0,.86.86,0,0,1,.29,1.17,1,1,0,0,1-1.49-1.17Z"/><path class="cls-34" d="M266.84,110.81a1,1,0,0,1-1.86-.39,1,1,0,0,1,1.86.39Z"/><path class="cls-35" d="M271,93.16a1,1,0,0,1-1.44,1.24A1,1,0,0,1,271,93.16Z"/><path class="cls-34" d="M261.67,102.27a1,1,0,0,1-1.44,1.23,1,1,0,0,1,1.44-1.23Z"/><circle class="cls-34" cx="268.01" cy="105.4" r="1.88"/><circle class="cls-34" cx="262.27" cy="107.86" r="1.33"/><circle class="cls-35" cx="270.23" cy="111.04" r="1.33"/><circle class="cls-35" cx="275.26" cy="104.49" r="1.33"/><path class="cls-32" d="M446.4,214.49a.48.48,0,0,0-.37.22.92.92,0,0,1-.26.22,1,1,0,0,1-.71.13,10.15,10.15,0,0,1-1.16-.46,7.14,7.14,0,0,0-.51-2.07,9.69,9.69,0,0,1,.75-1,.72.72,0,0,1,.42-.18.64.64,0,0,1,.33.08.36.36,0,0,0,.37,0c.19-.13.21-.55,0-.9s-.59-.51-.78-.38a.32.32,0,0,0-.14.28.51.51,0,0,1-.07.24.74.74,0,0,1-.37.37,8.28,8.28,0,0,1-1.15.24,7.41,7.41,0,0,0-1.71-1.82,6.29,6.29,0,0,1,.14-1,1,1,0,0,1,.37-.49.79.79,0,0,1,.45-.13.5.5,0,0,0,.46-.21c.15-.28-.12-.79-.62-1.06s-1-.2-1.19.08a.45.45,0,0,0,0,.42,1.05,1.05,0,0,1,.08.34,1,1,0,0,1-.2.69,6.64,6.64,0,0,1-.69.64,7.23,7.23,0,0,0-2.49-.71,6.84,6.84,0,0,1-.3-.84.71.71,0,0,1,.08-.44.53.53,0,0,1,.24-.23.37.37,0,0,0,.23-.3c0-.23-.34-.47-.76-.47s-.74.22-.75.45a.33.33,0,0,0,.16.26.55.55,0,0,1,.17.2.7.7,0,0,1,.11.51,6.76,6.76,0,0,1-.32.83,7.21,7.21,0,0,0-2.61.64,3.82,3.82,0,0,1-.44-.39.86.86,0,0,1-.23-.57.7.7,0,0,1,.12-.44.51.51,0,0,0,.06-.51c-.16-.27-.74-.3-1.23,0s-.71.79-.55,1.06a.47.47,0,0,0,.38.19.76.76,0,0,1,.33.11,1,1,0,0,1,.49.52,5.43,5.43,0,0,1,.12.55,7.41,7.41,0,0,0-2.12,2.09,4.39,4.39,0,0,1-.63-.11.69.69,0,0,1-.36-.28.62.62,0,0,1-.08-.33.37.37,0,0,0-.14-.34c-.2-.12-.58.07-.79.43s-.17.76,0,.88a.34.34,0,0,0,.31,0,.7.7,0,0,1,.25,0,.71.71,0,0,1,.5.16,4.92,4.92,0,0,1,.43.49,7.11,7.11,0,0,0-.74,2.83c-.27.1-.52.19-.68.23a.94.94,0,0,1-.61-.1.75.75,0,0,1-.32-.34.49.49,0,0,0-.4-.31c-.32,0-.64.47-.65,1s.31,1,.62,1a.45.45,0,0,0,.36-.22.75.75,0,0,1,.27-.23,1,1,0,0,1,.7-.15,7.68,7.68,0,0,1,.74.26,7.13,7.13,0,0,0,.72,2.47,6.2,6.2,0,0,1-.58.75.66.66,0,0,1-.41.18.54.54,0,0,1-.33-.08.36.36,0,0,0-.37,0c-.2.13-.21.55,0,.9s.58.51.78.39a.32.32,0,0,0,.14-.28.48.48,0,0,1,.07-.24.72.72,0,0,1,.38-.37,6.25,6.25,0,0,1,.93-.19,7.19,7.19,0,0,0,1.88,1.81,5.78,5.78,0,0,1-.1.67.93.93,0,0,1-.37.49.74.74,0,0,1-.44.13.51.51,0,0,0-.46.22c-.15.28.13.78.63,1.05s1,.19,1.19-.09a.45.45,0,0,0,0-.42.82.82,0,0,1-.09-.34,1,1,0,0,1,.2-.69,3.45,3.45,0,0,1,.47-.46,7.38,7.38,0,0,0,2.53.65,7.46,7.46,0,0,1,.5,1,.68.68,0,0,1,0,.45.56.56,0,0,1-.23.25.37.37,0,0,0-.2.31c0,.24.39.44.8.41s.72-.29.7-.52a.31.31,0,0,0-.18-.25.58.58,0,0,1-.18-.17.71.71,0,0,1-.15-.51,8.94,8.94,0,0,1,.29-1,7.34,7.34,0,0,0,2.43-.7,6.83,6.83,0,0,1,.66.65,1,1,0,0,1,.18.59.81.81,0,0,1-.16.43.5.5,0,0,0-.11.5c.13.29.7.37,1.22.13s.78-.72.64-1a.46.46,0,0,0-.36-.22.83.83,0,0,1-.32-.14,1,1,0,0,1-.43-.57,7.12,7.12,0,0,1-.11-1.11,7.46,7.46,0,0,0,1.49-1.53,9,9,0,0,1,1.2.08.62.62,0,0,1,.37.25.5.5,0,0,1,.12.31c0,.16.06.29.17.33s.57-.12.75-.5.1-.77-.11-.86a.3.3,0,0,0-.31,0,.67.67,0,0,1-.24.07.69.69,0,0,1-.52-.12,7.53,7.53,0,0,1-.75-.75,7.17,7.17,0,0,0,.66-2.3,8.3,8.3,0,0,1,1.13-.38.86.86,0,0,1,.6.11.73.73,0,0,1,.31.34.5.5,0,0,0,.4.32c.31,0,.65-.46.67-1S446.71,214.5,446.4,214.49Z"/><path class="cls-33" d="M432.2,215.06a6.68,6.68,0,0,1,4.79-6.79h-.34a7,7,0,0,0,0,14.07,7.26,7.26,0,0,0,1.82-.24C434.74,221.91,432.2,218.83,432.2,215.06Z"/><path class="cls-34" d="M436.27,211.62a2.18,2.18,0,0,1-3.68,2.1,2.14,2.14,0,0,1,3.68-2.1Z"/><path class="cls-34" d="M440.78,212a1,1,0,0,1-1.89-.38,1,1,0,0,1,1.89.38Z"/><path class="cls-34" d="M440.38,219.12a.51.51,0,0,1-.63.32.51.51,0,0,1-.46-.53.56.56,0,0,1,1.09.21Z"/><path class="cls-35" d="M438.05,214.47a.57.57,0,0,1,.88.68.55.55,0,0,1-.74,0A.54.54,0,0,1,438.05,214.47Z"/><path class="cls-34" d="M435.47,220.25a.57.57,0,0,1-1.09-.23.55.55,0,0,1,.64-.36A.56.56,0,0,1,435.47,220.25Z"/><path class="cls-35" d="M437.88,209.94a.51.51,0,0,1-.14.69.51.51,0,0,1-.71,0,.56.56,0,0,1,.11-.73A.55.55,0,0,1,437.88,209.94Z"/><path class="cls-34" d="M432.45,215.26a.57.57,0,0,1-.85.72.56.56,0,0,1,.11-.73A.55.55,0,0,1,432.45,215.26Z"/><circle class="cls-34" cx="436.15" cy="217.09" r="1.1"/><circle class="cls-34" cx="432.8" cy="218.53" r="0.78"/><circle class="cls-35" cx="437.45" cy="220.39" r="0.78"/><circle class="cls-35" cx="440.39" cy="216.56" r="0.78"/><path class="cls-32" d="M120.84,199.25a.91.91,0,0,0-.71.42,1.52,1.52,0,0,1-.51.43,1.94,1.94,0,0,1-1.36.25,18.26,18.26,0,0,1-2.23-.89,14.33,14.33,0,0,0-1-4,17.64,17.64,0,0,1,1.45-2,1.34,1.34,0,0,1,.8-.35,1.07,1.07,0,0,1,.63.15.71.71,0,0,0,.72.07c.38-.24.4-1.06,0-1.74s-1.14-1-1.52-.73a.67.67,0,0,0-.26.54,1.06,1.06,0,0,1-.13.47,1.37,1.37,0,0,1-.73.71,16.78,16.78,0,0,1-2.21.46,14.13,14.13,0,0,0-3.3-3.51,14.44,14.44,0,0,1,.28-1.92,1.81,1.81,0,0,1,.72-.95,1.41,1.41,0,0,1,.85-.24,1,1,0,0,0,.9-.41c.29-.54-.23-1.52-1.2-2s-2-.38-2.3.15a.9.9,0,0,0,.06.82,1.59,1.59,0,0,1,.15.65,1.86,1.86,0,0,1-.38,1.32,11.63,11.63,0,0,1-1.34,1.23,14.08,14.08,0,0,0-4.79-1.37,11.62,11.62,0,0,1-.58-1.6,1.29,1.29,0,0,1,.15-.86,1,1,0,0,1,.47-.45.69.69,0,0,0,.44-.57c0-.44-.66-.91-1.47-.92s-1.43.43-1.44.88a.66.66,0,0,0,.31.51,1.17,1.17,0,0,1,.33.37,1.45,1.45,0,0,1,.2,1,12.36,12.36,0,0,1-.61,1.6,14.14,14.14,0,0,0-5,1.23,7.45,7.45,0,0,1-.86-.74,1.79,1.79,0,0,1-.45-1.1,1.48,1.48,0,0,1,.24-.86,1,1,0,0,0,.11-1c-.31-.52-1.42-.58-2.36,0s-1.37,1.53-1.06,2a.85.85,0,0,0,.73.37,1.57,1.57,0,0,1,.63.21,1.87,1.87,0,0,1,.94,1,7.84,7.84,0,0,1,.25,1.07,14.22,14.22,0,0,0-4.11,4,8.68,8.68,0,0,1-1.21-.22,1.39,1.39,0,0,1-.68-.54,1.08,1.08,0,0,1-.16-.63.69.69,0,0,0-.28-.67c-.39-.22-1.12.14-1.52.83s-.32,1.47.06,1.69a.64.64,0,0,0,.6,0,1.15,1.15,0,0,1,.48-.1,1.34,1.34,0,0,1,1,.31,8,8,0,0,1,.82.94,14.06,14.06,0,0,0-1.43,5.45,9.09,9.09,0,0,1-1.31.44,1.75,1.75,0,0,1-1.17-.19,1.42,1.42,0,0,1-.62-.64.94.94,0,0,0-.77-.6c-.61,0-1.24.91-1.25,2s.59,2,1.2,2a.9.9,0,0,0,.7-.43,1.62,1.62,0,0,1,.5-.44,1.86,1.86,0,0,1,1.35-.28,10.44,10.44,0,0,1,1.43.5,14,14,0,0,0,1.4,4.76,12.39,12.39,0,0,1-1.12,1.45,1.26,1.26,0,0,1-.8.34,1,1,0,0,1-.63-.15.71.71,0,0,0-.72-.07c-.38.23-.41,1,0,1.73s1.13,1,1.51.74a.63.63,0,0,0,.26-.53,1.23,1.23,0,0,1,.14-.47,1.37,1.37,0,0,1,.73-.71,13.81,13.81,0,0,1,1.79-.37,14.42,14.42,0,0,0,3.64,3.5,8.46,8.46,0,0,1-.2,1.28,1.8,1.8,0,0,1-.7,1,1.59,1.59,0,0,1-.85.25.94.94,0,0,0-.89.41c-.29.54.24,1.52,1.21,2s2,.36,2.3-.17a.87.87,0,0,0-.07-.82,1.6,1.6,0,0,1-.16-.65,1.93,1.93,0,0,1,.37-1.33,10.15,10.15,0,0,1,.92-.89,13.73,13.73,0,0,0,4.87,1.25,15.12,15.12,0,0,1,1,2,1.27,1.27,0,0,1-.07.87,1,1,0,0,1-.43.49.72.72,0,0,0-.39.6c0,.45.75.85,1.55.79s1.39-.56,1.36-1a.67.67,0,0,0-.36-.48,1.16,1.16,0,0,1-.36-.34,1.42,1.42,0,0,1-.29-1,14.88,14.88,0,0,1,.58-2,14.24,14.24,0,0,0,4.68-1.37,15,15,0,0,1,1.27,1.27,1.79,1.79,0,0,1,.34,1.14,1.44,1.44,0,0,1-.31.83,1,1,0,0,0-.2,1c.26.55,1.36.72,2.35.25s1.5-1.39,1.24-1.94a.85.85,0,0,0-.69-.44,1.78,1.78,0,0,1-.62-.26,1.93,1.93,0,0,1-.84-1.1,16.12,16.12,0,0,1-.22-2.15,14.08,14.08,0,0,0,2.88-2.94,16.82,16.82,0,0,1,2.32.14,1.3,1.3,0,0,1,.72.48,1.11,1.11,0,0,1,.22.62.7.7,0,0,0,.33.63c.41.19,1.11-.23,1.45-1s.19-1.49-.22-1.68a.65.65,0,0,0-.59.08,1.11,1.11,0,0,1-.47.14,1.39,1.39,0,0,1-1-.22,14.29,14.29,0,0,1-1.45-1.46,13.8,13.8,0,0,0,1.27-4.43,14.77,14.77,0,0,1,2.18-.74,1.78,1.78,0,0,1,1.16.22,1.4,1.4,0,0,1,.6.65,1,1,0,0,0,.77.62c.6,0,1.25-.88,1.29-2S121.45,199.28,120.84,199.25Z"/><path class="cls-33" d="M93.45,200.35c0-6.28,3.46-11.56,9.25-13.1l-.66,0a13.57,13.57,0,0,0,0,27.14,14,14,0,0,0,3.51-.46C98.36,213.56,93.45,207.63,93.45,200.35Z"/><path class="cls-34" d="M101.31,193.72c.88,1.55,0,3.71-2,4.82s-4.27.77-5.15-.78a4.13,4.13,0,0,1,7.11-4Z"/><path class="cls-34" d="M110,194.52a1.92,1.92,0,0,1-3.65-.73,1.88,1.88,0,0,1,3.65.73Z"/><path class="cls-34" d="M109.24,208.19a1,1,0,0,1-1.22.61,1,1,0,0,1-.88-1,1,1,0,0,1,1.23-.71A1.05,1.05,0,0,1,109.24,208.19Z"/><path class="cls-35" d="M104.74,199.2a1.1,1.1,0,0,1,1.69,1.32,1.08,1.08,0,0,1-1.69-1.32Z"/><path class="cls-34" d="M99.76,210.36a1.1,1.1,0,0,1-2.1-.44,1.08,1.08,0,0,1,2.1.44Z"/><path class="cls-35" d="M104.4,190.47a1.1,1.1,0,0,1-1.62,1.4,1,1,0,0,1,.2-1.41A1.05,1.05,0,0,1,104.4,190.47Z"/><path class="cls-34" d="M93.93,200.73a1.1,1.1,0,0,1-1.62,1.4,1.08,1.08,0,0,1,1.62-1.4Z"/><circle class="cls-34" cx="101.07" cy="204.26" r="2.12"/><circle class="cls-34" cx="94.61" cy="207.04" r="1.5"/><circle class="cls-35" cx="103.58" cy="210.62" r="1.5"/><circle class="cls-35" cx="109.25" cy="203.23" r="1.5"/><path class="cls-32" d="M177.36,71.17a2.46,2.46,0,0,0-3.42.64,2.42,2.42,0,0,0-.41,1.14l0-.18c-5.64.31-8.06-.59-9.1-1.44a18.87,18.87,0,0,0-.33-2.15c.13-.44.76-1.28,3.66-1.9l0-.11a1.56,1.56,0,0,0,.51.61,1.6,1.6,0,1,0-.34-2.24,1.48,1.48,0,0,0-.31.95c-.35.12-2.74.84-4.12.42a20.42,20.42,0,0,0-2.58-5.08c-.23-.69-.29-2.88,5.34-6.84l0,0a3.26,3.26,0,0,0,2.09.49,3.3,3.3,0,1,0-3.63-2.94,3.37,3.37,0,0,0,.42,1.3c-1.07.89-5.21,4.17-8,4A20,20,0,0,0,147,53.4c-.64-.5-1.53-2-1.43-6.29h-.19a2.68,2.68,0,0,0,1.15-.56,2.58,2.58,0,1,0-3.63-.3,2.54,2.54,0,0,0,1.38.84c0,.55.26,4.07-.66,6.17a20,20,0,0,0-10.46,3.4,10.51,10.51,0,0,1-1.68-2.43l-.12.05a1.77,1.77,0,0,0,.49-.7,1.73,1.73,0,1,0-1.13,1.06,12.92,12.92,0,0,1,1.41,2.76A20.17,20.17,0,0,0,128,61.54c-.81,0-2.54-.63-5.74-3.49a3,3,0,0,0,.1-.78A2.44,2.44,0,1,0,120,59.7a2.86,2.86,0,0,0,1.59-.5c.8.61,4.13,3.26,4.65,5.43a19.94,19.94,0,0,0-2,8.27c-.41.41-1.73,1.22-5.53.85a1.67,1.67,0,0,0-.41-.65,1.91,1.91,0,1,0-.06,2.71,2,2,0,0,0,.56-1c.94,0,4.61-.1,5.61,1.28A20.13,20.13,0,0,0,132.9,90c.09.92-.05,3.69-3.88,7.31l.11.12a2.34,2.34,0,0,0-1.08-.31,2.31,2.31,0,1,0,1.8,1c.44-.52,4.52-5.35,6.84-6a20.07,20.07,0,0,0,7.65,1.51,20.33,20.33,0,0,0,4.52-.51c.91.16,2.57,1,3.58,4.45a2,2,0,0,0-.4.68A1.91,1.91,0,1,0,154.48,97a2,2,0,0,0-1.15,0c-.38-.82-1.73-4-.47-5.28a20.39,20.39,0,0,0,5.62-3.91c1.23.07,3.17,1,6.12,4l.13-.09a2.28,2.28,0,1,0,2.16-.88,2.24,2.24,0,0,0-1.41.25c-.45-.36-3.69-3.09-4.82-5.86a19.74,19.74,0,0,0,1.94-3.29A26.13,26.13,0,0,1,165.53,83l.08-.14a2.32,2.32,0,1,0,.44-.87,25,25,0,0,1-3-1.12,20.49,20.49,0,0,0,1.34-5.55c2.31-2,8.5-1.41,9.24-1.32a2.46,2.46,0,0,0,4.35.6A2.47,2.47,0,0,0,177.36,71.17Z"/><path class="cls-33" d="M132.19,72.77c0-9,4.92-16.51,13.2-18.72l-.94,0a19.37,19.37,0,1,0,0,38.74,19.15,19.15,0,0,0,5-.66C139.19,91.62,132.19,83.15,132.19,72.77Z"/><path class="cls-34" d="M145.88,63.12c1.25,2.21,0,5.29-2.81,6.88s-6.09,1.1-7.34-1.11-.25-5.73,2.55-7.32S144.62,60.91,145.88,63.12Z"/><path class="cls-34" d="M158.29,64.25a2.73,2.73,0,0,1-5.21-1,2.68,2.68,0,0,1,5.21,1Z"/><path class="cls-34" d="M157.19,83.77a1.57,1.57,0,0,1-3-.6,1.54,1.54,0,0,1,3,.6Z"/><path class="cls-35" d="M150.78,70.94a1.57,1.57,0,0,1,2.4,1.89,1.54,1.54,0,0,1-2.4-1.89Z"/><path class="cls-34" d="M143.66,86.88a1.57,1.57,0,0,1-3-.63,1.48,1.48,0,0,1,1.77-1A1.5,1.5,0,0,1,143.66,86.88Z"/><path class="cls-35" d="M150.29,58.48a1.57,1.57,0,0,1-2.32,2,1.54,1.54,0,0,1,2.32-2Z"/><path class="cls-34" d="M135.34,73.12a1.58,1.58,0,0,1-2.32,2,1.55,1.55,0,0,1,2.32-2Z"/><circle class="cls-34" cx="145.54" cy="78.17" r="3.02"/><circle class="cls-34" cx="136.31" cy="82.13" r="2.14"/><circle class="cls-35" cx="149.12" cy="87.25" r="2.14"/><circle class="cls-35" cx="157.21" cy="76.7" r="2.14"/><path class="cls-32" d="M368.38,194.45a1.42,1.42,0,0,0-2,.37,1.47,1.47,0,0,0-.24.66l0-.1c-3.25.17-4.65-.35-5.25-.84a10.31,10.31,0,0,0-.19-1.24c.07-.25.44-.74,2.11-1.09v-.07a1,1,0,0,0,.29.36.93.93,0,1,0,1.1-1.5.93.93,0,0,0-1.29.2.88.88,0,0,0-.18.55,5.08,5.08,0,0,1-2.38.24,11.73,11.73,0,0,0-1.49-2.93c-.13-.4-.16-1.66,3.09-3.94l0,0a1.94,1.94,0,0,0,1.21.29,1.91,1.91,0,1,0-2.09-1.7,1.94,1.94,0,0,0,.24.75c-.62.51-3,2.41-4.6,2.29a11.54,11.54,0,0,0-5.85-2.52c-.36-.29-.87-1.14-.82-3.63h-.11a1.41,1.41,0,0,0,.66-.32,1.5,1.5,0,1,0-1.29.31,9.17,9.17,0,0,1-.38,3.56,11.53,11.53,0,0,0-6,2,6,6,0,0,1-1-1.4l-.06,0a.86.86,0,0,0,.27-.4,1,1,0,1,0-1.27.59,1.1,1.1,0,0,0,.62,0,7.08,7.08,0,0,1,.82,1.59,11.78,11.78,0,0,0-2.34,2.39c-.47,0-1.46-.36-3.31-2a1.53,1.53,0,0,0,.06-.45,1.41,1.41,0,1,0-1.41,1.4,1.59,1.59,0,0,0,.91-.29c.47.36,2.39,1.88,2.68,3.13a11.59,11.59,0,0,0-1.14,4.78c-.24.23-1,.7-3.19.49a1,1,0,0,0-.24-.38,1.1,1.1,0,0,0-1.56,0,1.11,1.11,0,1,0,1.53,1.6,1.16,1.16,0,0,0,.32-.58c.54,0,2.66-.06,3.23.73a11.64,11.64,0,0,0,4.93,8c.05.53,0,2.13-2.24,4.22l.06.07a1.31,1.31,0,1,0,.66,1.17A1.42,1.42,0,0,0,341,210c.25-.3,2.61-3.08,3.94-3.48a11.79,11.79,0,0,0,7,.57c.53.09,1.49.55,2.07,2.57a1.11,1.11,0,0,0,.45,1.79,1.11,1.11,0,1,0,.72-2.09,1.24,1.24,0,0,0-.66,0c-.22-.47-1-2.3-.27-3a11.65,11.65,0,0,0,3.24-2.26c.71,0,1.83.56,3.53,2.34l.08-.06a1.24,1.24,0,0,0-.25.6,1.31,1.31,0,1,0,1.49-1.1,1.25,1.25,0,0,0-.81.14,10.53,10.53,0,0,1-2.78-3.38,11.29,11.29,0,0,0,1.12-1.9,13.47,13.47,0,0,1,1.69.62l.05-.08a1.2,1.2,0,0,0,0,.65,1.31,1.31,0,1,0,.94-1.6,1.25,1.25,0,0,0-.69.45,15.57,15.57,0,0,1-1.72-.65,11.79,11.79,0,0,0,.77-3.2c1.34-1.17,4.9-.81,5.33-.77a1.47,1.47,0,0,0,.54.72,1.42,1.42,0,1,0,1.6-2.34Z"/><path class="cls-33" d="M342.32,195.37c0-5.17,2.85-9.52,7.62-10.8h-.54a11.18,11.18,0,0,0,0,22.35,10.94,10.94,0,0,0,2.88-.38C346.36,206.25,342.32,201.36,342.32,195.37Z"/><path class="cls-34" d="M350.22,189.81c.73,1.27,0,3.05-1.61,4s-3.52.63-4.24-.65a3.39,3.39,0,0,1,5.85-3.32Z"/><path class="cls-34" d="M357.38,190.46a1.57,1.57,0,0,1-3-.6,1.54,1.54,0,0,1,3,.6Z"/><path class="cls-34" d="M356.75,201.72a.91.91,0,0,1-1.73-.35.89.89,0,0,1,1.73.35Z"/><path class="cls-35" d="M353.05,194.32a.91.91,0,0,1,1.39,1.09.87.87,0,0,1-1.17.06A.85.85,0,0,1,353.05,194.32Z"/><path class="cls-34" d="M348.94,203.51a.9.9,0,0,1-1.72-.36.89.89,0,0,1,1.72.36Z"/><path class="cls-35" d="M352.77,187.13a.91.91,0,0,1-1.34,1.15.89.89,0,0,1,1.34-1.15Z"/><path class="cls-34" d="M344.14,195.58a.9.9,0,0,1-1.33,1.15.89.89,0,0,1,1.33-1.15Z"/><circle class="cls-34" cx="350.03" cy="198.49" r="1.74"/><circle class="cls-34" cx="344.71" cy="200.77" r="1.23"/><circle class="cls-35" cx="352.09" cy="203.72" r="1.23"/><circle class="cls-35" cx="356.76" cy="197.64" r="1.23"/><path class="cls-32" d="M405.51,108.81a.93.93,0,0,0,.15-1.3.89.89,0,0,0-.37-.27h.07c.51-2.06,1.09-2.83,1.51-3.11a7.72,7.72,0,0,0,.82.12c.14.09.37.41.27,1.52H408a.57.57,0,0,0-.28.11.6.6,0,0,0,.72,1,.62.62,0,0,0,.13-.85.64.64,0,0,0-.31-.21,3.26,3.26,0,0,1,.3-1.53,7.41,7.41,0,0,0,2.1-.37c.28,0,1.07.22,1.88,2.67h0a1.18,1.18,0,0,0-.4.7,1.24,1.24,0,1,0,2.43.47,1.22,1.22,0,0,0-1-1.45,1.25,1.25,0,0,0-.51,0c-.2-.48-.93-2.33-.55-3.3a7.54,7.54,0,0,0,2.68-3.16c.25-.17.87-.33,2.41.18l0-.07a.86.86,0,0,0,.08.47,1,1,0,0,0,1.27.51,1,1,0,0,0,.5-1.28,1,1,0,0,0-1.27-.5,1,1,0,0,0-.45.41,6.11,6.11,0,0,1-2.15-.91,7.64,7.64,0,0,0-.07-4.14,4.2,4.2,0,0,1,1.05-.33v0a.67.67,0,0,0,.2.25.64.64,0,0,0,.9-.13.63.63,0,0,0-.13-.9.64.64,0,0,0-.9.12.63.63,0,0,0-.13.39,4.84,4.84,0,0,1-1.15.2,7.42,7.42,0,0,0-1.05-1.91c.11-.28.51-.84,1.89-1.68a.85.85,0,0,0,.27.12.91.91,0,0,0,1.14-.6.92.92,0,1,0-1.75-.54,1,1,0,0,0,0,.62,5.21,5.21,0,0,1-2.46,1.08,7.59,7.59,0,0,0-2.75-1.62c-.11-.2-.26-.76.29-2.08a.69.69,0,0,0,.28-.08.72.72,0,1,0-1-.32.72.72,0,0,0,.3.32c-.09.34-.47,1.66-1.07,1.87a7.63,7.63,0,0,0-5.94,1.54c-.34-.07-1.32-.42-2.2-2.19l-.05,0a.86.86,0,1,0-.86.19.83.83,0,0,0,.54,0c.14.21,1.42,2.21,1.42,3.12a7.54,7.54,0,0,0-1.38,2.58,7.74,7.74,0,0,0-.31,1.68c-.16.31-.62.82-2,.8a.83.83,0,0,0-.2-.22.72.72,0,1,0,.16,1,.69.69,0,0,0,.13-.41c.34,0,1.63-.18,2,.41a7.72,7.72,0,0,0,.78,2.45c-.16.43-.69,1-2.12,1.75l0,.06a.89.89,0,0,0-.33-.27.86.86,0,1,0,.41,1.14.82.82,0,0,0,.06-.53,6.92,6.92,0,0,1,2.64-1.09,7.41,7.41,0,0,0,1,1.06,11.28,11.28,0,0,1-.7.93l0,0a.9.9,0,0,0-.4-.13.86.86,0,1,0-.08,1.71.86.86,0,0,0,.75-1.33,8,8,0,0,1,.73-1,7.51,7.51,0,0,0,1.84,1.09c.48,1-.42,3.21-.53,3.47a.87.87,0,0,0-.55.2.92.92,0,1,0,1.15,1.44Z"/><path class="cls-33" d="M409.89,92.4c3.22,1,5.39,3.58,5.28,6.8,0-.11.07-.22.11-.34a7.28,7.28,0,0,0-13.92-4.24,7.64,7.64,0,0,0-.32,1.87C402.34,92.85,406.16,91.26,409.89,92.4Z"/><path class="cls-34" d="M411.85,98.38a2.26,2.26,0,0,1-1-4.28,2.21,2.21,0,0,1,1,4.28Z"/><path class="cls-34" d="M410.09,102.71a.89.89,0,0,1-.22-1.25A.9.9,0,0,1,411,101a1,1,0,0,1-.94,1.75Z"/><path class="cls-34" d="M403.19,100.18a.59.59,0,0,1,.55-1,.56.56,0,0,1,.17.74A.57.57,0,0,1,403.19,100.18Z"/><path class="cls-35" d="M408.51,99.28a.6.6,0,0,1-.95.66.57.57,0,0,1,.19-.74A.57.57,0,0,1,408.51,99.28Z"/><path class="cls-34" d="M403.56,95a.53.53,0,0,1-.12-.72.52.52,0,0,1,.67-.29.58.58,0,0,1-.55,1Z"/><path class="cls-35" d="M413,100.47a.59.59,0,0,1-.47-1,.56.56,0,0,1,.69.32A.56.56,0,0,1,413,100.47Z"/><path class="cls-34" d="M409.41,93.5a.52.52,0,0,1-.64-.35.51.51,0,0,1,.18-.7.55.55,0,0,1,.69.32A.56.56,0,0,1,409.41,93.5Z"/><circle class="cls-34" cx="406.48" cy="96.61" r="1.14"/><circle class="cls-34" cx="406.07" cy="92.86" r="0.8"/><circle class="cls-35" cx="402.83" cy="96.9" r="0.8"/><circle class="cls-35" cx="405.73" cy="100.96" r="0.8"/><path class="cls-36" d="M189.59,156a.7.7,0,0,0-.67,0,1.1,1.1,0,0,1-.54.06,1.56,1.56,0,0,1-1-.45,15.14,15.14,0,0,1-1.11-1.62,11.35,11.35,0,0,0,1.15-3.16,14.2,14.2,0,0,1,1.89-.68,1.08,1.08,0,0,1,.7.13.81.81,0,0,1,.36.39.61.61,0,0,0,.46.37c.37,0,.75-.53.77-1.19s-.33-1.18-.69-1.19a.52.52,0,0,0-.43.25,1.06,1.06,0,0,1-.3.26,1.22,1.22,0,0,1-.82.15,14.24,14.24,0,0,1-1.71-.71,11.65,11.65,0,0,0-.64-3.88,11.54,11.54,0,0,1,1.07-1.18,1.47,1.47,0,0,1,.92-.32,1.24,1.24,0,0,1,.69.23.77.77,0,0,0,.79.13c.44-.23.54-1.13.12-1.93s-1.19-1.18-1.63-.94a.67.67,0,0,0-.33.57,1.36,1.36,0,0,1-.19.52,1.59,1.59,0,0,1-.87.72,10.41,10.41,0,0,1-1.47.23,11.33,11.33,0,0,0-2.63-3.12,9.08,9.08,0,0,1,.35-1.36,1.09,1.09,0,0,1,.48-.51.88.88,0,0,1,.53-.09.59.59,0,0,0,.56-.18c.21-.3,0-.92-.58-1.3s-1.17-.36-1.38-.06a.55.55,0,0,0,0,.49.86.86,0,0,1,.05.39,1.12,1.12,0,0,1-.31.77,9.64,9.64,0,0,1-1.14.81,11.48,11.48,0,0,0-4-1.46,7.23,7.23,0,0,1-.25-.9,1.48,1.48,0,0,1,.2-.95,1.28,1.28,0,0,1,.55-.48.78.78,0,0,0,.53-.61c0-.49-.7-1-1.59-1.1s-1.63.41-1.66.91a.7.7,0,0,0,.33.58,1.65,1.65,0,0,1,.51,1.55,8.3,8.3,0,0,1-.32.84,11.68,11.68,0,0,0-4.63.86,8.27,8.27,0,0,1-.72-.7,1.07,1.07,0,0,1-.21-.68.85.85,0,0,1,.18-.5.59.59,0,0,0,.11-.58c-.16-.33-.82-.42-1.41-.13s-.89.85-.73,1.18a.52.52,0,0,0,.42.25,1,1,0,0,1,.37.15,1.14,1.14,0,0,1,.51.65,6.61,6.61,0,0,1,.13,1,11.39,11.39,0,0,0-3.46,3,9.65,9.65,0,0,1-1.09-.3,1.45,1.45,0,0,1-.71-.67,1.15,1.15,0,0,1-.12-.71.83.83,0,0,0-.25-.77c-.41-.28-1.26.06-1.77.8s-.49,1.6-.08,1.88a.74.74,0,0,0,.67,0,1.11,1.11,0,0,1,.54-.07,1.59,1.59,0,0,1,1,.42,10.11,10.11,0,0,1,.74,1,11.48,11.48,0,0,0-1.22,3.87,11.32,11.32,0,0,1-1.42.48,1.06,1.06,0,0,1-.7-.13.88.88,0,0,1-.36-.4.56.56,0,0,0-.46-.37c-.36,0-.75.52-.78,1.18s.33,1.18.69,1.2a.53.53,0,0,0,.42-.25,1.26,1.26,0,0,1,.31-.26,1.16,1.16,0,0,1,.82-.14,10.83,10.83,0,0,1,1.39.57,11.42,11.42,0,0,0,.87,4,6.55,6.55,0,0,1-.72.78,1.45,1.45,0,0,1-.92.33,1.18,1.18,0,0,1-.69-.22.79.79,0,0,0-.79-.13c-.44.24-.53,1.15-.1,1.94s1.2,1.16,1.63.93a.74.74,0,0,0,.33-.59,1.37,1.37,0,0,1,.19-.51,1.6,1.6,0,0,1,.86-.74,8.56,8.56,0,0,1,1-.18,11.73,11.73,0,0,0,2.74,3.07,12.48,12.48,0,0,1-.26,1.81,1,1,0,0,1-.44.56.83.83,0,0,1-.51.13.58.58,0,0,0-.54.23c-.18.32.12.92.69,1.24s1.2.26,1.38-.06a.54.54,0,0,0,0-.49.88.88,0,0,1-.08-.39,1.13,1.13,0,0,1,.24-.79,12.35,12.35,0,0,1,1.31-1.1,11.71,11.71,0,0,0,3.8,1.21,9.57,9.57,0,0,1,.28,1.44,1.49,1.49,0,0,1-.28.93,1.24,1.24,0,0,1-.59.42.8.8,0,0,0-.58.56c-.08.49.6,1.11,1.48,1.24s1.65-.26,1.73-.75a.71.71,0,0,0-.27-.61,1.41,1.41,0,0,1-.3-.46,1.59,1.59,0,0,1-.07-1.13,12.72,12.72,0,0,1,.84-1.56,11.62,11.62,0,0,0,3.29-.68,12.69,12.69,0,0,1,1.51,1.15,1.12,1.12,0,0,1,.27.66.83.83,0,0,1-.13.51.56.56,0,0,0-.06.59c.18.31.85.34,1.41,0s.81-.92.62-1.23a.51.51,0,0,0-.43-.22.89.89,0,0,1-.39-.12,1.16,1.16,0,0,1-.57-.6,12.56,12.56,0,0,1-.31-1.65,11.46,11.46,0,0,0,2.88-2.43,12.2,12.2,0,0,1,1.81.49,1.45,1.45,0,0,1,.7.68,1.18,1.18,0,0,1,.1.72.81.81,0,0,0,.24.77c.4.29,1.26,0,1.78-.75S190,156.24,189.59,156Z"/><path class="cls-37" d="M168.29,156.77A2.2,2.2,0,0,0,168,154a5.28,5.28,0,0,1-1.23-4.27c.2-1.19,2.6-.84,2.43-4.13s1.46-2.46,2.3-2.68.89-.16,1.76-2a2,2,0,0,1,2.27-1.09,2.45,2.45,0,0,1,1,.42c2.84,1.94,5.21-.5,5.58-1,0,0-8.71-5.76-15.46,3.11C166.71,142.3,161.28,149.24,168.29,156.77Z"/><ellipse class="cls-38" cx="182.51" cy="152.13" rx="2.74" ry="2.22" transform="translate(8.1 313.49) rotate(-82.59)"/><ellipse class="cls-38" cx="179.05" cy="155.13" rx="1.64" ry="1.32" transform="matrix(0.07, -1, 1, 0.07, 12.05, 323.15)"/><ellipse class="cls-38" cx="169.33" cy="151.73" rx="1.32" ry="1.64" transform="translate(-5.2 6.01) rotate(-2)"/><ellipse class="cls-38" cx="171.19" cy="148.95" rx="0.61" ry="0.75" transform="translate(-5.1 6.07) rotate(-2)"/><path class="cls-36" d="M81.63,245a.85.85,0,0,0-1.17.22.86.86,0,0,0-.15.39v-.06c-1.93.11-2.76-.2-3.12-.49,0-.25-.07-.5-.12-.74s.27-.44,1.26-.65v0a.48.48,0,0,0,.17.21.55.55,0,1,0-.12-.77.57.57,0,0,0-.11.33,3.08,3.08,0,0,1-1.41.14,6.78,6.78,0,0,0-.88-1.74c-.08-.24-.1-1,1.83-2.35h0a1.14,1.14,0,1,0-.52-.85,1,1,0,0,0,.14.45c-.37.31-1.79,1.43-2.74,1.36a6.93,6.93,0,0,0-3.48-1.5c-.21-.17-.52-.67-.49-2.16h-.06a.84.84,0,0,0,.39-.19.89.89,0,0,0,.1-1.25.87.87,0,0,0-1.24-.1.89.89,0,0,0-.1,1.25.82.82,0,0,0,.47.28,5.58,5.58,0,0,1-.22,2.12,6.88,6.88,0,0,0-3.6,1.17,3.93,3.93,0,0,1-.57-.84l0,0A.51.51,0,0,0,66,239a.58.58,0,0,0-.35-.76.6.6,0,0,0-.76.36.59.59,0,0,0,.36.75.52.52,0,0,0,.37,0,5.55,5.55,0,0,1,.48.95,7,7,0,0,0-1.39,1.43c-.28,0-.87-.22-2-1.2a1.93,1.93,0,0,0,0-.27.85.85,0,0,0-.84-.84.84.84,0,0,0-.84.83.85.85,0,0,0,.83.85,1,1,0,0,0,.55-.18c.28.21,1.42,1.12,1.6,1.87a6.91,6.91,0,0,0-.69,2.84c-.14.14-.59.42-1.89.29a.79.79,0,0,0-.14-.23.66.66,0,0,0-.93,0,.65.65,0,0,0,0,.93.66.66,0,0,0,.93,0,.56.56,0,0,0,.19-.35c.33,0,1.59,0,1.93.44a6.92,6.92,0,0,0,2.93,4.78c0,.31,0,1.27-1.33,2.51l0,0a.94.94,0,0,0-.38-.11.79.79,0,0,0,0,1.57.8.8,0,0,0,.81-.76.75.75,0,0,0-.15-.47,8.6,8.6,0,0,1,2.35-2.08,6.78,6.78,0,0,0,2.63.52,7.22,7.22,0,0,0,1.55-.17c.31,0,.88.32,1.23,1.52a.72.72,0,0,0-.14.24.66.66,0,0,0,1.24.43.66.66,0,0,0-.4-.84.61.61,0,0,0-.4,0c-.13-.29-.59-1.38-.16-1.82a6.82,6.82,0,0,0,1.93-1.34c.42,0,1.09.33,2.1,1.39l0,0a.73.73,0,0,0-.15.35.78.78,0,1,0,.89-.65.8.8,0,0,0-.49.08,6.33,6.33,0,0,1-1.65-2,6.68,6.68,0,0,0,.66-1.13c.29.09.63.21,1,.37l0,0a.74.74,0,0,0,0,.39.77.77,0,1,0,.15-.69,9.19,9.19,0,0,1-1-.38,6.76,6.76,0,0,0,.46-1.91c.8-.69,2.92-.48,3.18-.45a.74.74,0,0,0,.32.42.84.84,0,0,0,1.17-.21A.86.86,0,0,0,81.63,245Z"/><path class="cls-38" d="M66.12,245.56a6.31,6.31,0,0,1,4.54-6.42h-.33a6.65,6.65,0,0,0,0,13.3,6.49,6.49,0,0,0,1.72-.23A6.32,6.32,0,0,1,66.12,245.56Z"/><path class="cls-37" d="M70.82,242.25a2.06,2.06,0,0,1-3.48,2,2,2,0,0,1,3.48-2Z"/><path class="cls-37" d="M75.08,242.64a.93.93,0,0,1-1.78-.36.92.92,0,0,1,1.78.36Z"/><path class="cls-37" d="M74.71,249.34a.48.48,0,0,1-.6.3c-.28-.06-.48-.28-.43-.51a.53.53,0,0,1,1,.21Z"/><path class="cls-37" d="M72.51,244.93a.47.47,0,0,1,.66,0,.48.48,0,0,1,.16.65.5.5,0,0,1-.69,0A.52.52,0,0,1,72.51,244.93Z"/><path class="cls-37" d="M70.06,250.4a.53.53,0,0,1-1-.21.53.53,0,0,1,1,.21Z"/><path class="cls-37" d="M72.34,240.66a.47.47,0,0,1-.13.65.48.48,0,0,1-.67,0,.53.53,0,0,1,.8-.68Z"/><path class="cls-37" d="M67.21,245.68a.54.54,0,0,1-.8.69.51.51,0,0,1,.1-.69A.52.52,0,0,1,67.21,245.68Z"/><circle class="cls-37" cx="70.71" cy="247.42" r="1.04"/><circle class="cls-37" cx="67.54" cy="248.77" r="0.73"/><circle class="cls-37" cx="71.94" cy="250.53" r="0.73"/><circle class="cls-37" cx="74.71" cy="246.91" r="0.73"/><path class="cls-36" d="M379,61.21a1.23,1.23,0,0,0-1,.59,2.23,2.23,0,0,1-.74.62,2.7,2.7,0,0,1-1.95.35A24.08,24.08,0,0,1,372,61.5a19.84,19.84,0,0,0-1.42-5.72,25.76,25.76,0,0,1,2.09-2.85,1.83,1.83,0,0,1,1.15-.5,1.52,1.52,0,0,1,.9.21,1,1,0,0,0,1,.1c.54-.35.57-1.52,0-2.49s-1.65-1.4-2.19-1.06a1,1,0,0,0-.37.78,1.77,1.77,0,0,1-.19.68,2.07,2.07,0,0,1-1,1,24.18,24.18,0,0,1-3.19.65,20.21,20.21,0,0,0-4.73-5,20.35,20.35,0,0,1,.4-2.77,2.58,2.58,0,0,1,1-1.36,2,2,0,0,1,1.22-.35,1.38,1.38,0,0,0,1.29-.58c.42-.77-.33-2.18-1.72-2.93s-2.88-.56-3.3.21a1.26,1.26,0,0,0,.08,1.17,2.37,2.37,0,0,1,.23.94,2.83,2.83,0,0,1-.55,1.91,20.83,20.83,0,0,1-1.93,1.76,20.17,20.17,0,0,0-6.88-2,17.21,17.21,0,0,1-.83-2.3,1.89,1.89,0,0,1,.21-1.24,1.54,1.54,0,0,1,.67-.64,1,1,0,0,0,.64-.82c0-.64-.95-1.3-2.11-1.32s-2.06.62-2.07,1.26a.92.92,0,0,0,.45.73,1.72,1.72,0,0,1,.46.54,1.94,1.94,0,0,1,.29,1.42,17.47,17.47,0,0,1-.86,2.3A20.17,20.17,0,0,0,343.53,45,13.22,13.22,0,0,1,342.3,44a2.58,2.58,0,0,1-.64-1.58,2.06,2.06,0,0,1,.33-1.23,1.4,1.4,0,0,0,.17-1.41c-.45-.75-2-.84-3.4,0s-2,2.19-1.52,2.94a1.26,1.26,0,0,0,1.05.53,2.37,2.37,0,0,1,.92.3,2.7,2.7,0,0,1,1.34,1.45,12.18,12.18,0,0,1,.35,1.54A20.19,20.19,0,0,0,335,52.24a12,12,0,0,1-1.74-.32,1.9,1.9,0,0,1-1-.78,1.48,1.48,0,0,1-.23-.9,1,1,0,0,0-.4-1c-.56-.32-1.61.2-2.18,1.2s-.47,2.1.09,2.42a.91.91,0,0,0,.86,0,1.62,1.62,0,0,1,.69-.15,2,2,0,0,1,1.38.44,13.57,13.57,0,0,1,1.19,1.36,20.06,20.06,0,0,0-2.06,7.84,17.12,17.12,0,0,1-1.88.63,2.62,2.62,0,0,1-1.69-.28,2.06,2.06,0,0,1-.88-.92,1.36,1.36,0,0,0-1.11-.86c-.88,0-1.78,1.3-1.8,2.88s.86,2.81,1.73,2.82a1.27,1.27,0,0,0,1-.62,2.29,2.29,0,0,1,.72-.63,2.75,2.75,0,0,1,1.95-.4,16.48,16.48,0,0,1,2.05.71,20.21,20.21,0,0,0,2,6.84,19.48,19.48,0,0,1-1.6,2.09,1.89,1.89,0,0,1-1.15.49,1.55,1.55,0,0,1-.91-.23,1,1,0,0,0-1-.1c-.54.34-.58,1.51,0,2.49s1.63,1.41,2.18,1.07a.92.92,0,0,0,.38-.77,1.62,1.62,0,0,1,.2-.68,2,2,0,0,1,1-1,18.57,18.57,0,0,1,2.58-.53,20.3,20.3,0,0,0,5.22,5,14.72,14.72,0,0,1-.28,1.83,2.59,2.59,0,0,1-1,1.37,2.14,2.14,0,0,1-1.23.37,1.37,1.37,0,0,0-1.28.59c-.41.78.36,2.18,1.75,2.92s2.89.52,3.3-.25a1.27,1.27,0,0,0-.1-1.17,2.32,2.32,0,0,1-.23-.94,2.75,2.75,0,0,1,.53-1.91,13.94,13.94,0,0,1,1.32-1.27,20.18,20.18,0,0,0,7,1.79,23.26,23.26,0,0,1,1.39,2.88,1.88,1.88,0,0,1-.1,1.25,1.43,1.43,0,0,1-.61.7,1,1,0,0,0-.57.87c.05.64,1.07,1.22,2.22,1.13s2-.8,1.95-1.44a.91.91,0,0,0-.51-.69,1.83,1.83,0,0,1-.51-.49,2,2,0,0,1-.41-1.39,20.89,20.89,0,0,1,.82-2.89,20.08,20.08,0,0,0,6.72-2,18.47,18.47,0,0,1,1.83,1.81,2.68,2.68,0,0,1,.49,1.64,2.08,2.08,0,0,1-.45,1.19,1.4,1.4,0,0,0-.29,1.39c.37.79,1.95,1,3.38.35s2.15-2,1.78-2.79a1.22,1.22,0,0,0-1-.62,2.43,2.43,0,0,1-.89-.38,2.78,2.78,0,0,1-1.21-1.57,23.11,23.11,0,0,1-.31-3.09,20.2,20.2,0,0,0,4.13-4.23,24.63,24.63,0,0,1,3.33.2,1.87,1.87,0,0,1,1,.69,1.57,1.57,0,0,1,.31.88,1,1,0,0,0,.49.92c.58.27,1.58-.34,2.06-1.38s.28-2.14-.3-2.41a.92.92,0,0,0-.85.11,1.8,1.8,0,0,1-.68.21,2.08,2.08,0,0,1-1.42-.32,21.81,21.81,0,0,1-2.08-2.1A20.09,20.09,0,0,0,372,65.82a23.05,23.05,0,0,1,3.12-1.06,2.66,2.66,0,0,1,1.68.31,2.18,2.18,0,0,1,.86.94,1.38,1.38,0,0,0,1.09.9c.88,0,1.81-1.27,1.86-2.85S379.83,61.24,379,61.21Z"/><path class="cls-37" d="M367.8,74.05s-2.28-1.35-4.67,1.25a9.07,9.07,0,0,1-6.86,3.32c-2.08,0-2.18-4.16-7.69-2.91s-4.57-1.77-5.2-3.12-.52-1.45-3.84-2.39A3.38,3.38,0,0,1,337,66.68a4.29,4.29,0,0,1,.42-1.86c2.45-5.36-2.35-8.67-3.39-9.14,0,0-7.2,16.39,9.74,25.23C343.8,80.91,357.1,88.08,367.8,74.05Z"/><path class="cls-39" d="M349.7,48.33c1,1.81,0,4.34-2.3,5.64s-5,.9-6-.91-.2-4.7,2.1-6S348.67,46.52,349.7,48.33Z"/><path class="cls-39" d="M359.87,49.26a2.24,2.24,0,0,1-4.27-.86,2.2,2.2,0,0,1,4.27.86Z"/><path class="cls-39" d="M359,65.26a1.29,1.29,0,0,1-2.46-.49,1.23,1.23,0,0,1,1.45-.83A1.21,1.21,0,0,1,359,65.26Z"/><path class="cls-39" d="M347.88,67.81a1.3,1.3,0,0,1-2.46-.52,1.27,1.27,0,0,1,2.46.52Z"/><path class="cls-39" d="M341.05,56.53a1.28,1.28,0,0,1-1.89,1.63,1.26,1.26,0,0,1,1.89-1.63Z"/><circle class="cls-39" cx="349.41" cy="60.67" r="2.48"/><circle class="cls-39" cx="341.85" cy="63.91" r="1.75"/><path class="cls-37" d="M365.38,60.33A1,1,0,0,1,367,61.57a1,1,0,0,1-1.58-1.24Z"/><path class="cls-37" d="M365.06,52.15a1,1,0,0,1-1.52,1.31,1,1,0,0,1,1.52-1.31Z"/><circle class="cls-37" cx="364.29" cy="71.03" r="1.4"/><circle class="cls-37" cx="369.6" cy="64.11" r="1.4"/><path class="cls-36" d="M85,105.24a1,1,0,0,0-1.32.24,1.06,1.06,0,0,0-.16.45v-.07c-2.17.12-3.11-.23-3.51-.56a7.55,7.55,0,0,0-.13-.83c0-.17.3-.49,1.42-.73v0a.6.6,0,0,0,.19.23.61.61,0,0,0,.87-.13.62.62,0,0,0-1-.73.63.63,0,0,0-.12.37,3.48,3.48,0,0,1-1.59.16,7.53,7.53,0,0,0-1-2c-.09-.27-.11-1.11,2.06-2.63v0a1.24,1.24,0,0,0,.81.19A1.27,1.27,0,1,0,80.13,98a1.39,1.39,0,0,0,.16.51c-.41.34-2,1.6-3.07,1.53a7.72,7.72,0,0,0-3.91-1.69c-.24-.19-.58-.76-.55-2.42h-.07a1,1,0,0,0,.44-.21,1,1,0,1,0-1.4-.11,1.12,1.12,0,0,0,.54.32A6.06,6.06,0,0,1,72,98.33a7.75,7.75,0,0,0-4,1.31,4.05,4.05,0,0,1-.65-.93l0,0a.67.67,0,1,0-.66.12.72.72,0,0,0,.41,0,5.15,5.15,0,0,1,.55,1.06,7.68,7.68,0,0,0-1.57,1.6c-.31,0-1-.24-2.21-1.34a1,1,0,0,0,0-.31.94.94,0,0,0-.93-.94.94.94,0,1,0,0,1.88,1.08,1.08,0,0,0,.61-.19c.31.23,1.59,1.25,1.79,2.09a7.76,7.76,0,0,0-.77,3.19c-.15.15-.66.47-2.12.32a1,1,0,0,0-.16-.25.75.75,0,0,0-1,0,.74.74,0,0,0,0,1,.74.74,0,0,0,1.26-.37c.36,0,1.78,0,2.16.5a7.79,7.79,0,0,0,3.29,5.36c0,.35,0,1.42-1.5,2.82l0,0a1,1,0,0,0-.42-.12.88.88,0,1,0,.85.9.8.8,0,0,0-.16-.52c.17-.2,1.75-2.06,2.64-2.33a7.8,7.8,0,0,0,3,.58,7.67,7.67,0,0,0,1.74-.2c.35.06,1,.37,1.38,1.72a.76.76,0,0,0-.16.26.74.74,0,0,0,.46.94.74.74,0,1,0,0-1.41c-.15-.32-.67-1.54-.18-2a7.41,7.41,0,0,0,2.16-1.5c.48,0,1.22.37,2.36,1.56l0,0a1,1,0,0,0-.17.4.88.88,0,1,0,1-.74.84.84,0,0,0-.54.1,7,7,0,0,1-1.85-2.26,8.42,8.42,0,0,0,.74-1.27,11.66,11.66,0,0,1,1.13.41l0-.05a.89.89,0,0,0,0,.43.88.88,0,1,0,1.7-.43.86.86,0,0,0-1.06-.63.82.82,0,0,0-.47.29,8.82,8.82,0,0,1-1.15-.43,7.64,7.64,0,0,0,.52-2.13c.89-.79,3.27-.55,3.56-.52a.9.9,0,0,0,.36.48.93.93,0,0,0,1.31-.24A1,1,0,0,0,85,105.24Z"/><path class="cls-38" d="M67.27,111.48a1.46,1.46,0,0,0-.17-1.86,3.46,3.46,0,0,1-.82-2.83c.13-.79,1.72-.56,1.61-2.73s1-1.63,1.52-1.78.59-.1,1.16-1.3a1.32,1.32,0,0,1,1.51-.73,1.75,1.75,0,0,1,.68.28,2.68,2.68,0,0,0,3.69-.69,7.48,7.48,0,0,0-10.23,2.06S62.63,106.49,67.27,111.48Z"/><ellipse class="cls-38" cx="77.16" cy="104.47" rx="1.26" ry="1.55" transform="translate(-52.45 112.8) rotate(-57.23)"/><path class="cls-38" d="M78.07,107.25a.72.72,0,1,1-1.08.9c-.31-.36-.28-.66,0-.91A.73.73,0,0,1,78.07,107.25Z"/><ellipse class="cls-38" cx="72.56" cy="109.97" rx="0.7" ry="0.87" transform="translate(-56.84 85.22) rotate(-45.76)"/><ellipse class="cls-38" cx="72.26" cy="108.22" rx="0.32" ry="0.4" transform="translate(-55.68 84.48) rotate(-45.76)"/><path class="cls-36" d="M444,151.24a1,1,0,0,0-1.32.24,1.06,1.06,0,0,0-.16.45v-.07c-2.17.12-3.11-.23-3.51-.56a7.55,7.55,0,0,0-.13-.83c.05-.17.3-.49,1.42-.73v0a.6.6,0,0,0,.19.23.61.61,0,0,0,.87-.13.62.62,0,0,0-1-.73.63.63,0,0,0-.12.37,3.48,3.48,0,0,1-1.59.16,7.53,7.53,0,0,0-1-2c-.09-.27-.11-1.11,2.06-2.63v0a1.24,1.24,0,0,0,.81.19,1.27,1.27,0,1,0-1.4-1.14,1.39,1.39,0,0,0,.16.51c-.41.34-2,1.6-3.07,1.53a7.72,7.72,0,0,0-3.91-1.69c-.24-.19-.58-.76-.55-2.42h-.07a1,1,0,0,0,.44-.21,1,1,0,1,0-1.4-.11,1.12,1.12,0,0,0,.54.32,6.06,6.06,0,0,1-.26,2.37,7.75,7.75,0,0,0-4,1.31,4.05,4.05,0,0,1-.65-.93l0,0a.67.67,0,1,0-.66.12.72.72,0,0,0,.41,0,5.15,5.15,0,0,1,.55,1.06,7.68,7.68,0,0,0-1.57,1.6c-.31,0-1-.24-2.21-1.34a1,1,0,0,0,0-.31.94.94,0,0,0-.93-.94.94.94,0,1,0,0,1.88,1.08,1.08,0,0,0,.61-.19c.31.23,1.59,1.25,1.79,2.09a7.76,7.76,0,0,0-.77,3.19c-.15.15-.66.47-2.12.32a1,1,0,0,0-.16-.25.75.75,0,0,0-1.05,0,.74.74,0,0,0,0,1,.74.74,0,0,0,1.26-.37c.36,0,1.78,0,2.16.5a7.79,7.79,0,0,0,3.29,5.36c0,.35,0,1.42-1.5,2.82l.05,0a1,1,0,0,0-.42-.12.88.88,0,1,0,.85.9.8.8,0,0,0-.16-.52c.17-.2,1.75-2.06,2.64-2.33a7.8,7.8,0,0,0,2.95.58,7.67,7.67,0,0,0,1.74-.2c.35.06,1,.37,1.38,1.72a.76.76,0,0,0-.16.26.74.74,0,0,0,.46.94.74.74,0,1,0,0-1.41c-.15-.32-.67-1.54-.18-2a7.41,7.41,0,0,0,2.16-1.5c.48,0,1.22.37,2.36,1.56l.05,0a1,1,0,0,0-.17.4.88.88,0,1,0,1-.74.84.84,0,0,0-.54.1,7,7,0,0,1-1.85-2.26,8.42,8.42,0,0,0,.74-1.27,11.66,11.66,0,0,1,1.13.41l0,0a.89.89,0,0,0,0,.43.88.88,0,1,0,1.7-.43.86.86,0,0,0-1.06-.63.82.82,0,0,0-.47.29,8.82,8.82,0,0,1-1.15-.43,7.64,7.64,0,0,0,.52-2.13c.89-.79,3.27-.55,3.56-.52a.9.9,0,0,0,.36.48.93.93,0,0,0,1.31-.24A1,1,0,0,0,444,151.24Z"/><path class="cls-38" d="M426.27,157.48a1.46,1.46,0,0,0-.17-1.86,3.46,3.46,0,0,1-.82-2.83c.13-.79,1.72-.56,1.61-2.73s1-1.63,1.52-1.78.59-.1,1.16-1.3a1.32,1.32,0,0,1,1.51-.73,1.75,1.75,0,0,1,.68.28,2.68,2.68,0,0,0,3.69-.69,7.48,7.48,0,0,0-10.23,2.06S421.63,152.49,426.27,157.48Z"/><ellipse class="cls-38" cx="436.16" cy="150.47" rx="1.26" ry="1.55" transform="translate(73.55 435.76) rotate(-57.23)"/><path class="cls-38" d="M437.07,153.25a.72.72,0,1,1-1.08.9c-.31-.36-.28-.66,0-.91A.73.73,0,0,1,437.07,153.25Z"/><ellipse class="cls-38" cx="431.56" cy="155.97" rx="0.7" ry="0.87" transform="translate(18.72 356.3) rotate(-45.76)"/><ellipse class="cls-38" cx="431.26" cy="154.22" rx="0.32" ry="0.4" transform="translate(19.88 355.56) rotate(-45.76)"/></g></g></svg>