<svg xmlns="http://www.w3.org/2000/svg" xmlns:xlink="http://www.w3.org/1999/xlink" viewBox="0 0 2828.56 520.75"><defs><style>.cls-1{isolation:isolate;}.cls-2{fill:#ccdafd;opacity:0.3;}.cls-3{fill:#a8caba;}.cls-4{fill:#298c6a;}.cls-5{fill:#fbeede;}.cls-6{fill:#fdc2c4;}.cls-7{mix-blend-mode:multiply;}.cls-10,.cls-8,.cls-9{fill:none;stroke:#fdc2c4;stroke-linecap:round;stroke-miterlimit:10;stroke-width:2px;}.cls-9{stroke-dasharray:3.96 11.88 6.93 3.96;}.cls-10{stroke-dasharray:11.88 6.93 3.96 11.88 6.93 3.96;}.cls-11{fill:#fff;}.cls-11,.cls-12{mix-blend-mode:overlay;}.cls-12{opacity:0.5;}.cls-13{fill:url(#Degradado_sin_nombre_2);}.cls-14{fill:url(#Degradado_sin_nombre_2-2);}.cls-15{fill:url(#Degradado_sin_nombre_2-3);}.cls-16{fill:url(#Degradado_sin_nombre_2-4);}.cls-17{fill:url(#Degradado_sin_nombre_2-5);}.cls-18{fill:url(#Degradado_sin_nombre_2-6);}.cls-19{fill:url(#Degradado_sin_nombre_2-7);}</style><linearGradient id="Degradado_sin_nombre_2" x1="2436.78" y1="180.78" x2="2733.85" y2="204.27" gradientUnits="userSpaceOnUse"><stop offset="0" stop-color="#fff"/><stop offset="1" stop-color="#fff" stop-opacity="0"/></linearGradient><linearGradient id="Degradado_sin_nombre_2-2" x1="1686.15" y1="464.16" x2="1851.47" y2="477.28" xlink:href="#Degradado_sin_nombre_2"/><linearGradient id="Degradado_sin_nombre_2-3" x1="1289.37" y1="262.2" x2="1454.69" y2="275.32" xlink:href="#Degradado_sin_nombre_2"/><linearGradient id="Degradado_sin_nombre_2-4" x1="143.56" y1="402" x2="424.5" y2="408.94" xlink:href="#Degradado_sin_nombre_2"/><linearGradient id="Degradado_sin_nombre_2-5" x1="1917.52" y1="65.31" x2="2245.63" y2="91.36" xlink:href="#Degradado_sin_nombre_2"/><linearGradient id="Degradado_sin_nombre_2-6" x1="96.98" y1="53.84" x2="292.8" y2="69.38" xlink:href="#Degradado_sin_nombre_2"/><linearGradient id="Degradado_sin_nombre_2-7" x1="523.77" y1="150.82" x2="851.89" y2="176.87" xlink:href="#Degradado_sin_nombre_2"/></defs><title>otros</title><g class="cls-1"><g id="Fondos"><path class="cls-2" d="M147.86,160.23a71.44,71.44,0,0,0,43.53,65.57,49.57,49.57,0,0,1,6,3c48.89,29,128.08,70.87,164.9,9.21s-18.59-66.94-17.32-105.95c1.23-38.27-12.38-61.66-38.06-62.72-20.54-.85-35.14,6.69-49.82-1.51a72.88,72.88,0,0,0-35.49-9.47H219a71.15,71.15,0,0,0-71.16,71.16Z"/><path class="cls-2" d="M270,254.82a84.08,84.08,0,0,0,73.16,57.41,59.28,59.28,0,0,1,8.32,1.22c65.92,14.33,170.74,31.64,189-51.57s-46.06-68.34-59.29-112.71c-13-43.53-37.09-64.74-66.38-56.29-23.43,6.76-37,20.73-56.63,17a86.48,86.48,0,0,0-43.49,2.66l-2.87,1a84.42,84.42,0,0,0-53.34,106.8Z"/><path class="cls-2" d="M92,227.68a48.58,48.58,0,0,0,42.82,33,36.76,36.76,0,0,1,4.89.68C178.4,269.46,240,279.15,251,230.89s-26.85-39.44-34.49-65.09c-7.49-25.18-21.59-37.38-38.83-32.39-13.8,4-21.84,12.13-33.35,10a51.72,51.72,0,0,0-25.57,1.68l-1.69.57c-26.05,8.69-40.24,36.47-31.71,62Z"/><path class="cls-2" d="M216.3,282.91a67.89,67.89,0,0,0,59.09,46.37,47.66,47.66,0,0,1,6.72,1c53.24,11.57,137.91,25.55,152.67-41.66s-37.2-55.2-47.89-91c-10.49-35.16-30-52.29-53.62-45.46-18.93,5.46-29.91,16.74-45.74,13.74A69.9,69.9,0,0,0,252.4,168l-2.31.78A68.16,68.16,0,0,0,207,255Z"/><path class="cls-2" d="M2549.22,185.3c0-40.57-24.08-77.48-61.48-93.18a71.88,71.88,0,0,1-9-4.55c-69.61-41.38-182.4-100.93-234.83-13.12s26.47,95.33,24.67,150.88c-1.76,54.51,17.62,87.81,54.19,89.32,29.26,1.22,50-9.52,71,2.15a103.7,103.7,0,0,0,50.53,13.5h3.63A101.34,101.34,0,0,0,2549.22,229Z"/><ellipse class="cls-3" cx="539.16" cy="358.5" rx="3.85" ry="7.7" transform="translate(-108.28 364.1) rotate(-34.12)"/><ellipse class="cls-3" cx="531.45" cy="379.04" rx="2.66" ry="5.32" transform="translate(-121.13 363.31) rotate(-34.12)"/><ellipse class="cls-3" cx="1283.45" cy="493.59" rx="5.42" ry="10.84" transform="translate(108.19 1207.48) rotate(-52.31)"/><ellipse class="cls-3" cx="1284.72" cy="462.75" rx="3.74" ry="7.48" transform="translate(133.09 1196.5) rotate(-52.31)"/><ellipse class="cls-3" cx="785.05" cy="134.89" rx="3.53" ry="7.05" transform="translate(-11.44 124.7) rotate(-9.02)"/><ellipse class="cls-3" cx="770.68" cy="148.93" rx="2.43" ry="4.87" transform="translate(-13.82 122.63) rotate(-9.02)"/><ellipse class="cls-3" cx="463.73" cy="84.8" rx="7.7" ry="3.85" transform="translate(44.91 301.2) rotate(-37.69)"/><ellipse class="cls-3" cx="464.63" cy="106.72" rx="5.32" ry="2.66" transform="translate(31.7 306.33) rotate(-37.69)"/><ellipse class="cls-3" cx="2156.85" cy="455.45" rx="4.71" ry="9.42" transform="translate(221.7 1511.21) rotate(-40.54)"/><ellipse class="cls-3" cx="2176.67" cy="387.56" rx="4.71" ry="9.42" transform="translate(-22.68 613.29) rotate(-15.96)"/><ellipse class="cls-4" cx="2197.47" cy="479.72" rx="4.71" ry="6.42" transform="translate(1493.91 2616.07) rotate(-84.09)"/><ellipse class="cls-3" cx="2634.09" cy="172.37" rx="6.12" ry="12.25" transform="translate(1649.48 2621.59) rotate(-71.84)"/><ellipse class="cls-3" cx="2562.29" cy="229.79" rx="12.25" ry="6.12" transform="translate(-9.62 288.24) rotate(-6.43)"/><ellipse class="cls-4" cx="2683.37" cy="209.17" rx="6.12" ry="8.34" transform="translate(221.48 1296.97) rotate(-28.3)"/><path class="cls-5" d="M749.9,461.85a3.7,3.7,0,0,0-5.78,2.68l0-.26c-8.49.46-12.13-.9-13.7-2.18a28.77,28.77,0,0,0-.51-3.24c.2-.65,1.16-1.93,5.52-2.85l0-.18a2.52,2.52,0,0,0,.76.93,2.42,2.42,0,1,0-.51-3.38,2.41,2.41,0,0,0-.47,1.44c-.53.17-4.12,1.25-6.2.63a30.27,30.27,0,0,0-3.88-7.65c-.35-1.05-.44-4.34,8-10.3l0-.06a5,5,0,1,0-2.3-3.7,4.86,4.86,0,0,0,.63,2c-1.61,1.34-7.85,6.28-12,6a30.17,30.17,0,0,0-15.25-6.58c-1-.75-2.29-3-2.15-9.47l-.28,0a3.88,3.88,0,1,0-3.74-1.28,3.94,3.94,0,0,0,2.08,1.26c.06.82.39,6.13-1,9.28A30.22,30.22,0,0,0,683.27,440a15.83,15.83,0,0,1-2.53-3.66l-.17.08a2.52,2.52,0,0,0,.73-1.06,2.59,2.59,0,1,0-1.7,1.6,19.78,19.78,0,0,1,2.12,4.15,30.94,30.94,0,0,0-6.1,6.26c-1.22-.08-3.81-.94-8.63-5.25a4.6,4.6,0,0,0,.14-1.18,3.67,3.67,0,1,0-3.69,3.66,4.27,4.27,0,0,0,2.4-.76c1.21.93,6.22,4.91,7,8.18a30.22,30.22,0,0,0-3,12.45c-.62.62-2.6,1.84-8.32,1.29a2.77,2.77,0,0,0-.61-1,2.89,2.89,0,1,0-.1,4.08,2.85,2.85,0,0,0,.84-1.53c1.42-.06,6.94-.14,8.45,1.92A30.31,30.31,0,0,0,683,490.17c.13,1.39-.09,5.57-5.85,11l.17.18a3.47,3.47,0,0,0-1.63-.47,3.43,3.43,0,1,0,3.34,3.52,3.38,3.38,0,0,0-.62-2.05c.66-.79,6.81-8.05,10.29-9.1a30.64,30.64,0,0,0,18.33,1.5c1.36.23,3.88,1.42,5.4,6.7a2.78,2.78,0,0,0-.61,1,2.89,2.89,0,1,0,2-1.84c-.58-1.24-2.62-6-.72-7.95a30.42,30.42,0,0,0,8.46-5.88c1.86.1,4.77,1.45,9.22,6.09l.2-.15a3.37,3.37,0,0,0-.66,1.56,3.43,3.43,0,1,0,3.91-2.88,3.5,3.5,0,0,0-2.13.37c-.66-.54-5.55-4.65-7.25-8.82a29.58,29.58,0,0,0,2.93-4.95,38.74,38.74,0,0,1,4.4,1.61l.12-.22a3.62,3.62,0,0,0,0,1.7,3.43,3.43,0,1,0,2.48-4.17,3.38,3.38,0,0,0-1.82,1.17,36.9,36.9,0,0,1-4.49-1.69,30.19,30.19,0,0,0,2-8.35c3.48-3.06,12.8-2.12,13.91-2a3.7,3.7,0,1,0,5.6-4.24Z"/><path class="cls-5" d="M681.87,464.25c0-13.5,7.42-24.86,19.88-28.18l-1.41,0a29.17,29.17,0,1,0,7.53,57.35C692.42,492.65,681.87,479.89,681.87,464.25Z"/><path class="cls-5" d="M702.49,449.73c1.89,3.32,0,8-4.22,10.36s-9.18,1.65-11.07-1.67-.37-8.63,3.85-11S700.6,446.4,702.49,449.73Z"/><path class="cls-5" d="M721.18,451.44c-.34,1.7-2.37,2.74-4.54,2.3s-3.65-2.16-3.31-3.87a4,4,0,0,1,7.85,1.57Z"/><path class="cls-5" d="M719.53,480.83a2.37,2.37,0,0,1-4.52-.91,2.33,2.33,0,0,1,4.52.91Z"/><path class="cls-5" d="M709.87,461.51a2.37,2.37,0,0,1,3.62,2.84,2.32,2.32,0,0,1-3.62-2.84Z"/><path class="cls-5" d="M699.15,485.5a2.37,2.37,0,0,1-4.51-.94,2.32,2.32,0,0,1,4.51.94Z"/><path class="cls-5" d="M709.13,442.74a2.36,2.36,0,0,1-3.49,3,2.32,2.32,0,0,1,3.49-3Z"/><path class="cls-5" d="M686.62,464.79a2.36,2.36,0,0,1-3.49,3,2.32,2.32,0,0,1,3.49-3Z"/><circle class="cls-5" cx="701.97" cy="472.39" r="4.55"/><circle class="cls-5" cx="688.09" cy="478.36" r="3.22"/><circle class="cls-5" cx="707.37" cy="486.06" r="3.22"/><circle class="cls-5" cx="719.56" cy="470.18" r="3.22"/><path class="cls-5" d="M1084.18,130.11a2.28,2.28,0,0,0-3.16.59,2.36,2.36,0,0,0-.39,1.06l0-.16c-5.21.28-7.45-.55-8.41-1.34a18.34,18.34,0,0,0-.32-2c.12-.4.71-1.19,3.39-1.75v-.11a1.48,1.48,0,1,0-.14-.62,8.24,8.24,0,0,1-3.81.38,18.26,18.26,0,0,0-2.39-4.7c-.21-.64-.26-2.66,4.95-6.32l0,0a3.06,3.06,0,1,0,1.31-5.63,3.07,3.07,0,0,0-2.34,4.56c-1,.82-4.82,3.86-7.38,3.67a18.59,18.59,0,0,0-9.37-4c-.59-.46-1.41-1.82-1.32-5.82h-.17a2.38,2.38,0,1,0-2.3-.79,2.35,2.35,0,0,0,1.27.77c0,.51.25,3.77-.6,5.71a18.5,18.5,0,0,0-9.68,3.14,9.62,9.62,0,0,1-1.56-2.24l-.1,0a1.6,1.6,0,0,0-.51-2.69,1.58,1.58,0,0,0-2,.95,1.6,1.6,0,0,0,1,2,1.63,1.63,0,0,0,1,0,12.17,12.17,0,0,1,1.31,2.55,18.7,18.7,0,0,0-3.75,3.84c-.75,0-2.35-.58-5.31-3.22a2.65,2.65,0,0,0,.09-.73,2.26,2.26,0,1,0-2.27,2.25,2.64,2.64,0,0,0,1.48-.46c.74.56,3.82,3,4.3,5a18.5,18.5,0,0,0-1.85,7.65c-.38.38-1.59,1.13-5.11.79a1.75,1.75,0,0,0-.37-.61,1.79,1.79,0,1,0,.45,1.57c.87,0,4.27-.09,5.19,1.18a18.64,18.64,0,0,0,7.9,12.87c.08.85,0,3.42-3.59,6.77l.1.11a2.14,2.14,0,0,0-1-.28,2.11,2.11,0,1,0,2,2.16,2.09,2.09,0,0,0-.38-1.26c.4-.49,4.18-4.95,6.32-5.6a18.58,18.58,0,0,0,7.08,1.4,19.28,19.28,0,0,0,4.19-.47c.83.14,2.38.87,3.31,4.12a1.85,1.85,0,0,0-.38.62A1.78,1.78,0,1,0,1063,154a1.83,1.83,0,0,0-1.06,0c-.35-.76-1.61-3.7-.44-4.89a18.5,18.5,0,0,0,5.2-3.61c1.14.06,2.93.89,5.67,3.74l.12-.09a2.13,2.13,0,0,0-.41,1,2.11,2.11,0,1,0,2.4-1.77,2.06,2.06,0,0,0-1.3.23c-.41-.33-3.42-2.86-4.46-5.42a18.56,18.56,0,0,0,1.8-3,22.75,22.75,0,0,1,2.7,1l.08-.13a2.15,2.15,0,0,0,0,1,2.11,2.11,0,1,0,1.52-2.57,2.08,2.08,0,0,0-1.11.72,22,22,0,0,1-2.76-1,18.76,18.76,0,0,0,1.24-5.14c2.14-1.88,7.86-1.3,8.55-1.22a2.24,2.24,0,0,0,.86,1.14,2.27,2.27,0,1,0,2.57-3.75Z"/><path class="cls-5" d="M1042.39,131.59c0-8.3,4.56-15.28,12.21-17.32l-.87,0a17.92,17.92,0,0,0,0,35.84,18.14,18.14,0,0,0,4.63-.6C1048.87,149,1042.39,141.2,1042.39,131.59Z"/><path class="cls-5" d="M1055.05,122.66c1.17,2,0,4.9-2.59,6.37s-5.64,1-6.8-1-.23-5.3,2.36-6.77S1053.89,120.62,1055.05,122.66Z"/><path class="cls-5" d="M1066.54,123.71a2.53,2.53,0,0,1-4.82-1,2.48,2.48,0,0,1,4.82,1Z"/><path class="cls-5" d="M1065.52,141.77a1.45,1.45,0,0,1-2.77-.55,1.42,1.42,0,0,1,2.77.55Z"/><path class="cls-5" d="M1059.59,129.9a1.45,1.45,0,0,1,2.22,1.75,1.43,1.43,0,0,1-2.22-1.75Z"/><path class="cls-5" d="M1053,144.65a1.46,1.46,0,0,1-2.77-.59,1.43,1.43,0,0,1,2.77.59Z"/><path class="cls-5" d="M1059.14,118.37a1.46,1.46,0,0,1-2.15,1.85,1.43,1.43,0,0,1,2.15-1.85Z"/><path class="cls-5" d="M1045.3,131.92a1.45,1.45,0,0,1-2.14,1.84,1.42,1.42,0,0,1,2.14-1.84Z"/><circle class="cls-5" cx="1054.74" cy="136.59" r="2.8"/><circle class="cls-5" cx="1046.2" cy="140.25" r="1.98"/><circle class="cls-5" cx="1058.05" cy="144.99" r="1.98"/><circle class="cls-5" cx="1065.54" cy="135.23" r="1.98"/><ellipse class="cls-6" cx="972.34" cy="412.6" rx="2.85" ry="5.7" transform="translate(-64.08 616.37) rotate(-34.12)"/><ellipse class="cls-6" cx="966.64" cy="427.79" rx="1.96" ry="3.93" transform="translate(-73.58 615.79) rotate(-34.12)"/><ellipse class="cls-6" cx="887.15" cy="39.45" rx="5.7" ry="2.85" transform="translate(160.99 550.6) rotate(-37.69)"/><ellipse class="cls-6" cx="887.81" cy="55.66" rx="3.93" ry="1.96" transform="translate(151.22 554.39) rotate(-37.69)"/><ellipse class="cls-6" cx="1997.89" cy="99.45" rx="3.22" ry="6.44" transform="translate(1280.82 1966.86) rotate(-71.84)"/><ellipse class="cls-6" cx="1960.15" cy="129.62" rx="6.44" ry="3.22" transform="translate(-2.19 220.21) rotate(-6.43)"/><ellipse class="cls-6" cx="2023.78" cy="118.79" rx="3.22" ry="4.38" transform="translate(185.51 973.51) rotate(-28.3)"/><ellipse class="cls-6" cx="1587.64" cy="103.46" rx="3.61" ry="2.65" transform="translate(-3.33 113.6) rotate(-4.09)"/><ellipse class="cls-6" cx="1604.45" cy="125" rx="5.83" ry="4.28" transform="translate(486.75 1282.86) rotate(-50.47)"/><g class="cls-7"><path class="cls-8" d="M1062.88,112.28s.95-2,2.84-5.28"/><path class="cls-9" d="M1069.24,101a214,214,0,0,1,14.21-20.24"/><path class="cls-10" d="M1084.69,79.24c34.12-42.23,107.79-99.57,217.36-7.63,173.36,145.48,251.44,63.69,281.11,16.88a87.88,87.88,0,0,0,5.28-9.61c7.75-16.33,40.93-78.2,80.55-32.38a87.14,87.14,0,0,1,14.22,23.09c16.32,38.64,125.58,209.49,351.18,131.35"/><path class="cls-8" d="M2036.26,200.29c1.88-.66,3.76-1.33,5.65-2"/></g><circle class="cls-5" cx="2058.2" cy="187.23" r="17.87"/><circle class="cls-5" cx="1613.36" cy="459.7" r="17.08"/><path class="cls-5" d="M1928,66a2.17,2.17,0,0,0-3,.56,2,2,0,0,0-.37,1l0-.15c-5,.27-7.15-.53-8.07-1.28a16.9,16.9,0,0,0-.3-1.91c.12-.39.68-1.14,3.25-1.68l0-.1a1.38,1.38,0,0,0,.45.54,1.42,1.42,0,1,0-.3-2,1.44,1.44,0,0,0-.28.85,7.87,7.87,0,0,1-3.65.37,17.81,17.81,0,0,0-2.28-4.5c-.21-.62-.26-2.56,4.73-6.06l0,0a3,3,0,0,0,1.86.43,2.92,2.92,0,0,0,2.61-3.21,2.93,2.93,0,1,0-5.83.6,3.11,3.11,0,0,0,.37,1.15c-.94.79-4.62,3.7-7.07,3.52a17.86,17.86,0,0,0-9-3.87c-.56-.44-1.35-1.75-1.27-5.57l-.16,0a2.28,2.28,0,1,0-2.2-.75,2.33,2.33,0,0,0,1.22.74,14,14,0,0,1-.58,5.47,17.74,17.74,0,0,0-9.28,3A9.53,9.53,0,0,1,1887.3,51l-.1,0a1.45,1.45,0,0,0,.43-.62,1.53,1.53,0,1,0-1,.94,11.87,11.87,0,0,1,1.25,2.45,17.4,17.4,0,0,0-3.59,3.68c-.72-.05-2.25-.56-5.09-3.09a2.43,2.43,0,0,0,.09-.7,2.16,2.16,0,1,0-2.17,2.16,2.47,2.47,0,0,0,1.41-.45c.71.55,3.66,2.89,4.12,4.81a17.86,17.86,0,0,0-1.77,7.34c-.36.36-1.52,1.08-4.89.75a1.87,1.87,0,0,0-.36-.58,1.73,1.73,0,1,0,.43,1.5c.84,0,4.09-.08,5,1.13a17.87,17.87,0,0,0,7.56,12.34c.08.81,0,3.28-3.44,6.48l.1.11a2,2,0,0,0-1-.27,2,2,0,0,0-.11,4,2,2,0,0,0,1.71-3.18c.39-.46,4-4.74,6.06-5.36a17.78,17.78,0,0,0,10.79.88c.8.14,2.28.84,3.18,3.95a1.66,1.66,0,0,0-.36.6,1.7,1.7,0,1,0,2.16-1,1.66,1.66,0,0,0-1,0c-.34-.73-1.55-3.54-.42-4.68a18.19,18.19,0,0,0,5-3.47c1.09.06,2.81.86,5.42,3.59l.12-.09a2,2,0,0,0,1.31,3.22,2,2,0,1,0-.65-3.78c-.39-.32-3.27-2.73-4.27-5.19a17.67,17.67,0,0,0,1.72-2.91,21.86,21.86,0,0,1,2.6.94l.07-.12a2,2,0,0,0,0,1,2,2,0,1,0,1.46-2.46,2,2,0,0,0-1.07.69,22,22,0,0,1-2.65-1,17.47,17.47,0,0,0,1.19-4.91c2-1.81,7.54-1.25,8.19-1.18a2.24,2.24,0,0,0,.83,1.1A2.18,2.18,0,0,0,1928,66Z"/><path class="cls-5" d="M1888,67.44c0-7.95,4.37-14.64,11.7-16.59l-.83,0a17.17,17.17,0,1,0,4.43,33.76C1894.18,84.16,1888,76.64,1888,67.44Z"/><path class="cls-5" d="M1900.11,58.89c1.11,2,0,4.69-2.49,6.1s-5.4,1-6.51-1-.23-5.08,2.26-6.49S1899,56.93,1900.11,58.89Z"/><path class="cls-5" d="M1911.11,59.89a2.42,2.42,0,0,1-4.62-.92,2.38,2.38,0,0,1,4.62.92Z"/><path class="cls-5" d="M1910.14,77.2a1.26,1.26,0,0,1-1.54.78,1.24,1.24,0,0,1-1.12-1.31,1.37,1.37,0,0,1,2.66.53Z"/><path class="cls-5" d="M1904.45,65.82a1.39,1.39,0,0,1,2.13,1.68,1.37,1.37,0,0,1-2.13-1.68Z"/><path class="cls-5" d="M1898.14,80a1.39,1.39,0,0,1-2.65-.56,1.37,1.37,0,0,1,2.65.56Z"/><path class="cls-5" d="M1904,54.78a1.39,1.39,0,0,1-2.06,1.76,1.37,1.37,0,0,1,2.06-1.76Z"/><path class="cls-5" d="M1890.76,67.76a1.39,1.39,0,0,1-2,1.76,1.36,1.36,0,0,1,2-1.76Z"/><circle class="cls-5" cx="1899.8" cy="72.23" r="2.68"/><circle class="cls-5" cx="1891.63" cy="75.74" r="1.89"/><circle class="cls-5" cx="1902.98" cy="80.28" r="1.89"/><circle class="cls-5" cx="1910.15" cy="70.93" r="1.89"/><g id="Stars"><ellipse class="cls-11" cx="2588.11" cy="321.98" rx="2.91" ry="2.17"/><ellipse class="cls-11" cx="1765.91" cy="241.51" rx="2.6" ry="1.73"/><ellipse class="cls-11" cx="1896.97" cy="243.93" rx="2.16" ry="1.44"/><ellipse class="cls-11" cx="2263.41" cy="307.21" rx="2.64" ry="1.76"/><ellipse class="cls-11" cx="2466.23" cy="246.14" rx="2.84" ry="2.12"/><ellipse class="cls-11" cx="2778.51" cy="302.18" rx="3.06" ry="2.04"/><ellipse class="cls-11" cx="1750.86" cy="311.04" rx="1.27" ry="0.93"/><ellipse class="cls-11" cx="1858.3" cy="287.13" rx="3.43" ry="2.81"/><ellipse class="cls-11" cx="1791.28" cy="409.45" rx="2.06" ry="1.37"/><ellipse class="cls-11" cx="1957.11" cy="199.74" rx="2.06" ry="1.38"/><ellipse class="cls-11" cx="2102.49" cy="463.01" rx="2.36" ry="1.58"/><ellipse class="cls-11" cx="2704.4" cy="212.96" rx="3.21" ry="2.14"/><ellipse class="cls-11" cx="2817.02" cy="155.07" rx="3.54" ry="2.36"/><ellipse class="cls-11" cx="2745.78" cy="101.32" rx="2.97" ry="1.98"/><ellipse class="cls-11" cx="2152.08" cy="310.94" rx="2.28" ry="1.52"/><ellipse class="cls-11" cx="2347" cy="260.17" rx="3.36" ry="2.24"/><ellipse class="cls-11" cx="2574.67" cy="137.71" rx="4.51" ry="3.01"/><ellipse class="cls-11" cx="1501.88" cy="254.19" rx="4.02" ry="3.3"/><ellipse class="cls-11" cx="1596.73" cy="332.87" rx="3.93" ry="3.22"/><ellipse class="cls-11" cx="2185.1" cy="225.46" rx="2.79" ry="1.86"/><ellipse class="cls-11" cx="2512.95" cy="182.36" rx="3.53" ry="2.35"/><ellipse class="cls-11" cx="2659.05" cy="105.04" rx="2.1" ry="1.4"/><ellipse class="cls-11" cx="2818.12" cy="302.54" rx="2.75" ry="1.83"/><ellipse class="cls-11" cx="1076.77" cy="287.51" rx="2.81" ry="1.87"/><ellipse class="cls-11" cx="1726.4" cy="328.79" rx="1.95" ry="1.43"/><ellipse class="cls-11" cx="1798.36" cy="310.65" rx="3.87" ry="3.18"/><ellipse class="cls-11" cx="1896.82" cy="327.28" rx="3.01" ry="2.47"/><ellipse class="cls-11" cx="2302.27" cy="181.67" rx="3.08" ry="2.54"/><ellipse class="cls-11" cx="2663.05" cy="289.23" rx="2" ry="1.33"/><ellipse class="cls-11" cx="2515.6" cy="280.98" rx="2.65" ry="1.97"/><ellipse class="cls-11" cx="2426.49" cy="193.02" rx="2.72" ry="2.02"/><ellipse class="cls-11" cx="2730.85" cy="361.79" rx="2.91" ry="2.17"/><ellipse class="cls-11" cx="2608.97" cy="302.79" rx="2.84" ry="2.12"/><ellipse class="cls-11" cx="2658.34" cy="337.62" rx="2.65" ry="1.97"/><ellipse class="cls-11" cx="2429.2" cy="318.95" rx="2.72" ry="2.02"/><ellipse class="cls-11" cx="2761.11" cy="248.5" rx="2.91" ry="2.17"/><ellipse class="cls-11" cx="2639.23" cy="172.67" rx="2.84" ry="2.12"/><ellipse class="cls-11" cx="2688.6" cy="207.5" rx="2.65" ry="1.97"/><ellipse class="cls-11" cx="2599.49" cy="119.54" rx="2.72" ry="2.02"/><ellipse class="cls-11" cx="1781.65" cy="479.43" rx="3.17" ry="2.33"/><ellipse class="cls-11" cx="2027.99" cy="205.21" rx="3.94" ry="2.63"/><ellipse class="cls-11" cx="2263.41" cy="227.31" rx="4.49" ry="3.71"/><ellipse class="cls-11" cx="2512.82" cy="33.63" rx="4.49" ry="3.71"/><ellipse class="cls-11" cx="2570.16" cy="246.49" rx="3.64" ry="2.43"/><ellipse class="cls-11" cx="1443.09" cy="158.62" rx="3.77" ry="3.39"/><ellipse class="cls-11" cx="2211.74" cy="65.57" rx="3.2" ry="2.64"/><ellipse class="cls-11" cx="2298.55" cy="103.49" rx="3.94" ry="3.26"/><ellipse class="cls-11" cx="2547.54" cy="113.95" rx="3.08" ry="2.05"/><ellipse class="cls-11" cx="1944.07" cy="253.39" rx="3.76" ry="3.08"/><ellipse class="cls-11" cx="941.74" cy="324.65" rx="1.32" ry="0.32"/><ellipse class="cls-11" cx="1523.77" cy="410.04" rx="0.89" ry="0.24"/><ellipse class="cls-11" cx="1681.26" cy="367.38" rx="1.88" ry="1.38"/><ellipse class="cls-11" cx="817.27" cy="231.14" rx="1.32" ry="0.32"/><ellipse class="cls-11" cx="1635.31" cy="388.35" rx="1.89" ry="0.5"/><ellipse class="cls-11" cx="1538.56" cy="482.88" rx="1.34" ry="0.32"/><ellipse class="cls-11" cx="1135.22" cy="89.5" rx="1.35" ry="0.44"/><ellipse class="cls-11" cx="1678.85" cy="418.14" rx="2.27" ry="1.51"/><ellipse class="cls-11" cx="1030.71" cy="411.56" rx="2.97" ry="1.98"/><ellipse class="cls-11" cx="1043.08" cy="466.18" rx="1.94" ry="1.29"/><ellipse class="cls-11" cx="975.05" cy="355.33" rx="3.36" ry="2.24"/><ellipse class="cls-11" cx="1615.09" cy="202.51" rx="1.7" ry="1.13"/><ellipse class="cls-11" cx="2055.81" cy="355.91" rx="3.02" ry="2.02"/><ellipse class="cls-11" cx="2139.42" cy="195.71" rx="3.8" ry="3.14"/><ellipse class="cls-11" cx="2025.7" cy="133.12" rx="2.91" ry="1.94"/><ellipse class="cls-11" cx="1711.19" cy="133.44" rx="3.04" ry="2.73"/><ellipse class="cls-11" cx="1369.7" cy="117.84" rx="3.28" ry="2.95"/><ellipse class="cls-11" cx="715.19" cy="320.95" rx="1.55" ry="1.03"/><ellipse class="cls-11" cx="729.38" cy="288.98" rx="1.02" ry="0.25"/><ellipse class="cls-11" cx="890.79" cy="308.87" rx="2.67" ry="1.78"/><ellipse class="cls-11" cx="1562.03" cy="380.04" rx="1.26" ry="0.92"/><ellipse class="cls-11" cx="1739.62" cy="331.74" rx="2.99" ry="2.45"/><ellipse class="cls-11" cx="688.24" cy="236.29" rx="4.38" ry="2.92"/><ellipse class="cls-11" cx="1537.22" cy="163.17" rx="2.81" ry="2.53"/><ellipse class="cls-11" cx="1941.54" cy="426.83" rx="3.18" ry="2.12"/><ellipse class="cls-11" cx="686.05" cy="340.85" rx="2.19" ry="1.46"/><ellipse class="cls-11" cx="989.85" cy="315.72" rx="3.9" ry="2.6"/><ellipse class="cls-11" cx="1748.98" cy="361.36" rx="1.88" ry="1.38"/><ellipse class="cls-11" cx="1798.98" cy="187.18" rx="2.86" ry="1.91"/><ellipse class="cls-11" cx="1811.75" cy="519.24" rx="2.37" ry="1.58"/><ellipse class="cls-11" cx="1956.51" cy="70.77" rx="3.68" ry="2.45"/><ellipse class="cls-11" cx="2196.91" cy="105.27" rx="2.28" ry="1.88"/><ellipse class="cls-11" cx="1841.63" cy="121.84" rx="2.44" ry="1.63"/><ellipse class="cls-11" cx="1576.06" cy="49.83" rx="2.9" ry="2.6"/><ellipse class="cls-11" cx="2113.79" cy="71.98" rx="2.92" ry="2.42"/><ellipse class="cls-11" cx="2422.11" cy="91.56" rx="2.37" ry="1.58"/><ellipse class="cls-11" cx="2324.84" cy="81.79" rx="1.44" ry="1.19"/><ellipse class="cls-11" cx="2243.02" cy="69.97" rx="2.85" ry="2.35"/><ellipse class="cls-11" cx="1739.62" cy="33.72" rx="1.57" ry="1.41"/><ellipse class="cls-11" cx="2153.25" cy="57.89" rx="3.16" ry="2.61"/><ellipse class="cls-11" cx="2480.24" cy="85.76" rx="3.19" ry="2.13"/><ellipse class="cls-11" cx="1849.27" cy="79.95" rx="2.93" ry="1.95"/><ellipse class="cls-11" cx="2250.35" cy="105.24" rx="2.33" ry="1.92"/><ellipse class="cls-11" cx="990.27" cy="23.75" rx="2.95" ry="2.65"/><ellipse class="cls-11" cx="1517.48" cy="60.93" rx="2.8" ry="2.52"/><ellipse class="cls-11" cx="1284.66" cy="56.77" rx="2.31" ry="2.07"/><ellipse class="cls-11" cx="1797.78" cy="50.98" rx="4.84" ry="4.37"/><ellipse class="cls-11" cx="1761.07" cy="101.47" rx="2.3" ry="2.07"/><ellipse class="cls-11" cx="1987.86" cy="100.4" rx="1.26" ry="0.84"/><ellipse class="cls-11" cx="1045.75" cy="45.3" rx="2.04" ry="1.83"/><ellipse class="cls-11" cx="1211.22" cy="39.71" rx="1.59" ry="1.42"/><ellipse class="cls-11" cx="1181.1" cy="94.64" rx="1.52" ry="1.37"/><ellipse class="cls-11" cx="1368.67" cy="70.85" rx="2.64" ry="2.37"/><ellipse class="cls-11" cx="1659.42" cy="32.47" rx="1.24" ry="1.11"/><ellipse class="cls-11" cx="1085.39" cy="83.16" rx="3.01" ry="2.71"/><ellipse class="cls-11" cx="1712.64" cy="191.4" rx="3.04" ry="2.03"/><ellipse class="cls-11" cx="826.38" cy="190.29" rx="2.73" ry="2.45"/><ellipse class="cls-11" cx="1151.58" cy="52.59" rx="3.51" ry="3.15"/><ellipse class="cls-11" cx="1614.92" cy="77.48" rx="3.38" ry="3.04"/><ellipse class="cls-11" cx="1996.06" cy="55.86" rx="4.6" ry="3.07"/><ellipse class="cls-11" cx="1286.96" cy="129.81" rx="4.51" ry="4.05"/><ellipse class="cls-11" cx="1480.14" cy="172.98" rx="4.51" ry="4.05"/><ellipse class="cls-11" cx="1611.54" cy="362.39" rx="4.51" ry="4.05"/><ellipse class="cls-11" cx="832.08" cy="16.09" rx="3.28" ry="2.95"/><ellipse class="cls-11" cx="835.36" cy="111.3" rx="2.22" ry="1.99"/><ellipse class="cls-11" cx="945.32" cy="55.46" rx="4.4" ry="3.95"/><ellipse class="cls-11" cx="956.51" cy="276.75" rx="1.04" ry="0.94"/><ellipse class="cls-11" cx="881.53" cy="248.47" rx="3.79" ry="3.41"/><ellipse class="cls-11" cx="733.41" cy="79.07" rx="4.42" ry="3.97"/><ellipse class="cls-11" cx="876.95" cy="268.85" rx="1.94" ry="1.74"/><ellipse class="cls-11" cx="1069.08" cy="52.54" rx="3.59" ry="3.23"/><ellipse class="cls-11" cx="2811.92" cy="12.32" rx="4.07" ry="2.72"/><ellipse class="cls-11" cx="2597.49" cy="44.79" rx="2.24" ry="1.49"/><ellipse class="cls-11" cx="2807.85" cy="85.22" rx="3.32" ry="0.8"/><ellipse class="cls-11" cx="2131.54" cy="25.59" rx="3.98" ry="3.29"/><ellipse class="cls-11" cx="2404.87" cy="46.19" rx="3.19" ry="2.12"/><ellipse class="cls-11" cx="1671.43" cy="62.91" rx="4.41" ry="3.96"/><ellipse class="cls-11" cx="2063.92" cy="295.22" rx="3.18" ry="2.86"/><ellipse class="cls-11" cx="1432.54" cy="18.54" rx="1.75" ry="1.57"/><ellipse class="cls-11" cx="2735.22" cy="34.42" rx="2.82" ry="1.88"/><ellipse class="cls-11" cx="2548.06" cy="85.06" rx="2.11" ry="1.41"/><ellipse class="cls-11" cx="2284.39" cy="49.16" rx="3.26" ry="2.7"/><ellipse class="cls-11" cx="1866.87" cy="47.75" rx="1.71" ry="1.14"/><ellipse class="cls-11" cx="2680.4" cy="73.27" rx="4.17" ry="2.78"/><ellipse class="cls-11" cx="1958.17" cy="128.59" rx="3.68" ry="2.45"/><ellipse class="cls-11" cx="2198.4" cy="169.51" rx="2.28" ry="1.88"/><ellipse class="cls-11" cx="1843.08" cy="172.24" rx="2.44" ry="1.63"/><ellipse class="cls-11" cx="1595.84" cy="142.81" rx="2.9" ry="2.6"/><ellipse class="cls-11" cx="2115.28" cy="136.21" rx="2.92" ry="2.42"/><ellipse class="cls-11" cx="2423.77" cy="149.38" rx="2.37" ry="1.58"/><ellipse class="cls-11" cx="2326.32" cy="146.03" rx="1.44" ry="1.19"/><ellipse class="cls-11" cx="2364.56" cy="199.3" rx="2.85" ry="2.35"/><ellipse class="cls-11" cx="2180.17" cy="124.54" rx="2.85" ry="2.35"/><ellipse class="cls-11" cx="1730.48" cy="131.04" rx="1.57" ry="1.41"/><ellipse class="cls-11" cx="2377.33" cy="121.22" rx="3.16" ry="2.61"/><ellipse class="cls-11" cx="2481.9" cy="143.58" rx="3.19" ry="2.13"/><ellipse class="cls-11" cx="1850.72" cy="130.35" rx="2.93" ry="1.95"/><ellipse class="cls-11" cx="2251.84" cy="169.48" rx="2.33" ry="1.92"/><ellipse class="cls-11" cx="991.93" cy="101.67" rx="2.95" ry="2.65"/><ellipse class="cls-11" cx="1147.01" cy="133.32" rx="1.62" ry="1.45"/><ellipse class="cls-11" cx="1518.93" cy="128.85" rx="2.8" ry="2.52"/><ellipse class="cls-11" cx="1802.21" cy="164.41" rx="3.19" ry="2.13"/><ellipse class="cls-11" cx="1762.52" cy="167.67" rx="2.3" ry="1.53"/><ellipse class="cls-11" cx="1989.52" cy="158.23" rx="1.26" ry="0.84"/><ellipse class="cls-11" cx="1000.67" cy="215.68" rx="1.59" ry="1.43"/><ellipse class="cls-11" cx="1212.88" cy="117.63" rx="1.59" ry="1.42"/><ellipse class="cls-11" cx="718.12" cy="174.4" rx="1.77" ry="1.59"/><ellipse class="cls-11" cx="1660.86" cy="125.13" rx="1.24" ry="1.11"/><ellipse class="cls-11" cx="1087.05" cy="162.6" rx="3.01" ry="2.01"/><ellipse class="cls-11" cx="1637.27" cy="442.09" rx="1.97" ry="0.52"/><ellipse class="cls-11" cx="723.95" cy="123.12" rx="1.44" ry="1.29"/><ellipse class="cls-11" cx="1684.07" cy="333.42" rx="1.34" ry="0.98"/><ellipse class="cls-11" cx="1689.94" cy="315.91" rx="2.25" ry="1.5"/><ellipse class="cls-11" cx="824.52" cy="66.29" rx="1.91" ry="1.72"/><ellipse class="cls-11" cx="860.53" cy="80.27" rx="1.32" ry="1.19"/><ellipse class="cls-11" cx="795.33" cy="86.87" rx="2.85" ry="2.56"/><ellipse class="cls-11" cx="824.77" cy="181.78" rx="0.87" ry="0.78"/><ellipse class="cls-11" cx="762.24" cy="158.2" rx="3.16" ry="2.84"/><ellipse class="cls-11" cx="758.42" cy="175.19" rx="1.62" ry="1.45"/><ellipse class="cls-11" cx="875.68" cy="84.97" rx="2.33" ry="2.09"/><ellipse class="cls-11" cx="825.59" cy="116.87" rx="1.91" ry="1.72"/><ellipse class="cls-11" cx="856.04" cy="221.63" rx="1.03" ry="0.93"/><ellipse class="cls-11" cx="980.47" cy="237.15" rx="1.32" ry="0.32"/><ellipse class="cls-11" cx="929.53" cy="221.37" rx="2.67" ry="1.78"/><ellipse class="cls-11" cx="1028.58" cy="228.22" rx="3.9" ry="2.6"/><ellipse class="cls-11" cx="995.24" cy="189.25" rx="1.04" ry="0.94"/><ellipse class="cls-11" cx="920.26" cy="160.97" rx="3.79" ry="3.41"/><ellipse class="cls-11" cx="915.68" cy="181.35" rx="1.94" ry="1.74"/><ellipse class="cls-11" cx="1039.41" cy="128.18" rx="1.59" ry="1.43"/><ellipse class="cls-11" cx="894.77" cy="134.13" rx="1.03" ry="0.93"/><ellipse class="cls-11" cx="909.86" cy="405" rx="2.22" ry="1.99"/><ellipse class="cls-11" cx="736.35" cy="337.47" rx="2.45" ry="2.2"/><ellipse class="cls-11" cx="847.64" cy="344.15" rx="3.28" ry="2.94"/><ellipse class="cls-11" cx="909.32" cy="351.26" rx="2.27" ry="2.04"/><ellipse class="cls-11" cx="729.92" cy="344.45" rx="1.18" ry="1.06"/><ellipse class="cls-11" cx="798.45" cy="416.82" rx="1.44" ry="1.29"/><ellipse class="cls-11" cx="797.66" cy="362.56" rx="4.89" ry="4.39"/><ellipse class="cls-11" cx="836.74" cy="451.9" rx="3.16" ry="2.84"/><ellipse class="cls-11" cx="935.27" cy="359.31" rx="3.99" ry="3.59"/><ellipse class="cls-11" cx="900.09" cy="410.57" rx="1.91" ry="1.72"/><ellipse class="cls-11" cx="936.1" cy="424.56" rx="1.32" ry="1.19"/><ellipse class="cls-11" cx="814.43" cy="329.93" rx="1.23" ry="1.1"/><ellipse class="cls-11" cx="757.85" cy="312.04" rx="2.45" ry="2.2"/><ellipse class="cls-11" cx="808.41" cy="304.95" rx="1.06" ry="0.95"/><ellipse class="cls-11" cx="973.76" cy="314.65" rx="1.32" ry="1.19"/><ellipse class="cls-11" cx="751.41" cy="302.18" rx="1.18" ry="1.06"/><ellipse class="cls-11" cx="752.6" cy="336.49" rx="0.8" ry="0.72"/><ellipse class="cls-11" cx="792.21" cy="316.37" rx="1.58" ry="1.42"/><ellipse class="cls-11" cx="785.21" cy="253.78" rx="5.42" ry="4.87"/><ellipse class="cls-11" cx="809.01" cy="333.02" rx="1.06" ry="0.95"/><ellipse class="cls-11" cx="1002.26" cy="341.95" rx="1.32" ry="1.19"/><ellipse class="cls-11" cx="1956.94" cy="270.96" rx="1.32" ry="0.32"/><ellipse class="cls-11" cx="1832.48" cy="177.45" rx="1.32" ry="0.32"/><ellipse class="cls-11" cx="1990.25" cy="318.47" rx="3.36" ry="2.24"/><ellipse class="cls-11" cx="1730.39" cy="267.26" rx="1.55" ry="1.03"/><ellipse class="cls-11" cx="1744.58" cy="235.29" rx="1.02" ry="0.25"/><ellipse class="cls-11" cx="1905.99" cy="255.17" rx="2.67" ry="1.78"/><ellipse class="cls-11" cx="1703.44" cy="182.6" rx="4.38" ry="2.92"/><ellipse class="cls-11" cx="1701.25" cy="287.16" rx="2.19" ry="1.46"/><ellipse class="cls-11" cx="1841.58" cy="136.59" rx="2.73" ry="2.45"/><ellipse class="cls-11" cx="1868.58" cy="96.08" rx="2.22" ry="1.99"/><ellipse class="cls-11" cx="1971.71" cy="223.06" rx="1.04" ry="0.94"/><ellipse class="cls-11" cx="1896.73" cy="194.78" rx="3.79" ry="3.41"/><ellipse class="cls-11" cx="1892.15" cy="215.15" rx="1.94" ry="1.74"/><ellipse class="cls-11" cx="1733.32" cy="120.71" rx="1.77" ry="1.59"/><ellipse class="cls-11" cx="1739.15" cy="69.43" rx="1.44" ry="1.29"/><ellipse class="cls-11" cx="1839.97" cy="128.09" rx="0.87" ry="0.78"/><ellipse class="cls-11" cx="1777.44" cy="104.51" rx="3.16" ry="2.84"/><ellipse class="cls-11" cx="1773.62" cy="121.5" rx="1.62" ry="1.45"/><ellipse class="cls-11" cx="1840.79" cy="63.18" rx="1.91" ry="1.72"/><ellipse class="cls-11" cx="1871.24" cy="167.94" rx="1.03" ry="0.93"/><ellipse class="cls-11" cx="2350.14" cy="334.71" rx="2.44" ry="1.63"/><ellipse class="cls-11" cx="2351.58" cy="385.11" rx="2.44" ry="1.63"/><ellipse class="cls-11" cx="2359.22" cy="343.23" rx="2.93" ry="1.95"/><ellipse class="cls-11" cx="2350.09" cy="349.47" rx="2.73" ry="2.45"/><ellipse class="cls-11" cx="2348.48" cy="340.96" rx="0.87" ry="0.78"/><ellipse class="cls-11" cx="2379.75" cy="380.81" rx="1.03" ry="0.93"/><ellipse class="cls-11" cx="1944.73" cy="167.67" rx="2.67" ry="1.78"/><ellipse class="cls-11" cx="1935.46" cy="107.28" rx="3.79" ry="3.41"/><ellipse class="cls-11" cx="1930.88" cy="127.65" rx="1.94" ry="1.74"/><ellipse class="cls-11" cx="1909.97" cy="80.44" rx="1.03" ry="0.93"/><ellipse class="cls-11" cx="1751.55" cy="300.62" rx="2.45" ry="2.2"/><ellipse class="cls-11" cx="1862.84" cy="371.84" rx="3.28" ry="2.94"/><ellipse class="cls-11" cx="1924.52" cy="314.41" rx="2.27" ry="2.04"/><ellipse class="cls-11" cx="1745.12" cy="290.76" rx="1.18" ry="1.06"/><ellipse class="cls-11" cx="1812.86" cy="325.7" rx="4.89" ry="4.39"/><ellipse class="cls-11" cx="1950.47" cy="322.45" rx="3.99" ry="3.59"/><ellipse class="cls-11" cx="1829.63" cy="276.23" rx="1.23" ry="1.1"/><ellipse class="cls-11" cx="1773.05" cy="258.35" rx="2.45" ry="2.2"/><ellipse class="cls-11" cx="1823.61" cy="251.25" rx="1.06" ry="0.95"/><ellipse class="cls-11" cx="1988.96" cy="260.96" rx="1.32" ry="1.19"/><ellipse class="cls-11" cx="1766.61" cy="248.49" rx="1.18" ry="1.06"/><ellipse class="cls-11" cx="1767.8" cy="282.8" rx="0.8" ry="0.72"/><ellipse class="cls-11" cx="1807.41" cy="262.68" rx="1.58" ry="1.42"/><ellipse class="cls-11" cx="1610.39" cy="243.65" rx="2.6" ry="1.73"/><ellipse class="cls-11" cx="1574.87" cy="269.39" rx="1.55" ry="1.03"/><ellipse class="cls-11" cx="1589.05" cy="237.42" rx="1.02" ry="0.25"/><ellipse class="cls-11" cx="1617.52" cy="260.48" rx="2.45" ry="2.2"/><ellipse class="cls-11" cx="1611.09" cy="250.62" rx="1.18" ry="1.06"/><ellipse class="cls-11" cx="1651.89" cy="264.81" rx="1.58" ry="1.42"/><ellipse class="cls-11" cx="1800.41" cy="200.08" rx="5.42" ry="4.87"/><ellipse class="cls-11" cx="1824.21" cy="279.33" rx="1.06" ry="0.95"/><ellipse class="cls-11" cx="1300.72" cy="138.99" rx="1.7" ry="1.65" transform="translate(709.09 1305.68) rotate(-69.21)"/><ellipse class="cls-11" cx="1347.26" cy="80.4" rx="2.69" ry="2.23" transform="translate(-0.1 1.77) rotate(-0.08)"/><ellipse class="cls-11" cx="1195.71" cy="171.09" rx="1.98" ry="2.61" transform="translate(1009.89 1364.6) rotate(-89.29)"/><ellipse class="cls-11" cx="1249.87" cy="115.75" rx="1.87" ry="1.82" transform="translate(698.01 1243.15) rotate(-69.21)"/><ellipse class="cls-11" cx="1188.81" cy="85.93" rx="1.59" ry="1.55" transform="translate(686.5 1166.83) rotate(-69.21)"/><ellipse class="cls-11" cx="1251.13" cy="172.01" rx="1.98" ry="1.93" transform="matrix(0.35, -0.93, 0.93, 0.35, 646.24, 1280.62)"/><ellipse class="cls-11" cx="1237.01" cy="86.61" rx="1.59" ry="1.55" transform="matrix(0.35, -0.93, 0.93, 0.35, 716.96, 1212.33)"/><ellipse class="cls-11" cx="1194.04" cy="158.48" rx="1.02" ry="1.35" transform="translate(1020.85 1350.47) rotate(-89.29)"/><ellipse class="cls-11" cx="1197.24" cy="80.3" rx="1.91" ry="1.86" transform="translate(697.21 1171.08) rotate(-69.21)"/><ellipse class="cls-11" cx="1228.22" cy="112.93" rx="2.08" ry="2.03" transform="translate(686.69 1221.09) rotate(-69.21)"/><ellipse class="cls-11" cx="1230.06" cy="138.83" rx="1.5" ry="1.46" transform="translate(663.67 1239.52) rotate(-69.21)"/><ellipse class="cls-11" cx="1241.65" cy="93.67" rx="0.86" ry="0.3" transform="translate(1084.09 1328.84) rotate(-87.04)"/><ellipse class="cls-11" cx="1324.18" cy="162.9" rx="1.01" ry="0.98" transform="translate(701.87 1343.03) rotate(-69.21)"/><ellipse class="cls-11" cx="1294.09" cy="152.66" rx="0.66" ry="0.24" transform="translate(1074.92 1437.15) rotate(-87.04)"/><ellipse class="cls-11" cx="1242.43" cy="177.7" rx="2.86" ry="2.78" transform="translate(635.3 1276.15) rotate(-69.21)"/><ellipse class="cls-11" cx="1342.25" cy="182.48" rx="1.43" ry="1.39" transform="translate(695.22 1372.56) rotate(-69.21)"/><ellipse class="cls-11" cx="1202.91" cy="86.44" rx="1.77" ry="2.34" transform="translate(1101.63 1288.19) rotate(-89.29)"/><ellipse class="cls-11" cx="1194.73" cy="87.21" rx="0.56" ry="0.75" transform="translate(1092.79 1280.78) rotate(-89.29)"/><ellipse class="cls-11" cx="1233.81" cy="68.17" rx="0.67" ry="0.89" transform="translate(1150.42 1301.04) rotate(-89.29)"/><ellipse class="cls-11" cx="1347.1" cy="154.08" rx="0.77" ry="1.02" transform="translate(1176.41 1499.18) rotate(-89.29)"/><ellipse class="cls-11" cx="1335.93" cy="98.69" rx="0.8" ry="1.06" transform="translate(1220.78 1433.3) rotate(-89.29)"/><ellipse class="cls-11" cx="1317.03" cy="134.89" rx="1.59" ry="2.11" transform="translate(1165.9 1450.16) rotate(-89.29)"/><ellipse class="cls-11" cx="1311.88" cy="101.8" rx="0.69" ry="0.91" transform="translate(1193.9 1412.32) rotate(-89.29)"/><ellipse class="cls-11" cx="1307.41" cy="138.76" rx="0.77" ry="1.02" transform="matrix(0.01, -1, 1, 0.01, 1152.53, 1444.35)"/><ellipse class="cls-11" cx="1340.22" cy="139.09" rx="0.52" ry="0.69" transform="translate(1184.61 1477.49) rotate(-89.29)"/><ellipse class="cls-11" cx="1322.27" cy="112.69" rx="1.03" ry="1.36" transform="translate(1193.27 1433.47) rotate(-89.29)"/><ellipse class="cls-11" cx="1262.24" cy="115.24" rx="3.53" ry="4.65" transform="matrix(0.01, -1, 1, 0.01, 1131.45, 1375.96)"/><ellipse class="cls-11" cx="930.38" cy="271.57" rx="1.31" ry="1.72" transform="translate(615.73 1188.27) rotate(-87.33)"/><ellipse class="cls-11" cx="1023.97" cy="282.19" rx="1.31" ry="1.72" transform="translate(694.35 1291.9) rotate(-87.33)"/><ellipse class="cls-11" cx="1027.41" cy="251.76" rx="1.51" ry="2.25" transform="translate(673.8 1248.72) rotate(-84.24)"/><ellipse class="cls-11" cx="982.3" cy="296.94" rx="1.29" ry="1.92" transform="translate(588.27 1244.48) rotate(-84.24)"/><ellipse class="cls-11" cx="990.52" cy="257.76" rx="1.29" ry="1.92" transform="translate(634.65 1217.42) rotate(-84.24)"/><ellipse class="cls-11" cx="976.85" cy="289.21" rx="1.55" ry="2.3" transform="translate(591.07 1232.1) rotate(-84.24)"/><ellipse class="cls-11" cx="1020.7" cy="268.97" rx="1.68" ry="2.5" transform="translate(650.65 1257.52) rotate(-84.24)"/><ellipse class="cls-11" cx="999.69" cy="255.06" rx="0.25" ry="1.03" transform="translate(591.62 1202.65) rotate(-81.01)"/><ellipse class="cls-11" cx="985.08" cy="285.53" rx="2.16" ry="1.92" transform="translate(-30.01 138.9) rotate(-7.95)"/><ellipse class="cls-11" cx="984.75" cy="292.31" rx="0.69" ry="0.61" transform="translate(-30.95 138.92) rotate(-7.95)"/><ellipse class="cls-11" cx="967.94" cy="257.54" rx="0.82" ry="0.73" transform="translate(-26.31 136.26) rotate(-7.95)"/><ellipse class="cls-11" cx="1028.7" cy="241.6" rx="4.3" ry="3.82" transform="translate(-23.52 144.51) rotate(-7.95)"/><ellipse class="cls-11" cx="1024.5" cy="186.65" rx="1.31" ry="1.72" transform="translate(790.29 1201.33) rotate(-87.33)"/><ellipse class="cls-11" cx="1118.09" cy="197.28" rx="1.31" ry="1.72" transform="translate(868.9 1304.96) rotate(-87.33)"/><ellipse class="cls-11" cx="1121.53" cy="166.85" rx="1.51" ry="2.25" transform="translate(842.96 1265.97) rotate(-84.24)"/><ellipse class="cls-11" cx="1076.43" cy="212.03" rx="1.29" ry="1.92" transform="translate(757.43 1261.74) rotate(-84.24)"/><ellipse class="cls-11" cx="1084.65" cy="172.85" rx="1.29" ry="1.92" transform="translate(803.81 1234.67) rotate(-84.24)"/><ellipse class="cls-11" cx="1070.98" cy="204.29" rx="1.55" ry="2.3" transform="translate(760.23 1249.36) rotate(-84.24)"/><ellipse class="cls-11" cx="1114.82" cy="184.05" rx="1.68" ry="2.5" transform="translate(819.81 1274.77) rotate(-84.24)"/><ellipse class="cls-11" cx="1093.82" cy="170.15" rx="0.25" ry="1.03" transform="translate(754.91 1223.97) rotate(-81.01)"/><ellipse class="cls-11" cx="1079.2" cy="200.62" rx="2.16" ry="1.92" transform="translate(-17.37 151.1) rotate(-7.95)"/><ellipse class="cls-11" cx="1078.87" cy="207.4" rx="0.69" ry="0.61" transform="translate(-18.31 151.11) rotate(-7.95)"/><ellipse class="cls-11" cx="1062.06" cy="172.62" rx="0.82" ry="0.73" transform="translate(-13.67 148.46) rotate(-7.95)"/><ellipse class="cls-11" cx="1122.82" cy="156.68" rx="4.3" ry="3.82" transform="translate(-10.88 156.7) rotate(-7.95)"/><ellipse class="cls-11" cx="1338.72" cy="102.31" rx="0.69" ry="0.91" transform="translate(1219.9 1439.66) rotate(-89.29)"/><ellipse class="cls-11" cx="1522.07" cy="159.33" rx="2.31" ry="2.07"/><ellipse class="cls-11" cx="1448.64" cy="142.28" rx="1.59" ry="1.42"/><ellipse class="cls-11" cx="1418.52" cy="197.21" rx="1.52" ry="1.37"/><ellipse class="cls-11" cx="1524.38" cy="232.38" rx="4.51" ry="4.05"/><ellipse class="cls-11" cx="1450.3" cy="220.19" rx="1.59" ry="1.42"/><ellipse class="cls-11" cx="1538.13" cy="241.55" rx="1.7" ry="1.65" transform="translate(766.35 1593.8) rotate(-69.21)"/><ellipse class="cls-11" cx="1584.68" cy="182.96" rx="2.69" ry="2.23" transform="translate(-0.24 2.08) rotate(-0.08)"/><ellipse class="cls-11" cx="1487.28" cy="218.32" rx="1.87" ry="1.82" transform="translate(755.27 1531.26) rotate(-69.21)"/><ellipse class="cls-11" cx="1426.22" cy="188.5" rx="1.59" ry="1.55" transform="translate(743.76 1454.95) rotate(-69.21)"/><ellipse class="cls-11" cx="1474.42" cy="189.18" rx="1.59" ry="1.55" transform="translate(774.22 1500.44) rotate(-69.21)"/><ellipse class="cls-11" cx="1431.46" cy="261.04" rx="1.02" ry="1.35" transform="translate(1152.78 1689.17) rotate(-89.29)"/><ellipse class="cls-11" cx="1434.65" cy="182.87" rx="1.91" ry="1.86" transform="translate(754.46 1459.2) rotate(-69.21)"/><ellipse class="cls-11" cx="1465.64" cy="215.49" rx="2.08" ry="2.03" transform="translate(743.95 1509.21) rotate(-69.21)"/><ellipse class="cls-11" cx="1467.48" cy="241.39" rx="1.5" ry="1.46" transform="translate(720.93 1527.64) rotate(-69.21)"/><ellipse class="cls-11" cx="1479.06" cy="196.23" rx="0.86" ry="0.3" transform="translate(1206.84 1663.21) rotate(-87.04)"/><ellipse class="cls-11" cx="1561.59" cy="265.47" rx="1.01" ry="0.98" transform="translate(759.12 1631.15) rotate(-69.21)"/><ellipse class="cls-11" cx="1531.5" cy="255.22" rx="0.66" ry="0.24" transform="translate(1197.67 1771.53) rotate(-87.04)"/><ellipse class="cls-11" cx="1440.32" cy="189" rx="1.77" ry="2.34" transform="translate(1233.56 1626.88) rotate(-89.29)"/><ellipse class="cls-11" cx="1432.15" cy="189.78" rx="0.56" ry="0.75" transform="matrix(0.01, -1, 1, 0.01, 1224.72, 1619.47)"/><ellipse class="cls-11" cx="1471.22" cy="170.73" rx="0.67" ry="0.89" transform="translate(1282.35 1639.73) rotate(-89.29)"/><ellipse class="cls-11" cx="1584.51" cy="256.65" rx="0.77" ry="1.02" transform="translate(1308.34 1837.88) rotate(-89.29)"/><ellipse class="cls-11" cx="1573.35" cy="201.25" rx="0.8" ry="1.06" transform="translate(1352.71 1772) rotate(-89.29)"/><ellipse class="cls-11" cx="1554.45" cy="237.46" rx="1.59" ry="2.11" transform="translate(1297.83 1788.86) rotate(-89.29)"/><ellipse class="cls-11" cx="1549.29" cy="204.36" rx="0.69" ry="0.91" transform="translate(1325.83 1751.01) rotate(-89.29)"/><ellipse class="cls-11" cx="1544.82" cy="241.32" rx="0.77" ry="1.02" transform="translate(1284.46 1783.05) rotate(-89.29)"/><ellipse class="cls-11" cx="1577.63" cy="241.65" rx="0.52" ry="0.69" transform="translate(1316.54 1816.19) rotate(-89.29)"/><ellipse class="cls-11" cx="1559.68" cy="215.26" rx="1.03" ry="1.36" transform="translate(1325.2 1772.17) rotate(-89.29)"/><ellipse class="cls-11" cx="1576.13" cy="204.87" rx="0.69" ry="0.91" transform="translate(1351.83 1778.36) rotate(-89.29)"/><ellipse class="cls-11" cx="2145.67" cy="286.26" rx="2.6" ry="1.73"/><ellipse class="cls-11" cx="2276.73" cy="288.68" rx="2.16" ry="1.44"/><ellipse class="cls-11" cx="2130.63" cy="338.95" rx="1.27" ry="0.93"/><ellipse class="cls-11" cx="2238.07" cy="331.88" rx="3.43" ry="2.81"/><ellipse class="cls-11" cx="2178.12" cy="338.56" rx="3.87" ry="3.18"/><ellipse class="cls-11" cx="2276.58" cy="355.19" rx="3.01" ry="2.47"/><ellipse class="cls-11" cx="2178.74" cy="231.92" rx="2.86" ry="1.91"/><ellipse class="cls-11" cx="2222.84" cy="216.98" rx="2.44" ry="1.63"/><ellipse class="cls-11" cx="2181.97" cy="209.16" rx="3.19" ry="2.13"/><ellipse class="cls-11" cx="2142.28" cy="212.42" rx="2.3" ry="1.53"/><ellipse class="cls-11" cx="2212.24" cy="222.2" rx="1.32" ry="0.32"/><ellipse class="cls-11" cx="2124.34" cy="280.04" rx="1.02" ry="0.25"/><ellipse class="cls-11" cx="2285.76" cy="299.92" rx="2.67" ry="1.78"/><ellipse class="cls-11" cx="2271.91" cy="259.9" rx="1.94" ry="1.74"/><ellipse class="cls-11" cx="2251" cy="212.69" rx="1.03" ry="0.93"/><ellipse class="cls-11" cx="2131.31" cy="345.36" rx="2.45" ry="2.2"/><ellipse class="cls-11" cx="2056.08" cy="245.09" rx="3.28" ry="2.94"/><ellipse class="cls-11" cx="2304.29" cy="342.32" rx="2.27" ry="2.04"/><ellipse class="cls-11" cx="2124.88" cy="335.51" rx="1.18" ry="1.06"/><ellipse class="cls-11" cx="1499.66" cy="217.8" rx="3.53" ry="4.65" transform="translate(1263.37 1714.66) rotate(-89.29)"/><ellipse class="cls-11" cx="2276.49" cy="239.52" rx="3.79" ry="3.41"/><ellipse class="cls-11" cx="2192.63" cy="353.61" rx="4.89" ry="4.39"/><ellipse class="cls-11" cx="2209.39" cy="320.98" rx="1.23" ry="1.1"/><ellipse class="cls-11" cx="2152.81" cy="303.1" rx="2.45" ry="2.2"/><ellipse class="cls-11" cx="2203.37" cy="296" rx="1.06" ry="0.95"/><ellipse class="cls-11" cx="2146.37" cy="293.24" rx="1.18" ry="1.06"/><ellipse class="cls-11" cx="2147.56" cy="327.54" rx="0.8" ry="0.72"/><ellipse class="cls-11" cx="2187.18" cy="307.42" rx="1.58" ry="1.42"/><ellipse class="cls-11" cx="2180.17" cy="244.83" rx="5.42" ry="4.87"/><ellipse class="cls-11" cx="2203.97" cy="324.08" rx="1.06" ry="0.95"/><ellipse class="cls-11" cx="2708.09" cy="386.04" rx="1.32" ry="0.32"/><ellipse class="cls-11" cx="2583.62" cy="309.37" rx="1.32" ry="0.32"/><ellipse class="cls-11" cx="2741.4" cy="433.56" rx="3.36" ry="2.24"/><ellipse class="cls-11" cx="2481.53" cy="382.34" rx="1.55" ry="1.03"/><ellipse class="cls-11" cx="2495.72" cy="350.38" rx="1.02" ry="0.25"/><ellipse class="cls-11" cx="2656.41" cy="370.08" rx="1.94" ry="1.6"/><ellipse class="cls-11" cx="2454.59" cy="314.52" rx="4.38" ry="2.92"/><ellipse class="cls-11" cx="2452.4" cy="402.24" rx="2.19" ry="1.46"/><ellipse class="cls-11" cx="2592.73" cy="268.51" rx="2.73" ry="2.45"/><ellipse class="cls-11" cx="2601.71" cy="189.52" rx="2.22" ry="1.99"/><ellipse class="cls-11" cx="2722.85" cy="338.14" rx="1.04" ry="0.94"/><ellipse class="cls-11" cx="2647.87" cy="326.7" rx="3.79" ry="3.41"/><ellipse class="cls-11" cx="2643.39" cy="347.01" rx="2.03" ry="1.67"/><ellipse class="cls-11" cx="2484.46" cy="252.63" rx="1.77" ry="1.59"/><ellipse class="cls-11" cx="2490.3" cy="201.35" rx="1.44" ry="1.29"/><ellipse class="cls-11" cx="2591.12" cy="260.01" rx="0.87" ry="0.78"/><ellipse class="cls-11" cx="2528.59" cy="236.43" rx="3.16" ry="2.84"/><ellipse class="cls-11" cx="2524.77" cy="253.42" rx="1.62" ry="1.45"/><ellipse class="cls-11" cx="2591.94" cy="195.1" rx="1.91" ry="1.72"/><ellipse class="cls-11" cx="2622.39" cy="299.86" rx="1.03" ry="0.93"/><ellipse class="cls-11" cx="2695.87" cy="299.59" rx="2.67" ry="1.78"/><ellipse class="cls-11" cx="2686.61" cy="239.2" rx="3.79" ry="3.41"/><ellipse class="cls-11" cx="2682.03" cy="259.57" rx="1.94" ry="1.74"/><ellipse class="cls-11" cx="2661.12" cy="212.36" rx="1.03" ry="0.93"/><ellipse class="cls-11" cx="2502.7" cy="415.7" rx="2.45" ry="2.2"/><ellipse class="cls-11" cx="2614.3" cy="405.55" rx="3.58" ry="2.96"/><ellipse class="cls-11" cx="2675.67" cy="429.49" rx="2.27" ry="2.04"/><ellipse class="cls-11" cx="2496.26" cy="405.84" rx="1.18" ry="1.06"/><ellipse class="cls-11" cx="2564.06" cy="440.47" rx="4.93" ry="4.07"/><ellipse class="cls-11" cx="2701.61" cy="437.54" rx="3.99" ry="3.59"/><ellipse class="cls-11" cx="2580.78" cy="391.32" rx="1.23" ry="1.1"/><ellipse class="cls-11" cx="2524.19" cy="373.43" rx="2.45" ry="2.2"/><ellipse class="cls-11" cx="2574.76" cy="366.34" rx="1.06" ry="0.95"/><ellipse class="cls-11" cx="2740.11" cy="376.05" rx="1.32" ry="1.19"/><ellipse class="cls-11" cx="2517.76" cy="363.58" rx="1.18" ry="1.06"/><ellipse class="cls-11" cx="2518.94" cy="397.88" rx="0.8" ry="0.72"/><ellipse class="cls-11" cx="2558.56" cy="377.76" rx="1.58" ry="1.42"/><ellipse class="cls-11" cx="2550.95" cy="331.1" rx="4.81" ry="3.97"/><ellipse class="cls-11" cx="2575.35" cy="394.41" rx="1.06" ry="0.95"/></g><g id="Stars-2" data-name="Stars"><ellipse class="cls-11" cx="194.98" cy="205.84" rx="2.42" ry="2.19"/><ellipse class="cls-11" cx="877.13" cy="286.87" rx="2.16" ry="1.75"/><ellipse class="cls-11" cx="768.39" cy="284.43" rx="1.79" ry="1.45"/><ellipse class="cls-11" cx="464.37" cy="220.71" rx="2.19" ry="1.77"/><ellipse class="cls-11" cx="296.1" cy="282.2" rx="2.36" ry="2.13"/><ellipse class="cls-11" cx="37" cy="225.77" rx="2.54" ry="2.06"/><ellipse class="cls-11" cx="889.61" cy="216.85" rx="1.05" ry="0.94"/><ellipse class="cls-11" cx="800.47" cy="240.93" rx="2.84" ry="2.83"/><ellipse class="cls-11" cx="856.09" cy="117.76" rx="1.71" ry="1.38"/><ellipse class="cls-11" cx="718.49" cy="328.93" rx="1.71" ry="1.39"/><ellipse class="cls-11" cx="597.88" cy="63.82" rx="1.96" ry="1.59"/><ellipse class="cls-11" cx="98.49" cy="315.62" rx="2.66" ry="2.15"/><ellipse class="cls-11" cx="5.05" cy="373.92" rx="2.93" ry="2.37"/><ellipse class="cls-11" cx="64.16" cy="428.04" rx="2.47" ry="2"/><ellipse class="cls-11" cx="556.73" cy="216.95" rx="1.89" ry="1.53"/><ellipse class="cls-11" cx="395.02" cy="268.08" rx="2.78" ry="2.25"/><ellipse class="cls-11" cx="206.13" cy="391.4" rx="3.74" ry="3.03"/><ellipse class="cls-11" cx="1096.19" cy="274.1" rx="3.34" ry="3.32"/><ellipse class="cls-11" cx="1017.5" cy="194.87" rx="3.26" ry="3.24"/><ellipse class="cls-11" cx="529.34" cy="303.03" rx="2.31" ry="1.87"/><ellipse class="cls-11" cx="257.34" cy="346.43" rx="2.93" ry="2.37"/><ellipse class="cls-11" cx="136.12" cy="424.29" rx="1.74" ry="1.41"/><ellipse class="cls-11" cx="4.14" cy="225.42" rx="2.28" ry="1.84"/><ellipse class="cls-11" cx="1448.89" cy="240.55" rx="2.33" ry="1.88"/><ellipse class="cls-11" cx="909.91" cy="198.98" rx="1.62" ry="1.44"/><ellipse class="cls-11" cx="850.21" cy="217.25" rx="3.21" ry="3.2"/><ellipse class="cls-11" cx="768.52" cy="200.5" rx="2.5" ry="2.48"/><ellipse class="cls-11" cx="432.12" cy="347.13" rx="2.55" ry="2.56"/><ellipse class="cls-11" cx="132.8" cy="238.81" rx="1.66" ry="1.34"/><ellipse class="cls-11" cx="255.14" cy="247.13" rx="2.2" ry="1.99"/><ellipse class="cls-11" cx="329.07" cy="335.71" rx="2.25" ry="2.04"/><ellipse class="cls-11" cx="76.55" cy="165.75" rx="2.42" ry="2.19"/><ellipse class="cls-11" cx="177.67" cy="225.16" rx="2.36" ry="2.13"/><ellipse class="cls-11" cx="136.7" cy="190.09" rx="2.2" ry="1.99"/><ellipse class="cls-11" cx="326.82" cy="208.89" rx="2.25" ry="2.04"/><ellipse class="cls-11" cx="51.44" cy="279.83" rx="2.42" ry="2.19"/><ellipse class="cls-11" cx="152.56" cy="356.2" rx="2.36" ry="2.13"/><ellipse class="cls-11" cx="111.6" cy="321.12" rx="2.2" ry="1.99"/><ellipse class="cls-11" cx="185.53" cy="409.7" rx="2.25" ry="2.04"/><ellipse class="cls-11" cx="864.08" cy="47.28" rx="2.63" ry="2.35"/><ellipse class="cls-11" cx="659.69" cy="323.43" rx="3.27" ry="2.64"/><ellipse class="cls-11" cx="464.37" cy="301.17" rx="3.72" ry="3.74"/><ellipse class="cls-11" cx="257.44" cy="496.21" rx="3.72" ry="3.74"/><ellipse class="cls-11" cx="209.87" cy="281.85" rx="3.02" ry="2.45"/><ellipse class="cls-11" cx="1144.96" cy="370.34" rx="3.13" ry="3.41"/><ellipse class="cls-11" cx="507.24" cy="464.05" rx="2.65" ry="2.66"/><ellipse class="cls-11" cx="435.22" cy="425.86" rx="3.27" ry="3.28"/><ellipse class="cls-11" cx="228.63" cy="415.33" rx="2.55" ry="2.06"/><ellipse class="cls-11" cx="729.32" cy="274.91" rx="3.12" ry="3.1"/><ellipse class="cls-11" cx="1560.92" cy="203.15" rx="1.1" ry="0.32"/><ellipse class="cls-11" cx="1078.03" cy="117.16" rx="0.73" ry="0.24"/><ellipse class="cls-11" cx="947.36" cy="160.12" rx="1.56" ry="1.39"/><ellipse class="cls-11" cx="1664.19" cy="297.31" rx="1.09" ry="0.32"/><ellipse class="cls-11" cx="985.49" cy="139" rx="1.57" ry="0.51"/><ellipse class="cls-11" cx="1065.75" cy="43.81" rx="1.11" ry="0.33"/><ellipse class="cls-11" cx="1400.39" cy="439.95" rx="1.12" ry="0.44"/><ellipse class="cls-11" cx="949.36" cy="109.01" rx="1.88" ry="1.52"/><ellipse class="cls-11" cx="1487.11" cy="115.63" rx="2.47" ry="2"/><ellipse class="cls-11" cx="1476.84" cy="60.62" rx="1.61" ry="1.3"/><ellipse class="cls-11" cx="1533.28" cy="172.25" rx="2.78" ry="2.25"/><ellipse class="cls-11" cx="1002.26" cy="326.14" rx="1.41" ry="1.14"/><ellipse class="cls-11" cx="636.61" cy="171.67" rx="2.51" ry="2.03"/><ellipse class="cls-11" cx="567.24" cy="332.99" rx="3.15" ry="3.16"/><ellipse class="cls-11" cx="661.59" cy="396.02" rx="2.42" ry="1.95"/><ellipse class="cls-11" cx="922.53" cy="395.7" rx="2.52" ry="2.75"/><ellipse class="cls-11" cx="1205.86" cy="411.41" rx="2.72" ry="2.97"/><ellipse class="cls-11" cx="1748.88" cy="206.87" rx="1.28" ry="1.04"/><ellipse class="cls-11" cx="1737.11" cy="239.06" rx="0.84" ry="0.25"/><ellipse class="cls-11" cx="1603.19" cy="219.04" rx="2.22" ry="1.79"/><ellipse class="cls-11" cx="1046.28" cy="147.37" rx="1.04" ry="0.93"/><ellipse class="cls-11" cx="898.94" cy="196.01" rx="2.48" ry="2.47"/><ellipse class="cls-11" cx="1771.24" cy="292.13" rx="3.63" ry="2.94"/><ellipse class="cls-11" cx="1066.87" cy="365.76" rx="2.33" ry="2.54"/><ellipse class="cls-11" cx="731.42" cy="100.25" rx="2.64" ry="2.13"/><ellipse class="cls-11" cx="1773.06" cy="186.84" rx="1.81" ry="1.47"/><ellipse class="cls-11" cx="1521.01" cy="212.14" rx="3.24" ry="2.62"/><ellipse class="cls-11" cx="891.18" cy="166.18" rx="1.56" ry="1.39"/><ellipse class="cls-11" cx="849.69" cy="341.59" rx="2.37" ry="1.92"/><ellipse class="cls-11" cx="839.1" cy="7.19" rx="1.97" ry="1.59"/><ellipse class="cls-11" cx="718.99" cy="458.81" rx="3.05" ry="2.47"/><ellipse class="cls-11" cx="519.54" cy="424.06" rx="1.89" ry="1.89"/><ellipse class="cls-11" cx="814.31" cy="407.38" rx="2.03" ry="1.64"/><ellipse class="cls-11" cx="1034.64" cy="479.89" rx="2.41" ry="2.62"/><ellipse class="cls-11" cx="588.5" cy="457.59" rx="2.42" ry="2.43"/><ellipse class="cls-11" cx="332.7" cy="437.87" rx="1.97" ry="1.59"/><ellipse class="cls-11" cx="413.4" cy="447.71" rx="1.19" ry="1.2"/><ellipse class="cls-11" cx="481.29" cy="459.61" rx="2.36" ry="2.37"/><ellipse class="cls-11" cx="898.94" cy="496.12" rx="1.31" ry="1.42"/><ellipse class="cls-11" cx="555.77" cy="471.77" rx="2.62" ry="2.63"/><ellipse class="cls-11" cx="284.47" cy="443.71" rx="2.65" ry="2.14"/><ellipse class="cls-11" cx="807.97" cy="449.56" rx="2.43" ry="1.97"/><ellipse class="cls-11" cx="475.2" cy="424.1" rx="1.93" ry="1.94"/><ellipse class="cls-11" cx="1520.65" cy="506.15" rx="2.44" ry="2.67"/><ellipse class="cls-11" cx="1083.24" cy="468.71" rx="2.33" ry="2.54"/><ellipse class="cls-11" cx="1276.41" cy="472.91" rx="1.91" ry="2.09"/><ellipse class="cls-11" cx="850.69" cy="478.74" rx="4.02" ry="4.4"/><ellipse class="cls-11" cx="881.14" cy="427.89" rx="1.91" ry="2.08"/><ellipse class="cls-11" cx="692.99" cy="428.97" rx="1.05" ry="0.85"/><ellipse class="cls-11" cx="1474.63" cy="484.46" rx="1.69" ry="1.85"/><ellipse class="cls-11" cx="1337.34" cy="490.08" rx="1.32" ry="1.43"/><ellipse class="cls-11" cx="1362.33" cy="434.77" rx="1.26" ry="1.38"/><ellipse class="cls-11" cx="1206.71" cy="458.73" rx="2.19" ry="2.38"/><ellipse class="cls-11" cx="965.49" cy="497.38" rx="1.03" ry="1.12"/><ellipse class="cls-11" cx="1441.74" cy="446.33" rx="2.5" ry="2.73"/><ellipse class="cls-11" cx="921.33" cy="337.33" rx="2.52" ry="2.04"/><ellipse class="cls-11" cx="1656.63" cy="338.45" rx="2.26" ry="2.47"/><ellipse class="cls-11" cx="1386.83" cy="477.11" rx="2.91" ry="3.18"/><ellipse class="cls-11" cx="1002.4" cy="452.05" rx="2.8" ry="3.06"/><ellipse class="cls-11" cx="686.19" cy="473.82" rx="3.82" ry="3.09"/><ellipse class="cls-11" cx="1274.5" cy="399.35" rx="3.74" ry="4.08"/><ellipse class="cls-11" cx="1114.23" cy="355.88" rx="3.74" ry="4.08"/><ellipse class="cls-11" cx="1005.21" cy="165.14" rx="3.74" ry="4.08"/><ellipse class="cls-11" cx="1651.9" cy="513.87" rx="2.72" ry="2.97"/><ellipse class="cls-11" cx="1649.18" cy="418" rx="1.84" ry="2"/><ellipse class="cls-11" cx="1557.95" cy="474.23" rx="3.65" ry="3.98"/><ellipse class="cls-11" cx="1548.67" cy="251.38" rx="0.86" ry="0.94"/><ellipse class="cls-11" cx="1610.88" cy="279.86" rx="3.15" ry="3.43"/><ellipse class="cls-11" cx="1733.77" cy="450.45" rx="3.66" ry="4"/><ellipse class="cls-11" cx="1614.68" cy="259.34" rx="1.61" ry="1.76"/><ellipse class="cls-11" cx="1455.27" cy="477.17" rx="2.98" ry="3.25"/><ellipse class="cls-11" cx="9.28" cy="517.67" rx="3.38" ry="2.74"/><ellipse class="cls-11" cx="187.19" cy="484.97" rx="1.86" ry="1.5"/><ellipse class="cls-11" cx="12.67" cy="444.26" rx="2.75" ry="0.81"/><ellipse class="cls-11" cx="573.78" cy="504.3" rx="3.3" ry="3.32"/><ellipse class="cls-11" cx="347" cy="483.55" rx="2.64" ry="2.14"/><ellipse class="cls-11" cx="955.52" cy="466.72" rx="3.66" ry="3.99"/><ellipse class="cls-11" cx="629.88" cy="232.78" rx="2.64" ry="2.88"/><ellipse class="cls-11" cx="1153.72" cy="511.4" rx="1.45" ry="1.58"/><ellipse class="cls-11" cx="72.92" cy="495.41" rx="2.34" ry="1.89"/><ellipse class="cls-11" cx="228.21" cy="444.42" rx="1.75" ry="1.41"/><ellipse class="cls-11" cx="446.96" cy="480.57" rx="2.71" ry="2.72"/><ellipse class="cls-11" cx="793.36" cy="481.99" rx="1.42" ry="1.15"/><ellipse class="cls-11" cx="118.4" cy="456.29" rx="3.46" ry="2.8"/><ellipse class="cls-11" cx="717.62" cy="400.58" rx="3.05" ry="2.47"/><ellipse class="cls-11" cx="518.31" cy="359.37" rx="1.89" ry="1.89"/><ellipse class="cls-11" cx="813.11" cy="356.63" rx="2.03" ry="1.64"/><ellipse class="cls-11" cx="1018.23" cy="386.26" rx="2.41" ry="2.62"/><ellipse class="cls-11" cx="587.27" cy="392.9" rx="2.42" ry="2.43"/><ellipse class="cls-11" cx="331.32" cy="379.65" rx="1.97" ry="1.59"/><ellipse class="cls-11" cx="412.17" cy="383.02" rx="1.19" ry="1.2"/><ellipse class="cls-11" cx="380.45" cy="329.38" rx="2.36" ry="2.37"/><ellipse class="cls-11" cx="533.43" cy="404.66" rx="2.36" ry="2.37"/><ellipse class="cls-11" cx="906.53" cy="398.11" rx="1.31" ry="1.42"/><ellipse class="cls-11" cx="369.85" cy="408" rx="2.62" ry="2.63"/><ellipse class="cls-11" cx="283.09" cy="385.48" rx="2.65" ry="2.14"/><ellipse class="cls-11" cx="806.77" cy="398.81" rx="2.43" ry="1.97"/><ellipse class="cls-11" cx="473.97" cy="359.41" rx="1.93" ry="1.94"/><ellipse class="cls-11" cx="1519.28" cy="427.69" rx="2.44" ry="2.67"/><ellipse class="cls-11" cx="1390.61" cy="395.82" rx="1.34" ry="1.46"/><ellipse class="cls-11" cx="1082.04" cy="400.32" rx="2.33" ry="2.54"/><ellipse class="cls-11" cx="847.02" cy="364.51" rx="2.64" ry="2.14"/><ellipse class="cls-11" cx="879.94" cy="361.22" rx="1.91" ry="1.54"/><ellipse class="cls-11" cx="691.61" cy="370.74" rx="1.05" ry="0.85"/><ellipse class="cls-11" cx="1512.02" cy="312.88" rx="1.32" ry="1.44"/><ellipse class="cls-11" cx="1335.96" cy="411.62" rx="1.32" ry="1.43"/><ellipse class="cls-11" cx="1746.45" cy="354.45" rx="1.47" ry="1.6"/><ellipse class="cls-11" cx="964.29" cy="404.07" rx="1.03" ry="1.12"/><ellipse class="cls-11" cx="1440.36" cy="366.34" rx="2.5" ry="2.02"/><ellipse class="cls-11" cx="983.86" cy="84.88" rx="1.63" ry="0.53"/><ellipse class="cls-11" cx="1741.62" cy="406.09" rx="1.19" ry="1.3"/><ellipse class="cls-11" cx="945.03" cy="194.31" rx="1.11" ry="0.99"/><ellipse class="cls-11" cx="940.16" cy="211.95" rx="1.87" ry="1.51"/><ellipse class="cls-11" cx="1658.18" cy="463.32" rx="1.59" ry="1.73"/><ellipse class="cls-11" cx="1628.3" cy="449.24" rx="1.1" ry="1.2"/><ellipse class="cls-11" cx="1682.39" cy="442.6" rx="2.37" ry="2.58"/><ellipse class="cls-11" cx="1657.97" cy="347.01" rx="0.72" ry="0.79"/><ellipse class="cls-11" cx="1709.85" cy="370.77" rx="2.63" ry="2.86"/><ellipse class="cls-11" cx="1713.01" cy="353.65" rx="1.34" ry="1.46"/><ellipse class="cls-11" cx="1615.73" cy="444.51" rx="1.93" ry="2.11"/><ellipse class="cls-11" cx="1657.28" cy="412.38" rx="1.59" ry="1.73"/><ellipse class="cls-11" cx="1632.02" cy="306.89" rx="0.86" ry="0.93"/><ellipse class="cls-11" cx="1528.79" cy="291.26" rx="1.1" ry="0.32"/><ellipse class="cls-11" cx="1571.05" cy="307.16" rx="2.22" ry="1.79"/><ellipse class="cls-11" cx="1488.87" cy="300.26" rx="3.24" ry="2.62"/><ellipse class="cls-11" cx="1516.53" cy="339.5" rx="0.86" ry="0.94"/><ellipse class="cls-11" cx="1578.74" cy="367.98" rx="3.15" ry="3.43"/><ellipse class="cls-11" cx="1582.54" cy="347.46" rx="1.61" ry="1.76"/><ellipse class="cls-11" cx="1479.89" cy="400.99" rx="1.32" ry="1.44"/><ellipse class="cls-11" cx="1599.89" cy="395" rx="0.86" ry="0.93"/><ellipse class="cls-11" cx="1587.37" cy="122.24" rx="1.84" ry="2"/><ellipse class="cls-11" cx="1731.33" cy="190.23" rx="2.03" ry="2.22"/><ellipse class="cls-11" cx="1638.99" cy="183.52" rx="2.72" ry="2.96"/><ellipse class="cls-11" cx="1587.82" cy="176.35" rx="1.88" ry="2.05"/><ellipse class="cls-11" cx="1736.67" cy="183.21" rx="0.98" ry="1.07"/><ellipse class="cls-11" cx="1679.81" cy="110.33" rx="1.19" ry="1.3"/><ellipse class="cls-11" cx="1680.46" cy="164.97" rx="4.05" ry="4.42"/><ellipse class="cls-11" cx="1648.04" cy="75" rx="2.63" ry="2.86"/><ellipse class="cls-11" cx="1566.29" cy="168.24" rx="3.31" ry="3.61"/><ellipse class="cls-11" cx="1595.48" cy="116.62" rx="1.59" ry="1.73"/><ellipse class="cls-11" cx="1565.6" cy="102.54" rx="1.1" ry="1.2"/><ellipse class="cls-11" cx="1666.55" cy="197.83" rx="1.02" ry="1.11"/><ellipse class="cls-11" cx="1713.49" cy="215.84" rx="2.03" ry="2.22"/><ellipse class="cls-11" cx="1671.54" cy="222.99" rx="0.88" ry="0.96"/><ellipse class="cls-11" cx="1534.35" cy="213.21" rx="1.1" ry="1.2"/><ellipse class="cls-11" cx="1718.83" cy="225.77" rx="0.98" ry="1.07"/><ellipse class="cls-11" cx="1717.85" cy="191.23" rx="0.66" ry="0.72"/><ellipse class="cls-11" cx="1684.98" cy="211.49" rx="1.31" ry="1.43"/><ellipse class="cls-11" cx="1690.79" cy="274.52" rx="4.5" ry="4.9"/><ellipse class="cls-11" cx="1671.04" cy="194.72" rx="0.88" ry="0.96"/><ellipse class="cls-11" cx="1510.71" cy="185.73" rx="1.1" ry="1.2"/><ellipse class="cls-11" cx="718.64" cy="257.22" rx="1.1" ry="0.32"/><ellipse class="cls-11" cx="821.9" cy="351.38" rx="1.09" ry="0.32"/><ellipse class="cls-11" cx="691" cy="209.37" rx="2.78" ry="2.25"/><ellipse class="cls-11" cx="906.6" cy="260.94" rx="1.28" ry="1.04"/><ellipse class="cls-11" cx="894.83" cy="293.13" rx="0.84" ry="0.25"/><ellipse class="cls-11" cx="760.91" cy="273.11" rx="2.22" ry="1.79"/><ellipse class="cls-11" cx="928.96" cy="346.2" rx="3.63" ry="2.94"/><ellipse class="cls-11" cx="930.78" cy="240.9" rx="1.81" ry="1.47"/><ellipse class="cls-11" cx="814.35" cy="392.52" rx="2.26" ry="2.47"/><ellipse class="cls-11" cx="791.95" cy="433.32" rx="1.84" ry="2"/><ellipse class="cls-11" cx="706.39" cy="305.45" rx="0.86" ry="0.94"/><ellipse class="cls-11" cx="768.59" cy="333.93" rx="3.15" ry="3.43"/><ellipse class="cls-11" cx="772.39" cy="313.41" rx="1.61" ry="1.76"/><ellipse class="cls-11" cx="904.17" cy="408.52" rx="1.47" ry="1.6"/><ellipse class="cls-11" cx="899.33" cy="460.16" rx="1.19" ry="1.3"/><ellipse class="cls-11" cx="815.68" cy="401.08" rx="0.72" ry="0.79"/><ellipse class="cls-11" cx="867.56" cy="424.84" rx="2.63" ry="2.86"/><ellipse class="cls-11" cx="870.73" cy="407.72" rx="1.34" ry="1.46"/><ellipse class="cls-11" cx="815" cy="466.45" rx="1.59" ry="1.73"/><ellipse class="cls-11" cx="789.74" cy="360.96" rx="0.86" ry="0.93"/><ellipse class="cls-11" cx="392.41" cy="193.02" rx="2.03" ry="1.64"/><ellipse class="cls-11" cx="391.21" cy="142.26" rx="2.03" ry="1.64"/><ellipse class="cls-11" cx="384.88" cy="184.44" rx="2.43" ry="1.97"/><ellipse class="cls-11" cx="392.45" cy="178.16" rx="2.26" ry="2.47"/><ellipse class="cls-11" cx="393.79" cy="186.72" rx="0.72" ry="0.79"/><ellipse class="cls-11" cx="367.85" cy="146.59" rx="0.86" ry="0.93"/><ellipse class="cls-11" cx="728.77" cy="361.22" rx="2.22" ry="1.79"/><ellipse class="cls-11" cx="736.46" cy="422.05" rx="3.15" ry="3.43"/><ellipse class="cls-11" cx="740.26" cy="401.53" rx="1.61" ry="1.76"/><ellipse class="cls-11" cx="757.6" cy="449.07" rx="0.86" ry="0.93"/><ellipse class="cls-11" cx="889.05" cy="227.35" rx="2.03" ry="2.22"/><ellipse class="cls-11" cx="796.71" cy="155.62" rx="2.72" ry="2.96"/><ellipse class="cls-11" cx="745.53" cy="213.46" rx="1.88" ry="2.05"/><ellipse class="cls-11" cx="894.38" cy="237.28" rx="0.98" ry="1.07"/><ellipse class="cls-11" cx="838.17" cy="202.09" rx="4.05" ry="4.42"/><ellipse class="cls-11" cx="724.01" cy="205.36" rx="3.31" ry="3.61"/><ellipse class="cls-11" cx="824.26" cy="251.9" rx="1.02" ry="1.11"/><ellipse class="cls-11" cx="871.21" cy="269.91" rx="2.03" ry="2.22"/><ellipse class="cls-11" cx="829.26" cy="277.06" rx="0.88" ry="0.96"/><ellipse class="cls-11" cx="692.07" cy="267.28" rx="1.1" ry="1.2"/><ellipse class="cls-11" cx="876.55" cy="279.84" rx="0.98" ry="1.07"/><ellipse class="cls-11" cx="875.57" cy="245.29" rx="0.66" ry="0.72"/><ellipse class="cls-11" cx="842.7" cy="265.56" rx="1.31" ry="1.43"/><ellipse class="cls-11" cx="1006.16" cy="284.72" rx="2.16" ry="1.75"/><ellipse class="cls-11" cx="1035.64" cy="258.79" rx="1.28" ry="1.04"/><ellipse class="cls-11" cx="1023.86" cy="290.99" rx="0.84" ry="0.25"/><ellipse class="cls-11" cx="1000.24" cy="267.77" rx="2.03" ry="2.22"/><ellipse class="cls-11" cx="1005.58" cy="277.69" rx="0.98" ry="1.07"/><ellipse class="cls-11" cx="971.73" cy="263.41" rx="1.31" ry="1.43"/><ellipse class="cls-11" cx="848.51" cy="328.59" rx="4.5" ry="4.9"/><ellipse class="cls-11" cx="828.76" cy="248.79" rx="0.88" ry="0.96"/><ellipse class="cls-11" cx="1263.09" cy="390.11" rx="1.7" ry="1.38" transform="translate(822.2 1636.38) rotate(-87.68)"/><ellipse class="cls-11" cx="1224.47" cy="449.11" rx="2.24" ry="2.23" transform="translate(733.59 1657.44) rotate(-88.03)"/><ellipse class="cls-11" cx="1350.21" cy="357.79" rx="1.99" ry="2.17" transform="translate(937.09 1692.11) rotate(-87.64)"/><ellipse class="cls-11" cx="1305.28" cy="413.51" rx="1.87" ry="1.51" transform="translate(839.31 1700.99) rotate(-87.68)"/><ellipse class="cls-11" cx="1355.94" cy="443.54" rx="1.6" ry="1.29" transform="translate(857.92 1780.42) rotate(-87.68)"/><ellipse class="cls-11" cx="1304.23" cy="356.86" rx="1.99" ry="1.61" transform="translate(894.9 1645.59) rotate(-87.68)"/><ellipse class="cls-11" cx="1315.95" cy="442.85" rx="1.6" ry="1.29" transform="matrix(0.04, -1, 1, 0.04, 820.22, 1739.81)"/><ellipse class="cls-11" cx="1351.59" cy="370.49" rx="1.03" ry="1.12" transform="translate(925.73 1705.67) rotate(-87.64)"/><ellipse class="cls-11" cx="1348.94" cy="449.21" rx="1.92" ry="1.55" transform="translate(845.54 1778.87) rotate(-87.68)"/><ellipse class="cls-11" cx="1323.23" cy="416.36" rx="2.09" ry="1.69" transform="translate(853.69 1721.67) rotate(-87.68)"/><ellipse class="cls-11" cx="1321.71" cy="390.27" rx="1.51" ry="1.22" transform="translate(878.29 1695.11) rotate(-87.68)"/><ellipse class="cls-11" cx="1312.09" cy="435.75" rx="0.86" ry="0.25" transform="translate(823.42 1729.06) rotate(-87.67)"/><ellipse class="cls-11" cx="1243.63" cy="366.03" rx="1.01" ry="0.82" transform="translate(827.59 1593.83) rotate(-87.68)"/><ellipse class="cls-11" cx="1268.59" cy="376.35" rx="0.67" ry="0.2" transform="translate(841.03 1628.6) rotate(-87.67)"/><ellipse class="cls-11" cx="1311.45" cy="351.13" rx="2.87" ry="2.32" transform="translate(907.56 1647.3) rotate(-87.68)"/><ellipse class="cls-11" cx="1228.63" cy="346.31" rx="1.43" ry="1.16" transform="translate(832.9 1559.93) rotate(-87.68)"/><ellipse class="cls-11" cx="1344.24" cy="443.03" rx="1.79" ry="1.94" transform="translate(846.19 1767.87) rotate(-87.64)"/><ellipse class="cls-11" cx="1351.02" cy="442.25" rx="0.57" ry="0.62" transform="matrix(0.04, -1, 1, 0.04, 853.48, 1773.9)"/><ellipse class="cls-11" cx="1318.6" cy="461.43" rx="0.68" ry="0.73" transform="translate(803.23 1759.9) rotate(-87.64)"/><ellipse class="cls-11" cx="1224.61" cy="374.91" rx="0.77" ry="0.84" transform="translate(799.55 1583.03) rotate(-87.64)"/><ellipse class="cls-11" cx="1233.87" cy="430.7" rx="0.81" ry="0.88" transform="translate(752.69 1645.77) rotate(-87.64)"/><ellipse class="cls-11" cx="1249.55" cy="394.24" rx="1.61" ry="1.75" transform="translate(804.16 1626.48) rotate(-87.64)"/><ellipse class="cls-11" cx="1253.83" cy="427.56" rx="0.7" ry="0.76" transform="translate(774.96 1662.71) rotate(-87.64)"/><ellipse class="cls-11" cx="1257.54" cy="390.34" rx="0.77" ry="0.84" transform="translate(815.7 1630.73) rotate(-87.64)"/><ellipse class="cls-11" cx="1230.31" cy="390.01" rx="0.52" ry="0.57" transform="translate(789.94 1603.21) rotate(-87.64)"/><ellipse class="cls-11" cx="1245.21" cy="416.59" rx="1.04" ry="1.13" transform="translate(777.66 1643.58) rotate(-87.64)"/><ellipse class="cls-11" cx="1295.01" cy="414.03" rx="3.55" ry="3.86" transform="translate(827.97 1690.88) rotate(-87.64)"/><ellipse class="cls-11" cx="1570.35" cy="256.6" rx="1.32" ry="1.43" transform="translate(1072.28 1767.82) rotate(-81.04)"/><ellipse class="cls-11" cx="1492.7" cy="245.9" rx="1.32" ry="1.43" transform="matrix(0.16, -0.99, 0.99, 0.16, 1017.3, 1682.08)"/><ellipse class="cls-11" cx="1489.84" cy="276.55" rx="1.51" ry="1.87" transform="translate(928.36 1683.97) rotate(-78.77)"/><ellipse class="cls-11" cx="1527.27" cy="231.05" rx="1.29" ry="1.6" transform="translate(1003.11 1684.04) rotate(-78.77)"/><ellipse class="cls-11" cx="1520.45" cy="270.5" rx="1.29" ry="1.6" transform="translate(958.92 1709.12) rotate(-78.77)"/><ellipse class="cls-11" cx="1531.79" cy="238.84" rx="1.55" ry="1.92" transform="translate(999.11 1694.75) rotate(-78.77)"/><ellipse class="cls-11" cx="1495.41" cy="259.22" rx="1.69" ry="2.09" transform="translate(949.83 1675.48) rotate(-78.77)"/><ellipse class="cls-11" cx="1512.84" cy="273.22" rx="0.25" ry="0.86" transform="translate(951.23 1704.28) rotate(-78.81)"/><ellipse class="cls-11" cx="1524.97" cy="242.54" rx="1.95" ry="1.78" transform="translate(995.06 1692.9) rotate(-78.97)"/><ellipse class="cls-11" cx="1525.24" cy="235.71" rx="0.62" ry="0.57" transform="translate(1001.98 1687.65) rotate(-78.97)"/><ellipse class="cls-11" cx="1539.19" cy="270.73" rx="0.74" ry="0.67" transform="translate(978.89 1729.65) rotate(-78.97)"/><ellipse class="cls-11" cx="1488.78" cy="286.78" rx="3.87" ry="3.55" transform="translate(922.37 1693.15) rotate(-78.97)"/><ellipse class="cls-11" cx="1492.26" cy="342.11" rx="1.32" ry="1.43" transform="translate(921.89 1762.87) rotate(-81.04)"/><ellipse class="cls-11" cx="1414.61" cy="331.41" rx="1.32" ry="1.43" transform="translate(866.9 1677.13) rotate(-81.04)"/><ellipse class="cls-11" cx="1411.75" cy="362.05" rx="1.51" ry="1.87" transform="translate(781.61 1676.22) rotate(-78.77)"/><ellipse class="cls-11" cx="1449.18" cy="316.56" rx="1.29" ry="1.6" transform="translate(856.37 1676.3) rotate(-78.77)"/><ellipse class="cls-11" cx="1442.36" cy="356.01" rx="1.29" ry="1.6" transform="translate(812.18 1701.38) rotate(-78.77)"/><ellipse class="cls-11" cx="1453.7" cy="324.35" rx="1.55" ry="1.92" transform="translate(852.36 1687.01) rotate(-78.77)"/><ellipse class="cls-11" cx="1417.32" cy="344.73" rx="1.69" ry="2.09" transform="translate(803.09 1667.74) rotate(-78.77)"/><ellipse class="cls-11" cx="1434.75" cy="358.73" rx="0.25" ry="0.86" transform="translate(804.41 1696.59) rotate(-78.81)"/><ellipse class="cls-11" cx="1446.88" cy="328.05" rx="1.95" ry="1.78" transform="translate(847.98 1685.4) rotate(-78.97)"/><ellipse class="cls-11" cx="1447.15" cy="321.22" rx="0.62" ry="0.57" transform="translate(854.91 1680.15) rotate(-78.97)"/><ellipse class="cls-11" cx="1461.1" cy="356.24" rx="0.74" ry="0.67" transform="translate(831.81 1722.15) rotate(-78.97)"/><ellipse class="cls-11" cx="1410.69" cy="372.29" rx="3.87" ry="3.55" transform="translate(775.29 1685.65) rotate(-78.97)"/><ellipse class="cls-11" cx="1231.56" cy="427.05" rx="0.7" ry="0.76" transform="translate(754.13 1639.96) rotate(-87.64)"/><ellipse class="cls-11" cx="1079.44" cy="369.62" rx="1.91" ry="2.09"/><ellipse class="cls-11" cx="1140.36" cy="386.8" rx="1.32" ry="1.43"/><ellipse class="cls-11" cx="1165.35" cy="331.48" rx="1.26" ry="1.38"/><ellipse class="cls-11" cx="1077.52" cy="296.07" rx="3.74" ry="4.08"/><ellipse class="cls-11" cx="1138.99" cy="308.34" rx="1.32" ry="1.43"/><ellipse class="cls-11" cx="1066.11" cy="286.83" rx="1.7" ry="1.38" transform="translate(736.4 1340.46) rotate(-87.68)"/><ellipse class="cls-11" cx="1027.5" cy="345.83" rx="2.24" ry="2.23" transform="translate(646.6 1360.84) rotate(-88.03)"/><ellipse class="cls-11" cx="1108.3" cy="310.23" rx="1.87" ry="1.51" transform="translate(753.5 1405.07) rotate(-87.68)"/><ellipse class="cls-11" cx="1158.96" cy="340.25" rx="1.6" ry="1.29" transform="translate(772.11 1484.5) rotate(-87.68)"/><ellipse class="cls-11" cx="1118.97" cy="339.57" rx="1.6" ry="1.29" transform="translate(734.42 1443.89) rotate(-87.68)"/><ellipse class="cls-11" cx="1154.62" cy="267.2" rx="1.03" ry="1.12" transform="translate(840.06 1409.83) rotate(-87.64)"/><ellipse class="cls-11" cx="1151.97" cy="345.92" rx="1.92" ry="1.55" transform="translate(759.73 1482.95) rotate(-87.68)"/><ellipse class="cls-11" cx="1126.26" cy="313.07" rx="2.09" ry="1.69" transform="translate(767.88 1425.74) rotate(-87.68)"/><ellipse class="cls-11" cx="1124.73" cy="286.99" rx="1.51" ry="1.22" transform="translate(792.48 1399.19) rotate(-87.68)"/><ellipse class="cls-11" cx="1115.12" cy="332.46" rx="0.86" ry="0.25" transform="translate(737.64 1433.16) rotate(-87.67)"/><ellipse class="cls-11" cx="1046.65" cy="262.74" rx="1.01" ry="0.82" transform="translate(741.78 1297.91) rotate(-87.68)"/><ellipse class="cls-11" cx="1071.61" cy="273.06" rx="0.67" ry="0.2" transform="translate(755.25 1332.7) rotate(-87.67)"/><ellipse class="cls-11" cx="1147.26" cy="339.74" rx="1.79" ry="1.94" transform="translate(760.53 1472.03) rotate(-87.64)"/><ellipse class="cls-11" cx="1154.04" cy="338.97" rx="0.57" ry="0.62" transform="translate(767.81 1478.06) rotate(-87.64)"/><ellipse class="cls-11" cx="1121.63" cy="358.14" rx="0.68" ry="0.73" transform="translate(717.57 1464.06) rotate(-87.64)"/><ellipse class="cls-11" cx="1027.63" cy="271.62" rx="0.77" ry="0.84" transform="translate(713.89 1287.19) rotate(-87.64)"/><ellipse class="cls-11" cx="1036.89" cy="327.41" rx="0.81" ry="0.88" transform="translate(667.03 1349.93) rotate(-87.64)"/><ellipse class="cls-11" cx="1052.58" cy="290.95" rx="1.61" ry="1.75" transform="translate(718.5 1330.65) rotate(-87.64)"/><ellipse class="cls-11" cx="1056.85" cy="324.28" rx="0.7" ry="0.76" transform="translate(689.3 1366.87) rotate(-87.64)"/><ellipse class="cls-11" cx="1060.56" cy="287.06" rx="0.77" ry="0.84" transform="translate(730.04 1334.89) rotate(-87.64)"/><ellipse class="cls-11" cx="1033.34" cy="286.73" rx="0.52" ry="0.57" transform="translate(704.27 1307.37) rotate(-87.64)"/><ellipse class="cls-11" cx="1048.23" cy="313.31" rx="1.04" ry="1.13" transform="translate(691.99 1347.74) rotate(-87.64)"/><ellipse class="cls-11" cx="1034.59" cy="323.76" rx="0.7" ry="0.76" transform="translate(668.46 1344.13) rotate(-87.64)"/><ellipse class="cls-11" cx="562.05" cy="241.8" rx="2.16" ry="1.75"/><ellipse class="cls-11" cx="453.32" cy="239.37" rx="1.79" ry="1.45"/><ellipse class="cls-11" cx="574.54" cy="188.74" rx="1.05" ry="0.94"/><ellipse class="cls-11" cx="485.4" cy="195.87" rx="2.84" ry="2.83"/><ellipse class="cls-11" cx="535.13" cy="189.14" rx="3.21" ry="3.2"/><ellipse class="cls-11" cx="453.44" cy="172.39" rx="2.5" ry="2.48"/><ellipse class="cls-11" cx="534.61" cy="296.52" rx="2.37" ry="1.92"/><ellipse class="cls-11" cx="498.03" cy="311.57" rx="2.03" ry="1.64"/><ellipse class="cls-11" cx="531.94" cy="319.44" rx="2.64" ry="2.14"/><ellipse class="cls-11" cx="564.87" cy="316.16" rx="1.91" ry="1.54"/><ellipse class="cls-11" cx="506.83" cy="306.32" rx="1.09" ry="0.32"/><ellipse class="cls-11" cx="579.75" cy="248.07" rx="0.84" ry="0.25"/><ellipse class="cls-11" cx="445.83" cy="228.05" rx="2.22" ry="1.79"/><ellipse class="cls-11" cx="457.31" cy="268.35" rx="1.61" ry="1.76"/><ellipse class="cls-11" cx="474.66" cy="315.89" rx="0.86" ry="0.93"/><ellipse class="cls-11" cx="573.97" cy="182.29" rx="2.03" ry="2.22"/><ellipse class="cls-11" cx="636.39" cy="283.26" rx="2.72" ry="2.96"/><ellipse class="cls-11" cx="430.46" cy="185.36" rx="1.88" ry="2.05"/><ellipse class="cls-11" cx="579.3" cy="192.22" rx="0.98" ry="1.07"/><ellipse class="cls-11" cx="1098.03" cy="310.75" rx="3.55" ry="3.86" transform="translate(742.3 1395.04) rotate(-87.64)"/><ellipse class="cls-11" cx="453.52" cy="288.87" rx="3.15" ry="3.43"/><ellipse class="cls-11" cx="523.1" cy="173.98" rx="4.05" ry="4.42"/><ellipse class="cls-11" cx="509.19" cy="206.84" rx="1.02" ry="1.11"/><ellipse class="cls-11" cx="556.13" cy="224.85" rx="2.03" ry="2.22"/><ellipse class="cls-11" cx="514.18" cy="232" rx="0.88" ry="0.96"/><ellipse class="cls-11" cx="561.47" cy="234.78" rx="0.98" ry="1.07"/><ellipse class="cls-11" cx="560.49" cy="200.23" rx="0.66" ry="0.72"/><ellipse class="cls-11" cx="527.62" cy="220.49" rx="1.31" ry="1.43"/><ellipse class="cls-11" cx="533.43" cy="283.53" rx="4.5" ry="4.9"/><ellipse class="cls-11" cx="513.68" cy="203.73" rx="0.88" ry="0.96"/><ellipse class="cls-11" cx="95.43" cy="141.32" rx="1.1" ry="0.32"/><ellipse class="cls-11" cx="198.7" cy="218.53" rx="1.09" ry="0.32"/><ellipse class="cls-11" cx="67.79" cy="93.47" rx="2.78" ry="2.25"/><ellipse class="cls-11" cx="283.4" cy="145.05" rx="1.28" ry="1.04"/><ellipse class="cls-11" cx="271.63" cy="177.24" rx="0.84" ry="0.25"/><circle class="cls-11" cx="138.31" cy="157.4" r="1.61"/><ellipse class="cls-11" cx="305.75" cy="213.35" rx="3.63" ry="2.94"/><ellipse class="cls-11" cx="307.57" cy="125.01" rx="1.81" ry="1.47"/><ellipse class="cls-11" cx="191.14" cy="259.68" rx="2.26" ry="2.47"/><ellipse class="cls-11" cx="183.69" cy="339.22" rx="1.84" ry="2"/><ellipse class="cls-11" cx="83.18" cy="189.56" rx="0.86" ry="0.94"/><ellipse class="cls-11" cx="145.39" cy="201.09" rx="3.15" ry="3.43"/><circle class="cls-11" cx="149.11" cy="180.64" r="1.69"/><ellipse class="cls-11" cx="280.97" cy="275.68" rx="1.47" ry="1.6"/><ellipse class="cls-11" cx="276.13" cy="327.32" rx="1.19" ry="1.3"/><ellipse class="cls-11" cx="192.48" cy="268.24" rx="0.72" ry="0.79"/><ellipse class="cls-11" cx="244.36" cy="291.99" rx="2.63" ry="2.86"/><ellipse class="cls-11" cx="247.53" cy="274.88" rx="1.34" ry="1.46"/><ellipse class="cls-11" cx="191.8" cy="333.61" rx="1.59" ry="1.73"/><ellipse class="cls-11" cx="166.54" cy="228.11" rx="0.86" ry="0.93"/><ellipse class="cls-11" cx="105.57" cy="228.38" rx="2.22" ry="1.79"/><ellipse class="cls-11" cx="113.26" cy="289.2" rx="3.15" ry="3.43"/><ellipse class="cls-11" cx="117.05" cy="268.68" rx="1.61" ry="1.76"/><ellipse class="cls-11" cx="134.4" cy="316.23" rx="0.86" ry="0.93"/><ellipse class="cls-11" cx="265.84" cy="111.46" rx="2.03" ry="2.22"/><circle class="cls-11" cx="173.25" cy="121.68" r="2.97"/><ellipse class="cls-11" cx="122.33" cy="97.57" rx="1.88" ry="2.05"/><ellipse class="cls-11" cx="271.18" cy="121.38" rx="0.98" ry="1.07"/><ellipse class="cls-11" cx="214.93" cy="86.52" rx="4.09" ry="4.1"/><ellipse class="cls-11" cx="100.8" cy="89.47" rx="3.31" ry="3.61"/><ellipse class="cls-11" cx="201.06" cy="136.01" rx="1.02" ry="1.11"/><ellipse class="cls-11" cx="248.01" cy="154.02" rx="2.03" ry="2.22"/><ellipse class="cls-11" cx="206.05" cy="161.16" rx="0.88" ry="0.96"/><ellipse class="cls-11" cx="68.87" cy="151.39" rx="1.1" ry="1.2"/><ellipse class="cls-11" cx="253.34" cy="163.95" rx="0.98" ry="1.07"/><ellipse class="cls-11" cx="252.36" cy="129.4" rx="0.66" ry="0.72"/><ellipse class="cls-11" cx="219.49" cy="149.66" rx="1.31" ry="1.43"/><ellipse class="cls-11" cx="225.81" cy="196.65" rx="3.99" ry="4"/><ellipse class="cls-11" cx="205.56" cy="132.89" rx="0.88" ry="0.96"/></g><g id="Meteors"><g id="Meteor" class="cls-12"><path class="cls-13" d="M2737.57,138.73l-303.86,107.7a1.5,1.5,0,1,1-1-2.83h0l304.79-105a.09.09,0,1,1,.06.18Z"/></g><g id="Meteor-2" data-name="Meteor" class="cls-12"><path class="cls-14" d="M1852.67,443.72l-167.11,54.12a1.5,1.5,0,0,1-.92-2.86h0l168-51.44a.1.1,0,0,1,.05.19Z"/></g><g id="Meteor-3" data-name="Meteor" class="cls-12"><path class="cls-15" d="M1455.89,241.76l-167.11,54.12a1.5,1.5,0,0,1-.92-2.86h0l168-51.45a.1.1,0,0,1,.05.19Z"/></g><g id="Meteor-4" data-name="Meteor" class="cls-12"><path class="cls-16" d="M424.45,352.07,144.22,459a1.5,1.5,0,0,1-1.07-2.8h0L424.38,351.89a.09.09,0,0,1,.12.06A.09.09,0,0,1,424.45,352.07Z"/></g><g id="Meteor-5" data-name="Meteor" class="cls-12"><path class="cls-17" d="M2249.45,24.87l-335.14,107a1.5,1.5,0,1,1-.92-2.85h0l336-104.37a.09.09,0,1,1,.06.18Z"/></g><g id="Meteor-6" data-name="Meteor" class="cls-12"><path class="cls-18" d="M294.49,29.65,95.9,93.69A1.5,1.5,0,0,1,95,90.83h0L294.43,29.47a.1.1,0,0,1,.13.06A.11.11,0,0,1,294.49,29.65Z"/></g><g id="Meteor-7" data-name="Meteor" class="cls-12"><path class="cls-19" d="M855.7,110.38,520.56,217.43a1.5,1.5,0,1,1-.91-2.86h0l336-104.38a.11.11,0,0,1,.13.07A.11.11,0,0,1,855.7,110.38Z"/></g></g><path class="cls-2" d="M2428.92,174.6c0-40.56-24.08-77.47-61.48-93.17a72,72,0,0,1-9-4.56C2288.82,35.49,2176-24,2123.6,63.75s26.47,95.33,24.67,150.89c-1.76,54.5,17.63,87.81,54.19,89.32,29.26,1.21,50.05-9.53,71,2.15A103.83,103.83,0,0,0,2324,319.6h3.63a101.34,101.34,0,0,0,101.34-101.34Z"/><path class="cls-2" d="M2243.13,243.56c2.95,33.77,27,62.64,61.43,72.8a66.5,66.5,0,0,1,8.33,3.1c64.88,29.05,169.46,69.87,209.68-7.31s-30.46-77.31-32.9-123.71c-2.4-45.52-22.05-71.74-54.66-70.16-26.09,1.26-43.8,11.81-63.23,3.71a97.45,97.45,0,0,0-45.89-7.31l-3.23.28c-49.75,4.34-86.77,45.64-82.7,92.24Z"/></g></g></svg>