<svg xmlns="http://www.w3.org/2000/svg" viewBox="0 0 826.94 802.05"><defs><style>.cls-1{fill:#ff6a6e;}.cls-2{fill:#dc5252;}.cls-3{fill:#bd3d3c;}.cls-4{fill:#fe8f9f;}.cls-5{fill:#df5352;}.cls-6{fill:#f6b865;}.cls-7{fill:#f09c2a;}.cls-8{fill:#fbc692;}.cls-9{fill:#ff90a1;}.cls-10{fill:#f79594;}.cls-11{fill:#f27d7d;}.cls-12{fill:#ed6160;}.cls-13{fill:#f9b1b2;}</style></defs><title>pancreas</title><g id="organos_ai" data-name="organos ai"><path class="cls-1" d="M209.94,188.21s25,2.08,22.89,39.54,2.08,93.65-41.62,99.89S120.45,300.59,108,336s-8.33,108.21,0,118.62,12.48,14.57,8.32,27.05-16.65,77,58.27,72.84c0,0,4.16,0,4.16,2.08s8.33,43.7,37.46,50,52-6.25,58.27-22.89c0,0,2.08-4.17,6.25,0,3.9,3.9,55.45,31.63,84.14-18.27a75.37,75.37,0,0,0,5.86-14c.52-1.56,1.56-3.12,3.65-3.12,4.16,0,47.86,0,58.27-33.3,0,0,6.24-20.81-8.33-37.46,0,0-2.08-2.08,2.08-4.16s20.81-2.08,35.38-39.54c0,0,0-4.16,4.16-2.08s37.46,8.32,47.87-20.81c0,0,2.08-4.17,8.32,0s35.38,12.48,52-6.25c0,0,4.16-6.24,8.32-2.08s77,70.76,108.22,222.68c0,0,10.41,27-43.7,43.7,0,0-56.19,4.16-54.11-16.65s-8.33-77-31.22-120.7S505.45,442.1,488.81,465,453.43,539.91,443,573.21,401.4,668.94,305.67,685.59,135,664.78,76.75,598.18,3.91,454.59,16.4,367.18,118.37,184.05,209.94,188.21Z"/><path class="cls-2" d="M165.89,327.35s-20.46-12.19-32.95-26.76c-13.94-16.27-33.3-4.16-37.46,14.57s4.92,68.39,4.92,68.39.71-57.51,19.75-62.95S157.22,327.06,165.89,327.35Z"/><path class="cls-3" d="M191.21,217.34c6.24-12.48,12.89-14.45,18.71-15.25,4.22-.59,8.94.69,12.51,6.93,8.32,14.57,4.16,110.3-27.06,104C168.75,307.75,181.1,237.56,191.21,217.34Z"/><path class="cls-4" d="M28,393.15A13.51,13.51,0,0,1,40.34,381c3.93-.23,8.17,1.32,11.44,7,8.32,14.57-2.08,54.11,10.4,83.25s-14.08,30.9-20.81,20.81C33.05,479.56,21.69,450.93,28,393.15Z"/><path class="cls-5" d="M582.45,402.56C609.51,423.37,642.71,487,642.71,487L542,498s-32.33-51.77-51.3-35.22-45.92,105-45.92,105c-25.35,5-57.9,69.9-128.65,88.63s-112.38-25-112.38-25S185,614.83,153.75,600.26,110.05,567,110.05,567c-31.22-56.19,6.22-100.84,6.22-100.84L370.18,338.05Z"/><path class="cls-6" d="M147.51,383.83S91.32,396.32,108,454.59c0,0,11.38,13.75,9.85,20.4s-12.91,42,5.27,62.81,49.43,16.77,49.43,16.77,6.2-.09,6.2,2,4.84,45,40.92,50.6,51.63-17.4,51.63-17.4,1.1-2,3.18-6.14,6.25,0,6.25,0,44.48,29.71,75.31-6A59.45,59.45,0,0,0,370.17,553s0-4.71,4.18-4.71,37.95-2.19,50.19-18.79a39.76,39.76,0,0,0,6.7-40.45s-2.79-7.36-6.95-11.52c0,0-2.38-2.81,3-4.52,0,0,12.51-3.8,18.3-11.09,0,0,11.66-14.67,16-27.62,0,0-1-4.24,4.79-2.36s33,6.87,46.43-18.51c0,0,1.58-6.6,7.53-3.51s33,16,56.94-8.14c0,0,34.33,9.16,51-20,0,0,2.08-2.08,14.57,0s41.62,2.08,56.18-43.7c0,0,0-4.16,12.49-4.16s60.35-16.65,62.43-60.36c0,0,0-10.4,2.08-10.4,1.87,0,43.7-23.32,34.62-56.54a34.08,34.08,0,0,0-9.18-14.91,13.54,13.54,0,0,1-2.54-3.47c-2.08-4.16,25-27.05,12.48-58.27-10.64-26.61-37.92-18.44-52.18-3.85a14.34,14.34,0,0,1-20.77-.12c-.65-.7-1.31-1.45-2-2.27-8.32-10.41-41.62-10.41-49.94,16.64,0,0-33.3-14.56-43.7,16.65,0,0-62.44-29.13-70.76,31.22,0,0-43.7-18.73-56.19,18.73,0,0-25-20.81-64.51,10.4,0,0-50-47.86-89.49,4.17,0,0-47.87-41.62-66.6,2.08,0,0-4.16,12.48-4.16,22.89,0,0-20.81-4.16-25,10.41,0,0-7.88-10-17.87-14a11.25,11.25,0,0,0-15.48,10.64c.47,21.72-2.91,71.25-43,74.41a48.48,48.48,0,0,1-5,.07l-8-.2a9.05,9.05,0,0,0-9.21,9.37c.08,3.71-.62,7.08-3.43,7.08C157.91,344.29,137.1,350.53,147.51,383.83Z"/><path class="cls-7" d="M165.89,554.64s14.91-52.19,42-87.57,27-43.7,20.81-91.56a7.41,7.41,0,0,1,4.16-6.25c4.16-2.08,10.41-4.16,10.41,4.17s-2.08,47.86,12.48,41.62,10.41-20.81,79.08-49.95c0,0,18.46-5,28.25-43.72a129.45,129.45,0,0,0,3.24-19.68c.4-4.19,1.4-9.44,3.89-9.44,4.17,0,12.49,0,12.49,4.17,0,0-4.16,47.86-18.73,58.27s31.22-2.08,52-10.41,66.59-31.22,68.67-70.76c0,0,4.17-6.24,12.49,0s-14.57,45.79-20.81,45.79,0,6.24,27.05,2.08,60.35-18.73,74.92-56.19a226.3,226.3,0,0,0,2.08-27s14.57-6.25,14.57,4.16-2.08,35.38-14.57,47.86c0,0-2.08,4.16,12.49-4.16S665.7,234,674,217.34c0,0,14.57,0,10.41,10.41s-58.27,64.51-95.73,77c0,0-2.08,4.16,12.48,2.08s39.54,10.41,37.46,16.65-8.32,10.41-14.56,6.24S584.53,311,551.24,321.4,509.62,336,488.81,338.05c0,0-6.25,0,4.16,8.32s29.13,27.06,27,31.22-6.24,6.24-14.57-2.08S486.72,356.78,468,352.62s-102,16.64-102,25,35.38,22.89,31.22,29.13-6.25,6.25-18.73,0-37.46-25-56.19-14.56-64.52,35.37-56.19,45.78,54.11-4.16,56.19,6.24,2.08,18.73-8.33,18.73-70.75-27.05-99.89,35.38S185.38,580,185.38,580s-5.56-12.61-6.52-21.14a4.76,4.76,0,0,0-3.68-4.29,3.18,3.18,0,0,0-.62-.06C172.48,554.48,165.89,554.64,165.89,554.64Z"/><ellipse class="cls-8" cx="402.44" cy="249.6" rx="15.61" ry="17.69" transform="translate(-42.05 86.25) rotate(-11.63)"/><circle class="cls-8" cx="333.76" cy="251.68" r="15.61"/><circle class="cls-8" cx="417.01" cy="309.95" r="15.61"/><circle class="cls-8" cx="424.29" cy="387.99" r="16.65"/><circle class="cls-8" cx="476.32" cy="392.16" r="12.49"/><circle class="cls-8" cx="461.75" cy="250.64" r="12.49"/><circle class="cls-8" cx="536.67" cy="254.8" r="16.65"/><circle class="cls-8" cx="563.72" cy="358.86" r="16.65"/><ellipse class="cls-8" cx="660.49" cy="343.25" rx="13.53" ry="15.61"/><circle class="cls-8" cx="677.14" cy="280.82" r="13.53"/><circle class="cls-8" cx="618.87" cy="226.71" r="13.53"/><circle class="cls-8" cx="618.87" cy="176.76" r="15.61"/><circle class="cls-8" cx="675.06" cy="185.09" r="13.53"/><circle class="cls-8" cx="745.82" cy="218.39" r="15.61"/><circle class="cls-8" cx="729.17" cy="170.52" r="15.61"/><circle class="cls-8" cx="729.17" cy="280.82" r="15.61"/><circle class="cls-8" cx="785.36" cy="151.79" r="15.61"/><circle class="cls-8" cx="300.47" cy="497.25" r="11.45"/><ellipse class="cls-8" cx="359.78" cy="486.85" rx="12.49" ry="13.53"/><ellipse class="cls-8" cx="328.56" cy="422.33" rx="12.49" ry="13.53"/><ellipse class="cls-8" cx="401.4" cy="449.39" rx="14.41" ry="15.61"/><ellipse class="cls-8" cx="334.8" cy="545.12" rx="14.41" ry="15.61"/><circle class="cls-8" cx="277.57" cy="549.28" r="13.53"/><circle class="cls-8" cx="220.35" cy="562.8" r="12.49"/><ellipse class="cls-8" cx="326.48" cy="309.95" rx="12.49" ry="15.61"/><ellipse class="cls-8" cx="232.18" cy="338.14" rx="14.2" ry="15.57" transform="translate(-151.72 193.7) rotate(-34.91)"/><ellipse class="cls-8" cx="196.8" cy="394.32" rx="14.2" ry="15.57" transform="translate(-190.24 183.56) rotate(-34.91)"/><ellipse class="cls-8" cx="175.69" cy="446.56" rx="12.65" ry="13.87" transform="translate(-223.93 180.88) rotate(-34.91)"/><ellipse class="cls-8" cx="140.85" cy="419.16" rx="11.58" ry="12.7" transform="translate(-104.11 51.02) rotate(-15.07)"/><ellipse class="cls-8" cx="147.09" cy="500.32" rx="13.88" ry="15.22" transform="translate(-124.99 55.43) rotate(-15.07)"/><ellipse class="cls-8" cx="240.39" cy="511.58" rx="15.33" ry="13.95" transform="translate(-124.71 80.06) rotate(-15.07)"/><circle class="cls-8" cx="282.78" cy="358.86" r="14.57"/><circle class="cls-8" cx="274.45" cy="296.43" r="16.65"/><path class="cls-9" d="M555,489.92a25.21,25.21,0,0,1-2.54-10.69c0-4.43,1.34-9.87,7.06-12.16,10.41-4.16,31.22,12.49,47.87,43.71s54.11,118.62,31.21,124.86-29.13-4.16-35.38-41.62-14.56-49.94-22.89-66.59C576.12,518.93,561.34,503.55,555,489.92Z"/><path class="cls-10" d="M589.38,199.5a1.36,1.36,0,0,0-1.26,0,2.59,2.59,0,0,1-1,.16,2.93,2.93,0,0,1-2-.76,26.71,26.71,0,0,1-2.24-3,21.74,21.74,0,0,0,1.87-6.07,29,29,0,0,1,3.51-1.47,2.06,2.06,0,0,1,1.34.18,1.62,1.62,0,0,1,.71.71,1.13,1.13,0,0,0,.9.66c.7,0,1.38-1.07,1.36-2.32s-.74-2.2-1.43-2.18a1,1,0,0,0-.78.51,1.78,1.78,0,0,1-.55.51,2.17,2.17,0,0,1-1.53.36,25.51,25.51,0,0,1-3.3-1.17,21.81,21.81,0,0,0-1.56-7.27A20.83,20.83,0,0,1,585.3,176a2.75,2.75,0,0,1,1.7-.68,2.18,2.18,0,0,1,1.33.36,1.47,1.47,0,0,0,1.51.17c.81-.47.91-2.19,0-3.65s-2.35-2.12-3.16-1.64a1.35,1.35,0,0,0-.58,1.12,2.46,2.46,0,0,1-.32,1,2.89,2.89,0,0,1-1.57,1.45,19.18,19.18,0,0,1-2.75.56,21.63,21.63,0,0,0-5.25-5.65,18.31,18.31,0,0,1,.52-2.59,2.06,2.06,0,0,1,.87-1,1.62,1.62,0,0,1,1-.21,1.09,1.09,0,0,0,1-.4c.37-.59-.15-1.74-1.21-2.39s-2.24-.58-2.61,0a1,1,0,0,0,0,.93,1.88,1.88,0,0,1,.13.75,2.16,2.16,0,0,1-.53,1.47,19.43,19.43,0,0,1-2.08,1.64,21.71,21.71,0,0,0-7.65-2.4,13.77,13.77,0,0,1-.55-1.67,2.78,2.78,0,0,1,.3-1.81,2.22,2.22,0,0,1,1-1,1.48,1.48,0,0,0,.93-1.2c0-.95-1.41-1.92-3.1-1.93s-3,.92-3,1.86a1.35,1.35,0,0,0,.67,1.07,2.68,2.68,0,0,1,.68.78,3,3,0,0,1,.43,2.1,14,14,0,0,1-.53,1.6,22,22,0,0,0-8.66,2.06,13.78,13.78,0,0,1-1.43-1.26,2.06,2.06,0,0,1-.46-1.26,1.61,1.61,0,0,1,.29-1,1.09,1.09,0,0,0,.16-1.1c-.34-.6-1.59-.71-2.68-.11s-1.6,1.68-1.26,2.29a1,1,0,0,0,.81.44,1.83,1.83,0,0,1,.71.25,2.14,2.14,0,0,1,1,1.18,13,13,0,0,1,.34,1.91,21.93,21.93,0,0,0-6.26,6.08,16.35,16.35,0,0,1-2.08-.47,2.76,2.76,0,0,1-1.41-1.19,2.21,2.21,0,0,1-.29-1.34,1.52,1.52,0,0,0-.55-1.42c-.8-.49-2.37.22-3.26,1.66s-.77,3.07,0,3.57a1.34,1.34,0,0,0,1.26,0,2.53,2.53,0,0,1,1-.18,2.9,2.9,0,0,1,2,.72,16.69,16.69,0,0,1,1.5,1.79,21.56,21.56,0,0,0-2,7.42,19.33,19.33,0,0,1-2.64,1,2,2,0,0,1-1.33-.19,1.57,1.57,0,0,1-.71-.71,1.09,1.09,0,0,0-.9-.67c-.69,0-1.38,1.06-1.37,2.31s.72,2.2,1.41,2.19a1,1,0,0,0,.78-.5,1.94,1.94,0,0,1,.56-.51,2.18,2.18,0,0,1,1.53-.35,19.45,19.45,0,0,1,2.67.94,22.09,22.09,0,0,0,2,7.55,15.58,15.58,0,0,1-1.28,1.53,2.78,2.78,0,0,1-1.7.7,2.3,2.3,0,0,1-1.33-.34,1.49,1.49,0,0,0-1.51-.17c-.81.49-.89,2.2,0,3.66s2.38,2.09,3.18,1.6a1.32,1.32,0,0,0,.57-1.13,2.53,2.53,0,0,1,.3-1,3,3,0,0,1,1.56-1.46,14.48,14.48,0,0,1,1.92-.44,21.44,21.44,0,0,0,5.46,5.54,25.77,25.77,0,0,1-.33,3.44,2.06,2.06,0,0,1-.78,1.1,1.61,1.61,0,0,1-1,.3,1.09,1.09,0,0,0-1,.49c-.31.61.31,1.71,1.42,2.27s2.29.38,2.6-.24a1,1,0,0,0-.09-.92,1.9,1.9,0,0,1-.2-.74,2.16,2.16,0,0,1,.39-1.51,24.12,24.12,0,0,1,2.37-2.2,21.63,21.63,0,0,0,7.28,1.94,20.66,20.66,0,0,1,.68,2.69,2.8,2.8,0,0,1-.46,1.78,2.22,2.22,0,0,1-1.08.85,1.51,1.51,0,0,0-1,1.11c-.09.94,1.23,2,2.92,2.21s3.1-.64,3.19-1.58a1.36,1.36,0,0,0-.56-1.13,2.33,2.33,0,0,1-.61-.84,3,3,0,0,1-.24-2.12,24.12,24.12,0,0,1,1.44-3,22,22,0,0,0,6.16-1.6,25.31,25.31,0,0,1,3,2,2.07,2.07,0,0,1,.58,1.22,1.61,1.61,0,0,1-.21,1,1.08,1.08,0,0,0-.06,1.12c.38.57,1.64.57,2.68-.13s1.44-1.81,1.06-2.38a1,1,0,0,0-.85-.38,1.73,1.73,0,0,1-.74-.19,2.18,2.18,0,0,1-1.13-1.08,23.41,23.41,0,0,1-.75-3.09,21.67,21.67,0,0,0,5.23-4.86,23.27,23.27,0,0,1,3.46.77,2.73,2.73,0,0,1,1.38,1.22,2.29,2.29,0,0,1,.27,1.34,1.48,1.48,0,0,0,.51,1.43c.79.52,2.37-.16,3.29-1.58S590.17,200,589.38,199.5Z"/><path class="cls-11" d="M552.24,179.06c5-8.32,13.82-12.56,22.72-10-.28-.19-.56-.37-.85-.54a21,21,0,0,0-21.7,35.93,21.49,21.49,0,0,0,5,2.19C548.17,200.47,546.42,188.69,552.24,179.06Z"/><path class="cls-12" d="M568,176.56c-.08,2.75-3,4.9-6.46,4.81s-6.26-2.4-6.19-5.15,3-5.45,6.47-5.36S568,173.8,568,176.56Z"/><path class="cls-12" d="M578.82,184.56c-.84.92-2.48.8-3.65-.27a2.63,2.63,0,0,1-.6-3.62,2.91,2.91,0,0,1,4.25,3.89Z"/><path class="cls-12" d="M566.87,202.05a1.7,1.7,0,0,1-2.44-2.24,1.67,1.67,0,0,1,2.44,2.24Z"/><path class="cls-13" d="M568.11,186.55a1.7,1.7,0,0,1,1.17,3.1,1.67,1.67,0,0,1-1.17-3.1Z"/><path class="cls-12" d="M552.58,197.35a1.7,1.7,0,0,1-2.42-2.26,1.67,1.67,0,0,1,2.42,2.26Z"/><path class="cls-13" d="M574.64,174.73a1.71,1.71,0,0,1-3.27.55,1.67,1.67,0,0,1,3.27-.55Z"/><path class="cls-12" d="M552.57,179.93a1.71,1.71,0,0,1-3.27.55,1.67,1.67,0,0,1,3.27-.55Z"/><circle class="cls-12" cx="559.2" cy="190.32" r="3.27"/><circle class="cls-12" cx="548.43" cy="188.83" r="2.32"/><circle class="cls-13" cx="557.44" cy="200.75" r="2.32"/><circle class="cls-13" cx="570.85" cy="195.5" r="2.32"/><path class="cls-10" d="M520.54,358.24a.51.51,0,0,0-.48,0,1.08,1.08,0,0,1-.4.06,1.1,1.1,0,0,1-.76-.3,10.09,10.09,0,0,1-.87-1.13,8.37,8.37,0,0,0,.72-2.33,9.92,9.92,0,0,1,1.35-.57.85.85,0,0,1,.51.07.73.73,0,0,1,.28.27.43.43,0,0,0,.35.26c.26,0,.52-.42.51-.89s-.28-.85-.55-.84a.36.36,0,0,0-.29.19.7.7,0,0,1-.22.2.83.83,0,0,1-.58.14,10.92,10.92,0,0,1-1.27-.45,8.41,8.41,0,0,0-.6-2.8,8.33,8.33,0,0,1,.73-.89,1.06,1.06,0,0,1,.66-.26.79.79,0,0,1,.51.14.57.57,0,0,0,.58.06c.31-.18.35-.84,0-1.4s-.91-.81-1.22-.63a.52.52,0,0,0-.22.43,1,1,0,0,1-.12.38,1.14,1.14,0,0,1-.6.56,8.57,8.57,0,0,1-1.06.21,8.31,8.31,0,0,0-2-2.17,6.55,6.55,0,0,1,.2-1,.77.77,0,0,1,.34-.39.6.6,0,0,1,.37-.09.45.45,0,0,0,.41-.15c.14-.22-.06-.67-.47-.92s-.86-.22-1,0a.38.38,0,0,0,0,.36.71.71,0,0,1,0,.29.79.79,0,0,1-.2.56,6.39,6.39,0,0,1-.8.63,8.38,8.38,0,0,0-2.94-.92,3.88,3.88,0,0,1-.21-.64,1.08,1.08,0,0,1,.11-.7.83.83,0,0,1,.38-.36.57.57,0,0,0,.36-.46c0-.36-.54-.74-1.19-.74s-1.16.35-1.17.71a.51.51,0,0,0,.26.41,1.06,1.06,0,0,1,.26.3,1.13,1.13,0,0,1,.17.81,5.68,5.68,0,0,1-.21.62,8.3,8.3,0,0,0-3.32.79,5.08,5.08,0,0,1-.55-.49.78.78,0,0,1-.18-.48.6.6,0,0,1,.11-.37.41.41,0,0,0,.06-.43c-.13-.23-.61-.27-1,0s-.61.64-.48.88a.37.37,0,0,0,.31.17.63.63,0,0,1,.27.1.82.82,0,0,1,.4.45,5.86,5.86,0,0,1,.13.73,8.35,8.35,0,0,0-2.4,2.34,6.94,6.94,0,0,1-.81-.18,1.06,1.06,0,0,1-.53-.46.82.82,0,0,1-.12-.51.58.58,0,0,0-.21-.55c-.31-.19-.91.08-1.25.64s-.3,1.18,0,1.37a.51.51,0,0,0,.48,0,1.09,1.09,0,0,1,.4-.07,1.17,1.17,0,0,1,.77.28,5.34,5.34,0,0,1,.57.69,8.54,8.54,0,0,0-.75,2.85,7.73,7.73,0,0,1-1,.39.75.75,0,0,1-.52-.07.64.64,0,0,1-.27-.27.43.43,0,0,0-.34-.26c-.27,0-.53.41-.53.89s.28.85.54.84a.36.36,0,0,0,.3-.19.83.83,0,0,1,.22-.2.81.81,0,0,1,.59-.13,9.28,9.28,0,0,1,1,.36,8.39,8.39,0,0,0,.78,2.9c-.19.24-.37.46-.5.59a1.09,1.09,0,0,1-.65.27.86.86,0,0,1-.51-.14.59.59,0,0,0-.58-.06c-.31.19-.34.85,0,1.41s.91.8,1.22.61a.5.5,0,0,0,.21-.43,1.05,1.05,0,0,1,.12-.38,1.14,1.14,0,0,1,.6-.56,4.88,4.88,0,0,1,.74-.17,8.45,8.45,0,0,0,2.09,2.13,8.5,8.5,0,0,1-.12,1.32.83.83,0,0,1-.3.42.71.71,0,0,1-.37.12.41.41,0,0,0-.39.18c-.12.24.12.66.55.88s.88.14,1-.1a.38.38,0,0,0,0-.35.89.89,0,0,1-.07-.28.85.85,0,0,1,.15-.59,9.89,9.89,0,0,1,.91-.84,8.51,8.51,0,0,0,2.8.75,7.42,7.42,0,0,1,.25,1,1,1,0,0,1-.17.68.88.88,0,0,1-.41.33c-.23.1-.39.25-.4.43,0,.36.47.78,1.12.85s1.19-.25,1.22-.61a.48.48,0,0,0-.21-.43,1.12,1.12,0,0,1-.24-.33,1.15,1.15,0,0,1-.09-.81,9.46,9.46,0,0,1,.55-1.16,8.46,8.46,0,0,0,2.37-.62,9.33,9.33,0,0,1,1.13.79.78.78,0,0,1,.23.46.73.73,0,0,1-.08.38.42.42,0,0,0,0,.43c.15.22.63.22,1-.05s.56-.69.41-.91a.37.37,0,0,0-.33-.15.68.68,0,0,1-.28-.07.8.8,0,0,1-.43-.42,7.83,7.83,0,0,1-.29-1.18,8.43,8.43,0,0,0,2-1.87,9.69,9.69,0,0,1,1.34.29,1,1,0,0,1,.52.47.86.86,0,0,1,.11.52.57.57,0,0,0,.19.55c.31.2.92-.06,1.27-.61S520.84,358.44,520.54,358.24Z"/><path class="cls-11" d="M506.27,350.39c1.93-3.2,5.31-4.82,8.73-3.83l-.32-.21a8.06,8.06,0,1,0-8.34,13.8,8.16,8.16,0,0,0,1.92.85C504.71,358.61,504,354.09,506.27,350.39Z"/><path class="cls-12" d="M512.31,349.43a2.5,2.5,0,0,1-4.86-.13,2.45,2.45,0,0,1,4.86.13Z"/><path class="cls-12" d="M516.49,352.5a1.14,1.14,0,0,1-1.64-1.49,1.12,1.12,0,0,1,1.64,1.49Z"/><path class="cls-12" d="M511.89,359.22a.56.56,0,0,1-.8-.06.58.58,0,0,1-.13-.8.64.64,0,0,1,.93.86Z"/><path class="cls-13" d="M512.37,353.27a.66.66,0,0,1,.45,1.19.64.64,0,0,1-.45-1.19Z"/><path class="cls-12" d="M506.4,357.42a.57.57,0,0,1-.8-.07.59.59,0,0,1-.13-.8.63.63,0,0,1,.85,0A.62.62,0,0,1,506.4,357.42Z"/><path class="cls-13" d="M514.88,348.72a.66.66,0,0,1-1.26.22.65.65,0,0,1,1.26-.22Z"/><path class="cls-12" d="M506.4,350.73a.65.65,0,0,1-1.25.21.64.64,0,0,1,1.25-.21Z"/><circle class="cls-12" cx="508.95" cy="354.72" r="1.26"/><circle class="cls-12" cx="504.81" cy="354.14" r="0.89"/><circle class="cls-13" cx="508.27" cy="358.72" r="0.89"/><circle class="cls-13" cx="513.42" cy="356.71" r="0.89"/><path class="cls-10" d="M94,615.65a1.31,1.31,0,0,0-1.21,0,2.37,2.37,0,0,1-1,.16,2.85,2.85,0,0,1-1.92-.73,25.59,25.59,0,0,1-2.16-2.86,21,21,0,0,0,1.8-5.83A25.41,25.41,0,0,1,92.9,605a1.92,1.92,0,0,1,1.29.17,1.62,1.62,0,0,1,.69.68,1,1,0,0,0,.86.63c.67,0,1.32-1,1.3-2.23s-.71-2.11-1.37-2.1a.94.94,0,0,0-.75.49,1.77,1.77,0,0,1-.53.49,2.07,2.07,0,0,1-1.47.35,26.11,26.11,0,0,1-3.18-1.12,20.8,20.8,0,0,0-1.5-7,20.79,20.79,0,0,1,1.84-2.23,2.62,2.62,0,0,1,1.64-.66,2.12,2.12,0,0,1,1.27.34,1.42,1.42,0,0,0,1.46.17c.78-.45.87-2.11,0-3.51s-2.26-2-3-1.58a1.33,1.33,0,0,0-.56,1.08,2.25,2.25,0,0,1-.3,1,2.82,2.82,0,0,1-1.51,1.4,18.55,18.55,0,0,1-2.65.53,21,21,0,0,0-5.05-5.43,16.91,16.91,0,0,1,.5-2.49,2,2,0,0,1,.84-1,1.64,1.64,0,0,1,1-.2,1.06,1.06,0,0,0,1-.39c.35-.56-.15-1.67-1.16-2.3s-2.16-.56-2.51,0a.93.93,0,0,0,0,.89,1.77,1.77,0,0,1,.13.72,2.13,2.13,0,0,1-.51,1.42,18.91,18.91,0,0,1-2,1.58,20.83,20.83,0,0,0-7.37-2.32,11.93,11.93,0,0,1-.52-1.6A2.67,2.67,0,0,1,71,579a2.17,2.17,0,0,1,1-.91,1.43,1.43,0,0,0,.89-1.16c0-.9-1.35-1.84-3-1.85s-2.92.88-2.93,1.79a1.3,1.3,0,0,0,.64,1,2.37,2.37,0,0,1,.66.75,2.83,2.83,0,0,1,.41,2,10.93,10.93,0,0,1-.51,1.55,21.07,21.07,0,0,0-8.33,2,11.62,11.62,0,0,1-1.37-1.21,1.92,1.92,0,0,1-.45-1.21,1.55,1.55,0,0,1,.28-.93,1.06,1.06,0,0,0,.15-1.06c-.32-.59-1.53-.69-2.58-.11s-1.53,1.62-1.21,2.2a1,1,0,0,0,.78.43,1.73,1.73,0,0,1,.69.24,2.1,2.1,0,0,1,1,1.14,14.37,14.37,0,0,1,.33,1.84,20.8,20.8,0,0,0-6,5.84,14.53,14.53,0,0,1-2-.45A2.65,2.65,0,0,1,48,589.72a2.14,2.14,0,0,1-.28-1.29,1.45,1.45,0,0,0-.53-1.37c-.77-.47-2.27.21-3.13,1.6s-.75,3,0,3.43a1.32,1.32,0,0,0,1.21,0,2.39,2.39,0,0,1,1-.18,2.88,2.88,0,0,1,1.94.69,16.81,16.81,0,0,1,1.43,1.73,20.78,20.78,0,0,0-1.88,7.14,19.48,19.48,0,0,1-2.54,1,2,2,0,0,1-1.29-.19,1.54,1.54,0,0,1-.68-.68,1,1,0,0,0-.86-.64c-.66,0-1.33,1-1.32,2.22s.7,2.12,1.36,2.11a.93.93,0,0,0,.75-.48,1.72,1.72,0,0,1,.54-.5,2.07,2.07,0,0,1,1.47-.33,20.78,20.78,0,0,1,2.57.9,21.14,21.14,0,0,0,1.94,7.27,14.17,14.17,0,0,1-1.23,1.47,2.71,2.71,0,0,1-1.64.68A2.17,2.17,0,0,1,45.6,614a1.42,1.42,0,0,0-1.45-.15c-.78.46-.86,2.12,0,3.52s2.28,2,3.06,1.54a1.29,1.29,0,0,0,.54-1.09,2.35,2.35,0,0,1,.3-.95,2.79,2.79,0,0,1,1.49-1.41,15.85,15.85,0,0,1,1.85-.43,20.64,20.64,0,0,0,5.25,5.34,24.08,24.08,0,0,1-.31,3.31,2,2,0,0,1-.75,1.06,1.6,1.6,0,0,1-.93.29,1,1,0,0,0-1,.47c-.3.59.3,1.65,1.36,2.19s2.21.36,2.51-.24a1,1,0,0,0-.09-.88,1.75,1.75,0,0,1-.19-.71,2.07,2.07,0,0,1,.38-1.46,22.31,22.31,0,0,1,2.28-2.12,20.75,20.75,0,0,0,7,1.87,20.28,20.28,0,0,1,.64,2.59,2.66,2.66,0,0,1-.44,1.71,2.21,2.21,0,0,1-1,.83c-.58.24-1,.61-1,1.07-.1.9,1.18,2,2.8,2.12s3-.62,3.08-1.52a1.29,1.29,0,0,0-.55-1.09,2.36,2.36,0,0,1-.58-.81,2.82,2.82,0,0,1-.23-2A22.9,22.9,0,0,1,71,624.05a21,21,0,0,0,5.93-1.54,25.56,25.56,0,0,1,2.84,2,1.94,1.94,0,0,1,.56,1.17,1.67,1.67,0,0,1-.2,1,1,1,0,0,0-.06,1.07c.37.55,1.58.55,2.57-.12s1.4-1.75,1-2.3a1,1,0,0,0-.81-.36,1.59,1.59,0,0,1-.71-.18,2.1,2.1,0,0,1-1.09-1,22.38,22.38,0,0,1-.72-3,21,21,0,0,0,5-4.68,25.67,25.67,0,0,1,3.34.73A2.7,2.7,0,0,1,90,617.93a2.21,2.21,0,0,1,.26,1.29,1.44,1.44,0,0,0,.49,1.38c.76.5,2.28-.16,3.17-1.52S94.76,616.14,94,615.65Z"/><path class="cls-11" d="M58.26,596c4.84-8,13.3-12.08,21.87-9.59-.27-.18-.54-.36-.82-.53a20.2,20.2,0,1,0-16.07,36.69C54.35,616.58,52.66,605.25,58.26,596Z"/><path class="cls-12" d="M73.38,593.57c-.07,2.65-2.85,4.72-6.22,4.63s-6-2.3-5.95-5,2.86-5.25,6.22-5.16S73.45,590.92,73.38,593.57Z"/><path class="cls-12" d="M83.84,601.27a2.52,2.52,0,0,1-3.51-.25,2.55,2.55,0,0,1-.58-3.49,2.8,2.8,0,0,1,4.09,3.74Z"/><path class="cls-12" d="M72.34,618.1A1.64,1.64,0,0,1,70,616a1.57,1.57,0,0,1,2.12,0A1.55,1.55,0,0,1,72.34,618.1Z"/><path class="cls-13" d="M73.54,603.19a1.64,1.64,0,0,1,1.12,3,1.61,1.61,0,0,1-1.12-3Z"/><path class="cls-12" d="M58.59,613.58a1.64,1.64,0,0,1-2.33-2.17,1.61,1.61,0,0,1,2.33,2.17Z"/><path class="cls-13" d="M79.81,591.81a1.44,1.44,0,0,1-1.36,1.5,1.46,1.46,0,0,1-1.78-1A1.57,1.57,0,0,1,78,590.7,1.55,1.55,0,0,1,79.81,591.81Z"/><path class="cls-12" d="M58.58,596.82a1.64,1.64,0,0,1-3.15.53,1.61,1.61,0,0,1,3.15-.53Z"/><circle class="cls-12" cx="64.96" cy="606.82" r="3.15"/><circle class="cls-12" cx="54.59" cy="605.38" r="2.23"/><circle class="cls-13" cx="63.26" cy="616.85" r="2.23"/><circle class="cls-13" cx="76.17" cy="611.8" r="2.23"/><path class="cls-10" d="M659.4,509a.68.68,0,0,0-.64,0,1.14,1.14,0,0,1-.52.08,1.52,1.52,0,0,1-1-.38,13.77,13.77,0,0,1-1.13-1.5,11.1,11.1,0,0,0,.94-3.07,14.52,14.52,0,0,1,1.78-.74,1,1,0,0,1,.68.09.89.89,0,0,1,.36.36.55.55,0,0,0,.45.33c.35,0,.7-.54.69-1.17s-.38-1.11-.73-1.11a.52.52,0,0,0-.39.26.87.87,0,0,1-.28.26,1.07,1.07,0,0,1-.77.18,12.08,12.08,0,0,1-1.67-.59,11.07,11.07,0,0,0-.79-3.68,9.82,9.82,0,0,1,1-1.17,1.37,1.37,0,0,1,.86-.35,1.17,1.17,0,0,1,.67.18.72.72,0,0,0,.76.09c.41-.24.46-1.11,0-1.85s-1.19-1.06-1.6-.82a.64.64,0,0,0-.29.56,1.4,1.4,0,0,1-.16.5,1.54,1.54,0,0,1-.8.74,9.87,9.87,0,0,1-1.39.28,10.92,10.92,0,0,0-2.66-2.86,8.73,8.73,0,0,1,.27-1.31,1,1,0,0,1,.44-.51.79.79,0,0,1,.5-.11.54.54,0,0,0,.52-.2c.19-.3-.07-.88-.61-1.21s-1.13-.29-1.32,0a.49.49,0,0,0,0,.47,1,1,0,0,1,.06.38,1,1,0,0,1-.27.74,9.39,9.39,0,0,1-1.05.83,10.7,10.7,0,0,0-3.87-1.21,6.56,6.56,0,0,1-.27-.85,1.32,1.32,0,0,1,.15-.91,1.06,1.06,0,0,1,.5-.48.75.75,0,0,0,.47-.61c0-.48-.71-1-1.57-1s-1.53.47-1.54.95a.7.7,0,0,0,.34.54,1.31,1.31,0,0,1,.35.39,1.46,1.46,0,0,1,.21,1.06,6,6,0,0,1-.26.81,11.21,11.21,0,0,0-4.38,1,6.79,6.79,0,0,1-.73-.63,1,1,0,0,1-.23-.64.79.79,0,0,1,.15-.49.59.59,0,0,0,.08-.56c-.17-.3-.81-.36-1.36-.05s-.81.85-.64,1.15a.52.52,0,0,0,.41.23.87.87,0,0,1,.37.13,1.09,1.09,0,0,1,.52.59,8.12,8.12,0,0,1,.17,1,11,11,0,0,0-3.17,3.07,7.52,7.52,0,0,1-1-.23,1.44,1.44,0,0,1-.71-.61,1.06,1.06,0,0,1-.15-.67.73.73,0,0,0-.28-.72c-.4-.25-1.19.11-1.65.84s-.39,1.55,0,1.8a.64.64,0,0,0,.63,0,1.33,1.33,0,0,1,.52-.09,1.47,1.47,0,0,1,1,.36,10.14,10.14,0,0,1,.75.91,11.22,11.22,0,0,0-1,3.75,9.09,9.09,0,0,1-1.33.53,1,1,0,0,1-.68-.1.81.81,0,0,1-.35-.36.57.57,0,0,0-.46-.34c-.35,0-.69.54-.69,1.17s.37,1.11.72,1.11a.51.51,0,0,0,.39-.25A.87.87,0,0,1,633,503a1.09,1.09,0,0,1,.78-.18,9.84,9.84,0,0,1,1.35.48,11.11,11.11,0,0,0,1,3.82,7.92,7.92,0,0,1-.65.77,1.37,1.37,0,0,1-.86.35,1.06,1.06,0,0,1-.67-.17.74.74,0,0,0-.77-.08c-.41.24-.45,1.11,0,1.85s1.2,1.05,1.61.81a.68.68,0,0,0,.29-.57,1.21,1.21,0,0,1,.15-.5,1.53,1.53,0,0,1,.79-.75,8.64,8.64,0,0,1,1-.22,11.15,11.15,0,0,0,2.76,2.81,12.16,12.16,0,0,1-.16,1.73,1.13,1.13,0,0,1-.4.56.83.83,0,0,1-.48.15.56.56,0,0,0-.51.25c-.16.31.16.87.72,1.15s1.15.19,1.31-.12a.5.5,0,0,0,0-.47.79.79,0,0,1-.1-.37,1,1,0,0,1,.2-.77,12.19,12.19,0,0,1,1.19-1.11,11.12,11.12,0,0,0,3.68,1,10.14,10.14,0,0,1,.35,1.36,1.4,1.4,0,0,1-.24.9,1.1,1.1,0,0,1-.54.43.79.79,0,0,0-.53.57c0,.47.63,1,1.48,1.11s1.57-.32,1.61-.8a.67.67,0,0,0-.28-.57,1.31,1.31,0,0,1-.31-.42,1.49,1.49,0,0,1-.12-1.08,11.64,11.64,0,0,1,.73-1.52,11.15,11.15,0,0,0,3.11-.81,13.07,13.07,0,0,1,1.5,1,1.05,1.05,0,0,1,.29.61.86.86,0,0,1-.11.5.56.56,0,0,0,0,.57c.2.29.83.28,1.36-.07s.73-.91.53-1.2a.48.48,0,0,0-.43-.19.82.82,0,0,1-.37-.1,1,1,0,0,1-.57-.55,11.92,11.92,0,0,1-.38-1.56,10.79,10.79,0,0,0,2.64-2.46,13.17,13.17,0,0,1,1.75.39,1.39,1.39,0,0,1,.7.62,1.21,1.21,0,0,1,.14.68.72.72,0,0,0,.26.72c.39.26,1.19-.08,1.66-.8S659.8,509.21,659.4,509Z"/><path class="cls-11" d="M640.62,498.61c2.54-4.2,7-6.35,11.49-5l-.43-.27a10.61,10.61,0,1,0-11,18.17,11.14,11.14,0,0,0,2.54,1.11C638.56,509.44,637.68,503.48,640.62,498.61Z"/><path class="cls-12" d="M648.56,497.35c0,1.39-1.5,2.48-3.26,2.43s-3.17-1.21-3.14-2.6a3.23,3.23,0,0,1,6.4.17Z"/><path class="cls-12" d="M654.06,501.4a1.5,1.5,0,0,1-2.15-2,1.47,1.47,0,0,1,2.15,2Z"/><path class="cls-12" d="M648,510.24a.86.86,0,0,1-1.24-1.13.82.82,0,0,1,1.11,0A.83.83,0,0,1,648,510.24Z"/><path class="cls-13" d="M648.64,502.4a.79.79,0,0,1,.92.55.77.77,0,0,1-.32,1,.85.85,0,0,1-.6-1.57Z"/><path class="cls-12" d="M640.79,507.86a.75.75,0,0,1-1.06-.09.77.77,0,0,1-.17-1,.85.85,0,0,1,1.23,1.14Z"/><path class="cls-13" d="M651.94,496.42a.86.86,0,0,1-1.65.28.82.82,0,0,1,.71-.86A.81.81,0,0,1,651.94,496.42Z"/><path class="cls-12" d="M640.78,499.06a.86.86,0,0,1-1.65.27.84.84,0,0,1,1.65-.27Z"/><circle class="cls-12" cx="644.14" cy="504.31" r="1.66"/><circle class="cls-12" cx="638.69" cy="503.56" r="1.17"/><circle class="cls-13" cx="643.24" cy="509.58" r="1.17"/><circle class="cls-13" cx="650.03" cy="506.93" r="1.17"/><path class="cls-10" d="M243.85,201.52a1.62,1.62,0,0,0-2.15-.81,1.69,1.69,0,0,0-.62.5l0-.11c-3.28-1.74-4.34-3.07-4.63-3.91.2-.43.38-.88.54-1.32.22-.2.87-.46,2.71.18l0-.07a1,1,0,0,0,.07.51,1.06,1.06,0,0,0,1.38.58,1.06,1.06,0,1,0-.81-2,1.17,1.17,0,0,0-.5.43,5.86,5.86,0,0,1-2.46-1.16,13.5,13.5,0,0,0,.28-3.74c.1-.47.81-1.72,5.33-2v0a2.13,2.13,0,0,0,1,1,2.17,2.17,0,1,0-1-2.89,2.1,2.1,0,0,0-.21.87c-.91.14-4.36.58-5.85-.48a13.16,13.16,0,0,0-4.22-5.9c-.19-.5-.19-1.63,1.34-4l-.1-.07a1.65,1.65,0,0,0,.83.07,1.7,1.7,0,1,0-1.45-.46,10.38,10.38,0,0,1-2.47,3.25,13.2,13.2,0,0,0-7-1.64,7.3,7.3,0,0,1-.12-1.94h-.08a1.17,1.17,0,0,0,.51-.23,1.15,1.15,0,0,0,.17-1.6,1.13,1.13,0,1,0-1.76,1.43,1.1,1.1,0,0,0,.59.38,8.44,8.44,0,0,1-.14,2,13.56,13.56,0,0,0-3.7,1c-.44-.31-1.21-1.22-2-3.92a2,2,0,0,0,.32-.41,1.6,1.6,0,1,0-2.21.54,1.89,1.89,0,0,0,1.07.26c.24.62,1.22,3.24.77,4.64a13.24,13.24,0,0,0-3.94,4c-.37.09-1.39.1-3.4-1.4a1.26,1.26,0,1,0-1,1,1.23,1.23,0,0,0,.66-.39c.55.3,2.64,1.52,2.73,2.63A13.28,13.28,0,0,0,212.4,197c-.27.54-1.29,2.06-4.68,2.8l0,.1a1.43,1.43,0,0,0-.5-.54,1.5,1.5,0,1,0,.45,2.07,1.5,1.5,0,0,0,.23-.91c.43-.14,4.37-1.47,5.91-1.08a13.45,13.45,0,0,0,3.8,3.46,14.15,14.15,0,0,0,2.72,1.25c.46.39,1.13,1.4.5,3.72a1.18,1.18,0,0,0-.45.25,1.26,1.26,0,1,0,1.77.16,1.24,1.24,0,0,0-.63-.41c.06-.59.38-2.84,1.53-3.14a13.35,13.35,0,0,0,4.5-.29c.67.46,1.45,1.62,2.07,4.36h.11a1.44,1.44,0,0,0-.6.44,1.49,1.49,0,1,0,1.23-.54,11.94,11.94,0,0,1-.72-4.93,13.5,13.5,0,0,0,2.21-1.2,16.76,16.76,0,0,1,1.29,1.6l.09-.05a1.44,1.44,0,0,0-.38.63,1.5,1.5,0,1,0,1.87-1,1.47,1.47,0,0,0-1,0,16.1,16.1,0,0,1-1.29-1.65,13.37,13.37,0,0,0,2.64-2.67c2-.36,5.27,2.1,5.66,2.4a1.54,1.54,0,0,0,.1,1,1.62,1.62,0,1,0,2.95-1.33Z"/><path class="cls-11" d="M217.85,187c3.05-5,8.39-7.62,13.81-6l-.52-.33A12.75,12.75,0,0,0,218,202.49a12.61,12.61,0,0,0,3.05,1.33C215.38,200.05,214.32,192.89,217.85,187Z"/><path class="cls-12" d="M228.85,186.27c0,1.67-1.8,3-3.93,2.92s-3.8-1.45-3.76-3.13a3.88,3.88,0,0,1,7.69.21Z"/><path class="cls-12" d="M235.45,191.13a1.8,1.8,0,0,1-2.58-2.36,1.76,1.76,0,0,1,2.58,2.36Z"/><path class="cls-12" d="M228.19,201.75a1,1,0,0,1-1.48-1.35,1,1,0,0,1,1.48,1.35Z"/><path class="cls-13" d="M229,192.34a1,1,0,0,1,.71,1.88,1,1,0,0,1-.71-1.88Z"/><path class="cls-12" d="M219.51,198.9a1,1,0,0,1-1.47-1.37,1,1,0,0,1,1.47,1.37Z"/><path class="cls-13" d="M232.91,185.16a1,1,0,0,1-2,.33,1,1,0,0,1,2-.33Z"/><path class="cls-12" d="M219.5,188.32c.08.43-.31.85-.86,1a.92.92,0,0,1-1.12-.62,1,1,0,0,1,2-.33Z"/><circle class="cls-12" cx="223.53" cy="194.63" r="1.99"/><circle class="cls-12" cx="216.99" cy="193.73" r="1.41"/><circle class="cls-13" cx="222.46" cy="200.96" r="1.41"/><circle class="cls-13" cx="230.61" cy="197.78" r="1.41"/><path class="cls-10" d="M79.45,443.72a1.78,1.78,0,0,0-3-.33l0-.12c-3.62-1.93-4.78-3.39-5.11-4.31a14,14,0,0,0,.6-1.46c.24-.22,1-.51,3,.19l0-.07a1.15,1.15,0,0,0,.08.57,1.16,1.16,0,0,0,2.15-.89,1.16,1.16,0,0,0-1.52-.63,1.11,1.11,0,0,0-.55.47,6.56,6.56,0,0,1-2.72-1.28,14.7,14.7,0,0,0,.31-4.12c.11-.52.9-1.9,5.88-2.24v0a2.35,2.35,0,0,0,1.11,1.09,2.39,2.39,0,1,0-1.37-2.22c-1,.15-4.8.64-6.44-.53a14.58,14.58,0,0,0-4.65-6.5c-.21-.55-.21-1.8,1.47-4.44l-.11-.08a1.9,1.9,0,0,0,.92.08,1.87,1.87,0,1,0-2.14-1.54,1.78,1.78,0,0,0,.54,1,11.51,11.51,0,0,1-2.72,3.59,14.6,14.6,0,0,0-7.77-1.82A7.75,7.75,0,0,1,57.3,416h-.09a1.24,1.24,0,1,0-.53,0,9.5,9.5,0,0,1-.16,2.24,14.38,14.38,0,0,0-4.07,1.06c-.49-.34-1.34-1.34-2.26-4.32a1.81,1.81,0,0,0,.36-.44,1.77,1.77,0,1,0-2.43.58,2,2,0,0,0,1.17.29c.27.68,1.35,3.57.85,5.11a14.51,14.51,0,0,0-4.33,4.39c-.41.1-1.53.11-3.75-1.54a1.51,1.51,0,0,0,0-.56A1.39,1.39,0,1,0,41,424.42a1.28,1.28,0,0,0,.73-.42c.6.33,2.9,1.67,3,2.9a14.59,14.59,0,0,0,.08,11.83c-.29.6-1.42,2.27-5.15,3.08l0,.12a1.6,1.6,0,0,0-.56-.6,1.65,1.65,0,1,0,.51,2.29,1.75,1.75,0,0,0,.25-1c.47-.16,4.81-1.62,6.51-1.18a14.69,14.69,0,0,0,4.18,3.8,15,15,0,0,0,3,1.38c.5.43,1.24,1.55.55,4.1a1.29,1.29,0,0,0-.5.27,1.39,1.39,0,1,0,2,.18,1.37,1.37,0,0,0-.7-.45c.07-.66.42-3.14,1.69-3.46a14.44,14.44,0,0,0,5-.32c.74.51,1.6,1.79,2.28,4.81h.12a1.54,1.54,0,0,0-.66.48,1.65,1.65,0,1,0,2.32-.22,1.61,1.61,0,0,0-1-.38,13.38,13.38,0,0,1-.8-5.43,14.38,14.38,0,0,0,2.44-1.32,21,21,0,0,1,1.42,1.76l.1-.06a1.65,1.65,0,1,0,2.74,1.66,1.64,1.64,0,0,0-1.1-2.06,1.6,1.6,0,0,0-1,0A15.84,15.84,0,0,1,67,444.37a14.75,14.75,0,0,0,2.91-2.94c2.19-.39,5.8,2.32,6.23,2.64a1.78,1.78,0,0,0,2.47,2A1.78,1.78,0,0,0,79.45,443.72Z"/><path class="cls-11" d="M50.82,427.78c3.36-5.57,9.24-8.4,15.2-6.67l-.57-.36a14,14,0,1,0-11.17,25.51C48.09,442.11,46.92,434.22,50.82,427.78Z"/><path class="cls-12" d="M62.93,426.92c0,1.85-2,3.29-4.32,3.23s-4.19-1.61-4.14-3.45,2-3.65,4.32-3.59S63,425.08,62.93,426.92Z"/><path class="cls-12" d="M70.21,432.28a2,2,0,0,1-2.85-2.6,1.95,1.95,0,0,1,2.85,2.6Z"/><path class="cls-12" d="M62.21,444a1.14,1.14,0,0,1-1.64-1.49A1.12,1.12,0,0,1,62.21,444Z"/><path class="cls-13" d="M63,433.62a1,1,0,0,1,1.21.72,1,1,0,0,1-.43,1.35,1.12,1.12,0,0,1-.78-2.07Z"/><path class="cls-12" d="M52.65,440.84A1.14,1.14,0,0,1,51,439.33a1.09,1.09,0,0,1,1.48,0A1.11,1.11,0,0,1,52.65,440.84Z"/><path class="cls-13" d="M67.4,425.7a1.14,1.14,0,0,1-2.18.37,1.12,1.12,0,0,1,2.18-.37Z"/><path class="cls-12" d="M52.64,429.18a1.14,1.14,0,0,1-2.19.37,1.12,1.12,0,0,1,2.19-.37Z"/><circle class="cls-12" cx="57.07" cy="436.14" r="2.19"/><circle class="cls-12" cx="49.87" cy="435.14" r="1.55"/><circle class="cls-13" cx="55.89" cy="443.11" r="1.55"/><circle class="cls-13" cx="64.87" cy="439.6" r="1.55"/><path class="cls-10" d="M776.11,362.86a2,2,0,0,0-3.44-.38l.05-.13c-4.08-2.17-5.4-3.83-5.77-4.87a14.69,14.69,0,0,0,.68-1.65c.27-.25,1.08-.57,3.37.23l0-.09a1.19,1.19,0,0,0,.09.64,1.32,1.32,0,0,0,1.72.71,1.3,1.3,0,0,0,.71-1.71,1.32,1.32,0,0,0-1.72-.72,1.37,1.37,0,0,0-.62.54,7.33,7.33,0,0,1-3.07-1.45,16.6,16.6,0,0,0,.35-4.65c.13-.59,1-2.14,6.64-2.53v0a2.7,2.7,0,0,0,4.86-.07,2.71,2.71,0,1,0-4.9-2.3,2.63,2.63,0,0,0-.25,1.09c-1.13.17-5.42.72-7.28-.6a16.5,16.5,0,0,0-5.25-7.35c-.23-.62-.23-2,1.66-5l-.12-.09a2.11,2.11,0,1,0,.36-4.07,2.11,2.11,0,0,0-1.74,2.42,2,2,0,0,0,.61,1.17A12.76,12.76,0,0,1,760,336a16.41,16.41,0,0,0-8.77-2.05,8.39,8.39,0,0,1-.15-2.41H751a1.45,1.45,0,0,0,.63-.29,1.43,1.43,0,1,0-1.24.26,10.67,10.67,0,0,1-.18,2.54,16.52,16.52,0,0,0-4.59,1.19c-.55-.38-1.52-1.51-2.55-4.87a2.65,2.65,0,0,0,.4-.5,2,2,0,1,0-2.74.66,2.24,2.24,0,0,0,1.32.32c.31.77,1.52,4,1,5.77a16.42,16.42,0,0,0-4.89,5c-.47.11-1.73.13-4.24-1.74a1.49,1.49,0,0,0,0-.63,1.57,1.57,0,1,0-1.19,1.87,1.55,1.55,0,0,0,.82-.48c.68.37,3.28,1.89,3.4,3.27a16.47,16.47,0,0,0,.09,13.37c-.33.68-1.61,2.56-5.82,3.48l0,.13a2,2,0,0,0-.63-.68,1.87,1.87,0,1,0,.57,2.58,1.84,1.84,0,0,0,.28-1.13c.53-.18,5.43-1.83,7.35-1.34a16.69,16.69,0,0,0,8.11,5.85c.57.49,1.41,1.75.63,4.64a1.37,1.37,0,0,0-.57.3,1.57,1.57,0,1,0,2.21.2,1.51,1.51,0,0,0-.79-.51c.08-.74.48-3.54,1.91-3.9a16.65,16.65,0,0,0,5.59-.36c.83.57,1.81,2,2.58,5.42h.13a2,2,0,0,0-.75.54,1.87,1.87,0,1,0,2.63-.24,1.81,1.81,0,0,0-1.09-.42,15,15,0,0,1-.9-6.15,16.68,16.68,0,0,0,2.76-1.48,20.59,20.59,0,0,1,1.59,2l.12-.07a1.88,1.88,0,0,0,.77,3.12,1.87,1.87,0,1,0-.09-3.54,20.78,20.78,0,0,1-1.62-2,16.44,16.44,0,0,0,3.29-3.32c2.48-.45,6.55,2.61,7,3a2,2,0,0,0,.13,1.26,2,2,0,1,0,3.66-1.66Z"/><path class="cls-11" d="M743.77,344.86c3.8-6.29,10.44-9.49,17.18-7.53l-.65-.42a15.86,15.86,0,0,0-16.4,27.16,16.06,16.06,0,0,0,3.79,1.66C740.7,361,739.38,352.14,743.77,344.86Z"/><path class="cls-12" d="M757.45,343.89c-.05,2.08-2.24,3.71-4.88,3.64s-4.73-1.81-4.68-3.89,2.25-4.12,4.89-4.05S757.51,341.81,757.45,343.89Z"/><path class="cls-12" d="M765.67,349.94a2.24,2.24,0,0,1-3.21-2.94,2.2,2.2,0,0,1,3.21,2.94Z"/><path class="cls-12" d="M756.64,363.16a1.29,1.29,0,0,1-1.85-1.69,1.26,1.26,0,0,1,1.85,1.69Z"/><path class="cls-13" d="M757.58,351.45a1.13,1.13,0,0,1,1.36.82,1.14,1.14,0,0,1-.48,1.52,1.26,1.26,0,0,1-.88-2.34Z"/><path class="cls-12" d="M745.84,359.6a1.28,1.28,0,0,1-1.83-1.7,1.26,1.26,0,0,1,1.83,1.7Z"/><path class="cls-13" d="M762.51,342.51a1.29,1.29,0,0,1-2.47.41,1.26,1.26,0,0,1,2.47-.41Z"/><path class="cls-12" d="M745.83,346.44a1.29,1.29,0,0,1-2.47.42,1.26,1.26,0,0,1,2.47-.42Z"/><circle class="cls-12" cx="750.84" cy="354.3" r="2.47"/><circle class="cls-12" cx="742.7" cy="353.17" r="1.75"/><circle class="cls-13" cx="749.51" cy="362.17" r="1.75"/><circle class="cls-13" cx="759.65" cy="358.21" r="1.75"/><path class="cls-10" d="M471.52,615.49a2.76,2.76,0,0,0-4.72-.51l.07-.19c-5.6-3-7.41-5.25-7.92-6.68a19.91,19.91,0,0,0,.93-2.26c.38-.35,1.48-.79,4.63.3l.05-.12a1.72,1.72,0,0,0,.12.89,1.81,1.81,0,1,0,1-2.36,1.76,1.76,0,0,0-.85.74c-.41-.1-3.12-.79-4.21-2a22.61,22.61,0,0,0,.47-6.39c.18-.8,1.4-2.94,9.11-3.47v-.06a3.64,3.64,0,0,0,1.73,1.69,3.72,3.72,0,1,0-1.77-4.94,3.79,3.79,0,0,0-.36,1.5c-1.54.23-7.43,1-10-.82a22.46,22.46,0,0,0-7.21-10.09c-.31-.85-.31-2.78,2.28-6.88l-.17-.12a2.89,2.89,0,1,0-1.89-2.26,2.8,2.8,0,0,0,.84,1.6c-.28.56-2.12,4.07-4.21,5.56a22.48,22.48,0,0,0-12-2.81,11.93,11.93,0,0,1-.21-3.31l-.14,0a1.78,1.78,0,0,0,.87-.4,1.93,1.93,0,1,0-2.72-.29,1.89,1.89,0,0,0,1,.66,14.57,14.57,0,0,1-.24,3.47,22.6,22.6,0,0,0-6.31,1.65c-.75-.53-2.08-2.08-3.5-6.69a3.41,3.41,0,0,0,.55-.7,2.74,2.74,0,1,0-3.77.92,3.19,3.19,0,0,0,1.82.44c.42,1.05,2.09,5.54,1.32,7.92a22.59,22.59,0,0,0-6.72,6.8c-.63.16-2.37.18-5.81-2.39a2,2,0,0,0,0-.87,2.16,2.16,0,1,0-1.64,2.57,2.11,2.11,0,0,0,1.13-.65c.93.51,4.49,2.59,4.66,4.49a22.65,22.65,0,0,0,.13,18.34c-.46.93-2.21,3.52-8,4.78l0,.18a2.55,2.55,0,1,0,.31,1.06c.72-.25,7.45-2.52,10.09-1.84a22.52,22.52,0,0,0,6.48,5.89,23.44,23.44,0,0,0,4.65,2.14c.77.67,1.92,2.4.86,6.36a2.15,2.15,0,1,0,2.25.69,2.19,2.19,0,0,0-1.08-.7c.11-1,.65-4.85,2.61-5.35a22.7,22.7,0,0,0,7.67-.5c1.15.78,2.49,2.77,3.55,7.45l.18,0a2.69,2.69,0,0,0-1,.75,2.56,2.56,0,1,0,2.11-.92c-.22-.6-1.75-5.11-1.23-8.43a21.57,21.57,0,0,0,3.78-2,28.17,28.17,0,0,1,2.19,2.73l.16-.09a2.61,2.61,0,0,0-.65,1.09,2.56,2.56,0,1,0,3.19-1.72,2.6,2.6,0,0,0-1.61.05,26.72,26.72,0,0,1-2.22-2.81,22.42,22.42,0,0,0,4.51-4.56c3.41-.61,9,3.58,9.66,4.09a2.84,2.84,0,0,0,.18,1.74,2.76,2.76,0,0,0,5-2.29Z"/><path class="cls-11" d="M427.14,590.78c5.21-8.62,14.33-13,23.57-10.33-.29-.2-.59-.39-.89-.57a21.77,21.77,0,1,0-17.31,39.55C422.92,613,421.1,600.77,427.14,590.78Z"/><path class="cls-12" d="M445.91,589.46c-.07,2.85-3.07,5.09-6.69,5s-6.5-2.48-6.43-5.34,3.09-5.66,6.72-5.56S446,586.61,445.91,589.46Z"/><path class="cls-12" d="M457.19,597.76c-.87,1-2.57.84-3.79-.28s-1.49-2.79-.62-3.75a3,3,0,0,1,4.41,4Z"/><path class="cls-12" d="M444.8,615.9a1.77,1.77,0,0,1-2.54-2.32,1.74,1.74,0,0,1,2.54,2.32Z"/><path class="cls-13" d="M446.08,599.83A1.77,1.77,0,0,1,447.3,603a1.73,1.73,0,0,1-1.22-3.21Z"/><path class="cls-12" d="M430,611a1.77,1.77,0,0,1-2.51-2.35A1.74,1.74,0,0,1,430,611Z"/><path class="cls-13" d="M452.85,587.56a1.77,1.77,0,0,1-3.39.57,1.74,1.74,0,0,1,3.39-.57Z"/><path class="cls-12" d="M430,593a1.77,1.77,0,0,1-3.39.57A1.74,1.74,0,0,1,430,593Z"/><circle class="cls-12" cx="436.84" cy="603.74" r="3.4"/><circle class="cls-12" cx="425.67" cy="602.19" r="2.4"/><circle class="cls-13" cx="435.01" cy="614.55" r="2.4"/><circle class="cls-13" cx="448.93" cy="609.11" r="2.4"/><path class="cls-10" d="M266.43,611.79a1.82,1.82,0,0,0-2.42-.91,1.72,1.72,0,0,0-.7.57l0-.13c-3.71-2-4.91-3.48-5.24-4.42a13.86,13.86,0,0,0,.61-1.5c.25-.23,1-.52,3.07.2l0-.08a1.2,1.2,0,0,0,.08.59,1.2,1.2,0,1,0,2.22-.92A1.21,1.21,0,0,0,262,605a6.84,6.84,0,0,1-2.78-1.32,14.74,14.74,0,0,0,.31-4.23c.12-.54.93-2,6-2.31v0a2.52,2.52,0,0,0,1.14,1.12,2.46,2.46,0,1,0-1.17-3.28,2.52,2.52,0,0,0-.24,1c-1,.16-4.92.66-6.61-.54a15,15,0,0,0-4.78-6.68c-.21-.56-.21-1.84,1.51-4.56l-.11-.08a1.92,1.92,0,0,0,2.53-2.12,1.92,1.92,0,1,0-3.78.62,2,2,0,0,0,.55,1.07,11.69,11.69,0,0,1-2.79,3.67,15,15,0,0,0-8-1.86,8.17,8.17,0,0,1-.13-2.19h-.09a1.28,1.28,0,1,0-1.23-.46,1.32,1.32,0,0,0,.68.44,9.61,9.61,0,0,1-.17,2.3,15.26,15.26,0,0,0-4.18,1.09c-.49-.35-1.37-1.38-2.31-4.43a2.45,2.45,0,0,0,.36-.46,1.82,1.82,0,1,0-2.49.6,2,2,0,0,0,1.2.29c.28.7,1.38,3.67.88,5.25a15.11,15.11,0,0,0-4.46,4.51c-.42.1-1.57.11-3.85-1.58a1.43,1.43,0,1,0-1.09,1.12,1.38,1.38,0,0,0,.75-.43c.61.34,3,1.71,3.08,3a15,15,0,0,0,.09,12.16c-.3.61-1.46,2.33-5.29,3.16l0,.12a1.66,1.66,0,0,0-.57-.61,1.68,1.68,0,1,0,.78,1.31c.48-.16,4.94-1.66,6.68-1.22a14.84,14.84,0,0,0,4.3,3.91,14.45,14.45,0,0,0,3.08,1.41c.51.45,1.27,1.6.57,4.22a1.2,1.2,0,0,0-.52.28,1.43,1.43,0,0,0-.19,2A1.43,1.43,0,1,0,241.2,619c.07-.68.43-3.22,1.73-3.55a15.27,15.27,0,0,0,5.09-.33c.76.52,1.65,1.83,2.34,4.93h.13a1.59,1.59,0,0,0-.68.5,1.7,1.7,0,1,0,1.39-.61,13.73,13.73,0,0,1-.81-5.59,14.38,14.38,0,0,0,2.5-1.35,19,19,0,0,1,1.45,1.81l.11-.06a1.6,1.6,0,0,0-.43.72,1.7,1.7,0,1,0,2.11-1.14,1.63,1.63,0,0,0-1.07,0,20.07,20.07,0,0,1-1.47-1.87,14.52,14.52,0,0,0,3-3c2.26-.4,6,2.38,6.4,2.71a1.83,1.83,0,1,0,3.45-.36Z"/><path class="cls-11" d="M237,595.42c3.45-5.72,9.49-8.63,15.61-6.85l-.58-.37a14.42,14.42,0,1,0-14.91,24.69,14.76,14.76,0,0,0,3.44,1.51C234.23,610.13,233,602,237,595.42Z"/><path class="cls-12" d="M249.47,594.54c-.05,1.89-2,3.37-4.44,3.31s-4.3-1.65-4.25-3.54a4.23,4.23,0,0,1,4.44-3.68C247.62,590.69,249.52,592.65,249.47,594.54Z"/><path class="cls-12" d="M256.94,600a2,2,0,0,1-2.92-2.67,2,2,0,0,1,2.92,2.67Z"/><path class="cls-12" d="M248.73,612.06a1.17,1.17,0,0,1-1.68-1.54,1.15,1.15,0,0,1,1.68,1.54Z"/><path class="cls-13" d="M249.58,601.41a1,1,0,0,1,1.24.75,1,1,0,0,1-.44,1.38,1.1,1.1,0,0,1-1.33-.71A1.12,1.12,0,0,1,249.58,601.41Z"/><path class="cls-12" d="M238.91,608.83a1,1,0,0,1-1.45-.12,1,1,0,0,1-.22-1.43,1.15,1.15,0,0,1,1.67,1.55Z"/><path class="cls-13" d="M254.06,593.28a1.17,1.17,0,0,1-2.24.38,1.12,1.12,0,0,1,1-1.17A1.1,1.1,0,0,1,254.06,593.28Z"/><path class="cls-12" d="M238.9,596.86a1.18,1.18,0,0,1-2.25.38,1.15,1.15,0,0,1,2.25-.38Z"/><circle class="cls-12" cx="243.46" cy="604" r="2.25"/><circle class="cls-12" cx="236.05" cy="602.98" r="1.59"/><circle class="cls-13" cx="242.24" cy="611.17" r="1.59"/><circle class="cls-13" cx="251.46" cy="607.56" r="1.59"/><path class="cls-10" d="M439.33,126.94a3.39,3.39,0,0,0-5.8-.64l.08-.22c-6.89-3.67-9.11-6.46-9.73-8.21a27.7,27.7,0,0,0,1.14-2.79c.46-.42,1.82-1,5.69.38l.06-.15a2.19,2.19,0,0,0,.16,1.09,2.21,2.21,0,1,0,.14-2c-.49-.12-3.83-1-5.17-2.45a27.36,27.36,0,0,0,.58-7.85c.23-1,1.72-3.61,11.21-4.27v-.07a4.51,4.51,0,0,0,2.12,2.08,4.57,4.57,0,1,0-2.18-6.08,4.5,4.5,0,0,0-.43,1.84c-1.91.29-9.15,1.21-12.28-1a27.66,27.66,0,0,0-8.86-12.39c-.39-1-.39-3.42,2.81-8.46l-.21-.15a3.56,3.56,0,1,0-2.33-2.78,3.46,3.46,0,0,0,1,2c-.34.68-2.6,5-5.18,6.83a27.71,27.71,0,0,0-14.8-3.46,14.23,14.23,0,0,1-.25-4.07l-.18,0a2.44,2.44,0,0,0,1.08-.48,2.41,2.41,0,1,0-2.09.44,18.69,18.69,0,0,1-.31,4.27,28.13,28.13,0,0,0-7.75,2c-.93-.64-2.56-2.55-4.3-8.22a4.08,4.08,0,0,0,.68-.85,3.37,3.37,0,1,0-4.64,1.12,3.88,3.88,0,0,0,2.24.54c.52,1.3,2.56,6.81,1.62,9.74A27.8,27.8,0,0,0,375.22,91c-.78.2-2.91.22-7.14-2.93a2.76,2.76,0,0,0,0-1.07,2.65,2.65,0,1,0-2,3.16,2.58,2.58,0,0,0,1.39-.81c1.14.63,5.52,3.19,5.72,5.52a27.83,27.83,0,0,0,.16,22.55c-.56,1.15-2.71,4.33-9.82,5.88l.05.22a3.2,3.2,0,0,0-1.06-1.14,3.15,3.15,0,1,0,1.44,2.44c.89-.3,9.16-3.09,12.4-2.26A28.13,28.13,0,0,0,390,132.44c1,.83,2.37,3,1.06,7.82a2.7,2.7,0,0,0-1,.51,2.65,2.65,0,1,0,3.73.34,2.59,2.59,0,0,0-1.33-.85c.13-1.25.8-6,3.21-6.59a28,28,0,0,0,9.44-.61c1.41,1,3.06,3.41,4.35,9.16l.23,0a3.15,3.15,0,1,0,3.58,4.94,3.15,3.15,0,0,0-2.26-5.16c-.26-.74-2.15-6.28-1.51-10.36a27.77,27.77,0,0,0,4.65-2.5,36,36,0,0,1,2.7,3.35l.2-.11a3.11,3.11,0,1,0,1.13-.72,34.45,34.45,0,0,1-2.72-3.45,27.75,27.75,0,0,0,5.54-5.6c4.19-.76,11.06,4.4,11.88,5a3.36,3.36,0,0,0,.22,2.13,3.39,3.39,0,1,0,6.18-2.81Z"/><path class="cls-11" d="M384.77,96.56c6.4-10.6,17.61-16,29-12.7-.35-.24-.72-.48-1.09-.7A26.76,26.76,0,0,0,385,129a27.3,27.3,0,0,0,6.39,2.8C379.58,123.87,377.35,108.84,384.77,96.56Z"/><path class="cls-12" d="M407.85,94.93c-.1,3.51-3.78,6.26-8.23,6.14s-8-3.06-7.9-6.56,3.8-7,8.25-6.84S407.94,91.43,407.85,94.93Z"/><path class="cls-12" d="M421.72,105.14c-1.08,1.18-3.17,1-4.66-.34s-1.84-3.43-.76-4.61a3.7,3.7,0,0,1,5.42,5Z"/><path class="cls-12" d="M406.48,127.44a2.17,2.17,0,0,1-3.12-2.85,2.13,2.13,0,0,1,3.12,2.85Z"/><path class="cls-13" d="M408.06,107.69a2.17,2.17,0,0,1,1.49,3.94,2.12,2.12,0,0,1-1.49-3.94Z"/><path class="cls-12" d="M388.25,121.45a2.17,2.17,0,0,1-3.09-2.88,2.13,2.13,0,0,1,3.09,2.88Z"/><path class="cls-13" d="M416.38,92.6a2.17,2.17,0,0,1-4.16.7,2.13,2.13,0,0,1,4.16-.7Z"/><path class="cls-12" d="M388.24,99.24a2.18,2.18,0,0,1-4.17.7,2.13,2.13,0,0,1,4.17-.7Z"/><circle class="cls-12" cx="396.69" cy="112.49" r="4.18"/><circle class="cls-12" cx="382.96" cy="110.59" r="2.95"/><circle class="cls-13" cx="394.45" cy="125.78" r="2.95"/><circle class="cls-13" cx="411.55" cy="119.09" r="2.95"/></g></svg>