<svg xmlns="http://www.w3.org/2000/svg" xmlns:xlink="http://www.w3.org/1999/xlink" viewBox="0 0 911 1117"><defs><style>.cls-1{fill:none;}.cls-2{clip-path:url(#clip-path);}.cls-3{fill:url(#Degradado_sin_nombre_6);}.cls-4,.cls-5{opacity:0.3;}.cls-4{fill:url(#Degradado_sin_nombre_6-2);}.cls-5{fill:url(#Degradado_sin_nombre_6-3);}.cls-6{opacity:0.2;fill:url(#Degradado_sin_nombre_4);}.cls-7{fill:url(#Degradado_sin_nombre_12);}.cls-8{fill:#e63b47;}.cls-9{fill:#666;}.cls-10{fill:#b3b3b3;}</style><clipPath id="clip-path"><rect class="cls-1" x="-576.5" width="556.5" height="1117" transform="translate(-596.5 1117) rotate(180)"/></clipPath><linearGradient id="Degradado_sin_nombre_6" x1="-451.69" y1="569" x2="389.61" y2="569" gradientUnits="userSpaceOnUse"><stop offset="0" stop-color="#106caf"/><stop offset="1" stop-color="#0f70bf"/></linearGradient><linearGradient id="Degradado_sin_nombre_6-2" x1="-505.13" x2="443.05" xlink:href="#Degradado_sin_nombre_6"/><linearGradient id="Degradado_sin_nombre_6-3" x1="-559.94" x2="497.86" xlink:href="#Degradado_sin_nombre_6"/><linearGradient id="Degradado_sin_nombre_4" x1="-65.32" y1="932.08" x2="-65.32" y2="204.61" gradientUnits="userSpaceOnUse"><stop offset="0" stop-color="#19b1f4"/><stop offset="1" stop-color="#044970"/></linearGradient><linearGradient id="Degradado_sin_nombre_12" x1="154.42" y1="846.09" x2="154.42" y2="155.83" gradientUnits="userSpaceOnUse"><stop offset="0" stop-color="#009245"/><stop offset="1" stop-color="#044970"/></linearGradient></defs><title>poblacion-vulnerable</title><g id="Noticias"><g class="cls-2"><ellipse class="cls-3" cx="-31.04" cy="569" rx="420.65" ry="419.14"/><ellipse class="cls-4" cx="-31.04" cy="569" rx="474.09" ry="472.39"/><ellipse class="cls-5" cx="-31.04" cy="569" rx="528.9" ry="527"/><path class="cls-6" d="M-290.14,475.88c28.66,2.53,68.72,10.73,104.65,34.69,57.3,38.21,85.19,107.45,72.56,175C-125.19,751-137.76,881.48-53.65,917.83c0,0,72.62,51.88,194.57-42.32,0,0,134.28-120.15,13.7-316.75-89-145.07-63.05-245.54-43.35-288.24A39.74,39.74,0,0,0,98,221c-35.82-24.63-107.6-39.84-213.26,94.74,0,0-35.62,35.5-74,43.69-30.14,6.44-124.58-4.83-143.72,52.3C-343.06,441.68-321.71,473.08-290.14,475.88Z"/><path class="cls-7" d="M40.06,155.83s-1.9,15.19,6.32,20.65,15.07,8.19,17.81,17.75S80.63,218.8,83.37,222.9s17.82,15,0,13.65-15.07-8.19-17.81-15-1.37-9.55-13.7-10.92-16.44-5.46-17.81,0S20.34,222.9,19,231.09s2.74,19.12,0,27.31-6.85,16.38,0,23.21,15.08,10.92,19.19,9.55S45,296.63,45,280.24s-8.22-30-1.37-30,13.7,1.36,13.7,8.19-5.48,13.65,5.48,17.75,20.55,12.28,20.55,15-4.11,1.37-6.85,10.93,0,24.57-11,32.76-27.4,24.58-45.22,28.67a121.35,121.35,0,0,0-31.51,12.29s8.22,16.39,8.22,24.58-19.18,6.82-23.29,15-11,21.84-4.11,25.94,19.18,2.73,24.66,0,17.81,2.73,27.4-12.29,9.59-23.21,23.3-31.4,20.55-4.1,23.29,8.19,5.48,19.11,9.59,12.29-5.48-32.77,5.48-28.67,9.59,6.82,15.08,21.84-23.3,10.92,5.48,15,64.4-1.37,69.88,2.73,6.85,4.09,9.59,15-4.11,28.67-16.44,30-37-5.46-46.59,0,6.85,16.39-9.59,12.29-34.26-9.56-39.74-15-8.22-12.29-8.22-15-1.37-10.92-30.14-5.46-45.22-4.09-63,27.31S-72.83,526-68.72,569.68s4.11,32.77,27.4,50.52c34.85,26.55,64.4,0,80.85,4.09s11,10.93,11,10.93,0,5.46,15.07,0,23.29-4.1,15.07,8.19-13.7,25.94-6.85,34.13,26,12.29,20.55,25.94-15.07,36.86-13.7,46.42,4.11,16.38,11,34.13,9.6,28.67,6.86,38.23-15.08,13.65-11,19.11,48,13.66,74-24.57,23.3-39.59,34.26-47.79,8.22-2.73,13.7-17.74-2.74-4.1,16.44-27.31,20.56-6.83,19.19-38.23-9.59-31.4,9.59-53.24,24.66-41,23.29-51.89,13.7-6.82-12.33-10.92S241,587.43,216.28,557.4s-20.55-56-11-50.52,6.85,19.11,21.92,24.57,13.71,15,26,13.66,32.88-4.1,35.62-21.85,9.6-13.65,9.6-21.84,5.48-12.29-11-12.29-30.14-1.36-34.25-12.29-11-24.57-1.37-23.21,6.85,10.93,13.7,13.66,8.22,10.92,17.81,9.55,8.22-6.82,23.3-6.82,8.22,5.46,15.07,13.65,11,2.73,20.55,10.92,11,12.29,11,24.58,5.48,41,13.71,32.76,11-34.13,11-46.42-1.37-15,0-21.84-21.42-134.41-139.51-236.5C238.46,247.17,159.8,176.13,40.06,155.83Z"/></g></g><g id="Vulnerables"><rect class="cls-8" width="912" height="1117"/><path d="M536.94,1116.86c-4.33-14-8.22-28.16-13.15-41.95-3.35-9.37-.91-15.82,6.3-22.08,12.59-10.92,24.67-22.44,36.94-33.74,20.51-18.91,27.13-41.44,18.52-68.4-3.95-12.35-6.83-25-11-40.5,12.47-1.26,23.07-3.05,33.65-3,3.23,0,8.22,4.68,9.26,8.16a126,126,0,0,1,5.07,27.7c3.58,55.4,8.34,110.86-3.58,165.94-.54,2.5-.1,5.21-.12,7.83Z"/><path d="M53,604.8c-5-23.8-7.11-52-9-78.8-2.11-29.49-2-32-13-32C19.39,494-.23,567.13,0,553,.71,510-1.8,390.9-1.27,347.85c.08-6.31,5.85-13.17,9.12-18.76C18.59,310.78,38,313.15,55.28,310c14.26-2.64,28.59-5.68,42.27-10.34,8.78-3,11-10,8.22-20.4C99.54,256.15,92,232.6,91.27,209.05c-1.1-35.13,12.62-66,43.69-85.62,38.17-24.15,84.15,0,87,45.3.85,13.57,1.75,27.62-.76,40.8-2.77,14.56-8.23,29-14.74,42.35-6.28,12.94-15.93,24.23-22.77,36.95-1.29,2.4,2.9,11.09,5.82,11.81,10.55,2.62,21.73,2.58,32.49,4.51,8.73,1.57,14.19-.34,19.61-8.18,20.68-29.85,49.05-46.58,86.07-47.19,14.22-.24,28.19-5.79,31.36-19.24s.62-27.73-11.69-40c-8.37-8.31-11.95-22.51-15.06-34.74s-1.61-25.53-4.46-37.83c-5.74-24.83,20.24-74.07,45-78,16.67-2.63,34.39,1.16,51.61,2.5,2,.15,4.66,2.52,5.68,4.54,8.52,16.83,25,27.91,29,48.75,5.24,27.07,10.17,53.31.42,79.91-17.33,47.27-3.11,71.2,45.51,75.1,32,2.57,57,16.3,73.35,44.57q39.3,67.92,78.84,135.7c5.57,9.52,12,18.52,19.68,30.25,2.17-8.91,3.89-13.92,4.57-19.07,5.44-41,11.71-82,15.59-123.13,2.27-24,11.3-42.63,32.44-53.78a482.37,482.37,0,0,1,51.62-22.89c18.07-6.95,27.51-28.75,21.9-47.48-6.54-21.81-12.61-44.15-15.16-66.68-3.65-32.33,14.61-62.77,40.54-66,28.12-3.47,57.73-7.8,83.31,11.5V212.51c-9.8,18.9-14.28,37.81,0,56.72V704.07c-8.1-2-16.43-6.44-24.26-5.69-32.1,3.1-57-10-77.26-31.75,7.54-19.29,17-38.66,22.57-59.08,5.67-20.59,8.59-42.13,10.6-63.46.82-8.59-2.11-18.81-6.55-26.39C822,492.31,799.14,478,770,473c-35.59-6.07-81.26,18.48-89.15,51.86-4.87,20.55-6,42.73-4.34,63.82,1.22,15.36,8.47,30.79,15.64,44.86,3.46,6.78,10.58,10.9,6.3,20.23-4.46,9.71-5.24,21.15-19.83,23.32-7.56,1.12-17.93,5.51-20.88,11.46-9.19,18.58-25.39,23.28-42.91,28.14-14.53,4-29.5,8.32-42.52,15.63-25,14-39.81,36.31-42.33,65.55-18.31-4.91-33.57-29.85-32-50.57l10.72,6.92c-6.13-28.76-10.69-58.13-19-86.4-5.66-19.25-14.3-38.52-25.63-55-20.52-29.86-68.53-28.86-90.46.72-15.19,20.49-25.3,43.34-26,69.61-.46,17.27-.51,34.69-3.09,51.69-1.56,10.3-7.51,19.94-11.65,29.81-1.28,3.06-3.09,5.9-5.15,9.77l16,3c-12.71,8.07-22.38,14.09-31.92,20.31C293.6,809.55,282.61,826,281,847.93c-1.85,25.06-1.83,50.38-5.56,75.14-6.52,43.36-4.45,83.8,27.89,117.6,2.84,3,4.35,7.2,6.93,10.48,6.84,8.71,7.17,17.25,3.13,27.81-4.61,12.08-6.47,25.22-9.53,37.9h-18.9c-4.72-26.32-8.69-52.8-14.3-78.93-11.9-55.51-21.9-111.05-21-168.29.38-22.89-4.5-45.87-6.9-68.83-2.43-23.24-16-39.51-33.71-52.76-26.87-20.15-30.57-42.32-18.31-74.28,10.39-27.07,18.64-55.89,21.63-84.59,2.63-25.26-8.9-49.61-33.95-60.59-13.74-6-30.62-4.94-46.1-6.93-39.07-5-68.8,31.24-64,65.69,3.14,22.6,6.8,45.39,13.2,67.22,6.78,23.17-.84,42.24-23.8,50.88C39.28,712.4,19,719.87.51,727.19"/><path class="cls-9" d="M624.86,936.86c4.71-26.32,8.69-52.8,14.3-78.93,11.9-55.51,21.9-111,21-168.29-.38-22.89,4.5-45.87,6.9-68.83,2.42-23.24,16-39.51,33.71-52.76,26.86-20.15,30.57-42.32,18.3-74.28-10.38-27.07-18.63-55.89-21.62-84.59-2.63-25.26,8.9-49.61,34-60.59,13.74-6,30.62-4.94,46.1-6.93,39.07-5,68.8,31.24,64,65.69-3.14,22.6-6.81,45.39-13.2,67.22-6.79,23.17.84,42.24,23.8,50.88L908.8,547l3,390Z"/><path class="cls-9" d="M312,797c-20,26-22.41,90.09-22.41,90.09L300,891c4.93,13.79,20.67,211,25,225H14c3.06-12.68,20.32-206,24.93-218,4-10.56,3.71-19.1-3.13-27.81-2.58-3.28-4.09-7.5-6.93-10.48C-3.47,825.87-5.54,785.43,1,742.07,4.71,717.31,4.69,692,6.54,666.93c1.63-22,12.62-38.38,30.81-50.23,9.54-6.22,19.21-12.24,31.92-20.31l-16-3c2.06-3.87,3.87-6.71,5.15-9.77,4.14-9.87,10.09-19.51,11.65-29.81,2.58-17,2.64-34.42,3.09-51.69.69-26.27,10.8-49.12,26-69.61,21.93-29.58,69.94-30.58,90.46-.72,11.33,16.49,20,35.76,25.63,55,8.32,28.27,12.88,57.64,19,86.4L223.5,566.3c-1.57,20.72,13.69,45.66,32,50.57,2.52-29.24,17.31-51.51,42.33-65.55,13-7.31,28-11.59,42.52-15.63,17.52-4.86,33.72-9.56,42.91-28.14,2.95-5.95,13.32-10.34,20.88-11.46,14.59-2.17,15.37-13.61,19.83-23.32,4.28-9.33-2.84-13.45-6.3-20.23C410.5,438.47,403.25,423,402,407.68c-1.68-21.09-.53-43.27,4.34-63.82,7.89-33.38,53.56-57.93,89.15-51.86,29.18,5,52,19.31,66.94,44.7,4.44,7.58,7.37,17.8,6.55,26.39-2,21.33-4.93,42.87-10.6,63.46-5.61,20.42-15,39.79-22.57,59.08,15.2,16.3,33,27.75,54.49,31.15,23.41,3.71,46.1,11,66.77,22.62C681,552.81,704.31,569,714,586c0,85.08-76.64,107.23-76.64,192.3l-19.65,16.92,19.65,24v72.47l-30.84-31-5,2.55c1.49,9,27,26.1,29.5,34.72,4.56,15.46,0,188,2,219l-291-2c0-2.61,2-184.47,2.52-187C356.44,873,352.59,834.4,349,779Z"/><path class="cls-10" d="M284.94,1116.86c-4.72-26.32-8.69-52.8-14.3-78.93-11.9-55.51-21.9-111.05-21-168.29.38-22.89-4.5-45.87-6.9-68.83-2.43-23.24-16-39.51-33.71-52.76-26.87-20.15-30.57-42.32-18.31-74.28,10.39-27.07,18.64-55.89,21.63-84.59,2.63-25.26-8.9-49.61-33.95-60.59-13.74-6-30.62-4.94-46.1-6.93-39.07-5-68.8,31.24-64,65.69,3.14,22.6,6.8,45.39,13.2,67.22,6.78,23.17-.84,42.24-23.8,50.88L1,727l-3,390Z"/><path class="cls-10" d="M536.94,1116.86H303.84c3.06-12.68,4.92-25.82,9.53-37.9,4-10.56,3.71-19.1-3.13-27.81-2.58-3.28-4.09-7.5-6.93-10.48-32.34-33.8-34.41-74.24-27.89-117.6,3.73-24.76,3.71-50.08,5.56-75.14,1.63-22,12.62-38.38,30.81-50.23,9.54-6.22,19.21-12.24,31.92-20.31l-16-3c2.06-3.87,3.87-6.71,5.15-9.77,4.14-9.87,10.09-19.51,11.65-29.81,2.58-17,2.63-34.42,3.09-51.69.69-26.27,10.8-49.12,26-69.61C395.49,584,443.5,583,464,612.81c11.33,16.49,20,35.76,25.63,55,8.32,28.27,12.88,57.64,19,86.4l-10.72-6.92c-1.57,20.72,13.69,45.66,32,50.57,2.52-29.24,17.31-51.51,42.33-65.55,13-7.31,28-11.59,42.52-15.63,17.52-4.86,33.72-9.56,42.91-28.14,2.95-5.95,13.32-10.34,20.88-11.46,14.59-2.17,15.37-13.61,19.83-23.32,4.28-9.33-2.84-13.45-6.3-20.23-7.17-14.07-14.42-29.5-15.64-44.86-1.68-21.09-.53-43.27,4.34-63.82C688.7,491.48,734.37,466.93,770,473c29.18,5,52,19.31,66.94,44.7,4.44,7.58,7.37,17.8,6.55,26.39-2,21.33-4.93,42.87-10.6,63.46-5.61,20.42-15,39.79-22.57,59.08,20.26,21.74,45.16,34.85,77.26,31.75,7.83-.75,16.16,3.66,24.26,5.69V959.3h0c-13.38,11.32-16.5,35.21-17.8,52.69-2,26.62-7.59,61.28,2,104.86H618.84c0-2.62-.42-5.33.12-7.83,11.92-55.08,7.16-110.54,3.58-165.94a121.09,121.09,0,0,0-2.19-16.24,8.94,8.94,0,0,0-15.93-3.6c-5.66,7.56-12.37,22.07-18.42,49.75,0,0-13,113,0,143Z"/></g></svg>