<svg xmlns="http://www.w3.org/2000/svg" viewBox="0 0 826.94 802.05"><defs><style>.cls-1{fill:#ec9979;}.cls-2{fill:#cc413c;}.cls-3{fill:#cc423f;}.cls-4{fill:#d25251;}.cls-5{fill:#dc6466;}.cls-6{fill:#ed818e;}.cls-7{fill:#a82c2c;}.cls-8{fill:#d95c5a;}.cls-9{fill:#f79594;}.cls-10{fill:#f27d7d;}.cls-11{fill:#ed6160;}.cls-12{fill:#f9b1b2;}</style></defs><title>pulmones</title><g id="organos_ai" data-name="organos ai"><path class="cls-1" d="M371.64,28.42C380.49,18.74,396,8,419.35,11.81a23.82,23.82,0,0,1,19.8,20c3,20.22,6.81,65,5.58,158.43,0,0-7.76,62.07,0,73.7s21.34,15.52,21.34,15.52,0,42.68-7.76,40.74-40.74-50.44-97,0l-7.76-31s27.16,5.82,27.16-65.95S376.84,122.34,373,89.36a234.42,234.42,0,0,0-7-36.92A25.21,25.21,0,0,1,371.64,28.42Z"/><path class="cls-2" d="M335,225.69c-7.47-16.62-25.53-26.19-43.31-22.2-13.33,3-30.17,12.22-50.58,33.29-60.13,62.07-98.92,116.38-131.9,225s-34.91,195.92-31,275.44,73.71,48.5,89.23,44.62,75.65-19.4,91.17-21.34,85.34,1.94,100.86-52.37,21.34-73.71,15.52-135.78-9.7-108.63-9.7-128,5.82-120.26-1.94-147.42C357.59,277.07,342.61,242.75,335,225.69Z"/><path class="cls-3" d="M550.43,222.09a48.58,48.58,0,0,0-8.17-6.32c-15.12-9.32-58.7-29.73-76.19,30.71-21.34,73.71-21.34,120.26-13.58,168.75s15.52,197.85,13.58,225-11.64,91.16,60.13,112.5,50.43,5.82,91.16,19.4,98.93,27.15,118.33,0S757,679,729.87,574.29,704.65,415.23,658.1,335.7c0,0-29.1-42.67-66-73.71Z"/><path class="cls-4" d="M310.89,223.2S274,198,210,308.55,91.7,682.91,105.28,710.07s21.34,42.67,44.61,25.21,19.4-21.33,52.38-31,66-23.28,66-67.89-21.34-128-5.82-205.61S351.62,250.36,310.89,223.2Z"/><path class="cls-5" d="M320.35,256.83A30,30,0,0,0,320,236c-4.79-11.67-18.47-23.71-57.55,2.77-60.13,40.73-137.72,275.44-120.26,316.17s42.67,17.46,50.43,3.88S227.48,407.47,274,339.58C305.19,294.15,316.37,268.69,320.35,256.83Z"/><path class="cls-6" d="M304.28,257.88a19.58,19.58,0,0,0,4.26-12.32c-.12-5.44-2.66-11.61-13.17-12.66-19.39-1.94-54.31,50.43-48.49,64s23.28,17.46,33,3.88,1.94-21.34,9.7-27.16C294.76,269.73,300.84,262.32,304.28,257.88Z"/><path class="cls-5" d="M506.15,309.14a93,93,0,0,1-10.5-53.45c1.94-17.46,9.21-34.43,30.55-32.49C568.87,227.08,660,378.38,669.74,399.71s60.13,159.06,44.61,207.55-40.73,62.07-64,13.58-29.1-71.77-38.8-133.84-27.15-67.89-58.19-104.74C533.59,358.79,516.19,328.24,506.15,309.14Z"/><path class="cls-6" d="M537.84,295s-1.94-23.28,25.21-19.4c25.12,3.59,85.09,120,60.17,132.88a9.74,9.74,0,0,1-11.34-2.28c-4.82-5.05-14.39-17.1-27.49-43.31C565,324.07,537.84,316.31,537.84,295Z"/><path class="cls-4" d="M509.09,241.31c-7.06,1.29-12.43,7.12-13.93,14.14-3.48,16.26-10.24,57.15,1.94,86.07,15.52,36.86,58.19,124.14,73.71,164.88s36.86,93.1,29.1,161,36.85,60.13,66,66,62.07,33,56.25,0c-5.34-30.27-28.67-217.49-113.51-350a563,563,0,0,1-39.79-73.47C554.26,277.36,531.48,237.23,509.09,241.31Z"/><circle class="cls-7" cx="335.14" cy="522.89" r="6.79"/><circle class="cls-7" cx="292.46" cy="489.91" r="4.85"/><circle class="cls-7" cx="300.22" cy="546.16" r="4.85"/><circle class="cls-7" cx="299.41" cy="416.57" r="6.79"/><circle class="cls-7" cx="341.08" cy="450.8" r="4.85"/><circle class="cls-7" cx="335" cy="394.34" r="4.85"/><circle class="cls-8" cx="352.59" cy="569.44" r="4.85"/><circle class="cls-8" cx="302.16" cy="590.78" r="4.85"/><circle class="cls-8" cx="302.16" cy="647.03" r="4.85"/><circle class="cls-8" cx="333.2" cy="648.97" r="4.85"/><circle class="cls-8" cx="339.02" cy="612.11" r="4.85"/><circle class="cls-7" cx="286.64" cy="683.88" r="9.7"/><circle class="cls-7" cx="269.19" cy="724.61" r="3.88"/><circle class="cls-7" cx="313.8" cy="714.92" r="5.82"/><circle class="cls-8" cx="176.08" cy="753.71" r="5.82"/><circle class="cls-7" cx="509.31" cy="516.76" r="6.19"/><circle class="cls-7" cx="467.36" cy="455.38" r="3.08"/><circle class="cls-7" cx="539.12" cy="540.75" r="4.42"/><circle class="cls-7" cx="478.68" cy="403.72" r="6.19"/><circle class="cls-7" cx="509.81" cy="450.8" r="4.42"/><circle class="cls-7" cx="467.56" cy="365.11" r="4.42"/><circle class="cls-8" cx="514.39" cy="575.94" r="3.52"/><circle class="cls-8" cx="551.92" cy="589.02" r="3.52"/><circle class="cls-8" cx="554.57" cy="629.76" r="3.52"/><circle class="cls-8" cx="532.18" cy="632.62" r="3.52"/><circle class="cls-8" cx="526.23" cy="606.2" r="3.52"/><circle class="cls-7" cx="563.48" cy="676.64" r="8.84"/><circle class="cls-7" cx="552.74" cy="705.37" r="3.54"/><circle class="cls-7" cx="513.01" cy="692.92" r="5.31"/><circle class="cls-8" cx="603.89" cy="743.28" r="5.31"/><circle class="cls-8" cx="656.26" cy="747.16" r="3.15"/><path class="cls-9" d="M474.89,199.5a1.36,1.36,0,0,0-1.26,0,2.59,2.59,0,0,1-1,.16,2.93,2.93,0,0,1-2-.76,26.71,26.71,0,0,1-2.24-3,21.74,21.74,0,0,0,1.87-6.07,29,29,0,0,1,3.51-1.47,2.05,2.05,0,0,1,1.34.18,1.7,1.7,0,0,1,.72.71,1.1,1.1,0,0,0,.9.66c.69,0,1.37-1.07,1.35-2.32s-.74-2.2-1.43-2.18a1,1,0,0,0-.78.51,1.78,1.78,0,0,1-.55.51,2.17,2.17,0,0,1-1.53.36,25.51,25.51,0,0,1-3.3-1.17,21.81,21.81,0,0,0-1.56-7.27,20.83,20.83,0,0,1,1.91-2.33,2.75,2.75,0,0,1,1.71-.68,2.17,2.17,0,0,1,1.32.36,1.47,1.47,0,0,0,1.51.17c.81-.47.91-2.19,0-3.65s-2.35-2.12-3.16-1.64a1.35,1.35,0,0,0-.58,1.12,2.46,2.46,0,0,1-.32,1,2.89,2.89,0,0,1-1.57,1.45,18.89,18.89,0,0,1-2.75.56,21.63,21.63,0,0,0-5.25-5.65,18.31,18.31,0,0,1,.52-2.59,2,2,0,0,1,.88-1,1.58,1.58,0,0,1,1-.21,1.09,1.09,0,0,0,1-.4c.37-.59-.15-1.74-1.21-2.39s-2.24-.58-2.61,0a1,1,0,0,0,0,.93,1.88,1.88,0,0,1,.13.75,2.16,2.16,0,0,1-.53,1.47,19.43,19.43,0,0,1-2.08,1.64,21.71,21.71,0,0,0-7.65-2.4,11.93,11.93,0,0,1-.54-1.67,2.72,2.72,0,0,1,.29-1.81,2.27,2.27,0,0,1,1-1,1.48,1.48,0,0,0,.93-1.2c0-.95-1.41-1.92-3.1-1.93s-3,.92-3,1.86a1.35,1.35,0,0,0,.67,1.07,2.68,2.68,0,0,1,.68.78,3,3,0,0,1,.43,2.1,14,14,0,0,1-.53,1.6,22,22,0,0,0-8.66,2.06,13.78,13.78,0,0,1-1.43-1.26,2.06,2.06,0,0,1-.46-1.26,1.61,1.61,0,0,1,.29-1,1.09,1.09,0,0,0,.16-1.1c-.33-.6-1.59-.71-2.68-.11s-1.6,1.68-1.26,2.29a1,1,0,0,0,.81.44,1.83,1.83,0,0,1,.71.25,2.19,2.19,0,0,1,1,1.18,14.7,14.7,0,0,1,.33,1.91,21.93,21.93,0,0,0-6.26,6.08,16.35,16.35,0,0,1-2.08-.47,2.76,2.76,0,0,1-1.41-1.19,2.21,2.21,0,0,1-.29-1.34,1.49,1.49,0,0,0-.55-1.42c-.8-.49-2.36.22-3.26,1.66s-.77,3.07,0,3.57a1.34,1.34,0,0,0,1.26,0,2.53,2.53,0,0,1,1-.18,2.9,2.9,0,0,1,2,.72,16.69,16.69,0,0,1,1.5,1.79,21.56,21.56,0,0,0-2,7.42,18.84,18.84,0,0,1-2.64,1,2,2,0,0,1-1.33-.19,1.62,1.62,0,0,1-.71-.71,1.09,1.09,0,0,0-.9-.67c-.69,0-1.38,1.06-1.37,2.31s.72,2.2,1.42,2.19a1,1,0,0,0,.77-.5,1.94,1.94,0,0,1,.56-.51,2.18,2.18,0,0,1,1.53-.35,19.45,19.45,0,0,1,2.67.94,22.09,22.09,0,0,0,2,7.55,15.58,15.58,0,0,1-1.28,1.53,2.78,2.78,0,0,1-1.7.7,2.32,2.32,0,0,1-1.33-.34,1.49,1.49,0,0,0-1.51-.17c-.81.49-.89,2.2,0,3.66s2.38,2.09,3.18,1.6a1.32,1.32,0,0,0,.57-1.13,2.39,2.39,0,0,1,.31-1,3,3,0,0,1,1.55-1.46,14.87,14.87,0,0,1,1.92-.44,21.76,21.76,0,0,0,5.46,5.54,25.77,25.77,0,0,1-.33,3.44,2.06,2.06,0,0,1-.78,1.1,1.61,1.61,0,0,1-1,.3,1.09,1.09,0,0,0-1,.49c-.31.61.31,1.71,1.42,2.27s2.29.38,2.6-.24a1,1,0,0,0-.09-.92,1.9,1.9,0,0,1-.2-.74,2.12,2.12,0,0,1,.4-1.51,22.82,22.82,0,0,1,2.36-2.2,21.63,21.63,0,0,0,7.28,1.94,20.66,20.66,0,0,1,.68,2.69,2.8,2.8,0,0,1-.46,1.78,2.22,2.22,0,0,1-1.08.85,1.51,1.51,0,0,0-1,1.11c-.09.94,1.23,2,2.92,2.21s3.1-.64,3.19-1.58a1.36,1.36,0,0,0-.56-1.13,2.46,2.46,0,0,1-.61-.84,3,3,0,0,1-.24-2.12,25.64,25.64,0,0,1,1.44-3,22,22,0,0,0,6.16-1.6,25.31,25.31,0,0,1,2.95,2,2.07,2.07,0,0,1,.58,1.22,1.61,1.61,0,0,1-.21,1,1.08,1.08,0,0,0-.06,1.12c.38.57,1.65.57,2.68-.13s1.44-1.81,1.06-2.38a1,1,0,0,0-.85-.38,1.73,1.73,0,0,1-.74-.19,2.18,2.18,0,0,1-1.13-1.08,23.41,23.41,0,0,1-.75-3.09,21.67,21.67,0,0,0,5.23-4.86,23.27,23.27,0,0,1,3.46.77,2.73,2.73,0,0,1,1.38,1.22,2.29,2.29,0,0,1,.27,1.34,1.48,1.48,0,0,0,.51,1.43c.79.52,2.37-.16,3.3-1.58S475.68,200,474.89,199.5Z"/><path class="cls-10" d="M437.75,179.06c5-8.32,13.82-12.56,22.73-10-.28-.19-.57-.37-.86-.54a21,21,0,0,0-21.7,35.93,21.49,21.49,0,0,0,5,2.19C433.68,200.47,431.94,188.69,437.75,179.06Z"/><path class="cls-11" d="M453.46,176.56c-.08,2.75-3,4.9-6.46,4.81s-6.26-2.4-6.19-5.15,3-5.45,6.47-5.36S453.53,173.8,453.46,176.56Z"/><path class="cls-11" d="M464.33,184.56c-.84.92-2.48.8-3.65-.27a2.63,2.63,0,0,1-.6-3.62,2.91,2.91,0,0,1,4.25,3.89Z"/><path class="cls-11" d="M452.38,202.05a1.7,1.7,0,0,1-2.44-2.24,1.67,1.67,0,0,1,2.44,2.24Z"/><path class="cls-12" d="M453.62,186.55a1.53,1.53,0,0,1,1.81,1.09,1.51,1.51,0,0,1-.64,2,1.67,1.67,0,0,1-1.17-3.1Z"/><path class="cls-11" d="M438.09,197.35a1.7,1.7,0,0,1-2.42-2.26,1.67,1.67,0,0,1,2.42,2.26Z"/><path class="cls-12" d="M460.15,174.73a1.71,1.71,0,0,1-3.27.55,1.67,1.67,0,0,1,3.27-.55Z"/><path class="cls-11" d="M438.08,179.93a1.71,1.71,0,0,1-3.27.55,1.67,1.67,0,0,1,3.27-.55Z"/><circle class="cls-11" cx="444.71" cy="190.32" r="3.27"/><circle class="cls-11" cx="433.94" cy="188.83" r="2.32"/><circle class="cls-12" cx="442.95" cy="200.75" r="2.32"/><circle class="cls-12" cx="456.36" cy="195.5" r="2.32"/><path class="cls-9" d="M104.48,706.41a1.81,1.81,0,0,0-1.7,0,3.25,3.25,0,0,1-1.38.21,3.9,3.9,0,0,1-2.69-1,35.68,35.68,0,0,1-3-4,29.36,29.36,0,0,0,2.52-8.17,38.15,38.15,0,0,1,4.73-2,2.75,2.75,0,0,1,1.8.24,2.25,2.25,0,0,1,1,1,1.45,1.45,0,0,0,1.21.88c.93,0,1.85-1.44,1.82-3.12s-1-3-1.93-2.94a1.34,1.34,0,0,0-1,.68,2.39,2.39,0,0,1-.75.7,2.9,2.9,0,0,1-2.05.48,32.74,32.74,0,0,1-4.44-1.57,29.65,29.65,0,0,0-2.11-9.8A28.41,28.41,0,0,1,99,674.82a3.76,3.76,0,0,1,2.3-.93,3,3,0,0,1,1.78.49,2,2,0,0,0,2,.24c1.09-.65,1.22-3,.06-4.93s-3.16-2.85-4.26-2.2a1.79,1.79,0,0,0-.77,1.51,3.47,3.47,0,0,1-.43,1.33,4,4,0,0,1-2.11,1.95,27,27,0,0,1-3.72.75,29.1,29.1,0,0,0-7.07-7.6,25.32,25.32,0,0,1,.7-3.49,2.8,2.8,0,0,1,1.18-1.38,2.2,2.2,0,0,1,1.33-.29,1.46,1.46,0,0,0,1.4-.53c.5-.79-.2-2.34-1.62-3.23s-3-.77-3.52,0a1.32,1.32,0,0,0,0,1.25,2.5,2.5,0,0,1,.17,1,2.91,2.91,0,0,1-.71,2,25.24,25.24,0,0,1-2.8,2.2,29.33,29.33,0,0,0-10.31-3.23,17.62,17.62,0,0,1-.73-2.25,3.71,3.71,0,0,1,.39-2.44,3,3,0,0,1,1.34-1.28,2,2,0,0,0,1.26-1.62c0-1.27-1.9-2.58-4.19-2.6s-4.07,1.24-4.09,2.51a1.83,1.83,0,0,0,.9,1.45,3.33,3.33,0,0,1,.92,1,4,4,0,0,1,.58,2.82,17.38,17.38,0,0,1-.72,2.16,29.59,29.59,0,0,0-11.66,2.77,18.82,18.82,0,0,1-1.92-1.69,2.73,2.73,0,0,1-.63-1.71,2.15,2.15,0,0,1,.39-1.29,1.5,1.5,0,0,0,.22-1.49c-.45-.81-2.15-1-3.61-.15s-2.15,2.26-1.71,3.08a1.34,1.34,0,0,0,1.1.6,2.35,2.35,0,0,1,1,.34,2.91,2.91,0,0,1,1.39,1.59,18.58,18.58,0,0,1,.46,2.57,29.18,29.18,0,0,0-8.43,8.19,23.08,23.08,0,0,1-2.82-.63,3.74,3.74,0,0,1-1.89-1.6,3.16,3.16,0,0,1-.4-1.81A2,2,0,0,0,39,666.4c-1.08-.67-3.19.29-4.39,2.23s-1,4.13,0,4.8a1.82,1.82,0,0,0,1.7,0,3.41,3.41,0,0,1,1.38-.25,4,4,0,0,1,2.71,1,21.91,21.91,0,0,1,2,2.43,29.33,29.33,0,0,0-2.64,10,26.91,26.91,0,0,1-3.55,1.4,2.76,2.76,0,0,1-1.8-.26,2.15,2.15,0,0,1-1-1,1.5,1.5,0,0,0-1.21-.9c-.93,0-1.86,1.44-1.84,3.11s1,3,1.9,3a1.33,1.33,0,0,0,1-.68,2.48,2.48,0,0,1,.75-.69,2.93,2.93,0,0,1,2.06-.47,28.08,28.08,0,0,1,3.6,1.27,29.74,29.74,0,0,0,2.71,10.17,19.19,19.19,0,0,1-1.72,2.06,3.74,3.74,0,0,1-2.29,1,3.09,3.09,0,0,1-1.79-.47,2,2,0,0,0-2-.22c-1.08.65-1.19,3,0,4.93s3.2,2.81,4.29,2.16a1.82,1.82,0,0,0,.76-1.52,3.37,3.37,0,0,1,.41-1.34,4,4,0,0,1,2.1-2,20.22,20.22,0,0,1,2.58-.6A29.36,29.36,0,0,0,52.17,713a35.23,35.23,0,0,1-.44,4.62,2.76,2.76,0,0,1-1.06,1.48,2.16,2.16,0,0,1-1.29.41,1.47,1.47,0,0,0-1.35.66c-.42.83.42,2.31,1.91,3.06s3.09.51,3.51-.33a1.34,1.34,0,0,0-.12-1.24,2.4,2.4,0,0,1-.27-1,3,3,0,0,1,.53-2,30.9,30.9,0,0,1,3.19-3,29,29,0,0,0,9.81,2.61,27.67,27.67,0,0,1,.9,3.63,3.73,3.73,0,0,1-.61,2.4,3.17,3.17,0,0,1-1.45,1.15,2,2,0,0,0-1.4,1.49c-.13,1.27,1.65,2.74,3.93,3s4.17-.87,4.3-2.13a1.82,1.82,0,0,0-.76-1.52,3.38,3.38,0,0,1-.82-1.13,4,4,0,0,1-.32-2.86,32.35,32.35,0,0,1,1.93-4.07,29.46,29.46,0,0,0,8.3-2.16,36.3,36.3,0,0,1,4,2.75,2.76,2.76,0,0,1,.78,1.64,2.22,2.22,0,0,1-.28,1.33,1.49,1.49,0,0,0-.09,1.5c.52.77,2.22.77,3.61-.17s2-2.44,1.43-3.21a1.32,1.32,0,0,0-1.14-.51,2.27,2.27,0,0,1-1-.25,2.91,2.91,0,0,1-1.53-1.46,31.82,31.82,0,0,1-1-4.16,29.31,29.31,0,0,0,7-6.55,34.94,34.94,0,0,1,4.67,1,3.75,3.75,0,0,1,1.85,1.64,3,3,0,0,1,.36,1.82,2,2,0,0,0,.7,1.93c1.06.69,3.19-.23,4.43-2.14S105.54,707.1,104.48,706.41Z"/><path class="cls-10" d="M54.45,678.88c6.76-11.21,18.61-16.91,30.61-13.43-.38-.25-.76-.5-1.15-.73a28.27,28.27,0,1,0-22.49,51.35C49,707.72,46.61,691.85,54.45,678.88Z"/><path class="cls-11" d="M75.6,675.51c-.09,3.71-4,6.61-8.69,6.48s-8.44-3.23-8.34-6.93,4-7.35,8.71-7.23S75.7,671.8,75.6,675.51Z"/><path class="cls-11" d="M90.26,686.29c-1.14,1.25-3.35,1.09-4.93-.36s-1.94-3.63-.8-4.87a3.91,3.91,0,0,1,5.73,5.23Z"/><path class="cls-11" d="M74.16,709.85a2.29,2.29,0,0,1-3.29-3,2.25,2.25,0,0,1,3.29,3Z"/><path class="cls-12" d="M75.83,689a2.29,2.29,0,0,1,1.57,4.17A2.25,2.25,0,0,1,75.83,689Z"/><path class="cls-11" d="M54.9,703.52a2.29,2.29,0,0,1-3.26-3,2.25,2.25,0,0,1,3.26,3Z"/><path class="cls-12" d="M84.62,673a2.29,2.29,0,0,1-4.4.74,2.25,2.25,0,0,1,4.4-.74Z"/><path class="cls-11" d="M54.89,680.06a2.3,2.3,0,0,1-4.4.74,2.25,2.25,0,0,1,4.4-.74Z"/><circle class="cls-11" cx="63.82" cy="694.05" r="4.41"/><circle class="cls-11" cx="49.31" cy="692.04" r="3.12"/><circle class="cls-12" cx="61.45" cy="708.1" r="3.12"/><circle class="cls-12" cx="79.52" cy="701.03" r="3.12"/><path class="cls-9" d="M805.91,459a.68.68,0,0,0-.64,0,1.14,1.14,0,0,1-.52.08,1.52,1.52,0,0,1-1-.38,13.77,13.77,0,0,1-1.13-1.5,11.1,11.1,0,0,0,.94-3.07,14.52,14.52,0,0,1,1.78-.74,1,1,0,0,1,.68.09.89.89,0,0,1,.36.36.55.55,0,0,0,.45.33c.35,0,.7-.54.69-1.17s-.38-1.11-.73-1.11a.52.52,0,0,0-.39.26.87.87,0,0,1-.28.26,1.07,1.07,0,0,1-.77.18,12.08,12.08,0,0,1-1.67-.59,11.07,11.07,0,0,0-.79-3.68,10.89,10.89,0,0,1,1-1.17,1.37,1.37,0,0,1,.86-.35,1.15,1.15,0,0,1,.67.18.72.72,0,0,0,.76.09c.41-.24.46-1.11,0-1.85s-1.19-1.06-1.6-.82a.64.64,0,0,0-.29.56,1.4,1.4,0,0,1-.16.5,1.54,1.54,0,0,1-.8.74,9.57,9.57,0,0,1-1.39.28,10.92,10.92,0,0,0-2.66-2.86,10.2,10.2,0,0,1,.27-1.31,1,1,0,0,1,.44-.51.79.79,0,0,1,.5-.11.57.57,0,0,0,.53-.2c.18-.3-.08-.88-.62-1.21s-1.13-.29-1.32,0a.49.49,0,0,0,0,.47,1,1,0,0,1,.06.38,1,1,0,0,1-.27.74,9.15,9.15,0,0,1-1,.83,10.81,10.81,0,0,0-3.88-1.21,6.56,6.56,0,0,1-.27-.85,1.37,1.37,0,0,1,.15-.91,1.06,1.06,0,0,1,.5-.48.75.75,0,0,0,.47-.61c0-.48-.71-1-1.57-1s-1.53.47-1.53.95a.66.66,0,0,0,.33.54,1.19,1.19,0,0,1,.35.39,1.46,1.46,0,0,1,.21,1.06,6,6,0,0,1-.26.81,11.21,11.21,0,0,0-4.38,1,5.7,5.7,0,0,1-.72-.63,1,1,0,0,1-.24-.64.79.79,0,0,1,.15-.49.56.56,0,0,0,.08-.56c-.17-.3-.81-.36-1.36-.05s-.8.85-.64,1.15a.52.52,0,0,0,.41.23.82.82,0,0,1,.37.13,1.09,1.09,0,0,1,.52.59,8.12,8.12,0,0,1,.17,1,11,11,0,0,0-3.17,3.07,7.52,7.52,0,0,1-1-.23,1.44,1.44,0,0,1-.71-.61,1.06,1.06,0,0,1-.15-.67.73.73,0,0,0-.28-.72c-.4-.25-1.19.11-1.65.84s-.39,1.55,0,1.8a.66.66,0,0,0,.64,0,1.28,1.28,0,0,1,.51-.09,1.47,1.47,0,0,1,1,.36c.19.19.47.54.76.91a11,11,0,0,0-1,3.75,9.09,9.09,0,0,1-1.33.53,1,1,0,0,1-.67-.1.78.78,0,0,1-.36-.36.57.57,0,0,0-.46-.34c-.35,0-.69.54-.69,1.17s.37,1.11.72,1.11a.51.51,0,0,0,.39-.25.87.87,0,0,1,.28-.26,1.09,1.09,0,0,1,.78-.18,9.84,9.84,0,0,1,1.35.48,11.11,11.11,0,0,0,1,3.82,7.92,7.92,0,0,1-.65.77,1.37,1.37,0,0,1-.86.35,1.06,1.06,0,0,1-.67-.17.74.74,0,0,0-.77-.08c-.41.24-.45,1.11,0,1.85s1.2,1.05,1.6.81a.68.68,0,0,0,.29-.57,1.21,1.21,0,0,1,.15-.5,1.53,1.53,0,0,1,.79-.75,8.64,8.64,0,0,1,1-.22,11.15,11.15,0,0,0,2.76,2.81,12.16,12.16,0,0,1-.16,1.73,1.07,1.07,0,0,1-.4.56.83.83,0,0,1-.48.15.56.56,0,0,0-.51.25c-.16.31.16.87.72,1.15s1.15.19,1.31-.12a.5.5,0,0,0,0-.47.93.93,0,0,1-.1-.37,1,1,0,0,1,.2-.77,12.19,12.19,0,0,1,1.19-1.11,11.11,11.11,0,0,0,3.69,1,11.58,11.58,0,0,1,.34,1.36,1.4,1.4,0,0,1-.24.9,1.1,1.1,0,0,1-.54.43.75.75,0,0,0-.52.57c-.05.47.62,1,1.47,1.11s1.57-.32,1.61-.8a.65.65,0,0,0-.28-.57,1.31,1.31,0,0,1-.31-.42,1.49,1.49,0,0,1-.12-1.08,11.64,11.64,0,0,1,.73-1.52,11.15,11.15,0,0,0,3.11-.81,13.07,13.07,0,0,1,1.5,1,1.05,1.05,0,0,1,.29.61.79.79,0,0,1-.11.5.56.56,0,0,0,0,.57c.2.29.83.28,1.36-.07s.73-.91.53-1.2a.48.48,0,0,0-.43-.19.82.82,0,0,1-.37-.1,1,1,0,0,1-.57-.55,11.92,11.92,0,0,1-.38-1.56,10.79,10.79,0,0,0,2.64-2.46,13.75,13.75,0,0,1,1.76.39,1.41,1.41,0,0,1,.69.62,1.13,1.13,0,0,1,.14.68.72.72,0,0,0,.26.72c.4.26,1.19-.08,1.66-.8S806.31,459.21,805.91,459Z"/><path class="cls-10" d="M787.13,448.61c2.54-4.2,7-6.35,11.49-5l-.43-.27a10.61,10.61,0,0,0-11,18.17,11.14,11.14,0,0,0,2.54,1.11C785.07,459.44,784.19,453.48,787.13,448.61Z"/><path class="cls-11" d="M795.07,447.35c0,1.39-1.5,2.48-3.26,2.43s-3.17-1.21-3.13-2.6a3.22,3.22,0,0,1,6.39.17Z"/><path class="cls-11" d="M800.57,451.4a1.5,1.5,0,0,1-2.15-2,1.47,1.47,0,0,1,2.15,2Z"/><path class="cls-11" d="M794.53,460.24a.86.86,0,0,1-1.24-1.13.85.85,0,0,1,1.24,1.13Z"/><path class="cls-12" d="M795.15,452.4a.79.79,0,0,1,.92.55.77.77,0,0,1-.32,1,.85.85,0,0,1-.6-1.57Z"/><path class="cls-11" d="M787.3,457.86a.86.86,0,0,1-1.22-1.14.81.81,0,0,1,1.11,0A.82.82,0,0,1,787.3,457.86Z"/><path class="cls-12" d="M798.45,446.42a.86.86,0,0,1-1.65.28.82.82,0,0,1,.71-.86A.81.81,0,0,1,798.45,446.42Z"/><path class="cls-11" d="M787.29,449.06a.86.86,0,0,1-1.65.27.84.84,0,0,1,1.65-.27Z"/><circle class="cls-11" cx="790.65" cy="454.31" r="1.66"/><circle class="cls-11" cx="785.2" cy="453.56" r="1.17"/><circle class="cls-12" cx="789.76" cy="459.58" r="1.17"/><circle class="cls-12" cx="796.54" cy="456.93" r="1.17"/><path class="cls-9" d="M348.36,303.52a1.61,1.61,0,0,0-2.14-.81,1.65,1.65,0,0,0-.63.5l0-.11c-3.28-1.74-4.34-3.07-4.63-3.91.2-.43.38-.88.54-1.32.22-.2.87-.46,2.71.18l0-.07a1,1,0,0,0,.07.51,1.06,1.06,0,0,0,1.38.58,1.06,1.06,0,1,0-.81-2,1.17,1.17,0,0,0-.5.43,5.86,5.86,0,0,1-2.46-1.16,13.5,13.5,0,0,0,.28-3.74c.1-.47.82-1.72,5.33-2v0a2.13,2.13,0,0,0,1,1,2.17,2.17,0,1,0-1-2.89,2.1,2.1,0,0,0-.21.87c-.91.14-4.36.58-5.85-.48a13.16,13.16,0,0,0-4.22-5.9c-.18-.5-.18-1.63,1.34-4l-.1-.07a1.65,1.65,0,0,0,.83.07,1.7,1.7,0,1,0-1.45-.46,10.38,10.38,0,0,1-2.47,3.25,13.15,13.15,0,0,0-7.05-1.64,7.3,7.3,0,0,1-.12-1.94h-.08a1.17,1.17,0,0,0,.51-.23,1.14,1.14,0,1,0-1,.21,8.44,8.44,0,0,1-.14,2,13.56,13.56,0,0,0-3.7,1c-.44-.31-1.21-1.22-2-3.92a2,2,0,0,0,.32-.41,1.6,1.6,0,1,0-2.21.54,1.92,1.92,0,0,0,1.07.26c.24.62,1.22,3.24.77,4.64a13.24,13.24,0,0,0-3.94,4c-.37.09-1.38.1-3.4-1.4a1.26,1.26,0,1,0-.3.61c.54.3,2.63,1.52,2.72,2.63a13.28,13.28,0,0,0,.08,10.75c-.27.54-1.29,2.06-4.68,2.8l0,.1a1.43,1.43,0,0,0-.5-.54,1.5,1.5,0,1,0,.45,2.07,1.5,1.5,0,0,0,.23-.91c.43-.14,4.37-1.47,5.91-1.08a13.45,13.45,0,0,0,3.8,3.46,14.15,14.15,0,0,0,2.72,1.25c.46.39,1.13,1.4.51,3.72a1.22,1.22,0,0,0-.46.25,1.25,1.25,0,1,0,1.14-.25c.06-.59.38-2.84,1.53-3.14a13.35,13.35,0,0,0,4.5-.29c.67.46,1.45,1.62,2.07,4.36h.11a1.44,1.44,0,0,0-.6.44,1.49,1.49,0,1,0,1.23-.54,11.94,11.94,0,0,1-.72-4.93,13.5,13.5,0,0,0,2.21-1.2,16.76,16.76,0,0,1,1.29,1.6l.09,0a1.55,1.55,0,0,0-.38.63,1.5,1.5,0,1,0,1.87-1,1.44,1.44,0,0,0-.94,0,14.33,14.33,0,0,1-1.3-1.65,13.37,13.37,0,0,0,2.64-2.67c2-.36,5.27,2.1,5.66,2.4a1.54,1.54,0,0,0,.1,1,1.62,1.62,0,0,0,2.95-1.33Z"/><path class="cls-10" d="M322.36,289c3.05-5.05,8.4-7.62,13.81-6.05l-.52-.33a12.75,12.75,0,1,0-13.18,21.83,12.38,12.38,0,0,0,3,1.33C319.89,302.05,318.83,294.89,322.36,289Z"/><path class="cls-11" d="M333.36,288.27c-.05,1.67-1.8,3-3.92,2.92s-3.81-1.45-3.77-3.13a3.88,3.88,0,0,1,7.69.21Z"/><path class="cls-11" d="M340,293.13a1.8,1.8,0,0,1-2.59-2.36,1.77,1.77,0,0,1,2.59,2.36Z"/><path class="cls-11" d="M332.71,303.75a1,1,0,0,1-1.49-1.35,1,1,0,0,1,1.49,1.35Z"/><path class="cls-12" d="M333.46,294.34a1,1,0,0,1,.71,1.88,1,1,0,0,1-.71-1.88Z"/><path class="cls-11" d="M324,300.9a1,1,0,0,1-1.47-1.37A1,1,0,0,1,324,300.9Z"/><path class="cls-12" d="M337.42,287.16a1,1,0,0,1-2,.33,1,1,0,0,1,.84-1A1,1,0,0,1,337.42,287.16Z"/><path class="cls-11" d="M324,290.32c.08.43-.31.85-.86.95a.92.92,0,0,1-1.12-.62,1,1,0,0,1,2-.33Z"/><circle class="cls-11" cx="328.04" cy="296.63" r="1.99"/><circle class="cls-11" cx="321.5" cy="295.73" r="1.41"/><circle class="cls-12" cx="326.97" cy="302.96" r="1.41"/><circle class="cls-12" cx="335.12" cy="299.78" r="1.41"/><path class="cls-9" d="M66,580.72a1.78,1.78,0,0,0-3-.33l.05-.12c-3.62-1.93-4.78-3.39-5.11-4.31a14,14,0,0,0,.6-1.46c.24-.22,1-.51,3,.19l0-.07a1.15,1.15,0,0,0,.08.57,1.17,1.17,0,0,0,1.52.63,1.16,1.16,0,0,0-.89-2.15,1.11,1.11,0,0,0-.55.47,6.56,6.56,0,0,1-2.72-1.28,14.7,14.7,0,0,0,.31-4.12c.12-.52.9-1.9,5.88-2.24v0a2.35,2.35,0,0,0,1.11,1.09,2.39,2.39,0,1,0-1.37-2.22c-1,.15-4.8.64-6.44-.53a14.5,14.5,0,0,0-4.65-6.5c-.21-.55-.21-1.8,1.47-4.44l-.11-.08a1.9,1.9,0,0,0,.92.08,1.87,1.87,0,1,0-2.14-1.54,1.84,1.84,0,0,0,.54,1,11.35,11.35,0,0,1-2.72,3.59,14.6,14.6,0,0,0-7.77-1.82,7.75,7.75,0,0,1-.13-2.13h-.09a1.2,1.2,0,0,0,.56-.26,1.24,1.24,0,1,0-1.75-.19,1.29,1.29,0,0,0,.66.43A9.5,9.5,0,0,1,43,555.2,14.38,14.38,0,0,0,39,556.26c-.49-.34-1.34-1.34-2.26-4.32a1.81,1.81,0,0,0,.36-.44,1.77,1.77,0,1,0-2.43.58,2,2,0,0,0,1.17.29c.27.68,1.35,3.57.85,5.11a14.51,14.51,0,0,0-4.33,4.39c-.41.1-1.53.11-3.75-1.54a1.51,1.51,0,0,0,0-.56,1.39,1.39,0,1,0-1,1.65,1.29,1.29,0,0,0,.72-.42c.6.33,2.9,1.67,3,2.9a14.59,14.59,0,0,0,.08,11.83c-.29.6-1.42,2.27-5.15,3.08l0,.12a1.58,1.58,0,0,0-.55-.6,1.66,1.66,0,1,0,.5,2.29,1.75,1.75,0,0,0,.25-1c.47-.16,4.81-1.62,6.51-1.18a14.78,14.78,0,0,0,7.18,5.18c.5.43,1.24,1.55.56,4.1a1.33,1.33,0,0,0-.51.27,1.39,1.39,0,1,0,2,.18,1.37,1.37,0,0,0-.7-.45c.07-.66.42-3.14,1.69-3.46a14.44,14.44,0,0,0,5-.32c.74.51,1.6,1.79,2.28,4.81h.12a1.54,1.54,0,0,0-.66.48,1.65,1.65,0,1,0,1.36-.6,13.38,13.38,0,0,1-.8-5.43,14.38,14.38,0,0,0,2.44-1.32,21,21,0,0,1,1.42,1.76l.1-.06a1.65,1.65,0,0,0,.69,2.76,1.65,1.65,0,0,0,1-3.16,1.6,1.6,0,0,0-1,0,15.84,15.84,0,0,1-1.43-1.82,14.49,14.49,0,0,0,2.91-2.94c2.2-.39,5.8,2.32,6.23,2.64a1.74,1.74,0,0,0,.12,1.12A1.78,1.78,0,1,0,66,580.72Z"/><path class="cls-10" d="M37.33,564.78c3.36-5.57,9.24-8.4,15.2-6.67-.18-.12-.37-.25-.57-.36a14,14,0,1,0-11.17,25.51C34.6,579.11,33.43,571.22,37.33,564.78Z"/><path class="cls-11" d="M49.44,563.92c0,1.85-2,3.29-4.32,3.23s-4.19-1.61-4.14-3.45,2-3.65,4.33-3.59A4.14,4.14,0,0,1,49.44,563.92Z"/><path class="cls-11" d="M56.72,569.28a2,2,0,0,1-2.85-2.6,1.95,1.95,0,0,1,2.85,2.6Z"/><path class="cls-11" d="M48.72,581a1.13,1.13,0,0,1-1.63-1.49A1.11,1.11,0,0,1,48.72,581Z"/><path class="cls-12" d="M49.55,570.62a1,1,0,0,1,1.21.72,1,1,0,0,1-.43,1.35,1.12,1.12,0,0,1-.78-2.07Z"/><path class="cls-11" d="M39.16,577.84a1,1,0,0,1-1.41-.12,1,1,0,0,1-.21-1.39,1.08,1.08,0,0,1,1.47,0A1.11,1.11,0,0,1,39.16,577.84Z"/><path class="cls-12" d="M53.91,562.7c.09.47-.34.94-.94,1a1,1,0,0,1-1.24-.67,1.12,1.12,0,0,1,2.18-.37Z"/><path class="cls-11" d="M39.15,566.18a1.14,1.14,0,0,1-2.19.37,1.12,1.12,0,0,1,2.19-.37Z"/><circle class="cls-11" cx="43.59" cy="573.14" r="2.19"/><circle class="cls-11" cx="36.38" cy="572.14" r="1.55"/><circle class="cls-12" cx="42.41" cy="580.11" r="1.55"/><circle class="cls-12" cx="51.38" cy="576.6" r="1.55"/><path class="cls-9" d="M788.62,399.86a2,2,0,0,0-3.44-.38l.05-.13c-4.08-2.17-5.4-3.83-5.76-4.87a16.76,16.76,0,0,0,.67-1.65c.27-.25,1.08-.57,3.37.23l0-.09a1.19,1.19,0,0,0,.09.64,1.32,1.32,0,0,0,1.72.71,1.3,1.3,0,0,0,.71-1.71,1.32,1.32,0,0,0-1.72-.72,1.37,1.37,0,0,0-.62.54,7.33,7.33,0,0,1-3.07-1.45,16.6,16.6,0,0,0,.35-4.65c.13-.59,1-2.14,6.64-2.53v0a2.7,2.7,0,1,0,3.56-3.67,2.72,2.72,0,0,0-3.6,1.3,2.63,2.63,0,0,0-.25,1.09c-1.13.17-5.42.72-7.28-.6a16.43,16.43,0,0,0-5.25-7.35c-.23-.62-.23-2,1.66-5l-.12-.09a2.11,2.11,0,1,0,.36-4.07,2.11,2.11,0,0,0-1.74,2.42,2,2,0,0,0,.61,1.17,12.76,12.76,0,0,1-3.07,4.05,16.39,16.39,0,0,0-8.77-2.05,8.39,8.39,0,0,1-.15-2.41h-.1a1.45,1.45,0,0,0,.63-.29,1.43,1.43,0,1,0-1.24.26,10.67,10.67,0,0,1-.18,2.54,16.52,16.52,0,0,0-4.59,1.19c-.55-.38-1.52-1.51-2.55-4.87a2.31,2.31,0,0,0,.4-.5,2,2,0,1,0-2.74.66,2.26,2.26,0,0,0,1.32.32c.31.77,1.52,4,1,5.77a16.42,16.42,0,0,0-4.89,5c-.47.11-1.73.13-4.24-1.74a1.67,1.67,0,0,0,0-.63,1.57,1.57,0,1,0-1.2,1.87,1.55,1.55,0,0,0,.82-.48c.68.37,3.28,1.89,3.4,3.27a16.47,16.47,0,0,0,.09,13.37c-.33.68-1.6,2.56-5.82,3.48l0,.13a1.87,1.87,0,1,0-.06,1.9,1.84,1.84,0,0,0,.28-1.13c.53-.18,5.44-1.83,7.35-1.34a16.4,16.4,0,0,0,4.73,4.29,16.58,16.58,0,0,0,3.38,1.56c.57.49,1.41,1.75.63,4.64a1.37,1.37,0,0,0-.57.3,1.57,1.57,0,1,0,2.21.2,1.51,1.51,0,0,0-.79-.51c.08-.74.48-3.54,1.91-3.9a16.65,16.65,0,0,0,5.59-.36c.83.57,1.81,2,2.58,5.42h.13a1.87,1.87,0,1,0,1.88.3,1.81,1.81,0,0,0-1.09-.42,15,15,0,0,1-.9-6.15,16.68,16.68,0,0,0,2.76-1.48,19.16,19.16,0,0,1,1.59,2l.12-.07a1.92,1.92,0,1,0,.68-.42,20.78,20.78,0,0,1-1.62-2,16.44,16.44,0,0,0,3.29-3.32c2.48-.45,6.55,2.61,7,3a2,2,0,0,0,.13,1.26,2,2,0,1,0,3.66-1.66Z"/><path class="cls-10" d="M756.28,381.86c3.8-6.29,10.45-9.49,17.18-7.53l-.65-.42a15.86,15.86,0,0,0-16.4,27.16,16.24,16.24,0,0,0,3.79,1.66C753.21,398,751.89,389.14,756.28,381.86Z"/><path class="cls-11" d="M770,380.89c-.05,2.08-2.24,3.71-4.88,3.64s-4.73-1.81-4.67-3.89,2.25-4.12,4.89-4.05S770,378.81,770,380.89Z"/><path class="cls-11" d="M778.18,386.94A2.24,2.24,0,0,1,775,384a2.2,2.2,0,0,1,3.21,2.94Z"/><path class="cls-11" d="M769.15,400.16a1.28,1.28,0,0,1-1.84-1.69,1.26,1.26,0,0,1,1.84,1.69Z"/><path class="cls-12" d="M770.09,388.45a1.29,1.29,0,0,1,.88,2.34,1.26,1.26,0,0,1-.88-2.34Z"/><path class="cls-11" d="M758.35,396.6a1.28,1.28,0,0,1-1.83-1.7,1.26,1.26,0,0,1,1.83,1.7Z"/><path class="cls-12" d="M775,379.51a1.29,1.29,0,0,1-2.47.41,1.26,1.26,0,0,1,2.47-.41Z"/><path class="cls-11" d="M758.34,383.44a1.29,1.29,0,0,1-2.47.42,1.26,1.26,0,0,1,2.47-.42Z"/><circle class="cls-11" cx="763.35" cy="391.3" r="2.47"/><circle class="cls-11" cx="755.21" cy="390.17" r="1.75"/><circle class="cls-12" cx="762.02" cy="399.17" r="1.75"/><circle class="cls-12" cx="772.16" cy="395.21" r="1.75"/><path class="cls-9" d="M797.86,564.8a4,4,0,0,0-5.32-2,3.89,3.89,0,0,0-1.55,1.24l.1-.27c-8.15-4.34-10.78-7.65-11.52-9.72a29.31,29.31,0,0,0,1.35-3.3c.55-.49,2.16-1.13,6.73.45l.08-.17a2.6,2.6,0,0,0,.18,1.28,2.63,2.63,0,1,0,1.42-3.43,2.58,2.58,0,0,0-1.24,1.08c-.59-.14-4.54-1.15-6.12-2.9a33.12,33.12,0,0,0,.68-9.29c.27-1.17,2-4.28,13.26-5.06v-.08a5.41,5.41,0,1,0-.06-4.73,5.27,5.27,0,0,0-.52,2.17c-2.25.35-10.82,1.44-14.53-1.18a32.77,32.77,0,0,0-10.48-14.68c-.46-1.24-.46-4.05,3.32-10l-.25-.18a4.19,4.19,0,1,0-1.54-.95c-.4.8-3.07,5.92-6.12,8.08a32.76,32.76,0,0,0-17.53-4.09,17.19,17.19,0,0,1-.3-4.82l-.2,0a2.77,2.77,0,0,0,1.27-.58,2.81,2.81,0,1,0-4-.43,2.85,2.85,0,0,0,1.48,1,21.48,21.48,0,0,1-.35,5.05,33.23,33.23,0,0,0-9.19,2.4c-1.09-.76-3-3-5.08-9.74a4.51,4.51,0,0,0,.8-1,4,4,0,1,0-5.48,1.33,4.54,4.54,0,0,0,2.65.64c.6,1.54,3,8.06,1.92,11.53a32.68,32.68,0,0,0-9.79,9.9c-.92.23-3.44.25-8.45-3.48a3,3,0,0,0,0-1.26,3.15,3.15,0,1,0-.74,2.78c1.36.75,6.54,3.77,6.78,6.54a32.93,32.93,0,0,0,.19,26.69c-.67,1.36-3.21,5.12-11.63,7l.06.27a3.69,3.69,0,0,0-1.26-1.35,3.73,3.73,0,1,0,1.71,2.89c1-.36,10.85-3.66,14.68-2.68a33,33,0,0,0,16.2,11.68c1.13,1,2.8,3.5,1.25,9.26a3.08,3.08,0,0,0-1.14.61,3.11,3.11,0,1,0,2.84-.62c.16-1.47.95-7.06,3.8-7.79a33,33,0,0,0,11.17-.72c1.67,1.14,3.62,4,5.15,10.84l.27,0a3.67,3.67,0,0,0-1.49,1.09,3.74,3.74,0,1,0,3.06-1.34c-.31-.88-2.55-7.44-1.78-12.27a32,32,0,0,0,5.49-3,40.32,40.32,0,0,1,3.19,4l.24-.12a3.75,3.75,0,1,0,1.35-.85,40.18,40.18,0,0,1-3.23-4.09,32.73,32.73,0,0,0,6.56-6.63c5-.89,13.09,5.21,14.06,6a4,4,0,1,0,7.58-.8Z"/><path class="cls-10" d="M733.27,528.85c7.58-12.56,20.86-19,34.3-15-.42-.29-.85-.56-1.29-.83a31.68,31.68,0,1,0-25.19,57.55C727.13,561.17,724.49,543.38,733.27,528.85Z"/><path class="cls-11" d="M760.59,526.92c-.11,4.15-4.47,7.4-9.74,7.27s-9.46-3.62-9.34-7.78,4.49-8.23,9.76-8.09S760.71,522.77,760.59,526.92Z"/><path class="cls-11" d="M777,539c-1.27,1.4-3.74,1.21-5.52-.41s-2.17-4.06-.89-5.46,4-1.49,5.77.13S778.29,537.6,777,539Z"/><path class="cls-11" d="M759,565.39a2.56,2.56,0,0,1-3.68-3.37,2.52,2.52,0,0,1,3.68,3.37Z"/><path class="cls-12" d="M760.84,542a2.57,2.57,0,0,1,1.77,4.68,2.52,2.52,0,0,1-1.77-4.68Z"/><path class="cls-11" d="M737.4,558.3a2.57,2.57,0,0,1-3.65-3.41,2.52,2.52,0,0,1,3.65,3.41Z"/><path class="cls-12" d="M770.69,524.16a2.57,2.57,0,0,1-4.93.83,2.52,2.52,0,0,1,4.93-.83Z"/><path class="cls-11" d="M737.38,532a2.57,2.57,0,0,1-4.93.83,2.52,2.52,0,0,1,4.93-.83Z"/><circle class="cls-11" cx="747.39" cy="547.7" r="4.94"/><circle class="cls-11" cx="731.13" cy="545.45" r="3.5"/><circle class="cls-12" cx="744.73" cy="563.43" r="3.5"/><circle class="cls-12" cx="764.98" cy="555.51" r="3.5"/><path class="cls-9" d="M175,715.79a1.84,1.84,0,0,0-2.43-.91,1.78,1.78,0,0,0-.7.57l0-.13c-3.71-2-4.91-3.48-5.24-4.42a13.86,13.86,0,0,0,.61-1.5c.25-.23,1-.52,3.07.2l0-.08a1.2,1.2,0,1,0,.73-1,1.12,1.12,0,0,0-.56.49,6.81,6.81,0,0,1-2.79-1.32,14.74,14.74,0,0,0,.31-4.23c.12-.54.93-2,6-2.31v0a2.5,2.5,0,0,0,1.15,1.12A2.46,2.46,0,1,0,174,699a2.35,2.35,0,0,0-.23,1c-1,.16-4.93.66-6.62-.54a14.93,14.93,0,0,0-4.77-6.68c-.22-.56-.22-1.84,1.51-4.56l-.12-.08a1.92,1.92,0,1,0,.33-3.7,1.92,1.92,0,0,0-1.58,2.2,2,2,0,0,0,.55,1.07,11.69,11.69,0,0,1-2.79,3.67,15,15,0,0,0-8-1.86,7.68,7.68,0,0,1-.14-2.19h-.09a1.28,1.28,0,1,0-1.23-.46,1.32,1.32,0,0,0,.68.44,9.61,9.61,0,0,1-.17,2.3,15.26,15.26,0,0,0-4.18,1.09c-.49-.35-1.37-1.38-2.31-4.43a2.45,2.45,0,0,0,.36-.46,1.81,1.81,0,0,0-.6-2.5,1.82,1.82,0,1,0-1.89,3.1,2,2,0,0,0,1.2.29c.28.7,1.38,3.67.88,5.25a15.11,15.11,0,0,0-4.46,4.51c-.42.1-1.57.11-3.84-1.58a1.62,1.62,0,0,0,0-.58,1.43,1.43,0,1,0-1.09,1.7,1.38,1.38,0,0,0,.75-.43c.62.34,3,1.71,3.08,3a15,15,0,0,0,.09,12.16c-.3.61-1.46,2.33-5.29,3.16l0,.12a1.66,1.66,0,0,0-.57-.61,1.7,1.7,0,0,0-1.83,2.86,1.71,1.71,0,0,0,2.35-.52,1.75,1.75,0,0,0,.26-1c.48-.16,4.94-1.66,6.68-1.22a14.84,14.84,0,0,0,4.3,3.91,14.45,14.45,0,0,0,3.08,1.41c.51.45,1.27,1.6.57,4.22a1.26,1.26,0,0,0-.52.28,1.42,1.42,0,0,0-.18,2,1.43,1.43,0,0,0,2.19-1.83,1.4,1.4,0,0,0-.72-.46c.07-.68.43-3.22,1.73-3.55a15.27,15.27,0,0,0,5.09-.33c.76.52,1.65,1.83,2.34,4.93H159a1.65,1.65,0,0,0-.68.5,1.7,1.7,0,1,0,1.39-.61,13.73,13.73,0,0,1-.81-5.59,14.38,14.38,0,0,0,2.5-1.35,17.55,17.55,0,0,1,1.45,1.81l.11-.06a1.7,1.7,0,1,0,1.68-.42,1.63,1.63,0,0,0-1.07,0,18.94,18.94,0,0,1-1.46-1.87,14.72,14.72,0,0,0,3-3c2.26-.4,6,2.38,6.4,2.71a1.83,1.83,0,1,0,3.46-.36Z"/><path class="cls-10" d="M145.54,699.42c3.45-5.72,9.49-8.63,15.62-6.85l-.59-.37a14.42,14.42,0,1,0-14.91,24.69,15,15,0,0,0,3.44,1.51C142.74,714.13,141.54,706,145.54,699.42Z"/><path class="cls-11" d="M158,698.54c0,1.89-2,3.37-4.44,3.31s-4.3-1.65-4.25-3.54a4.23,4.23,0,0,1,4.44-3.68C156.13,694.69,158,696.65,158,698.54Z"/><path class="cls-11" d="M165.45,704a2,2,0,0,1-2.92-2.67,2,2,0,0,1,2.92,2.67Z"/><path class="cls-11" d="M157.24,716.06a1.17,1.17,0,0,1-1.68-1.54,1.15,1.15,0,0,1,1.68,1.54Z"/><path class="cls-12" d="M158.09,705.41a1.17,1.17,0,0,1,.81,2.13,1.11,1.11,0,0,1-1.34-.71A1.12,1.12,0,0,1,158.09,705.41Z"/><path class="cls-11" d="M147.42,712.83a1.17,1.17,0,0,1-1.67-1.55,1.15,1.15,0,0,1,1.67,1.55Z"/><path class="cls-12" d="M162.58,697.28a1.06,1.06,0,0,1-1,1.08,1,1,0,0,1-1.27-.7,1.15,1.15,0,0,1,2.25-.38Z"/><path class="cls-11" d="M147.41,700.86a1.17,1.17,0,0,1-2.24.38,1.15,1.15,0,0,1,2.24-.38Z"/><circle class="cls-11" cx="151.97" cy="708" r="2.25"/><circle class="cls-11" cx="144.56" cy="706.98" r="1.59"/><circle class="cls-12" cx="150.75" cy="715.17" r="1.59"/><circle class="cls-12" cx="159.97" cy="711.56" r="1.59"/><path class="cls-9" d="M359.84,143.94a3.39,3.39,0,0,0-5.8-.64l.08-.22c-6.89-3.67-9.11-6.46-9.73-8.21a25.54,25.54,0,0,0,1.14-2.79c.46-.42,1.82-1,5.69.38l.06-.15a2.19,2.19,0,0,0,.16,1.09,2.22,2.22,0,1,0,1.2-2.9,2.14,2.14,0,0,0-1.05.91c-.5-.12-3.84-1-5.18-2.45a27.36,27.36,0,0,0,.58-7.85c.23-1,1.72-3.61,11.21-4.27v-.07a4.56,4.56,0,1,0-.06-4,4.5,4.5,0,0,0-.43,1.84c-1.9.29-9.15,1.21-12.28-1a27.66,27.66,0,0,0-8.86-12.39c-.39-1-.39-3.42,2.81-8.46l-.21-.15a3.58,3.58,0,1,0-1.3-.81c-.34.68-2.6,5-5.18,6.83a27.71,27.71,0,0,0-14.8-3.46,14.23,14.23,0,0,1-.25-4.07l-.17,0a2.42,2.42,0,1,0-1,0,18.11,18.11,0,0,1-.31,4.27,28.13,28.13,0,0,0-7.75,2c-.93-.64-2.56-2.55-4.3-8.22a4.08,4.08,0,0,0,.68-.85,3.37,3.37,0,1,0-4.64,1.12,3.88,3.88,0,0,0,2.24.54c.52,1.3,2.56,6.81,1.62,9.74a27.92,27.92,0,0,0-8.26,8.36c-.78.2-2.91.22-7.14-2.93a2.58,2.58,0,0,0,0-1.07,2.65,2.65,0,1,0-2,3.16,2.58,2.58,0,0,0,1.39-.81c1.14.63,5.52,3.19,5.72,5.52a27.83,27.83,0,0,0,.16,22.55c-.56,1.15-2.71,4.33-9.82,5.88l.05.22a3.14,3.14,0,0,0-5.41-.18,3.15,3.15,0,1,0,5.79,1.48c.89-.3,9.16-3.09,12.4-2.26a28.08,28.08,0,0,0,13.69,9.87c1,.83,2.36,3,1.05,7.82a2.7,2.7,0,0,0-1,.51,2.65,2.65,0,1,0,3.73.34,2.59,2.59,0,0,0-1.33-.85c.14-1.25.8-6,3.22-6.59a27.91,27.91,0,0,0,9.43-.61c1.41,1,3.06,3.41,4.35,9.16l.23,0a3.12,3.12,0,0,0-1.26.91,3.15,3.15,0,1,0,2.58-1.13c-.26-.74-2.15-6.28-1.5-10.36a28.08,28.08,0,0,0,4.64-2.5,36,36,0,0,1,2.7,3.35l.2-.11a3.11,3.11,0,1,0,1.13-.72,34.45,34.45,0,0,1-2.72-3.45,27.75,27.75,0,0,0,5.54-5.6c4.19-.76,11.06,4.4,11.88,5a3.39,3.39,0,1,0,6.4-.68Z"/><path class="cls-10" d="M305.28,113.56c6.4-10.6,17.62-16,29-12.7-.36-.24-.72-.48-1.1-.7A26.76,26.76,0,1,0,305.5,146a27.05,27.05,0,0,0,6.38,2.8C300.09,140.87,297.86,125.84,305.28,113.56Z"/><path class="cls-11" d="M328.36,111.93c-.09,3.51-3.78,6.26-8.23,6.14s-8-3.06-7.9-6.56,3.8-7,8.25-6.84S328.45,108.43,328.36,111.93Z"/><path class="cls-11" d="M342.23,122.14c-1.08,1.18-3.17,1-4.66-.34s-1.84-3.43-.76-4.61a3.7,3.7,0,0,1,5.42,5Z"/><path class="cls-11" d="M327,144.44a2.17,2.17,0,0,1-3.12-2.85,2.13,2.13,0,0,1,3.12,2.85Z"/><path class="cls-12" d="M328.57,124.69a2.17,2.17,0,0,1,1.49,3.94,2.12,2.12,0,0,1-1.49-3.94Z"/><path class="cls-11" d="M308.76,138.45a2.17,2.17,0,0,1-3.08-2.88,2.13,2.13,0,0,1,3.08,2.88Z"/><path class="cls-12" d="M336.89,109.6a2.17,2.17,0,0,1-4.16.7,2.13,2.13,0,0,1,4.16-.7Z"/><path class="cls-11" d="M308.75,116.24a2.18,2.18,0,0,1-4.17.7,2.13,2.13,0,0,1,4.17-.7Z"/><circle class="cls-11" cx="317.2" cy="129.49" r="4.18"/><circle class="cls-11" cx="303.47" cy="127.59" r="2.95"/><circle class="cls-12" cx="314.96" cy="142.78" r="2.95"/><circle class="cls-12" cx="332.06" cy="136.09" r="2.95"/></g></svg>