<svg xmlns="http://www.w3.org/2000/svg" xmlns:xlink="http://www.w3.org/1999/xlink" viewBox="0 0 911 910"><defs><style>.cls-1{fill:none;}.cls-2{fill:#ccdafd;}.cls-3{clip-path:url(#clip-path);}.cls-4{fill:#b4c9ff;}.cls-5{fill:#8dabf3;}.cls-6{fill:#cddbff;}.cls-7{clip-path:url(#clip-path-2);}.cls-8{fill:#a1b9f7;}.cls-9{fill:#e6edff;}.cls-10{fill:#e5ecfe;}.cls-11{fill:#668be4;}.cls-12{fill:#becbf8;}.cls-13{fill:#e8eefe;}.cls-14{fill:#b2c9ff;}.cls-15{fill:#ccdcfe;}.cls-16{clip-path:url(#clip-path-3);}</style><clipPath id="clip-path"><path class="cls-1" d="M227.35,391.22s60.39-8.89,141.45-107c71.31-86.25,271.41-90.85,361.11-8s121.9,234.6,8.05,385.26c-123.14,162.93-516.36,117.3-591.11,29.9S48,444.12,227.35,391.22Z"/></clipPath><clipPath id="clip-path-2"><ellipse class="cls-1" cx="227.59" cy="259.52" rx="117.28" ry="61.31" transform="translate(-112.51 200.55) rotate(-38.91)"/></clipPath><clipPath id="clip-path-3"><ellipse class="cls-1" cx="228.5" cy="258.4" rx="120.87" ry="59.09" transform="translate(-111.61 200.87) rotate(-38.91)"/></clipPath></defs><title>quedate_en_casa</title><g id="Sintomas"><path class="cls-2" d="M227.35,391.22s60.39-8.89,141.45-107c71.31-86.25,271.41-90.85,361.11-8s121.9,234.6,8.05,385.26c-123.14,162.93-516.36,117.3-591.11,29.9S48,444.12,227.35,391.22Z"/><g class="cls-3"><path class="cls-4" d="M100.28,420s52.32,43.74,140.83,45.34c39.93.73,79.29-9.18,114.69-27.69C382.15,423.84,422.44,407.75,450,420c44,19.55,52.83,27.6,73,20.7v130l-422.63-5.75Z"/><path class="cls-5" d="M81.3,518s31.05-9.07,40.25,0c0,0,28.75-28.49,55.2-20.72,0,0,59.8-73.8,113.85,0,0,0,60.95-10.36,74.75,45.32,0,0,42.55-23.31,74.76,0,0,0,25.3-22,50.6,0,0,0,9.2-20.72,23-22v72.5L81.3,584Z"/><ellipse class="cls-6" cx="227.59" cy="259.52" rx="117.28" ry="61.31" transform="translate(-112.51 200.55) rotate(-38.91)"/><g class="cls-7"><path class="cls-8" d="M174.45,201.47s24.15,5.75,29.9,29.9c0,0,27.6,1.15,34.5,24.15s-11.5,41.4-11.5,41.4,16.1,14.95,5.75,35.65-65.55,35.65-98.9,10.35-5.75-87.4,8.05-95.45S151.45,206.07,174.45,201.47Z"/></g><path class="cls-9" d="M259.55,221h105.8s-12.65-21.85-26.45-6.9c0,0-10.35-25.3-33.35-13.8,0,0-11.5,6.9-14.95,18.4C290.6,218.72,273.35,199.17,259.55,221Z"/><path class="cls-10" d="M397,312.45l63.25,1.15s-5.75-15-19.55-9.2c0,0-9.06-11.65-22.32-11.65a21.74,21.74,0,0,0-21.06,17A12.79,12.79,0,0,0,397,312.45Z"/><path class="cls-10" d="M467.13,313.6h16.1S474,303.25,467.13,313.6Z"/><path class="cls-8" d="M509.68,221a31.75,31.75,0,0,0-4.49.32,33.16,33.16,0,0,0,.47-5.49,32.78,32.78,0,1,0-32.78,32.77,33.3,33.3,0,0,0,4.49-.31A32.78,32.78,0,1,0,509.68,221Z"/><rect class="cls-11" x="62.33" y="582.7" width="725.66" height="70.15"/><rect class="cls-5" x="62.9" y="653.43" width="725.66" height="141.45"/><path class="cls-11" d="M425.15,775.33s3.46-41.4,47.16-42.55,52.9-31,57.5-33.35,6.9-10.35,33.35-9.2,31.05,1.15,40.25,0,25.3,4.6,31.05,14.95,34.5,8.05,39.1,6.9,9.2-2.3,11.5,1.15S539,802.93,425.15,775.33Z"/><polygon class="cls-12" points="419.4 630.42 412.5 630.42 412.5 602.25 419.4 609.93 419.4 630.42"/><polygon class="cls-12" points="427.45 630.42 420.56 630.42 420.56 618.9 427.45 612.5 427.45 630.42"/><polygon class="cls-12" points="411.36 630.42 404.45 630.42 404.45 616.34 411.36 624.02 411.36 630.42"/><polygon class="cls-12" points="115.93 592.48 121.42 592.48 121.42 570.05 115.93 576.16 115.93 592.48"/><polygon class="cls-12" points="109.53 592.48 115.02 592.48 115.02 583.3 109.53 578.2 109.53 592.48"/><polygon class="cls-12" points="122.34 592.48 127.83 592.48 127.83 581.26 122.34 587.38 122.34 592.48"/><rect class="cls-13" x="501.63" y="174.45" width="309.35" height="449.65"/><rect class="cls-14" x="568.33" y="269.9" width="182.85" height="354.2"/><rect class="cls-14" x="451.03" y="622.95" width="325.45" height="29.9"/><ellipse class="cls-11" cx="591.91" cy="470" rx="7.48" ry="12.65"/><ellipse class="cls-5" cx="591.91" cy="468.85" rx="7.48" ry="11.5"/></g><ellipse class="cls-15" cx="228.5" cy="258.4" rx="120.87" ry="59.09" transform="translate(-111.61 200.87) rotate(-38.91)"/><path class="cls-9" d="M377.32,221.6c0-17.48-16.14-31.65-36-31.65s-36,14.17-36,31.65Z"/><path class="cls-9" d="M416,221.6a20.22,20.22,0,0,0-40.44,0Z"/><path class="cls-9" d="M294.68,221.6a16.7,16.7,0,1,0-33.4,0Z"/><g class="cls-16"><path class="cls-8" d="M242.88,269.32a35.08,35.08,0,0,0-40.62-34.63,21.84,21.84,0,1,0-43.33-3.89,22.47,22.47,0,0,0,.24,3.09,76.48,76.48,0,1,0,40.9,117.55c.84.06,1.69.11,2.56.11a33.34,33.34,0,0,0,26.11-54.09A35,35,0,0,0,242.88,269.32Z"/></g></g></svg>