<svg xmlns="http://www.w3.org/2000/svg" viewBox="0 0 826.94 802.05"><defs><style>.cls-1{fill:#f5b297;}.cls-2{fill:#f6bdaa;}.cls-3{fill:#e59e7e;}.cls-4{fill:#f0b498;}.cls-5{fill:#f7aa8e;}.cls-6{fill:#fccdaf;}.cls-7{fill:#f79594;}.cls-8{fill:#f27d7d;}.cls-9{fill:#ed6160;}.cls-10{fill:#f9b1b2;}</style></defs><title>riñones</title><g id="organos_ai" data-name="organos ai"><path class="cls-1" d="M486.86,248.48s-54.3-135.77,97.3-151.6,253.42,224,219.48,346.19S699.56,653.5,591,649,455.84,575.56,466.5,522.26c18.1-90.5,95.71-94.08,76.49-175.21a103.64,103.64,0,0,0-18.27-38.13C512.75,293,490.17,261.69,486.86,248.48Z"/><path class="cls-1" d="M341.86,197.2c-2.75-41-35.93-73.47-76.88-76.52-31.77-2.36-82.65.25-125.44,31.63-67.88,49.78-106.35,99.56-117.66,181s-2.26,149.34,11.31,187.8S81.49,611.64,195,635.4c97.29,20.36,145.2-19.19,162.91-49.78,24.89-43,4.53-106.35-31.68-135.76S238,382,267.38,332.2,344.32,262.05,342.05,201C342,199.69,341.94,198.43,341.86,197.2Z"/><path class="cls-2" d="M278.3,200.63c5.36,13.19.24,28.38-11.55,36.36-22.7,15.36-66.05,49.86-80.82,97.47-20.37,65.62,4.52,138,0,167.44s-27.16,58.83-63.36,38.46-76.93-95-63.35-194.59,97.29-151.6,142.55-156.12C237.32,186.09,268.69,177,278.3,200.63Z"/><path class="cls-3" d="M133.88,492.85s-22.62-40.73-52-20.37,22.63,92.77,40.73,106.35,63.36,54.31,135.76,40.73c46.57-8.73,57.57-28.7,59.5-41.83a15.73,15.73,0,0,0-13.64-18c-5.56-.63-13.15-.08-23.23,3.28-27.15,9-93.7,11.7-115.86-22.43S133.88,492.85,133.88,492.85Z"/><path class="cls-4" d="M251.54,360.07a9.29,9.29,0,0,1,7.57-9.14c18.77-3.48,70.38-4.6,101,24.26,38,35.74,67.13,153.06,11.27,325.86a7.07,7.07,0,0,1-9,4.51h0a7.06,7.06,0,0,1-4.45-9c11.74-34.21,60.62-191.6,4.41-292,0,0-30.47-54.83-99.09-35.59a9.29,9.29,0,0,1-11.79-8.94Z"/><path class="cls-4" d="M571.21,355.42a9.28,9.28,0,0,0-7.86-8.89c-18.87-2.86-70.5-2.28-100.19,27.56-36.78,37-62.07,155.19-.57,326.06a7.07,7.07,0,0,0,9.1,4.21h0a7.06,7.06,0,0,0,4.16-9.12c-12.85-33.81-66.88-189.5-14-291.67,0,0,28.65-55.81,97.87-38.83a9.28,9.28,0,0,0,11.48-9.32Z"/><path class="cls-2" d="M546.4,164.72c-23.67,21.18-32.22,55-20.23,84.42a85.86,85.86,0,0,0,26.31,35.54c43,33.94,79.2,49.78,76.93,90.51-1.64,29.57-10.44,63.92-15.14,80.51-1.3,4.61-2.75,9.17-4.29,13.71-4.68,13.9-18.61,62.94,10.38,82.27,0,0,40.73,22.62,86-38.47S769.7,339,735.76,250.74c-28.53-74.18-87.44-108.39-143.12-105.31a75.7,75.7,0,0,0-46.24,19.29Z"/><path class="cls-5" d="M260.93,346.73s-33.82,16.92-31.84,57.61c1.2,24.78,15.81,47.07,37.68,58.79,12.15,6.51,28.64,12.21,50.39,13.88,0,0,29.87-.89,45.48,27.84,0,0-16.06-43.68-59.05-68.57C245.17,402.46,254.49,361.27,260.93,346.73Z"/><path class="cls-3" d="M716.14,443.62a23.31,23.31,0,0,0-12.3,11.09c-10.54,19.84-53.24,94.27-106.1,106-61.1,13.57-70.15,47.52-31.68,58.83s99.56-20.37,129-49.78,56.57-74.67,45.26-108.61C733.82,441.78,723.66,440.85,716.14,443.62Z"/><path class="cls-5" d="M543.43,339s63.36,0,67.88,65.62S446.14,497.37,484.6,603.72c0,0-45.25-81.46,9-147.08S563.8,388.76,543.43,339Z"/><path class="cls-6" d="M234.75,224.22c-14.44-6.64-74.62-27-121.91,66.32a7,7,0,0,1-5.73,3.91c-6.08.38-16.87-1.75-18.48-21.08-2.26-27.16,49.78-81.46,74.67-97.3,22.5-14.32,70.88-41.58,128.44-24.95,25,7.21,38.79,34.64,28.8,58.63q-.53,1.25-1.11,2.52c-15.84,33.94-56.57,24.89-65.62,20.37-3.89-1.94-7.35-3.47-10-4.58C240.74,226.82,237.72,225.58,234.75,224.22Z"/><path class="cls-6" d="M98.66,361c-1.8,2.82-4.71,9.27-3.35,20.11a17.29,17.29,0,0,1-7,16.32c-25.6,18.2-26.33-55.82.3-58.49,15.32-1.53,15.08,8.35,13.33,14.89A25.78,25.78,0,0,1,98.66,361Z"/><path class="cls-6" d="M575.74,198.35c-2.42.15-4.85.25-7.28.27a29.5,29.5,0,0,0-27.29,18.18c-9,20.36-24.89,29.41-40.73,6.79s-6.79-76.93,40.73-90.51,61.09-13.58,88.24-6.79,38.47,40.73,11.32,58.83S603.11,196.64,575.74,198.35Z"/><path class="cls-7" d="M576.21,121.5a1.37,1.37,0,0,0-1.27,0,2.51,2.51,0,0,1-1,.16,2.93,2.93,0,0,1-2-.76,26.71,26.71,0,0,1-2.24-3,22.07,22.07,0,0,0,1.87-6.07,29,29,0,0,1,3.51-1.47,2.06,2.06,0,0,1,1.34.18,1.68,1.68,0,0,1,.71.71,1.1,1.1,0,0,0,.9.66c.69,0,1.37-1.07,1.35-2.32s-.74-2.2-1.43-2.18a1,1,0,0,0-.77.51,1.71,1.71,0,0,1-.56.51,2.14,2.14,0,0,1-1.52.36,24.5,24.5,0,0,1-3.3-1.17,21.81,21.81,0,0,0-1.56-7.27,22.12,22.12,0,0,1,1.9-2.33,2.8,2.8,0,0,1,1.71-.68,2.15,2.15,0,0,1,1.32.36,1.48,1.48,0,0,0,1.52.17c.81-.47.9-2.19,0-3.65s-2.35-2.12-3.16-1.64a1.35,1.35,0,0,0-.58,1.12,2.3,2.3,0,0,1-.31,1,3,3,0,0,1-1.57,1.45,19.36,19.36,0,0,1-2.76.56,21.47,21.47,0,0,0-5.25-5.65,21.68,21.68,0,0,1,.52-2.59,2.12,2.12,0,0,1,.88-1,1.59,1.59,0,0,1,1-.21,1.11,1.11,0,0,0,1-.4c.36-.59-.16-1.74-1.21-2.39s-2.25-.58-2.61,0a1,1,0,0,0,0,.93,1.72,1.72,0,0,1,.13.75,2.06,2.06,0,0,1-.53,1.47,18.22,18.22,0,0,1-2.07,1.64,21.76,21.76,0,0,0-7.66-2.4,15.39,15.39,0,0,1-.54-1.67,2.78,2.78,0,0,1,.29-1.81,2.24,2.24,0,0,1,1-1,1.49,1.49,0,0,0,.93-1.2c0-1-1.41-1.92-3.11-1.93s-3,.92-3,1.86a1.32,1.32,0,0,0,.66,1.07,2.41,2.41,0,0,1,.68.78,2.94,2.94,0,0,1,.44,2.1,14,14,0,0,1-.53,1.6,22,22,0,0,0-8.66,2.06,12.79,12.79,0,0,1-1.43-1.26,2,2,0,0,1-.47-1.26,1.68,1.68,0,0,1,.29-1,1.06,1.06,0,0,0,.16-1.1c-.33-.6-1.59-.71-2.67-.11s-1.6,1.68-1.27,2.29a1,1,0,0,0,.81.44,1.82,1.82,0,0,1,.72.25,2.17,2.17,0,0,1,1,1.18,14.46,14.46,0,0,1,.34,1.91,21.67,21.67,0,0,0-6.26,6.08,16.57,16.57,0,0,1-2.09-.47,2.77,2.77,0,0,1-1.4-1.19,2.22,2.22,0,0,1-.3-1.34,1.49,1.49,0,0,0-.54-1.42c-.8-.49-2.37.22-3.26,1.66s-.78,3.07,0,3.57a1.34,1.34,0,0,0,1.26,0,2.57,2.57,0,0,1,1-.18,2.94,2.94,0,0,1,2,.72,16.8,16.8,0,0,1,1.49,1.79,22,22,0,0,0-2,7.42,18.78,18.78,0,0,1-2.63,1,2.05,2.05,0,0,1-1.34-.19,1.68,1.68,0,0,1-.71-.71,1.08,1.08,0,0,0-.89-.67c-.69,0-1.38,1.06-1.37,2.31s.72,2.2,1.41,2.19a1,1,0,0,0,.78-.5,1.71,1.71,0,0,1,.56-.51,2.16,2.16,0,0,1,1.53-.35,20.43,20.43,0,0,1,2.67.94,21.86,21.86,0,0,0,2,7.55,14.29,14.29,0,0,1-1.28,1.53,2.78,2.78,0,0,1-1.7.7,2.29,2.29,0,0,1-1.32-.34,1.51,1.51,0,0,0-1.52-.17c-.8.49-.88,2.2,0,3.66s2.37,2.09,3.18,1.6a1.34,1.34,0,0,0,.57-1.13,2.53,2.53,0,0,1,.3-1,3,3,0,0,1,1.56-1.46,14.66,14.66,0,0,1,1.91-.44,21.76,21.76,0,0,0,5.46,5.54,24.3,24.3,0,0,1-.32,3.44,2.06,2.06,0,0,1-.78,1.1,1.65,1.65,0,0,1-1,.3,1.09,1.09,0,0,0-1,.49c-.31.61.31,1.71,1.42,2.27s2.29.38,2.6-.24a1,1,0,0,0-.09-.92,1.88,1.88,0,0,1-.19-.74,2.16,2.16,0,0,1,.39-1.51,23,23,0,0,1,2.37-2.2,21.57,21.57,0,0,0,7.28,1.94,18.88,18.88,0,0,1,.67,2.69,2.74,2.74,0,0,1-.46,1.78,2.2,2.2,0,0,1-1.07.85,1.49,1.49,0,0,0-1,1.11c-.1.94,1.23,2,2.92,2.21s3.09-.64,3.19-1.58a1.36,1.36,0,0,0-.56-1.13,2.33,2.33,0,0,1-.61-.84,2.93,2.93,0,0,1-.24-2.12,23.84,23.84,0,0,1,1.43-3,21.86,21.86,0,0,0,6.16-1.6,25.47,25.47,0,0,1,3,2,2,2,0,0,1,.57,1.22,1.6,1.6,0,0,1-.2,1,1.11,1.11,0,0,0-.07,1.12c.39.57,1.65.57,2.68-.13s1.45-1.81,1.06-2.38a1,1,0,0,0-.84-.38,1.73,1.73,0,0,1-.74-.19,2.14,2.14,0,0,1-1.13-1.08,21.93,21.93,0,0,1-.75-3.09,21.45,21.45,0,0,0,5.22-4.86,23.44,23.44,0,0,1,3.47.77,2.67,2.67,0,0,1,1.37,1.22,2.15,2.15,0,0,1,.27,1.34,1.49,1.49,0,0,0,.52,1.43c.79.52,2.37-.16,3.29-1.58S577,122,576.21,121.5Z"/><path class="cls-8" d="M539.07,101.06c5-8.32,13.81-12.56,22.72-10-.28-.19-.56-.37-.85-.54a21,21,0,1,0-21.7,35.93,21.24,21.24,0,0,0,5,2.19C535,122.47,533.25,110.69,539.07,101.06Z"/><path class="cls-9" d="M554.77,98.56c-.07,2.75-3,4.9-6.45,4.81s-6.27-2.4-6.19-5.15,3-5.45,6.47-5.36S554.85,95.8,554.77,98.56Z"/><path class="cls-9" d="M565.65,106.56c-.85.92-2.48.8-3.66-.27s-1.44-2.69-.59-3.62a2.91,2.91,0,0,1,4.25,3.89Z"/><path class="cls-9" d="M553.7,124.05a1.7,1.7,0,0,1-2.44-2.24,1.61,1.61,0,0,1,2.19,0A1.63,1.63,0,0,1,553.7,124.05Z"/><path class="cls-10" d="M554.94,108.55a1.71,1.71,0,0,1,1.17,3.1,1.67,1.67,0,0,1-1.17-3.1Z"/><path class="cls-9" d="M539.41,119.35a1.71,1.71,0,0,1-2.43-2.26,1.67,1.67,0,0,1,2.43,2.26Z"/><path class="cls-10" d="M561.46,96.73a1.7,1.7,0,0,1-3.26.55,1.67,1.67,0,0,1,3.26-.55Z"/><path class="cls-9" d="M539.39,101.93a1.7,1.7,0,0,1-3.26.55,1.67,1.67,0,0,1,3.26-.55Z"/><circle class="cls-9" cx="546.03" cy="112.32" r="3.27"/><circle class="cls-9" cx="535.25" cy="110.83" r="2.32"/><circle class="cls-10" cx="544.26" cy="122.75" r="2.32"/><circle class="cls-10" cx="557.68" cy="117.5" r="2.32"/><path class="cls-7" d="M185.79,654.41a1.81,1.81,0,0,0-1.7,0,3.23,3.23,0,0,1-1.38.21,3.93,3.93,0,0,1-2.69-1,34.58,34.58,0,0,1-3-4,29.36,29.36,0,0,0,2.52-8.17,37.53,37.53,0,0,1,4.73-2,2.77,2.77,0,0,1,1.8.24,2.23,2.23,0,0,1,1,1,1.48,1.48,0,0,0,1.22.88c.93,0,1.84-1.44,1.81-3.12s-1-3-1.92-2.94a1.33,1.33,0,0,0-1,.68,2.39,2.39,0,0,1-.75.7,2.91,2.91,0,0,1-2.06.48,33.73,33.73,0,0,1-4.44-1.57,29.41,29.41,0,0,0-2.11-9.8,27.22,27.22,0,0,1,2.58-3.13,3.71,3.71,0,0,1,2.29-.93,3,3,0,0,1,1.79.49,2,2,0,0,0,2,.24c1.1-.65,1.23-3,.07-4.93s-3.17-2.85-4.26-2.2a1.8,1.8,0,0,0-.78,1.51,3.29,3.29,0,0,1-.42,1.33,4,4,0,0,1-2.12,1.95,26.48,26.48,0,0,1-3.71.75,29.27,29.27,0,0,0-7.07-7.6,25.32,25.32,0,0,1,.7-3.49,2.75,2.75,0,0,1,1.18-1.38,2.16,2.16,0,0,1,1.32-.29,1.47,1.47,0,0,0,1.41-.53c.49-.79-.21-2.34-1.63-3.23s-3-.77-3.52,0a1.34,1.34,0,0,0,0,1.25,2.51,2.51,0,0,1,.18,1,2.92,2.92,0,0,1-.72,2,25,25,0,0,1-2.79,2.2,29.38,29.38,0,0,0-10.32-3.23,19.39,19.39,0,0,1-.73-2.25,3.78,3.78,0,0,1,.4-2.44,3,3,0,0,1,1.33-1.28,2,2,0,0,0,1.26-1.62c0-1.27-1.9-2.58-4.18-2.6s-4.08,1.24-4.09,2.51a1.82,1.82,0,0,0,.89,1.45,3.1,3.1,0,0,1,.92,1,3.92,3.92,0,0,1,.58,2.82,15.58,15.58,0,0,1-.71,2.16A29.55,29.55,0,0,0,138,610.31a18.06,18.06,0,0,1-1.93-1.69,2.79,2.79,0,0,1-.63-1.71,2.22,2.22,0,0,1,.39-1.29,1.45,1.45,0,0,0,.22-1.49c-.45-.81-2.14-1-3.61-.15s-2.15,2.26-1.7,3.08a1.32,1.32,0,0,0,1.09.6,2.4,2.4,0,0,1,1,.34,2.91,2.91,0,0,1,1.39,1.59,18.82,18.82,0,0,1,.45,2.57,29.31,29.31,0,0,0-8.43,8.19,22.43,22.43,0,0,1-2.81-.63,3.74,3.74,0,0,1-1.89-1.6,3,3,0,0,1-.4-1.81,2,2,0,0,0-.74-1.91c-1.07-.67-3.18.29-4.39,2.23s-1,4.13,0,4.8a1.82,1.82,0,0,0,1.7,0,3.37,3.37,0,0,1,1.37-.25,4,4,0,0,1,2.72,1,24.4,24.4,0,0,1,2,2.43,29.1,29.1,0,0,0-2.64,10,27.46,27.46,0,0,1-3.55,1.4,2.75,2.75,0,0,1-1.8-.26,2.23,2.23,0,0,1-1-1,1.49,1.49,0,0,0-1.2-.9c-.93,0-1.86,1.44-1.85,3.11s1,3,1.9,3a1.32,1.32,0,0,0,1-.68,2.4,2.4,0,0,1,.76-.69,2.91,2.91,0,0,1,2.06-.47,28,28,0,0,1,3.59,1.27,29.75,29.75,0,0,0,2.72,10.17,20.32,20.32,0,0,1-1.73,2.06,3.74,3.74,0,0,1-2.29,1,3,3,0,0,1-1.78-.47,2,2,0,0,0-2-.22c-1.09.65-1.2,3,0,4.93s3.2,2.81,4.28,2.16a1.82,1.82,0,0,0,.77-1.52,3.37,3.37,0,0,1,.41-1.34,4,4,0,0,1,2.09-2,20.87,20.87,0,0,1,2.59-.6,29.32,29.32,0,0,0,7.35,7.48,33.59,33.59,0,0,1-.44,4.62,2.74,2.74,0,0,1-1,1.48,2.2,2.2,0,0,1-1.29.41,1.46,1.46,0,0,0-1.35.66c-.42.83.41,2.31,1.91,3.06s3.08.51,3.5-.33a1.34,1.34,0,0,0-.12-1.24,2.39,2.39,0,0,1-.26-1,2.85,2.85,0,0,1,.53-2,29.7,29.7,0,0,1,3.18-3,29.06,29.06,0,0,0,9.81,2.61,26.41,26.41,0,0,1,.91,3.63,3.79,3.79,0,0,1-.62,2.4,3.07,3.07,0,0,1-1.45,1.15,2,2,0,0,0-1.4,1.49c-.13,1.27,1.66,2.74,3.93,3s4.17-.87,4.3-2.13a1.81,1.81,0,0,0-.75-1.52,3.38,3.38,0,0,1-.82-1.13,3.89,3.89,0,0,1-.32-2.86,29.74,29.74,0,0,1,1.93-4.07A29.39,29.39,0,0,0,161.9,664a35.53,35.53,0,0,1,4,2.75,2.74,2.74,0,0,1,.77,1.64,2.21,2.21,0,0,1-.27,1.33,1.46,1.46,0,0,0-.09,1.5c.52.77,2.22.77,3.61-.17s1.94-2.44,1.42-3.21a1.31,1.31,0,0,0-1.14-.51,2.3,2.3,0,0,1-1-.25,2.9,2.9,0,0,1-1.52-1.46,30.29,30.29,0,0,1-1-4.16,29.49,29.49,0,0,0,7-6.55,34.94,34.94,0,0,1,4.67,1,3.8,3.8,0,0,1,1.85,1.64,3.1,3.1,0,0,1,.36,1.82,2,2,0,0,0,.69,1.93c1.06.69,3.19-.23,4.44-2.14S186.86,655.1,185.79,654.41Z"/><path class="cls-8" d="M135.76,626.88c6.77-11.21,18.61-16.91,30.61-13.43-.37-.25-.76-.5-1.15-.73A28.27,28.27,0,0,0,136,661.12a27.92,27.92,0,0,0,6.75,3C130.28,655.72,127.93,639.85,135.76,626.88Z"/><path class="cls-9" d="M156.92,623.51c-.1,3.71-4,6.61-8.7,6.48s-8.44-3.23-8.34-6.93,4-7.35,8.72-7.23S157,619.8,156.92,623.51Z"/><path class="cls-9" d="M171.57,634.29c-1.14,1.25-3.34,1.09-4.92-.36s-1.94-3.63-.8-4.87a3.91,3.91,0,0,1,5.72,5.23Z"/><path class="cls-9" d="M155.47,657.85a2.29,2.29,0,0,1-3.29-3,2.25,2.25,0,0,1,3.29,3Z"/><path class="cls-10" d="M157.14,637a2.29,2.29,0,0,1,1.58,4.17,2.25,2.25,0,0,1-1.58-4.17Z"/><path class="cls-9" d="M136.22,651.52a2.29,2.29,0,0,1-3.26-3,2.25,2.25,0,0,1,3.26,3Z"/><path class="cls-10" d="M165.93,621a2.29,2.29,0,0,1-4.4.74,2.25,2.25,0,0,1,4.4-.74Z"/><path class="cls-9" d="M136.2,628.06a2.29,2.29,0,0,1-4.39.74,2.24,2.24,0,0,1,4.39-.74Z"/><circle class="cls-9" cx="145.14" cy="642.05" r="4.41"/><circle class="cls-9" cx="130.62" cy="640.04" r="3.12"/><circle class="cls-10" cx="142.76" cy="656.1" r="3.12"/><circle class="cls-10" cx="160.83" cy="649.03" r="3.12"/><path class="cls-7" d="M816.23,414a.68.68,0,0,0-.64,0,1.16,1.16,0,0,1-.52.08,1.51,1.51,0,0,1-1-.38,13.68,13.68,0,0,1-1.14-1.5,10.8,10.8,0,0,0,1-3.07,14.52,14.52,0,0,1,1.78-.74,1,1,0,0,1,.67.09.78.78,0,0,1,.36.36.55.55,0,0,0,.46.33c.35,0,.69-.54.68-1.17s-.37-1.11-.72-1.11a.51.51,0,0,0-.39.26.87.87,0,0,1-.28.26,1.09,1.09,0,0,1-.78.18,12,12,0,0,1-1.66-.59,11.33,11.33,0,0,0-.79-3.68,11,11,0,0,1,1-1.17,1.42,1.42,0,0,1,.86-.35,1.13,1.13,0,0,1,.67.18.74.74,0,0,0,.77.09c.41-.24.46-1.11,0-1.85s-1.19-1.06-1.6-.82a.69.69,0,0,0-.29.56,1.09,1.09,0,0,1-.16.5,1.48,1.48,0,0,1-.79.74,9.75,9.75,0,0,1-1.4.28,11,11,0,0,0-2.65-2.86,10.4,10.4,0,0,1,.26-1.31,1,1,0,0,1,.45-.51.76.76,0,0,1,.49-.11.56.56,0,0,0,.53-.2c.19-.3-.08-.88-.61-1.21s-1.14-.29-1.32,0a.52.52,0,0,0,0,.47,1,1,0,0,1,.07.38,1.13,1.13,0,0,1-.27.74,9.39,9.39,0,0,1-1.05.83,10.83,10.83,0,0,0-3.87-1.21,6.86,6.86,0,0,1-.28-.85,1.44,1.44,0,0,1,.15-.91,1.11,1.11,0,0,1,.5-.48.79.79,0,0,0,.48-.61c0-.48-.72-1-1.57-1s-1.53.47-1.54.95a.67.67,0,0,0,.34.54,1.28,1.28,0,0,1,.34.39,1.47,1.47,0,0,1,.22,1.06,6.32,6.32,0,0,1-.27.81,11.25,11.25,0,0,0-4.38,1,6.52,6.52,0,0,1-.72-.63,1.11,1.11,0,0,1-.24-.64.94.94,0,0,1,.15-.49.54.54,0,0,0,.08-.56c-.17-.3-.8-.36-1.35-.05s-.81.85-.64,1.15a.5.5,0,0,0,.41.23.78.78,0,0,1,.36.13,1.09,1.09,0,0,1,.52.59,5.42,5.42,0,0,1,.17,1,11,11,0,0,0-3.16,3.07,8.07,8.07,0,0,1-1.06-.23,1.44,1.44,0,0,1-.71-.61,1.2,1.2,0,0,1-.15-.67.75.75,0,0,0-.27-.72c-.41-.25-1.2.11-1.65.84s-.39,1.55,0,1.8a.66.66,0,0,0,.64,0,1.3,1.3,0,0,1,.52-.09,1.49,1.49,0,0,1,1,.36,10.14,10.14,0,0,1,.75.91,11,11,0,0,0-1,3.75,9.55,9.55,0,0,1-1.33.53,1,1,0,0,1-.68-.1.83.83,0,0,1-.36-.36.54.54,0,0,0-.45-.34c-.35,0-.7.54-.69,1.17s.36,1.11.71,1.11a.49.49,0,0,0,.39-.25,1,1,0,0,1,.29-.26,1.07,1.07,0,0,1,.77-.18,9.84,9.84,0,0,1,1.35.48,11.34,11.34,0,0,0,1,3.82,6.71,6.71,0,0,1-.65.77,1.37,1.37,0,0,1-.86.35,1.09,1.09,0,0,1-.67-.17A.72.72,0,0,0,790,413c-.41.24-.45,1.11,0,1.85s1.2,1.05,1.61.81a.71.71,0,0,0,.29-.57,1.21,1.21,0,0,1,.15-.5,1.49,1.49,0,0,1,.79-.75,8.64,8.64,0,0,1,1-.22,11,11,0,0,0,2.76,2.81,13.69,13.69,0,0,1-.17,1.73,1.06,1.06,0,0,1-.39.56.84.84,0,0,1-.49.15.53.53,0,0,0-.5.25c-.16.31.15.87.71,1.15s1.16.19,1.32-.12a.5.5,0,0,0-.05-.47.93.93,0,0,1-.1-.37,1.15,1.15,0,0,1,.2-.77,12.42,12.42,0,0,1,1.2-1.11,11.05,11.05,0,0,0,3.68,1,9.86,9.86,0,0,1,.34,1.36,1.4,1.4,0,0,1-.23.9,1.14,1.14,0,0,1-.54.43.79.79,0,0,0-.53.57c0,.47.62,1,1.48,1.11s1.56-.32,1.61-.8a.7.7,0,0,0-.28-.57,1.07,1.07,0,0,1-.31-.42,1.49,1.49,0,0,1-.12-1.08,12.79,12.79,0,0,1,.72-1.52,11.3,11.3,0,0,0,3.12-.81,12.91,12.91,0,0,1,1.49,1,.94.94,0,0,1,.29.61.78.78,0,0,1-.1.5.56.56,0,0,0,0,.57c.19.29.83.28,1.35-.07s.73-.91.54-1.2a.49.49,0,0,0-.43-.19.79.79,0,0,1-.37-.1,1,1,0,0,1-.57-.55,10.5,10.5,0,0,1-.38-1.56,11,11,0,0,0,2.64-2.46,13.17,13.17,0,0,1,1.75.39,1.43,1.43,0,0,1,.7.62,1.13,1.13,0,0,1,.13.68.76.76,0,0,0,.26.72c.4.26,1.2-.08,1.67-.8S816.62,414.21,816.23,414Z"/><path class="cls-8" d="M797.44,403.61c2.54-4.2,7-6.35,11.5-5l-.44-.27a10.61,10.61,0,1,0-11,18.17,10.88,10.88,0,0,0,2.53,1.11C795.39,414.44,794.5,408.48,797.44,403.61Z"/><path class="cls-9" d="M805.39,402.35c0,1.39-1.5,2.48-3.27,2.43s-3.17-1.21-3.13-2.6a3.23,3.23,0,0,1,6.4.17Z"/><path class="cls-9" d="M810.89,406.4a1.34,1.34,0,0,1-1.85-.14,1.32,1.32,0,0,1-.3-1.83,1.42,1.42,0,0,1,1.93,0A1.45,1.45,0,0,1,810.89,406.4Z"/><path class="cls-9" d="M804.84,415.24a.86.86,0,0,1-1.23-1.13.84.84,0,0,1,1.23,1.13Z"/><path class="cls-10" d="M805.47,407.4a.77.77,0,0,1,.91.55.76.76,0,0,1-.32,1,.81.81,0,0,1-1-.52A.83.83,0,0,1,805.47,407.4Z"/><path class="cls-9" d="M797.62,412.86a.86.86,0,0,1-1.23-1.14.81.81,0,0,1,1.11,0A.82.82,0,0,1,797.62,412.86Z"/><path class="cls-10" d="M808.77,401.42a.77.77,0,0,1-.72.79.76.76,0,0,1-.93-.51.84.84,0,0,1,1.65-.28Z"/><path class="cls-9" d="M797.61,404.06a.86.86,0,0,1-1.65.27.84.84,0,0,1,1.65-.27Z"/><circle class="cls-9" cx="800.96" cy="409.31" r="1.66"/><circle class="cls-9" cx="795.51" cy="408.56" r="1.17"/><circle class="cls-10" cx="800.07" cy="414.58" r="1.17"/><circle class="cls-10" cx="806.86" cy="411.93" r="1.17"/><path class="cls-7" d="M335.67,276.52a1.61,1.61,0,0,0-2.76-.31l0-.11c-3.28-1.74-4.34-3.07-4.64-3.91a11.44,11.44,0,0,0,.54-1.32c.22-.2.87-.46,2.71.18l0-.07a1,1,0,0,0,.08.51,1.05,1.05,0,1,0,.07-.95,5.76,5.76,0,0,1-2.46-1.16,13.12,13.12,0,0,0,.27-3.74c.11-.47.82-1.72,5.34-2v0a2.16,2.16,0,0,0,1,1,2.17,2.17,0,1,0-1-2.89,2.08,2.08,0,0,0-.2.87c-.91.14-4.36.58-5.85-.48a13.16,13.16,0,0,0-4.22-5.9c-.19-.5-.19-1.63,1.33-4l-.1-.07a1.7,1.7,0,1,0-1.11-1.33,1.63,1.63,0,0,0,.5.94,10.54,10.54,0,0,1-2.47,3.25,13.2,13.2,0,0,0-7.05-1.64,6.81,6.81,0,0,1-.13-1.94h-.08a1.12,1.12,0,0,0,.51-.23,1.13,1.13,0,1,0-1.59-.17,1.17,1.17,0,0,0,.6.38,8.63,8.63,0,0,1-.15,2,13.49,13.49,0,0,0-3.69,1c-.44-.31-1.22-1.22-2.05-3.92a2,2,0,0,0,.32-.41,1.59,1.59,0,0,0-.53-2.2,1.6,1.6,0,1,0-1.67,2.74,1.85,1.85,0,0,0,1.06.26c.25.62,1.22,3.24.78,4.64a13.24,13.24,0,0,0-3.94,4c-.37.09-1.39.1-3.4-1.4a1.26,1.26,0,1,0-1,1,1.23,1.23,0,0,0,.66-.39c.55.3,2.63,1.52,2.73,2.63a13.28,13.28,0,0,0,.07,10.75c-.26.54-1.29,2.06-4.67,2.8l0,.1a1.54,1.54,0,0,0-.51-.54,1.5,1.5,0,1,0,.69,1.16c.42-.14,4.37-1.47,5.91-1.08a13.31,13.31,0,0,0,3.8,3.46,13.88,13.88,0,0,0,2.72,1.25c.45.39,1.12,1.4.5,3.72a1.3,1.3,0,0,0-.46.25,1.26,1.26,0,1,0,1.78.16,1.24,1.24,0,0,0-.63-.41c.06-.59.38-2.84,1.53-3.14a13.27,13.27,0,0,0,4.49-.29c.67.46,1.46,1.62,2.08,4.36h.1a1.58,1.58,0,0,0-.6.44,1.5,1.5,0,1,0,1.24-.54,11.94,11.94,0,0,1-.72-4.93,13.5,13.5,0,0,0,2.21-1.2,16.82,16.82,0,0,1,1.28,1.6l.1,0a1.44,1.44,0,0,0-.38.63,1.5,1.5,0,1,0,1.86-1,1.44,1.44,0,0,0-.94,0,17.15,17.15,0,0,1-1.3-1.65,12.86,12.86,0,0,0,2.64-2.67c2-.36,5.27,2.1,5.66,2.4a1.62,1.62,0,1,0,3.05-.32Z"/><path class="cls-8" d="M309.68,262c3.05-5.05,8.39-7.62,13.8-6.05l-.52-.33a12.75,12.75,0,1,0-10.14,23.16C307.21,275.05,306.14,267.89,309.68,262Z"/><path class="cls-9" d="M320.67,261.27c0,1.67-1.8,3-3.92,2.92s-3.8-1.45-3.76-3.13a3.88,3.88,0,0,1,7.68.21Z"/><path class="cls-9" d="M327.28,266.13a1.8,1.8,0,0,1-2.58-2.36,1.76,1.76,0,0,1,2.58,2.36Z"/><path class="cls-9" d="M320,276.75a.92.92,0,0,1-1.28-.09.91.91,0,0,1-.2-1.26,1,1,0,0,1,1.48,1.35Z"/><path class="cls-10" d="M320.77,267.34a.93.93,0,0,1,1.1.66.91.91,0,0,1-.39,1.22,1,1,0,0,1-1.17-.63A1,1,0,0,1,320.77,267.34Z"/><path class="cls-9" d="M311.34,273.9a1,1,0,0,1-1.47-1.37,1,1,0,0,1,1.47,1.37Z"/><path class="cls-10" d="M324.74,260.16a1,1,0,0,1-2,.33,1,1,0,0,1,2-.33Z"/><path class="cls-9" d="M311.33,263.32a1,1,0,0,1-2,.33,1,1,0,0,1,.84-1A1,1,0,0,1,311.33,263.32Z"/><circle class="cls-9" cx="315.36" cy="269.63" r="1.99"/><circle class="cls-9" cx="308.81" cy="268.73" r="1.41"/><circle class="cls-10" cx="314.29" cy="275.96" r="1.41"/><circle class="cls-10" cx="322.44" cy="272.78" r="1.41"/><path class="cls-7" d="M122.28,565.72a1.79,1.79,0,0,0-2.36-.89,1.66,1.66,0,0,0-.69.56l0-.12c-3.61-1.93-4.78-3.39-5.1-4.31.23-.48.42-1,.6-1.46.24-.22,1-.51,3,.19l0-.07a1.27,1.27,0,0,0,.08.57,1.17,1.17,0,0,0,2.16-.89,1.17,1.17,0,0,0-2.08-.16,6.48,6.48,0,0,1-2.71-1.28,14.33,14.33,0,0,0,.3-4.12c.12-.52.91-1.9,5.88-2.24v0a2.33,2.33,0,0,0,1.12,1.09,2.39,2.39,0,1,0-1.38-2.22c-1,.15-4.79.64-6.44-.53a14.48,14.48,0,0,0-4.64-6.5c-.21-.55-.21-1.8,1.47-4.44l-.11-.08a1.87,1.87,0,1,0-1.23-1.46,1.86,1.86,0,0,0,.55,1,11.51,11.51,0,0,1-2.72,3.59,14.6,14.6,0,0,0-7.77-1.82,7.75,7.75,0,0,1-.13-2.13H100a1.25,1.25,0,1,0-1-2.2A1.25,1.25,0,0,0,99.5,538a9.5,9.5,0,0,1-.16,2.24,14.38,14.38,0,0,0-4.07,1.06c-.48-.34-1.34-1.34-2.25-4.32a2.05,2.05,0,0,0,.35-.44,1.77,1.77,0,1,0-2.43.58,2,2,0,0,0,1.18.29c.27.68,1.34,3.57.85,5.11a14.55,14.55,0,0,0-4.34,4.39c-.41.1-1.53.11-3.74-1.54a1.51,1.51,0,0,0,0-.56,1.39,1.39,0,1,0-1.06,1.65,1.35,1.35,0,0,0,.73-.42c.6.33,2.9,1.67,3,2.9a14.59,14.59,0,0,0,.09,11.83c-.3.6-1.43,2.27-5.16,3.08l0,.12a1.69,1.69,0,0,0-.56-.6,1.65,1.65,0,1,0,.5,2.29,1.68,1.68,0,0,0,.26-1c.46-.16,4.81-1.62,6.51-1.18a14.69,14.69,0,0,0,4.18,3.8,15,15,0,0,0,3,1.38c.5.43,1.24,1.55.55,4.1a1.29,1.29,0,0,0-.5.27,1.39,1.39,0,1,0,1.78,2.13,1.37,1.37,0,0,0,.17-2,1.31,1.31,0,0,0-.69-.45c.07-.66.42-3.14,1.68-3.46a14.43,14.43,0,0,0,5-.32c.74.51,1.61,1.79,2.29,4.81h.12a1.65,1.65,0,1,0,1.88,2.59,1.66,1.66,0,0,0-.22-2.33,1.61,1.61,0,0,0-1-.38,13.24,13.24,0,0,1-.79-5.43,14.77,14.77,0,0,0,2.44-1.32,19.24,19.24,0,0,1,1.41,1.76l.11-.06a1.79,1.79,0,0,0-.43.7,1.66,1.66,0,1,0,2.06-1.1,1.61,1.61,0,0,0-1,0,17.13,17.13,0,0,1-1.43-1.82,14.24,14.24,0,0,0,2.91-2.94c2.2-.39,5.81,2.32,6.23,2.64a1.88,1.88,0,0,0,.12,1.12,1.78,1.78,0,0,0,3.25-1.47Z"/><path class="cls-8" d="M93.64,549.78c3.36-5.57,9.25-8.4,15.21-6.67l-.57-.36a14,14,0,1,0-11.17,25.51C90.92,564.11,89.75,556.22,93.64,549.78Z"/><path class="cls-9" d="M105.75,548.92c0,1.85-2,3.29-4.32,3.23s-4.19-1.61-4.14-3.45a4.27,4.27,0,0,1,8.46.22Z"/><path class="cls-9" d="M113,554.28a2,2,0,0,1-2.84-2.6,1.94,1.94,0,0,1,2.84,2.6Z"/><path class="cls-9" d="M105,566a1.14,1.14,0,0,1-1.64-1.49A1.12,1.12,0,0,1,105,566Z"/><path class="cls-10" d="M105.86,555.62a1.14,1.14,0,0,1,.79,2.07,1.08,1.08,0,0,1-1.3-.7A1.07,1.07,0,0,1,105.86,555.62Z"/><path class="cls-9" d="M95.47,562.84a1.14,1.14,0,0,1-1.62-1.51,1.12,1.12,0,0,1,1.62,1.51Z"/><path class="cls-10" d="M110.23,547.7a1.14,1.14,0,0,1-2.18.37,1.12,1.12,0,0,1,2.18-.37Z"/><path class="cls-9" d="M95.46,551.18a1.14,1.14,0,0,1-2.18.37,1.12,1.12,0,0,1,2.18-.37Z"/><circle class="cls-9" cx="99.9" cy="558.14" r="2.19"/><circle class="cls-9" cx="92.69" cy="557.14" r="1.55"/><circle class="cls-10" cx="98.72" cy="565.11" r="1.55"/><circle class="cls-10" cx="107.7" cy="561.6" r="1.55"/><path class="cls-7" d="M572.94,352.86a2,2,0,0,0-2.67-1,1.89,1.89,0,0,0-.77.62l0-.13c-4.09-2.17-5.4-3.83-5.77-4.87a16.84,16.84,0,0,0,.68-1.65c.27-.25,1.08-.57,3.37.23l0-.09a1.32,1.32,0,1,0,2.53-.36,1.32,1.32,0,0,0-1.72-.72,1.4,1.4,0,0,0-.63.54A7.25,7.25,0,0,1,565,344a16.23,16.23,0,0,0,.34-4.65c.14-.59,1-2.14,6.64-2.53v0a2.71,2.71,0,1,0,0-2.37,2.64,2.64,0,0,0-.26,1.09c-1.13.17-5.42.72-7.27-.6a16.5,16.5,0,0,0-5.25-7.35c-.23-.62-.23-2,1.66-5l-.13-.09a2.15,2.15,0,0,0,1,.1,2.11,2.11,0,1,0-2.42-1.75,2.06,2.06,0,0,0,.62,1.17,13.08,13.08,0,0,1-3.07,4.05,16.43,16.43,0,0,0-8.78-2.05,8.77,8.77,0,0,1-.15-2.41h-.1a1.43,1.43,0,0,0,.64-.29,1.41,1.41,0,1,0-2-.21,1.37,1.37,0,0,0,.74.47A11.26,11.26,0,0,1,547,324a16.68,16.68,0,0,0-4.6,1.19c-.54-.38-1.51-1.51-2.54-4.87a2.65,2.65,0,0,0,.4-.5,2,2,0,0,0-.67-2.75,2,2,0,0,0-2.08,3.41,2.3,2.3,0,0,0,1.33.32c.3.77,1.52,4,1,5.77a16.45,16.45,0,0,0-4.9,5c-.46.11-1.72.13-4.23-1.74a1.49,1.49,0,0,0,0-.63,1.57,1.57,0,1,0-3.06.68,1.56,1.56,0,0,0,2.69.71c.68.37,3.27,1.89,3.39,3.27a16.51,16.51,0,0,0,.1,13.37c-.34.68-1.61,2.56-5.82,3.48l0,.13a2,2,0,0,0-.63-.68,1.87,1.87,0,1,0,.56,2.58,1.78,1.78,0,0,0,.29-1.13c.53-.18,5.43-1.83,7.35-1.34a16.69,16.69,0,0,0,8.11,5.85c.57.49,1.4,1.75.63,4.64a1.31,1.31,0,0,0-.57.3,1.57,1.57,0,1,0,2,2.41,1.58,1.58,0,0,0,.2-2.21,1.55,1.55,0,0,0-.79-.51c.08-.74.47-3.54,1.9-3.9a16.64,16.64,0,0,0,5.59-.36c.84.57,1.82,2,2.58,5.42h.14a2,2,0,0,0-.75.54,1.87,1.87,0,1,0,2.63-.24,1.84,1.84,0,0,0-1.1-.42c-.15-.44-1.27-3.73-.89-6.15a16.2,16.2,0,0,0,2.75-1.48,20.52,20.52,0,0,1,1.6,2l.12-.07a1.87,1.87,0,1,0,1.85-.46,1.9,1.9,0,0,0-1.18,0,21.33,21.33,0,0,1-1.61-2,16.65,16.65,0,0,0,3.28-3.32c2.49-.45,6.56,2.61,7,3a2,2,0,0,0,.13,1.26,2,2,0,0,0,3.67-1.66Z"/><path class="cls-8" d="M540.6,334.86c3.8-6.29,10.44-9.49,17.17-7.53l-.64-.42a15.86,15.86,0,1,0-12.62,28.82C537.53,351,536.2,342.14,540.6,334.86Z"/><path class="cls-9" d="M554.28,333.89c-.06,2.08-2.24,3.71-4.88,3.64s-4.73-1.81-4.68-3.89,2.25-4.12,4.89-4.05S554.33,331.81,554.28,333.89Z"/><path class="cls-9" d="M562.5,339.94a2.24,2.24,0,0,1-3.21-2.94,2.2,2.2,0,0,1,3.21,2.94Z"/><path class="cls-9" d="M553.47,353.16a1.29,1.29,0,0,1-1.85-1.69,1.23,1.23,0,0,1,1.66,0A1.24,1.24,0,0,1,553.47,353.16Z"/><path class="cls-10" d="M554.4,341.45a1.29,1.29,0,0,1,.89,2.34,1.26,1.26,0,0,1-.89-2.34Z"/><path class="cls-9" d="M542.67,349.6a1.14,1.14,0,0,1-1.59-.13,1.12,1.12,0,0,1-.24-1.57,1.26,1.26,0,0,1,1.83,1.7Z"/><path class="cls-10" d="M559.33,332.51a1.28,1.28,0,0,1-2.46.41,1.26,1.26,0,0,1,2.46-.41Z"/><path class="cls-9" d="M542.66,336.44a1.29,1.29,0,0,1-2.47.42,1.26,1.26,0,0,1,2.47-.42Z"/><circle class="cls-9" cx="547.67" cy="344.3" r="2.47"/><circle class="cls-9" cx="539.53" cy="343.17" r="1.75"/><circle class="cls-10" cx="546.34" cy="352.17" r="1.75"/><circle class="cls-10" cx="556.47" cy="348.21" r="1.75"/><path class="cls-7" d="M808.18,519.8a4,4,0,0,0-6.88-.75l.11-.27c-8.16-4.34-10.79-7.65-11.52-9.72a33.6,33.6,0,0,0,1.35-3.3c.54-.49,2.15-1.13,6.73.45L798,506a2.6,2.6,0,0,0,.19,1.28,2.63,2.63,0,1,0,1.42-3.43A2.6,2.6,0,0,0,798.4,505c-.58-.14-4.53-1.15-6.12-2.9a32.76,32.76,0,0,0,.69-9.29c.26-1.17,2-4.28,13.26-5.06v-.08a5.28,5.28,0,0,0,2.52,2.46,5.41,5.41,0,1,0-3.1-5c-2.25.35-10.82,1.44-14.53-1.18a32.8,32.8,0,0,0-10.49-14.68c-.46-1.24-.46-4.05,3.32-10l-.25-.18a4.28,4.28,0,0,0,2.08.19,4.21,4.21,0,1,0-3.61-1.14c-.41.8-3.08,5.92-6.13,8.08a32.73,32.73,0,0,0-17.52-4.09,17.19,17.19,0,0,1-.3-4.82l-.2,0a2.74,2.74,0,0,0,1.26-.58,2.81,2.81,0,1,0-2.47.53,21.68,21.68,0,0,1-.36,5.05,33.17,33.17,0,0,0-9.18,2.4c-1.09-.76-3-3-5.08-9.74a4.79,4.79,0,0,0,.79-1,4,4,0,1,0-5.48,1.33,4.58,4.58,0,0,0,2.65.64c.61,1.54,3,8.06,1.92,11.53a32.77,32.77,0,0,0-9.78,9.9c-.92.23-3.45.25-8.45-3.48a3.16,3.16,0,1,0-.76,1.52c1.35.75,6.53,3.77,6.77,6.54a32.93,32.93,0,0,0,.19,26.69c-.66,1.36-3.21,5.12-11.62,6.95l.06.27a3.78,3.78,0,0,0-1.26-1.35,3.75,3.75,0,1,0,1.7,2.89c1.06-.36,10.85-3.66,14.68-2.68a33.08,33.08,0,0,0,16.2,11.68c1.13,1,2.8,3.5,1.25,9.26a3.24,3.24,0,0,0-1.14.61,3.13,3.13,0,1,0,4.42.4,3.21,3.21,0,0,0-1.57-1c.15-1.47.94-7.06,3.8-7.79a33,33,0,0,0,11.17-.72c1.66,1.14,3.62,4,5.15,10.84l.27,0a3.77,3.77,0,0,0-1.5,1.09,3.74,3.74,0,1,0,3.07-1.34c-.31-.88-2.55-7.44-1.79-12.27a32.08,32.08,0,0,0,5.5-3,41.85,41.85,0,0,1,3.19,4l.24-.12a3.65,3.65,0,0,0-1,1.58,3.74,3.74,0,1,0,2.3-2.43,41.74,41.74,0,0,1-3.23-4.09,32.78,32.78,0,0,0,6.57-6.63c5-.89,13.09,5.21,14.06,6a4,4,0,1,0,7.58-.8Z"/><path class="cls-8" d="M743.59,483.85c7.58-12.56,20.85-19,34.3-15-.42-.29-.85-.56-1.29-.83a31.68,31.68,0,0,0-32.75,54.24,32.06,32.06,0,0,0,7.55,3.31C737.45,516.17,734.81,498.38,743.59,483.85Z"/><path class="cls-9" d="M770.91,481.92c-.11,4.15-4.47,7.4-9.74,7.27s-9.46-3.62-9.35-7.78,4.5-8.23,9.77-8.09S771,477.77,770.91,481.92Z"/><path class="cls-9" d="M787.33,494c-1.28,1.4-3.75,1.21-5.52-.41s-2.18-4.06-.9-5.46a4.39,4.39,0,0,1,6.42,5.87Z"/><path class="cls-9" d="M769.29,520.39A2.57,2.57,0,0,1,765.6,517a2.52,2.52,0,0,1,3.69,3.37Z"/><path class="cls-10" d="M771.16,497a2.57,2.57,0,0,1,1.76,4.68,2.52,2.52,0,0,1-1.76-4.68Z"/><path class="cls-9" d="M747.72,513.3a2.57,2.57,0,0,1-3.66-3.41,2.52,2.52,0,0,1,3.66,3.41Z"/><path class="cls-10" d="M781,479.16a2.57,2.57,0,0,1-4.93.83,2.52,2.52,0,0,1,4.93-.83Z"/><path class="cls-9" d="M747.7,487a2.57,2.57,0,0,1-4.93.83,2.52,2.52,0,0,1,4.93-.83Z"/><circle class="cls-9" cx="757.71" cy="502.7" r="4.94"/><circle class="cls-9" cx="741.45" cy="500.45" r="3.5"/><circle class="cls-10" cx="755.05" cy="518.43" r="3.5"/><circle class="cls-10" cx="775.3" cy="510.51" r="3.5"/><path class="cls-7" d="M340.26,633.79a1.83,1.83,0,0,0-3.13-.34l.05-.13c-3.71-2-4.91-3.48-5.24-4.42.23-.49.43-1,.61-1.5.25-.23,1-.52,3.06.2l0-.08a1.19,1.19,0,0,0,1.64,1.24,1.21,1.21,0,0,0,.65-1.57,1.18,1.18,0,0,0-1.56-.64,1.14,1.14,0,0,0-.57.49,6.93,6.93,0,0,1-2.79-1.32,15.11,15.11,0,0,0,.32-4.23c.12-.54.92-2,6-2.31v0a2.5,2.5,0,0,0,1.15,1.12,2.46,2.46,0,1,0-1.18-3.28,2.51,2.51,0,0,0-.23,1c-1,.16-4.93.66-6.62-.54a14.86,14.86,0,0,0-4.77-6.68c-.21-.56-.21-1.84,1.51-4.56l-.11-.08a1.86,1.86,0,0,0,.94.08,1.91,1.91,0,1,0-2.2-1.58,2,2,0,0,0,.56,1.07,11.69,11.69,0,0,1-2.79,3.67,15,15,0,0,0-8-1.86,8.07,8.07,0,0,1-.14-2.19h-.09A1.27,1.27,0,0,0,318,605a1.28,1.28,0,1,0-1.8-.2,1.34,1.34,0,0,0,.67.44,10,10,0,0,1-.16,2.3,15.07,15.07,0,0,0-4.18,1.09c-.5-.35-1.38-1.38-2.31-4.43a3.69,3.69,0,0,0,.36-.46,1.82,1.82,0,1,0-2.5.6,2.08,2.08,0,0,0,1.21.29c.28.7,1.38,3.67.87,5.25a15,15,0,0,0-4.45,4.51c-.42.1-1.57.11-3.85-1.58a1.27,1.27,0,0,0,0-.58,1.43,1.43,0,0,0-2.79.62,1.44,1.44,0,0,0,1.71,1.08,1.35,1.35,0,0,0,.74-.43c.62.34,3,1.71,3.09,3a15,15,0,0,0,.09,12.16c-.31.61-1.46,2.33-5.3,3.16l0,.12a1.75,1.75,0,0,0-.57-.61,1.7,1.7,0,1,0,.51,2.34,1.68,1.68,0,0,0,.26-1c.48-.16,4.94-1.66,6.69-1.22a14.84,14.84,0,0,0,4.3,3.91,14.61,14.61,0,0,0,3.07,1.41c.52.45,1.28,1.6.57,4.22a1.33,1.33,0,0,0-.52.28,1.43,1.43,0,0,0,1.83,2.19,1.42,1.42,0,0,0,.18-2A1.37,1.37,0,0,0,315,641c.07-.68.43-3.22,1.73-3.55a15.19,15.19,0,0,0,5.08-.33c.76.52,1.65,1.83,2.35,4.93h.12a1.72,1.72,0,0,0-.68.5,1.7,1.7,0,1,0,2.39-.22,1.64,1.64,0,0,0-1-.39,13.68,13.68,0,0,1-.82-5.59,14.84,14.84,0,0,0,2.51-1.35,20.71,20.71,0,0,1,1.45,1.81l.11-.06a1.71,1.71,0,0,0-.44.72,1.7,1.7,0,1,0,2.12-1.14,1.63,1.63,0,0,0-1.07,0,18.41,18.41,0,0,1-1.47-1.87,15,15,0,0,0,3-3c2.26-.4,6,2.38,6.4,2.71a1.83,1.83,0,1,0,3.45-.36Z"/><path class="cls-8" d="M310.85,617.42c3.46-5.72,9.5-8.63,15.62-6.85-.19-.13-.39-.25-.59-.37A14.42,14.42,0,1,0,311,634.89a15,15,0,0,0,3.44,1.51C308.06,632.13,306.86,624,310.85,617.42Z"/><path class="cls-9" d="M323.29,616.54c-.05,1.89-2,3.37-4.43,3.31s-4.31-1.65-4.26-3.54,2-3.75,4.45-3.68S323.34,614.65,323.29,616.54Z"/><path class="cls-9" d="M330.77,622a2,2,0,0,1-2.92-2.67,2,2,0,0,1,2.92,2.67Z"/><path class="cls-9" d="M322.56,634.06a1.17,1.17,0,0,1-1.68-1.54,1.15,1.15,0,0,1,1.68,1.54Z"/><path class="cls-10" d="M323.41,623.41a1.17,1.17,0,0,1,.8,2.13,1.1,1.1,0,0,1-1.33-.71A1.11,1.11,0,0,1,323.41,623.41Z"/><path class="cls-9" d="M312.73,630.83a1.17,1.17,0,0,1-1.66-1.55,1.15,1.15,0,0,1,1.66,1.55Z"/><path class="cls-10" d="M327.89,615.28a1.17,1.17,0,0,1-2.24.38,1.1,1.1,0,0,1,1-1.17A1.11,1.11,0,0,1,327.89,615.28Z"/><path class="cls-9" d="M312.72,618.86a1.17,1.17,0,0,1-2.24.38,1.11,1.11,0,0,1,1-1.17A1.09,1.09,0,0,1,312.72,618.86Z"/><circle class="cls-9" cx="317.28" cy="626" r="2.25"/><circle class="cls-9" cx="309.88" cy="624.98" r="1.59"/><circle class="cls-10" cx="316.07" cy="633.17" r="1.59"/><circle class="cls-10" cx="325.29" cy="629.56" r="1.59"/><path class="cls-7" d="M190.16,153.94a3.4,3.4,0,0,0-4.5-1.69,3.49,3.49,0,0,0-1.31,1.05l.09-.22c-6.89-3.67-9.11-6.46-9.73-8.21q.64-1.38,1.14-2.79c.46-.42,1.82-1,5.68.38l.07-.15a2.18,2.18,0,0,0,.15,1.09,2.23,2.23,0,1,0,.15-2c-.49-.12-3.83-1-5.17-2.45a27.73,27.73,0,0,0,.58-7.85c.22-1,1.72-3.61,11.2-4.27v-.07a4.56,4.56,0,1,0,0-4,4.68,4.68,0,0,0-.44,1.84c-1.9.29-9.14,1.21-12.27-1a27.66,27.66,0,0,0-8.86-12.39c-.39-1-.39-3.42,2.8-8.46l-.21-.15a3.59,3.59,0,0,0,1.76.15,3.58,3.58,0,1,0-3.05-1c-.35.68-2.6,5-5.18,6.83a27.76,27.76,0,0,0-14.81-3.46,15,15,0,0,1-.25-4.07l-.17,0a2.35,2.35,0,0,0,1.07-.48,2.38,2.38,0,1,0-3.34-.36,2.36,2.36,0,0,0,1.25.8,18.49,18.49,0,0,1-.3,4.27,28.2,28.2,0,0,0-7.76,2c-.92-.64-2.55-2.55-4.29-8.22a4.06,4.06,0,0,0,.67-.85,3.37,3.37,0,1,0-4.63,1.12,3.83,3.83,0,0,0,2.24.54c.51,1.3,2.56,6.81,1.62,9.74a27.69,27.69,0,0,0-8.26,8.36c-.78.2-2.92.22-7.14-2.93a2.76,2.76,0,0,0,0-1.07,2.65,2.65,0,1,0-2,3.16,2.55,2.55,0,0,0,1.38-.81c1.15.63,5.52,3.19,5.73,5.52a27.83,27.83,0,0,0,.16,22.55c-.56,1.15-2.71,4.33-9.82,5.88l0,.22a3.23,3.23,0,0,0-1.07-1.14,3.15,3.15,0,1,0,1,4.35,3.08,3.08,0,0,0,.48-1.91c.89-.3,9.17-3.09,12.41-2.26a28,28,0,0,0,13.68,9.87c1,.83,2.37,3,1.06,7.82a2.7,2.7,0,0,0-1,.51,2.65,2.65,0,1,0,3.73.34,2.59,2.59,0,0,0-1.33-.85c.13-1.25.8-6,3.21-6.59a27.89,27.89,0,0,0,9.43-.61c1.41,1,3.06,3.41,4.36,9.16l.22,0a3.15,3.15,0,1,0,3.18.5,3.22,3.22,0,0,0-1.85-.72c-.26-.74-2.15-6.28-1.51-10.36a28.17,28.17,0,0,0,4.65-2.5,34.51,34.51,0,0,1,2.69,3.35l.2-.11a3.21,3.21,0,0,0-.8,1.33,3.15,3.15,0,1,0,3.92-2.1,3.11,3.11,0,0,0-2,0,32.49,32.49,0,0,1-2.73-3.45,27.8,27.8,0,0,0,5.55-5.6c4.19-.76,11.06,4.4,11.87,5a3.4,3.4,0,0,0,4.72,3.82A3.4,3.4,0,0,0,190.16,153.94Z"/><path class="cls-8" d="M135.59,123.56c6.41-10.6,17.62-16,29-12.7-.36-.24-.72-.48-1.09-.7A26.76,26.76,0,0,0,135.81,156a27.23,27.23,0,0,0,6.38,2.8C130.4,150.87,128.18,135.84,135.59,123.56Z"/><path class="cls-9" d="M158.67,121.93c-.09,3.51-3.77,6.26-8.23,6.14s-8-3.06-7.89-6.56,3.79-7,8.25-6.84S158.77,118.43,158.67,121.93Z"/><path class="cls-9" d="M172.54,132.14c-1.07,1.18-3.16,1-4.66-.34s-1.83-3.43-.76-4.61a3.7,3.7,0,0,1,5.42,4.95Z"/><path class="cls-9" d="M157.3,154.44a2.17,2.17,0,0,1-3.11-2.85,2.13,2.13,0,0,1,3.11,2.85Z"/><path class="cls-10" d="M158.88,134.69a2.17,2.17,0,0,1,1.5,3.94,2.13,2.13,0,0,1-1.5-3.94Z"/><path class="cls-9" d="M139.08,148.45a2.17,2.17,0,0,1-3.09-2.88,2.13,2.13,0,0,1,3.09,2.88Z"/><path class="cls-10" d="M167.2,119.6a2.17,2.17,0,0,1-4.16.7,2.13,2.13,0,0,1,4.16-.7Z"/><path class="cls-9" d="M139.06,126.24a2.17,2.17,0,0,1-4.16.7,2.13,2.13,0,0,1,4.16-.7Z"/><circle class="cls-9" cx="147.52" cy="139.49" r="4.18"/><circle class="cls-9" cx="133.78" cy="137.59" r="2.95"/><circle class="cls-10" cx="145.27" cy="152.78" r="2.95"/><circle class="cls-10" cx="162.38" cy="146.09" r="2.95"/></g></svg>