<svg xmlns="http://www.w3.org/2000/svg" xmlns:xlink="http://www.w3.org/1999/xlink" viewBox="0 0 911 910"><defs><style>.cls-1,.cls-67{fill:none;}.cls-2{isolation:isolate;}.cls-3{fill:#59de9d;}.cls-4{fill:#43ca88;}.cls-5{fill:#43ca85;}.cls-6{fill:#f27d7d;}.cls-7{clip-path:url(#clip-path);}.cls-8{fill:#f29f7d;}.cls-9{fill:#e77d70;}.cls-10{fill:#e5b56b;}.cls-11{fill:#f7da7c;}.cls-12{clip-path:url(#clip-path-2);}.cls-13{fill:#e87c6f;}.cls-14{fill:#ea7c6f;}.cls-15{fill:#f4a07e;}.cls-16{fill:#f9db7b;}.cls-17{fill:#de5a65;}.cls-18{fill:#feef9a;}.cls-19{fill:#d7a260;}.cls-20{fill:#f6d77c;}.cls-21{clip-path:url(#clip-path-3);}.cls-22{fill:#3e0c2f;}.cls-23{fill:#c98c55;}.cls-24{fill:#daa45e;}.cls-25{fill:#d8a361;}.cls-26{fill:#e5b569;}.cls-27{fill:#ffee9c;}.cls-28{fill:#fed885;}.cls-29{fill:#c64f51;}.cls-30{fill:#cf4c5e;}.cls-31{fill:#771023;}.cls-32{fill:#660c26;}.cls-33{fill:#fff;}.cls-34{fill:#931628;}.cls-35{fill:#d4495c;}.cls-36{fill:#cf4d59;}.cls-37{fill:#f2c291;}.cls-38{fill:#f4c091;}.cls-39,.cls-65{fill:#426082;}.cls-40{fill:#4b8092;}.cls-41{fill:#5d9ea2;}.cls-42{clip-path:url(#clip-path-4);}.cls-43{fill:#a43546;}.cls-44{clip-path:url(#clip-path-5);}.cls-45{clip-path:url(#clip-path-6);}.cls-46,.cls-61{opacity:0.9;}.cls-47,.cls-59{opacity:0.45;}.cls-48,.cls-59,.cls-60,.cls-61,.cls-66{fill:#c1272d;}.cls-49,.cls-60{opacity:0.4;}.cls-50{clip-path:url(#clip-path-7);}.cls-51{clip-path:url(#clip-path-8);}.cls-52{clip-path:url(#clip-path-9);}.cls-53{clip-path:url(#clip-path-10);}.cls-54{clip-path:url(#clip-path-11);}.cls-55{clip-path:url(#clip-path-12);}.cls-56{clip-path:url(#clip-path-13);}.cls-57{fill:url(#Degradado_sin_nombre_8);}.cls-58{fill:url(#Degradado_sin_nombre_8-2);}.cls-62{fill:url(#Degradado_sin_nombre_8-3);}.cls-63{fill:#d7e6fb;}.cls-64{fill:#d1dfea;}.cls-65{mix-blend-mode:soft-light;}.cls-66{opacity:0.2;}.cls-67{stroke:#c1272d;stroke-linecap:round;stroke-miterlimit:10;}.cls-68{clip-path:url(#clip-path-14);}.cls-69{clip-path:url(#clip-path-15);}.cls-70{clip-path:url(#clip-path-16);}.cls-71{opacity:0.7;}.cls-72{fill:#008cad;}</style><clipPath id="clip-path"><circle class="cls-1" cx="292" cy="657" r="100"/></clipPath><clipPath id="clip-path-2"><path class="cls-1" d="M255.26,628.15s-5.4-2.88-6.48,3.23-1.79,12.94-1.07,15.1,1.43,5.39,4.31,7.55,4.38,4.67,8.3,2.88l1.05-2.88-4.32-24.45Z"/></clipPath><clipPath id="clip-path-3"><path class="cls-1" d="M256.25,636.23s6-19.41,6.74-25.52c0,0,18.69,15.82,29.12,19l-1.8-5s17.62,13.3,28.4,14.38c0,0,6.54,0,6.87,14.74,0,0,2.48-5.75-1.12-18,0,0-19-7.91-29.84-14.75s-33.07-25.88-33.07-25.88S255,611.43,255.4,620.6A125,125,0,0,0,256.25,636.23Z"/></clipPath><clipPath id="clip-path-4"><circle class="cls-1" cx="707.5" cy="442" r="100.5"/></clipPath><clipPath id="clip-path-5"><path class="cls-1" d="M668.83,412.64s-5.39-2.88-6.47,3.23-1.8,12.94-1.08,15.09,1.44,5.39,4.31,7.55,4.38,4.67,8.3,2.88l1.05-2.88-4.31-24.44Z"/></clipPath><clipPath id="clip-path-6"><path class="cls-1" d="M669.82,420.72s6-19.4,6.73-25.51c0,0,18.69,15.81,29.11,19l-1.79-5s17.61,13.3,28.39,14.38c0,0,6.53,0,6.86,14.73,0,0,2.48-5.75-1.11-18,0,0-19-7.9-29.83-14.73s-33.06-25.88-33.06-25.88-6.55,16.18-6.15,25.34A125,125,0,0,0,669.82,420.72Z"/></clipPath><clipPath id="clip-path-7"><circle class="cls-1" cx="616.5" cy="201" r="99"/></clipPath><clipPath id="clip-path-8"><path class="cls-1" d="M578.41,172.07s-5.31-2.83-6.38,3.19S570.26,188,571,190.13s1.42,5.31,4.25,7.43,4.31,4.6,8.17,2.83l1-2.83-4.24-24.07Z"/></clipPath><clipPath id="clip-path-9"><path class="cls-1" d="M579.38,180s5.93-19.12,6.64-25.13c0,0,18.4,15.57,28.67,18.76l-1.77-5s17.35,13.1,28,14.16c0,0,6.44,0,6.76,14.52,0,0,2.44-5.67-1.1-17.7,0,0-18.76-7.79-29.38-14.52s-32.57-25.49-32.57-25.49-6.44,15.93-6.05,25A123.53,123.53,0,0,0,579.38,180Z"/></clipPath><clipPath id="clip-path-10"><circle class="cls-1" cx="328.5" cy="189" r="101"/></clipPath><clipPath id="clip-path-11"><path class="cls-1" d="M289.64,159.49s-5.42-2.89-6.5,3.25-1.81,13-1.09,15.17,1.45,5.42,4.34,7.58,4.4,4.7,8.34,2.89l1-2.89-4.34-24.55Z"/></clipPath><clipPath id="clip-path-12"><path class="cls-1" d="M290.63,167.62s6.05-19.51,6.77-25.65c0,0,18.78,15.9,29.25,19.15l-1.8-5.06s17.69,13.36,28.53,14.45c0,0,6.57,0,6.9,14.8,0,0,2.49-5.78-1.12-18.05,0,0-19.14-7.95-30-14.81s-33.22-26-33.22-26-6.58,16.25-6.18,25.46A126.31,126.31,0,0,0,290.63,167.62Z"/></clipPath><clipPath id="clip-path-13"><circle class="cls-1" cx="588" cy="677" r="102"/></clipPath><linearGradient id="Degradado_sin_nombre_8" x1="550.44" y1="676.83" x2="550.44" y2="646.39" gradientUnits="userSpaceOnUse"><stop offset="0" stop-color="#e87c6f"/><stop offset="1" stop-color="#ea7c6f"/></linearGradient><linearGradient id="Degradado_sin_nombre_8-2" x1="587.41" y1="673.11" x2="587.41" y2="613.76" xlink:href="#Degradado_sin_nombre_8"/><linearGradient id="Degradado_sin_nombre_8-3" x1="620.06" y1="634" x2="631.87" y2="634" gradientTransform="matrix(1, 0, 0, 1.07, -3.01, 89.05)" xlink:href="#Degradado_sin_nombre_8"/><clipPath id="clip-path-14"><circle class="cls-1" cx="196.5" cy="407.5" r="100.5"/></clipPath><clipPath id="clip-path-15"><path class="cls-1" d="M157.83,378.14s-5.39-2.88-6.47,3.23-1.8,12.94-1.08,15.09,1.44,5.39,4.31,7.55,4.38,4.67,8.3,2.88l1.05-2.88-4.31-24.44Z"/></clipPath><clipPath id="clip-path-16"><path class="cls-1" d="M158.82,386.22s6-19.4,6.73-25.51c0,0,18.69,15.81,29.11,19l-1.79-5s17.61,13.3,28.39,14.38c0,0,6.53,0,6.86,14.73,0,0,2.48-5.75-1.11-18,0,0-19-7.9-29.83-14.73s-33.06-25.88-33.06-25.88-6.55,16.18-6.15,25.34A125,125,0,0,0,158.82,386.22Z"/></clipPath></defs><title>SINTOMAS</title><g class="cls-2"><g id="Sintomas"><path class="cls-3" d="M548.66,433.23a4.42,4.42,0,0,0-3.56,2.1,8.16,8.16,0,0,1-2.6,2.17,9.63,9.63,0,0,1-6.87,1.25,85.49,85.49,0,0,1-11.29-4.5,70.89,70.89,0,0,0-5-20.13c1.54-2.34,5.4-8.08,7.36-10.05a6.68,6.68,0,0,1,4-1.76,5.38,5.38,0,0,1,3.19.77,3.59,3.59,0,0,0,3.64.33c1.91-1.2,2-5.32-.14-8.77s-5.78-4.9-7.69-3.7a3.24,3.24,0,0,0-1.31,2.73,5.92,5.92,0,0,1-.68,2.39,7.06,7.06,0,0,1-3.66,3.58c-2.33.86-8.05,1.81-11.21,2.31a71.72,71.72,0,0,0-16.67-17.73,69.94,69.94,0,0,1,1.41-9.73,9.05,9.05,0,0,1,3.62-4.8,7.24,7.24,0,0,1,4.31-1.23c2.11,0,3.79-.69,4.53-2.06,1.47-2.7-1.16-7.68-6-10.31s-10.16-1.95-11.62.76a4.4,4.4,0,0,0,.28,4.12,8,8,0,0,1,.79,3.3,9.65,9.65,0,0,1-1.94,6.71,67,67,0,0,1-6.78,6.22,71,71,0,0,0-24.23-6.94,60.76,60.76,0,0,1-2.92-8.12,6.67,6.67,0,0,1,.73-4.35,5.32,5.32,0,0,1,2.38-2.26c1.37-.72,2.24-1.73,2.25-2.87,0-2.26-3.36-4.6-7.42-4.66s-7.26,2.18-7.3,4.44a3.25,3.25,0,0,0,1.58,2.58,5.8,5.8,0,0,1,1.63,1.88,7.06,7.06,0,0,1,1,5,60.78,60.78,0,0,1-3,8.09,70.94,70.94,0,0,0-25.48,6.21,42,42,0,0,1-4.34-3.75,9.09,9.09,0,0,1-2.25-5.57,7.37,7.37,0,0,1,1.18-4.33c1.08-1.81,1.37-3.6.58-4.94-1.56-2.66-7.18-3-12-.16s-6.9,7.7-5.34,10.35a4.39,4.39,0,0,0,3.67,1.88,8.22,8.22,0,0,1,3.23,1,9.65,9.65,0,0,1,4.74,5.13,42.93,42.93,0,0,1,1.24,5.4,71.77,71.77,0,0,0-20.76,20.39,45.17,45.17,0,0,1-6.12-1.11,6.62,6.62,0,0,1-3.45-2.75,5.37,5.37,0,0,1-.81-3.19,3.58,3.58,0,0,0-1.41-3.36c-2-1.13-5.66.7-7.69,4.22s-1.63,7.4.32,8.53a3.27,3.27,0,0,0,3-.12,5.76,5.76,0,0,1,2.43-.51,7,7,0,0,1,4.88,1.56,44.69,44.69,0,0,1,4.17,4.78A70.84,70.84,0,0,0,382,437.28a51.85,51.85,0,0,1-6.63,2.23,9.13,9.13,0,0,1-5.94-1,7.31,7.31,0,0,1-3.1-3.24c-1-1.87-2.37-3-3.92-3.05-3.08,0-6.26,4.6-6.32,10.15s3,9.89,6.09,9.92a4.38,4.38,0,0,0,3.51-2.16,8.06,8.06,0,0,1,2.55-2.24,9.65,9.65,0,0,1,6.85-1.4,55.22,55.22,0,0,1,7.21,2.51,71,71,0,0,0,7.07,24.08,68.24,68.24,0,0,1-5.64,7.35,6.71,6.71,0,0,1-4,1.73,5.43,5.43,0,0,1-3.2-.8,3.56,3.56,0,0,0-3.63-.35c-1.92,1.19-2.06,5.31.07,8.77s5.75,4.94,7.67,3.76a3.22,3.22,0,0,0,1.32-2.72,6,6,0,0,1,.71-2.39,7,7,0,0,1,3.69-3.55,65.53,65.53,0,0,1,9.06-1.89,71.61,71.61,0,0,0,18.4,17.72,49.64,49.64,0,0,1-1,6.45,9.16,9.16,0,0,1-3.57,4.84,7.27,7.27,0,0,1-4.3,1.27c-2.11,0-3.79.73-4.51,2.1-1.44,2.73,1.24,7.67,6.14,10.26s10.18,1.84,11.61-.88a4.39,4.39,0,0,0-.32-4.12,8.11,8.11,0,0,1-.82-3.29,9.61,9.61,0,0,1,1.88-6.73,48.51,48.51,0,0,1,4.62-4.48,70.9,70.9,0,0,0,24.65,6.3,81.8,81.8,0,0,1,4.89,10.17,6.68,6.68,0,0,1-.32,4.39,5.38,5.38,0,0,1-2.18,2.47,3.59,3.59,0,0,0-2,3.06c.17,2.25,3.77,4.28,7.82,4s7-2.83,6.86-5.08a3.24,3.24,0,0,0-1.8-2.43,5.91,5.91,0,0,1-1.8-1.72,7.08,7.08,0,0,1-1.46-4.91,75.81,75.81,0,0,1,2.91-10.15,71.05,71.05,0,0,0,23.66-6.88,65.37,65.37,0,0,1,6.43,6.4,9.08,9.08,0,0,1,1.72,5.76,7.26,7.26,0,0,1-1.56,4.2c-1.25,1.7-1.7,3.46-1,4.87,1.31,2.78,6.87,3.61,11.89,1.24s7.58-7,6.27-9.81A4.4,4.4,0,0,0,505,515.8a8.2,8.2,0,0,1-3.12-1.32,9.68,9.68,0,0,1-4.25-5.54,77.24,77.24,0,0,1-1.09-10.88,72,72,0,0,0,14.53-14.89c3.12,0,9.21.18,11.72.72a6.56,6.56,0,0,1,3.67,2.43,5.37,5.37,0,0,1,1.09,3.1c.1,1.55.67,2.75,1.7,3.23,2.05,1,5.57-1.19,7.29-4.87s1-7.52-1.07-8.47a3.22,3.22,0,0,0-3,.38,5.84,5.84,0,0,1-2.38.72,7.09,7.09,0,0,1-5-1.12,75.22,75.22,0,0,1-7.32-7.38,70.71,70.71,0,0,0,6.41-22.44,81.65,81.65,0,0,1,11-3.71,9.09,9.09,0,0,1,5.91,1.09,7.4,7.4,0,0,1,3,3.31c1,1.89,2.31,3.09,3.86,3.14,3.08.11,6.35-4.46,6.54-10S551.74,433.34,548.66,433.23Z"/><path class="cls-4" d="M509.41,478.45s-8.05-4.76-16.47,4.39-16.83,11.71-24.15,11.71-7.68-14.64-27.08-10.25-16.1-6.22-18.29-11-1.83-5.13-13.54-8.42c-7.34-2.06-8.78-8.15-8.84-12.41a15.38,15.38,0,0,1,1.49-6.55c8.64-18.87-8.28-30.52-11.92-32.17,0,0-25.37,57.72,34.27,88.82C424.88,502.6,471.72,527.85,509.41,478.45Z"/><path class="cls-5" d="M445.65,387.89c3.62,6.37,0,15.27-8.09,19.87s-17.59,3.16-21.22-3.22-.72-16.54,7.37-21.14S442,381.51,445.65,387.89Z"/><path class="cls-5" d="M481.48,391.16c-.66,3.27-4.55,5.26-8.71,4.42s-7-4.15-6.34-7.43,4.69-5.9,8.84-5.07S482.13,387.89,481.48,391.16Z"/><path class="cls-5" d="M478.31,447.5c-.38,1.88-2.62,3-5,2.54s-4-2.39-3.64-4.27,2.69-3.39,5.08-2.91A4.31,4.31,0,0,1,478.31,447.5Z"/><path class="cls-5" d="M439.24,456.47c-.4,1.88-2.65,3-5,2.49s-4-2.42-3.6-4.3,2.72-3.37,5.1-2.87S439.63,454.59,439.24,456.47Z"/><path class="cls-5" d="M415.22,416.77c1.25,1.45.77,3.92-1.07,5.51s-4.36,1.69-5.61.24-1-4.21.83-5.8S414,415.31,415.22,416.77Z"/><circle class="cls-5" cx="444.66" cy="431.33" r="8.72"/><circle class="cls-5" cx="418.04" cy="442.77" r="6.17"/><path class="cls-4" d="M500.88,430.15c.95-1.21,3-1.21,4.5,0s2,3.17,1.06,4.37a3.56,3.56,0,0,1-5.56-4.36Z"/><path class="cls-4" d="M499.75,401.36c1,1.16.62,3.14-.86,4.41s-3.49,1.35-4.49.19a3.56,3.56,0,0,1,5.35-4.6Z"/><circle class="cls-4" cx="497.04" cy="467.83" r="4.94"/><circle class="cls-4" cx="515.75" cy="443.45" r="4.94"/><path class="cls-3" d="M588.45,483.71a.77.77,0,0,0-.62.37,1.46,1.46,0,0,1-.45.37,1.63,1.63,0,0,1-1.18.22,14.53,14.53,0,0,1-2-.78,12.26,12.26,0,0,0-.87-3.48,16.72,16.72,0,0,1,1.27-1.73,1.12,1.12,0,0,1,.7-.3.9.9,0,0,1,.55.13.63.63,0,0,0,.63.06c.33-.21.35-.92,0-1.52s-1-.84-1.32-.64a.54.54,0,0,0-.23.47,1,1,0,0,1-.12.42,1.23,1.23,0,0,1-.63.62,14.92,14.92,0,0,1-1.93.39,12.69,12.69,0,0,0-2.88-3.06,12,12,0,0,1,.24-1.68,1.63,1.63,0,0,1,.63-.83,1.26,1.26,0,0,1,.74-.21.85.85,0,0,0,.78-.35c.25-.47-.2-1.33-1-1.78s-1.75-.34-2,.13a.76.76,0,0,0,0,.71,1.37,1.37,0,0,1,.14.57,1.67,1.67,0,0,1-.34,1.16,11.34,11.34,0,0,1-1.17,1.07,12.24,12.24,0,0,0-4.18-1.2,9,9,0,0,1-.5-1.4,1.16,1.16,0,0,1,.12-.75,1,1,0,0,1,.41-.39.6.6,0,0,0,.39-.5c0-.39-.58-.79-1.28-.8s-1.25.38-1.26.77a.56.56,0,0,0,.27.44,1,1,0,0,1,.28.33,1.2,1.2,0,0,1,.18.86,9.24,9.24,0,0,1-.53,1.4,12.26,12.26,0,0,0-4.4,1.07,8.5,8.5,0,0,1-.75-.64,1.61,1.61,0,0,1-.38-1,1.22,1.22,0,0,1,.2-.74.84.84,0,0,0,.1-.86c-.27-.46-1.24-.51-2.06,0s-1.2,1.32-.93,1.78a.77.77,0,0,0,.64.33,1.36,1.36,0,0,1,.55.17,1.68,1.68,0,0,1,.82.89,6.8,6.8,0,0,1,.22.93,12.54,12.54,0,0,0-3.59,3.52,7.24,7.24,0,0,1-1.05-.19,1.16,1.16,0,0,1-.6-.47,1,1,0,0,1-.14-.55.62.62,0,0,0-.24-.59c-.34-.19-1,.13-1.33.73s-.28,1.28.06,1.48a.54.54,0,0,0,.52,0,1,1,0,0,1,.42-.08,1.17,1.17,0,0,1,.84.27,7.52,7.52,0,0,1,.72.82,12.12,12.12,0,0,0-1.25,4.76,8.62,8.62,0,0,1-1.14.39,1.59,1.59,0,0,1-1-.17,1.2,1.2,0,0,1-.53-.56.86.86,0,0,0-.68-.53c-.53,0-1.08.8-1.09,1.76s.52,1.7,1,1.71a.78.78,0,0,0,.61-.37,1.38,1.38,0,0,1,.44-.39,1.67,1.67,0,0,1,1.18-.24,9.34,9.34,0,0,1,1.24.43A12.44,12.44,0,0,0,561,490.6a11.75,11.75,0,0,1-1,1.27,1.18,1.18,0,0,1-.7.3.91.91,0,0,1-.55-.14.61.61,0,0,0-.63-.06c-.33.2-.36.91,0,1.51s1,.86,1.33.65a.6.6,0,0,0,.23-.47.88.88,0,0,1,.12-.41,1.18,1.18,0,0,1,.63-.61,11.4,11.4,0,0,1,1.57-.33,12.34,12.34,0,0,0,3.18,3.06,8,8,0,0,1-.18,1.11,1.58,1.58,0,0,1-.61.84,1.4,1.4,0,0,1-.75.22.84.84,0,0,0-.78.36c-.24.47.22,1.32,1.07,1.77s1.75.32,2-.15a.73.73,0,0,0-.06-.71,1.41,1.41,0,0,1-.14-.57,1.65,1.65,0,0,1,.33-1.16,8.38,8.38,0,0,1,.79-.78,12,12,0,0,0,4.26,1.09,14.62,14.62,0,0,1,.85,1.76,1.21,1.21,0,0,1-.06.76.86.86,0,0,1-.38.42.64.64,0,0,0-.34.53c0,.39.65.74,1.35.69s1.22-.49,1.19-.88a.57.57,0,0,0-.32-.42,1.1,1.1,0,0,1-.31-.3,1.26,1.26,0,0,1-.25-.84,13.22,13.22,0,0,1,.5-1.76,12.25,12.25,0,0,0,4.09-1.19,11.44,11.44,0,0,1,1.11,1.11,1.59,1.59,0,0,1,.3,1,1.36,1.36,0,0,1-.27.73.82.82,0,0,0-.18.84c.23.48,1.19.62,2,.21s1.31-1.21,1.08-1.69a.73.73,0,0,0-.6-.38,1.42,1.42,0,0,1-.54-.23,1.67,1.67,0,0,1-.73-1,14.52,14.52,0,0,1-.19-1.87,12.48,12.48,0,0,0,2.51-2.57,14.16,14.16,0,0,1,2,.12,1.17,1.17,0,0,1,.64.42.92.92,0,0,1,.18.54.62.62,0,0,0,.3.55c.35.17,1-.2,1.26-.84s.17-1.3-.19-1.46a.56.56,0,0,0-.52.07,1.09,1.09,0,0,1-.41.12,1.18,1.18,0,0,1-.86-.2,12.62,12.62,0,0,1-1.26-1.27,12.06,12.06,0,0,0,1.1-3.87,13.64,13.64,0,0,1,1.9-.64,1.5,1.5,0,0,1,1,.19,1.15,1.15,0,0,1,.52.57.86.86,0,0,0,.67.54c.53,0,1.1-.77,1.13-1.73S589,483.73,588.45,483.71Z"/><path class="cls-4" d="M581.67,491.52a2.29,2.29,0,0,0-2.84.76,5.52,5.52,0,0,1-4.17,2c-1.27,0-1.33-2.53-4.68-1.77s-2.78-1.07-3.16-1.89-.31-.89-2.33-1.46A2.06,2.06,0,0,1,563,487a2.49,2.49,0,0,1,.26-1.13c1.49-3.26-1.43-5.27-2.06-5.55,0,0-4.38,10,5.92,15.33C567.08,495.69,575.16,500.05,581.67,491.52Z"/><path class="cls-5" d="M570.66,475.89c.63,1.1,0,2.63-1.4,3.43a2.66,2.66,0,0,1-3.66-.56,2.93,2.93,0,0,1,5.06-2.87Z"/><path class="cls-5" d="M576.85,476.45a1.36,1.36,0,0,1-2.6-.52,1.34,1.34,0,0,1,2.6.52Z"/><path class="cls-5" d="M576.3,486.18a.7.7,0,0,1-.86.44c-.42-.09-.7-.42-.63-.74a.72.72,0,0,1,.87-.5A.74.74,0,0,1,576.3,486.18Z"/><path class="cls-5" d="M569.56,487.73a.79.79,0,0,1-1.5-.32.77.77,0,0,1,1.5.32Z"/><path class="cls-5" d="M565.41,480.87a.78.78,0,0,1-1.16,1,.77.77,0,0,1,1.16-1Z"/><circle class="cls-5" cx="570.49" cy="483.39" r="1.51"/><circle class="cls-5" cx="565.89" cy="485.36" r="1.07"/><path class="cls-4" d="M580.2,483.18a.55.55,0,0,1,.77,0,.57.57,0,0,1,.19.76.61.61,0,0,1-.81,0A.59.59,0,0,1,580.2,483.18Z"/><path class="cls-4" d="M580,478.21a.54.54,0,0,1-.15.76.55.55,0,0,1-.77,0,.61.61,0,0,1,.11-.81A.61.61,0,0,1,580,478.21Z"/><circle class="cls-4" cx="579.53" cy="489.69" r="0.85"/><circle class="cls-4" cx="582.76" cy="485.48" r="0.85"/><path class="cls-3" d="M573.38,360a1.09,1.09,0,0,0-.88.52,2,2,0,0,1-.65.54,2.38,2.38,0,0,1-1.69.31,23.1,23.1,0,0,1-2.79-1.11,17.58,17.58,0,0,0-1.24-5,23.22,23.22,0,0,1,1.82-2.48,1.6,1.6,0,0,1,1-.43,1.28,1.28,0,0,1,.78.19.88.88,0,0,0,.9.08c.47-.3.5-1.31,0-2.16s-1.43-1.22-1.9-.92a.8.8,0,0,0-.32.68,1.59,1.59,0,0,1-.17.59,1.78,1.78,0,0,1-.91.88,20.24,20.24,0,0,1-2.76.57,17.88,17.88,0,0,0-4.12-4.38,17.8,17.8,0,0,1,.35-2.4,2.25,2.25,0,0,1,.89-1.19,1.83,1.83,0,0,1,1.07-.3,1.21,1.21,0,0,0,1.12-.51c.36-.67-.29-1.89-1.5-2.54s-2.5-.48-2.87.19a1.11,1.11,0,0,0,.07,1,1.91,1.91,0,0,1,.2.82,2.39,2.39,0,0,1-.48,1.65,16.15,16.15,0,0,1-1.67,1.54,17.32,17.32,0,0,0-6-1.71,16.48,16.48,0,0,1-.72-2,1.71,1.71,0,0,1,.18-1.07,1.39,1.39,0,0,1,.59-.56.9.9,0,0,0,.56-.71c0-.56-.83-1.13-1.84-1.15s-1.79.54-1.8,1.1a.82.82,0,0,0,.39.63,1.39,1.39,0,0,1,.4.47,1.72,1.72,0,0,1,.25,1.24,14.22,14.22,0,0,1-.75,2,17.47,17.47,0,0,0-6.29,1.54,10.62,10.62,0,0,1-1.07-.93,2.2,2.2,0,0,1-.55-1.37,1.77,1.77,0,0,1,.29-1.07,1.21,1.21,0,0,0,.14-1.22c-.39-.66-1.77-.74-2.95,0s-1.71,1.9-1.32,2.55a1.08,1.08,0,0,0,.91.47,2,2,0,0,1,.79.25,2.37,2.37,0,0,1,1.17,1.27,9.9,9.9,0,0,1,.31,1.33,17.85,17.85,0,0,0-5.13,5,11.56,11.56,0,0,1-1.51-.28,1.63,1.63,0,0,1-.85-.68,1.34,1.34,0,0,1-.2-.78.86.86,0,0,0-.35-.83c-.48-.28-1.39.17-1.9,1s-.4,1.82.08,2.1a.8.8,0,0,0,.75,0,1.4,1.4,0,0,1,.6-.12,1.72,1.72,0,0,1,1.21.38,12,12,0,0,1,1,1.18,17.4,17.4,0,0,0-1.79,6.81,12,12,0,0,1-1.64.55,2.2,2.2,0,0,1-1.46-.24,1.81,1.81,0,0,1-.77-.8,1.19,1.19,0,0,0-1-.75c-.76,0-1.54,1.14-1.56,2.51s.74,2.44,1.5,2.45a1.1,1.1,0,0,0,.87-.54,2,2,0,0,1,.63-.55,2.44,2.44,0,0,1,1.69-.35,14.38,14.38,0,0,1,1.78.62,17.6,17.6,0,0,0,1.75,5.95,16.93,16.93,0,0,1-1.39,1.81,1.64,1.64,0,0,1-1,.43,1.29,1.29,0,0,1-.78-.2.88.88,0,0,0-.9-.08c-.47.29-.51,1.31,0,2.16s1.42,1.22,1.89.93a.83.83,0,0,0,.33-.67,1.49,1.49,0,0,1,.17-.59,1.74,1.74,0,0,1,.91-.88,18.2,18.2,0,0,1,2.24-.47,17.67,17.67,0,0,0,4.54,4.38,11.63,11.63,0,0,1-.25,1.59,2.25,2.25,0,0,1-.88,1.2,1.78,1.78,0,0,1-1.06.31,1.2,1.2,0,0,0-1.11.52c-.36.67.3,1.89,1.51,2.53s2.52.46,2.87-.22a1.09,1.09,0,0,0-.08-1,2.06,2.06,0,0,1-.2-.81,2.37,2.37,0,0,1,.46-1.67,14,14,0,0,1,1.14-1.1,17.53,17.53,0,0,0,6.09,1.55,21.63,21.63,0,0,1,1.21,2.51,1.67,1.67,0,0,1-.08,1.09,1.33,1.33,0,0,1-.54.61.87.87,0,0,0-.49.75c0,.56.93,1.06,1.93,1s1.74-.69,1.7-1.25a.8.8,0,0,0-.45-.6,1.47,1.47,0,0,1-.44-.42,1.71,1.71,0,0,1-.36-1.22,18.27,18.27,0,0,1,.71-2.5,17.74,17.74,0,0,0,5.85-1.7,15.46,15.46,0,0,1,1.58,1.58,2.23,2.23,0,0,1,.43,1.42,1.76,1.76,0,0,1-.39,1,1.2,1.2,0,0,0-.25,1.2c.32.69,1.7.89,2.93.31s1.88-1.74,1.55-2.43a1.1,1.1,0,0,0-.86-.54,2,2,0,0,1-.77-.33,2.38,2.38,0,0,1-1.05-1.37,19.46,19.46,0,0,1-.27-2.68,17.89,17.89,0,0,0,3.59-3.68,21.64,21.64,0,0,1,2.89.18,1.65,1.65,0,0,1,.91.6,1.41,1.41,0,0,1,.27.77.86.86,0,0,0,.42.79c.5.24,1.37-.29,1.8-1.2s.24-1.86-.27-2.09a.81.81,0,0,0-.74.09,1.36,1.36,0,0,1-.58.18,1.71,1.71,0,0,1-1.24-.28,18.29,18.29,0,0,1-1.81-1.82,17.53,17.53,0,0,0,1.59-5.54,19.06,19.06,0,0,1,2.71-.91,2.2,2.2,0,0,1,1.46.27,1.74,1.74,0,0,1,.75.81,1.19,1.19,0,0,0,1,.78c.76,0,1.57-1.1,1.61-2.47S574.14,360.07,573.38,360Z"/><path class="cls-4" d="M563.68,371.21s-2-1.18-4.06,1.08a7.87,7.87,0,0,1-6,2.89c-1.81,0-1.9-3.61-6.69-2.53s-4-1.53-4.52-2.71-.45-1.26-3.34-2.08a3,3,0,0,1-2.18-3.06,3.66,3.66,0,0,1,.37-1.62c2.13-4.66-2-7.53-2.95-7.94,0,0-6.26,14.25,8.47,21.93C542.82,377.17,554.38,383.4,563.68,371.21Z"/><path class="cls-5" d="M547.94,348.85c.9,1.57,0,3.77-2,4.9s-4.34.78-5.23-.79a4.2,4.2,0,0,1,7.23-4.11Z"/><path class="cls-5" d="M556.79,349.66a2,2,0,0,1-3.72-.75,1.91,1.91,0,0,1,3.72.75Z"/><path class="cls-5" d="M556,363.57a1,1,0,0,1-1.24.62,1,1,0,0,1-.9-1.05,1.05,1.05,0,0,1,1.25-.72A1.07,1.07,0,0,1,556,363.57Z"/><path class="cls-5" d="M546.36,365.78a1.12,1.12,0,0,1-2.13-.45,1.1,1.1,0,0,1,2.13.45Z"/><path class="cls-5" d="M540.43,356a1.12,1.12,0,0,1-1.65,1.42,1.1,1.1,0,0,1,1.65-1.42Z"/><circle class="cls-5" cx="547.7" cy="359.57" r="2.15"/><circle class="cls-5" cx="541.13" cy="362.4" r="1.52"/><path class="cls-4" d="M561.58,359.28a.79.79,0,0,1,1.11,0,.8.8,0,0,1,.26,1.08.85.85,0,0,1-1.16.06A.87.87,0,0,1,561.58,359.28Z"/><path class="cls-4" d="M561.3,352.17a.9.9,0,0,1-1.32,1.14.88.88,0,0,1,1.32-1.14Z"/><circle class="cls-4" cx="560.63" cy="368.59" r="1.22"/><circle class="cls-4" cx="565.25" cy="362.57" r="1.22"/><path class="cls-3" d="M445.9,321.77a.7.7,0,0,0-.59.35,1.39,1.39,0,0,1-.44.36,1.58,1.58,0,0,1-1.14.21,15.85,15.85,0,0,1-1.89-.75,11.74,11.74,0,0,0-.83-3.36,15.65,15.65,0,0,1,1.22-1.68,1.14,1.14,0,0,1,.68-.29.91.91,0,0,1,.53.13.62.62,0,0,0,.61.05c.32-.2.33-.89,0-1.46s-1-.82-1.28-.62a.54.54,0,0,0-.22.46,1,1,0,0,1-.11.4,1.17,1.17,0,0,1-.61.59,12.51,12.51,0,0,1-1.87.39,11.86,11.86,0,0,0-2.78-3,13,13,0,0,1,.23-1.62,1.48,1.48,0,0,1,.61-.8,1.2,1.2,0,0,1,.72-.21.79.79,0,0,0,.75-.34c.25-.45-.19-1.28-1-1.72s-1.69-.32-1.93.13a.72.72,0,0,0,0,.68,1.17,1.17,0,0,1,.13.55,1.58,1.58,0,0,1-.32,1.12,11.49,11.49,0,0,1-1.13,1,11.93,11.93,0,0,0-4-1.16,10.6,10.6,0,0,1-.49-1.35,1.11,1.11,0,0,1,.12-.73.9.9,0,0,1,.4-.37.61.61,0,0,0,.38-.48c0-.38-.56-.77-1.24-.78s-1.21.36-1.22.74a.56.56,0,0,0,.26.43.92.92,0,0,1,.28.31,1.16,1.16,0,0,1,.16.84,9.46,9.46,0,0,1-.5,1.35,11.85,11.85,0,0,0-4.25,1,8,8,0,0,1-.73-.63,1.47,1.47,0,0,1-.37-.93,1.24,1.24,0,0,1,.19-.72.79.79,0,0,0,.1-.82c-.26-.45-1.2-.5-2,0s-1.15,1.28-.89,1.73a.72.72,0,0,0,.61.31,1.48,1.48,0,0,1,.54.17,1.64,1.64,0,0,1,.79.86,6.28,6.28,0,0,1,.2.9,11.92,11.92,0,0,0-3.46,3.4,6.72,6.72,0,0,1-1-.19,1.09,1.09,0,0,1-.57-.45.93.93,0,0,1-.14-.54.59.59,0,0,0-.24-.56c-.32-.18-.94.12-1.28.71s-.27,1.23.06,1.42a.53.53,0,0,0,.5,0,1.16,1.16,0,0,1,.41-.09,1.2,1.2,0,0,1,.81.26,8.23,8.23,0,0,1,.7.8,11.7,11.7,0,0,0-1.21,4.6,7.48,7.48,0,0,1-1.11.37,1.48,1.48,0,0,1-1-.16,1.16,1.16,0,0,1-.51-.54.84.84,0,0,0-.66-.51c-.51,0-1,.77-1,1.7s.5,1.65,1,1.65a.74.74,0,0,0,.59-.36,1.24,1.24,0,0,1,.42-.37A1.61,1.61,0,0,1,417,324a10.5,10.5,0,0,1,1.2.42,11.63,11.63,0,0,0,1.18,4,12.08,12.08,0,0,1-.94,1.22,1.08,1.08,0,0,1-.68.29.89.89,0,0,1-.53-.13.6.6,0,0,0-.61-.06c-.32.2-.34.89,0,1.46s1,.83,1.28.63a.52.52,0,0,0,.22-.45,1.09,1.09,0,0,1,.12-.4,1.2,1.2,0,0,1,.62-.59,9.29,9.29,0,0,1,1.51-.32,12.17,12.17,0,0,0,3.07,3,7.77,7.77,0,0,1-.17,1.07,1.53,1.53,0,0,1-.59.81,1.24,1.24,0,0,1-.72.21.82.82,0,0,0-.75.35c-.24.46.2,1.28,1,1.71s1.7.31,1.94-.14a.75.75,0,0,0-.06-.69,1.48,1.48,0,0,1-.13-.55,1.6,1.6,0,0,1,.31-1.12,8,8,0,0,1,.77-.75,11.81,11.81,0,0,0,4.11,1.05,13.62,13.62,0,0,1,.82,1.7,1.12,1.12,0,0,1-.06.73.89.89,0,0,1-.36.41.59.59,0,0,0-.33.51c0,.38.63.72,1.3.66s1.18-.47,1.15-.84a.54.54,0,0,0-.3-.41,1,1,0,0,1-.3-.28,1.15,1.15,0,0,1-.24-.82,11.9,11.9,0,0,1,.48-1.7,12,12,0,0,0,3.95-1.14,11.93,11.93,0,0,1,1.07,1.06,1.56,1.56,0,0,1,.29,1,1.25,1.25,0,0,1-.26.7.83.83,0,0,0-.18.82c.22.46,1.15.6,2,.2s1.26-1.17,1-1.63a.71.71,0,0,0-.58-.37,1.41,1.41,0,0,1-.52-.22,1.65,1.65,0,0,1-.71-.93,12.32,12.32,0,0,1-.18-1.81,12.1,12.1,0,0,0,2.42-2.48,13.4,13.4,0,0,1,2,.12,1.06,1.06,0,0,1,.61.4.88.88,0,0,1,.18.52.59.59,0,0,0,.29.54c.34.16.93-.2,1.21-.82s.16-1.25-.18-1.41a.52.52,0,0,0-.5.07,1.1,1.1,0,0,1-.39.12,1.22,1.22,0,0,1-.84-.19,12.92,12.92,0,0,1-1.22-1.23,11.85,11.85,0,0,0,1.07-3.74,13.62,13.62,0,0,1,1.83-.62,1.48,1.48,0,0,1,1,.18,1.16,1.16,0,0,1,.5.55.79.79,0,0,0,.65.52c.51,0,1.06-.74,1.09-1.66S446.41,321.78,445.9,321.77Z"/><path class="cls-4" d="M439.35,329.31a2.21,2.21,0,0,0-2.74.73,5.31,5.31,0,0,1-4,1.95c-1.22,0-1.28-2.44-4.52-1.7s-2.68-1-3.05-1.84-.3-.85-2.26-1.4a2,2,0,0,1-1.47-2.07,2.42,2.42,0,0,1,.25-1.09c1.44-3.15-1.38-5.09-2-5.37,0,0-4.23,9.63,5.71,14.82C425.25,333.34,433.07,337.55,439.35,329.31Z"/><path class="cls-5" d="M428.72,314.2a2.89,2.89,0,0,1-4.89,2.78,2.84,2.84,0,0,1,4.89-2.78Z"/><path class="cls-5" d="M434.69,314.75a1.15,1.15,0,0,1-1.45.74,1.19,1.19,0,0,1-1.06-1.24,1.29,1.29,0,0,1,2.51.5Z"/><path class="cls-5" d="M434.17,324.15a.76.76,0,0,1-1.45-.29.75.75,0,0,1,1.45.29Z"/><path class="cls-5" d="M427.65,325.64a.76.76,0,0,1-1.44-.3.74.74,0,0,1,1.44.3Z"/><path class="cls-5" d="M423.64,319a.75.75,0,0,1-1.11,1,.74.74,0,0,1,1.11-1Z"/><circle class="cls-5" cx="428.55" cy="321.45" r="1.46"/><circle class="cls-5" cx="424.11" cy="323.36" r="1.03"/><path class="cls-4" d="M437.93,321.25a.54.54,0,0,1,.75,0,.54.54,0,0,1,.18.73.6.6,0,0,1-.93-.73Z"/><path class="cls-4" d="M437.74,316.45a.54.54,0,0,1-.14.74.54.54,0,0,1-.75,0,.59.59,0,0,1,.89-.77Z"/><circle class="cls-4" cx="437.29" cy="327.54" r="0.82"/><circle class="cls-4" cx="440.41" cy="323.47" r="0.82"/><path class="cls-3" d="M366.82,488a1.14,1.14,0,0,0-.9.53,2,2,0,0,1-.65.54,2.44,2.44,0,0,1-1.73.32,22.94,22.94,0,0,1-2.84-1.13,18.22,18.22,0,0,0-1.26-5.07,21.86,21.86,0,0,1,1.85-2.53,1.69,1.69,0,0,1,1-.44,1.35,1.35,0,0,1,.81.19.87.87,0,0,0,.91.08c.48-.3.51-1.33,0-2.2s-1.46-1.24-1.94-.93a.83.83,0,0,0-.33.68,1.26,1.26,0,0,1-.17.6,1.77,1.77,0,0,1-.92.91,22.86,22.86,0,0,1-2.82.58,17.64,17.64,0,0,0-4.2-4.46,18.23,18.23,0,0,1,.36-2.45,2.24,2.24,0,0,1,.91-1.21,1.81,1.81,0,0,1,1.09-.31,1.22,1.22,0,0,0,1.14-.52c.36-.68-.3-1.93-1.52-2.59s-2.56-.49-2.93.19a1.11,1.11,0,0,0,.07,1,1.94,1.94,0,0,1,.2.82,2.44,2.44,0,0,1-.49,1.69,16.73,16.73,0,0,1-1.7,1.57,18,18,0,0,0-6.1-1.75,15.63,15.63,0,0,1-.74-2,1.69,1.69,0,0,1,.19-1.09,1.28,1.28,0,0,1,.6-.57.89.89,0,0,0,.56-.73c0-.56-.84-1.15-1.86-1.17s-1.83.55-1.84,1.12a.81.81,0,0,0,.4.65,1.55,1.55,0,0,1,.41.47,1.79,1.79,0,0,1,.25,1.26,16.17,16.17,0,0,1-.76,2,17.92,17.92,0,0,0-6.42,1.56,11.1,11.1,0,0,1-1.09-.94,2.23,2.23,0,0,1-.56-1.4,1.83,1.83,0,0,1,.29-1.09,1.24,1.24,0,0,0,.15-1.25c-.4-.66-1.81-.74-3,0s-1.74,1.93-1.35,2.6a1.11,1.11,0,0,0,.93.47,2.14,2.14,0,0,1,.81.26,2.44,2.44,0,0,1,1.19,1.29,10.29,10.29,0,0,1,.32,1.36,18,18,0,0,0-5.23,5.13,10.35,10.35,0,0,1-1.54-.28,1.65,1.65,0,0,1-.87-.69,1.31,1.31,0,0,1-.2-.8.91.91,0,0,0-.36-.85c-.49-.28-1.42.18-1.93,1.06s-.41,1.87.08,2.15a.82.82,0,0,0,.76,0,1.59,1.59,0,0,1,.61-.13,1.83,1.83,0,0,1,1.23.39,10.45,10.45,0,0,1,1,1.21,18,18,0,0,0-1.82,6.94,14.75,14.75,0,0,1-1.67.56,2.28,2.28,0,0,1-1.49-.24,1.87,1.87,0,0,1-.78-.82,1.24,1.24,0,0,0-1-.77c-.78,0-1.57,1.16-1.59,2.56s.76,2.49,1.53,2.49a1.12,1.12,0,0,0,.89-.54,1.82,1.82,0,0,1,.64-.56,2.4,2.4,0,0,1,1.72-.36A16.17,16.17,0,0,1,325,492a17.94,17.94,0,0,0,1.77,6.06,15.56,15.56,0,0,1-1.42,1.85,1.58,1.58,0,0,1-1,.44,1.35,1.35,0,0,1-.8-.2.9.9,0,0,0-.91-.09c-.49.3-.52,1.34,0,2.21s1.45,1.24,1.93.94a.8.8,0,0,0,.34-.68,1.59,1.59,0,0,1,.17-.6,1.82,1.82,0,0,1,.93-.9,17.26,17.26,0,0,1,2.28-.47,18.34,18.34,0,0,0,4.63,4.46,12.2,12.2,0,0,1-.25,1.62,2.24,2.24,0,0,1-.9,1.22,1.78,1.78,0,0,1-1.08.32,1.21,1.21,0,0,0-1.13.53c-.37.68.31,1.93,1.54,2.58s2.56.46,2.93-.22a1.12,1.12,0,0,0-.09-1,2,2,0,0,1-.2-.83,2.38,2.38,0,0,1,.47-1.69,12.82,12.82,0,0,1,1.16-1.13,17.94,17.94,0,0,0,6.21,1.59,20.93,20.93,0,0,1,1.23,2.56,1.7,1.7,0,0,1-.08,1.1,1.38,1.38,0,0,1-.55.62.9.9,0,0,0-.5.77c0,.57.95,1.08,2,1s1.77-.71,1.72-1.28a.79.79,0,0,0-.45-.61,1.42,1.42,0,0,1-.45-.43,1.75,1.75,0,0,1-.37-1.24,19.12,19.12,0,0,1,.73-2.55,17.93,17.93,0,0,0,6-1.73,16.06,16.06,0,0,1,1.61,1.61,2.26,2.26,0,0,1,.44,1.45,1.93,1.93,0,0,1-.39,1.05,1.21,1.21,0,0,0-.26,1.23c.33.7,1.73.91,3,.31s1.91-1.76,1.58-2.47a1.12,1.12,0,0,0-.88-.55,2.29,2.29,0,0,1-.79-.33,2.48,2.48,0,0,1-1.07-1.4,20.32,20.32,0,0,1-.27-2.74,18,18,0,0,0,3.65-3.74,20.87,20.87,0,0,1,2.95.18,1.63,1.63,0,0,1,.93.61,1.29,1.29,0,0,1,.27.78.9.9,0,0,0,.43.81c.52.24,1.4-.3,1.83-1.22s.25-1.9-.26-2.14a.85.85,0,0,0-.76.1,1.4,1.4,0,0,1-.6.18,1.77,1.77,0,0,1-1.26-.28,20.33,20.33,0,0,1-1.84-1.86,17.55,17.55,0,0,0,1.61-5.64,20.16,20.16,0,0,1,2.77-.94,2.29,2.29,0,0,1,1.49.28,1.8,1.8,0,0,1,.76.83,1.21,1.21,0,0,0,1,.79c.78,0,1.6-1.12,1.65-2.52S367.59,488,366.82,488Z"/><path class="cls-4" d="M356.94,499.38s-2-1.2-4.14,1.1a8,8,0,0,1-6.08,2.95c-1.84,0-1.93-3.68-6.81-2.58s-4.06-1.56-4.61-2.76-.46-1.29-3.4-2.12a3,3,0,0,1-2.23-3.12,3.8,3.8,0,0,1,.38-1.65c2.17-4.75-2.09-7.68-3-8.09,0,0-6.39,14.52,8.62,22.35C335.67,505.46,347.46,511.81,356.94,499.38Z"/><path class="cls-5" d="M340.9,476.59c.91,1.6,0,3.84-2,5s-4.43.79-5.34-.81a4.28,4.28,0,0,1,7.38-4.19Z"/><path class="cls-5" d="M349.91,477.41a2,2,0,0,1-3.78-.75,1.94,1.94,0,0,1,3.78.75Z"/><path class="cls-5" d="M349.12,491.59a1,1,0,0,1-1.26.64,1,1,0,0,1-.92-1.07,1.08,1.08,0,0,1,1.28-.74A1.09,1.09,0,0,1,349.12,491.59Z"/><path class="cls-5" d="M339.28,493.85a1.14,1.14,0,0,1-2.17-.46,1.12,1.12,0,0,1,2.17.46Z"/><path class="cls-5" d="M333.24,483.86a1.14,1.14,0,0,1-1.68,1.44,1.12,1.12,0,0,1,1.68-1.44Z"/><circle class="cls-5" cx="340.65" cy="487.52" r="2.2"/><circle class="cls-5" cx="333.95" cy="490.4" r="1.55"/><path class="cls-4" d="M354.8,487.22a.91.91,0,0,1,1.39,1.1.86.86,0,0,1-1.18.06A.87.87,0,0,1,354.8,487.22Z"/><path class="cls-4" d="M354.51,480a.92.92,0,0,1-1.35,1.16.87.87,0,0,1,.17-1.17A.86.86,0,0,1,354.51,480Z"/><circle class="cls-4" cx="353.83" cy="496.71" r="1.24"/><circle class="cls-4" cx="358.54" cy="490.57" r="1.24"/><path class="cls-3" d="M381.19,365a.59.59,0,0,0-.49.29,1.18,1.18,0,0,1-.36.3,1.31,1.31,0,0,1-.94.17,11.85,11.85,0,0,1-1.56-.62,9.88,9.88,0,0,0-.69-2.77,12.64,12.64,0,0,1,1-1.39.93.93,0,0,1,.56-.24.71.71,0,0,1,.44.11.51.51,0,0,0,.5,0c.26-.16.28-.73,0-1.21s-.8-.67-1.06-.51a.46.46,0,0,0-.18.38.78.78,0,0,1-.09.33,1,1,0,0,1-.51.49,11.55,11.55,0,0,1-1.54.32,9.71,9.71,0,0,0-2.3-2.44,9.48,9.48,0,0,1,.2-1.34,1.21,1.21,0,0,1,.49-.66,1,1,0,0,1,.6-.17.66.66,0,0,0,.62-.29c.2-.37-.16-1.05-.83-1.42s-1.4-.27-1.6.11a.59.59,0,0,0,0,.57,1.15,1.15,0,0,1,.11.45,1.33,1.33,0,0,1-.27.92,8.39,8.39,0,0,1-.93.86,9.91,9.91,0,0,0-3.34-1,7,7,0,0,1-.4-1.11.85.85,0,0,1,.1-.6.74.74,0,0,1,.32-.31.49.49,0,0,0,.31-.4c0-.31-.46-.63-1-.64s-1,.3-1,.61a.45.45,0,0,0,.21.36.69.69,0,0,1,.23.25,1,1,0,0,1,.14.7,8.71,8.71,0,0,1-.42,1.11,9.79,9.79,0,0,0-3.51.86,6.23,6.23,0,0,1-.6-.52,1.28,1.28,0,0,1-.31-.77,1,1,0,0,1,.16-.59.68.68,0,0,0,.08-.69c-.21-.36-1-.4-1.64,0s-1,1.06-.74,1.43a.61.61,0,0,0,.51.26,1.19,1.19,0,0,1,.44.14,1.27,1.27,0,0,1,.65.71,4.88,4.88,0,0,1,.17.74,9.91,9.91,0,0,0-2.85,2.81,6.48,6.48,0,0,1-.85-.15.91.91,0,0,1-.47-.38.77.77,0,0,1-.12-.44.46.46,0,0,0-.19-.46c-.27-.16-.78.09-1.06.58s-.22,1,.05,1.17a.41.41,0,0,0,.41,0,1.28,1.28,0,0,1,.34-.07,1,1,0,0,1,.67.22,6.47,6.47,0,0,1,.57.66,9.67,9.67,0,0,0-1,3.8,6,6,0,0,1-.92.3,1.21,1.21,0,0,1-.81-.13,1,1,0,0,1-.43-.45.71.71,0,0,0-.54-.42c-.43,0-.86.64-.87,1.4s.41,1.37.84,1.37a.6.6,0,0,0,.48-.3,1.15,1.15,0,0,1,.35-.31,1.36,1.36,0,0,1,.94-.19,6.8,6.8,0,0,1,1,.35,9.76,9.76,0,0,0,1,3.31,9.89,9.89,0,0,1-.77,1,.88.88,0,0,1-.56.23.68.68,0,0,1-.44-.11.48.48,0,0,0-.5,0c-.27.16-.29.73,0,1.2s.79.68,1.05.52a.4.4,0,0,0,.18-.37.91.91,0,0,1,.1-.33.94.94,0,0,1,.51-.49,9.57,9.57,0,0,1,1.25-.26,10,10,0,0,0,2.53,2.44,6.19,6.19,0,0,1-.13.89,1.22,1.22,0,0,1-.5.66,1,1,0,0,1-.59.18.66.66,0,0,0-.62.29c-.2.37.17,1.06.85,1.41s1.4.26,1.6-.12a.62.62,0,0,0-.05-.57,1.15,1.15,0,0,1-.11-.45,1.31,1.31,0,0,1,.26-.93,7.66,7.66,0,0,1,.63-.61,9.68,9.68,0,0,0,3.4.86,12.38,12.38,0,0,1,.67,1.4.9.9,0,0,1,0,.61.76.76,0,0,1-.3.34c-.18.12-.29.27-.27.42,0,.31.51.59,1.07.55s1-.39.95-.7a.46.46,0,0,0-.25-.34.78.78,0,0,1-.25-.23,1,1,0,0,1-.2-.68,11.14,11.14,0,0,1,.4-1.4,9.46,9.46,0,0,0,3.26-1,9.2,9.2,0,0,1,.89.89,1.19,1.19,0,0,1,.23.79,1,1,0,0,1-.21.58.67.67,0,0,0-.14.67c.18.38.94.5,1.64.17s1-1,.86-1.35a.6.6,0,0,0-.48-.31,1,1,0,0,1-.43-.18,1.33,1.33,0,0,1-.59-.76A11.94,11.94,0,0,1,374,374a9.48,9.48,0,0,0,2-2,10.36,10.36,0,0,1,1.62.1,1,1,0,0,1,.51.33.83.83,0,0,1,.15.43.5.5,0,0,0,.23.45c.28.13.77-.17,1-.68s.14-1-.14-1.16a.43.43,0,0,0-.42.05.75.75,0,0,1-.33.1.94.94,0,0,1-.68-.16,9.58,9.58,0,0,1-1-1,9.81,9.81,0,0,0,.88-3.09,10.78,10.78,0,0,1,1.52-.51,1.21,1.21,0,0,1,.81.15,1,1,0,0,1,.42.45c.13.26.31.43.53.43.42,0,.87-.61.9-1.37S381.61,365,381.19,365Z"/><path class="cls-4" d="M375.78,371.26a1.82,1.82,0,0,0-2.27.6,4.39,4.39,0,0,1-3.32,1.62c-1,0-1.06-2-3.73-1.41s-2.22-.86-2.52-1.52-.25-.7-1.87-1.16a1.65,1.65,0,0,1-1.22-1.71,2.2,2.2,0,0,1,.21-.9,3.39,3.39,0,0,0-1.64-4.43s-3.5,7.95,4.72,12.24C364.14,374.59,370.59,378.06,375.78,371.26Z"/><path class="cls-5" d="M367,358.78a2.39,2.39,0,0,1-4,2.3,2.35,2.35,0,0,1,4-2.3Z"/><path class="cls-5" d="M371.94,359.23a1.09,1.09,0,0,1-2.08-.41,1.07,1.07,0,0,1,2.08.41Z"/><path class="cls-5" d="M371.5,367a.57.57,0,0,1-.69.35.56.56,0,0,1-.5-.59.61.61,0,0,1,1.19.24Z"/><path class="cls-5" d="M366.12,368.23a.56.56,0,0,1-.7.34.54.54,0,0,1-.49-.59.58.58,0,0,1,.7-.39A.6.6,0,0,1,366.12,368.23Z"/><path class="cls-5" d="M362.81,362.76a.56.56,0,0,1-.15.76.55.55,0,0,1-.77,0,.59.59,0,0,1,.11-.8A.61.61,0,0,1,362.81,362.76Z"/><circle class="cls-5" cx="366.86" cy="364.77" r="1.2"/><circle class="cls-5" cx="363.2" cy="366.34" r="0.85"/><path class="cls-4" d="M374.61,364.61a.45.45,0,0,1,.62,0,.45.45,0,0,1,.14.61.49.49,0,0,1-.76-.6Z"/><path class="cls-4" d="M374.45,360.64a.49.49,0,0,1-.73.63.47.47,0,0,1,.09-.64A.47.47,0,0,1,374.45,360.64Z"/><circle class="cls-4" cx="374.08" cy="369.8" r="0.68"/><circle class="cls-4" cx="376.66" cy="366.44" r="0.68"/><circle class="cls-6" cx="196.5" cy="407.5" r="100"/><circle class="cls-6" cx="292" cy="657" r="100.5"/><circle class="cls-6" cx="588" cy="677" r="102.5"/><circle class="cls-6" cx="707.5" cy="442" r="100.5"/><circle class="cls-6" cx="328.5" cy="189" r="100.5"/><circle class="cls-6" cx="616.5" cy="201" r="99.5"/><g class="cls-7"><path class="cls-8" d="M278.8,678.66s1.08,17.61-1.43,25.16-4.68,7.91-33.8,21.94c0,0,36.67,26.6,47.46,24.8,0,0,10.59,3.49,27.13-6.93l23.92-17.16s-32.18-12-34.33-21-2.16-26.24-2.16-26.24Z"/><path class="cls-9" d="M280.06,688.54s-1.08,16.9-3.59,19.06l-.72,1.08a13.16,13.16,0,0,0,1.25,1.41,18,18,0,0,0,22.74,2.21c2.65-1.75,5.51-4.23,6.57-7.22a149.7,149.7,0,0,1-1.44-16.54l-.36-5.39-24.14-.59Z"/><path class="cls-10" d="M257.41,587.16s-13.48,14.56-18.51,24.63-5.93,11-5.93,13.84,3.59,9.71,9.34,15.82a24.64,24.64,0,0,0,5.22,4.26l2.69,2.57s-5,0-7.19,4.31,3.24,7.91,6.47,10.43c0,0-7.19,4-6.11,15.1s17.26,12.94,23.37,10.42a10.28,10.28,0,0,0-.81,3.66c0,3.65,2.95,6.23,6.56,6.77a15.28,15.28,0,0,0,5.4.36A47.71,47.71,0,0,0,279,688.9v-8.62S261,667.33,258.13,645c0,0-5.39-31.63,4.68-48.89Z"/><path class="cls-11" d="M251.31,597.56s-11.33,18.9-12.77,22.5-2.52,5-.36,10.06c0,0,3.95,7.55,5,8.63,0,0,6.47-21.93,7.55-32S251.31,597.56,251.31,597.56Z"/><path class="cls-10" d="M257.06,587.9l-7.38,12.38s1.44,13-7.19,36.67c0,0,3.6,5.76,5,8.63a21.38,21.38,0,0,1,2.87,2.88,3.86,3.86,0,0,0-2.51,1.08s12.22,10.42,17.25,18.69,9.27,16.36,10,31.37l2.74-.27s1.79-6,1.07-18.62c0,0-17.1-12.53-19.7-27a139.9,139.9,0,0,1-3.92-28c-.46-14.88,4.21-26.75,5.65-29.62Z"/><g class="cls-12"><rect class="cls-13" x="246.99" y="657.52" width="14.38" height="1.18"/><rect class="cls-13" x="246.99" y="642.49" width="14.38" height="15.03"/><rect class="cls-14" x="246.99" y="627.47" width="14.38" height="15.03"/><rect class="cls-14" x="246.99" y="625.27" width="14.38" height="2.2"/></g><path class="cls-15" d="M261.37,595.79s-7.91,17.26-5.76,32.36c0,0,1.08,25.52,7.55,34.87s15.46,20.85,28,23.37c0,0,5,1.44,15.82-6.47s18-23.73,18-23.73,3.24-7.91-.72-20.49C324.28,635.7,343.34,563.43,261.37,595.79Z"/><path class="cls-16" d="M305.47,681s.12,11.48.84,16.15c0,0,6.47,2.52,12.94-5,0,0,12.94,10.43,22.65-6.11a16.41,16.41,0,0,0-1.44-13.3l-.36-.72s2.88,1.08,4-1.44c0,0,.72-2.52-3.24-3.24,0,0,6.83-2.87,6.11-8.63s-10.26-7.25-10.26-7.25-9.15,9.77-14.54,11.93a1.11,1.11,0,0,0-.72.36C321.05,664.1,314.34,676.37,305.47,681Z"/><path class="cls-9" d="M247.73,638.74c0,2.72-.76,5.16.29,8.71a19.65,19.65,0,0,0,2.21,4.78s4.72,5,6.85,5.21,2.85-.37,2.85-.37a2.85,2.85,0,0,0,.84-1.41l-1.24-3.81s-5,3.26-8.23-1.77-2.52-10.79-2.52-13,1.44-9,4-9.34c0,0-3-1-4,4Z"/><path class="cls-17" d="M250.94,634.62s-3.59-2.52-2.52,11.14a12.71,12.71,0,0,0,5,8.86c4.7,3.37,6.19.67,6.19.67s-5.44-4.49-5.08-8.45,2.87-2.52.72-6.47A20.91,20.91,0,0,0,250.94,634.62Z"/><path class="cls-18" d="M256.87,587.7s-11,12.14-12.67,15.24c0,0-4.58,6-10.34,18.55a7.27,7.27,0,0,0-.72,5.76s1.08,5.39,7.62,12.83c0,0,5.16,5.78,7.22,5.82,0,0-4.4-6.62-7.37-11.83s-5.13-8.12-2.43-13.13c0,0,8-15.71,13.62-24.2S256.87,587.7,256.87,587.7Z"/><path class="cls-19" d="M245,651.33s11.86,9,17.62,18,7,16.36,7.56,28.34c0,.06,1.78,1.86,5.38,1.86,0,0,1.65-15.23-12.19-34.57a41.79,41.79,0,0,0-3.5-4.25c-3.47-3.69-11.24-11.79-12.35-11.51C247.53,649.18,245.37,649.9,245,651.33Z"/><path class="cls-20" d="M248.78,648.64s-4.31,2.16-4.31,6.11,6.83,7.91,6.83,7.91-9.65,6.25-5.49,17.48a12.2,12.2,0,0,0,7.91,7.51c3.46,1,8.59,1.5,15.56-.54,0,0-5.23,11.59,6.37,12.44,0,0-12.84.86-9.25-10.65,0,0-12.3,5.71-21.43-5.59,0,0-5-7.14.65-16.77,0,0,2.09-2.8,3.88-3.52,0,0-4.82-3.17-6-5.54a4.76,4.76,0,0,1,.09-5.82S245.91,648.64,248.78,648.64Z"/><g class="cls-21"><rect class="cls-13" x="255" y="624.55" width="73.06" height="29.3"/><rect class="cls-14" x="255" y="595.25" width="73.06" height="29.3"/></g><path class="cls-22" d="M268.56,620.6s10.42-6.84,15.1-8.27c0,0,1.08,3.59-4.32,5.75A39.79,39.79,0,0,1,268.56,620.6Z"/><path class="cls-22" d="M314.94,619.88l-13.22-7.55s-1.08,3.95,4.32,6.11S314.94,619.88,314.94,619.88Z"/><path class="cls-10" d="M313.14,694.66c-.32.16,2.51-19.06,11.86-28.41s17.09-13.07,17.09-13.07,6.64,5.52.17,11.28a22.36,22.36,0,0,1-3.24,2.15s3.6,1.08,2.52,4a2.57,2.57,0,0,1-2.88,1.08s6.83,12.58-5,20.85c0,0-6.47,4-14.74-2.52A23.87,23.87,0,0,1,313.14,694.66Z"/><path class="cls-23" d="M308.32,696.52s-1.21.15-2.06.31c0,0-.85-9.18-.85-15.66,0,0,8.12-4.92,12-12,0,0-6.4,15.05-7.12,19.72S310.33,695.87,308.32,696.52Z"/><path class="cls-24" d="M307.57,696.63s3.59-.36,5.39-2.15c0,0,3.09-14.13,5.68-18.75,0,0,4.27-9.2,12.42-15,0,0,7.78-6.52,11-7.6,0,0-4.86-2.09-5.66-1.4s-7.12,9.1-14.57,11.72C321.85,663.45,309.72,674.7,307.57,696.63Z"/><path class="cls-25" d="M257.59,589c9.36,22,24.63,30.15,24.63,30.15a50.39,50.39,0,0,1-5-9.35s-.36,0,12.94,9.35S324.5,636.4,324.5,636.4l1.56,7.73c1.77,12-5.94,20.87-5.94,20.87s16.39-6.3,23.58-26.79,7.19-27.32,4.31-36.67-26.6-31.64-34.87-37.39-16.9-1.44-16.9-1.44c-12.86,2.31-35.7,16.42-40.23,19.57a1.65,1.65,0,0,0-.64,1.81,15.71,15.71,0,0,0,.6,1.63l1.24,2.48C257.35,588.47,257.47,588.74,257.59,589Z"/><path class="cls-26" d="M256.51,584.46s14.81,22.31,48.39,33.45c0,0,16,5,23.88,5a178.11,178.11,0,0,1,3.59,19.42s0,5,14.74-14.74c0,0,6.72-19.33-2-31.6s-26.37-28.08-31.94-31.86-14-3.16-20.22-.59-35.69,17.31-36.41,19.83Z"/><path class="cls-11" d="M263.14,578s23.21,26.92,57,37a35.56,35.56,0,0,1-7.55-9.34s17.71,11.22,36.9,2.19c0,0,.49-7.75-7.42-16.58s-23.73-23.24-27.86-26.36-10.25-4.55-17.44-2.4S284.92,565.77,263.14,578Z"/><path class="cls-27" d="M256.28,582.09S275,568.27,297.5,561.81c0,0,8.27-2.51,14.66,1.71,0,0,5.83,2.61,22.4,20,0,0-12.79-10.75-16.75-9.67,0,0,20.49,19.77,12.94,25.52s-36.31-15.46-42.06-23.72a53.09,53.09,0,0,1-3.23-5.76s-15.65,4.76-27.42,12.63a1.47,1.47,0,0,0-.53,1.79c2.1,4.94,11.09,24.94,22.55,32.32l.9.64,1.26,1.88s-13.83-7.84-22.55-25.67l-4.11-8.82A2,2,0,0,1,256.28,582.09Z"/><path class="cls-28" d="M285.22,615.7s25,13.37,39.65,17.31c0,0,.67,0,1.39,5.38s1.08,15.46-2.52,22.65c0,0,12.95-7.21,19.33-21.13,0,0-6.38,18.61-21.66,23.83,0,0,6.47-8.63,4.67-19.78l-1.44-7.55S297.58,626.62,285.22,615.7Z"/><path class="cls-22" d="M258.13,633.54c.36,0,3.6,1.8,6.11.72s9-3.24,9.71-2.88a45,45,0,0,1,7.91,6.83s-7.19-3.23-12.94-.36c0,0-3.24,1.08-5.76-.36A29.06,29.06,0,0,1,258.13,633.54Z"/><path class="cls-22" d="M326.08,633.54c-.36,0-3.59,1.8-6.11.72s-9-3.24-9.71-2.88a45,45,0,0,0-7.91,6.83s7.19-3.23,12.95-.36c0,0,3.23,1.08,5.75-.36A29.06,29.06,0,0,0,326.08,633.54Z"/><path class="cls-29" d="M265.32,632.46a41,41,0,0,1,5.75-2.16c1.8-.36,3.24-1.08,4.32-.36s2.52,1.44,2.87,1.8l2.52,2.52a15.3,15.3,0,0,0-3.59-4l-.56-.47a3.55,3.55,0,0,0-2.68-.89C270,629.22,265.32,632.46,265.32,632.46Z"/><path class="cls-29" d="M318.93,631.59a40.61,40.61,0,0,0-5.88-1.77c-1.82-.24-3.3-.87-4.33-.08s-2.41,1.6-2.75,2l-2.35,2.68a15.38,15.38,0,0,1,3.32-4.27l.53-.5a3.49,3.49,0,0,1,2.62-1.06C314.06,628.67,318.93,631.59,318.93,631.59Z"/><path class="cls-9" d="M298,652.23c0,4.27-4,5.4-9.35,4-2.59-.69-2.88-4-2.52-7.19.34-3,2.36-9.35,5-9.35S298,648,298,652.23Z"/><path class="cls-30" d="M287.43,636.23s2.77,9,1.19,17.62C288.62,653.85,295.72,646.3,287.43,636.23Z"/><path class="cls-31" d="M290.49,661.58s-7.55,4-8.27,11.51a5.75,5.75,0,0,0,5.21,4.13S288.33,667.69,290.49,661.58Z"/><path class="cls-31" d="M295.7,660.68s9,4,8.18,9.5a3.38,3.38,0,0,1,0,.45,6.4,6.4,0,0,1-4.83,5S301.63,667.33,295.7,660.68Z"/><path class="cls-32" d="M288.69,664.82s-2.16,5-1.44,6.83,12.95-.36,12.95-.36,0-7.19-1.44-7.91S288.69,664.82,288.69,664.82Z"/><path class="cls-33" d="M285.35,665.9s3.7-4.68,8.37-5a8,8,0,0,1,6.83,3.24S295.32,667.34,285.35,665.9Z"/><path class="cls-34" d="M282.94,674.16s2.87-5,7.55-3.95a5.57,5.57,0,0,1,2.16,1.08,6.62,6.62,0,0,1,5-1.8,8.37,8.37,0,0,1,4.88,3s-2,6.39-12.07,4.95C290.49,677.4,285.46,676.68,282.94,674.16Z"/><path class="cls-35" d="M282.76,669.67s2.95-6,6.29-8.81c4.31-3.59,9-2.83,12.22,1.44,1.08,1.44,2.7,4.85,2.7,6.29,0,0-6.29-11.68-14.92-5.57A21.33,21.33,0,0,0,282.76,669.67Z"/><path class="cls-36" d="M282.94,669.85s-2.16,3.95,3.23,5.75c0,0,9.07,3.13,15.54-2.27a4.72,4.72,0,0,0,.66-.68,8.25,8.25,0,0,0,1.78-3.88s.72,9.71-11.86,10.43c0,0-6.48.27-9.38-3.63a4.66,4.66,0,0,1-.17-5.45Z"/><path class="cls-9" d="M276.11,651c0,4.66-2.56,8.44-6.83,8.44s-7.45-3.93-8.63-8.44c-1.08-4.14-2.52-10.61,7.73-8.45C272.56,643.41,276.11,646.31,276.11,651Z"/><path class="cls-9" d="M310.26,651.51c1.23,5,7,8.93,11.15,7.91s4.38-6,4.32-11.06c-.05-4.66-.06-11.65-9.36-6.91C312.58,643.38,309,646.55,310.26,651.51Z"/><path class="cls-37" d="M262.71,660.18s15.37,24.23,29.4,23.87c12.85-.33,26.61-17.88,29.64-23.29a22,22,0,0,1,1.3-2.08,21.2,21.2,0,0,0,3.21-8.06s0,14.74-23.12,31.91c0,0-6.72,4.76-11.93,3.7-4.63-.93-12-2.91-20.46-13.87C270.75,672.36,265,665.42,262.71,660.18Z"/><path class="cls-17" d="M279.76,681.31l-.06,9s8.27,11.87,16.18,6.11,9-9.34,9-9.34v-6.47S294.8,688.9,284,683.15l-4.43-2.51Z"/><path class="cls-38" d="M279,679.92l1.4,1.66s0,23.5-3.55,27.1-28.41,17.25-28.41,17.25,21.5,18.43,34.84,23.24c0,0-30.88-15.69-39.87-23.59,0,0,28.27-12.62,31.07-16.61.21-.3.4-.61.6-.91C276.35,706.15,280.48,698.81,279,679.92Z"/><path class="cls-38" d="M305.55,680.64l-1.39,1.66s-.05,23.5,3.55,27.1,28.4,17.25,28.4,17.25-21.5,18.43-34.84,23.24c0,0,33.17-15.56,40.59-23.24,0,0-27.91-12.36-30.7-16.35-.21-.3-2.2-1.94-2.41-2.24C307.46,706.15,305.41,699.51,305.55,680.64Z"/><path class="cls-39" d="M242.49,725.4s-19.05,7.55-25.16,15.46S209.06,761,209.06,761H374.44s-3.24-16.54-9.71-22.65-21.21-12.94-21.21-12.94-36.13,26.06-52.31,25.34c0,0-4.52.9-17.36-5.84S242.49,725.4,242.49,725.4Z"/><path class="cls-40" d="M230.63,732.23s-4.12,18.33,10.88,28.58L346.3,761s9.8-9.71,6.21-28.76l-9.35-5s-34,23.91-50.15,24.63S242,727.37,242,727.37Z"/><path class="cls-41" d="M209.24,760.81s3.56-16.88,9.33-21.38a95.33,95.33,0,0,1,24.1-14.21S263.11,738.53,276,745.5a34.7,34.7,0,0,0,27.08,2.73c.89-.29,1.79-.62,2.7-1,0,0,24-11.74,37.94-22,0,0,19.7,9.77,22.79,15.13s8.13,20.46,8.13,20.46-4.68-16.9-14.38-23a154.66,154.66,0,0,0-16.9-9.35s-36.67,25.89-52.13,25.17-50.34-25.17-50.34-25.17-19.41,8.63-23,14.74-7.2,17.62-7.2,17.62Z"/></g><g class="cls-42"><path class="cls-10" d="M671,371.67s-13.47,14.55-18.5,24.62-5.93,11-5.93,13.83,3.59,9.7,9.34,15.81a24.58,24.58,0,0,0,5.22,4.27l2.69,2.56s-5,0-7.19,4.31,3.23,7.91,6.47,10.42c0,0-7.19,4-6.11,15.1s17.25,12.94,23.36,10.42a10.2,10.2,0,0,0-.81,3.65c0,3.65,3,6.23,6.56,6.77a15.24,15.24,0,0,0,5.39.36,47.25,47.25,0,0,0,1.08-10.42v-8.63s-18-12.93-20.85-35.21c0,0-5.39-31.63,4.67-48.88Z"/><path class="cls-11" d="M664.88,382.07S653.56,401,652.12,404.55s-2.52,5-.36,10.06c0,0,4,7.55,5,8.63,0,0,6.47-21.92,7.55-32S664.88,382.07,664.88,382.07Z"/><path class="cls-43" d="M662,420.9a2.26,2.26,0,0,1,3.23-.36c1.8,1.44,4.68,5,3.6,7.55-.71,1.65-1.44,2.51-1.08,4.31s4,4.31,4,4.31-4-3.95-3.23-6.11,2.16-3.23,1.08-5.39a16.82,16.82,0,0,0-4.08-5.33,2.19,2.19,0,0,0-3.45,1Z"/><path class="cls-18" d="M670.45,372.21s-11,12.14-12.67,15.23c0,0-4.58,6-10.33,18.55a7.2,7.2,0,0,0-.72,5.75s1.08,5.39,7.61,12.82c0,0,5.16,5.79,7.22,5.83,0,0-4.41-6.63-7.37-11.83s-5.13-8.12-2.43-13.13c0,0,8-15.7,13.61-24.19S670.45,372.21,670.45,372.21Z"/><path class="cls-8" d="M692.37,463.13s1.07,17.61-1.44,25.15-4.67,7.91-33.78,21.92c0,0,36.65,26.6,47.43,24.8,0,0,7.91,1.8,24.44-8.62l26.59-15.46s-32.16-12-34.31-21-2.16-26.23-2.16-26.23Z"/><path class="cls-9" d="M693.62,473s-1.07,16.89-3.59,19.05l-.72,1.07a14,14,0,0,0,1.25,1.42,18,18,0,0,0,22.73,2.2c2.65-1.75,5.51-4.22,6.57-7.21A149.69,149.69,0,0,1,718.42,473l-.36-5.39-24.12-.6Z"/><path class="cls-10" d="M670.64,372.41l-7.38,12.38s1.44,12.93-7.19,36.65c0,0,3.59,5.75,5,8.63a21.16,21.16,0,0,1,2.88,2.87,3.9,3.9,0,0,0-2.52,1.08s12.22,10.42,17.25,18.69,9.27,16.34,10,31.35l2.74-.27s1.79-6,1.08-18.61c0,0-17.1-12.53-19.69-27a139.3,139.3,0,0,1-3.93-27.95c-.46-14.87,4.21-26.73,5.65-29.61Z"/><g class="cls-44"><rect class="cls-13" x="660.56" y="442" width="14.37" height="1.18"/><rect class="cls-13" x="660.56" y="426.98" width="14.37" height="15.02"/><rect class="cls-14" x="660.56" y="411.96" width="14.37" height="15.02"/><rect class="cls-14" x="660.56" y="409.76" width="14.37" height="2.2"/></g><path class="cls-15" d="M674.94,380.29s-7.91,17.25-5.75,32.35c0,0,1.08,25.51,7.54,34.85s15.46,20.85,28,23.36c0,0,5,1.44,15.82-6.46s18-23.72,18-23.72,3.24-7.91-.71-20.49C737.83,420.18,756.87,348,674.94,380.29Z"/><path class="cls-16" d="M719,465.49s.12,11.47.84,16.14c0,0,6.47,2.52,12.93-5,0,0,12.94,10.42,22.64-6.11A16.4,16.4,0,0,0,754,457.2l-.36-.72s2.87,1.08,4-1.44c0,0,.72-2.51-3.23-3.23,0,0,6.82-2.88,6.11-8.63s-10.26-7.25-10.26-7.25-9.15,9.77-14.54,11.92a1.11,1.11,0,0,0-.72.36C734.59,448.57,727.89,460.84,719,465.49Z"/><path class="cls-9" d="M661.31,423.22c0,2.72-.77,5.16.28,8.72a20.17,20.17,0,0,0,2.21,4.77s4.72,5,6.85,5.21,2.86-.37,2.86-.37a2.94,2.94,0,0,0,.84-1.41l-1.25-3.81s-5,3.26-8.22-1.77-2.52-10.78-2.52-12.94,1.44-9,3.95-9.34c0,0-3-1-4,4Z"/><path class="cls-17" d="M664.52,419.11s-3.6-2.52-2.52,11.14a12.65,12.65,0,0,0,5,8.85c4.69,3.36,6.18.67,6.18.67s-5.44-4.49-5.08-8.45,2.87-2.51.72-6.46A21,21,0,0,0,664.52,419.11Z"/><path class="cls-19" d="M658.59,435.82s11.86,9,17.61,18,7,16.35,7.55,28.33c0,.06,1.79,1.86,5.38,1.86,0,0,1.66-15.22-12.18-34.55a40.73,40.73,0,0,0-3.5-4.25c-3.47-3.69-11.24-11.79-12.35-11.51C661.1,433.66,659,434.38,658.59,435.82Z"/><path class="cls-20" d="M662.36,433.12s-4.31,2.16-4.31,6.11,6.83,7.91,6.83,7.91-9.66,6.24-5.5,17.47a12.22,12.22,0,0,0,7.92,7.51c3.46,1,8.58,1.49,15.54-.55,0,0-5.23,11.59,6.37,12.44,0,0-12.84.86-9.24-10.64,0,0-12.3,5.7-21.42-5.6,0,0-5-7.13.65-16.76,0,0,2.08-2.8,3.88-3.52,0,0-4.83-3.17-6-5.53a4.75,4.75,0,0,1,.09-5.81S659.48,433.12,662.36,433.12Z"/><g class="cls-45"><rect class="cls-13" x="668.57" y="409.04" width="73.03" height="29.29"/><rect class="cls-14" x="668.57" y="379.75" width="73.03" height="29.29"/></g><path class="cls-22" d="M682.12,405.09s10.43-6.83,15.1-8.27c0,0,1.08,3.6-4.31,5.75A39.82,39.82,0,0,1,682.12,405.09Z"/><path class="cls-22" d="M728.48,404.37l-13.21-7.55s-1.07,4,4.32,6.11S728.48,404.37,728.48,404.37Z"/><path class="cls-10" d="M726.69,479.12c-.33.16,2.51-19.05,11.85-28.39s17.09-13.07,17.09-13.07,6.63,5.52.16,11.27a22.6,22.6,0,0,1-3.23,2.16s3.59,1.08,2.52,4a2.57,2.57,0,0,1-2.88,1.08s6.83,12.58-5,20.84c0,0-6.47,4-14.73-2.51A23.94,23.94,0,0,1,726.69,479.12Z"/><path class="cls-23" d="M721.87,481s-1.21.15-2.06.31c0,0-.85-9.18-.85-15.65,0,0,8.12-4.92,12-12,0,0-6.4,15-7.12,19.71S723.88,480.33,721.87,481Z"/><path class="cls-24" d="M721.12,481.1s3.59-.36,5.39-2.16c0,0,3.08-14.13,5.67-18.74,0,0,4.27-9.2,12.42-15,0,0,7.78-6.52,11-7.6,0,0-4.85-2.09-5.66-1.4s-7.11,9.09-14.56,11.72C735.39,447.93,723.27,459.17,721.12,481.1Z"/><path class="cls-25" d="M671.16,373.52c9.36,22,24.62,30.13,24.62,30.13a50.8,50.8,0,0,1-5-9.34s-.36,0,12.94,9.34S738,420.89,738,420.89l1.56,7.73c1.77,12-5.94,20.85-5.94,20.85s16.38-6.29,23.57-26.77,7.19-27.31,4.31-36.66S735,354.42,726.69,348.67s-16.89-1.44-16.89-1.44c-12.86,2.31-35.69,16.41-40.21,19.56a1.62,1.62,0,0,0-.64,1.81,12.09,12.09,0,0,0,.6,1.63l1.24,2.48C670.92,373,671,373.25,671.16,373.52Z"/><path class="cls-26" d="M670.09,369s14.8,22.3,48.36,33.43c0,0,16,5,23.87,5a177.79,177.79,0,0,1,3.59,19.4s0,5,14.74-14.73c0,0,6.71-19.32-2-31.58s-26.35-28.08-31.92-31.85-14-3.16-20.21-.59-35.68,17.3-36.39,19.82Z"/><path class="cls-11" d="M676.71,362.55s23.2,26.91,57,37a35.41,35.41,0,0,1-7.54-9.34s17.7,11.22,36.88,2.19c0,0,.49-7.75-7.42-16.57s-23.71-23.24-27.85-26.35-10.24-4.55-17.43-2.4S698.48,350.29,676.71,362.55Z"/><path class="cls-27" d="M669.85,366.6s18.73-13.81,41.2-20.27c0,0,8.27-2.51,14.66,1.71,0,0,5.83,2.61,22.39,20,0,0-12.79-10.75-16.74-9.67,0,0,20.48,19.77,12.93,25.52s-36.29-15.46-42-23.72a54,54,0,0,1-3.24-5.75s-15.63,4.76-27.4,12.62a1.46,1.46,0,0,0-.52,1.79c2.09,4.94,11.08,24.93,22.53,32.31l.91.64,1.25,1.87S682,395.82,673.24,378l-4.11-8.81A2,2,0,0,1,669.85,366.6Z"/><path class="cls-28" d="M698.78,400.19s25,13.37,39.64,17.31c0,0,.66,0,1.38,5.38s1.08,15.45-2.51,22.64c0,0,12.94-7.21,19.31-21.13,0,0-6.38,18.61-21.65,23.82,0,0,6.47-8.62,4.67-19.76l-1.43-7.55S711.13,411.11,698.78,400.19Z"/><path class="cls-22" d="M671.7,418c.36,0,3.6,1.79,6.11.72s9-3.24,9.71-2.88a44.59,44.59,0,0,1,7.9,6.83s-7.19-3.24-12.94-.36c0,0-3.23,1.08-5.75-.36A29.06,29.06,0,0,1,671.7,418Z"/><path class="cls-22" d="M739.62,418c-.36,0-3.59,1.79-6.11.72s-9-3.24-9.7-2.88a44.54,44.54,0,0,0-7.91,6.83s7.19-3.24,12.94-.36c0,0,3.24,1.08,5.75-.36A28.62,28.62,0,0,0,739.62,418Z"/><path class="cls-29" d="M678.89,417a40.47,40.47,0,0,1,5.75-2.16c1.8-.36,3.23-1.08,4.31-.36s2.52,1.44,2.88,1.8l2.51,2.52a15.37,15.37,0,0,0-3.58-4c-.2-.15-.38-.31-.56-.47a3.53,3.53,0,0,0-2.68-.88C683.56,413.71,678.89,417,678.89,417Z"/><path class="cls-29" d="M732.48,416.08a40.61,40.61,0,0,0-5.88-1.77c-1.82-.24-3.3-.87-4.33-.08s-2.41,1.6-2.75,2l-2.34,2.68a15.22,15.22,0,0,1,3.31-4.27l.53-.5a3.53,3.53,0,0,1,2.62-1.06C727.61,413.16,732.48,416.08,732.48,416.08Z"/><path class="cls-9" d="M711.59,436.71c0,4.27-4,5.39-9.34,4-2.59-.69-2.88-4-2.52-7.19.34-3,2.36-9.34,5-9.34S711.59,432.45,711.59,436.71Z"/><path class="cls-30" d="M701,420.72s2.76,9,1.19,17.61C702.18,438.33,709.28,430.78,701,420.72Z"/><path class="cls-9" d="M689.67,435.46c0,4.66-2.56,8.44-6.83,8.44s-7.44-3.93-8.62-8.44c-1.08-4.14-2.52-10.6,7.73-8.45C686.12,427.89,689.67,430.79,689.67,435.46Z"/><path class="cls-9" d="M723.81,436c1.23,5,7,8.92,11.14,7.9s4.38-6,4.33-11.06c0-4.65-.07-11.64-9.36-6.91C726.13,427.86,722.58,431,723.81,436Z"/><path class="cls-37" d="M676.28,444.65s15.37,24.23,29.38,23.87c12.85-.33,26.6-17.87,29.64-23.29.4-.71.82-1.41,1.29-2.08a20.89,20.89,0,0,0,3.21-8s0,14.73-23.11,31.9c0,0-6.71,4.75-11.93,3.7-4.63-.94-12-2.91-20.44-13.87C684.32,456.83,678.52,449.9,676.28,444.65Z"/><path class="cls-17" d="M693.32,465.78l-.06,9s8.27,11.86,16.18,6.11,9-9.35,9-9.35V465.1s-10.06,8.27-20.84,2.52l-4.43-2.52Z"/><path class="cls-38" d="M692.55,464.39l1.39,1.66s0,23.49-3.55,27.08S662,510.38,662,510.38s21.49,18.42,34.82,23.23c0,0-32.06-15.68-41-23.59,0,0,29.45-12.6,32.24-16.6.21-.29.4-.6.61-.9C689.92,490.6,694,483.27,692.55,464.39Z"/><path class="cls-38" d="M719.1,465.1l-1.39,1.67s-.05,23.49,3.55,27.08,28.39,17.25,28.39,17.25-21.49,18.42-34.82,23.22c0,0,32.4-17.1,41.17-23.39,0,0-28.5-12.19-31.29-16.18-.21-.3-2.2-1.93-2.41-2.23C721,490.6,719,484,719.1,465.1Z"/><path class="cls-39" d="M656.07,509.84S637,517.39,630.92,525.3s-8.27,20.12-8.27,20.12H788s-4.43-16.53-10.9-22.64S755.86,511,755.86,511s-34.92,24.87-51.1,24.15c0,0-4.51.89-17.35-5.84S656.07,509.84,656.07,509.84Z"/><path class="cls-40" d="M644.21,516.67s-4.12,18.33,10.88,28.57l104.74.18s9.8-9.7,6.21-28.75l-9.35-5s-34,23.9-50.13,24.62-51-24.44-51-24.44Z"/><path class="cls-41" d="M622.83,545.24s3.56-16.86,9.33-21.37a95.66,95.66,0,0,1,24.09-14.21S690.64,533,698.9,533.53a29.58,29.58,0,0,0,20.41-1.86s26.16-13.31,35.5-21.93c0,0,22.12,9.7,25.21,15s8.12,20.45,8.12,20.45-4.67-16.89-14.38-23a152.76,152.76,0,0,0-16.89-9.34s-36.65,25.87-52.11,25.15-50.31-25.15-50.31-25.15-19.4,8.62-23,14.73-7.18,17.61-7.18,17.61Z"/><path class="cls-35" d="M696.33,454.61a34.39,34.39,0,0,1,21,.22S707,445.16,696.33,454.61Z"/><path class="cls-36" d="M696.83,454.18s8.63-3.44,19.9.44C716.73,454.62,708.7,459.57,696.83,454.18Z"/><g class="cls-46"><g class="cls-47"><circle class="cls-48" cx="705.84" cy="483.07" r="13.84"/></g><g class="cls-47"><circle class="cls-48" cx="705.84" cy="483.07" r="17.07"/></g><g class="cls-49"><circle class="cls-48" cx="705.84" cy="483.07" r="10.08"/></g><g class="cls-46"><circle class="cls-48" cx="705.84" cy="483.07" r="6.66"/></g></g></g><g class="cls-50"><path class="cls-10" d="M580.53,131.72S567.25,146.06,562.3,156s-5.84,10.79-5.84,13.63,3.54,9.55,9.2,15.57a24.27,24.27,0,0,0,5.14,4.2l2.65,2.53s-5,0-7.08,4.25,3.19,7.78,6.37,10.26c0,0-7.08,3.9-6,14.87s17,12.74,23,10.27a10.1,10.1,0,0,0-.79,3.59c0,3.6,2.9,6.14,6.46,6.67a15,15,0,0,0,5.31.36,46.78,46.78,0,0,0,1.06-10.27v-8.5s-17.7-12.74-20.53-34.69c0,0-5.31-31.15,4.6-48.14Z"/><path class="cls-11" d="M574.52,142s-11.16,18.61-12.58,22.15-2.47,5-.35,9.91c0,0,3.89,7.44,5,8.5,0,0,6.37-21.6,7.43-31.51S574.52,142,574.52,142Z"/><path class="cls-43" d="M571.68,180.22a2.23,2.23,0,0,1,3.19-.36c1.77,1.42,4.6,5,3.54,7.44-.7,1.62-1.42,2.47-1.07,4.24s3.9,4.25,3.9,4.25-3.9-3.89-3.19-6,2.13-3.18,1.06-5.31a16.43,16.43,0,0,0-4-5.25,2.16,2.16,0,0,0-3.4.94Z"/><path class="cls-18" d="M580,132.25s-10.8,12-12.48,15c0,0-4.51,5.88-10.18,18.27a7.1,7.1,0,0,0-.71,5.66s1.07,5.31,7.5,12.63c0,0,5.09,5.7,7.11,5.74,0,0-4.33-6.52-7.26-11.65s-5-8-2.39-12.93c0,0,7.88-15.47,13.41-23.83S580,132.25,580,132.25Z"/><path class="cls-8" d="M601.59,221.81s1.06,17.35-1.41,24.78-4.61,7.79-33.28,21.6c0,0,36.11,26.19,46.73,24.42,0,0,7.79,1.77,24.07-8.49l26.2-15.23S632.21,257,630.09,248.18,628,222.34,628,222.34Z"/><path class="cls-9" d="M602.83,231.55s-1.06,16.63-3.54,18.76l-.71,1.06a12.52,12.52,0,0,0,1.24,1.39,17.75,17.75,0,0,0,22.38,2.17c2.61-1.72,5.43-4.15,6.47-7.1a148.32,148.32,0,0,1-1.41-16.28l-.36-5.31-23.76-.59Z"/><path class="cls-10" d="M580.19,132.45l-7.27,12.19s1.41,12.74-7.08,36.11c0,0,3.54,5.66,4.95,8.49a21.34,21.34,0,0,1,2.84,2.84,3.83,3.83,0,0,0-2.48,1.06s12,10.26,17,18.41,9.13,16.1,9.87,30.88l2.7-.26s1.77-5.88,1.06-18.34c0,0-16.85-12.34-19.4-26.56a137.51,137.51,0,0,1-3.86-27.53c-.46-14.66,4.14-26.34,5.56-29.17Z"/><g class="cls-51"><rect class="cls-13" x="570.26" y="201" width="14.16" height="1.17"/><rect class="cls-13" x="570.26" y="186.2" width="14.16" height="14.79"/><rect class="cls-14" x="570.26" y="171.41" width="14.16" height="14.79"/><rect class="cls-14" x="570.26" y="169.24" width="14.16" height="2.17"/></g><path class="cls-15" d="M584.42,140.21s-7.78,17-5.66,31.86c0,0,1.06,25.14,7.43,34.34s15.23,20.53,27.62,23c0,0,5,1.42,15.57-6.37s17.7-23.36,17.7-23.36,3.19-7.79-.71-20.18C646.37,179.51,665.14,108.35,584.42,140.21Z"/><path class="cls-16" d="M627.85,224.14s.12,11.3.82,15.9c0,0,6.38,2.48,12.75-4.95,0,0,12.74,10.26,22.3-6A16.17,16.17,0,0,0,662.3,216l-.35-.71s2.83,1.06,3.89-1.41c0,0,.71-2.48-3.18-3.19,0,0,6.72-2.83,6-8.5S658.57,195,658.57,195s-9,9.61-14.32,11.74a1.12,1.12,0,0,0-.71.35C643.19,207.47,636.59,219.56,627.85,224.14Z"/><path class="cls-9" d="M571,182.5c0,2.68-.75,5.08.28,8.59a19.73,19.73,0,0,0,2.17,4.7s4.65,5,6.75,5.13,2.81-.36,2.81-.36a2.82,2.82,0,0,0,.83-1.39l-1.23-3.76s-4.91,3.21-8.1-1.74S572,183.05,572,180.92s1.42-8.85,3.9-9.2c0,0-2.92-1-3.94,3.95Z"/><path class="cls-17" d="M574.16,178.45s-3.54-2.48-2.48,11a12.5,12.5,0,0,0,4.93,8.72c4.63,3.32,6.1.67,6.1.67s-5.37-4.43-5-8.33,2.83-2.48.71-6.37A20.87,20.87,0,0,0,574.16,178.45Z"/><path class="cls-19" d="M568.32,194.91s11.68,8.85,17.34,17.7,6.91,16.1,7.45,27.91a7.34,7.34,0,0,0,5.3,1.82s1.63-15-12-34a42,42,0,0,0-3.45-4.19c-3.42-3.64-11.07-11.61-12.17-11.34C570.79,192.78,568.67,193.49,568.32,194.91Z"/><path class="cls-20" d="M572,192.25s-4.24,2.13-4.24,6,6.72,7.79,6.72,7.79-9.51,6.15-5.41,17.21a12.07,12.07,0,0,0,7.8,7.4c3.41,1,8.45,1.47,15.31-.54,0,0-5.15,11.41,6.28,12.26,0,0-12.65.84-9.11-10.49,0,0-12.11,5.61-21.1-5.51,0,0-4.95-7,.64-16.51,0,0,2.05-2.76,3.82-3.47,0,0-4.75-3.12-5.91-5.45a4.69,4.69,0,0,1,.08-5.73S569.2,192.25,572,192.25Z"/><g class="cls-52"><rect class="cls-13" x="578.16" y="168.53" width="71.94" height="28.85"/><rect class="cls-14" x="578.16" y="139.68" width="71.94" height="28.85"/></g><path class="cls-22" d="M591.5,164.64s10.27-6.73,14.87-8.14c0,0,1.06,3.54-4.25,5.66A39,39,0,0,1,591.5,164.64Z"/><path class="cls-22" d="M637.17,163.93l-13-7.43s-1.06,3.89,4.25,6S637.17,163.93,637.17,163.93Z"/><path class="cls-10" d="M635.4,237.56c-.32.16,2.48-18.76,11.68-28s16.83-12.87,16.83-12.87,6.54,5.43.16,11.1a23.08,23.08,0,0,1-3.18,2.12s3.54,1.06,2.48,3.9a2.54,2.54,0,0,1-2.84,1.06s6.73,12.39-4.95,20.53c0,0-6.37,3.89-14.52-2.48A23.25,23.25,0,0,1,635.4,237.56Z"/><path class="cls-23" d="M630.65,239.4s-1.19.14-2,.31c0,0-.83-9.05-.83-15.42,0,0,8-4.85,11.79-11.81,0,0-6.3,14.82-7,19.42S632.63,238.76,630.65,239.4Z"/><path class="cls-24" d="M629.91,239.51s3.54-.35,5.31-2.12c0,0,3-13.92,5.59-18.46,0,0,4.21-9.06,12.23-14.77,0,0,7.67-6.42,10.86-7.48,0,0-4.78-2.06-5.58-1.39s-7,9-14.34,11.55C644,206.84,632,217.92,629.91,239.51Z"/><path class="cls-25" d="M580.7,133.54c9.22,21.64,24.26,29.68,24.26,29.68a49.32,49.32,0,0,1-5-9.2s-.35,0,12.74,9.2,33.84,17,33.84,17l1.54,7.62c1.74,11.84-5.85,20.54-5.85,20.54s16.14-6.2,23.22-26.37,7.08-26.91,4.25-36.11-26.2-31.15-34.34-36.82-16.64-1.41-16.64-1.41c-12.66,2.27-35.15,16.16-39.61,19.26a1.64,1.64,0,0,0-.63,1.79,15.18,15.18,0,0,0,.59,1.6l1.22,2.44C580.46,133,580.59,133.27,580.7,133.54Z"/><path class="cls-26" d="M579.64,129.06s14.59,22,47.65,32.94c0,0,15.72,4.94,23.51,4.94a173.53,173.53,0,0,1,3.54,19.12s0,4.95,14.51-14.52c0,0,6.62-19-2-31.11s-26-27.65-31.45-31.37-13.79-3.11-19.9-.58-35.15,17-35.86,19.52Z"/><path class="cls-11" d="M586.17,122.74s22.86,26.5,56.13,36.41a34.92,34.92,0,0,1-7.43-9.2s17.44,11.05,36.33,2.16c0,0,.48-7.63-7.3-16.32s-23.37-22.89-27.44-26-10.09-4.48-17.17-2.36S607.61,110.66,586.17,122.74Z"/><path class="cls-27" d="M579.41,126.73s18.46-13.61,40.59-20c0,0,8.14-2.48,14.44,1.68,0,0,5.74,2.57,22,19.7,0,0-12.59-10.58-16.49-9.52,0,0,20.18,19.47,12.75,25.13S617,128.53,611.33,120.39a53.54,53.54,0,0,1-3.19-5.66s-15.4,4.68-27,12.43a1.44,1.44,0,0,0-.52,1.76c2.06,4.87,10.91,24.56,22.2,31.83l.89.63,1.24,1.84s-13.62-7.71-22.21-25.27l-4-8.69A2,2,0,0,1,579.41,126.73Z"/><path class="cls-28" d="M607.91,159.82s24.58,13.17,39,17.05c0,0,.66,0,1.37,5.29s1.06,15.23-2.48,22.31c0,0,12.75-7.11,19-20.81,0,0-6.28,18.33-21.33,23.46,0,0,6.37-8.5,4.6-19.47l-1.41-7.43S620.08,170.57,607.91,159.82Z"/><path class="cls-22" d="M581.24,177.38c.35,0,3.54,1.77,6,.71s8.85-3.18,9.55-2.83A43.51,43.51,0,0,1,604.6,182s-7.08-3.19-12.74-.36c0,0-3.19,1.06-5.67-.35A28.53,28.53,0,0,1,581.24,177.38Z"/><path class="cls-22" d="M648.14,177.38c-.35,0-3.54,1.77-6,.71s-8.85-3.18-9.56-2.83a43.51,43.51,0,0,0-7.79,6.73s7.08-3.19,12.74-.36c0,0,3.19,1.06,5.67-.35A28.09,28.09,0,0,0,648.14,177.38Z"/><path class="cls-29" d="M588.32,176.32A39.58,39.58,0,0,1,594,174.2c1.77-.36,3.19-1.06,4.25-.36s2.48,1.42,2.83,1.77l2.48,2.48a15.21,15.21,0,0,0-3.53-4,6,6,0,0,1-.55-.45,3.5,3.5,0,0,0-2.65-.88C592.92,173.14,588.32,176.32,588.32,176.32Z"/><path class="cls-29" d="M641.11,175.47a40.57,40.57,0,0,0-5.8-1.75c-1.78-.24-3.24-.85-4.26-.08s-2.38,1.58-2.71,2L626,178.23a15.08,15.08,0,0,1,3.27-4.2l.52-.49a3.48,3.48,0,0,1,2.58-1C636.3,172.59,641.11,175.47,641.11,175.47Z"/><path class="cls-9" d="M620.53,195.79c0,4.21-3.89,5.31-9.2,3.9-2.55-.68-2.83-3.9-2.48-7.08.33-3,2.32-9.21,5-9.21S620.53,191.59,620.53,195.79Z"/><path class="cls-30" d="M610.09,180s2.72,8.85,1.16,17.35C611.25,197.39,618.25,190,610.09,180Z"/><path class="cls-9" d="M598.94,194.55c0,4.6-2.53,8.32-6.73,8.32s-7.33-3.87-8.49-8.32c-1.07-4.07-2.48-10.44,7.61-8.32C595.44,187.1,598.94,190,598.94,194.55Z"/><path class="cls-9" d="M632.57,195.08c1.21,4.89,6.92,8.79,11,7.79S647.86,197,647.8,192c0-4.58-.06-11.47-9.21-6.81C634.85,187.07,631.36,190.2,632.57,195.08Z"/><path class="cls-37" d="M585.75,203.61s15.13,23.87,28.94,23.51c12.66-.32,26.2-17.6,29.19-22.93a21.38,21.38,0,0,1,1.28-2.05,20.85,20.85,0,0,0,3.16-7.94s0,14.51-22.76,31.43c0,0-6.62,4.68-11.75,3.64-4.57-.92-11.79-2.86-20.15-13.66C593.66,215.61,588,208.78,585.75,203.61Z"/><path class="cls-17" d="M602.53,224.42l0,8.9s8.14,11.68,15.93,6,8.85-9.2,8.85-9.2v-6.37s-9.91,8.14-20.53,2.48l-4.37-2.48Z"/><path class="cls-38" d="M601.77,223.05l1.37,1.64s.05,23.14-3.49,26.68-28,17-28,17,21.16,18.14,34.3,22.88c0,0-31.58-15.44-40.43-23.23,0,0,29-12.42,31.76-16.35.21-.3.4-.6.6-.9C599.18,248.88,603.25,241.65,601.77,223.05Z"/><path class="cls-38" d="M627.93,223.76l-1.38,1.64s0,23.14,3.5,26.68,28,17,28,17-21.17,18.14-34.3,22.88c0,0,31.92-16.86,40.56-23.05,0,0-28.08-12-30.83-15.94-.2-.29-2.17-1.9-2.37-2.2C629.81,248.88,627.79,242.34,627.93,223.76Z"/><path class="cls-39" d="M565.84,267.83s-18.76,7.44-24.78,15.22-8.14,19.83-8.14,19.83H695.76s-4.36-16.29-10.73-22.3S664.14,269,664.14,269s-34.4,24.5-50.33,23.79c0,0-4.45.88-17.1-5.76S565.84,267.83,565.84,267.83Z"/><path class="cls-40" d="M554.16,274.56s-4.06,18.05,10.71,28.14l103.18.18s9.65-9.56,6.11-28.32l-9.2-5s-33.45,23.54-49.38,24.25-50.27-24.07-50.27-24.07Z"/><path class="cls-41" d="M533.09,302.7s3.51-16.61,9.19-21.05a94,94,0,0,1,23.74-14s33.87,23,42,23.51a29.08,29.08,0,0,0,20.1-1.83s25.77-13.11,35-21.6c0,0,21.79,9.55,24.84,14.83s8,20.14,8,20.14-4.6-16.64-14.16-22.66a152.08,152.08,0,0,0-16.63-9.2S629,296.33,613.81,295.62s-49.56-24.78-49.56-24.78-19.12,8.5-22.66,14.51-7.08,17.35-7.08,17.35Z"/><path class="cls-35" d="M605.5,213.42a33.89,33.89,0,0,1,20.74.21S616,204.11,605.5,213.42Z"/><path class="cls-36" d="M606,213s8.5-3.39,19.61.43C625.6,213.43,617.68,218.31,606,213Z"/></g><g class="cls-53"><path class="cls-10" d="M291.8,118.32S278.26,133,273.2,143.06s-6,11-6,13.9,3.62,9.75,9.39,15.89a24.64,24.64,0,0,0,5.25,4.29l2.7,2.58s-5.06,0-7.22,4.33,3.25,7.94,6.5,10.47c0,0-7.23,4-6.14,15.17s17.33,13,23.47,10.47a10.37,10.37,0,0,0-.81,3.67c0,3.67,3,6.26,6.59,6.81a15.42,15.42,0,0,0,5.42.36,47.8,47.8,0,0,0,1.08-10.47v-8.67s-18.06-13-20.94-35.4c0,0-5.42-31.78,4.69-49.11Z"/><path class="cls-11" d="M285.67,128.77s-11.38,19-12.83,22.59-2.53,5.06-.36,10.12c0,0,4,7.58,5.06,8.66,0,0,6.5-22,7.58-32.14S285.67,128.77,285.67,128.77Z"/><path class="cls-43" d="M282.77,167.8a2.26,2.26,0,0,1,3.25-.36c1.81,1.44,4.7,5.05,3.62,7.58-.72,1.66-1.45,2.53-1.09,4.33s4,4.34,4,4.34-4-4-3.26-6.14,2.17-3.25,1.09-5.42a16.74,16.74,0,0,0-4.1-5.36,2.19,2.19,0,0,0-3.46,1Z"/><path class="cls-18" d="M291.26,118.86s-11,12.2-12.73,15.31c0,0-4.6,6-10.38,18.64a7.23,7.23,0,0,0-.72,5.78s1.08,5.41,7.64,12.89c0,0,5.19,5.81,7.26,5.85,0,0-4.43-6.66-7.41-11.89s-5.15-8.15-2.44-13.19c0,0,8-15.78,13.68-24.31S291.26,118.86,291.26,118.86Z"/><path class="cls-8" d="M313.29,210.23s1.08,17.7-1.44,25.28-4.7,8-34,22c0,0,36.84,26.73,47.67,24.92,0,0,7.95,1.81,24.56-8.66l26.72-15.53s-32.32-12.1-34.49-21.13-2.16-26.37-2.16-26.37Z"/><path class="cls-9" d="M314.56,220.16s-1.09,17-3.62,19.15l-.72,1.08a13.51,13.51,0,0,0,1.26,1.42A18.12,18.12,0,0,0,334.32,244c2.66-1.75,5.54-4.24,6.6-7.24a150.43,150.43,0,0,1-1.45-16.62l-.36-5.41-24.24-.6Z"/><path class="cls-10" d="M291.45,119.07,284,131.5s1.44,13-7.23,36.84c0,0,3.62,5.78,5.06,8.67a20.91,20.91,0,0,1,2.89,2.89,3.93,3.93,0,0,0-2.53,1.08s12.28,10.47,17.34,18.78,9.31,16.43,10.07,31.51l2.75-.27s1.8-6,1.08-18.71c0,0-17.18-12.59-19.79-27.1a140.11,140.11,0,0,1-3.94-28.08c-.47-15,4.23-26.87,5.67-29.76Z"/><g class="cls-54"><rect class="cls-13" x="281.33" y="189" width="14.45" height="1.19"/><rect class="cls-13" x="281.33" y="173.9" width="14.45" height="15.09"/><rect class="cls-14" x="281.33" y="158.81" width="14.45" height="15.09"/><rect class="cls-14" x="281.33" y="156.6" width="14.45" height="2.21"/></g><path class="cls-15" d="M295.78,127s-7.95,17.33-5.78,32.5c0,0,1.08,25.64,7.58,35s15.53,20.95,28.17,23.48c0,0,5.06,1.44,15.89-6.5s18.06-23.84,18.06-23.84,3.25-7.94-.72-20.59C359,167.07,378.12,94.48,295.78,127Z"/><path class="cls-16" d="M340.08,212.61s.12,11.53.84,16.22c0,0,6.5,2.53,13-5.05,0,0,13,10.47,22.75-6.14a16.52,16.52,0,0,0-1.44-13.37l-.36-.72s2.89,1.08,4-1.44c0,0,.72-2.53-3.25-3.25,0,0,6.86-2.89,6.14-8.67s-10.31-7.29-10.31-7.29-9.19,9.82-14.61,12a1.11,1.11,0,0,0-.72.36C355.73,195.61,349,207.94,340.08,212.61Z"/><path class="cls-9" d="M282.08,170.13c0,2.73-.77,5.18.28,8.76a20.81,20.81,0,0,0,2.22,4.8s4.75,5,6.89,5.23,2.87-.37,2.87-.37a2.85,2.85,0,0,0,.84-1.42l-1.25-3.83s-5,3.28-8.27-1.78-2.52-10.83-2.52-13,1.44-9,4-9.39c0,0-3-1-4,4Z"/><path class="cls-17" d="M285.3,166s-3.61-2.53-2.53,11.2a12.76,12.76,0,0,0,5,8.9c4.72,3.38,6.21.67,6.21.67s-5.47-4.52-5.11-8.49,2.89-2.53.73-6.5A21.25,21.25,0,0,0,285.3,166Z"/><path class="cls-19" d="M279.34,182.78s11.92,9,17.7,18.06,7,16.43,7.59,28.47c0,.06,1.8,1.87,5.41,1.87,0,0,1.66-15.3-12.24-34.72a42.58,42.58,0,0,0-3.52-4.28c-3.49-3.71-11.29-11.84-12.41-11.56C281.87,180.62,279.7,181.34,279.34,182.78Z"/><path class="cls-20" d="M283.14,180.08s-4.34,2.16-4.34,6.14,6.86,7.94,6.86,7.94-9.7,6.28-5.52,17.56a12.31,12.31,0,0,0,8,7.55c3.47,1,8.62,1.5,15.62-.55,0,0-5.25,11.64,6.4,12.5,0,0-12.9.86-9.29-10.69,0,0-12.36,5.72-21.53-5.63,0,0-5-7.17.66-16.84,0,0,2.09-2.82,3.9-3.54,0,0-4.85-3.18-6-5.56a4.77,4.77,0,0,1,.09-5.84S280.25,180.08,283.14,180.08Z"/><g class="cls-55"><rect class="cls-13" x="289.38" y="155.88" width="73.39" height="29.43"/><rect class="cls-14" x="289.38" y="126.45" width="73.39" height="29.43"/></g><path class="cls-22" d="M303,151.91s10.47-6.87,15.17-8.31c0,0,1.08,3.61-4.34,5.78A39.89,39.89,0,0,1,303,151.91Z"/><path class="cls-22" d="M349.59,151.18l-13.28-7.58s-1.08,4,4.34,6.14S349.59,151.18,349.59,151.18Z"/><path class="cls-10" d="M347.78,226.3c-.32.17,2.53-19.14,11.92-28.53s17.17-13.13,17.17-13.13,6.67,5.55.16,11.33a22.67,22.67,0,0,1-3.25,2.16s3.62,1.09,2.53,4a2.58,2.58,0,0,1-2.89,1.08s6.86,12.64-5.05,20.95c0,0-6.5,4-14.81-2.53A23.79,23.79,0,0,1,347.78,226.3Z"/><path class="cls-23" d="M342.94,228.18s-1.22.14-2.07.31c0,0-.85-9.23-.85-15.73,0,0,8.16-4.95,12-12,0,0-6.43,15.11-7.15,19.81S345,227.52,342.94,228.18Z"/><path class="cls-24" d="M342.18,228.29s3.61-.36,5.42-2.17c0,0,3.1-14.19,5.7-18.83,0,0,4.3-9.24,12.48-15.07,0,0,7.82-6.55,11.07-7.63,0,0-4.87-2.1-5.69-1.41S364,192.32,356.53,195C356.53,195,344.35,206.26,342.18,228.29Z"/><path class="cls-25" d="M292,120.18c9.4,22.08,24.74,30.28,24.74,30.28a50.47,50.47,0,0,1-5.05-9.39s-.37,0,13,9.39,34.52,17.32,34.52,17.32l1.57,7.77c1.78,12.09-6,21-6,21s16.47-6.32,23.69-26.91,7.22-27.44,4.33-36.83-26.72-31.79-35-37.56-17-1.45-17-1.45c-12.92,2.32-35.87,16.49-40.41,19.65a1.67,1.67,0,0,0-.65,1.83,14.78,14.78,0,0,0,.61,1.63l1.24,2.49C291.74,119.63,291.86,119.9,292,120.18Z"/><path class="cls-26" d="M290.9,115.61s14.88,22.41,48.61,33.6c0,0,16,5,24,5a177.35,177.35,0,0,1,3.61,19.51s0,5.05,14.81-14.81c0,0,6.75-19.42-2-31.74s-26.49-28.21-32.09-32-14.07-3.18-20.3-.6S291.62,112,290.9,114.53Z"/><path class="cls-11" d="M297.56,109.16s23.32,27,57.26,37.15a35.88,35.88,0,0,1-7.58-9.39s17.79,11.27,37.06,2.21c0,0,.5-7.79-7.45-16.66S353,99.12,348.86,96s-10.29-4.58-17.51-2.41S319.43,96.83,297.56,109.16Z"/><path class="cls-27" d="M290.66,113.23s18.83-13.88,41.41-20.37c0,0,8.31-2.53,14.73,1.71,0,0,5.86,2.62,22.5,20.1,0,0-12.85-10.8-16.82-9.71,0,0,20.58,19.86,13,25.64S329,115.07,323.22,106.76A53.84,53.84,0,0,1,320,101s-15.71,4.79-27.54,12.69a1.49,1.49,0,0,0-.53,1.8c2.11,5,11.14,25.05,22.66,32.46l.9.65,1.26,1.88s-13.89-7.87-22.65-25.78l-4.13-8.86A2,2,0,0,1,290.66,113.23Z"/><path class="cls-28" d="M319.74,147s25.07,13.43,39.83,17.39c0,0,.67,0,1.39,5.4s1.09,15.53-2.52,22.76c0,0,13-7.25,19.41-21.23,0,0-6.41,18.7-21.76,23.93,0,0,6.5-8.66,4.69-19.86l-1.44-7.58S332.15,158,319.74,147Z"/><path class="cls-22" d="M292.53,164.91c.36,0,3.61,1.8,6.13.72s9-3.25,9.76-2.89a44.9,44.9,0,0,1,7.94,6.86s-7.22-3.25-13-.36c0,0-3.25,1.09-5.78-.36A28.37,28.37,0,0,1,292.53,164.91Z"/><path class="cls-22" d="M360.78,164.91c-.36,0-3.61,1.8-6.14.72s-9-3.25-9.75-2.89A44.9,44.9,0,0,0,337,169.6s7.22-3.25,13-.36c0,0,3.25,1.09,5.78-.36A28.8,28.8,0,0,0,360.78,164.91Z"/><path class="cls-29" d="M299.75,163.82a40.78,40.78,0,0,1,5.78-2.16c1.8-.36,3.25-1.09,4.33-.36s2.53,1.44,2.89,1.8l2.53,2.53a15.63,15.63,0,0,0-3.61-4.06c-.19-.15-.38-.3-.56-.47a3.57,3.57,0,0,0-2.69-.89C304.44,160.57,299.75,163.82,299.75,163.82Z"/><path class="cls-29" d="M353.6,163a40.59,40.59,0,0,0-5.91-1.78c-1.82-.24-3.31-.87-4.34-.08s-2.43,1.61-2.77,2l-2.36,2.69a15.7,15.7,0,0,1,3.34-4.29c.18-.16.36-.32.53-.5a3.52,3.52,0,0,1,2.63-1.06C348.71,160,353.6,163,353.6,163Z"/><path class="cls-9" d="M332.61,183.69c0,4.29-4,5.41-9.39,4-2.6-.69-2.89-4-2.53-7.22.34-3.05,2.37-9.39,5.06-9.39S332.61,179.4,332.61,183.69Z"/><path class="cls-30" d="M322,167.62s2.78,9,1.19,17.69C323.15,185.31,330.29,177.73,322,167.62Z"/><path class="cls-9" d="M310.58,182.42c0,4.69-2.57,8.49-6.86,8.49s-7.48-3.95-8.67-8.49c-1.08-4.15-2.52-10.65,7.77-8.48C307,174.82,310.58,177.74,310.58,182.42Z"/><path class="cls-9" d="M344.89,183c1.24,5,7.07,9,11.2,7.94s4.4-6,4.34-11.11c-.05-4.68-.06-11.7-9.4-7C347.22,174.79,343.66,178,344.89,183Z"/><path class="cls-37" d="M297.13,191.67s15.44,24.34,29.52,24c12.92-.33,26.74-18,29.79-23.4a21.42,21.42,0,0,1,1.3-2.09,21.21,21.21,0,0,0,3.22-8.1s0,14.81-23.22,32.06c0,0-6.75,4.78-12,3.72-4.65-.94-12-2.92-20.55-13.93C305.2,203.91,299.38,196.93,297.13,191.67Z"/><path class="cls-17" d="M314.25,212.9l-.06,9.07s8.31,11.92,16.26,6.14,9-9.39,9-9.39v-6.5s-10.11,8.31-20.94,2.53l-4.45-2.53Z"/><path class="cls-38" d="M313.47,211.5l1.4,1.67s.05,23.61-3.57,27.22-28.53,17.33-28.53,17.33,21.6,18.51,35,23.34c0,0-32.22-15.75-41.25-23.7,0,0,29.6-12.67,32.4-16.68.21-.3.41-.61.61-.91C310.83,237.84,315,230.47,313.47,211.5Z"/><path class="cls-38" d="M340.16,212.22l-1.4,1.67s-.05,23.61,3.57,27.22,28.53,17.34,28.53,17.34-21.6,18.5-35,23.33c0,0,32.57-17.19,41.38-23.51,0,0-28.64-12.24-31.45-16.26-.2-.3-2.21-1.94-2.41-2.24C342.08,237.84,340,231.18,340.16,212.22Z"/><path class="cls-39" d="M276.81,257.18s-19.14,7.59-25.28,15.53-8.3,20.23-8.3,20.23H409.36s-4.45-16.62-10.95-22.76-21.31-11.8-21.31-11.8-35.1,25-51.35,24.26c0,0-4.54.9-17.44-5.87S276.81,257.18,276.81,257.18Z"/><path class="cls-40" d="M264.9,264s-4.14,18.42,10.93,28.72l105.26.18s9.85-9.76,6.24-28.9L377.94,259s-34.13,24-50.38,24.74-51.29-24.56-51.29-24.56Z"/><path class="cls-41" d="M243.41,292.76s3.58-17,9.37-21.48A96,96,0,0,1,277,257s34.56,23.48,42.86,24a29.7,29.7,0,0,0,20.51-1.87s26.29-13.37,35.68-22c0,0,22.23,9.75,25.33,15.13s8.16,20.56,8.16,20.56-4.7-17-14.45-23.12a154.46,154.46,0,0,0-17-9.39s-36.84,26-52.37,25.28-50.56-25.28-50.56-25.28-19.5,8.67-23.11,14.81-7.23,17.7-7.23,17.7Z"/><path class="cls-35" d="M317.27,201.67a34.56,34.56,0,0,1,21.16.22S328,192.17,317.27,201.67Z"/><path class="cls-36" d="M317.77,201.24s8.67-3.45,20,.45C337.78,201.69,329.71,206.66,317.77,201.24Z"/></g><g class="cls-56"><path class="cls-10" d="M553.5,605.57s-13.65,14.75-18.75,24.94-6,11.11-6,14,3.64,9.83,9.47,16a25.16,25.16,0,0,0,5.29,4.32l2.72,2.6s-5.1,0-7.28,4.37,3.27,8,6.55,10.55c0,0-7.28,4-6.19,15.3s17.48,13.1,23.67,10.55a10.39,10.39,0,0,0-.82,3.7c0,3.7,3,6.31,6.64,6.86a15.6,15.6,0,0,0,5.46.37,47.68,47.68,0,0,0,1.1-10.56v-8.74s-18.21-13.11-21.12-35.68c0,0-5.46-32,4.73-49.52Z"/><path class="cls-11" d="M547.32,616.11s-11.48,19.14-12.93,22.78-2.55,5.09-.37,10.19c0,0,4,7.65,5.1,8.74,0,0,6.55-22.21,7.65-32.4S547.32,616.11,547.32,616.11Z"/><path class="cls-43" d="M544.4,655.45a2.29,2.29,0,0,1,3.28-.36c1.82,1.45,4.73,5.1,3.64,7.64-.72,1.68-1.46,2.55-1.1,4.37s4,4.37,4,4.37-4-4-3.28-6.19,2.19-3.27,1.1-5.46a17.28,17.28,0,0,0-4.13-5.41,2.23,2.23,0,0,0-3.5,1Z"/><path class="cls-18" d="M553,606.12s-11.11,12.3-12.84,15.43c0,0-4.64,6.05-10.47,18.79,0,0-1.82,2.92-.72,5.83,0,0,1.09,5.46,7.7,13,0,0,5.24,5.86,7.32,5.9,0,0-4.46-6.71-7.47-12s-5.19-8.22-2.46-13.3c0,0,8.11-15.9,13.8-24.51S553,606.12,553,606.12Z"/><path class="cls-8" d="M575.16,698.23s1.1,17.84-1.45,25.49-4.74,8-34.23,22.21c0,0,37.14,26.94,48.06,25.12,0,0,8,1.82,24.76-8.74l26.94-15.66s-32.58-12.19-34.77-21.29-2.18-26.58-2.18-26.58Z"/><path class="cls-9" d="M576.44,708.24s-1.09,17.12-3.64,19.3l-.73,1.09a14.22,14.22,0,0,0,1.27,1.44,18.27,18.27,0,0,0,23,2.23C599.05,730.53,602,728,603,725a151.49,151.49,0,0,1-1.46-16.75l-.36-5.46-24.45-.6Z"/><path class="cls-10" d="M553.15,606.32l-7.48,12.54S547.13,632,538.39,656c0,0,3.64,5.82,5.1,8.74a21.2,21.2,0,0,1,2.91,2.91,4,4,0,0,0-2.55,1.09s12.38,10.56,17.48,18.93,9.39,16.57,10.15,31.77l2.77-.27s1.82-6,1.1-18.86c0,0-17.33-12.69-20-27.32a141.67,141.67,0,0,1-4-28.32c-.47-15.07,4.27-27.08,5.72-30Z"/><path class="cls-57" d="M551.32,647.08s-5.46-2.91-6.56,3.27-1.82,13.11-1.09,15.3,1.46,5.46,4.37,7.64,4.44,4.73,8.41,2.91l1.06-2.91-4.37-24.76Z"/><path class="cls-15" d="M557.51,614.31s-8,17.48-5.83,32.77c0,0,1.09,25.85,7.65,35.31s15.65,21.12,28.4,23.67c0,0,5.09,1.46,16-6.55s18.21-24,18.21-24,3.28-8-.73-20.76C621.22,654.72,640.52,581.54,557.51,614.31Z"/><path class="cls-16" d="M602.17,700.62s.12,11.63.85,16.36c0,0,6.55,2.55,13.1-5.1,0,0,13.11,10.56,22.94-6.18a16.65,16.65,0,0,0-1.46-13.48l-.36-.72s2.91,1.09,4-1.46c0,0,.72-2.55-3.28-3.28,0,0,6.92-2.91,6.19-8.73s-10.39-7.35-10.39-7.35-9.27,9.89-14.73,12.08a1.13,1.13,0,0,0-.73.36C617.94,683.49,611.15,695.92,602.17,700.62Z"/><path class="cls-9" d="M543.7,657.8c0,2.76-.78,5.23.29,8.83a20.26,20.26,0,0,0,2.23,4.84s4.78,5.08,6.94,5.27,2.9-.37,2.9-.37a2.91,2.91,0,0,0,.85-1.43l-1.27-3.86s-5,3.3-8.33-1.79-2.55-10.93-2.55-13.11,1.46-9.1,4-9.47c0,0-3-1-4,4.06Z"/><path class="cls-17" d="M547,653.63s-3.64-2.55-2.55,11.29a12.87,12.87,0,0,0,5.07,9c4.76,3.41,6.27.68,6.27.68s-5.52-4.55-5.15-8.56,2.91-2.55.73-6.55A21.42,21.42,0,0,0,547,653.63Z"/><path class="cls-19" d="M540.94,670.56s12,9.1,17.84,18.21,7.1,16.56,7.66,28.7c0,.06,1.81,1.88,5.45,1.88,0,0,1.67-15.42-12.35-35A41.68,41.68,0,0,0,556,680c-3.52-3.74-11.39-11.94-12.51-11.66C543.49,668.38,541.3,669.11,540.94,670.56Z"/><path class="cls-20" d="M544.76,667.83s-4.37,2.19-4.37,6.19,6.92,8,6.92,8-9.78,6.33-5.56,17.7a12.37,12.37,0,0,0,8,7.61c3.51,1.06,8.7,1.51,15.76-.55,0,0-5.3,11.73,6.45,12.6,0,0-13,.87-9.37-10.78,0,0-12.46,5.77-21.7-5.67,0,0-5.09-7.23.66-17,0,0,2.11-2.84,3.93-3.57,0,0-4.89-3.21-6.08-5.61a4.8,4.8,0,0,1,.09-5.88S541.85,667.83,544.76,667.83Z"/><path class="cls-58" d="M552.32,655.27s6.1-19.66,6.82-25.85c0,0,18.94,16,29.5,19.3l-1.83-5.1s17.84,13.47,28.77,14.56c0,0,6.62,0,6.95,14.93,0,0,2.51-5.83-1.13-18.2,0,0-19.29-8-30.22-14.93s-33.49-26.22-33.49-26.22-6.63,16.39-6.23,25.67A127.25,127.25,0,0,0,552.32,655.27Z"/><path class="cls-22" d="M564.79,639.43s10.56-6.92,15.29-8.37c0,0,1.09,3.64-4.37,5.82A40.15,40.15,0,0,1,564.79,639.43Z"/><path class="cls-22" d="M611.75,638.7l-13.38-7.64s-1.09,4,4.37,6.19S611.75,638.7,611.75,638.7Z"/><path class="cls-10" d="M609.93,714.43c-.32.17,2.55-19.29,12-28.76s17.31-13.24,17.31-13.24,6.72,5.6.16,11.42a22.78,22.78,0,0,1-3.27,2.18s3.64,1.1,2.55,4a2.6,2.6,0,0,1-2.92,1.09s6.92,12.74-5.09,21.12c0,0-6.56,4-14.93-2.55A23.83,23.83,0,0,1,609.93,714.43Z"/><path class="cls-23" d="M605.05,716.32s-1.22.15-2.08.31c0,0-.86-9.3-.86-15.85,0,0,8.22-5,12.12-12.14,0,0-6.48,15.23-7.21,20S607.09,715.66,605.05,716.32Z"/><path class="cls-24" d="M604.29,716.44s3.64-.37,5.46-2.19c0,0,3.13-14.31,5.75-19,0,0,4.33-9.31,12.58-15.18,0,0,7.89-6.61,11.16-7.7,0,0-4.91-2.12-5.73-1.42s-7.21,9.22-14.75,11.87C618.76,682.83,606.48,694.23,604.29,716.44Z"/><path class="cls-25" d="M553.68,607.45c9.48,22.26,24.94,30.53,24.94,30.53a51.32,51.32,0,0,1-5.09-9.47s-.37,0,13.1,9.47,34.81,17.46,34.81,17.46l1.58,7.83c1.79,12.18-6,21.13-6,21.13s16.6-6.37,23.88-27.13,7.28-27.67,4.37-37.13-26.94-32-35.32-37.87-17.11-1.45-17.11-1.45c-13,2.33-36.15,16.62-40.74,19.81a1.67,1.67,0,0,0-.64,1.84,12.08,12.08,0,0,0,.61,1.65l1.25,2.51C553.43,606.89,553.56,607.17,553.68,607.45Z"/><path class="cls-26" d="M552.59,602.84s15,22.59,49,33.87c0,0,16.17,5.09,24.18,5.09a178.46,178.46,0,0,1,3.64,19.66s0,5.1,14.93-14.93c0,0,6.81-19.57-2.06-32s-26.7-28.45-32.35-32.27-14.18-3.2-20.47-.6-36.14,17.53-36.87,20.08Z"/><path class="cls-11" d="M559.3,596.34s23.51,27.25,57.73,37.45a36,36,0,0,1-7.64-9.47s17.93,11.37,37.36,2.23c0,0,.5-7.85-7.51-16.79s-24-23.54-28.21-26.7-10.38-4.61-17.66-2.43S581.35,583.91,559.3,596.34Z"/><path class="cls-27" d="M552.35,600.44s19-14,41.75-20.54c0,0,8.37-2.54,14.85,1.73,0,0,5.9,2.64,22.68,20.26,0,0-13-10.88-17-9.79,0,0,20.75,20,13.1,25.85s-36.77-15.65-42.59-24a55.05,55.05,0,0,1-3.28-5.82s-15.84,4.82-27.76,12.79a1.49,1.49,0,0,0-.54,1.81c2.12,5,11.23,25.25,22.84,32.73l.91.65,1.27,1.9s-14-7.94-22.84-26l-4.16-8.93A2.06,2.06,0,0,1,552.35,600.44Z"/><path class="cls-28" d="M581.67,634.47S606.94,648,621.82,652c0,0,.68,0,1.4,5.44s1.1,15.66-2.55,22.94c0,0,13.11-7.31,19.58-21.4,0,0-6.47,18.85-21.94,24.13,0,0,6.55-8.74,4.73-20l-1.46-7.65S594.18,645.53,581.67,634.47Z"/><path class="cls-22" d="M554.23,652.54c.36,0,3.64,1.82,6.19.73s9.1-3.28,9.83-2.92a45.65,45.65,0,0,1,8,6.92s-7.28-3.27-13.11-.36c0,0-3.27,1.09-5.82-.37A28.81,28.81,0,0,1,554.23,652.54Z"/><path class="cls-22" d="M623,652.54c-.36,0-3.64,1.82-6.19.73s-9.1-3.28-9.83-2.92a45.65,45.65,0,0,0-8,6.92s7.28-3.27,13.11-.36c0,0,3.28,1.09,5.82-.37A28.81,28.81,0,0,0,623,652.54Z"/><path class="cls-29" d="M561.51,651.45a41.94,41.94,0,0,1,5.83-2.19c1.82-.36,3.27-1.09,4.37-.36s2.54,1.45,2.91,1.82l2.55,2.55a15.8,15.8,0,0,0-3.64-4.1c-.19-.15-.38-.3-.56-.47a3.6,3.6,0,0,0-2.72-.89C566.24,648.17,561.51,651.45,561.51,651.45Z"/><path class="cls-29" d="M615.8,650.57a40.49,40.49,0,0,0-5.95-1.8c-1.84-.24-3.34-.88-4.39-.08s-2.44,1.62-2.78,2l-2.38,2.71a15.59,15.59,0,0,1,3.36-4.32c.18-.16.36-.33.53-.51a3.56,3.56,0,0,1,2.66-1.07C610.87,647.61,615.8,650.57,615.8,650.57Z"/><path class="cls-9" d="M594.64,671.47c0,4.32-4,5.46-9.46,4-2.63-.7-2.92-4-2.55-7.29.34-3.07,2.38-9.46,5.1-9.46S594.64,667.15,594.64,671.47Z"/><path class="cls-30" d="M583.9,655.27s2.8,9.1,1.2,17.84C585.1,673.11,592.3,665.46,583.9,655.27Z"/><path class="cls-9" d="M572.43,670.2c0,4.72-2.59,8.55-6.91,8.55s-7.55-4-8.74-8.55c-1.09-4.19-2.55-10.74,7.83-8.56C568.84,662.53,572.43,665.47,572.43,670.2Z"/><path class="cls-9" d="M607,670.74c1.25,5,7.13,9,11.29,8s4.44-6,4.38-11.2c-.05-4.72-.06-11.8-9.48-7C609.37,662.5,605.78,665.72,607,670.74Z"/><path class="cls-37" d="M558.87,679.51s15.57,24.55,29.77,24.18c13-.33,27-18.1,30-23.59A21.66,21.66,0,0,1,620,678a21.35,21.35,0,0,0,3.25-8.17s0,14.93-23.41,32.32c0,0-6.81,4.82-12.08,3.75C583,705,575.6,703,567,691.86,567,691.86,561.14,684.83,558.87,679.51Z"/><path class="cls-17" d="M576.13,700.92l-.06,9.14s8.38,12,16.39,6.19,9.1-9.46,9.1-9.46v-6.56s-10.19,8.38-21.12,2.55L576,700.23Z"/><path class="cls-38" d="M575.35,699.51l1.41,1.68s0,23.8-3.6,27.44-28.76,17.48-28.76,17.48,21.77,18.65,35.28,23.53c0,0-31.28-15.89-40.38-23.9,0,0,28.63-12.77,31.46-16.81l.61-.92C572.68,726.07,576.86,718.64,575.35,699.51Z"/><path class="cls-38" d="M602.25,700.23l-1.41,1.69s-.05,23.8,3.59,27.44,28.77,17.48,28.77,17.48-21.77,18.65-35.28,23.52c0,0,32.22-17.15,41.1-23.52,0,0-28.26-12.52-31.09-16.57-.21-.3-2.23-2-2.44-2.26C604.18,726.07,602.11,719.35,602.25,700.23Z"/><path class="cls-39" d="M538.39,745.56s-19.29,7.65-25.48,15.66-8.38,20.39-8.38,20.39H672s-3.28-16.75-9.83-22.94-21.48-13.11-21.48-13.11-36.59,26.4-53,25.67c0,0-4.58.91-17.58-5.92S538.39,745.56,538.39,745.56Z"/><path class="cls-40" d="M526.38,752.48s-4.17,18.57,11,28.94l106.11.19s9.93-9.83,6.29-29.13l-9.46-5.1s-34.41,24.21-50.79,24.94-51.7-24.76-51.7-24.76Z"/><path class="cls-41" d="M504.71,781.42s3.61-17.08,9.45-21.65a97,97,0,0,1,24.41-14.39s35,24.48,43.33,25a32.84,32.84,0,0,0,20.56-2.69s29-13.55,38.42-22.29c0,0,20,9.9,23.09,15.33s8.22,20.71,8.22,20.71-4.73-17.11-14.56-23.3a154.84,154.84,0,0,0-17.11-9.46s-37.14,26.21-52.79,25.48-51-25.48-51-25.48-19.66,8.74-23.3,14.92-7.28,17.84-7.28,17.84Z"/><path class="cls-35" d="M579.18,689.6a34.84,34.84,0,0,1,21.33.22S590,680,579.18,689.6Z"/><path class="cls-36" d="M579.68,689.17s8.74-3.49,20.17.45C599.85,689.62,591.71,694.63,579.68,689.17Z"/><g class="cls-46"><circle class="cls-59" cx="588.82" cy="718.44" r="14.02"/><circle class="cls-59" cx="588.82" cy="718.44" r="17.29"/><circle class="cls-60" cx="588.82" cy="718.44" r="10.21"/><circle class="cls-61" cx="588.82" cy="718.44" r="6.75"/></g><path class="cls-15" d="M578.58,704c.86,7.59,3.38,29.17,25.94,77.63h28.57s-19.76-31.26-27.57-50.24c-6.74-16.37-14.59-36.61-23.07-33.75A5.94,5.94,0,0,0,578.58,704Z"/><path class="cls-62" d="M615.63,752.63s5.55,18.93,3.93,23.94,9.06,1.48,7.72-2.07S615.63,752.63,615.63,752.63Z"/><polygon class="cls-38" points="597.65 766.24 604.81 781.54 606.78 781.54 597.65 766.24"/><path class="cls-63" d="M594.63,665.84a8.1,8.1,0,0,0-13.92-1.38c-2.27,3.1-4.82,7.77-7.61,14.69C561.67,707.59,550,758.41,550,758.41s21.93,18.76,25.23,22.42c0,0,19.72-15.92,41.44-17.85l1.46-.11C637.27,761.75,604.35,687,594.63,665.84Z"/><path class="cls-64" d="M587.8,666.72s-11.88,99.41-12,111c0,0,5.83-5.74,11.89-7.64C587.72,770.07,584.41,727.07,587.8,666.72Z"/><path class="cls-64" d="M590.15,706.68s.14,41.64,4.8,55.25a14,14,0,0,1,14.51-2.4S598,722.41,590.15,706.68Z"/></g><path class="cls-48" d="M682,216.9a4.37,4.37,0,0,1-4.36-4.37V179.19a4.36,4.36,0,0,1,8.72,0v33.34A4.37,4.37,0,0,1,682,216.9Zm0-41.2a3.5,3.5,0,0,0-3.49,3.49v33.34a3.49,3.49,0,0,0,7,0V179.19A3.5,3.5,0,0,0,682,175.7Z"/><rect class="cls-48" x="679.41" y="178.06" width="5.23" height="35.59" rx="2.62"/><circle class="cls-48" cx="682.03" cy="214.24" r="6.97"/><path class="cls-65" d="M271.62,651.89a1.85,1.85,0,1,1,2.34-2.71c1,.84,9,10.11,9,10.11S272.6,652.73,271.62,651.89Z"/><path class="cls-65" d="M268.26,668.21a2.11,2.11,0,0,1-2.54-1.47c-.13-1,.8-1.91,2.07-2.08s13.55,0,13.55,0S269.54,668,268.26,668.21Z"/><path class="cls-65" d="M276.52,681.23a1.85,1.85,0,1,1-2.46-2.59c.93-.88,10.95-8,10.95-8S277.45,680.35,276.52,681.23Z"/><g class="cls-46"><circle class="cls-66" cx="347.5" cy="125.5" r="18.5"/><circle class="cls-60" cx="347.5" cy="125.5" r="14.99"/><circle class="cls-60" cx="347.5" cy="125.5" r="10.92"/><circle class="cls-48" cx="347.5" cy="125.5" r="7.22"/></g><path class="cls-67" d="M350.13,133s9.35,0,6.68,10.69"/><path class="cls-67" d="M362.69,126s-4.39,8.26,6.31,10.91"/><path class="cls-67" d="M360.82,143.73s-1.34-6.68,5.34-4"/><path class="cls-67" d="M358.33,126.44s.4,6.81-5.85,3.24"/><g class="cls-68"><path class="cls-10" d="M160,337.17s-13.47,14.55-18.5,24.62-5.93,11-5.93,13.83,3.59,9.7,9.34,15.81a24.58,24.58,0,0,0,5.22,4.27l2.69,2.56s-5,0-7.19,4.31,3.23,7.91,6.47,10.42c0,0-7.19,4-6.11,15.1s17.25,12.94,23.36,10.42a10.2,10.2,0,0,0-.81,3.65c0,3.65,2.95,6.23,6.56,6.77a15.24,15.24,0,0,0,5.39.36,47.25,47.25,0,0,0,1.08-10.42v-8.63s-18-12.93-20.85-35.21c0,0-5.39-31.63,4.67-48.88Z"/><path class="cls-11" d="M153.88,347.57s-11.32,18.89-12.76,22.48-2.52,5-.36,10.06c0,0,4,7.55,5,8.63,0,0,6.47-21.92,7.55-32S153.88,347.57,153.88,347.57Z"/><path class="cls-43" d="M151,386.4a2.26,2.26,0,0,1,3.23-.36c1.8,1.44,4.68,5,3.6,7.55-.71,1.65-1.44,2.51-1.08,4.31s3.95,4.31,3.95,4.31-3.95-3.95-3.23-6.11,2.16-3.23,1.08-5.39a16.82,16.82,0,0,0-4.08-5.33,2.19,2.19,0,0,0-3.45,1Z"/><path class="cls-18" d="M159.45,337.71s-11,12.14-12.67,15.23c0,0-4.58,6-10.33,18.55a7.2,7.2,0,0,0-.72,5.75s1.08,5.39,7.61,12.82c0,0,5.16,5.79,7.22,5.83,0,0-4.41-6.63-7.37-11.83s-5.13-8.12-2.43-13.13c0,0,8-15.7,13.61-24.19S159.45,337.71,159.45,337.71Z"/><path class="cls-8" d="M181.37,428.63s1.07,17.61-1.44,25.15-4.67,7.91-33.78,21.92c0,0,36.65,26.6,47.43,24.8,0,0,7.91,1.8,24.44-8.62l26.59-15.46s-32.16-12-34.31-21-2.16-26.23-2.16-26.23Z"/><path class="cls-9" d="M182.62,438.51s-1.07,16.89-3.59,19.05l-.72,1.07a14,14,0,0,0,1.25,1.42,18,18,0,0,0,22.73,2.2c2.65-1.75,5.51-4.22,6.57-7.21a149.69,149.69,0,0,1-1.44-16.53l-.36-5.39-24.12-.6Z"/><path class="cls-10" d="M159.64,337.91l-7.38,12.38s1.44,12.93-7.19,36.65c0,0,3.59,5.75,5,8.63a21.16,21.16,0,0,1,2.88,2.87,3.9,3.9,0,0,0-2.52,1.08s12.22,10.42,17.25,18.69,9.27,16.34,10,31.35l2.74-.27s1.79-6,1.08-18.61c0,0-17.1-12.53-19.69-27a139.3,139.3,0,0,1-3.93-27.95c-.46-14.87,4.21-26.73,5.65-29.61Z"/><g class="cls-69"><rect class="cls-13" x="149.56" y="407.5" width="14.37" height="1.18"/><rect class="cls-13" x="149.56" y="392.48" width="14.37" height="15.02"/><rect class="cls-14" x="149.56" y="377.46" width="14.37" height="15.02"/><rect class="cls-14" x="149.56" y="375.26" width="14.37" height="2.2"/></g><path class="cls-15" d="M163.94,345.79S156,363,158.19,378.14c0,0,1.08,25.51,7.54,34.85s15.46,20.85,28,23.36c0,0,5,1.44,15.82-6.46s18-23.72,18-23.72,3.24-7.91-.71-20.49C226.83,385.68,245.87,313.45,163.94,345.79Z"/><path class="cls-16" d="M208,431s.12,11.47.84,16.14c0,0,6.47,2.52,12.93-5,0,0,12.94,10.42,22.64-6.11A16.4,16.4,0,0,0,243,422.7l-.36-.72s2.87,1.08,4-1.44c0,0,.72-2.51-3.23-3.23,0,0,6.82-2.88,6.11-8.63s-10.26-7.25-10.26-7.25-9.15,9.77-14.54,11.92a1.11,1.11,0,0,0-.72.36C223.59,414.07,216.89,426.34,208,431Z"/><path class="cls-9" d="M150.31,388.72c0,2.72-.77,5.16.28,8.72a20.17,20.17,0,0,0,2.21,4.77s4.72,5,6.85,5.21,2.86-.37,2.86-.37a2.94,2.94,0,0,0,.84-1.41l-1.25-3.81s-5,3.26-8.22-1.77-2.52-10.78-2.52-12.94,1.44-9,3.95-9.34c0,0-3-1-4,4Z"/><path class="cls-17" d="M153.52,384.61s-3.6-2.52-2.52,11.14a12.65,12.65,0,0,0,5,8.85c4.69,3.36,6.18.67,6.18.67s-5.44-4.49-5.08-8.45,2.87-2.51.72-6.46A21,21,0,0,0,153.52,384.61Z"/><path class="cls-19" d="M147.59,401.32s11.86,9,17.61,18,7,16.35,7.55,28.33c0,.06,1.79,1.86,5.38,1.86,0,0,1.66-15.22-12.18-34.55a40.73,40.73,0,0,0-3.5-4.25C159,407,151.21,398.88,150.1,399.16,150.1,399.16,148,399.88,147.59,401.32Z"/><path class="cls-20" d="M151.36,398.62s-4.31,2.16-4.31,6.11,6.83,7.91,6.83,7.91-9.66,6.24-5.5,17.47a12.22,12.22,0,0,0,7.92,7.51c3.46,1,8.58,1.49,15.54-.55,0,0-5.23,11.59,6.37,12.44,0,0-12.84.86-9.24-10.64,0,0-12.3,5.7-21.42-5.6,0,0-5-7.13.65-16.76,0,0,2.08-2.8,3.88-3.52,0,0-4.83-3.17-6-5.53a4.75,4.75,0,0,1,.09-5.81S148.48,398.62,151.36,398.62Z"/><g class="cls-70"><rect class="cls-13" x="157.57" y="374.54" width="73.03" height="29.29"/><rect class="cls-14" x="157.57" y="345.25" width="73.03" height="29.29"/></g><path class="cls-22" d="M171.12,370.59s10.43-6.83,15.1-8.27c0,0,1.08,3.6-4.31,5.75A39.82,39.82,0,0,1,171.12,370.59Z"/><path class="cls-22" d="M217.48,369.87l-13.21-7.55s-1.07,4,4.32,6.11S217.48,369.87,217.48,369.87Z"/><path class="cls-10" d="M215.69,444.62c-.33.16,2.51-19.05,11.85-28.39s17.09-13.07,17.09-13.07,6.63,5.52.16,11.27a22.6,22.6,0,0,1-3.23,2.16s3.59,1.08,2.52,4a2.57,2.57,0,0,1-2.88,1.08s6.83,12.58-5,20.84c0,0-6.47,4-14.73-2.51A23.94,23.94,0,0,1,215.69,444.62Z"/><path class="cls-23" d="M210.87,446.48s-1.21.15-2.06.31c0,0-.85-9.18-.85-15.65,0,0,8.12-4.92,12-12,0,0-6.4,15-7.12,19.71S212.88,445.83,210.87,446.48Z"/><path class="cls-24" d="M210.12,446.6s3.59-.36,5.39-2.16c0,0,3.08-14.13,5.67-18.74,0,0,4.27-9.2,12.42-15,0,0,7.78-6.52,11-7.6,0,0-4.85-2.09-5.66-1.4s-7.11,9.09-14.56,11.72C224.39,413.43,212.27,424.67,210.12,446.6Z"/><path class="cls-25" d="M160.16,339c9.36,22,24.62,30.13,24.62,30.13a50.8,50.8,0,0,1-5-9.34s-.36,0,12.94,9.34S227,386.39,227,386.39l1.56,7.73c1.77,12-5.94,20.85-5.94,20.85s16.38-6.29,23.57-26.77,7.19-27.31,4.31-36.66S224,319.92,215.69,314.17s-16.89-1.44-16.89-1.44c-12.86,2.31-35.69,16.41-40.21,19.56a1.62,1.62,0,0,0-.64,1.81,12.09,12.09,0,0,0,.6,1.63l1.24,2.48C159.92,338.47,160,338.75,160.16,339Z"/><path class="cls-26" d="M159.09,334.47s14.8,22.3,48.36,33.43c0,0,16,5,23.87,5a177.79,177.79,0,0,1,3.59,19.4s0,5,14.74-14.73c0,0,6.71-19.32-2-31.58s-26.35-28.08-31.92-31.85-14-3.16-20.21-.59-35.68,17.3-36.39,19.82Z"/><path class="cls-11" d="M165.71,328.05s23.2,26.91,57,37a35.41,35.41,0,0,1-7.54-9.34s17.7,11.22,36.88,2.19c0,0,.49-7.75-7.42-16.57S220.9,318.06,216.76,315s-10.24-4.55-17.43-2.4S187.48,315.79,165.71,328.05Z"/><path class="cls-27" d="M158.85,332.1s18.73-13.81,41.2-20.27c0,0,8.27-2.51,14.66,1.71,0,0,5.83,2.61,22.39,20,0,0-12.79-10.75-16.74-9.67,0,0,20.48,19.77,12.93,25.52s-36.29-15.46-42-23.72a54,54,0,0,1-3.24-5.75s-15.63,4.76-27.4,12.62a1.46,1.46,0,0,0-.52,1.79c2.09,4.94,11.08,24.93,22.53,32.31l.91.64,1.25,1.87s-13.82-7.83-22.54-25.66l-4.11-8.81A2,2,0,0,1,158.85,332.1Z"/><path class="cls-28" d="M187.78,365.69s24.95,13.37,39.64,17.31c0,0,.66,0,1.38,5.38s1.08,15.45-2.51,22.64c0,0,12.94-7.21,19.31-21.13,0,0-6.38,18.61-21.65,23.82,0,0,6.47-8.62,4.67-19.76l-1.43-7.55S200.13,376.61,187.78,365.69Z"/><path class="cls-22" d="M160.7,383.53c.36,0,3.6,1.79,6.11.72s9-3.24,9.71-2.88a44.59,44.59,0,0,1,7.9,6.83s-7.19-3.24-12.94-.36c0,0-3.23,1.08-5.75-.36A29.06,29.06,0,0,1,160.7,383.53Z"/><path class="cls-22" d="M228.62,383.53c-.36,0-3.59,1.79-6.11.72s-9-3.24-9.7-2.88a44.54,44.54,0,0,0-7.91,6.83s7.19-3.24,12.94-.36c0,0,3.24,1.08,5.75-.36A28.62,28.62,0,0,0,228.62,383.53Z"/><path class="cls-29" d="M167.89,382.45a40.47,40.47,0,0,1,5.75-2.16c1.8-.36,3.23-1.08,4.31-.36s2.52,1.44,2.88,1.8l2.51,2.52a15.37,15.37,0,0,0-3.58-4c-.2-.15-.38-.31-.56-.47a3.53,3.53,0,0,0-2.68-.88C172.56,379.21,167.89,382.45,167.89,382.45Z"/><path class="cls-29" d="M221.48,381.58a40.61,40.61,0,0,0-5.88-1.77c-1.82-.24-3.3-.87-4.33-.08s-2.41,1.6-2.75,2l-2.34,2.68a15.22,15.22,0,0,1,3.31-4.27l.53-.5a3.53,3.53,0,0,1,2.62-1.06C216.61,378.66,221.48,381.58,221.48,381.58Z"/><path class="cls-9" d="M200.59,402.21c0,4.27-4,5.39-9.34,4-2.59-.69-2.88-4-2.52-7.19.34-3,2.36-9.34,5-9.34S200.59,398,200.59,402.21Z"/><path class="cls-30" d="M190,386.22s2.76,9,1.19,17.61C191.18,403.83,198.28,396.28,190,386.22Z"/><path class="cls-9" d="M178.67,401c0,4.66-2.56,8.44-6.83,8.44s-7.44-3.93-8.62-8.44c-1.08-4.14-2.52-10.6,7.73-8.45C175.12,393.39,178.67,396.29,178.67,401Z"/><path class="cls-9" d="M212.81,401.5c1.23,5,7,8.92,11.14,7.9s4.38-6,4.33-11.06c-.05-4.65-.07-11.64-9.36-6.91C215.13,393.36,211.58,396.53,212.81,401.5Z"/><path class="cls-37" d="M165.28,410.15s15.37,24.23,29.38,23.87c12.85-.33,26.6-17.87,29.64-23.29.4-.71.82-1.41,1.29-2.08a20.89,20.89,0,0,0,3.21-8s0,14.73-23.11,31.9c0,0-6.71,4.75-11.93,3.7-4.63-.94-12-2.91-20.44-13.87C173.32,422.33,167.52,415.4,165.28,410.15Z"/><path class="cls-17" d="M182.32,431.28l-.06,9s8.27,11.86,16.18,6.11,9-9.35,9-9.35V430.6s-10.06,8.27-20.84,2.52l-4.43-2.52Z"/><path class="cls-38" d="M181.55,429.89l1.39,1.66s0,23.49-3.55,27.08S151,475.88,151,475.88s21.49,18.42,34.82,23.23c0,0-32.06-15.68-41-23.59,0,0,29.45-12.6,32.24-16.6.21-.29.4-.6.61-.9C178.92,456.1,183,448.77,181.55,429.89Z"/><path class="cls-38" d="M208.1,430.6l-1.39,1.67s-.05,23.49,3.55,27.08,28.39,17.25,28.39,17.25S217.16,495,203.83,499.82c0,0,32.4-17.1,41.17-23.39,0,0-28.5-12.19-31.29-16.18-.21-.3-2.2-1.93-2.41-2.23C210,456.1,208,449.47,208.1,430.6Z"/><path class="cls-39" d="M145.07,475.34s-19,7.55-25.15,15.46-8.27,20.12-8.27,20.12H277s-4.43-16.53-10.9-22.64-21.2-11.75-21.2-11.75-34.92,24.87-51.1,24.15c0,0-4.51.89-17.35-5.84S145.07,475.34,145.07,475.34Z"/><path class="cls-40" d="M133.21,482.17s-4.12,18.33,10.88,28.57l104.74.18s9.8-9.7,6.21-28.75l-9.35-5s-34,23.9-50.13,24.62-51-24.44-51-24.44Z"/><path class="cls-41" d="M111.83,510.74s3.56-16.86,9.33-21.37a95.66,95.66,0,0,1,24.09-14.21S179.64,498.53,187.9,499a29.58,29.58,0,0,0,20.41-1.86s26.16-13.31,35.5-21.93c0,0,22.12,9.7,25.21,15.05s8.12,20.45,8.12,20.45-4.67-16.89-14.38-23a152.76,152.76,0,0,0-16.89-9.34s-36.65,25.87-52.11,25.15-50.31-25.15-50.31-25.15-19.4,8.62-23,14.73-7.18,17.61-7.18,17.61Z"/></g><g class="cls-71"><path class="cls-72" d="M250.24,390a.5.5,0,0,1-.35-.85l.31-.33c1.22-1.32,4.47-4.82,11.83-5.74,6.87-.86,9.11-3.21,10.9-5.1l.65-.68c.3-.3.6-.65.92-1,1.8-2.08,4.26-4.93,10.37-4.06a.5.5,0,0,1-.14,1c-5.56-.79-7.73,1.71-9.47,3.73-.34.39-.65.75-1,1.07l-.63.65c-1.81,1.91-4.28,4.51-11.51,5.41-7,.88-9.95,4.07-11.22,5.43l-.33.35A.51.51,0,0,1,250.24,390Z"/></g><g class="cls-71"><path class="cls-72" d="M290.57,409.77a.51.51,0,0,1-.31-.11c-4.38-3.51-7.52-2.46-10-1.61-.49.16-1,.32-1.38.43l-.88.24c-2.53.72-6,1.7-12.66-1.19-6.47-2.81-10.64-1.57-12.42-1l-.47.14a.51.51,0,0,1-.61-.36.5.5,0,0,1,.36-.61l.43-.13c1.73-.51,6.31-1.87,13.11,1.08,6.35,2.76,9.47,1.86,12,1.15l.91-.25c.41-.11.84-.25,1.31-.41,2.61-.88,6.18-2.08,11,1.78a.5.5,0,0,1,.08.7A.51.51,0,0,1,290.57,409.77Z"/></g><g class="cls-71"><path class="cls-72" d="M270.23,442.92a.5.5,0,0,1-.5-.46c-.44-4.75-3.24-5.94-5.49-6.89-.44-.18-.86-.36-1.22-.54l-.76-.37c-2.19-1-5.19-2.47-7.61-8.3a13.89,13.89,0,0,0-7.48-8l-.41-.19a.51.51,0,0,1-.22-.67.49.49,0,0,1,.67-.22l.38.17a15,15,0,0,1,8,8.5c2.27,5.47,4.95,6.75,7.11,7.78.27.12.53.25.78.38s.74.34,1.15.51c2.37,1,5.61,2.37,6.1,7.72a.49.49,0,0,1-.45.54Z"/></g><g class="cls-71"><path class="cls-72" d="M143.68,394.41a.5.5,0,0,1-.38-.19,4.59,4.59,0,0,1-.32-.41c-1.2-1.57-4-5.27-11.33-6.92-7.54-1.71-9.88-4.72-11.59-6.92l-.6-.76c-.31-.37-.6-.79-.92-1.24-1.63-2.32-3.68-5.22-9.66-4.94a.53.53,0,0,1-.52-.48.5.5,0,0,1,.48-.52c6.51-.27,8.83,3,10.52,5.37.3.42.58.82.87,1.17l.62.78c1.7,2.2,3.83,4.93,11,6.56,7.68,1.74,10.75,5.78,11.9,7.3l.3.38a.49.49,0,0,1-.07.7A.47.47,0,0,1,143.68,394.41Z"/></g><g class="cls-71"><path class="cls-72" d="M118.6,412.73a15.68,15.68,0,0,1-6.26-1.35c-.31-.13-.61-.25-.9-.35-.45-.17-.92-.38-1.42-.6-2.58-1.16-5.8-2.61-10.83.65a.49.49,0,0,1-.69-.14.5.5,0,0,1,.15-.69c5.48-3.57,9.12-1.93,11.78-.73.48.21.92.41,1.35.57l.93.36c2.59,1,5.81,2.29,12.83,0,7.5-2.4,12.19-.49,14,.23a4.18,4.18,0,0,0,.45.18.5.5,0,1,1-.35.94l-.48-.19c-1.83-.75-6.12-2.5-13.27-.2A23.89,23.89,0,0,1,118.6,412.73Z"/></g><g class="cls-71"><path class="cls-72" d="M117,448.38h-.09a.5.5,0,0,1-.4-.58c1.08-5.6,4.64-6.7,7.24-7.51.46-.14.89-.28,1.28-.43l.86-.32c2.4-.86,5.38-1.94,8.37-7.51a15.9,15.9,0,0,1,9.32-8.13l.42-.15a.49.49,0,0,1,.64.28.49.49,0,0,1-.28.65l-.45.16c-1.72.6-5.74,2-8.77,7.67-3.17,5.9-6.48,7.1-8.91,8l-.83.31c-.41.16-.87.3-1.35.46-2.49.77-5.59,1.73-6.56,6.73A.49.49,0,0,1,117,448.38Z"/></g><path class="cls-32" d="M205.72,419.05c0,2.43-4.34,4-9.7,4s-9.7-1.53-9.7-4,4.35-4.41,9.7-4.41S205.72,416.61,205.72,419.05Z"/><path class="cls-31" d="M189.85,419.05c0-2.17,3.42-4,7.94-4.34-.58,0-1.16-.07-1.77-.07-5.35,0-9.7,2-9.7,4.41s4.92,4.23,9.7,4.4a12.91,12.91,0,0,0,1.77-.07C193.27,423,189.85,421.21,189.85,419.05Z"/><path class="cls-31" d="M202.2,419.05c0-2.17-3.43-4-7.94-4.34.57,0,1.16-.07,1.76-.07,5.36,0,10.61,2.14,9.7,4.41s-4.34,4.4-9.7,4.4c-.6,0-1.19,0-1.76-.07C198.77,423,202.2,421.21,202.2,419.05Z"/><path class="cls-33" d="M187.84,417.29a2.25,2.25,0,0,0,.55,1.28h0a61,61,0,0,0,14.81,0s1-.48.5-1.93C203.7,416.64,193.7,415.05,187.84,417.29Z"/><path class="cls-35" d="M187.23,417.39c2.3-.76,9-2.34,18.52.57.12,0,.21-.1.13-.18-1.54-1.57-9.16-8.35-18.8-.68A.17.17,0,0,0,187.23,417.39Z"/><path class="cls-33" d="M187.9,420.5s0-1.45.49-1.93h14.74a.37.37,0,0,1,.3.14,3.27,3.27,0,0,1,.76,1.79S189.38,421.47,187.9,420.5Z"/><path class="cls-36" d="M187.38,420.1c3.31.33,11.46.91,18.3-.46a.15.15,0,0,1,.14.25c-1.86,2.24-9.36,7.09-18.73,1A.43.43,0,0,1,187.38,420.1Z"/><path class="cls-35" d="M188.36,416.36s-3.8,3.13,1,5.77C189.41,422.13,181.91,419.49,188.36,416.36Z"/><path class="cls-35" d="M204.4,416.84s2.19,1.89-.3,4.1c0,0,2.65-1,2.33-2.34C206.31,418.07,205.67,417.45,204.4,416.84Z"/></g></g></svg>