<svg xmlns="http://www.w3.org/2000/svg" viewBox="0 0 911 910"><defs><style>.cls-1,.cls-4{fill:none;stroke-miterlimit:10;}.cls-1{stroke:#9eccb6;stroke-linecap:round;stroke-width:0.75px;}.cls-2{fill:#a5d0bd;}.cls-3{fill:#cfd7d9;}.cls-4{stroke:#a5d0bd;}.cls-5{fill:#e0eaec;}.cls-6{fill:#018591;opacity:0.2;}.cls-7{fill:#f4c8ab;}.cls-8{fill:#221e20;}.cls-9{fill:#0a0607;}.cls-10{fill:#d4a67f;}.cls-11{fill:#4798a5;}.cls-12{fill:#387e8c;}.cls-13{fill:#5d1111;}.cls-14{fill:#490e0c;}</style></defs><title>uso_de_tapabocas</title><g id="_Que_es_" data-name="¿Que es?"><path class="cls-1" d="M224.83,179s40.2,181.3,84.24,294.11"/><path class="cls-2" d="M225.94,184c-3.06-3.78-22.38-50.72-4.93-52.37S225.94,184,225.94,184"/><path class="cls-2" d="M232.13,213.81c.44-4,16.21-42.32,26.79-33.15s-26.79,33.15-26.79,33.15"/><path class="cls-2" d="M241.74,247.61c.44-4,16.2-42.32,26.78-33.15s-26.78,33.15-26.78,33.15"/><path class="cls-2" d="M253.19,289.77c-.18-5.72,14.55-63.39,31.43-52.48s-31.43,52.48-31.43,52.48"/><path class="cls-2" d="M262.12,330.06c-.18-5.72,14.56-63.4,31.43-52.48s-31.43,52.48-31.43,52.48"/><path class="cls-2" d="M228.84,208.53c-2.11-2.8-31.35-24.67-35.21-13s35.21,13,35.21,13"/><path class="cls-2" d="M236.84,238.42c-2.12-2.8-31.36-24.68-35.21-13s35.21,13,35.21,13"/><path class="cls-2" d="M247.22,275.45c-2.44-4.4-39.62-41.34-47.45-25.47s47.45,25.47,47.45,25.47"/><path class="cls-2" d="M258.66,309.94c-2.45-4.4-39.63-41.35-47.45-25.48s47.45,25.48,47.45,25.48"/><path class="cls-1" d="M196.6,263.76S286.18,404.25,358,485.83"/><path class="cls-2" d="M199.09,267.66c-3.74-2.24-34.45-35.88-20.24-42.63s20.24,42.63,20.24,42.63"/><path class="cls-2" d="M213.46,290.88c-.85-3.48.66-40.66,12.4-36.18s-12.4,36.18-12.4,36.18"/><path class="cls-2" d="M231.94,316.42c-.85-3.48.66-40.66,12.4-36.17s-12.4,36.17-12.4,36.17"/><path class="cls-2" d="M254.53,348.44c-1.9-4.76-7.19-57.91,10.39-53.89s-10.39,53.89-10.39,53.89"/><path class="cls-2" d="M274.44,379.66c-1.91-4.76-7.19-57.91,10.38-53.89s-10.38,53.89-10.38,53.89"/><path class="cls-2" d="M209.06,287.44c-2.64-1.71-34-11.18-33.66-.12s33.66.12,33.66.12"/><path class="cls-2" d="M225,310.18c-2.64-1.71-34-11.18-33.66-.12s33.66.12,33.66.12"/><path class="cls-2" d="M245.11,338.21c-3.41-3-46.1-22.69-47.82-6.9s47.82,6.9,47.82,6.9"/><path class="cls-2" d="M265.34,363.77c-3.41-3-46.1-22.69-47.82-6.9s47.82,6.9,47.82,6.9"/><path class="cls-3" d="M113.63,322c-10-7.82-52.7-43.42-20.76-69.59s68.47,40.57,83.88,58.15,25.11,3.6,36.23-2.49,28.33-1.06,32.62,22.62,6.78,59.89,22.56,57,39.45-7.15,37.28,25.85-5.4,37.65-.74,40.88,7.52,19,4.29,23.67-29.81,82.83-143.46,17.85c0,0-40.86-45.57-9.3-51.29s11.49-26.53-10.38-34.79-59.15-34.11-36.91-46.29S151.62,351.74,113.63,322Z"/><path class="cls-4" d="M96.81,251.65S223,408.09,267,493.83"/><path class="cls-4" d="M218.35,315.2s8.33,59.29-4.84,92.4"/><path class="cls-4" d="M111.8,379.33c12.55,1.8,73.8,25.61,95,18.58"/><path class="cls-4" d="M286.09,396.65S279.22,449.17,259,472"/><path class="cls-1" d="M646.17,153.15s-61.73,199.5-81.55,334.23"/><path class="cls-2" d="M644.45,158.7c-.89-5.4,6.39-62,24.36-53.91s-24.36,53.91-24.36,53.91"/><path class="cls-2" d="M633.9,191.25c2.63-3.63,39.4-32.32,44.63-17.47s-44.63,17.47-44.63,17.47"/><path class="cls-2" d="M624.46,229.61c2.63-3.62,39.4-32.31,44.63-17.46s-44.63,17.46-44.63,17.46"/><path class="cls-2" d="M612.15,277.17c3-5.68,49.54-53.81,59.94-33.75s-59.94,33.75-59.94,33.75"/><path class="cls-2" d="M598.44,321.5c3-5.68,49.53-53.81,59.93-33.75s-59.93,33.75-59.93,33.75"/><path class="cls-2" d="M633.63,184.26c-.51-3.92-16.88-41.57-27.17-32.28s27.17,32.28,27.17,32.28"/><path class="cls-2" d="M624.79,217.9c-.51-3.91-16.88-41.57-27.17-32.28s27.17,32.28,27.17,32.28"/><path class="cls-2" d="M614.3,259.86c.07-5.66-15.67-62.46-32.16-51.31s32.16,51.31,32.16,51.31"/><path class="cls-2" d="M606.26,299.92c.07-5.66-15.67-62.46-32.16-51.31s32.16,51.31,32.16,51.31"/><path class="cls-1" d="M694.9,225.43S615.54,357.61,577.61,450.74"/><path class="cls-2" d="M692.7,229.1c.31-4,15.5-43.35,26.95-34.36S692.7,229.1,692.7,229.1"/><path class="cls-2" d="M679.41,250.58c2.52-2.13,33.94-16.23,35.07-4.66s-35.07,4.66-35.07,4.66"/><path class="cls-2" d="M665.89,276.43c2.52-2.13,33.94-16.23,35.07-4.66s-35.07,4.66-35.07,4.66"/><path class="cls-2" d="M648.69,308.37c3.16-3.55,45-29.87,48.92-13.65s-48.92,13.65-48.92,13.65"/><path class="cls-2" d="M631.05,337.74c3.16-3.54,45-29.86,48.92-13.65s-48.92,13.65-48.92,13.65"/><path class="cls-2" d="M680.44,245.52c.32-2.89-4.79-32.78-13.8-27.93s13.8,27.93,13.8,27.93"/><path class="cls-2" d="M668.18,268.09c.33-2.89-4.79-32.77-13.8-27.92s13.8,27.92,13.8,27.92"/><path class="cls-2" d="M653.28,296.34c1-4-.25-47.55-14-42.46s14,42.46,14,42.46"/><path class="cls-2" d="M640.46,323.65c1-4-.25-47.55-14-42.46s14,42.46,14,42.46"/><path class="cls-5" d="M273.08,324.92a116.84,116.84,0,0,0-7,33.13c-2.1,28.9-11.47,95.57-53.18,116.43-53.79,26.89-125.51,67.23-40.34,192.75C240.32,767.05,489.52,779,658.6,685c85.25-47.39,137-139.84,126.3-236.79C776.83,375,735,302.9,598.2,311.58a206.65,206.65,0,0,1-81.5-11.35,250.49,250.49,0,0,1-48.26-23C413.29,243.3,314,217.39,273.08,324.92Z"/><circle class="cls-6" cx="467.02" cy="485.4" r="222.56"/><path class="cls-7" d="M413.7,371.59A68.13,68.13,0,0,1,418.16,332c6.55-14.72,19.87-29.92,47-31.79,54.24-3.74,92.22-4.67,101,46.76C579.24,423.68,475,517.85,439,507.84c-33.67-9.35-1.87-35.53-7.48-50.5C427.13,445.73,417.7,394.11,413.7,371.59Z"/><path class="cls-8" d="M433.55,381.6c0,1.87,9.74,15,21.42,18.7s23.37-3.74,25.32-5.61,21.42-11.22,37,0,29.21,5.61,29.21,5.61-24.35,55.17-42.85,56.11c-15.56.79-27.26,1.87-42.84-7.48S431.6,419,431.6,419s10.71-15.89-2.92-30.86Z"/><path class="cls-9" d="M504.64,395.62s0,41.15-9.74,56.11C494.9,451.73,510.48,444.25,504.64,395.62Z"/><path class="cls-10" d="M520.33,347.93a82.78,82.78,0,0,1-33.67,18.7c-20.57,5.62-24.31-1.87-39.28,11.23,0,0,1.77-13.1,18.71-13.1C484.79,364.76,497.88,362.89,520.33,347.93Z"/><path class="cls-10" d="M443.91,444a36.16,36.16,0,0,1-1,17.85,6.74,6.74,0,0,0,6.1,8.57,163.33,163.33,0,0,0,37.58-2.08A9.86,9.86,0,0,0,492.5,465c1.79-2.16,1.64-1.11,5.38-4.85,0,0-13.09,9.35-39.27-5.61-6.71-3.84-9.36-9.35-11.16-12.67C446.47,440.07,443.5,442,443.91,444Z"/><path class="cls-11" d="M431.49,474.55s-43.95,13.81-67.14,72.21A101.71,101.71,0,0,1,346,576.6c-20.87,23.59-53.83,74.79,16.31,107,91.18,41.94,189.49,25.2,244.61-22.48,2.33-2,4.68-4,7.09-5.94,10.81-8.65,46.68-42,30.71-93.15C626,502.23,534.35,449.86,519.39,459.21c-13.76,8.6-33.84,42.5-73.33,29a24.35,24.35,0,0,1-14.57-13.67Z"/><path class="cls-12" d="M384.73,532.16s-5.61,13.09-3.74,33.66-1.87,24.31-9.35,31.8-35.54,28-22.45,46.75S366,666.82,366,679.91c0,0-3.74-20.58-20.58-31.8s1.87-33.66,16.84-50.49,11.22-35.54,11.22-39.28S371.64,550.86,384.73,532.16Z"/><path class="cls-12" d="M539,572.37c0,3.74-11.22,24.31-3.74,52.36,0,0-7.48-13.09-22.45-13.09,0,0,26.19,3.74,24.32,39.28s-5.69,48.81-5.69,48.81l22.16-7.18s1.3-33.22-9.93-65S539,572.37,539,572.37Z"/><path class="cls-13" d="M539,331.1s-20.58,24.31-59.85,28-59.85,28.06-46.76,65.46c0,0,24.32,29.93-3.74,52.37,0,0-44.89,24.32-61.72,84.16,0,0,0,24.32-9.35,37.41s-26.18,29.92-28.05,41.15,0,16.83,0,16.83-31.8-15-43-63.59c0,0-1.87-26.18,1.87-41.15,0,0-13.09,13.1-9.35,52.37,0,0-24.32-46.76-18.7-87.9s50.49-67.33,56.1-76.68,26.19-24.32,35.54-74.82,20.57-54.23,41.15-71.07,39.27-54.23,39.27-54.23,7.48-22.45,56.11-11.23,74.81,28.06,82.29,46.76,1.87,31.8,1.87,31.8,28.06,44.88,18.71,95.38c0,0-5.61,15,5.61,28.05S675.56,503.17,670,551.79s-33.67,78.56-33.67,78.56-2.53-78.54-50.94-121.66a185,185,0,0,1-15.6-15.58c-10.58-12-29.88-31.45-42.87-30.16,0,0-13.49,25.25-44.21,40.42A87.92,87.92,0,0,0,453,526.49c-14.39,17.76-27.49,46.76-2.76,80.48,0,0-61.72-46.76,9.35-106.61,0,0,57.48-41.15,73.63-76.68,0,0,19.89-20.57,14.27-84.16C547.44,339.52,547.44,320.81,539,331.1Z"/><path class="cls-14" d="M352.93,376.92s0,46.76-63.59,93.52C289.34,470.44,352.93,440.51,352.93,376.92Z"/><path class="cls-14" d="M549.31,399.36s-7.48,59.85-69.2,99.13C480.11,498.49,547.44,472.31,549.31,399.36Z"/><path class="cls-14" d="M551.41,298.9a4.19,4.19,0,0,0-7.83-1.37c-8.4,15.18-26.75,40-59.73,47.6-48.62,11.22-72.94,24.31-63.59,69.2,0,0-10.53-50.9,53.43-59.19a102.35,102.35,0,0,0,20.47-4.63c13.15-4.56,32.43-13.59,43.93-29.7,0,0,5.68-7.09,12.09-10.16a4.19,4.19,0,0,0,2.36-4.42Z"/><path class="cls-14" d="M601.68,440.51s58,58,54.24,110.35c-2,28.08-6.64,40.8-9.82,46.38a2.33,2.33,0,0,1-4.29-.66c-3.15-13.55-14.14-52.72-40.13-75.65,0,0,32.14,50.75,35.29,89.51a3.51,3.51,0,0,0,5.7,2.52c5.29-4.38,13.16-14.09,17.63-34.76,6.92-32-.5-65.51-19.51-92.21C631.71,473.25,619.11,457.94,601.68,440.51Z"/></g></svg>