<svg xmlns="http://www.w3.org/2000/svg" xmlns:xlink="http://www.w3.org/1999/xlink" viewBox="0 0 911 910"><defs><style>.cls-1,.cls-16,.cls-40,.cls-42{fill:none;}.cls-2{isolation:isolate;}.cls-3,.cls-6{mix-blend-mode:multiply;}.cls-4,.cls-6{fill:#fbeede;}.cls-5{fill:#fcefde;}.cls-7{clip-path:url(#clip-path);}.cls-8{fill:#d87e66;}.cls-9{fill:#d77d65;}.cls-10{fill:#00c68d;}.cls-11{fill:#d67e66;}.cls-12{fill:#872017;}.cls-13{fill:#842917;}.cls-14{fill:#9d3720;}.cls-15{fill:#fed18e;}.cls-16{stroke:#e9b472;}.cls-16,.cls-40,.cls-42{stroke-miterlimit:10;}.cls-17{fill:#224251;}.cls-18{fill:#fff;}.cls-19{fill:#106a85;}.cls-20{fill:#fffffd;}.cls-21{fill:#f1f1f1;}.cls-22{fill:url(#Degradado_sin_nombre_3);}.cls-23{fill:url(#Degradado_sin_nombre_14);}.cls-24{fill:#cdfffe;}.cls-25{fill:#6cebe2;}.cls-26{fill:#00b69f;}.cls-27{fill:url(#Degradado_sin_nombre_11);}.cls-28{fill:#00b6a0;}.cls-29{fill:url(#Degradado_sin_nombre_9);}.cls-30{fill:#01a189;}.cls-31{fill:#00a18c;}.cls-32{fill:#01b7a0;}.cls-33{fill:#fffeff;opacity:0.5;}.cls-34{fill:#bef3ff;}.cls-35{fill:#d2fcfb;}.cls-36{fill:#bbf5ff;}.cls-37{fill:#d4fefd;}.cls-38{fill:#f8ffff;}.cls-39{fill:#ea997c;}.cls-40,.cls-42{stroke:#d68065;}.cls-41{fill:#d68065;}.cls-42{stroke-linecap:round;}.cls-43{fill:#e9987b;}.cls-44{fill:#9f3920;}.cls-45{fill:#fff6f6;}.cls-46{fill:#60a7a1;}.cls-47{fill:#7cc5ba;}</style><clipPath id="clip-path"><path class="cls-1" d="M295.28,204.58a144.38,144.38,0,0,0-8.6,40.86c-2.59,35.62-14.14,117.82-65.56,143.53C154.8,422.13,66.38,471.86,171.38,626.6c83.51,123.07,390.74,137.77,599.19,21.87C875.67,590,939.48,476.06,926.28,356.54c-10-90.17-61.57-179.1-230.17-168.4a254.84,254.84,0,0,1-100.48-14,309.16,309.16,0,0,1-59.51-28.34C468.13,104,345.68,72,295.28,204.58Z"/></clipPath><linearGradient id="Degradado_sin_nombre_3" x1="513.93" y1="1265.48" x2="572.28" y2="1265.48" gradientTransform="translate(-96.27 -635.99)" gradientUnits="userSpaceOnUse"><stop offset="0" stop-color="#fff"/><stop offset="1" stop-color="#a8edfd"/></linearGradient><linearGradient id="Degradado_sin_nombre_14" x1="515.49" y1="1265.48" x2="570.72" y2="1265.48" gradientTransform="translate(-96.27 -635.99)" gradientUnits="userSpaceOnUse"><stop offset="0" stop-color="#eefefd"/><stop offset="1" stop-color="#aeedff"/></linearGradient><linearGradient id="Degradado_sin_nombre_11" x1="515.49" y1="1297.91" x2="570.72" y2="1297.91" gradientTransform="matrix(0.94, 0.35, -0.35, 0.94, 385.17, -746.23)" gradientUnits="userSpaceOnUse"><stop offset="0" stop-color="#6deae4"/><stop offset="1" stop-color="#00aaa1"/></linearGradient><linearGradient id="Degradado_sin_nombre_9" x1="515.52" y1="1300.86" x2="570.74" y2="1300.86" gradientTransform="matrix(0.94, 0.35, -0.35, 0.94, 385.17, -746.23)" gradientUnits="userSpaceOnUse"><stop offset="0" stop-color="#65e4db"/><stop offset="1" stop-color="#00988a"/></linearGradient></defs><title>Gel-antibacterial</title><g class="cls-2"><g id="_Que_es_" data-name="¿Que es?"><g class="cls-3"><path class="cls-4" d="M91.87,341.08S185.9,466.36,234,556.5"/><path class="cls-4" d="M94.49,344.56c-.74-4-20.19-42.18-30.83-31.91s30.83,31.91,30.83,31.91"/><path class="cls-4" d="M110.16,364.88c-2.77-1.9-36-12.86-35.93-1.05s35.93,1.05,35.93,1.05"/><path class="cls-4" d="M126.53,389.59c-2.77-1.9-36-12.86-35.93-1s35.93,1,35.93,1"/><path class="cls-4" d="M147.25,420.06c-3.57-3.25-48.59-25.48-50.86-8.68s50.86,8.68,50.86,8.68"/><path class="cls-4" d="M168.14,447.9c-3.56-3.25-48.59-25.48-50.86-8.68s50.86,8.68,50.86,8.68"/><path class="cls-4" d="M108.59,359.87c-.63-2.89,1.41-33.62,11-29.66s-11,29.66-11,29.66"/><path class="cls-4" d="M123.34,381.4c-.63-2.89,1.41-33.62,11-29.66s-11,29.66-11,29.66"/><path class="cls-4" d="M141.35,408.39c-1.47-4-4.72-48.08,9.74-44.37s-9.74,44.37-9.74,44.37"/><path class="cls-4" d="M157.16,434.64c-1.48-4-4.72-48.07,9.74-44.37s-9.74,44.37-9.74,44.37"/></g><g class="cls-3"><path class="cls-4" d="M79.89,463.49s139,41.44,224.39,82"/><path class="cls-4" d="M83.75,464.64C81,462,45.49,444.36,43.24,457.87s40.51,6.77,40.51,6.77"/><path class="cls-4" d="M106.61,471.13c-3.11.11-33.87,10.25-27.32,19s27.32-19,27.32-19"/><path class="cls-4" d="M132.4,480.5c-3.11.11-33.87,10.25-27.32,19s27.32-19,27.32-19"/><path class="cls-4" d="M164.6,491.77c-4.44-.46-50.19,7.8-42.63,21.55s42.63-21.55,42.63-21.55"/><path class="cls-4" d="M195.48,501c-4.44-.46-50.19,7.8-42.63,21.55S195.48,501,195.48,501"/><path class="cls-4" d="M102.68,468.26c-2.06-1.8-17.47-25.8-8.13-28.15s8.13,28.15,8.13,28.15"/><path class="cls-4" d="M125.51,476.16c-2.06-1.8-17.46-25.8-8.13-28.15s8.13,28.15,8.13,28.15"/><path class="cls-4" d="M153.78,486.32c-3.29-2.15-30-33.17-17.19-38.38s17.19,38.38,17.19,38.38"/><path class="cls-4" d="M180,497.16c-3.29-2.15-30-33.18-17.19-38.39S180,497.16,180,497.16"/></g><g class="cls-3"><path class="cls-4" d="M197.51,395.82s11.64,105,8.63,173.85"/><path class="cls-4" d="M197.84,398.74c.95-2.6,2.74-31.43-7-29.11s7,29.11,7,29.11"/><path class="cls-4" d="M200,415.92c-1-2.06-16.49-19.82-20.51-12.94S200,415.92,200,415.92"/><path class="cls-4" d="M201,435.88c-1-2.05-16.49-19.81-20.51-12.93S201,435.88,201,435.88"/><path class="cls-4" d="M202.58,460.69c-1-3.11-19.48-31.47-26.56-22.49s26.56,22.49,26.56,22.49"/><path class="cls-4" d="M205.17,484c-1-3.11-19.48-31.46-26.57-22.48S205.17,484,205.17,484"/><path class="cls-4" d="M200.78,412.47c.62-1.9,12.35-19,16.58-13.45s-16.58,13.45-16.58,13.45"/><path class="cls-4" d="M202,430c.62-1.89,12.35-19,16.58-13.44S202,430,202,430"/><path class="cls-4" d="M203.16,451.88c.51-2.82,13.75-29.54,20.88-22.43s-20.88,22.43-20.88,22.43"/><path class="cls-4" d="M203.34,472.55c.51-2.82,13.74-29.54,20.87-22.43s-20.87,22.43-20.87,22.43"/></g><g class="cls-3"><path class="cls-4" d="M731.85,219.62s-41.76,93.51-78,149.6"/><path class="cls-4" d="M730.69,222.21c2.07-1.7,17.7-24.93,8.45-27.75s-8.45,27.75-8.45,27.75"/><path class="cls-4" d="M724.05,237.63c.2-2.19-4.08-24.66-10.81-20.87s10.81,20.87,10.81,20.87"/><path class="cls-4" d="M715.12,254.83c.21-2.19-4.07-24.66-10.8-20.87s10.8,20.87,10.8,20.87"/><path class="cls-4" d="M704.28,276.34c.73-3.07-.86-35.86-11.18-31.82s11.18,31.82,11.18,31.82"/><path class="cls-4" d="M695,297.12c.73-3.07-.86-35.86-11.18-31.82S695,297.12,695,297.12"/><path class="cls-4" d="M726.41,235.14c1.45-1.28,19.67-9.87,20.46-3.12s-20.46,3.12-20.46,3.12"/><path class="cls-4" d="M718.79,250.4c1.45-1.28,19.67-9.86,20.46-3.11s-20.46,3.11-20.46,3.11"/><path class="cls-4" d="M709.08,269.26c1.81-2.1,26-17.95,28.46-8.51s-28.46,8.51-28.46,8.51"/><path class="cls-4" d="M699.09,286.63c1.81-2.1,26-17.95,28.46-8.51s-28.46,8.51-28.46,8.51"/></g><g class="cls-3"><path class="cls-4" d="M658.08,251.63s20.42,92.59,24.33,154.3"/><path class="cls-4" d="M658.65,254.2c.6-2.41-.56-28.31-9-25.31s9,25.31,9,25.31"/><path class="cls-4" d="M662.19,269.32c-1.05-1.74-16.61-16.1-19.53-9.58s19.53,9.58,19.53,9.58"/><path class="cls-4" d="M665,287c-1-1.74-16.61-16.1-19.53-9.58S665,287,665,287"/><path class="cls-4" d="M668.8,309c-1.14-2.68-20.39-26.21-25.85-17.52S668.8,309,668.8,309"/><path class="cls-4" d="M673.34,329.6c-1.14-2.69-20.39-26.21-25.85-17.53s25.85,17.53,25.85,17.53"/><path class="cls-4" d="M662.58,266.17c.38-1.75,9.2-18.17,13.51-13.58s-13.51,13.58-13.51,13.58"/><path class="cls-4" d="M665.32,281.73c.37-1.75,9.2-18.18,13.5-13.59s-13.5,13.59-13.5,13.59"/><path class="cls-4" d="M668.48,301.11c.19-2.56,9.44-27.67,16.48-22s-16.48,22-16.48,22"/><path class="cls-4" d="M670.61,319.54c.19-2.56,9.45-27.67,16.49-22s-16.49,22-16.49,22"/></g><g class="cls-3"><path class="cls-4" d="M734.1,297.38s-56.34,40-96.64,60.12"/><path class="cls-4" d="M732.53,298.49c1.79-.28,18.83-8.41,14.43-13.22s-14.43,13.22-14.43,13.22"/><path class="cls-4" d="M723.39,305.16c.87-1.2,6.09-15.72.88-15.83s-.88,15.83-.88,15.83"/><path class="cls-4" d="M712.3,312.09c.87-1.2,6.09-15.72.89-15.83s-.89,15.83-.89,15.83"/><path class="cls-4" d="M698.63,320.87c1.47-1.54,11.8-21.13,4.42-22.33s-4.42,22.33-4.42,22.33"/><path class="cls-4" d="M686.11,329.75c1.47-1.53,11.8-21.12,4.42-22.32s-4.42,22.32-4.42,22.32"/><path class="cls-4" d="M725.61,304.53c1.29-.25,14.81,1,12.95,5.21s-12.95-5.21-12.95-5.21"/><path class="cls-4" d="M716,310.78c1.28-.25,14.81,1,12.95,5.21S716,310.78,716,310.78"/><path class="cls-4" d="M703.84,318.4c1.78-.6,21.25-1.52,19.45,4.82s-19.45-4.82-19.45-4.82"/><path class="cls-4" d="M692.08,325.07c1.78-.61,21.25-1.52,19.45,4.81s-19.45-4.81-19.45-4.81"/></g><path class="cls-5" d="M308.24,328.6a110.19,110.19,0,0,0-6.56,31.17c-2,27.18-10.79,89.88-50,109.5-50.59,25.3-118,63.24-37.94,181.3,63.71,93.89,298.1,105.1,457.13,16.68C751,622.67,799.71,535.71,789.64,444.53c-7.59-68.8-47-136.64-175.6-128.48a194.39,194.39,0,0,1-76.66-10.67A235.71,235.71,0,0,1,492,283.76C440.11,251.83,346.69,227.46,308.24,328.6Z"/><path class="cls-6" d="M254.63,591.1a110,110,0,0,1-6.56-31.17c-2-27.18-10.79-89.89-50-109.5-50.6-25.3-118-63.25-38-181.3C223.81,175.24,458.21,164,617.24,252.45,697.42,297,746.1,384,736,475.17c-7.59,68.79-47,136.64-175.6,128.47a194.37,194.37,0,0,0-76.66,10.67,235.86,235.86,0,0,0-45.4,21.63C386.5,667.86,293.08,692.23,254.63,591.1Z"/><g class="cls-7"><path class="cls-8" d="M302.05,552.06,278.53,648l54.56,9.41s20.69-45.15,25.39-85.59Z"/><path class="cls-9" d="M657.59,571.82s9.4,56.43,10.34,59.25,8.57,48.88-39.35,18.28c-2.38-1.52-4.89-2.82-7.4-4.11-3.37-1.73-9.27-6.82-12.5-21.69-4.71-21.64-7.53-29.16-7.53-29.16Z"/><path class="cls-10" d="M458.37,627.23l-7-2.58,2.58-7a1.46,1.46,0,0,0-.87-1.88l-3.43-1.26a1.47,1.47,0,0,0-1.88.86l-2.58,7-7-2.58a1.47,1.47,0,0,0-1.88.86L435,624.1a1.47,1.47,0,0,0,.87,1.88l7,2.58-2.58,7a1.46,1.46,0,0,0,.86,1.88l3.44,1.26a1.45,1.45,0,0,0,1.87-.87l2.58-7,7,2.58a1.46,1.46,0,0,0,1.88-.87l1.26-3.43A1.46,1.46,0,0,0,458.37,627.23Z"/><path class="cls-11" d="M452.54,385.58s12.23,12.23,28.22,10.35,23.51-10.35,23.51-10.35S479.82,413.8,452.54,385.58Z"/><path class="cls-12" d="M470.41,154.2s-13,6.05-16.52,15.65a4.53,4.53,0,0,0-.06,3.16,2.57,2.57,0,0,0,2.47,1.88s-4.7,1.88-4.7-4.7C451.6,165.49,462.89,157,470.41,154.2Z"/><path class="cls-12" d="M451,209.8s-9.93-10.29-9.82-20.54a4.5,4.5,0,0,1,1.08-3,2.56,2.56,0,0,1,3-.88s-3.72-3.44-6.08,2.71C437.47,192.52,445,204.47,451,209.8Z"/><path class="cls-12" d="M528.26,182s6.58,19.75-2.83,23.51l-.94,4.71S537.66,203.58,528.26,182Z"/><path class="cls-13" d="M449.72,213.46c0-.94-3.76-23.52.94-32.92s16.93-16.93,21.63-21.64,14.11-10.34,24.46-1.88,12.22,8.47,15.05,9.41,11.28,4.7,14.1,19.75,5.65,26.34-13.16,32.92Z"/><path class="cls-14" d="M503.8,301.4c4.43-.89,12.21-3.44,18.6,2.57a3.14,3.14,0,0,0,3.62.61c1.06-.59,1.77-1.77.36-4.12-2.83-4.7-11.78-10.28-20.7-4.7C498.16,300.46,503.8,301.4,503.8,301.4Z"/><path class="cls-14" d="M454.59,301.4c-4.43-.89-12.21-3.44-18.6,2.57a3.14,3.14,0,0,1-3.62.61c-1.06-.59-1.76-1.77-.35-4.12,2.82-4.7,11.77-10.28,20.69-4.7C460.23,300.46,454.59,301.4,454.59,301.4Z"/><path class="cls-15" d="M415.39,424.62l-65.84,23.51s-19.75,3.76-37.63,58.32-21.63,72.42-21.63,72.42,32,24.45,71.48,17.87l10.35-30.1s-.57,16.26,6.59,44.21c1.36,5.32,3.81,10.4,3.51,15.52-4.46,75.71-13.86,104.87-28.91,178.24H605.38s-41.38-138.27-29.15-190l12.22-51.73s0,18.81,6.59,35.74c0,0,50.79-.94,69.6-15,0,0-22.57-82.77-26.34-91.23S626.08,458.48,596,447.19s-57.38-18.81-57.38-18.81Z"/><path class="cls-16" d="M355.66,481.52c0,1.88,15,64.9,16,80.89"/><path class="cls-16" d="M601.15,481.52S590.8,538,588,561.47"/><rect class="cls-17" x="464.78" y="553.35" width="15.25" height="7.93" rx="2.88" transform="translate(227.03 -130.84) rotate(20.66)"/><rect class="cls-17" x="467.34" y="559.92" width="4.25" height="11.05" transform="translate(229.7 -129.28) rotate(20.66)"/><path class="cls-18" d="M460.33,570H474.5a6.51,6.51,0,0,1,6.51,6.51V579a0,0,0,0,1,0,0H453.82a0,0,0,0,1,0,0v-2.45A6.51,6.51,0,0,1,460.33,570Z" transform="translate(232.77 -127.97) rotate(20.66)"/><path class="cls-19" d="M454.46,576.16h19.79a8.24,8.24,0,0,1,8.24,8.24v3.09a0,0,0,0,1,0,0H446.22a0,0,0,0,1,0,0V584.4A8.24,8.24,0,0,1,454.46,576.16Z" transform="translate(235.16 -126.42) rotate(20.66)"/><path class="cls-20" d="M462.06,551.08a16.17,16.17,0,0,0,.07,6,1.79,1.79,0,0,0,1.71,1.36c.52,0,1.24,0,2.23-.07,3.41-.23,20.95.63,31.17,14.48l3.91.87s-2-11.06-14.79-18.15a36.88,36.88,0,0,0-7.67-3.16c-3.9-1.14-11.6-3.19-15.12-2.8A1.71,1.71,0,0,0,462.06,551.08Z"/><path class="cls-17" d="M497.24,572.89c.63-.07,3.09-.64,3.52-.56l.47,1.61Z"/><path class="cls-21" d="M462.94,557.14a.82.82,0,0,1,.69-1.06c4.08-.45,20.17-1,34.17,16.11,0,0-12.92-15.7-34-14.48a.81.81,0,0,1-.84-.57Z"/><path class="cls-22" d="M438.86,583H454.8A21.21,21.21,0,0,1,476,604.17v62.57a9.28,9.28,0,0,1-9.28,9.28H426.93a9.28,9.28,0,0,1-9.28-9.28V604.17A21.21,21.21,0,0,1,438.86,583Z" transform="translate(250.85 -117.17) rotate(20.66)"/><path class="cls-23" d="M439.29,585.45h15.09a20.07,20.07,0,0,1,20.07,20.07v59.22a8.78,8.78,0,0,1-8.78,8.78H428a8.78,8.78,0,0,1-8.78-8.78V605.52a20.07,20.07,0,0,1,20.07-20.07Z" transform="translate(250.85 -117.17) rotate(20.66)"/><path class="cls-24" d="M440.43,585.4H453a16.68,16.68,0,0,1,16.68,16.68v64.11a7.3,7.3,0,0,1-7.3,7.3H431.05a7.3,7.3,0,0,1-7.3-7.3V602.07a16.68,16.68,0,0,1,16.68-16.68Z" transform="translate(250.82 -117.13) rotate(20.66)"/><path class="cls-25" d="M431.21,592.63s9-.54,19.55,6.78S476,613.48,482.4,611l-4.2,11.13a102.26,102.26,0,0,0-32.66-15.35C426,601.58,427.31,603,427.31,603Z"/><path class="cls-26" d="M434.65,592.74s7.59.64,17,7.29,21.89,11.74,28,11.61L476,620.57A90.1,90.1,0,0,0,446.8,607c-16.52-4.29-16.36-3.93-16.36-3.93Z"/><path class="cls-27" d="M413.48,639.65a118.24,118.24,0,0,0,26.34,12.85,134,134,0,0,0,25.51,6.21l-5.78,15.1a7.52,7.52,0,0,1-3,3.74,6.19,6.19,0,0,1-4.55.81l-40.9-15.29a6.4,6.4,0,0,1-3.64-5.28,7.44,7.44,0,0,1,.49-3.16Z"/><path class="cls-28" d="M417.19,642.26a107.37,107.37,0,0,0,21.92,10.12A164.33,164.33,0,0,0,460.16,658l-5.57,14.58a8.51,8.51,0,0,1-2.8,3.83,5.08,5.08,0,0,1-3.91,1L414,664.78a5.27,5.27,0,0,1-2.8-4.95c0-1.05-.34-2.41,0-3.42Z"/><path class="cls-29" d="M410.86,646.68s7.45-3,25.59,9.14S463,665,463,665l-3.46,9.16a6.87,6.87,0,0,1-7.85,4.78l-40.82-15.39a6.71,6.71,0,0,1-3.53-7.42Z"/><path class="cls-30" d="M415.57,646.08s5-.23,20.33,9.33c14.06,8.78,21.5,9.47,21.5,9.47l-2.66,7s-1.55,5.47-6.93,5L413.68,664s-3.81-1.84-2.66-7Z"/><circle class="cls-31" cx="439.5" cy="600.76" r="2.41"/><circle class="cls-32" cx="419.01" cy="655.1" r="2.97"/><circle class="cls-32" cx="439.91" cy="668.73" r="2.41"/><circle class="cls-32" cx="426.07" cy="655.64" r="1.56"/><circle class="cls-32" cx="447.6" cy="666.79" r="1.56"/><circle class="cls-32" cx="422.78" cy="661.97" r="0.99"/><circle class="cls-31" cx="445.5" cy="600.91" r="1.84"/><circle class="cls-31" cx="470.9" cy="613.82" r="1.84"/><ellipse class="cls-33" cx="444.55" cy="587.38" rx="6.43" ry="3.65" transform="translate(-110.41 102.96) rotate(-11.76)"/><path class="cls-34" d="M499.84,577.43a6.72,6.72,0,0,1-.3,6.57c-2.05,3.67-4.49,8.56-3.08,10.67s5,3.91,6.94-3.13S502.78,580.36,499.84,577.43Z"/><path class="cls-35" d="M500,578a6.17,6.17,0,0,1-.29,6c-1.87,3.37-4.09,7.84-2.82,9.77s4.52,3.56,6.29-2.88S502.68,580.64,500,578Z"/><path class="cls-36" d="M500.26,578.33a5.86,5.86,0,0,1-.3,5.59c-1.73,3.16-3.79,7.34-2.65,9.13s4.1,3.29,5.76-2.73S502.66,580.79,500.26,578.33Z"/><path class="cls-37" d="M500.49,578.7a5.39,5.39,0,0,1-.26,5.2c-1.62,2.93-3.55,6.82-2.46,8.49s3.88,3.08,5.42-2.52S502.77,581,500.49,578.7Z"/><path class="cls-38" d="M501.53,582.38a5.63,5.63,0,0,1-.54,3.78c-1,2.24-2.3,5.2-1.89,6.31s1.68,1.92,2.89-2.24S502.48,583.86,501.53,582.38Z"/><path class="cls-39" d="M509,634.83a71.32,71.32,0,0,1,17.88.94s63.95-12.22,90.29-14.1,59.26-2.83,50.79,29.15S619,680,592.69,673.4s-42.33-14.11-45.15-12.23c0,0-1.88,5.64-15,12.23s-16,18.81-22.57,13.17,7.52-16.93,7.52-16.93-24.46,17.87-35.74,16c0,0-2.82,0-3.76-4.7,0,0-7.53,4.7-9.41-3.76,0,0-8.47,1.88-8.47-6.58,0,0-7.52-6.59-7.52-10.35s2.82-15.05,7.52-13.17a4.07,4.07,0,0,1,1.89,3.76s6.58-3.76,7.52,3.77C469.47,654.59,497.69,635.77,509,634.83Z"/><path class="cls-40" d="M478.88,680V657.4a.93.93,0,0,1,.93-.93,9.41,9.41,0,0,1,9.41,9.41V680"/><path class="cls-40" d="M469,675.75V657.54c0-2.89,2.16-4.2,4.8-2.95a8.82,8.82,0,0,1,5.08,7.94v13.22"/><path class="cls-41" d="M460.4,653.59a74.14,74.14,0,0,0-.67,16.09S458.08,660.37,460.4,653.59Z"/><path class="cls-42" d="M490.63,673.87s1.88-2.82,6.59-3.76"/><path class="cls-42" d="M521.67,640s0,12.22.94,18.81a11.62,11.62,0,0,1-3.76,10.34"/><path class="cls-43" d="M278.53,657.41s-4.7-20.69,21.64-28.22,90.29-16,96.88-19.75,22.57-26.34,39.5-43.27,16-21.63,18.81-22.57,21.64,1.88,28.22,1.88c0,0,2.82,8.46-13.17,7.52l-8.46-.94S456.3,565.23,450.66,569c0,0,17.87,10.35,18.81,11.29s15,25.4,6.58,23.52c0,0-4.7-.95-12.22-15a32.51,32.51,0,0,1-12.23-5.65s-4.7,0,1.88,4.71,6.58,4.7,9.41,8.46,16,22.57,7.52,21.63c0,0-5.64-.94-14.11-15,0,0-12.22-8.46-13.17-5.64s27.28,28.22,20.7,32.92c0,0-2.82,3.76-24.46-19.75,0,0-.94-2.82-4.7,5.64s-10.35,18.81-22.57,17.87c0,0-65.84,58.32-103.47,50.79C308.63,684.68,285.12,680,278.53,657.41Z"/><path class="cls-8" d="M440.78,568.52s6.59,0,8.47.94C449.25,569.46,447.37,566.64,440.78,568.52Z"/><path class="cls-43" d="M450.19,376.65l-.51,15.14a32,32,0,0,1-11.37,23.39c-7.67,6.46-18.2,13.81-27.63,15.08,0,0,64,67.72,127.92.94a84.17,84.17,0,0,1-21.49-11.39,31.59,31.59,0,0,1-12.22-24.08l-.62-18.61Z"/><path class="cls-43" d="M423.85,338.08c8.32,32.15,25.45,46,38.12,52a40.11,40.11,0,0,0,31.93.83c31.55-12.64,40-52.8,40-52.8l.55.15c12.78,3.16,18.23-12.59,16.38-27.42-1.88-15.05-16-7.53-16-7.53,0-11.28-9.41-75.24-63-70.54s-54.55,69.6-54.55,69.6-14.11-2.82-9.41,21.63c0,0,2.82,16.93,15.05,14.11Z"/><path class="cls-44" d="M502.86,215.81s-45.15-21.63-70.54,6.58-28.69,38.1-27.75,51.26,4.7,30.1,4.7,30.1,11.29-2.82,13.17,0-1.88,30.1-2.82,42.33-6.58,31-3.76,36.68S427.14,393.11,429,395c0,0-4.71-10.35-4.71-12.23s0-16,1.88-22.57.94-28.22.94-32S423.38,288.7,461,290.58c0,0,14.1-14.1,14.1-39.5,0,0,2.83,22.57-1.88,35.74,0,0,16.93-1.88,18.81-1.88s11.29-17.87,8.47-36.68c0,0,26.34,16,28.22,41.38s.94,50.79,1.88,61.14-4.71,27.28-2.82,32.92S541,395,544.72,395a40.52,40.52,0,0,1-7.53-26.34c.94-16,.94-15-.94-26.33s-.94-38.57-.94-38.57a12.71,12.71,0,0,1,13.17.94S576.7,222.86,502.86,215.81Z"/><path class="cls-45" d="M424.79,312.69l7.53,23.51s3.76,1.88,2.82-.94L425.73,307Z"/><path class="cls-45" d="M534.05,313.63l-7.52,23.51s-3.77,1.88-2.83-.94L533.11,308Z"/><path class="cls-46" d="M433.26,332.44s19.75,2.82,28.22.94,24.45-3.76,40.44.94c0,0,19.75.94,25.4-2.82,0,0-2.36,30.57-3.77,35.74-1,3.63-19.28,31.51-44.2,30.1-23.44-1.33-33.19-8.95-41.91-24a24.38,24.38,0,0,1-3.07-9A190.46,190.46,0,0,1,433.26,332.44Z"/><path class="cls-47" d="M433.26,338s19.75,2.61,28.22.87,24.45-3.49,40.44.87c0,0,19.75.87,25.4-2.62,0,0-2.36,28.37-3.77,33.17-1,3.37-19.28,29.24-44.2,27.93-23.44-1.23-33.19-8.3-41.91-22.3a21.53,21.53,0,0,1-3.07-8.35A164.08,164.08,0,0,1,433.26,338Z"/></g></g></g></svg>