<svg xmlns="http://www.w3.org/2000/svg" viewBox="0 0 884.89 1083.71"><defs><style>.cls-1{fill:#fff;}.cls-2{fill:#e63b47;}.cls-3{fill:#666;}.cls-4{fill:#b3b3b3;}</style></defs><title>vulnerables</title><g id="Tarjetas"><polygon class="cls-1" points="884.95 1081.85 12.8 1083.85 12.8 13.33 884.95 11.33 884.95 1081.85"/><polygon class="cls-2" points="886.17 908.71 -0.2 908.31 -0.2 -5.15 885.77 -5.15 886.17 908.71"/><path d="M522.86,1083.6c-4.2-13.58-8-27.32-12.76-40.7-3.25-9.09-.88-15.35,6.12-21.42,12.21-10.6,23.94-21.78,35.84-32.75,19.9-18.34,26.33-40.21,18-66.37-3.83-12-6.63-24.29-10.66-39.29,12.1-1.23,22.38-3,32.65-2.88,3.13,0,8,4.55,9,7.92A122.27,122.27,0,0,1,605.92,915c3.48,53.75,8.1,107.57-3.47,161-.53,2.43-.1,5.06-.11,7.59Z"/><path d="M53.3,586.73c-4.89-23.1-6.9-50.48-8.77-76.47-2.05-28.61-1.94-31.05-12.61-31.05-11.26,0-31.35,71-31.12,57.25C1.49,494.69.09,379.17.6,337.39c.08-6.12,5.68-12.78,8.86-18.2,10.42-17.77,29.28-15.47,46-18.57,13.83-2.56,27.74-5.5,41-10,8.51-2.9,10.7-9.72,8-19.8-6-22.39-13.36-45.24-14.08-68.09-1.07-34.09,12.24-64,42.39-83.08,37.05-23.44,81.66,0,84.44,44,.83,13.16,1.7,26.79-.74,39.58-2.68,14.13-8,28.1-14.3,41.1-6.1,12.56-15.46,23.51-22.1,35.86-1.25,2.32,2.82,10.75,5.65,11.46,10.24,2.54,21.08,2.5,31.53,4.37,8.47,1.52,13.76-.34,19-7.94,20.06-29,47.59-45.2,83.52-45.79,13.8-.23,27.35-5.61,30.42-18.67s.61-26.91-11.34-38.78c-8.12-8.06-11.6-21.84-14.61-33.71s-1.56-24.77-4.33-36.7c-5.57-24.09,19.64-71.88,43.71-75.68,16.18-2.54,33.37,1.14,50.07,2.43,2,.15,4.53,2.45,5.52,4.41,8.26,16.33,24.23,27.09,28.15,47.3,5.09,26.27,9.88,51.73.41,77.55-16.81,45.87-3,69.08,44.17,72.87,31.09,2.49,55.3,15.82,71.17,43.25q38.13,65.91,76.51,131.68c4.11,7,8.71,13.77,14,21.6a4.15,4.15,0,0,0,7.46-1.24A76.58,76.58,0,0,0,663.2,429c5.27-39.8,11.36-79.53,15.13-119.48,2.2-23.32,11-41.36,31.47-52.18a463.59,463.59,0,0,1,50.09-22.21c17.54-6.75,26.7-27.9,21.25-46.07-6.34-21.17-12.23-42.85-14.71-64.71-3.54-31.37,14.18-60.91,39.34-64,27.29-3.36,56-7.57,80.84,11.17V206.06c-9.51,18.35-13.85,36.7,0,55,0,140.65-1,283.38-1,424-7.86-2-14.9-8.33-22.5-7.59-31.15,3-55.31-9.72-75-30.82,7.32-18.71,16.45-37.51,21.9-57.32,5.5-20,8.33-40.89,10.29-61.58.79-8.34-2-18.25-6.36-25.61-14.46-24.64-36.64-38.55-64.95-43.38-34.54-5.89-78.85,17.94-86.52,50.33-4.72,19.94-5.83,41.46-4.21,61.93,1.19,14.89,8.22,29.88,15.18,43.52,3.36,6.58,10.27,10.58,6.12,19.63-4.33,9.43-5.09,20.53-19.25,22.63C653,658,642.9,662.22,640,668c-8.92,18-24.64,22.58-41.63,27.3-14.11,3.92-28.63,8.08-41.26,15.17-24.28,13.62-38.64,35.23-41.08,63.6-17.77-4.76-32.58-29-31.06-49.06,4.05,2.6,7.89,5.08,10.41,6.71-5.95-27.91-10.37-56.41-18.44-83.84-5.5-18.68-13.88-37.38-24.88-53.38-19.91-29-66.5-28-87.77.7-14.75,19.88-24.55,42.06-25.22,67.55-.45,16.75-.5,33.66-3,50.16-1.51,10-7.29,19.34-11.3,28.92-1.25,3-3,5.72-5,9.48l15.56,2.89c-12.34,7.83-21.72,13.67-31,19.7-17.65,11.51-28.32,27.42-29.9,48.75-1.8,24.31-1.78,48.88-5.4,72.92-6.32,42.07-4.31,81.31,27.06,114.11,2.77,2.89,4.23,7,6.73,10.17,6.64,8.45,7,16.73,3,27-4.48,11.72-6.28,24.47-9.25,36.77l-18.45-.6c-4.53-25.34-8.37-50.83-13.76-76-11.55-53.87-21.25-107.76-20.34-163.3.36-22.22-4.37-44.52-6.7-66.79-2.35-22.55-15.57-38.34-32.71-51.2C178.64,706.17,175,684.67,187,653.65c10.08-26.27,18.08-54.24,21-82.08,2.55-24.51-8.64-48.14-32.94-58.8-13.33-5.84-29.71-4.79-44.74-6.72-37.91-4.88-66.76,30.32-62.12,63.74,3.05,21.94,6.6,44.05,12.81,65.23,6.58,22.49-.82,41-23.09,49.38-17.9,6.73-36.5,17.09-54.48,24.19"/><path class="cls-3" d="M608.18,1085.68c4.57-25.54,8.43-225,13.87-250.33,11.55-53.86,21.25-107.75,20.34-163.29-.37-22.22,4.36-44.52,6.69-66.79,2.36-22.56,15.57-38.34,32.72-51.2C707.86,534.51,711.46,513,699.56,482c-10.08-26.27-18.09-54.24-21-82.08-2.55-24.52,8.64-48.15,32.95-58.8,13.33-5.85,29.71-4.79,44.73-6.72,37.92-4.88,66.76,30.31,62.12,63.74-3,21.93-6.6,44-12.8,65.23-6.59,22.48.81,41,23.09,49.37l59.18,20.91,1.88,552.18Z"/><path class="cls-3" d="M304.59,773.23c-19.41,25.23-21.75,87.42-21.75,87.42L293,864.44c4.78,13.38,20.05,205.83,24.25,219.41l-301.78-1.08c3-12.3,19.72-199.85,24.2-211.58,3.91-10.24,3.6-18.53-3-27-2.51-3.19-4-7.28-6.73-10.16C-1.53,801.24-3.54,762,2.79,719.93c3.61-24,3.6-48.6,5.4-72.92,1.57-21.33,12.24-37.24,29.89-48.74,9.26-6,18.64-11.87,31-19.71L53.5,575.68c2-3.76,3.76-6.52,5-9.49,4-9.57,9.79-18.93,11.3-28.92,2.5-16.49,2.56-33.4,3-50.16.67-25.49,10.48-47.66,25.22-67.55,21.28-28.7,67.87-29.67,87.78-.69,11,16,19.38,34.69,24.87,53.37,8.07,27.43,12.5,55.93,18.45,83.85l-10.41-6.72c-1.52,20.1,13.29,44.3,31,49.07,2.45-28.38,16.81-50,41.08-63.61,12.63-7.09,27.16-11.25,41.26-15.16,17-4.72,32.72-9.28,41.64-27.31,2.86-5.78,12.92-10,20.26-11.12,14.16-2.1,14.91-13.21,19.24-22.63,4.16-9.05-2.75-13.05-6.11-19.63-7-13.65-14-28.63-15.18-43.53-1.63-20.46-.51-42,4.21-61.93,7.66-32.39,52-56.21,86.51-50.32,28.32,4.83,50.5,18.74,64.95,43.37,4.32,7.36,7.15,17.28,6.37,25.61-2,20.7-4.8,41.6-10.29,61.58-5.45,19.81-14.59,38.61-21.9,57.33,14.74,15.82,32,26.93,52.87,30.23a194.19,194.19,0,0,1,64.79,21.95c23.23,13,45.81,28.75,55.21,45.21,0,82.56-74.37,104-74.37,186.61L601.24,771.5l19.06,23.34v70.32l-29.92-30.09-4.87,2.47c1.45,8.69,26.16,25.33,28.62,33.7,4.43,15,0,182.42,1.94,212.5l-282.37-.86c0-2.53,1.92-180.08,2.44-182.5,11.57-53.46,7.83-90.86,4.35-144.62Z"/><path class="cls-4" d="M278.33,1083.6c-4.58-25.54-8.43-51.23-13.87-76.58-11.55-53.87-21.25-107.76-20.34-163.3.36-22.22-4.37-44.52-6.7-66.79-2.35-22.55-15.57-38.34-32.71-51.2C178.64,706.17,175,684.67,187,653.65c10.08-26.27,18.08-54.24,21-82.08,2.55-24.51-8.64-48.14-32.94-58.8-13.33-5.84-29.71-4.79-44.74-6.72-37.91-4.88-66.76,30.32-62.12,63.74,3.05,21.94,6.6,44.05,12.81,65.23,6.58,22.49-.82,41-23.09,49.38L-.3,705.3l.2,378.44Z"/><path class="cls-4" d="M522.86,1083.6H296.67c3-12.3,4.77-25,9.25-36.77,3.92-10.25,3.6-18.53-3-27-2.5-3.19-4-7.28-6.73-10.17-31.37-32.8-33.38-72-27.06-114.11,3.62-24,3.6-48.61,5.4-72.92,1.58-21.33,12.25-37.24,29.9-48.75,9.25-6,18.63-11.87,31-19.7l-15.56-2.89c2-3.76,3.76-6.51,5-9.48,4-9.58,9.79-18.94,11.3-28.92,2.5-16.5,2.55-33.41,3-50.16.67-25.49,10.47-47.67,25.22-67.55,21.27-28.71,67.86-29.67,87.77-.7,11,16,19.38,34.7,24.88,53.38,8.07,27.43,12.49,55.93,18.44,83.84-2.52-1.63-6.36-4.11-10.41-6.71-1.52,20.1,13.29,44.3,31.06,49.06,2.44-28.37,16.8-50,41.08-63.6,12.63-7.09,27.15-11.25,41.26-15.17,17-4.72,32.71-9.27,41.63-27.3,2.86-5.78,12.92-10,20.26-11.13,14.16-2.1,14.92-13.2,19.25-22.63,4.15-9-2.76-13-6.12-19.63-7-13.64-14-28.63-15.18-43.52-1.62-20.47-.51-42,4.21-61.93,7.67-32.39,52-56.22,86.52-50.33,28.31,4.83,50.49,18.74,64.95,43.38,4.31,7.36,7.15,17.27,6.36,25.61-2,20.69-4.79,41.59-10.29,61.58-5.45,19.81-14.58,38.61-21.9,57.32,19.66,21.1,43.82,33.82,75,30.82,7.6-.74,15.68,3.54,23.54,5.51V930.72h0c-13,11-16,34.17-17.27,51.14-1.92,25.83-7.36,59.46,2,101.74h-269c0-2.53-.42-5.16.11-7.59,11.57-53.45,6.95-107.27,3.47-161a118.8,118.8,0,0,0-2.12-15.76,8.67,8.67,0,0,0-15.46-3.49c-5.49,7.33-12,21.41-17.87,48.27,0,0-12.62,109.65,0,138.76Z"/></g></svg>